<?xml version="1.0" encoding="utf-8" standalone="no"?>
<!DOCTYPE svg PUBLIC "-//W3C//DTD SVG 1.1//EN"
  "http://www.w3.org/Graphics/SVG/1.1/DTD/svg11.dtd">
<svg xmlns:xlink="http://www.w3.org/1999/xlink" width="360pt" height="252pt" viewBox="0 0 360 252" xmlns="http://www.w3.org/2000/svg" version="1.1">
 <metadata>
  <rdf:RDF xmlns:dc="http://purl.org/dc/elements/1.1/" xmlns:cc="http://creativecommons.org/ns#" xmlns:rdf="http://www.w3.org/1999/02/22-rdf-syntax-ns#">
   <cc:Work>
    <dc:type rdf:resource="http://purl.org/dc/dcmitype/StillImage"/>
    <dc:date>2024-10-12T11:31:47.419661</dc:date>
    <dc:format>image/svg+xml</dc:format>
    <dc:creator>
     <cc:Agent>
      <dc:title>Matplotlib v3.5.2, https://matplotlib.org/</dc:title>
     </cc:Agent>
    </dc:creator>
   </cc:Work>
  </rdf:RDF>
 </metadata>
 <defs>
  <style type="text/css">*{stroke-linejoin: round; stroke-linecap: butt}</style>
 </defs>
 <g id="figure_1">
  <g id="patch_1">
   <path d="M 0 252 
L 360 252 
L 360 0 
L 0 0 
z
" style="fill: #ffffff"/>
  </g>
  <g id="patch_2">
   <path d="M 87.48 224.28 
L 281.52 224.28 
L 281.52 30.24 
L 87.48 30.24 
z
" style="fill: #ffffff"/>
  </g>
  <g id="pane3d_1">
   <g id="patch_3">
    <path d="M 102.131358 176.435954 
L 166.209703 122.724215 
L 165.318953 45.262285 
L 98.174129 94.261519 
" style="fill: #f2f2f2; opacity: 0.5; stroke: #f2f2f2; stroke-linejoin: miter"/>
   </g>
  </g>
  <g id="pane3d_2">
   <g id="patch_4">
    <path d="M 166.209703 122.724215 
L 269.032584 152.610767 
L 272.70197 72.48075 
L 165.318953 45.262285 
" style="fill: #e6e6e6; opacity: 0.5; stroke: #e6e6e6; stroke-linejoin: miter"/>
   </g>
  </g>
  <g id="pane3d_3">
   <g id="patch_5">
    <path d="M 102.131358 176.435954 
L 211.128634 212.034464 
L 269.032584 152.610767 
L 166.209703 122.724215 
" style="fill: #ececec; opacity: 0.5; stroke: #ececec; stroke-linejoin: miter"/>
   </g>
  </g>
  <g id="axis3d_1">
   <g id="line2d_1">
    <path d="M 102.131358 176.435954 
L 211.128634 212.034464 
" style="fill: none; stroke: #000000; stroke-width: 0.8; stroke-linecap: square"/>
   </g>
   <g id="text_1">
    <!-- t -->
    <g transform="translate(137.462323 231.549479)scale(0.1 -0.1)">
     <defs>
      <path id="TimesNewRomanPSMT-74" d="M 1031 3803 
L 1031 2863 
L 1700 2863 
L 1700 2644 
L 1031 2644 
L 1031 788 
Q 1031 509 1111 412 
Q 1191 316 1316 316 
Q 1419 316 1516 380 
Q 1613 444 1666 569 
L 1788 569 
Q 1678 263 1478 108 
Q 1278 -47 1066 -47 
Q 922 -47 784 33 
Q 647 113 581 261 
Q 516 409 516 719 
L 516 2644 
L 63 2644 
L 63 2747 
Q 234 2816 414 2980 
Q 594 3144 734 3369 
Q 806 3488 934 3803 
L 1031 3803 
z
" transform="scale(0.015625)"/>
     </defs>
     <use xlink:href="#TimesNewRomanPSMT-74"/>
    </g>
   </g>
   <g id="Line3DCollection_1">
    <path d="M 108.732805 178.591987 
L 172.463076 124.541824 
L 171.836723 46.91435 
" style="fill: none; stroke: #b0b0b0; stroke-width: 0.8"/>
    <path d="M 127.063928 184.578932 
L 189.810097 129.583918 
L 189.925944 51.49944 
" style="fill: none; stroke: #b0b0b0; stroke-width: 0.8"/>
    <path d="M 145.730911 190.675568 
L 207.448462 134.710694 
L 208.332185 56.164885 
" style="fill: none; stroke: #b0b0b0; stroke-width: 0.8"/>
    <path d="M 164.74307 196.88494 
L 225.385575 139.924305 
L 227.063851 60.912817 
" style="fill: none; stroke: #b0b0b0; stroke-width: 0.8"/>
    <path d="M 184.11007 203.210201 
L 243.629089 145.226974 
L 246.129652 65.745442 
" style="fill: none; stroke: #b0b0b0; stroke-width: 0.8"/>
    <path d="M 203.841936 209.654629 
L 262.186923 150.621004 
L 265.538608 70.665046 
" style="fill: none; stroke: #b0b0b0; stroke-width: 0.8"/>
   </g>
   <g id="xtick_1">
    <g id="line2d_2">
     <path d="M 109.287765 178.121321 
L 107.620505 179.535338 
" style="fill: none; stroke: #000000; stroke-width: 0.8; stroke-linecap: square"/>
    </g>
    <g id="text_2">
     <!-- 0.000 -->
     <g transform="translate(89.943346 201.26817)scale(0.1 -0.1)">
      <defs>
       <path id="TimesNewRomanPSMT-30" d="M 231 2094 
Q 231 2819 450 3342 
Q 669 3866 1031 4122 
Q 1313 4325 1613 4325 
Q 2100 4325 2488 3828 
Q 2972 3213 2972 2159 
Q 2972 1422 2759 906 
Q 2547 391 2217 158 
Q 1888 -75 1581 -75 
Q 975 -75 572 641 
Q 231 1244 231 2094 
z
M 844 2016 
Q 844 1141 1059 588 
Q 1238 122 1591 122 
Q 1759 122 1940 273 
Q 2122 425 2216 781 
Q 2359 1319 2359 2297 
Q 2359 3022 2209 3506 
Q 2097 3866 1919 4016 
Q 1791 4119 1609 4119 
Q 1397 4119 1231 3928 
Q 1006 3669 925 3112 
Q 844 2556 844 2016 
z
" transform="scale(0.015625)"/>
       <path id="TimesNewRomanPSMT-2e" d="M 800 606 
Q 947 606 1047 504 
Q 1147 403 1147 259 
Q 1147 116 1045 14 
Q 944 -88 800 -88 
Q 656 -88 554 14 
Q 453 116 453 259 
Q 453 406 554 506 
Q 656 606 800 606 
z
" transform="scale(0.015625)"/>
      </defs>
      <use xlink:href="#TimesNewRomanPSMT-30"/>
      <use xlink:href="#TimesNewRomanPSMT-2e" x="50"/>
      <use xlink:href="#TimesNewRomanPSMT-30" x="75"/>
      <use xlink:href="#TimesNewRomanPSMT-30" x="125"/>
      <use xlink:href="#TimesNewRomanPSMT-30" x="175"/>
     </g>
    </g>
   </g>
   <g id="xtick_2">
    <g id="line2d_3">
     <path d="M 127.610721 184.099685 
L 125.967974 185.5395 
" style="fill: none; stroke: #000000; stroke-width: 0.8; stroke-linecap: square"/>
    </g>
    <g id="text_3">
     <!-- 0.002 -->
     <g transform="translate(108.300109 207.429508)scale(0.1 -0.1)">
      <defs>
       <path id="TimesNewRomanPSMT-32" d="M 2934 816 
L 2638 0 
L 138 0 
L 138 116 
Q 1241 1122 1691 1759 
Q 2141 2397 2141 2925 
Q 2141 3328 1894 3587 
Q 1647 3847 1303 3847 
Q 991 3847 742 3664 
Q 494 3481 375 3128 
L 259 3128 
Q 338 3706 661 4015 
Q 984 4325 1469 4325 
Q 1984 4325 2329 3994 
Q 2675 3663 2675 3213 
Q 2675 2891 2525 2569 
Q 2294 2063 1775 1497 
Q 997 647 803 472 
L 1909 472 
Q 2247 472 2383 497 
Q 2519 522 2628 598 
Q 2738 675 2819 816 
L 2934 816 
z
" transform="scale(0.015625)"/>
      </defs>
      <use xlink:href="#TimesNewRomanPSMT-30"/>
      <use xlink:href="#TimesNewRomanPSMT-2e" x="50"/>
      <use xlink:href="#TimesNewRomanPSMT-30" x="75"/>
      <use xlink:href="#TimesNewRomanPSMT-30" x="125"/>
      <use xlink:href="#TimesNewRomanPSMT-32" x="175"/>
     </g>
    </g>
   </g>
   <g id="xtick_3">
    <g id="line2d_4">
     <path d="M 146.269144 190.187504 
L 144.652093 191.65383 
" style="fill: none; stroke: #000000; stroke-width: 0.8; stroke-linecap: square"/>
    </g>
    <g id="text_4">
     <!-- 0.004 -->
     <g transform="translate(126.994951 213.704321)scale(0.1 -0.1)">
      <defs>
       <path id="TimesNewRomanPSMT-34" d="M 2978 1563 
L 2978 1119 
L 2409 1119 
L 2409 0 
L 1894 0 
L 1894 1119 
L 100 1119 
L 100 1519 
L 2066 4325 
L 2409 4325 
L 2409 1563 
L 2978 1563 
z
M 1894 1563 
L 1894 3666 
L 406 1563 
L 1894 1563 
z
" transform="scale(0.015625)"/>
      </defs>
      <use xlink:href="#TimesNewRomanPSMT-30"/>
      <use xlink:href="#TimesNewRomanPSMT-2e" x="50"/>
      <use xlink:href="#TimesNewRomanPSMT-30" x="75"/>
      <use xlink:href="#TimesNewRomanPSMT-30" x="125"/>
      <use xlink:href="#TimesNewRomanPSMT-34" x="175"/>
     </g>
    </g>
   </g>
   <g id="xtick_4">
    <g id="line2d_5">
     <path d="M 165.272332 196.387812 
L 163.682213 197.881387 
" style="fill: none; stroke: #000000; stroke-width: 0.8; stroke-linecap: square"/>
    </g>
    <g id="text_5">
     <!-- 0.006 -->
     <g transform="translate(146.037298 220.095771)scale(0.1 -0.1)">
      <defs>
       <path id="TimesNewRomanPSMT-36" d="M 2869 4325 
L 2869 4209 
Q 2456 4169 2195 4045 
Q 1934 3922 1679 3669 
Q 1425 3416 1258 3105 
Q 1091 2794 978 2366 
Q 1428 2675 1881 2675 
Q 2316 2675 2634 2325 
Q 2953 1975 2953 1425 
Q 2953 894 2631 456 
Q 2244 -75 1606 -75 
Q 1172 -75 869 213 
Q 275 772 275 1663 
Q 275 2231 503 2743 
Q 731 3256 1154 3653 
Q 1578 4050 1965 4187 
Q 2353 4325 2688 4325 
L 2869 4325 
z
M 925 2138 
Q 869 1716 869 1456 
Q 869 1156 980 804 
Q 1091 453 1309 247 
Q 1469 100 1697 100 
Q 1969 100 2183 356 
Q 2397 613 2397 1088 
Q 2397 1622 2184 2012 
Q 1972 2403 1581 2403 
Q 1463 2403 1327 2353 
Q 1191 2303 925 2138 
z
" transform="scale(0.015625)"/>
      </defs>
      <use xlink:href="#TimesNewRomanPSMT-30"/>
      <use xlink:href="#TimesNewRomanPSMT-2e" x="50"/>
      <use xlink:href="#TimesNewRomanPSMT-30" x="75"/>
      <use xlink:href="#TimesNewRomanPSMT-30" x="125"/>
      <use xlink:href="#TimesNewRomanPSMT-36" x="175"/>
     </g>
    </g>
   </g>
   <g id="xtick_5">
    <g id="line2d_6">
     <path d="M 184.62993 202.703756 
L 183.068036 204.225348 
" style="fill: none; stroke: #000000; stroke-width: 0.8; stroke-linecap: square"/>
    </g>
    <g id="text_6">
     <!-- 0.008 -->
     <g transform="translate(165.43693 226.607142)scale(0.1 -0.1)">
      <defs>
       <path id="TimesNewRomanPSMT-38" d="M 1228 2134 
Q 725 2547 579 2797 
Q 434 3047 434 3316 
Q 434 3728 753 4026 
Q 1072 4325 1600 4325 
Q 2113 4325 2425 4047 
Q 2738 3769 2738 3413 
Q 2738 3175 2569 2928 
Q 2400 2681 1866 2347 
Q 2416 1922 2594 1678 
Q 2831 1359 2831 1006 
Q 2831 559 2490 242 
Q 2150 -75 1597 -75 
Q 994 -75 656 303 
Q 388 606 388 966 
Q 388 1247 577 1523 
Q 766 1800 1228 2134 
z
M 1719 2469 
Q 2094 2806 2194 3001 
Q 2294 3197 2294 3444 
Q 2294 3772 2109 3958 
Q 1925 4144 1606 4144 
Q 1288 4144 1088 3959 
Q 888 3775 888 3528 
Q 888 3366 970 3203 
Q 1053 3041 1206 2894 
L 1719 2469 
z
M 1375 2016 
Q 1116 1797 991 1539 
Q 866 1281 866 981 
Q 866 578 1086 336 
Q 1306 94 1647 94 
Q 1984 94 2187 284 
Q 2391 475 2391 747 
Q 2391 972 2272 1150 
Q 2050 1481 1375 2016 
z
" transform="scale(0.015625)"/>
      </defs>
      <use xlink:href="#TimesNewRomanPSMT-30"/>
      <use xlink:href="#TimesNewRomanPSMT-2e" x="50"/>
      <use xlink:href="#TimesNewRomanPSMT-30" x="75"/>
      <use xlink:href="#TimesNewRomanPSMT-30" x="125"/>
      <use xlink:href="#TimesNewRomanPSMT-38" x="175"/>
     </g>
    </g>
   </g>
   <g id="xtick_6">
    <g id="line2d_7">
     <path d="M 204.351945 209.138601 
L 202.819627 210.689005 
" style="fill: none; stroke: #000000; stroke-width: 0.8; stroke-linecap: square"/>
    </g>
    <g id="text_7">
     <!-- 0.010 -->
     <g transform="translate(185.204 233.241841)scale(0.1 -0.1)">
      <defs>
       <path id="TimesNewRomanPSMT-31" d="M 750 3822 
L 1781 4325 
L 1884 4325 
L 1884 747 
Q 1884 391 1914 303 
Q 1944 216 2037 169 
Q 2131 122 2419 116 
L 2419 0 
L 825 0 
L 825 116 
Q 1125 122 1212 167 
Q 1300 213 1334 289 
Q 1369 366 1369 747 
L 1369 3034 
Q 1369 3497 1338 3628 
Q 1316 3728 1258 3775 
Q 1200 3822 1119 3822 
Q 1003 3822 797 3725 
L 750 3822 
z
" transform="scale(0.015625)"/>
      </defs>
      <use xlink:href="#TimesNewRomanPSMT-30"/>
      <use xlink:href="#TimesNewRomanPSMT-2e" x="50"/>
      <use xlink:href="#TimesNewRomanPSMT-30" x="75"/>
      <use xlink:href="#TimesNewRomanPSMT-31" x="125"/>
      <use xlink:href="#TimesNewRomanPSMT-30" x="175"/>
     </g>
    </g>
   </g>
  </g>
  <g id="axis3d_2">
   <g id="line2d_8">
    <path d="M 269.032584 152.610767 
L 211.128634 212.034464 
" style="fill: none; stroke: #000000; stroke-width: 0.8; stroke-linecap: square"/>
   </g>
   <g id="text_8">
    <!-- x -->
    <g transform="translate(265.859364 211.419244)scale(0.1 -0.1)">
     <defs>
      <path id="TimesNewRomanPSMT-78" d="M 84 2863 
L 1431 2863 
L 1431 2747 
Q 1303 2747 1251 2703 
Q 1200 2659 1200 2588 
Q 1200 2513 1309 2356 
Q 1344 2306 1413 2200 
L 1616 1875 
L 1850 2200 
Q 2075 2509 2075 2591 
Q 2075 2656 2022 2701 
Q 1969 2747 1850 2747 
L 1850 2863 
L 2819 2863 
L 2819 2747 
Q 2666 2738 2553 2663 
Q 2400 2556 2134 2200 
L 1744 1678 
L 2456 653 
Q 2719 275 2831 198 
Q 2944 122 3122 113 
L 3122 0 
L 1772 0 
L 1772 113 
Q 1913 113 1991 175 
Q 2050 219 2050 291 
Q 2050 363 1850 653 
L 1431 1266 
L 972 653 
Q 759 369 759 316 
Q 759 241 829 180 
Q 900 119 1041 113 
L 1041 0 
L 106 0 
L 106 113 
Q 219 128 303 191 
Q 422 281 703 653 
L 1303 1450 
L 759 2238 
Q 528 2575 401 2661 
Q 275 2747 84 2747 
L 84 2863 
z
" transform="scale(0.015625)"/>
     </defs>
     <use xlink:href="#TimesNewRomanPSMT-78"/>
    </g>
   </g>
   <g id="Line3DCollection_2">
    <path d="M 102.81736 90.873101 
L 106.546898 172.734762 
L 215.135139 207.922804 
" style="fill: none; stroke: #b0b0b0; stroke-width: 0.8"/>
    <path d="M 115.276732 81.780818 
L 118.406745 162.793602 
L 225.884267 196.891555 
" style="fill: none; stroke: #b0b0b0; stroke-width: 0.8"/>
    <path d="M 127.346068 72.973167 
L 129.911257 153.150292 
L 236.294547 186.208047 
" style="fill: none; stroke: #b0b0b0; stroke-width: 0.8"/>
    <path d="M 139.0434 64.436986 
L 141.076166 143.791644 
L 246.381752 175.856093 
" style="fill: none; stroke: #b0b0b0; stroke-width: 0.8"/>
    <path d="M 150.385667 56.159917 
L 151.916291 134.705236 
L 256.160693 165.820494 
" style="fill: none; stroke: #b0b0b0; stroke-width: 0.8"/>
    <path d="M 161.388793 48.130337 
L 162.445601 125.87936 
L 265.645287 156.086967 
" style="fill: none; stroke: #b0b0b0; stroke-width: 0.8"/>
   </g>
   <g id="xtick_7">
    <g id="line2d_9">
     <path d="M 214.220062 207.626274 
L 216.967658 208.516633 
" style="fill: none; stroke: #000000; stroke-width: 0.8; stroke-linecap: square"/>
    </g>
    <g id="text_9">
     <!-- 0.0 -->
     <g transform="translate(221.768638 228.292833)scale(0.1 -0.1)">
      <use xlink:href="#TimesNewRomanPSMT-30"/>
      <use xlink:href="#TimesNewRomanPSMT-2e" x="50"/>
      <use xlink:href="#TimesNewRomanPSMT-30" x="75"/>
     </g>
    </g>
   </g>
   <g id="xtick_8">
    <g id="line2d_10">
     <path d="M 224.979285 196.604443 
L 227.696533 197.466508 
" style="fill: none; stroke: #000000; stroke-width: 0.8; stroke-linecap: square"/>
    </g>
    <g id="text_10">
     <!-- 0.2 -->
     <g transform="translate(232.319969 217.037485)scale(0.1 -0.1)">
      <use xlink:href="#TimesNewRomanPSMT-30"/>
      <use xlink:href="#TimesNewRomanPSMT-2e" x="50"/>
      <use xlink:href="#TimesNewRomanPSMT-32" x="75"/>
     </g>
    </g>
   </g>
   <g id="xtick_9">
    <g id="line2d_11">
     <path d="M 235.399483 185.929913 
L 238.086916 186.765011 
" style="fill: none; stroke: #000000; stroke-width: 0.8; stroke-linecap: square"/>
    </g>
    <g id="text_11">
     <!-- 0.4 -->
     <g transform="translate(242.538423 206.137225)scale(0.1 -0.1)">
      <use xlink:href="#TimesNewRomanPSMT-30"/>
      <use xlink:href="#TimesNewRomanPSMT-2e" x="50"/>
      <use xlink:href="#TimesNewRomanPSMT-34" x="75"/>
     </g>
    </g>
   </g>
   <g id="xtick_10">
    <g id="line2d_12">
     <path d="M 245.496431 175.586522 
L 248.154577 176.395899 
" style="fill: none; stroke: #000000; stroke-width: 0.8; stroke-linecap: square"/>
    </g>
    <g id="text_12">
     <!-- 0.6 -->
     <g transform="translate(252.439507 195.57551)scale(0.1 -0.1)">
      <use xlink:href="#TimesNewRomanPSMT-30"/>
      <use xlink:href="#TimesNewRomanPSMT-2e" x="50"/>
      <use xlink:href="#TimesNewRomanPSMT-36" x="75"/>
     </g>
    </g>
   </g>
   <g id="xtick_11">
    <g id="line2d_13">
     <path d="M 255.284942 165.559096 
L 257.914321 166.343923 
" style="fill: none; stroke: #000000; stroke-width: 0.8; stroke-linecap: square"/>
    </g>
    <g id="text_13">
     <!-- 0.8 -->
     <g transform="translate(262.037781 185.336811)scale(0.1 -0.1)">
      <use xlink:href="#TimesNewRomanPSMT-30"/>
      <use xlink:href="#TimesNewRomanPSMT-2e" x="50"/>
      <use xlink:href="#TimesNewRomanPSMT-38" x="75"/>
     </g>
    </g>
   </g>
   <g id="xtick_12">
    <g id="line2d_14">
     <path d="M 264.778935 155.833377 
L 267.380062 156.594754 
" style="fill: none; stroke: #000000; stroke-width: 0.8; stroke-linecap: square"/>
    </g>
    <g id="text_14">
     <!-- 1.0 -->
     <g transform="translate(271.346928 175.40653)scale(0.1 -0.1)">
      <use xlink:href="#TimesNewRomanPSMT-31"/>
      <use xlink:href="#TimesNewRomanPSMT-2e" x="50"/>
      <use xlink:href="#TimesNewRomanPSMT-30" x="75"/>
     </g>
    </g>
   </g>
  </g>
  <g id="axis3d_3">
   <g id="line2d_15">
    <path d="M 269.032584 152.610767 
L 272.70197 72.48075 
" style="fill: none; stroke: #000000; stroke-width: 0.8; stroke-linecap: square"/>
   </g>
   <g id="Line3DCollection_3">
    <path d="M 269.102885 151.075565 
L 166.192602 121.237054 
L 102.055667 174.864185 
" style="fill: none; stroke: #b0b0b0; stroke-width: 0.8"/>
    <path d="M 270.244347 126.148958 
L 165.915129 97.107322 
L 100.826014 149.329642 
" style="fill: none; stroke: #b0b0b0; stroke-width: 0.8"/>
    <path d="M 271.418044 100.518416 
L 165.630201 72.329196 
L 99.56029 123.046058 
" style="fill: none; stroke: #b0b0b0; stroke-width: 0.8"/>
    <path d="M 272.625361 74.153695 
L 165.337511 46.876187 
L 98.256884 95.979982 
" style="fill: none; stroke: #b0b0b0; stroke-width: 0.8"/>
   </g>
   <g id="xtick_13">
    <g id="line2d_16">
     <path d="M 268.23915 150.825127 
L 270.832412 151.577035 
" style="fill: none; stroke: #000000; stroke-width: 0.8; stroke-linecap: square"/>
    </g>
    <g id="text_15">
     <!-- 0.0 -->
     <g transform="translate(281.096516 155.421302)scale(0.1 -0.1)">
      <use xlink:href="#TimesNewRomanPSMT-30"/>
      <use xlink:href="#TimesNewRomanPSMT-2e" x="50"/>
      <use xlink:href="#TimesNewRomanPSMT-30" x="75"/>
     </g>
    </g>
   </g>
   <g id="xtick_14">
    <g id="line2d_17">
     <path d="M 269.368131 125.90505 
L 271.998893 126.637362 
" style="fill: none; stroke: #000000; stroke-width: 0.8; stroke-linecap: square"/>
    </g>
    <g id="text_16">
     <!-- 0.2 -->
     <g transform="translate(282.486178 130.562561)scale(0.1 -0.1)">
      <use xlink:href="#TimesNewRomanPSMT-30"/>
      <use xlink:href="#TimesNewRomanPSMT-2e" x="50"/>
      <use xlink:href="#TimesNewRomanPSMT-32" x="75"/>
     </g>
    </g>
   </g>
   <g id="xtick_15">
    <g id="line2d_18">
     <path d="M 270.528983 100.281509 
L 273.198342 100.992811 
" style="fill: none; stroke: #000000; stroke-width: 0.8; stroke-linecap: square"/>
    </g>
    <g id="text_17">
     <!-- 0.4 -->
     <g transform="translate(283.914918 105.004769)scale(0.1 -0.1)">
      <use xlink:href="#TimesNewRomanPSMT-30"/>
      <use xlink:href="#TimesNewRomanPSMT-2e" x="50"/>
      <use xlink:href="#TimesNewRomanPSMT-34" x="75"/>
     </g>
    </g>
   </g>
   <g id="xtick_16">
    <g id="line2d_19">
     <path d="M 271.723073 73.924292 
L 274.432177 74.613071 
" style="fill: none; stroke: #000000; stroke-width: 0.8; stroke-linecap: square"/>
    </g>
    <g id="text_18">
     <!-- 0.6 -->
     <g transform="translate(285.384409 78.718018)scale(0.1 -0.1)">
      <use xlink:href="#TimesNewRomanPSMT-30"/>
      <use xlink:href="#TimesNewRomanPSMT-2e" x="50"/>
      <use xlink:href="#TimesNewRomanPSMT-36" x="75"/>
     </g>
    </g>
   </g>
  </g>
  <g id="axes_1">
   <g id="line2d_20">
    <path d="M 113.05971 173.297137 
L 114.555817 172.031422 
L 116.046142 170.770598 
L 117.530715 169.514639 
L 119.009591 168.263505 
L 120.482778 167.017173 
L 121.950327 165.775621 
L 123.412261 164.538819 
L 124.868599 163.306738 
L 126.319401 162.079349 
L 127.764686 160.856629 
L 129.204485 159.638555 
L 130.638829 158.425088 
L 132.067742 157.216216 
L 133.491267 156.011902 
L 134.909431 154.812132 
L 136.322261 153.616868 
L 137.72979 152.426089 
L 138.463675 126.308877 
L 138.875367 86.482107 
L 139.985708 72.143138 
L 141.758376 84.293641 
L 144.102392 121.730684 
L 146.065245 145.37424 
L 147.436475 144.214171 
L 148.802632 143.058388 
L 150.163753 141.906871 
L 151.519853 140.759601 
L 152.870975 139.616546 
L 154.217127 138.47769 
L 155.558352 137.343007 
L 156.894673 136.21247 
L 158.226114 135.086063 
L 159.552704 133.96376 
L 160.874469 132.845537 
L 162.191437 131.731376 
L 163.503628 130.621249 
L 164.811078 129.515139 
L 166.113802 128.413026 
L 167.411831 127.314882 
L 168.705194 126.220692 
" clip-path="url(#p9e901cc81c)" style="fill: none; stroke: #ff0000; stroke-opacity: 0.2; stroke-width: 1.5; stroke-linecap: square"/>
   </g>
   <g id="line2d_21">
    <path d="M 115.385249 174.04895 
L 116.878567 172.780327 
L 118.366109 171.516612 
L 119.847908 170.257773 
L 121.323994 169.003787 
L 122.794418 167.754615 
L 124.259197 166.510237 
L 125.718364 165.270622 
L 127.17196 164.035751 
L 128.619999 162.805588 
L 130.062533 161.58011 
L 131.499585 160.359281 
L 132.931187 159.143087 
L 134.357365 157.931499 
L 135.778158 156.724491 
L 137.193587 155.522035 
L 138.60369 154.324102 
L 139.747427 143.221688 
L 140.641033 121.918985 
L 141.486977 97.615249 
L 142.605773 83.398851 
L 144.347003 95.393874 
L 146.28524 117.356201 
L 148.115158 136.226547 
L 149.696269 144.90059 
L 151.059738 143.742273 
L 152.418179 142.588233 
L 153.771602 141.438453 
L 155.120052 140.292902 
L 156.463539 139.151565 
L 157.802099 138.014413 
L 159.135761 136.881422 
L 160.464547 135.752574 
L 161.788488 134.627843 
L 163.107609 133.507205 
L 164.421932 132.390643 
L 165.731488 131.278129 
L 167.03631 130.169643 
L 168.336402 129.065167 
L 169.63181 127.964674 
L 170.922552 126.868147 
" clip-path="url(#p9e901cc81c)" style="fill: none; stroke: #ff0000; stroke-opacity: 0.2; stroke-width: 1.5; stroke-linecap: square"/>
   </g>
   <g id="line2d_22">
    <path d="M 117.716141 174.802489 
L 119.206645 173.530956 
L 120.69139 172.264333 
L 122.170395 171.002615 
L 123.643695 169.745757 
L 125.111322 168.493736 
L 126.573319 167.246522 
L 128.029708 166.004094 
L 129.480526 164.766417 
L 130.925802 163.533464 
L 132.365562 162.305216 
L 133.799856 161.08164 
L 135.228698 159.862707 
L 136.652122 158.648396 
L 138.070169 157.438676 
L 139.482847 156.233528 
L 140.787772 151.074796 
L 141.943337 139.923323 
L 142.934797 121.581482 
L 143.929278 102.439154 
L 145.202184 94.552919 
L 146.776754 100.201766 
L 148.571088 117.013595 
L 150.314068 132.94213 
L 151.884278 141.668686 
L 153.321803 144.427653 
L 154.677545 143.271085 
L 156.028276 142.118787 
L 157.374038 140.970733 
L 158.714844 139.826905 
L 160.050728 138.687276 
L 161.381714 137.551823 
L 162.707831 136.420526 
L 164.029107 135.29336 
L 165.345569 134.170299 
L 166.657239 133.051328 
L 167.964138 131.936418 
L 169.266315 130.825549 
L 170.563766 129.718703 
L 171.856536 128.615852 
L 173.144646 127.516981 
" clip-path="url(#p9e901cc81c)" style="fill: none; stroke: #ff0000; stroke-opacity: 0.2; stroke-width: 1.5; stroke-linecap: square"/>
   </g>
   <g id="line2d_23">
    <path d="M 120.052402 175.557768 
L 121.540085 174.283307 
L 123.022009 173.013774 
L 124.4982 171.74916 
L 125.968691 170.489423 
L 127.43352 169.234542 
L 128.892707 167.984487 
L 130.346303 166.73923 
L 131.794327 165.498736 
L 133.236818 164.262989 
L 134.673803 163.031959 
L 136.105311 161.805625 
L 137.53138 160.583941 
L 138.952036 159.366895 
L 140.367317 158.154459 
L 141.736983 155.362399 
L 143.025682 149.397305 
L 144.182739 137.810126 
L 145.255128 122.059575 
L 146.375315 107.665978 
L 147.668609 100.631338 
L 149.209611 105.411562 
L 150.880767 117.48242 
L 152.550453 130.834211 
L 154.115619 139.993488 
L 155.561355 143.549433 
L 156.941862 143.955435 
L 158.289888 142.800611 
L 159.632947 141.650047 
L 160.971056 140.50372 
L 162.304247 139.361608 
L 163.632546 138.223683 
L 164.955977 137.08993 
L 166.274575 135.96032 
L 167.588361 134.83483 
L 168.897362 133.713441 
L 170.201602 132.596127 
L 171.501111 131.482868 
L 172.795912 130.373644 
L 174.086032 129.268429 
L 175.371494 128.167205 
" clip-path="url(#p9e901cc81c)" style="fill: none; stroke: #ff0000; stroke-opacity: 0.2; stroke-width: 1.5; stroke-linecap: square"/>
   </g>
   <g id="line2d_24">
    <path d="M 122.394054 176.314789 
L 123.878897 175.037382 
L 125.35798 173.764938 
L 126.831343 172.497413 
L 128.299009 171.234792 
L 129.761013 169.977039 
L 131.217391 168.724128 
L 132.668169 167.476034 
L 134.113387 166.232723 
L 135.553073 164.994171 
L 136.987257 163.760355 
L 138.415975 162.531239 
L 139.839249 161.306804 
L 141.25712 160.087019 
L 142.653794 158.237283 
L 144.007851 154.805633 
L 145.278329 147.871305 
L 146.461483 136.895917 
L 147.599 123.355657 
L 148.78197 111.312279 
L 150.112841 106.025919 
L 151.605685 109.045002 
L 153.211276 118.765039 
L 154.820176 129.916395 
L 156.360473 138.468345 
L 157.814866 142.981763 
L 159.201435 144.015878 
L 160.556453 143.483931 
L 161.896797 142.330845 
L 163.232192 141.182013 
L 164.562676 140.037408 
L 165.888273 138.897005 
L 167.209006 137.760786 
L 168.524909 136.628726 
L 169.836005 135.500797 
L 171.142322 134.376984 
L 172.443884 133.257258 
L 173.740717 132.1416 
L 175.032846 131.029991 
L 176.3203 129.922403 
L 177.603101 128.81882 
" clip-path="url(#p9e901cc81c)" style="fill: none; stroke: #ff0000; stroke-opacity: 0.2; stroke-width: 1.5; stroke-linecap: square"/>
   </g>
   <g id="line2d_25">
    <path d="M 124.741107 177.073556 
L 126.223093 175.793204 
L 127.699332 174.517825 
L 129.169838 173.247389 
L 130.634664 171.981873 
L 132.093831 170.721237 
L 133.547376 169.465465 
L 134.995326 168.214519 
L 136.437715 166.968383 
L 137.874583 165.727013 
L 139.30595 164.490392 
L 140.731859 163.258498 
L 142.152332 162.031293 
L 143.561177 160.554491 
L 144.947051 158.320345 
L 146.284157 154.11941 
L 147.555808 146.978797 
L 148.762852 136.608355 
L 149.947272 124.686465 
L 151.181436 114.708069 
L 152.523895 110.019268 
L 153.99498 112.428588 
L 155.546036 120.082183 
L 157.109351 129.620521 
L 158.625863 137.570515 
L 160.074615 142.286179 
L 161.467552 144.076498 
L 162.824615 143.918761 
L 164.165601 143.013135 
L 165.498269 141.861788 
L 166.826033 140.714683 
L 168.148913 139.571794 
L 169.466931 138.433101 
L 170.780124 137.298582 
L 172.088518 136.168207 
L 173.392135 135.041961 
L 174.691002 133.919815 
L 175.985145 132.801751 
L 177.27459 131.68775 
L 178.559362 130.577781 
L 179.839488 129.471831 
" clip-path="url(#p9e901cc81c)" style="fill: none; stroke: #ff0000; stroke-opacity: 0.2; stroke-width: 1.5; stroke-linecap: square"/>
   </g>
   <g id="line2d_26">
    <path d="M 127.093587 177.834078 
L 128.572705 176.550768 
L 130.046072 175.272447 
L 131.513722 173.999085 
L 132.975683 172.730661 
L 134.431991 171.467137 
L 135.882687 170.20849 
L 137.327792 168.954688 
L 138.767345 167.705703 
L 140.201369 166.46152 
L 141.629903 165.222093 
L 143.052982 163.987402 
L 144.468188 162.655527 
L 145.869914 160.972239 
L 147.243687 158.250853 
L 148.574124 153.660409 
L 149.849299 146.410109 
L 151.079904 136.717934 
L 152.302346 126.182637 
L 153.568394 117.513066 
L 154.923345 113.532995 
L 156.372725 115.222911 
L 157.887025 121.563822 
L 159.412171 129.718788 
L 160.904989 136.993319 
L 162.345971 141.815035 
L 163.738285 143.986702 
L 165.097776 144.30461 
L 166.438237 143.596979 
L 167.769309 142.543048 
L 169.094332 141.393435 
L 170.414479 140.248049 
L 171.729768 139.106875 
L 173.040239 137.969888 
L 174.345913 136.837059 
L 175.646815 135.708373 
L 176.942973 134.583801 
L 178.234412 133.463323 
L 179.521158 132.34692 
L 180.803235 131.234564 
L 182.08067 130.12624 
" clip-path="url(#p9e901cc81c)" style="fill: none; stroke: #ff0000; stroke-opacity: 0.2; stroke-width: 1.5; stroke-linecap: square"/>
   </g>
   <g id="line2d_27">
    <path d="M 129.45151 178.596366 
L 130.927737 177.310082 
L 132.39822 176.028808 
L 133.862986 174.752515 
L 135.322076 173.481169 
L 136.775507 172.214749 
L 138.223336 170.953215 
L 139.665581 169.696548 
L 141.102273 168.444715 
L 142.533449 167.197688 
L 143.95913 165.955451 
L 145.378408 164.677123 
L 146.788624 163.24045 
L 148.182196 161.278937 
L 149.548404 158.221962 
L 150.874605 153.314898 
L 152.157408 146.155766 
L 153.408881 137.104525 
L 154.659941 127.640384 
L 155.951095 120.076893 
L 157.311567 116.478333 
L 158.746599 117.77668 
L 160.230617 123.007207 
L 161.725486 130.091958 
L 163.19654 136.727342 
L 164.626713 141.455968 
L 166.016467 143.93686 
L 167.375484 144.581188 
L 168.715696 144.142161 
L 170.044939 143.185848 
L 171.367589 142.073671 
L 172.684987 140.925784 
L 173.997533 139.782121 
L 175.305266 138.642658 
L 176.608207 137.507367 
L 177.90638 136.376233 
L 179.199814 135.249225 
L 180.488533 134.126325 
L 181.772564 133.007514 
L 183.051933 131.892762 
L 184.326663 130.782055 
" clip-path="url(#p9e901cc81c)" style="fill: none; stroke: #ff0000; stroke-opacity: 0.2; stroke-width: 1.5; stroke-linecap: square"/>
   </g>
   <g id="line2d_28">
    <path d="M 131.814895 179.360413 
L 133.288215 178.071151 
L 134.755795 176.786919 
L 136.217666 175.507676 
L 137.67386 174.233407 
L 139.124408 172.964073 
L 140.569349 171.699651 
L 142.008714 170.440104 
L 143.442527 169.185411 
L 144.870834 167.935544 
L 146.293281 166.67411 
L 147.708671 165.34392 
L 149.11321 163.757369 
L 150.500338 161.564011 
L 151.860455 158.202175 
L 153.186168 153.133766 
L 154.477218 146.120356 
L 155.746859 137.659062 
L 157.021021 129.107794 
L 158.329703 122.351144 
L 159.69469 119.117295 
L 161.116842 120.041625 
L 162.577635 124.460173 
L 164.046893 130.63177 
L 165.498236 136.678104 
L 166.91701 141.259234 
L 168.301653 143.895925 
L 169.659036 144.836428 
L 170.997905 144.620542 
L 172.325465 143.806093 
L 173.645702 142.739425 
L 174.960456 141.604999 
L 176.27025 140.458839 
L 177.575229 139.316891 
L 178.87542 138.179131 
L 180.170851 137.045539 
L 181.461539 135.91609 
L 182.747531 134.79076 
L 184.028827 133.669532 
L 185.305471 132.552377 
L 186.577482 131.43928 
" clip-path="url(#p9e901cc81c)" style="fill: none; stroke: #ff0000; stroke-opacity: 0.2; stroke-width: 1.5; stroke-linecap: square"/>
   </g>
   <g id="line2d_29">
    <path d="M 134.183774 180.126225 
L 135.654163 178.833986 
L 137.118817 177.54678 
L 138.577773 176.264584 
L 140.031056 174.987376 
L 141.478701 173.71512 
L 142.920739 172.447794 
L 144.357205 171.18536 
L 145.788134 169.927799 
L 147.213405 168.668515 
L 148.632499 167.381309 
L 150.043583 165.973011 
L 151.442965 164.242886 
L 152.82433 161.821262 
L 154.180758 158.24128 
L 155.507488 153.076492 
L 156.807208 146.261932 
L 158.092536 138.339953 
L 159.384736 130.530526 
L 160.706999 124.449573 
L 162.074072 121.463427 
L 163.486041 122.131178 
L 164.927382 125.868673 
L 166.375314 131.29695 
L 167.808831 136.804057 
L 169.215885 141.184797 
L 170.594292 143.912963 
L 171.948497 145.064219 
L 173.285416 145.068019 
L 174.610896 144.389328 
L 175.928774 143.393859 
L 177.240872 142.279314 
L 178.547921 141.137034 
L 179.850132 139.992595 
L 181.14756 138.852356 
L 182.440231 137.7163 
L 183.728166 136.584399 
L 185.011409 135.456633 
L 186.289961 134.332981 
L 187.563866 133.213414 
L 188.833143 132.097919 
" clip-path="url(#p9e901cc81c)" style="fill: none; stroke: #ff0000; stroke-opacity: 0.2; stroke-width: 1.5; stroke-linecap: square"/>
   </g>
   <g id="line2d_30">
    <path d="M 136.558139 180.893831 
L 138.02559 179.59858 
L 139.487305 178.308396 
L 140.943327 177.023238 
L 142.393683 175.743077 
L 143.838406 174.467893 
L 145.277528 173.197649 
L 146.711076 171.932328 
L 148.139039 170.669253 
L 149.561189 169.396606 
L 150.976688 168.069166 
L 152.383556 166.577404 
L 153.77801 164.695925 
L 155.154897 162.083979 
L 156.508952 158.330527 
L 157.838035 153.138246 
L 159.146071 146.539225 
L 160.444754 139.100147 
L 161.751517 131.925781 
L 163.083749 126.378253 
L 164.452026 123.610421 
L 165.854944 124.051417 
L 167.280239 127.249801 
L 168.709794 132.040789 
L 170.1273 137.064336 
L 171.522842 141.227874 
L 172.89412 143.979342 
L 174.244215 145.297297 
L 175.578366 145.48353 
L 176.901453 144.948275 
L 178.216812 144.02927 
L 179.526258 142.948715 
L 180.830561 141.814152 
L 182.129996 140.669769 
L 183.424646 139.527044 
L 184.714543 138.388515 
L 185.99971 137.254155 
L 187.280188 136.123943 
L 188.555982 134.997859 
L 189.827133 133.875874 
L 191.093662 132.757973 
" clip-path="url(#p9e901cc81c)" style="fill: none; stroke: #ff0000; stroke-opacity: 0.2; stroke-width: 1.5; stroke-linecap: square"/>
   </g>
   <g id="line2d_31">
    <path d="M 138.938033 181.663215 
L 140.402522 180.364951 
L 141.861287 179.071771 
L 143.314355 177.783646 
L 144.761761 176.500527 
L 146.203541 175.222398 
L 147.63973 173.949235 
L 149.070327 172.679948 
L 150.49527 171.409254 
L 151.914173 170.115593 
L 153.326034 168.741312 
L 154.728715 167.156126 
L 156.118838 165.134796 
L 157.492111 162.35487 
L 158.845044 158.479549 
L 160.177071 153.298094 
L 161.492903 146.92329 
L 162.802964 139.92027 
L 164.121312 133.280215 
L 165.461163 128.182591 
L 166.829595 125.581853 
L 168.224702 125.847621 
L 169.636198 128.590291 
L 171.049909 132.84407 
L 172.452916 137.430284 
L 173.837329 141.367789 
L 175.201045 144.104564 
L 176.546239 145.538328 
L 177.876997 145.885047 
L 179.197274 145.481977 
L 180.50995 144.649207 
L 181.816666 143.609106 
L 183.118194 142.489696 
L 184.414838 141.347405 
L 185.706695 140.203205 
L 186.993803 139.062196 
L 188.276186 137.925368 
L 189.553886 136.792703 
L 190.826906 135.664178 
L 192.095289 134.539768 
L 193.359054 133.419453 
" clip-path="url(#p9e901cc81c)" style="fill: none; stroke: #ff0000; stroke-opacity: 0.2; stroke-width: 1.5; stroke-linecap: square"/>
   </g>
   <g id="line2d_32">
    <path d="M 141.323463 182.434388 
L 142.784979 181.133112 
L 144.24077 179.836923 
L 145.690873 178.545806 
L 147.13531 177.259725 
L 148.574136 175.978649 
L 150.007362 174.702122 
L 151.43497 173.427814 
L 152.856815 172.145582 
L 154.272404 170.82589 
L 155.680587 169.396391 
L 157.079322 167.717761 
L 158.465594 165.563859 
L 159.836142 162.645661 
L 161.188741 158.683007 
L 162.524071 153.544189 
L 163.847025 147.392177 
L 165.166703 140.779365 
L 166.494389 134.601281 
L 167.839881 129.875648 
L 169.207869 127.418744 
L 170.595913 127.53281 
L 171.995495 129.897559 
L 173.395273 133.685983 
L 174.785153 137.880152 
L 176.158914 141.592832 
L 177.514841 144.283342 
L 178.854598 145.79883 
L 180.181402 146.276834 
L 181.498484 145.998848 
L 182.808248 145.252349 
L 184.112137 144.260877 
L 185.410853 143.161504 
L 186.704683 142.025089 
L 187.993729 140.880434 
L 189.278033 139.737344 
L 190.557617 138.598042 
L 191.832523 137.462915 
L 193.102754 136.331942 
L 194.368353 135.205096 
L 195.62934 134.082361 
" clip-path="url(#p9e901cc81c)" style="fill: none; stroke: #ff0000; stroke-opacity: 0.2; stroke-width: 1.5; stroke-linecap: square"/>
   </g>
   <g id="line2d_33">
    <path d="M 143.714453 183.207363 
L 145.172972 181.90305 
L 146.625771 180.603849 
L 148.072888 179.309735 
L 149.514352 178.020677 
L 150.950192 176.736471 
L 152.38043 175.456076 
L 153.805002 174.174785 
L 155.223699 172.877791 
L 156.635922 171.526146 
L 158.040504 170.03774 
L 159.435519 168.26524 
L 160.818478 165.992102 
L 162.186965 162.958278 
L 163.539847 158.939785 
L 164.878562 153.863258 
L 166.207924 147.928354 
L 167.535725 141.667282 
L 168.870868 135.88715 
L 170.220546 131.479369 
L 171.587551 129.139728 
L 172.9692 129.128878 
L 174.358262 131.169771 
L 175.745703 134.55646 
L 177.123616 138.396593 
L 178.48724 141.889892 
L 179.835325 144.514589 
L 181.169261 146.0807 
L 182.49167 146.667712 
L 183.805187 146.501734 
L 185.111806 145.841951 
L 186.41273 144.902714 
L 187.708561 143.829141 
L 188.999541 142.701723 
L 190.285756 141.558486 
L 191.567238 140.413799 
L 192.844008 139.272179 
L 194.116104 138.134582 
L 195.383531 137.001151 
L 196.646332 135.871862 
L 197.904525 134.7467 
" clip-path="url(#p9e901cc81c)" style="fill: none; stroke: #ff0000; stroke-opacity: 0.2; stroke-width: 1.5; stroke-linecap: square"/>
   </g>
   <g id="line2d_34">
    <path d="M 146.111028 183.982131 
L 147.566526 182.674783 
L 149.01632 181.372565 
L 150.460432 180.075442 
L 151.898891 178.783324 
L 153.331735 177.495739 
L 154.758948 176.210514 
L 156.180451 174.92035 
L 157.595948 173.604804 
L 159.004815 172.217246 
L 160.405884 170.666663 
L 161.797471 168.804076 
L 163.177575 166.423268 
L 164.544569 163.296266 
L 165.898131 159.245135 
L 167.240173 154.245224 
L 168.575228 148.518917 
L 169.909846 142.574143 
L 171.250947 137.14205 
L 172.603617 133.004823 
L 173.969257 130.766096 
L 175.344993 130.64687 
L 176.724681 132.411151 
L 178.101059 135.445696 
L 179.468019 138.966821 
L 180.82202 142.249004 
L 182.16231 144.793629 
L 183.490178 146.387418 
L 184.807834 147.061347 
L 186.117464 146.996048 
L 187.420696 146.419288 
L 188.718507 145.535492 
L 190.011366 144.491556 
L 191.299447 143.376815 
L 192.582801 142.236812 
L 193.861442 141.091436 
L 195.135379 139.947716 
L 196.404652 138.807707 
L 197.66926 137.671815 
L 198.929247 136.540076 
L 200.184631 135.412473 
" clip-path="url(#p9e901cc81c)" style="fill: none; stroke: #ff0000; stroke-opacity: 0.2; stroke-width: 1.5; stroke-linecap: square"/>
   </g>
   <g id="line2d_35">
    <path d="M 148.513193 184.758724 
L 149.965663 183.448316 
L 151.412425 182.143062 
L 152.853517 180.842895 
L 154.28896 179.547605 
L 155.718777 178.256171 
L 157.142943 176.965069 
L 158.56133 175.663754 
L 159.973615 174.326546 
L 161.379141 172.899465 
L 162.77684 171.28599 
L 164.165279 169.337391 
L 165.542955 166.861721 
L 166.908892 163.659932 
L 168.263384 159.595516 
L 169.608597 154.681006 
L 170.948659 149.153267 
L 172.288969 143.49443 
L 173.634775 138.367232 
L 174.989497 134.464412 
L 176.353451 132.310952 
L 177.723678 132.099157 
L 179.094893 133.622927 
L 180.461269 136.348216 
L 181.818143 139.580351 
L 183.163021 142.661212 
L 184.495633 145.116953 
L 185.81728 146.71929 
L 187.129911 147.462026 
L 188.43537 147.484837 
L 189.734988 146.987114 
L 191.029525 146.159458 
L 192.31931 145.148692 
L 193.604431 144.049627 
L 194.884887 142.915059 
L 196.160661 141.769988 
L 197.43175 140.624599 
L 198.698181 139.482274 
L 199.959956 138.343937 
L 201.217113 137.209739 
L 202.469674 136.079692 
" clip-path="url(#p9e901cc81c)" style="fill: none; stroke: #ff0000; stroke-opacity: 0.2; stroke-width: 1.5; stroke-linecap: square"/>
   </g>
   <g id="line2d_36">
    <path d="M 150.920981 185.537122 
L 152.3704 184.223651 
L 153.814118 182.915349 
L 155.25217 181.612072 
L 156.68457 180.313378 
L 158.111338 179.017545 
L 159.532425 177.71925 
L 160.947672 176.404669 
L 162.35674 175.042817 
L 163.758986 173.573956 
L 165.153469 171.897639 
L 166.539036 169.868697 
L 167.91465 167.309711 
L 169.279869 164.049665 
L 170.635432 159.986702 
L 171.983593 155.163137 
L 173.328004 149.823426 
L 174.673029 144.423238 
L 176.022507 139.565638 
L 177.378509 135.866351 
L 178.740533 133.786828 
L 180.105561 133.493917 
L 181.469047 134.808042 
L 182.826292 137.25915 
L 184.17384 140.229277 
L 185.510056 143.119123 
L 186.835155 145.48041 
L 188.150497 147.07669 
L 189.457902 147.871948 
L 190.758945 147.97153 
L 192.054737 147.547309 
L 193.345838 146.775755 
L 194.632437 145.80034 
L 195.914527 144.719845 
L 197.19204 143.592742 
L 198.464919 142.449232 
L 199.733142 141.302697 
L 200.99671 140.158255 
L 202.25564 139.017508 
L 203.509954 137.880856 
L 204.759676 136.748356 
" clip-path="url(#p9e901cc81c)" style="fill: none; stroke: #ff0000; stroke-opacity: 0.2; stroke-width: 1.5; stroke-linecap: square"/>
   </g>
   <g id="line2d_37">
    <path d="M 153.334404 186.317344 
L 154.780755 185.000802 
L 156.221408 183.689402 
L 157.656401 182.382913 
L 159.08574 181.080527 
L 160.509432 179.779567 
L 161.927413 178.472746 
L 163.339511 177.142743 
L 164.745371 175.753908 
L 166.144412 174.241648 
L 167.535842 172.50386 
L 168.918799 170.400347 
L 170.292652 167.76924 
L 171.657404 164.464756 
L 173.014095 160.415031 
L 174.364944 155.685246 
L 175.713105 150.522828 
L 177.061997 145.357531 
L 178.414276 140.739142 
L 179.770926 137.218455 
L 181.130809 135.202801 
L 182.490904 134.838959 
L 183.847259 135.968347 
L 185.196114 138.175475 
L 186.53498 140.907093 
L 187.862975 143.616449 
L 189.180739 145.880382 
L 190.489759 147.458918 
L 191.791782 148.293069 
L 193.088216 148.458439 
L 194.379987 148.102066 
L 195.667493 147.385267 
L 196.95079 146.446784 
L 198.229768 145.387123 
L 199.504284 144.269555 
L 200.774236 143.128876 
L 202.039564 141.98188 
L 203.300254 140.835586 
L 204.556319 139.692524 
L 205.807771 138.553428 
L 207.05464 137.418466 
" clip-path="url(#p9e901cc81c)" style="fill: none; stroke: #ff0000; stroke-opacity: 0.2; stroke-width: 1.5; stroke-linecap: square"/>
   </g>
   <g id="line2d_38">
    <path d="M 155.753484 187.09938 
L 157.196751 185.779747 
L 158.634322 184.465205 
L 160.06623 183.155356 
L 161.492488 181.848875 
L 162.913085 180.541988 
L 164.327941 179.225219 
L 165.736876 177.877907 
L 167.139561 176.460106 
L 168.535487 174.903736 
L 169.924031 173.106429 
L 171.304615 170.93453 
L 172.676963 168.24137 
L 174.04143 164.904392 
L 175.399239 160.876943 
L 176.752494 156.24196 
L 178.103852 151.246369 
L 179.455872 146.294779 
L 180.810214 141.890009 
L 182.166987 138.52667 
L 183.524559 136.566944 
L 184.879936 136.140212 
L 186.22966 137.106101 
L 187.570742 139.094699 
L 188.901492 141.608752 
L 190.221665 144.147887 
L 191.53229 146.313356 
L 192.835004 147.865182 
L 194.13154 148.726441 
L 195.423203 148.947697 
L 196.710783 148.653114 
L 197.994542 147.989169 
L 199.274411 147.088302 
L 200.55019 146.051386 
L 201.821652 144.945188 
L 203.088634 143.808698 
L 204.35104 142.661991 
L 205.608834 141.514204 
L 206.862013 140.368952 
L 208.110589 139.227448 
L 209.35459 138.090019 
" clip-path="url(#p9e901cc81c)" style="fill: none; stroke: #ff0000; stroke-opacity: 0.2; stroke-width: 1.5; stroke-linecap: square"/>
   </g>
   <g id="line2d_39">
    <path d="M 158.178242 187.883221 
L 159.618402 186.560497 
L 161.052873 185.242732 
L 162.481681 183.9293 
L 163.904832 182.618275 
L 165.322317 181.304561 
L 166.734035 179.976489 
L 168.139815 178.610116 
L 169.539365 177.161921 
L 170.932271 175.561296 
L 172.318095 173.707035 
L 173.696514 171.472807 
L 175.067566 168.726863 
L 176.431868 165.367426 
L 177.790741 161.369251 
L 179.146113 156.828739 
L 180.500147 151.989865 
L 181.854647 147.233328 
L 183.210425 143.020033 
L 184.566881 139.796311 
L 185.922 137.885618 
L 187.272833 137.402971 
L 188.616343 138.223093 
L 189.950176 140.015163 
L 191.273303 142.330109 
L 192.58602 144.70895 
L 193.889704 146.776202 
L 195.186158 148.294349 
L 196.477141 149.172804 
L 197.763903 149.440837 
L 199.04714 149.202111 
L 200.32701 148.5885 
L 201.603338 147.725394 
L 202.875827 146.712613 
L 204.14417 145.619454 
L 205.408138 144.488455 
L 206.66759 143.342878 
L 207.922465 142.194026 
L 209.172741 141.046769 
L 210.418428 139.90291 
L 211.659541 138.763003 
" clip-path="url(#p9e901cc81c)" style="fill: none; stroke: #ff0000; stroke-opacity: 0.2; stroke-width: 1.5; stroke-linecap: square"/>
   </g>
   <g id="line2d_40">
    <path d="M 160.608692 188.668836 
L 162.045727 187.343017 
L 163.477078 186.021919 
L 164.902763 184.704658 
L 166.322793 183.388546 
L 167.737138 182.067119 
L 169.145713 180.72641 
L 170.548359 179.339516 
L 171.944827 177.859871 
L 173.33482 176.21541 
L 174.718076 174.307091 
L 176.094518 172.016472 
L 177.464438 169.226032 
L 178.828648 165.85265 
L 180.188495 161.889046 
L 181.545695 157.441724 
L 182.901926 152.749973 
L 184.258335 148.171864 
L 185.615013 144.131027 
L 186.970778 141.03171 
L 188.323326 139.164345 
L 189.669763 138.63156 
L 191.007408 139.321118 
L 192.334438 140.935575 
L 193.650372 143.067853 
L 194.955965 145.295818 
L 196.252906 147.266044 
L 197.543164 148.745227 
L 198.828556 149.632468 
L 200.110313 149.93912 
L 201.38908 149.750422 
L 202.664929 149.184325 
L 203.937608 148.358552 
L 205.206715 147.370915 
L 206.471868 146.292208 
L 207.732772 145.167967 
L 208.989237 144.024378 
L 210.241168 142.874954 
L 211.488521 141.725921 
L 212.731297 140.579791 
L 213.969509 139.437396 
" clip-path="url(#p9e901cc81c)" style="fill: none; stroke: #ff0000; stroke-opacity: 0.2; stroke-width: 1.5; stroke-linecap: square"/>
   </g>
   <g id="line2d_41">
    <path d="M 163.044865 189.456217 
L 164.478756 188.127276 
L 165.906968 186.802728 
L 167.329516 185.481321 
L 168.746404 184.159563 
L 170.157601 182.829481 
L 171.563032 181.474921 
L 172.962554 180.066259 
L 174.356 178.554542 
L 175.743182 176.867078 
L 177.124014 174.907823 
L 178.498637 172.566483 
L 179.867553 169.738974 
L 181.231703 166.358789 
L 182.592413 162.433724 
L 183.951155 158.077637 
L 185.309163 153.523953 
L 186.666979 149.109503 
L 188.024092 145.224545 
L 189.37885 142.236657 
L 190.728724 140.407701 
L 192.070887 139.829761 
L 193.402964 140.401725 
L 194.72357 141.85505 
L 196.032688 143.819275 
L 197.33146 145.905261 
L 198.62185 147.780315 
L 199.905992 149.216568 
L 201.185778 150.10553 
L 202.462453 150.443474 
L 203.736636 150.299251 
L 205.008346 149.777603 
L 206.277252 148.988363 
L 207.542886 148.026463 
L 208.804778 146.963401 
L 210.062566 145.847085 
L 211.316005 144.706357 
L 212.56496 143.556894 
L 213.809369 142.406353 
L 215.049219 141.258054 
L 216.284516 140.113172 
" clip-path="url(#p9e901cc81c)" style="fill: none; stroke: #ff0000; stroke-opacity: 0.2; stroke-width: 1.5; stroke-linecap: square"/>
   </g>
   <g id="line2d_42">
    <path d="M 165.48677 190.245313 
L 166.917504 188.913231 
L 168.342553 187.585088 
L 169.761944 186.259192 
L 171.175673 184.931166 
L 172.583712 183.591543 
L 173.986001 182.222021 
L 175.382437 180.790603 
L 176.772924 179.246526 
L 178.157397 177.517222 
L 179.535939 175.510255 
L 180.908876 173.123551 
L 182.276882 170.265592 
L 183.640978 166.88459 
L 185.002419 163.000931 
L 186.362426 158.733677 
L 187.721811 154.309578 
L 189.080588 150.045572 
L 190.437734 146.302056 
L 191.791211 143.414368 
L 193.138324 141.619626 
L 194.476316 141.000781 
L 195.803074 141.466377 
L 197.117587 142.772922 
L 198.42022 144.582167 
L 199.712442 146.534513 
L 200.996465 148.316705 
L 202.274577 149.707133 
L 203.548762 150.591874 
L 204.820302 150.954613 
L 206.089806 150.849592 
L 207.35727 150.369243 
L 208.622304 149.615379 
L 209.884369 148.679492 
L 211.142926 147.633017 
L 212.397541 146.52568 
L 213.647913 145.38867 
L 214.893863 144.239736 
L 216.135307 143.088007 
L 217.37221 141.937671 
L 218.604575 140.790284 
" clip-path="url(#p9e901cc81c)" style="fill: none; stroke: #ff0000; stroke-opacity: 0.2; stroke-width: 1.5; stroke-linecap: square"/>
   </g>
   <g id="line2d_43">
    <path d="M 167.934438 191.036062 
L 169.361994 189.700843 
L 170.783866 188.368913 
L 172.200079 187.038168 
L 173.610633 185.703269 
L 175.015511 184.353214 
L 176.414672 182.967754 
L 177.808062 181.512826 
L 179.19565 179.936407 
L 180.577512 178.166674 
L 181.953879 176.115257 
L 183.325244 173.68819 
L 184.692407 170.805647 
L 186.056426 167.428814 
L 187.418457 163.588592 
L 188.779464 159.407461 
L 190.139863 155.10501 
L 191.499206 150.979636 
L 192.856032 147.364867 
L 194.207993 144.567653 
L 195.552262 142.803487 
L 196.886175 142.14742 
L 198.207824 142.516373 
L 199.516531 143.688758 
L 200.812963 145.354709 
L 202.09889 147.181209 
L 203.376714 148.873155 
L 204.648897 150.215708 
L 205.917493 151.091285 
L 207.183859 151.473021 
L 208.44861 151.402297 
L 209.711731 150.960046 
L 210.972799 150.24018 
L 212.231208 149.330279 
L 213.486355 148.301117 
L 214.737736 147.203687 
L 215.98499 146.071219 
L 217.227911 144.923393 
L 218.466361 143.770812 
L 219.700287 142.618581 
L 220.929719 141.468686 
" clip-path="url(#p9e901cc81c)" style="fill: none; stroke: #ff0000; stroke-opacity: 0.2; stroke-width: 1.5; stroke-linecap: square"/>
   </g>
   <g id="line2d_44">
    <path d="M 170.387878 191.828413 
L 171.812233 190.490052 
L 173.23091 189.154157 
L 174.643931 187.81816 
L 176.051302 186.475755 
L 177.453017 185.114466 
L 178.849061 183.712221 
L 180.239438 182.233243 
L 181.624201 180.624749 
L 183.003545 178.816173 
L 184.377842 176.723526 
L 185.747726 174.260747 
L 187.114087 171.358787 
L 188.477988 167.990293 
L 189.840462 164.19483 
L 191.202213 160.09692 
L 192.563295 155.908737 
L 193.922851 151.911371 
L 195.279049 148.414175 
L 196.629289 145.698929 
L 197.970654 143.962189 
L 199.300553 143.272091 
L 200.61728 143.552903 
L 201.920423 144.602242 
L 203.210916 146.135399 
L 204.490766 147.843321 
L 205.762563 149.447819 
L 207.028906 150.74114 
L 208.291948 151.603417 
L 209.553111 151.999051 
L 210.813044 151.958048 
L 212.071735 151.550738 
L 213.328743 150.863307 
L 214.583409 149.979126 
L 215.835068 148.967775 
L 217.083156 147.881065 
L 218.327246 146.753905 
L 219.5671 145.607771 
L 220.80252 144.454694 
L 222.03348 143.300732 
L 223.259927 142.148324 
" clip-path="url(#p9e901cc81c)" style="fill: none; stroke: #ff0000; stroke-opacity: 0.2; stroke-width: 1.5; stroke-linecap: square"/>
   </g>
   <g id="line2d_45">
    <path d="M 172.847116 192.622311 
L 174.268255 191.280786 
L 175.683717 189.940725 
L 177.09353 188.599078 
L 178.497708 187.248554 
L 179.896262 185.875285 
L 181.289211 184.45555 
L 182.676616 182.952187 
L 184.058619 181.312091 
L 185.435531 179.466395 
L 186.807851 177.335656 
L 188.176325 174.841449 
L 189.541906 171.924634 
L 190.905632 168.567913 
L 192.268396 164.817978 
L 193.630651 160.800309 
L 194.992113 156.719509 
L 196.351563 152.840595 
L 197.706862 149.451068 
L 199.055201 146.810339 
L 200.393602 145.098264 
L 201.719551 144.376932 
L 203.031514 144.577052 
L 204.329305 145.513185 
L 205.614085 146.92301 
L 206.888061 148.519108 
L 208.153984 150.039058 
L 209.414583 151.282326 
L 210.672107 152.127885 
L 211.928052 152.532911 
L 213.183117 152.517415 
L 214.437306 152.141965 
L 215.690167 151.485287 
L 216.941007 150.626347 
L 218.189105 149.63313 
L 219.433838 148.557804 
L 220.674731 147.436662 
L 221.911462 146.29278 
L 223.143845 145.139584 
L 224.371776 143.984062 
L 225.595266 142.829123 
" clip-path="url(#p9e901cc81c)" style="fill: none; stroke: #ff0000; stroke-opacity: 0.2; stroke-width: 1.5; stroke-linecap: square"/>
   </g>
   <g id="line2d_46">
    <path d="M 175.312174 193.417679 
L 176.730076 192.07298 
L 178.142308 190.728548 
L 179.548901 189.380836 
L 180.94988 188.021622 
L 182.345277 186.635694 
L 183.735152 185.197884 
L 185.119629 183.669982 
L 186.498938 181.998925 
L 187.873497 180.117903 
L 189.243917 177.952103 
L 190.611035 175.430412 
L 191.975842 172.502735 
L 193.339324 169.160608 
L 194.702226 165.456552 
L 196.064756 161.516092 
L 197.426317 157.536289 
L 198.785381 153.767198 
L 200.139536 150.476536 
L 201.485816 147.903751 
L 202.8212 146.213923 
L 204.143248 145.463804 
L 205.450585 145.5898 
L 206.74321 146.42148 
L 208.022477 147.716506 
L 209.290764 149.207065 
L 210.550958 150.645411 
L 211.805908 151.838237 
L 213.057954 152.664256 
L 214.308681 153.074724 
L 215.558836 153.080849 
L 216.808457 152.734283 
L 218.057092 152.106596 
L 219.304027 151.272259 
L 220.548493 150.297319 
L 221.789808 149.233924 
L 223.02743 148.119436 
L 224.261027 146.978354 
L 225.490319 145.8254 
L 226.715242 144.668501 
L 227.935715 143.511036 
" clip-path="url(#p9e901cc81c)" style="fill: none; stroke: #ff0000; stroke-opacity: 0.2; stroke-width: 1.5; stroke-linecap: square"/>
   </g>
   <g id="line2d_47">
    <path d="M 177.783074 194.214437 
L 179.19772 192.866558 
L 180.606706 191.517546 
L 182.010067 190.163384 
L 183.407843 188.794925 
L 184.800093 187.395735 
L 186.18692 185.939397 
L 187.568512 184.386946 
L 188.945188 182.685723 
L 190.317464 180.771196 
L 191.686049 178.573235 
L 193.051852 176.027667 
L 194.415875 173.09264 
L 195.779036 169.767411 
L 197.141924 166.109228 
L 198.504509 162.242952 
L 199.865917 158.358211 
L 201.224336 154.691128 
L 202.577135 151.491474 
L 203.921215 148.980816 
L 205.253533 147.3111 
L 206.571724 146.534355 
L 207.874549 146.592044 
L 209.162172 147.327075 
L 210.436104 148.515025 
L 211.698866 149.905887 
L 212.953468 151.265558 
L 214.202859 152.40791 
L 215.449479 153.212084 
L 216.694986 153.62451 
L 217.940198 153.648712 
L 219.185198 153.328181 
L 220.429542 152.727691 
L 221.672494 151.917179 
L 222.913254 150.960501 
L 224.151091 149.909462 
L 225.385415 148.80219 
L 226.615805 147.664422 
L 227.842002 146.512077 
L 229.06385 145.353977 
L 230.281334 144.19397 
" clip-path="url(#p9e901cc81c)" style="fill: none; stroke: #ff0000; stroke-opacity: 0.2; stroke-width: 1.5; stroke-linecap: square"/>
   </g>
   <g id="line2d_48">
    <path d="M 180.259838 195.012524 
L 181.671211 193.661449 
L 183.076933 192.307662 
L 184.477053 190.946662 
L 185.871625 189.568447 
L 187.260739 188.155476 
L 188.644543 186.680284 
L 190.023295 185.103416 
L 191.397395 183.372912 
L 192.767452 181.426732 
L 194.134259 179.199361 
L 195.498771 176.633189 
L 196.861986 173.693879 
L 198.224743 170.387414 
L 199.587467 166.774818 
L 200.949904 162.979757 
L 202.31092 159.184551 
L 203.668465 155.612396 
L 205.019714 152.496713 
L 206.361467 150.04301 
L 207.690678 148.391511 
L 209.005052 147.590059 
L 210.303464 147.584605 
L 211.586226 148.229982 
L 212.854982 149.317863 
L 214.112369 150.614451 
L 215.3615 151.898344 
L 216.605423 152.990447 
L 217.846663 153.770902 
L 219.086965 154.182254 
L 220.327217 154.221294 
L 221.567543 153.924085 
L 222.807529 153.348981 
L 224.046433 152.561425 
L 225.283418 151.622869 
L 226.517711 150.584486 
L 227.74866 149.484915 
L 228.97583 148.350931 
L 230.198873 147.199548 
L 231.417666 146.040428 
L 232.632098 144.877867 
" clip-path="url(#p9e901cc81c)" style="fill: none; stroke: #ff0000; stroke-opacity: 0.2; stroke-width: 1.5; stroke-linecap: square"/>
   </g>
   <g id="line2d_49">
    <path d="M 182.74249 195.811869 
L 184.150569 194.45759 
L 185.553015 193.09881 
L 186.949885 191.73062 
L 188.341254 190.342183 
L 189.727244 188.914993 
L 191.108055 187.420726 
L 192.484008 185.819688 
L 193.855586 184.060879 
L 195.223479 182.084862 
L 196.588551 179.830691 
L 197.951787 177.246905 
L 199.314163 174.305974 
L 200.676426 171.019768 
L 202.038839 167.452266 
L 203.400933 163.725501 
L 204.761344 160.01471 
L 206.117802 156.531034 
L 207.467328 153.493 
L 208.806644 151.091633 
L 210.132706 149.456673 
L 211.443288 148.63221 
L 212.737381 148.568229 
L 214.015407 149.130232 
L 215.279124 150.124418 
L 216.531271 151.33177 
L 217.775051 152.542716 
L 219.013594 153.585021 
L 220.249504 154.340252 
L 221.484618 154.747876 
L 222.719888 154.798803 
L 223.955506 154.522359 
L 225.191072 153.97085 
L 226.425858 153.20528 
L 227.659002 152.284591 
L 228.889689 151.259066 
L 230.117234 150.167609 
L 231.341118 149.037839 
L 232.560997 147.887745 
L 233.77666 146.727775 
L 234.988083 145.562663 
" clip-path="url(#p9e901cc81c)" style="fill: none; stroke: #ff0000; stroke-opacity: 0.2; stroke-width: 1.5; stroke-linecap: square"/>
   </g>
   <g id="line2d_50">
    <path d="M 185.231059 196.612387 
L 186.635826 195.254896 
L 188.034982 193.89095 
L 189.428594 192.515219 
L 190.816763 191.116154 
L 192.199644 189.674382 
L 193.577489 188.160915 
L 194.95068 186.536069 
L 196.319791 184.749967 
L 197.68557 182.745919 
L 199.048938 180.467386 
L 200.410903 177.868689 
L 201.772401 174.928481 
L 203.134076 171.663688 
L 204.496033 168.140616 
L 205.857603 164.479326 
L 207.217208 160.848178 
L 208.572386 157.447096 
L 209.920035 154.481018 
L 211.256813 152.12786 
L 212.579697 150.507927 
L 213.886508 149.66198 
L 215.176359 149.543595 
L 216.449751 150.027887 
L 217.708564 150.934184 
L 218.955584 152.056993 
L 220.19413 153.197744 
L 221.427356 154.19086 
L 222.658004 154.919678 
L 223.887932 155.321255 
L 225.118228 155.381397 
L 226.349083 155.12331 
L 227.580183 154.593625 
L 228.810792 153.849035 
L 230.040033 152.945857 
L 231.267058 151.933291 
L 232.49113 150.85028 
L 233.711692 149.725108 
L 234.928363 148.57661 
L 236.140912 147.415953 
L 237.349261 146.248278 
" clip-path="url(#p9e901cc81c)" style="fill: none; stroke: #ff0000; stroke-opacity: 0.2; stroke-width: 1.5; stroke-linecap: square"/>
   </g>
   <g id="line2d_51">
    <path d="M 187.725558 197.414029 
L 189.126993 196.053319 
L 190.522845 194.68402 
L 191.913196 193.300443 
L 193.298168 191.890383 
L 194.677956 190.433732 
L 196.052863 188.901048 
L 197.423336 187.252817 
L 198.790019 185.440497 
L 200.153724 183.410161 
L 201.515415 181.109562 
L 202.876102 178.49841 
L 204.236674 175.560937 
L 205.597668 172.318466 
L 206.959032 168.839027 
L 208.319904 165.240473 
L 209.678517 161.684533 
L 211.032243 158.360688 
L 212.377872 155.461405 
L 213.712018 153.152732 
L 215.031683 151.546487 
L 216.334749 150.680409 
L 217.620419 150.511337 
L 218.88929 150.923038 
L 220.143295 151.746755 
L 221.385321 152.789368 
L 222.618708 153.862592 
L 223.846726 154.807258 
L 225.072137 155.50874 
L 226.296928 155.902263 
L 227.522203 155.969191 
L 228.74831 155.727203 
L 229.974886 155.217619 
L 231.201255 154.492962 
L 232.426538 153.606863 
L 233.649836 152.607263 
L 234.870383 151.532956 
L 236.087581 150.412714 
L 237.301005 149.266091 
L 238.510401 148.104902 
L 239.715674 146.934654 
" clip-path="url(#p9e901cc81c)" style="fill: none; stroke: #ff0000; stroke-opacity: 0.2; stroke-width: 1.5; stroke-linecap: square"/>
   </g>
   <g id="line2d_52">
    <path d="M 190.226016 198.216727 
L 191.624101 196.852789 
L 193.016638 195.477973 
L 194.403721 194.086269 
L 195.785502 192.664909 
L 197.162213 191.193175 
L 198.534211 189.641322 
L 199.902004 187.970206 
L 201.266299 186.132747 
L 202.627964 184.077821 
L 203.987993 181.757288 
L 205.347391 179.135898 
L 206.706984 176.202895 
L 208.067202 172.98343 
L 209.427835 169.546737 
L 210.787848 166.008282 
L 212.145292 162.523412 
L 213.497409 159.271892 
L 214.84089 156.434734 
L 216.172325 154.167201 
L 217.488738 152.573426 
L 218.788071 151.688446 
L 220.069623 151.472025 
L 221.334037 151.815776 
L 222.58335 152.561765 
L 223.820461 153.528248 
L 225.048799 154.536504 
L 226.271655 155.433559 
L 227.491905 156.107005 
L 228.711561 156.490728 
L 229.931866 156.562247 
L 231.153148 156.334245 
L 232.375184 155.843102 
L 233.597266 155.137306 
L 234.818521 154.267777 
L 236.03804 153.281082 
L 237.255012 152.215669 
L 238.468803 151.10064 
L 239.678945 149.956141 
L 240.885164 148.794559 
L 242.087347 147.62173 
" clip-path="url(#p9e901cc81c)" style="fill: none; stroke: #ff0000; stroke-opacity: 0.2; stroke-width: 1.5; stroke-linecap: square"/>
   </g>
   <g id="line2d_53">
    <path d="M 192.732467 199.020433 
L 194.127182 197.653244 
L 195.51639 196.27277 
L 196.900204 194.872704 
L 198.2788 193.439771 
L 199.652452 191.952807 
L 201.021567 190.381905 
L 202.386719 188.68847 
L 203.748655 186.826973 
L 205.108307 184.74908 
L 206.466685 182.410612 
L 207.824772 179.780978 
L 209.18333 176.853957 
L 210.542675 173.657967 
L 211.90245 170.26306 
L 213.261449 166.782175 
L 214.617569 163.364535 
L 215.967929 160.180826 
L 217.309142 157.401541 
L 218.637779 155.172114 
L 219.95091 153.589716 
L 221.246545 152.686938 
L 222.52401 152.426196 
L 223.784064 152.706207 
L 225.02875 153.378925 
L 226.261058 154.273054 
L 227.484415 155.218815 
L 228.7022 156.069164 
L 229.917312 156.714066 
L 231.131884 157.086474 
L 232.347184 157.160611 
L 233.56366 156.94463 
L 234.781104 156.470316 
L 235.998854 155.782296 
L 237.216033 154.928788 
L 238.431711 153.954857 
L 239.645049 152.898463 
L 240.855394 151.788878 
L 242.062207 150.646722 
L 243.265234 149.48487 
L 244.464298 148.309459 
" clip-path="url(#p9e901cc81c)" style="fill: none; stroke: #ff0000; stroke-opacity: 0.2; stroke-width: 1.5; stroke-linecap: square"/>
   </g>
   <g id="line2d_54">
    <path d="M 195.244917 199.825092 
L 196.636242 198.454644 
L 198.02211 197.068372 
L 199.402652 195.659726 
L 200.77807 194.215023 
L 202.148679 192.712742 
L 203.514939 191.122992 
L 204.877468 189.40784 
L 206.237089 187.523387 
L 207.59475 185.424091 
L 208.951479 183.069544 
L 210.308227 180.43345 
L 211.665691 177.513713 
L 213.024067 174.341515 
L 214.382854 170.987388 
L 215.740696 167.56164 
L 217.095347 164.207638 
L 218.443808 161.087591 
L 219.782649 158.362317 
L 221.108436 156.168244 
L 222.418254 154.596233 
L 223.710168 153.676648 
L 224.983617 153.37433 
L 226.239353 153.594442 
L 227.479519 154.197983 
L 228.70708 155.023288 
L 229.925556 155.908913 
L 231.138312 156.713517 
L 232.34836 157.329531 
L 233.557853 157.689327 
L 234.768179 157.764285 
L 235.979809 157.558498 
L 237.192628 157.099473 
L 238.405997 156.428148 
L 239.619042 155.590056 
L 240.830837 154.628693 
L 242.040502 153.581381 
L 243.247338 152.477421 
L 244.450814 151.337801 
L 245.650598 150.175785 
L 246.846548 148.997779 
" clip-path="url(#p9e901cc81c)" style="fill: none; stroke: #ff0000; stroke-opacity: 0.2; stroke-width: 1.5; stroke-linecap: square"/>
   </g>
   <g id="line2d_55">
    <path d="M 197.763409 200.63065 
L 199.151326 199.256943 
L 200.533844 197.864763 
L 201.911111 196.447357 
L 203.283359 194.990721 
L 204.650943 193.4731 
L 206.014369 191.864743 
L 207.374312 190.128499 
L 208.731637 188.222197 
L 210.087323 186.102988 
L 211.442395 183.734055 
L 212.797778 181.093144 
L 214.154082 178.181783 
L 215.511397 175.033561 
L 216.869077 171.71916 
L 218.225625 168.346227 
L 219.578661 165.052519 
L 220.925108 161.992321 
L 222.261473 159.31751 
L 223.584337 157.156303 
L 224.890818 155.593775 
L 226.179048 154.658293 
L 227.448483 154.316875 
L 228.699988 154.480604 
L 229.935676 155.018738 
L 231.158587 155.7785 
L 232.372226 156.606253 
L 233.580047 157.366111 
L 234.785047 157.953025 
L 235.989511 158.299097 
L 237.194831 158.373262 
L 238.401644 158.175969 
L 239.609797 157.730764 
L 240.818744 157.075064 
L 242.027616 156.251757 
L 243.235468 155.302703 
L 244.441409 154.264482 
L 245.644702 153.166285 
L 246.844786 152.029345 
L 248.041315 150.867267 
L 249.234132 149.686658 
" clip-path="url(#p9e901cc81c)" style="fill: none; stroke: #ff0000; stroke-opacity: 0.2; stroke-width: 1.5; stroke-linecap: square"/>
   </g>
   <g id="line2d_56">
    <path d="M 200.287973 201.437098 
L 201.672461 200.06011 
L 203.051619 198.661928 
L 204.425607 197.235597 
L 205.794691 195.766912 
L 207.159268 194.234005 
L 208.519885 192.607331 
L 209.877273 190.850659 
L 211.232314 188.923558 
L 212.586034 186.785856 
L 213.939446 184.404142 
L 215.293427 181.759855 
L 216.648507 178.857813 
L 218.004664 175.733621 
L 219.361125 172.457883 
L 220.716246 169.135538 
L 222.067536 165.898994 
L 223.411848 162.895128 
L 224.745649 160.267541 
L 226.065528 158.136915 
L 227.368645 156.583058 
L 228.653182 155.632497 
L 229.918656 155.25426 
L 231.16596 155.364814 
L 232.397241 155.841011 
L 233.615568 156.538303 
L 234.824448 157.310352 
L 236.027369 158.026475 
L 237.227383 158.584195 
L 238.426831 158.915583 
L 239.627201 158.987517 
L 240.829145 158.79714 
L 242.032633 158.364353 
L 243.237121 157.723219 
L 244.441765 156.914043 
L 245.645628 155.976994 
L 246.847799 154.947816 
L 248.047508 153.855474 
L 249.244166 152.721348 
L 250.437393 151.559276 
L 251.627068 150.376061 
" clip-path="url(#p9e901cc81c)" style="fill: none; stroke: #ff0000; stroke-opacity: 0.2; stroke-width: 1.5; stroke-linecap: square"/>
   </g>
   <g id="line2d_57">
    <path d="M 202.818614 202.244391 
L 204.199654 200.864105 
L 205.57544 199.459827 
L 206.946151 198.024487 
L 208.312082 196.543696 
L 209.673662 194.995551 
L 211.031491 193.350903 
L 212.386331 191.574476 
L 213.739124 189.627627 
L 215.090884 187.47278 
L 216.442618 185.079742 
L 217.795157 182.433384 
L 219.148947 179.541455 
L 220.503852 176.441253 
L 221.858975 173.203108 
L 223.212551 169.929233 
L 224.561989 166.746927 
L 225.904054 163.796126 
L 227.235213 161.212801 
L 228.552053 159.110672 
L 229.851774 157.564734 
L 231.132627 156.599842 
L 232.394158 156.186857 
L 233.637313 156.247186 
L 234.864244 156.66466 
L 236.078043 157.302351 
L 237.282219 158.020754 
L 238.480299 158.694174 
L 239.675374 159.222703 
L 240.869832 159.538602 
L 242.065231 159.607 
L 243.262331 159.422086 
L 244.461106 159.000376 
L 245.661097 158.372777 
L 246.861478 157.577054 
L 248.061301 156.651678 
L 249.25965 155.631448 
L 250.455734 154.545012 
L 251.648933 153.413777 
L 252.838863 152.251783 
L 254.025353 151.065954 
" clip-path="url(#p9e901cc81c)" style="fill: none; stroke: #ff0000; stroke-opacity: 0.2; stroke-width: 1.5; stroke-linecap: square"/>
   </g>
   <g id="line2d_58">
    <path d="M 205.355387 203.052496 
L 206.73296 201.66892 
L 208.105363 200.258485 
L 209.472792 198.814032 
L 210.835574 197.321098 
L 212.194177 195.757854 
L 213.549235 194.095592 
L 214.901561 192.300113 
L 216.252103 190.334533 
L 217.601902 188.16381 
L 218.95195 185.760808 
L 220.303004 183.11354 
L 221.655435 180.232391 
L 223.009003 177.156071 
L 224.36268 173.954432 
L 225.714588 170.727 
L 227.062041 167.596188 
L 228.401769 164.695448 
L 229.730201 162.153643 
L 231.04395 160.078106 
L 232.340256 158.539405 
L 233.61742 157.560866 
L 234.875036 157.115034 
L 236.114069 157.127841 
L 237.33671 157.489565 
L 238.546024 158.070338 
L 239.745561 158.737073 
L 240.938851 159.368817 
L 242.129015 159.86824 
L 243.318518 160.167963 
L 244.508983 160.231652 
L 245.701209 160.05086 
L 246.895276 159.638966 
L 248.090742 159.02389 
L 249.286814 158.24094 
L 250.482553 157.32685 
L 251.677039 156.315433 
L 252.869457 155.234913 
L 254.059167 154.106645 
L 255.245744 152.944765 
L 256.429054 151.756312 
" clip-path="url(#p9e901cc81c)" style="fill: none; stroke: #ff0000; stroke-opacity: 0.2; stroke-width: 1.5; stroke-linecap: square"/>
   </g>
   <g id="line2d_59">
    <path d="M 207.898298 203.861414 
L 209.272384 202.474532 
L 210.641391 201.057877 
L 212.005541 199.604273 
L 213.365181 198.099195 
L 214.720816 196.52101 
L 216.073122 194.841547 
L 217.422943 193.027696 
L 218.771256 191.044384 
L 220.119097 188.858997 
L 221.467418 186.447271 
L 222.816942 183.800128 
L 224.167951 180.930318 
L 225.520073 177.877684 
L 226.872215 174.71148 
L 228.222341 171.528564 
L 229.567727 168.446692 
L 230.905021 165.593211 
L 232.230648 163.090405 
L 233.541255 161.039707 
L 234.834127 159.507617 
L 236.107598 158.516059 
L 237.361319 158.039115 
L 238.596272 158.006899 
L 239.814651 158.315629 
L 241.019545 158.842 
L 242.21448 159.458932 
L 243.403022 160.050028 
L 244.588325 160.520501 
L 245.772897 160.803474 
L 246.958427 160.861408 
L 248.145789 160.683496 
L 249.335124 160.280228 
L 250.526034 159.676691 
L 251.717761 158.905818 
L 252.909374 158.002617 
L 254.099944 156.999842 
L 255.288662 155.925205 
L 256.474825 154.799938 
L 257.658065 153.638206 
L 258.838155 152.447126 
" clip-path="url(#p9e901cc81c)" style="fill: none; stroke: #ff0000; stroke-opacity: 0.2; stroke-width: 1.5; stroke-linecap: square"/>
   </g>
  </g>
 </g>
 <defs>
  <clipPath id="p9e901cc81c">
   <rect x="87.48" y="30.24" width="194.04" height="194.04"/>
  </clipPath>
 </defs>
</svg>
