<?xml version="1.0" encoding="utf-8" standalone="no"?>
<!DOCTYPE svg PUBLIC "-//W3C//DTD SVG 1.1//EN"
  "http://www.w3.org/Graphics/SVG/1.1/DTD/svg11.dtd">
<svg xmlns:xlink="http://www.w3.org/1999/xlink" width="360pt" height="288pt" viewBox="0 0 360 288" xmlns="http://www.w3.org/2000/svg" version="1.1">
 <metadata>
  <rdf:RDF xmlns:dc="http://purl.org/dc/elements/1.1/" xmlns:cc="http://creativecommons.org/ns#" xmlns:rdf="http://www.w3.org/1999/02/22-rdf-syntax-ns#">
   <cc:Work>
    <dc:type rdf:resource="http://purl.org/dc/dcmitype/StillImage"/>
    <dc:date>2024-11-11T15:22:12.268660</dc:date>
    <dc:format>image/svg+xml</dc:format>
    <dc:creator>
     <cc:Agent>
      <dc:title>Matplotlib v3.5.2, https://matplotlib.org/</dc:title>
     </cc:Agent>
    </dc:creator>
   </cc:Work>
  </rdf:RDF>
 </metadata>
 <defs>
  <style type="text/css">*{stroke-linejoin: round; stroke-linecap: butt}</style>
 </defs>
 <g id="figure_1">
  <g id="patch_1">
   <path d="M 0 288 
L 360 288 
L 360 0 
L 0 0 
z
" style="fill: #ffffff"/>
  </g>
  <g id="axes_1">
   <g id="patch_2">
    <path d="M 45 256.32 
L 324 256.32 
L 324 34.56 
L 45 34.56 
z
" style="fill: #ffffff"/>
   </g>
   <g id="PolyCollection_1">
    <path d="M 57.681818 44.64 
L 57.681818 98.474632 
L 58.956373 100.071288 
L 60.230927 101.673764 
L 61.505482 103.286299 
L 62.780037 103.371677 
L 64.054591 103.498539 
L 65.329146 103.921801 
L 66.6037 104.496525 
L 67.878255 105.101568 
L 69.15281 105.705863 
L 70.427364 106.228341 
L 71.701919 106.794782 
L 72.976473 107.49841 
L 74.251028 108.193107 
L 75.525582 109.083611 
L 76.800137 110.184803 
L 78.074692 111.548937 
L 79.349246 113.013603 
L 80.623801 114.584046 
L 81.898355 116.155674 
L 83.17291 117.7314 
L 84.447465 119.242788 
L 85.722019 120.859999 
L 86.996574 122.590887 
L 88.271128 124.477913 
L 89.545683 126.471821 
L 90.820238 128.491498 
L 92.094792 130.489949 
L 93.369347 132.409498 
L 94.643901 134.185214 
L 95.918456 135.835487 
L 97.193011 137.365318 
L 98.467565 138.77537 
L 99.74212 140.100598 
L 101.016674 141.385526 
L 102.291229 142.631385 
L 103.565783 143.889999 
L 104.840338 145.861545 
L 106.114893 148.105756 
L 107.389447 150.354853 
L 108.664002 152.504781 
L 109.938556 154.589825 
L 111.213111 156.445534 
L 112.487666 157.936795 
L 113.76222 158.882825 
L 115.036775 159.785788 
L 116.311329 160.427858 
L 117.585884 160.802366 
L 118.860439 161.147069 
L 120.134993 161.671597 
L 121.409548 161.897535 
L 122.684102 161.962583 
L 123.958657 163.753026 
L 125.233212 165.479286 
L 126.507766 166.909294 
L 127.782321 168.0447 
L 129.056875 168.941375 
L 130.33143 169.657704 
L 131.605984 170.180431 
L 132.880539 170.180844 
L 134.155094 170.726286 
L 135.429648 171.177444 
L 136.704203 171.515283 
L 137.978757 171.824992 
L 139.253312 172.229258 
L 140.527867 172.238912 
L 141.802421 171.97862 
L 143.076976 171.710465 
L 144.35153 170.900087 
L 145.626085 170.764903 
L 146.90064 170.556365 
L 148.175194 170.398148 
L 149.449749 169.816645 
L 150.724303 170.260549 
L 151.998858 170.491598 
L 153.273413 169.842117 
L 154.547967 169.859151 
L 155.822522 170.326384 
L 157.097076 170.336545 
L 158.371631 170.384855 
L 159.646185 171.115053 
L 160.92074 171.144211 
L 162.195295 171.386777 
L 163.469849 171.402867 
L 164.744404 171.433841 
L 166.018958 171.523402 
L 167.293513 171.635646 
L 168.568068 171.740464 
L 169.842622 171.839984 
L 171.117177 171.935748 
L 172.391731 172.028582 
L 173.666286 172.119352 
L 174.940841 172.20822 
L 176.215395 172.295716 
L 177.48995 172.382106 
L 178.764504 172.467756 
L 180.039059 172.553009 
L 181.313614 172.638518 
L 182.588168 172.724573 
L 183.862723 172.811813 
L 185.137277 172.901094 
L 186.411832 172.993032 
L 187.686386 173.088375 
L 188.960941 173.187708 
L 190.235496 173.291583 
L 191.51005 173.400189 
L 192.784605 173.513492 
L 194.059159 173.630692 
L 195.333714 173.751032 
L 196.608269 173.872938 
L 197.882823 173.994221 
L 199.157378 174.112387 
L 200.431932 174.22513 
L 201.706487 174.329956 
L 202.981042 174.424769 
L 204.255596 174.508697 
L 205.530151 174.58149 
L 206.804705 174.643764 
L 208.07926 174.697077 
L 209.353815 174.743253 
L 210.628369 174.784106 
L 211.902924 174.821274 
L 213.177478 174.856081 
L 214.452033 174.889283 
L 215.726587 174.921472 
L 217.001142 174.953022 
L 218.275697 174.98405 
L 219.550251 175.014992 
L 220.824806 175.045786 
L 222.09936 175.076627 
L 223.373915 175.107475 
L 224.64847 175.138573 
L 225.923024 175.169749 
L 227.197579 175.201283 
L 228.472133 175.2332 
L 229.746688 175.265552 
L 231.021243 175.298302 
L 232.295797 175.331621 
L 233.570352 175.365446 
L 234.844906 175.399785 
L 236.119461 175.43467 
L 237.394016 175.470256 
L 238.66857 175.506419 
L 239.943125 175.543306 
L 241.217679 175.580739 
L 242.492234 175.619076 
L 243.766788 175.657966 
L 245.041343 175.697448 
L 246.315898 175.73746 
L 247.590452 175.778252 
L 248.865007 175.819425 
L 250.139561 175.86126 
L 251.414116 175.903571 
L 252.688671 175.946302 
L 253.963225 175.9894 
L 255.23778 176.032778 
L 256.512334 176.076359 
L 257.786889 176.120166 
L 259.061444 176.164042 
L 260.335998 176.207958 
L 261.610553 176.251749 
L 262.885107 176.295408 
L 264.159662 176.338856 
L 265.434217 176.382009 
L 266.708771 176.424623 
L 267.983326 176.46684 
L 269.25788 176.508489 
L 270.532435 176.54942 
L 271.806989 176.589954 
L 273.081544 176.629927 
L 274.356099 176.669308 
L 275.630653 176.707887 
L 276.905208 176.745982 
L 278.179762 176.783212 
L 279.454317 176.81971 
L 280.728872 176.855351 
L 282.003426 176.890415 
L 283.277981 176.924567 
L 284.552535 176.957917 
L 285.82709 176.990511 
L 287.101645 177.022357 
L 288.376199 177.053346 
L 289.650754 177.083634 
L 290.925308 177.113157 
L 292.199863 177.142004 
L 293.474418 177.170133 
L 294.748972 177.197662 
L 296.023527 177.224467 
L 297.298081 177.250749 
L 298.572636 177.276369 
L 299.84719 177.301498 
L 301.121745 177.325981 
L 302.3963 177.34998 
L 303.670854 177.373388 
L 304.945409 177.396343 
L 306.219963 177.418784 
L 307.494518 177.440726 
L 308.769073 177.462248 
L 310.043627 177.483356 
L 311.318182 177.500031 
L 311.318182 159.292677 
L 311.318182 159.292677 
L 310.043627 159.270127 
L 308.769073 159.225876 
L 307.494518 159.161982 
L 306.219963 159.070433 
L 304.945409 158.953381 
L 303.670854 158.810538 
L 302.3963 158.643438 
L 301.121745 158.465538 
L 299.84719 157.375489 
L 298.572636 156.912892 
L 297.298081 156.475043 
L 296.023527 156.070411 
L 294.748972 155.663737 
L 293.474418 156.396655 
L 292.199863 156.291712 
L 290.925308 156.202548 
L 289.650754 156.282338 
L 288.376199 155.635912 
L 287.101645 155.348285 
L 285.82709 154.725773 
L 284.552535 154.094276 
L 283.277981 153.805714 
L 282.003426 154.251122 
L 280.728872 153.636978 
L 279.454317 154.070394 
L 278.179762 154.030865 
L 276.905208 152.93713 
L 275.630653 152.380834 
L 274.356099 152.877201 
L 273.081544 152.347063 
L 271.806989 152.271722 
L 270.532435 152.728607 
L 269.25788 152.681107 
L 267.983326 152.070789 
L 266.708771 152.373392 
L 265.434217 152.310861 
L 264.159662 152.26612 
L 262.885107 152.526615 
L 261.610553 152.793086 
L 260.335998 152.699582 
L 259.061444 152.936724 
L 257.786889 153.165903 
L 256.512334 153.076731 
L 255.23778 152.628449 
L 253.963225 152.793702 
L 252.688671 152.705566 
L 251.414116 152.580512 
L 250.139561 152.444728 
L 248.865007 152.307667 
L 247.590452 151.623683 
L 246.315898 151.485717 
L 245.041343 151.116656 
L 243.766788 151.379847 
L 242.492234 151.371634 
L 241.217679 151.898461 
L 239.943125 152.249974 
L 238.66857 152.40389 
L 237.394016 151.688738 
L 236.119461 151.743618 
L 234.844906 151.707112 
L 233.570352 151.116968 
L 232.295797 150.759696 
L 231.021243 150.658493 
L 229.746688 151.327952 
L 228.472133 150.731831 
L 227.197579 150.419566 
L 225.923024 150.701637 
L 224.64847 150.992521 
L 223.373915 150.122254 
L 222.09936 149.992992 
L 220.824806 149.901093 
L 219.550251 149.915672 
L 218.275697 150.2984 
L 217.001142 150.787186 
L 215.726587 151.298522 
L 214.452033 151.988482 
L 213.177478 152.014874 
L 211.902924 151.671658 
L 210.628369 150.814645 
L 209.353815 150.609645 
L 208.07926 150.401676 
L 206.804705 149.731429 
L 205.530151 149.721837 
L 204.255596 150.383816 
L 202.981042 150.385305 
L 201.706487 150.373531 
L 200.431932 151.032198 
L 199.157378 151.020689 
L 197.882823 150.946198 
L 196.608269 151.094347 
L 195.333714 150.142006 
L 194.059159 150.11443 
L 192.784605 150.079117 
L 191.51005 150.090143 
L 190.235496 148.906706 
L 188.960941 149.841975 
L 187.686386 149.841803 
L 186.411832 149.849034 
L 185.137277 149.816845 
L 183.862723 150.742764 
L 182.588168 150.6212 
L 181.313614 150.392972 
L 180.039059 149.038337 
L 178.764504 148.851406 
L 177.48995 148.670062 
L 176.215395 148.514689 
L 174.940841 148.461602 
L 173.666286 149.517663 
L 172.391731 149.389523 
L 171.117177 149.114324 
L 169.842622 148.698885 
L 168.568068 148.145425 
L 167.293513 147.460647 
L 166.018958 146.698174 
L 164.744404 145.950296 
L 163.469849 145.218508 
L 162.195295 144.496507 
L 160.92074 143.780288 
L 159.646185 143.064271 
L 158.371631 142.342059 
L 157.097076 141.608378 
L 155.822522 140.866687 
L 154.547967 140.087126 
L 153.273413 139.300498 
L 151.998858 138.508119 
L 150.724303 137.708759 
L 149.449749 136.899838 
L 148.175194 136.107421 
L 146.90064 135.29098 
L 145.626085 134.451881 
L 144.35153 133.591018 
L 143.076976 132.709545 
L 141.802421 131.81633 
L 140.527867 130.928998 
L 139.253312 130.0527 
L 137.978757 129.189943 
L 136.704203 128.34447 
L 135.429648 127.514643 
L 134.155094 126.687442 
L 132.880539 125.856524 
L 131.605984 125.021281 
L 130.33143 124.1674 
L 129.056875 123.300772 
L 127.782321 122.423904 
L 126.507766 121.567678 
L 125.233212 120.729809 
L 123.958657 119.904845 
L 122.684102 119.134323 
L 121.409548 118.386592 
L 120.134993 117.66855 
L 118.860439 116.95293 
L 117.585884 116.273528 
L 116.311329 115.581877 
L 115.036775 114.908779 
L 113.76222 114.220821 
L 112.487666 113.5525 
L 111.213111 112.886843 
L 109.938556 112.187267 
L 108.664002 111.445638 
L 107.389447 110.67009 
L 106.114893 109.891355 
L 104.840338 109.129599 
L 103.565783 108.443107 
L 102.291229 107.862671 
L 101.016674 107.394807 
L 99.74212 107.020938 
L 98.467565 106.740012 
L 97.193011 106.38447 
L 95.918456 105.892209 
L 94.643901 105.290852 
L 93.369347 104.681586 
L 92.094792 104.176842 
L 90.820238 103.769397 
L 89.545683 103.489461 
L 88.271128 103.372214 
L 86.996574 103.307073 
L 85.722019 103.27663 
L 84.447465 103.263749 
L 83.17291 103.258669 
L 81.898355 103.256378 
L 80.623801 103.255279 
L 79.349246 103.253885 
L 78.074692 103.248757 
L 76.800137 103.243755 
L 75.525582 103.238262 
L 74.251028 103.231116 
L 72.976473 103.220324 
L 71.701919 103.208161 
L 70.427364 103.199153 
L 69.15281 103.18205 
L 67.878255 103.165975 
L 66.6037 103.080052 
L 65.329146 102.77434 
L 64.054591 102.231548 
L 62.780037 98.966013 
L 61.505482 89.463096 
L 60.230927 74.289464 
L 58.956373 59.340819 
L 57.681818 44.64 
z
" clip-path="url(#p73333220cc)" style="fill: #ff0000; fill-opacity: 0.3"/>
   </g>
   <g id="PolyCollection_2">
    <path d="M 57.681818 60.847898 
L 57.681818 98.865363 
L 58.956373 100.318817 
L 60.230927 101.773961 
L 61.505482 103.262339 
L 62.780037 103.264731 
L 64.054591 103.270918 
L 65.329146 103.29113 
L 66.6037 103.340446 
L 67.878255 103.475404 
L 69.15281 103.803705 
L 70.427364 104.318493 
L 71.701919 104.873012 
L 72.976473 105.425888 
L 74.251028 105.946589 
L 75.525582 106.392168 
L 76.800137 106.912863 
L 78.074692 107.721589 
L 79.349246 108.818308 
L 80.623801 110.118524 
L 81.898355 111.578437 
L 83.17291 113.081503 
L 84.447465 114.5888 
L 85.722019 116.156157 
L 86.996574 117.804474 
L 88.271128 119.409397 
L 89.545683 120.863443 
L 90.820238 122.079988 
L 92.094792 122.982733 
L 93.369347 123.591188 
L 94.643901 124.099922 
L 95.918456 124.496824 
L 97.193011 124.861903 
L 98.467565 125.253569 
L 99.74212 125.716657 
L 101.016674 126.275205 
L 102.291229 126.943316 
L 103.565783 127.730669 
L 104.840338 128.638853 
L 106.114893 129.656008 
L 107.389447 130.75755 
L 108.664002 131.898217 
L 109.938556 133.015429 
L 111.213111 134.039753 
L 112.487666 134.910659 
L 113.76222 135.590108 
L 115.036775 136.076845 
L 116.311329 136.401133 
L 117.585884 136.61306 
L 118.860439 136.768628 
L 120.134993 136.910887 
L 121.409548 137.062652 
L 122.684102 137.230002 
L 123.958657 137.408945 
L 125.233212 137.589736 
L 126.507766 137.76254 
L 127.782321 137.920274 
L 129.056875 138.060779 
L 130.33143 138.184143 
L 131.605984 138.297236 
L 132.880539 138.440337 
L 134.155094 138.571991 
L 135.429648 138.696094 
L 136.704203 138.816122 
L 137.978757 138.93421 
L 139.253312 139.051465 
L 140.527867 139.168454 
L 141.802421 139.285233 
L 143.076976 139.401646 
L 144.35153 139.517584 
L 145.626085 139.632999 
L 146.90064 139.748033 
L 148.175194 139.862965 
L 149.449749 139.978482 
L 150.724303 140.095183 
L 151.998858 140.213949 
L 153.273413 140.335785 
L 154.547967 140.461642 
L 155.822522 140.592298 
L 157.097076 140.7289 
L 158.371631 140.872336 
L 159.646185 141.023345 
L 160.92074 141.182809 
L 162.195295 141.351537 
L 163.469849 141.530177 
L 164.744404 141.719485 
L 166.018958 141.920191 
L 167.293513 142.133015 
L 168.568068 142.358875 
L 169.842622 142.598744 
L 171.117177 142.853481 
L 172.391731 143.123903 
L 173.666286 143.410953 
L 174.940841 143.715528 
L 176.215395 144.038609 
L 177.48995 144.38113 
L 178.764504 144.744122 
L 180.039059 145.128954 
L 181.313614 145.536524 
L 182.588168 145.968295 
L 183.862723 146.425196 
L 185.137277 146.908675 
L 186.411832 147.419084 
L 187.686386 147.955721 
L 188.960941 148.5143 
L 190.235496 149.086507 
L 191.51005 149.658652 
L 192.784605 150.211301 
L 194.059159 150.72273 
L 195.333714 151.173 
L 196.608269 151.549908 
L 197.882823 151.849924 
L 199.157378 152.079485 
L 200.431932 152.251556 
L 201.706487 152.381504 
L 202.981042 152.482675 
L 204.255596 152.564998 
L 205.530151 152.634924 
L 206.804705 152.696426 
L 208.07926 152.75217 
L 209.353815 152.803411 
L 210.628369 152.851043 
L 211.902924 152.895723 
L 213.177478 152.937683 
L 214.452033 152.977001 
L 215.726587 153.014123 
L 217.001142 153.049241 
L 218.275697 153.08256 
L 219.550251 153.114211 
L 220.824806 153.144351 
L 222.09936 153.173041 
L 223.373915 153.20043 
L 224.64847 153.226572 
L 225.923024 153.251553 
L 227.197579 153.275475 
L 228.472133 153.298469 
L 229.746688 153.320536 
L 231.021243 153.3418 
L 232.295797 153.362403 
L 233.570352 153.382366 
L 234.844906 153.401713 
L 236.119461 153.420539 
L 237.394016 153.438858 
L 238.66857 153.456811 
L 239.943125 153.474421 
L 241.217679 153.491703 
L 242.492234 153.508737 
L 243.766788 153.525458 
L 245.041343 153.542087 
L 246.315898 153.558582 
L 247.590452 153.574985 
L 248.865007 153.591348 
L 250.139561 153.607797 
L 251.414116 153.624028 
L 252.688671 153.640289 
L 253.963225 153.656551 
L 255.23778 153.672821 
L 256.512334 153.68913 
L 257.786889 153.705501 
L 259.061444 153.721903 
L 260.335998 153.738399 
L 261.610553 153.754988 
L 262.885107 153.771671 
L 264.159662 153.78847 
L 265.434217 153.805356 
L 266.708771 153.822272 
L 267.983326 153.839337 
L 269.25788 153.856471 
L 270.532435 153.873809 
L 271.806989 153.891263 
L 273.081544 153.908881 
L 274.356099 153.926459 
L 275.630653 153.944311 
L 276.905208 153.962178 
L 278.179762 153.980162 
L 279.454317 153.998271 
L 280.728872 154.01659 
L 282.003426 154.034893 
L 283.277981 154.053306 
L 284.552535 154.071858 
L 285.82709 154.090505 
L 287.101645 154.109229 
L 288.376199 154.128101 
L 289.650754 154.147051 
L 290.925308 154.177651 
L 292.199863 154.310816 
L 293.474418 154.474013 
L 294.748972 154.649278 
L 296.023527 154.836934 
L 297.298081 155.037134 
L 298.572636 155.249895 
L 299.84719 155.475607 
L 301.121745 155.714401 
L 302.3963 155.96631 
L 303.670854 156.231379 
L 304.945409 156.509289 
L 306.219963 156.799581 
L 307.494518 157.101701 
L 308.769073 157.41466 
L 310.043627 157.736821 
L 311.318182 157.9985 
L 311.318182 152.405955 
L 311.318182 152.405955 
L 310.043627 152.371405 
L 308.769073 152.328331 
L 307.494518 152.28528 
L 306.219963 152.242331 
L 304.945409 152.199334 
L 303.670854 152.156595 
L 302.3963 152.113887 
L 301.121745 152.071335 
L 299.84719 152.028907 
L 298.572636 151.986752 
L 297.298081 151.94466 
L 296.023527 151.90284 
L 294.748972 151.861199 
L 293.474418 151.819808 
L 292.199863 151.778604 
L 290.925308 151.737657 
L 289.650754 151.697006 
L 288.376199 151.656768 
L 287.101645 151.616849 
L 285.82709 151.577328 
L 284.552535 151.538158 
L 283.277981 151.49919 
L 282.003426 151.460456 
L 280.728872 151.42194 
L 279.454317 151.383665 
L 278.179762 151.345593 
L 276.905208 151.307646 
L 275.630653 151.269761 
L 274.356099 151.231877 
L 273.081544 151.193852 
L 271.806989 151.155593 
L 270.532435 151.117014 
L 269.25788 151.078015 
L 267.983326 151.03851 
L 266.708771 150.99835 
L 265.434217 150.957364 
L 264.159662 150.915482 
L 262.885107 150.872501 
L 261.610553 150.828297 
L 260.335998 150.782682 
L 259.061444 150.735735 
L 257.786889 150.687113 
L 256.512334 150.636847 
L 255.23778 150.584819 
L 253.963225 150.53107 
L 252.688671 150.475435 
L 251.414116 150.418226 
L 250.139561 150.359217 
L 248.865007 150.298509 
L 247.590452 150.236079 
L 246.315898 150.172076 
L 245.041343 150.10635 
L 243.766788 150.039331 
L 242.492234 149.970901 
L 241.217679 149.901124 
L 239.943125 149.830084 
L 238.66857 149.757883 
L 237.394016 149.68435 
L 236.119461 149.609468 
L 234.844906 149.533083 
L 233.570352 149.454812 
L 232.295797 149.374274 
L 231.021243 149.290557 
L 229.746688 149.20313 
L 228.472133 149.110919 
L 227.197579 149.012397 
L 225.923024 148.906083 
L 224.64847 148.790363 
L 223.373915 148.66319 
L 222.09936 148.522801 
L 220.824806 148.367732 
L 219.550251 148.196432 
L 218.275697 147.88313 
L 217.001142 147.486688 
L 215.726587 147.091967 
L 214.452033 146.702421 
L 213.177478 146.320674 
L 211.902924 145.866025 
L 210.628369 145.421817 
L 209.353815 144.997612 
L 208.07926 144.595824 
L 206.804705 144.217794 
L 205.530151 143.863374 
L 204.255596 143.53233 
L 202.981042 143.22396 
L 201.706487 142.936762 
L 200.431932 142.669535 
L 199.157378 142.420977 
L 197.882823 142.189538 
L 196.608269 141.973746 
L 195.333714 141.772377 
L 194.059159 141.584231 
L 192.784605 141.4081 
L 191.51005 141.243002 
L 190.235496 141.087957 
L 188.960941 140.942004 
L 187.686386 140.804288 
L 186.411832 140.674177 
L 185.137277 140.551008 
L 183.862723 140.434362 
L 182.588168 140.323793 
L 181.313614 140.218671 
L 180.039059 140.118224 
L 178.764504 140.021712 
L 177.48995 139.928247 
L 176.215395 139.837064 
L 174.940841 139.747776 
L 173.666286 139.659843 
L 172.391731 139.572697 
L 171.117177 139.485551 
L 169.842622 139.397415 
L 168.568068 139.306708 
L 167.293513 139.21163 
L 166.018958 139.109983 
L 164.744404 138.999819 
L 163.469849 138.879807 
L 162.195295 138.749812 
L 160.92074 138.611403 
L 159.646185 138.467383 
L 158.371631 138.321563 
L 157.097076 138.177387 
L 155.822522 138.037403 
L 154.547967 137.902882 
L 153.273413 137.774041 
L 151.998858 137.650249 
L 150.724303 137.530485 
L 149.449749 137.413597 
L 148.175194 137.2984 
L 146.90064 137.183811 
L 145.626085 137.068847 
L 144.35153 136.952746 
L 143.076976 136.834962 
L 141.802421 136.715619 
L 140.527867 136.593565 
L 139.253312 136.376417 
L 137.978757 136.053321 
L 136.704203 135.585082 
L 135.429648 134.948661 
L 134.155094 134.146231 
L 132.880539 133.205687 
L 131.605984 132.170969 
L 130.33143 131.091875 
L 129.056875 130.020051 
L 127.782321 129.003137 
L 126.507766 128.075715 
L 125.233212 127.259439 
L 123.958657 126.564936 
L 122.684102 125.987508 
L 121.409548 125.505283 
L 120.134993 125.083945 
L 118.860439 124.675581 
L 117.585884 124.217753 
L 116.311329 123.631317 
L 115.036775 122.745824 
L 113.76222 121.530354 
L 112.487666 120.048522 
L 111.213111 118.379065 
L 109.938556 116.635335 
L 108.664002 115.034301 
L 107.389447 113.654762 
L 106.114893 112.387506 
L 104.840338 111.135609 
L 103.565783 109.928874 
L 102.291229 108.819461 
L 101.016674 107.829976 
L 99.74212 107.060553 
L 98.467565 106.585364 
L 97.193011 106.330206 
L 95.918456 106.191952 
L 94.643901 106.109326 
L 93.369347 106.054891 
L 92.094792 106.01685 
L 90.820238 105.989936 
L 89.545683 105.970745 
L 88.271128 105.956579 
L 86.996574 105.943808 
L 85.722019 105.899604 
L 84.447465 105.742267 
L 83.17291 105.427158 
L 81.898355 104.984805 
L 80.623801 104.482757 
L 79.349246 103.993885 
L 78.074692 103.614281 
L 76.800137 103.392629 
L 75.525582 103.299234 
L 74.251028 103.268502 
L 72.976473 103.259238 
L 71.701919 103.256292 
L 70.427364 103.255046 
L 69.15281 103.254235 
L 67.878255 103.253487 
L 66.6037 103.252685 
L 65.329146 103.237023 
L 64.054591 103.201701 
L 62.780037 103.155097 
L 61.505482 99.031232 
L 60.230927 86.303423 
L 58.956373 73.575652 
L 57.681818 60.847898 
z
" clip-path="url(#p73333220cc)" style="fill: #0000ff; fill-opacity: 0.3"/>
   </g>
   <g id="PolyCollection_3">
    <path d="M 57.681818 49.806914 
L 57.681818 94.687709 
L 58.956373 97.533558 
L 60.230927 100.38314 
L 61.505482 103.237475 
L 62.780037 103.275733 
L 64.054591 103.334898 
L 65.329146 103.421779 
L 66.6037 103.611523 
L 67.878255 103.961307 
L 69.15281 104.435031 
L 70.427364 104.970148 
L 71.701919 105.517 
L 72.976473 105.995991 
L 74.251028 106.34332 
L 75.525582 106.599802 
L 76.800137 106.806829 
L 78.074692 107.067519 
L 79.349246 107.481072 
L 80.623801 107.880881 
L 81.898355 108.273848 
L 83.17291 108.640658 
L 84.447465 108.985322 
L 85.722019 109.511276 
L 86.996574 110.530597 
L 88.271128 111.703195 
L 89.545683 112.97208 
L 90.820238 114.282168 
L 92.094792 115.615235 
L 93.369347 116.967182 
L 94.643901 118.267655 
L 95.918456 119.616103 
L 97.193011 121.095918 
L 98.467565 122.706357 
L 99.74212 124.463575 
L 101.016674 126.401249 
L 102.291229 128.517102 
L 103.565783 130.89882 
L 104.840338 133.582891 
L 106.114893 136.438207 
L 107.389447 139.465432 
L 108.664002 142.666582 
L 109.938556 145.938982 
L 111.213111 149.244178 
L 112.487666 152.381208 
L 113.76222 154.941923 
L 115.036775 157.074787 
L 116.311329 158.636285 
L 117.585884 159.52664 
L 118.860439 160.100733 
L 120.134993 160.817584 
L 121.409548 165.046517 
L 122.684102 168.952557 
L 123.958657 172.785492 
L 125.233212 176.052998 
L 126.507766 179.319656 
L 127.782321 182.304172 
L 129.056875 184.775295 
L 130.33143 186.715002 
L 131.605984 188.412307 
L 132.880539 189.329685 
L 134.155094 189.856839 
L 135.429648 190.223874 
L 136.704203 190.467484 
L 137.978757 190.184205 
L 139.253312 190.747529 
L 140.527867 190.784666 
L 141.802421 191.492579 
L 143.076976 192.228248 
L 144.35153 193.447442 
L 145.626085 194.251041 
L 146.90064 195.343748 
L 148.175194 195.816832 
L 149.449749 195.986231 
L 150.724303 196.285741 
L 151.998858 195.893545 
L 153.273413 195.78201 
L 154.547967 195.926193 
L 155.822522 196.25197 
L 157.097076 196.290089 
L 158.371631 196.165892 
L 159.646185 196.634364 
L 160.92074 196.609414 
L 162.195295 196.537867 
L 163.469849 196.072535 
L 164.744404 196.692087 
L 166.018958 196.3421 
L 167.293513 195.814908 
L 168.568068 195.867691 
L 169.842622 196.987568 
L 171.117177 196.898365 
L 172.391731 197.520698 
L 173.666286 197.996425 
L 174.940841 197.972729 
L 176.215395 198.031356 
L 177.48995 198.083578 
L 178.764504 197.227562 
L 180.039059 197.798944 
L 181.313614 197.645176 
L 182.588168 196.944042 
L 183.862723 197.048993 
L 185.137277 197.46977 
L 186.411832 197.258715 
L 187.686386 197.702829 
L 188.960941 198.113804 
L 190.235496 198.198043 
L 191.51005 198.450341 
L 192.784605 198.549728 
L 194.059159 198.670629 
L 195.333714 198.802128 
L 196.608269 199.098521 
L 197.882823 199.223707 
L 199.157378 199.374023 
L 200.431932 199.483143 
L 201.706487 199.581914 
L 202.981042 199.709665 
L 204.255596 199.807984 
L 205.530151 200.813241 
L 206.804705 202.501944 
L 208.07926 204.37125 
L 209.353815 206.346637 
L 210.628369 208.290871 
L 211.902924 210.288535 
L 213.177478 212.470037 
L 214.452033 214.570501 
L 215.726587 216.684913 
L 217.001142 218.840124 
L 218.275697 221.03336 
L 219.550251 223.245048 
L 220.824806 225.488698 
L 222.09936 227.732224 
L 223.373915 229.939463 
L 224.64847 232.063241 
L 225.923024 234.150272 
L 227.197579 236.069143 
L 228.472133 237.276844 
L 229.746688 238.163826 
L 231.021243 238.556536 
L 232.295797 238.683148 
L 233.570352 238.419396 
L 234.844906 237.913437 
L 236.119461 237.384483 
L 237.394016 228.445911 
L 238.66857 227.502827 
L 239.943125 227.067853 
L 241.217679 227.203629 
L 242.492234 227.075559 
L 243.766788 234.883602 
L 245.041343 235.073136 
L 246.315898 234.683254 
L 247.590452 234.098626 
L 248.865007 233.712859 
L 250.139561 233.884907 
L 251.414116 233.547512 
L 252.688671 233.284188 
L 253.963225 232.681055 
L 255.23778 232.27887 
L 256.512334 231.92974 
L 257.786889 224.866872 
L 259.061444 218.041037 
L 260.335998 217.883092 
L 261.610553 217.994058 
L 262.885107 218.783242 
L 264.159662 223.409483 
L 265.434217 229.441623 
L 266.708771 229.092875 
L 267.983326 228.65028 
L 269.25788 224.230723 
L 270.532435 225.291747 
L 271.806989 226.364397 
L 273.081544 227.464381 
L 274.356099 228.583479 
L 275.630653 229.658373 
L 276.905208 230.626478 
L 278.179762 231.706242 
L 279.454317 232.778206 
L 280.728872 233.755045 
L 282.003426 234.754426 
L 283.277981 235.846439 
L 284.552535 236.70438 
L 285.82709 237.444529 
L 287.101645 238.273397 
L 288.376199 239.077783 
L 289.650754 239.861458 
L 290.925308 240.518902 
L 292.199863 241.345527 
L 293.474418 242.034123 
L 294.748972 242.538898 
L 296.023527 242.865244 
L 297.298081 243.522579 
L 298.572636 243.811203 
L 299.84719 244.177919 
L 301.121745 244.026925 
L 302.3963 243.6282 
L 303.670854 243.808803 
L 304.945409 244.24991 
L 306.219963 244.359723 
L 307.494518 245.037979 
L 308.769073 246.24 
L 310.043627 246.168251 
L 311.318182 245.945119 
L 311.318182 182.945876 
L 311.318182 182.945876 
L 310.043627 182.956964 
L 308.769073 182.966969 
L 307.494518 182.93958 
L 306.219963 182.873605 
L 304.945409 183.273873 
L 303.670854 182.773088 
L 302.3963 182.72992 
L 301.121745 182.716245 
L 299.84719 182.254724 
L 298.572636 182.259734 
L 297.298081 182.228932 
L 296.023527 180.139914 
L 294.748972 180.118587 
L 293.474418 180.588548 
L 292.199863 180.529811 
L 290.925308 180.490516 
L 289.650754 182.547805 
L 288.376199 182.516263 
L 287.101645 179.640796 
L 285.82709 179.101448 
L 284.552535 179.065924 
L 283.277981 179.022678 
L 282.003426 176.851946 
L 280.728872 179.649632 
L 279.454317 179.563772 
L 278.179762 179.397849 
L 276.905208 179.381415 
L 275.630653 181.493778 
L 274.356099 179.230273 
L 273.081544 179.796785 
L 271.806989 179.789289 
L 270.532435 179.091162 
L 269.25788 179.057158 
L 267.983326 180.611963 
L 266.708771 180.585142 
L 265.434217 181.170978 
L 264.159662 181.807158 
L 262.885107 181.119216 
L 261.610553 181.728684 
L 260.335998 180.974183 
L 259.061444 180.903735 
L 257.786889 180.848006 
L 256.512334 181.435852 
L 255.23778 180.633562 
L 253.963225 180.513908 
L 252.688671 180.469345 
L 251.414116 180.401703 
L 250.139561 179.553954 
L 248.865007 179.427341 
L 247.590452 180.117068 
L 246.315898 180.047929 
L 245.041343 179.979663 
L 243.766788 180.707649 
L 242.492234 181.449418 
L 241.217679 181.374872 
L 239.943125 181.304463 
L 238.66857 181.238776 
L 237.394016 181.157872 
L 236.119461 181.054729 
L 234.844906 178.560822 
L 233.570352 176.078478 
L 232.295797 173.58394 
L 231.021243 172.462956 
L 229.746688 172.395968 
L 228.472133 172.000141 
L 227.197579 174.296349 
L 225.923024 174.275077 
L 224.64847 175.219517 
L 223.373915 175.099037 
L 222.09936 175.465043 
L 220.824806 175.350968 
L 219.550251 177.549893 
L 218.275697 177.406963 
L 217.001142 177.269356 
L 215.726587 177.25865 
L 214.452033 175.007239 
L 213.177478 174.843388 
L 211.902924 174.712965 
L 210.628369 174.587599 
L 209.353815 176.574035 
L 208.07926 176.48932 
L 206.804705 174.314053 
L 205.530151 174.203585 
L 204.255596 174.10179 
L 202.981042 171.170408 
L 201.706487 171.031686 
L 200.431932 172.988591 
L 199.157378 172.837402 
L 197.882823 172.730511 
L 196.608269 170.912141 
L 195.333714 167.307162 
L 194.059159 163.286969 
L 192.784605 159.276968 
L 191.51005 155.408081 
L 190.235496 151.749508 
L 188.960941 148.441327 
L 187.686386 145.856168 
L 186.411832 143.608341 
L 185.137277 141.706339 
L 183.862723 140.146782 
L 182.588168 138.918463 
L 181.313614 137.990729 
L 180.039059 137.350895 
L 178.764504 136.923892 
L 177.48995 136.581222 
L 176.215395 136.107085 
L 174.940841 133.976279 
L 173.666286 132.993237 
L 172.391731 132.610034 
L 171.117177 132.09089 
L 169.842622 131.653181 
L 168.568068 132.843109 
L 167.293513 132.86015 
L 166.018958 131.997464 
L 164.744404 131.460882 
L 163.469849 130.953426 
L 162.195295 130.419478 
L 160.92074 129.784334 
L 159.646185 129.243475 
L 158.371631 128.467155 
L 157.097076 127.493947 
L 155.822522 126.413552 
L 154.547967 125.338658 
L 153.273413 124.342386 
L 151.998858 123.399855 
L 150.724303 122.267947 
L 149.449749 120.916257 
L 148.175194 119.622353 
L 146.90064 118.637846 
L 145.626085 117.862976 
L 144.35153 117.076013 
L 143.076976 116.126945 
L 141.802421 115.127782 
L 140.527867 113.981583 
L 139.253312 112.617893 
L 137.978757 111.356988 
L 136.704203 110.260612 
L 135.429648 109.472768 
L 134.155094 108.916246 
L 132.880539 108.555849 
L 131.605984 108.31252 
L 130.33143 108.146457 
L 129.056875 108.015107 
L 127.782321 107.898476 
L 126.507766 107.741926 
L 125.233212 107.546923 
L 123.958657 107.322193 
L 122.684102 107.065072 
L 121.409548 106.605078 
L 120.134993 106.285005 
L 118.860439 105.447978 
L 117.585884 105.023048 
L 116.311329 104.583375 
L 115.036775 104.283234 
L 113.76222 103.852608 
L 112.487666 103.981519 
L 111.213111 103.737052 
L 109.938556 103.517341 
L 108.664002 103.40999 
L 107.389447 103.336714 
L 106.114893 103.295907 
L 104.840338 103.266313 
L 103.565783 103.252466 
L 102.291229 103.258357 
L 101.016674 103.257196 
L 99.74212 103.254773 
L 98.467565 103.25404 
L 97.193011 103.253409 
L 95.918456 103.256074 
L 94.643901 103.226987 
L 93.369347 103.229831 
L 92.094792 103.248594 
L 90.820238 103.251165 
L 89.545683 103.249459 
L 88.271128 103.252326 
L 86.996574 103.251399 
L 85.722019 103.250292 
L 84.447465 103.248789 
L 83.17291 103.24663 
L 81.898355 103.245438 
L 80.623801 103.251789 
L 79.349246 103.253144 
L 78.074692 103.254726 
L 76.800137 103.254788 
L 75.525582 103.253355 
L 74.251028 103.249724 
L 72.976473 103.195974 
L 71.701919 103.240342 
L 70.427364 103.23534 
L 69.15281 103.211278 
L 67.878255 103.204078 
L 66.6037 103.16723 
L 65.329146 102.616941 
L 64.054591 101.880961 
L 62.780037 99.622755 
L 61.505482 91.407665 
L 60.230927 77.204 
L 58.956373 63.408793 
L 57.681818 49.806914 
z
" clip-path="url(#p73333220cc)" style="fill: #008000; fill-opacity: 0.3"/>
   </g>
   <g id="matplotlib.axis_1">
    <g id="xtick_1">
     <g id="line2d_1">
      <defs>
       <path id="mee766b2b35" d="M 0 0 
L 0 3.5 
" style="stroke: #000000; stroke-width: 0.8"/>
      </defs>
      <g>
       <use xlink:href="#mee766b2b35" x="57.681818" y="256.32" style="stroke: #000000; stroke-width: 0.8"/>
      </g>
     </g>
     <g id="text_1">
      <!-- 0 -->
      <g transform="translate(55.181818 270.26375)scale(0.1 -0.1)">
       <defs>
        <path id="TimesNewRomanPSMT-30" d="M 231 2094 
Q 231 2819 450 3342 
Q 669 3866 1031 4122 
Q 1313 4325 1613 4325 
Q 2100 4325 2488 3828 
Q 2972 3213 2972 2159 
Q 2972 1422 2759 906 
Q 2547 391 2217 158 
Q 1888 -75 1581 -75 
Q 975 -75 572 641 
Q 231 1244 231 2094 
z
M 844 2016 
Q 844 1141 1059 588 
Q 1238 122 1591 122 
Q 1759 122 1940 273 
Q 2122 425 2216 781 
Q 2359 1319 2359 2297 
Q 2359 3022 2209 3506 
Q 2097 3866 1919 4016 
Q 1791 4119 1609 4119 
Q 1397 4119 1231 3928 
Q 1006 3669 925 3112 
Q 844 2556 844 2016 
z
" transform="scale(0.015625)"/>
       </defs>
       <use xlink:href="#TimesNewRomanPSMT-30"/>
      </g>
     </g>
    </g>
    <g id="xtick_2">
     <g id="line2d_2">
      <g>
       <use xlink:href="#mee766b2b35" x="121.409548" y="256.32" style="stroke: #000000; stroke-width: 0.8"/>
      </g>
     </g>
     <g id="text_2">
      <!-- 50 -->
      <g transform="translate(116.409548 270.26375)scale(0.1 -0.1)">
       <defs>
        <path id="TimesNewRomanPSMT-35" d="M 2778 4238 
L 2534 3706 
L 1259 3706 
L 981 3138 
Q 1809 3016 2294 2522 
Q 2709 2097 2709 1522 
Q 2709 1188 2573 903 
Q 2438 619 2231 419 
Q 2025 219 1772 97 
Q 1413 -75 1034 -75 
Q 653 -75 479 54 
Q 306 184 306 341 
Q 306 428 378 495 
Q 450 563 559 563 
Q 641 563 702 538 
Q 763 513 909 409 
Q 1144 247 1384 247 
Q 1750 247 2026 523 
Q 2303 800 2303 1197 
Q 2303 1581 2056 1914 
Q 1809 2247 1375 2428 
Q 1034 2569 447 2591 
L 1259 4238 
L 2778 4238 
z
" transform="scale(0.015625)"/>
       </defs>
       <use xlink:href="#TimesNewRomanPSMT-35"/>
       <use xlink:href="#TimesNewRomanPSMT-30" x="50"/>
      </g>
     </g>
    </g>
    <g id="xtick_3">
     <g id="line2d_3">
      <g>
       <use xlink:href="#mee766b2b35" x="185.137277" y="256.32" style="stroke: #000000; stroke-width: 0.8"/>
      </g>
     </g>
     <g id="text_3">
      <!-- 100 -->
      <g transform="translate(177.637277 270.26375)scale(0.1 -0.1)">
       <defs>
        <path id="TimesNewRomanPSMT-31" d="M 750 3822 
L 1781 4325 
L 1884 4325 
L 1884 747 
Q 1884 391 1914 303 
Q 1944 216 2037 169 
Q 2131 122 2419 116 
L 2419 0 
L 825 0 
L 825 116 
Q 1125 122 1212 167 
Q 1300 213 1334 289 
Q 1369 366 1369 747 
L 1369 3034 
Q 1369 3497 1338 3628 
Q 1316 3728 1258 3775 
Q 1200 3822 1119 3822 
Q 1003 3822 797 3725 
L 750 3822 
z
" transform="scale(0.015625)"/>
       </defs>
       <use xlink:href="#TimesNewRomanPSMT-31"/>
       <use xlink:href="#TimesNewRomanPSMT-30" x="50"/>
       <use xlink:href="#TimesNewRomanPSMT-30" x="100"/>
      </g>
     </g>
    </g>
    <g id="xtick_4">
     <g id="line2d_4">
      <g>
       <use xlink:href="#mee766b2b35" x="248.865007" y="256.32" style="stroke: #000000; stroke-width: 0.8"/>
      </g>
     </g>
     <g id="text_4">
      <!-- 150 -->
      <g transform="translate(241.365007 270.26375)scale(0.1 -0.1)">
       <use xlink:href="#TimesNewRomanPSMT-31"/>
       <use xlink:href="#TimesNewRomanPSMT-35" x="50"/>
       <use xlink:href="#TimesNewRomanPSMT-30" x="100"/>
      </g>
     </g>
    </g>
    <g id="xtick_5">
     <g id="line2d_5">
      <g>
       <use xlink:href="#mee766b2b35" x="312.592736" y="256.32" style="stroke: #000000; stroke-width: 0.8"/>
      </g>
     </g>
     <g id="text_5">
      <!-- 200k -->
      <g transform="translate(302.592736 270.26375)scale(0.1 -0.1)">
       <defs>
        <path id="TimesNewRomanPSMT-32" d="M 2934 816 
L 2638 0 
L 138 0 
L 138 116 
Q 1241 1122 1691 1759 
Q 2141 2397 2141 2925 
Q 2141 3328 1894 3587 
Q 1647 3847 1303 3847 
Q 991 3847 742 3664 
Q 494 3481 375 3128 
L 259 3128 
Q 338 3706 661 4015 
Q 984 4325 1469 4325 
Q 1984 4325 2329 3994 
Q 2675 3663 2675 3213 
Q 2675 2891 2525 2569 
Q 2294 2063 1775 1497 
Q 997 647 803 472 
L 1909 472 
Q 2247 472 2383 497 
Q 2519 522 2628 598 
Q 2738 675 2819 816 
L 2934 816 
z
" transform="scale(0.015625)"/>
        <path id="TimesNewRomanPSMT-6b" d="M 1047 4444 
L 1047 1597 
L 1775 2259 
Q 2006 2472 2044 2528 
Q 2069 2566 2069 2603 
Q 2069 2666 2017 2711 
Q 1966 2756 1847 2763 
L 1847 2863 
L 3091 2863 
L 3091 2763 
Q 2834 2756 2664 2684 
Q 2494 2613 2291 2428 
L 1556 1750 
L 2291 822 
Q 2597 438 2703 334 
Q 2853 188 2966 144 
Q 3044 113 3238 113 
L 3238 0 
L 1847 0 
L 1847 113 
Q 1966 116 2008 148 
Q 2050 181 2050 241 
Q 2050 313 1925 472 
L 1047 1594 
L 1047 644 
Q 1047 366 1086 278 
Q 1125 191 1197 153 
Q 1269 116 1509 113 
L 1509 0 
L 53 0 
L 53 113 
Q 272 113 381 166 
Q 447 200 481 272 
Q 528 375 528 628 
L 528 3234 
Q 528 3731 506 3842 
Q 484 3953 434 3995 
Q 384 4038 303 4038 
Q 238 4038 106 3984 
L 53 4094 
L 903 4444 
L 1047 4444 
z
" transform="scale(0.015625)"/>
       </defs>
       <use xlink:href="#TimesNewRomanPSMT-32"/>
       <use xlink:href="#TimesNewRomanPSMT-30" x="50"/>
       <use xlink:href="#TimesNewRomanPSMT-30" x="100"/>
       <use xlink:href="#TimesNewRomanPSMT-6b" x="150"/>
      </g>
     </g>
    </g>
    <g id="text_6">
     <!-- Epochs -->
     <g transform="translate(169.780469 283.346563)scale(0.1 -0.1)">
      <defs>
       <path id="TimesNewRomanPSMT-45" d="M 1338 4006 
L 1338 2331 
L 2269 2331 
Q 2631 2331 2753 2441 
Q 2916 2584 2934 2947 
L 3050 2947 
L 3050 1472 
L 2934 1472 
Q 2891 1781 2847 1869 
Q 2791 1978 2662 2040 
Q 2534 2103 2269 2103 
L 1338 2103 
L 1338 706 
Q 1338 425 1363 364 
Q 1388 303 1450 267 
Q 1513 231 1688 231 
L 2406 231 
Q 2766 231 2928 281 
Q 3091 331 3241 478 
Q 3434 672 3638 1063 
L 3763 1063 
L 3397 0 
L 131 0 
L 131 116 
L 281 116 
Q 431 116 566 188 
Q 666 238 702 338 
Q 738 438 738 747 
L 738 3500 
Q 738 3903 656 3997 
Q 544 4122 281 4122 
L 131 4122 
L 131 4238 
L 3397 4238 
L 3444 3309 
L 3322 3309 
Q 3256 3644 3176 3769 
Q 3097 3894 2941 3959 
Q 2816 4006 2500 4006 
L 1338 4006 
z
" transform="scale(0.015625)"/>
       <path id="TimesNewRomanPSMT-70" d="M -6 2578 
L 875 2934 
L 994 2934 
L 994 2266 
Q 1216 2644 1439 2795 
Q 1663 2947 1909 2947 
Q 2341 2947 2628 2609 
Q 2981 2197 2981 1534 
Q 2981 794 2556 309 
Q 2206 -88 1675 -88 
Q 1444 -88 1275 -22 
Q 1150 25 994 166 
L 994 -706 
Q 994 -1000 1030 -1079 
Q 1066 -1159 1155 -1206 
Q 1244 -1253 1478 -1253 
L 1478 -1369 
L -22 -1369 
L -22 -1253 
L 56 -1253 
Q 228 -1256 350 -1188 
Q 409 -1153 442 -1076 
Q 475 -1000 475 -688 
L 475 2019 
Q 475 2297 450 2372 
Q 425 2447 370 2484 
Q 316 2522 222 2522 
Q 147 2522 31 2478 
L -6 2578 
z
M 994 2081 
L 994 1013 
Q 994 666 1022 556 
Q 1066 375 1236 237 
Q 1406 100 1666 100 
Q 1978 100 2172 344 
Q 2425 663 2425 1241 
Q 2425 1897 2138 2250 
Q 1938 2494 1663 2494 
Q 1513 2494 1366 2419 
Q 1253 2363 994 2081 
z
" transform="scale(0.015625)"/>
       <path id="TimesNewRomanPSMT-6f" d="M 1600 2947 
Q 2250 2947 2644 2453 
Q 2978 2031 2978 1484 
Q 2978 1100 2793 706 
Q 2609 313 2286 112 
Q 1963 -88 1566 -88 
Q 919 -88 538 428 
Q 216 863 216 1403 
Q 216 1797 411 2186 
Q 606 2575 925 2761 
Q 1244 2947 1600 2947 
z
M 1503 2744 
Q 1338 2744 1170 2645 
Q 1003 2547 900 2300 
Q 797 2053 797 1666 
Q 797 1041 1045 587 
Q 1294 134 1700 134 
Q 2003 134 2200 384 
Q 2397 634 2397 1244 
Q 2397 2006 2069 2444 
Q 1847 2744 1503 2744 
z
" transform="scale(0.015625)"/>
       <path id="TimesNewRomanPSMT-63" d="M 2631 1088 
Q 2516 522 2178 217 
Q 1841 -88 1431 -88 
Q 944 -88 581 321 
Q 219 731 219 1428 
Q 219 2103 620 2525 
Q 1022 2947 1584 2947 
Q 2006 2947 2278 2723 
Q 2550 2500 2550 2259 
Q 2550 2141 2473 2067 
Q 2397 1994 2259 1994 
Q 2075 1994 1981 2113 
Q 1928 2178 1911 2362 
Q 1894 2547 1784 2644 
Q 1675 2738 1481 2738 
Q 1169 2738 978 2506 
Q 725 2200 725 1697 
Q 725 1184 976 792 
Q 1228 400 1656 400 
Q 1963 400 2206 609 
Q 2378 753 2541 1131 
L 2631 1088 
z
" transform="scale(0.015625)"/>
       <path id="TimesNewRomanPSMT-68" d="M 1041 4444 
L 1041 2350 
Q 1388 2731 1591 2839 
Q 1794 2947 1997 2947 
Q 2241 2947 2416 2812 
Q 2591 2678 2675 2391 
Q 2734 2191 2734 1659 
L 2734 647 
Q 2734 375 2778 275 
Q 2809 200 2884 156 
Q 2959 113 3159 113 
L 3159 0 
L 1753 0 
L 1753 113 
L 1819 113 
Q 2019 113 2097 173 
Q 2175 234 2206 353 
Q 2216 403 2216 647 
L 2216 1659 
Q 2216 2128 2167 2275 
Q 2119 2422 2012 2495 
Q 1906 2569 1756 2569 
Q 1603 2569 1437 2487 
Q 1272 2406 1041 2159 
L 1041 647 
Q 1041 353 1073 281 
Q 1106 209 1195 161 
Q 1284 113 1503 113 
L 1503 0 
L 84 0 
L 84 113 
Q 275 113 384 172 
Q 447 203 484 290 
Q 522 378 522 647 
L 522 3238 
Q 522 3728 498 3840 
Q 475 3953 426 3993 
Q 378 4034 297 4034 
Q 231 4034 84 3984 
L 41 4094 
L 897 4444 
L 1041 4444 
z
" transform="scale(0.015625)"/>
       <path id="TimesNewRomanPSMT-73" d="M 2050 2947 
L 2050 1972 
L 1947 1972 
Q 1828 2431 1642 2597 
Q 1456 2763 1169 2763 
Q 950 2763 815 2647 
Q 681 2531 681 2391 
Q 681 2216 781 2091 
Q 878 1963 1175 1819 
L 1631 1597 
Q 2266 1288 2266 781 
Q 2266 391 1970 151 
Q 1675 -88 1309 -88 
Q 1047 -88 709 6 
Q 606 38 541 38 
Q 469 38 428 -44 
L 325 -44 
L 325 978 
L 428 978 
Q 516 541 762 319 
Q 1009 97 1316 97 
Q 1531 97 1667 223 
Q 1803 350 1803 528 
Q 1803 744 1651 891 
Q 1500 1038 1047 1263 
Q 594 1488 453 1669 
Q 313 1847 313 2119 
Q 313 2472 555 2709 
Q 797 2947 1181 2947 
Q 1350 2947 1591 2875 
Q 1750 2828 1803 2828 
Q 1853 2828 1881 2850 
Q 1909 2872 1947 2947 
L 2050 2947 
z
" transform="scale(0.015625)"/>
      </defs>
      <use xlink:href="#TimesNewRomanPSMT-45"/>
      <use xlink:href="#TimesNewRomanPSMT-70" x="61.083984"/>
      <use xlink:href="#TimesNewRomanPSMT-6f" x="111.083984"/>
      <use xlink:href="#TimesNewRomanPSMT-63" x="161.083984"/>
      <use xlink:href="#TimesNewRomanPSMT-68" x="205.46875"/>
      <use xlink:href="#TimesNewRomanPSMT-73" x="255.46875"/>
     </g>
    </g>
   </g>
   <g id="matplotlib.axis_2">
    <g id="ytick_1">
     <g id="line2d_6">
      <defs>
       <path id="mdfa41562ea" d="M 0 0 
L -3.5 0 
" style="stroke: #000000; stroke-width: 0.8"/>
      </defs>
      <g>
       <use xlink:href="#mdfa41562ea" x="45" y="220.592994" style="stroke: #000000; stroke-width: 0.8"/>
      </g>
     </g>
     <g id="text_7">
      <!-- 1 -->
      <g transform="translate(33 224.064869)scale(0.1 -0.1)">
       <use xlink:href="#TimesNewRomanPSMT-31"/>
      </g>
     </g>
    </g>
    <g id="ytick_2">
     <g id="line2d_7">
      <g>
       <use xlink:href="#mdfa41562ea" x="45" y="181.632881" style="stroke: #000000; stroke-width: 0.8"/>
      </g>
     </g>
     <g id="text_8">
      <!-- 2 -->
      <g transform="translate(33 185.104756)scale(0.1 -0.1)">
       <use xlink:href="#TimesNewRomanPSMT-32"/>
      </g>
     </g>
    </g>
    <g id="ytick_3">
     <g id="line2d_8">
      <g>
       <use xlink:href="#mdfa41562ea" x="45" y="142.672768" style="stroke: #000000; stroke-width: 0.8"/>
      </g>
     </g>
     <g id="text_9">
      <!-- 3 -->
      <g transform="translate(33 146.144643)scale(0.1 -0.1)">
       <defs>
        <path id="TimesNewRomanPSMT-33" d="M 325 3431 
Q 506 3859 782 4092 
Q 1059 4325 1472 4325 
Q 1981 4325 2253 3994 
Q 2459 3747 2459 3466 
Q 2459 3003 1878 2509 
Q 2269 2356 2469 2072 
Q 2669 1788 2669 1403 
Q 2669 853 2319 450 
Q 1863 -75 997 -75 
Q 569 -75 414 31 
Q 259 138 259 259 
Q 259 350 332 419 
Q 406 488 509 488 
Q 588 488 669 463 
Q 722 447 909 348 
Q 1097 250 1169 231 
Q 1284 197 1416 197 
Q 1734 197 1970 444 
Q 2206 691 2206 1028 
Q 2206 1275 2097 1509 
Q 2016 1684 1919 1775 
Q 1784 1900 1550 2001 
Q 1316 2103 1072 2103 
L 972 2103 
L 972 2197 
Q 1219 2228 1467 2375 
Q 1716 2522 1828 2728 
Q 1941 2934 1941 3181 
Q 1941 3503 1739 3701 
Q 1538 3900 1238 3900 
Q 753 3900 428 3381 
L 325 3431 
z
" transform="scale(0.015625)"/>
       </defs>
       <use xlink:href="#TimesNewRomanPSMT-33"/>
      </g>
     </g>
    </g>
    <g id="ytick_4">
     <g id="line2d_9">
      <g>
       <use xlink:href="#mdfa41562ea" x="45" y="103.712656" style="stroke: #000000; stroke-width: 0.8"/>
      </g>
     </g>
     <g id="text_10">
      <!-- 4 -->
      <g transform="translate(33 107.184531)scale(0.1 -0.1)">
       <defs>
        <path id="TimesNewRomanPSMT-34" d="M 2978 1563 
L 2978 1119 
L 2409 1119 
L 2409 0 
L 1894 0 
L 1894 1119 
L 100 1119 
L 100 1519 
L 2066 4325 
L 2409 4325 
L 2409 1563 
L 2978 1563 
z
M 1894 1563 
L 1894 3666 
L 406 1563 
L 1894 1563 
z
" transform="scale(0.015625)"/>
       </defs>
       <use xlink:href="#TimesNewRomanPSMT-34"/>
      </g>
     </g>
    </g>
    <g id="ytick_5">
     <g id="line2d_10">
      <g>
       <use xlink:href="#mdfa41562ea" x="45" y="64.752543" style="stroke: #000000; stroke-width: 0.8"/>
      </g>
     </g>
     <g id="text_11">
      <!-- 5 -->
      <g transform="translate(33 68.224418)scale(0.1 -0.1)">
       <use xlink:href="#TimesNewRomanPSMT-35"/>
      </g>
     </g>
    </g>
    <g id="text_12">
     <!-- Loss ($\log_{10}$) -->
     <g transform="translate(26.8 169.69)rotate(-90)scale(0.1 -0.1)">
      <defs>
       <path id="TimesNewRomanPSMT-4c" d="M 3669 1172 
L 3772 1150 
L 3409 0 
L 128 0 
L 128 116 
L 288 116 
Q 556 116 672 291 
Q 738 391 738 753 
L 738 3488 
Q 738 3884 650 3984 
Q 528 4122 288 4122 
L 128 4122 
L 128 4238 
L 2047 4238 
L 2047 4122 
Q 1709 4125 1573 4059 
Q 1438 3994 1388 3894 
Q 1338 3794 1338 3416 
L 1338 753 
Q 1338 494 1388 397 
Q 1425 331 1503 300 
Q 1581 269 1991 269 
L 2300 269 
Q 2788 269 2984 341 
Q 3181 413 3343 595 
Q 3506 778 3669 1172 
z
" transform="scale(0.015625)"/>
       <path id="TimesNewRomanPSMT-20" transform="scale(0.015625)"/>
       <path id="TimesNewRomanPSMT-28" d="M 1988 -1253 
L 1988 -1369 
Q 1516 -1131 1200 -813 
Q 750 -359 506 256 
Q 263 872 263 1534 
Q 263 2503 741 3301 
Q 1219 4100 1988 4444 
L 1988 4313 
Q 1603 4100 1356 3731 
Q 1109 3363 987 2797 
Q 866 2231 866 1616 
Q 866 947 969 400 
Q 1050 -31 1165 -292 
Q 1281 -553 1476 -793 
Q 1672 -1034 1988 -1253 
z
" transform="scale(0.015625)"/>
       <path id="STIXGeneral-Regular-6c" d="M 1645 0 
L 134 0 
L 134 96 
Q 435 122 531 221 
Q 627 320 627 589 
L 627 3590 
Q 627 3821 569 3910 
Q 512 4000 358 4000 
Q 224 4000 122 3987 
L 122 4090 
Q 730 4237 1133 4371 
L 1165 4346 
L 1165 557 
Q 1165 288 1254 201 
Q 1344 115 1645 96 
L 1645 0 
z
" transform="scale(0.015625)"/>
       <path id="STIXGeneral-Regular-6f" d="M 3008 1478 
Q 3008 806 2608 371 
Q 2208 -64 1568 -64 
Q 979 -64 582 368 
Q 186 800 186 1459 
Q 186 2125 582 2534 
Q 979 2944 1626 2944 
Q 2221 2944 2614 2537 
Q 3008 2131 3008 1478 
z
M 2432 1306 
Q 2432 2035 2112 2445 
Q 1856 2765 1504 2765 
Q 1171 2765 966 2493 
Q 762 2221 762 1747 
Q 762 928 1101 435 
Q 1318 115 1677 115 
Q 2029 115 2230 432 
Q 2432 749 2432 1306 
z
" transform="scale(0.015625)"/>
       <path id="STIXGeneral-Regular-67" d="M 3008 2483 
L 2477 2483 
Q 2598 2208 2598 1946 
Q 2598 1453 2265 1203 
Q 1933 954 1600 954 
Q 1530 954 1357 973 
L 1235 986 
Q 1107 947 979 812 
Q 851 678 851 582 
Q 851 435 1350 410 
L 2176 371 
Q 2528 358 2739 172 
Q 2950 -13 2950 -314 
Q 2950 -685 2566 -986 
Q 2035 -1395 1286 -1395 
Q 826 -1395 502 -1212 
Q 179 -1030 179 -774 
Q 179 -595 320 -419 
Q 461 -243 806 6 
Q 602 102 534 172 
Q 467 243 467 346 
Q 467 531 762 787 
Q 909 915 1037 1043 
Q 717 1203 579 1401 
Q 442 1600 442 1901 
Q 442 2336 752 2640 
Q 1062 2944 1510 2944 
Q 1766 2944 2022 2848 
L 2163 2797 
Q 2349 2733 2515 2733 
L 3008 2733 
L 3008 2483 
z
M 973 2163 
L 973 2144 
Q 973 1683 1155 1398 
Q 1338 1114 1632 1114 
Q 1850 1114 1978 1270 
Q 2106 1427 2106 1690 
Q 2106 2112 1914 2464 
Q 1754 2765 1446 2765 
Q 1222 2765 1097 2605 
Q 973 2445 973 2163 
z
M 2771 -410 
Q 2771 -230 2595 -163 
Q 2419 -96 1978 -96 
Q 1344 -96 941 -13 
Q 749 -243 688 -348 
Q 627 -454 627 -563 
Q 627 -774 880 -902 
Q 1133 -1030 1555 -1030 
Q 2099 -1030 2435 -860 
Q 2771 -691 2771 -410 
z
" transform="scale(0.015625)"/>
       <path id="STIXGeneral-Regular-31" d="M 2522 0 
L 755 0 
L 755 96 
Q 1107 115 1235 227 
Q 1363 339 1363 608 
L 1363 3482 
Q 1363 3795 1171 3795 
Q 1082 3795 883 3718 
L 710 3654 
L 710 3744 
L 1856 4326 
L 1914 4307 
L 1914 486 
Q 1914 275 2042 185 
Q 2170 96 2522 96 
L 2522 0 
z
" transform="scale(0.015625)"/>
       <path id="STIXGeneral-Regular-30" d="M 3046 2112 
Q 3046 1683 2963 1302 
Q 2880 922 2717 602 
Q 2554 282 2266 96 
Q 1978 -90 1600 -90 
Q 1210 -90 915 108 
Q 621 307 461 640 
Q 301 973 227 1350 
Q 154 1728 154 2150 
Q 154 2746 301 3222 
Q 448 3699 790 4012 
Q 1133 4326 1626 4326 
Q 2253 4326 2649 3712 
Q 3046 3098 3046 2112 
z
M 2432 2080 
Q 2432 3091 2217 3625 
Q 2003 4160 1587 4160 
Q 1190 4160 979 3622 
Q 768 3085 768 2106 
Q 768 1120 979 598 
Q 1190 77 1600 77 
Q 2003 77 2217 598 
Q 2432 1120 2432 2080 
z
" transform="scale(0.015625)"/>
       <path id="TimesNewRomanPSMT-29" d="M 144 4313 
L 144 4444 
Q 619 4209 934 3891 
Q 1381 3434 1625 2820 
Q 1869 2206 1869 1541 
Q 1869 572 1392 -226 
Q 916 -1025 144 -1369 
L 144 -1253 
Q 528 -1038 776 -670 
Q 1025 -303 1145 264 
Q 1266 831 1266 1447 
Q 1266 2113 1163 2663 
Q 1084 3094 967 3353 
Q 850 3613 656 3853 
Q 463 4094 144 4313 
z
" transform="scale(0.015625)"/>
      </defs>
      <use xlink:href="#TimesNewRomanPSMT-4c" transform="translate(0 0.5625)"/>
      <use xlink:href="#TimesNewRomanPSMT-6f" transform="translate(61.083984 0.5625)"/>
      <use xlink:href="#TimesNewRomanPSMT-73" transform="translate(111.083984 0.5625)"/>
      <use xlink:href="#TimesNewRomanPSMT-73" transform="translate(150 0.5625)"/>
      <use xlink:href="#TimesNewRomanPSMT-20" transform="translate(188.916016 0.5625)"/>
      <use xlink:href="#TimesNewRomanPSMT-28" transform="translate(213.916016 0.5625)"/>
      <use xlink:href="#STIXGeneral-Regular-6c" transform="translate(247.216797 0.5625)"/>
      <use xlink:href="#STIXGeneral-Regular-6f" transform="translate(275.016785 0.5625)"/>
      <use xlink:href="#STIXGeneral-Regular-67" transform="translate(325.016769 0.5625)"/>
      <use xlink:href="#STIXGeneral-Regular-31" transform="translate(376.560035 -12.665625)scale(0.7)"/>
      <use xlink:href="#STIXGeneral-Regular-30" transform="translate(411.560025 -12.665625)scale(0.7)"/>
      <use xlink:href="#TimesNewRomanPSMT-29" transform="translate(450.969389 0.5625)"/>
     </g>
    </g>
   </g>
   <g id="line2d_11">
    <path d="M 57.681818 73.29962 
L 61.505482 99.714771 
L 62.780037 102.464356 
L 64.054591 103.11141 
L 66.6037 103.650867 
L 69.15281 104.348421 
L 74.251028 105.990749 
L 76.800137 107.115211 
L 79.349246 108.601818 
L 84.447465 112.018281 
L 86.996574 113.934194 
L 89.545683 116.107819 
L 94.643901 120.894019 
L 112.487666 138.040431 
L 116.311329 141.255963 
L 121.409548 145.092367 
L 126.507766 148.542947 
L 140.527867 156.520634 
L 143.076976 157.58767 
L 144.35153 157.89358 
L 146.90064 158.820665 
L 151.998858 160.525358 
L 153.273413 160.72984 
L 157.097076 161.692984 
L 158.371631 161.826567 
L 159.646185 162.201527 
L 163.469849 162.581586 
L 164.744404 162.872263 
L 166.018958 162.861508 
L 173.666286 164.319001 
L 174.940841 164.221655 
L 180.039059 164.632235 
L 181.313614 164.964482 
L 183.862723 165.258882 
L 185.137277 165.299014 
L 187.686386 165.579405 
L 195.333714 165.808873 
L 196.608269 165.972514 
L 197.882823 165.918149 
L 200.431932 166.229308 
L 201.706487 166.234072 
L 204.255596 166.606112 
L 206.804705 166.531415 
L 208.07926 166.754614 
L 209.353815 166.733122 
L 211.902924 167.153168 
L 224.64847 167.259756 
L 225.923024 167.224957 
L 229.746688 167.46755 
L 231.021243 167.416043 
L 233.570352 167.627769 
L 239.943125 168.149562 
L 247.590452 168.068462 
L 248.865007 168.233196 
L 260.335998 168.500379 
L 261.610553 168.457525 
L 262.885107 168.658309 
L 267.983326 168.631267 
L 280.728872 168.932708 
L 282.003426 169.075988 
L 283.277981 169.070916 
L 284.552535 169.274889 
L 285.82709 169.14027 
L 288.376199 169.283591 
L 289.650754 169.293581 
L 290.925308 169.186918 
L 292.199863 169.318796 
L 293.474418 169.037045 
L 296.023527 168.92665 
L 298.572636 169.061491 
L 299.84719 169.432943 
L 301.121745 169.634105 
L 303.670854 169.791788 
L 308.769073 170.027516 
L 311.318182 169.932801 
L 311.318182 169.932801 
" clip-path="url(#p73333220cc)" style="fill: none; stroke: #ff0000; stroke-width: 1.5; stroke-linecap: square"/>
   </g>
   <g id="line2d_12">
    <path d="M 57.681818 79.372812 
L 61.505482 102.721809 
L 62.780037 103.237927 
L 69.15281 103.352051 
L 72.976473 103.748961 
L 75.525582 104.255069 
L 76.800137 104.636397 
L 79.349246 105.733675 
L 84.447465 108.316025 
L 86.996574 109.85309 
L 94.643901 115.099309 
L 104.840338 121.288455 
L 108.664002 124.307488 
L 112.487666 127.376824 
L 115.036775 129.100172 
L 117.585884 130.537356 
L 121.409548 132.351698 
L 127.782321 134.939353 
L 131.605984 136.346611 
L 134.155094 137.024195 
L 136.704203 137.473514 
L 141.802421 138.038638 
L 167.293513 140.569583 
L 173.666286 141.43706 
L 180.039059 142.556259 
L 186.411832 143.95865 
L 201.706487 147.576739 
L 208.07926 148.656443 
L 218.275697 150.14225 
L 224.64847 150.855959 
L 231.021243 151.331266 
L 241.217679 151.830994 
L 256.512334 152.34581 
L 302.3963 153.734773 
L 311.318182 154.131989 
L 311.318182 154.131989 
" clip-path="url(#p73333220cc)" style="fill: none; stroke: #0000ff; stroke-width: 1.5; stroke-linecap: square"/>
   </g>
   <g id="line2d_13">
    <path d="M 57.681818 65.971004 
L 61.505482 98.151129 
L 62.780037 102.347824 
L 64.054591 103.020065 
L 72.976473 104.104131 
L 88.271128 107.633781 
L 92.094792 108.826476 
L 94.643901 109.812028 
L 98.467565 111.591159 
L 104.840338 114.719814 
L 107.389447 116.591545 
L 108.664002 117.708439 
L 112.487666 121.568205 
L 120.134993 128.201673 
L 125.233212 133.017868 
L 130.33143 138.330379 
L 132.880539 141.192555 
L 134.155094 142.367901 
L 137.978757 146.92035 
L 139.253312 148.843749 
L 141.802421 153.069765 
L 144.35153 156.960975 
L 146.90064 160.048856 
L 148.175194 161.168905 
L 150.724303 163.004321 
L 153.273413 163.833868 
L 154.547967 163.882141 
L 155.822522 164.982642 
L 157.097076 165.854415 
L 159.646185 168.72725 
L 160.92074 170.544722 
L 167.293513 175.572866 
L 168.568068 175.799974 
L 169.842622 176.838408 
L 171.117177 177.517692 
L 173.666286 179.460793 
L 174.940841 181.093859 
L 176.215395 181.889426 
L 177.48995 182.546658 
L 180.039059 183.013146 
L 182.588168 183.197671 
L 183.862723 183.356791 
L 186.411832 183.969898 
L 188.960941 185.001965 
L 190.235496 185.889018 
L 191.51005 186.498529 
L 192.784605 186.945095 
L 195.333714 188.158299 
L 199.157378 189.276096 
L 200.431932 189.839243 
L 201.706487 190.177767 
L 202.981042 190.655334 
L 204.255596 191.399462 
L 205.530151 191.966879 
L 206.804705 191.794695 
L 208.07926 192.14264 
L 209.353815 192.359792 
L 210.628369 192.336414 
L 211.902924 192.810712 
L 213.177478 193.714987 
L 215.726587 194.698616 
L 217.001142 194.822294 
L 219.550251 195.391569 
L 220.824806 195.525792 
L 223.373915 196.554304 
L 224.64847 196.691076 
L 225.923024 196.944932 
L 227.197579 196.977584 
L 228.472133 196.845464 
L 229.746688 196.937732 
L 231.021243 197.37722 
L 232.295797 197.665336 
L 233.570352 198.372299 
L 234.844906 198.538767 
L 236.119461 199.084634 
L 237.394016 198.098214 
L 238.66857 197.785321 
L 239.943125 197.792034 
L 241.217679 198.175604 
L 242.492234 198.249803 
L 243.766788 199.243089 
L 245.041343 199.541296 
L 246.315898 199.550259 
L 247.590452 199.793345 
L 248.865007 199.564544 
L 250.139561 199.899082 
L 251.414116 199.843519 
L 252.688671 200.031433 
L 253.963225 199.983604 
L 255.23778 200.13266 
L 256.512334 200.055139 
L 257.786889 199.509816 
L 259.061444 198.686773 
L 261.610553 198.492774 
L 262.885107 198.581114 
L 265.434217 200.297392 
L 266.708771 200.414942 
L 267.983326 200.688279 
L 269.25788 199.963515 
L 270.532435 200.0972 
L 271.806989 200.515455 
L 273.081544 199.84332 
L 274.356099 200.210531 
L 275.630653 201.395409 
L 278.179762 201.395546 
L 279.454317 201.850207 
L 280.728872 201.849706 
L 282.003426 201.629744 
L 284.552535 201.627866 
L 285.82709 202.279315 
L 287.101645 202.260541 
L 288.376199 201.994642 
L 289.650754 202.363518 
L 290.925308 202.291271 
L 292.199863 202.048499 
L 294.748972 202.7959 
L 296.023527 202.682988 
L 299.84719 202.899613 
L 303.670854 203.544014 
L 304.945409 203.88453 
L 306.219963 203.873506 
L 308.769073 203.67797 
L 311.318182 202.769086 
L 311.318182 202.769086 
" clip-path="url(#p73333220cc)" style="fill: none; stroke: #008000; stroke-width: 1.5; stroke-linecap: square"/>
   </g>
   <g id="patch_3">
    <path d="M 45 256.32 
L 45 34.56 
" style="fill: none; stroke: #000000; stroke-width: 0.8; stroke-linejoin: miter; stroke-linecap: square"/>
   </g>
   <g id="patch_4">
    <path d="M 324 256.32 
L 324 34.56 
" style="fill: none; stroke: #000000; stroke-width: 0.8; stroke-linejoin: miter; stroke-linecap: square"/>
   </g>
   <g id="patch_5">
    <path d="M 45 256.32 
L 324 256.32 
" style="fill: none; stroke: #000000; stroke-width: 0.8; stroke-linejoin: miter; stroke-linecap: square"/>
   </g>
   <g id="patch_6">
    <path d="M 45 34.56 
L 324 34.56 
" style="fill: none; stroke: #000000; stroke-width: 0.8; stroke-linejoin: miter; stroke-linecap: square"/>
   </g>
   <g id="legend_1">
    <g id="patch_7">
     <path d="M 252.2125 84.977188 
L 317 84.977188 
Q 319 84.977188 319 82.977188 
L 319 41.56 
Q 319 39.56 317 39.56 
L 252.2125 39.56 
Q 250.2125 39.56 250.2125 41.56 
L 250.2125 82.977188 
Q 250.2125 84.977188 252.2125 84.977188 
z
" style="fill: #ffffff; opacity: 0.8; stroke: #cccccc; stroke-linejoin: miter"/>
    </g>
    <g id="line2d_14">
     <path d="M 254.2125 47.06 
L 264.2125 47.06 
L 274.2125 47.06 
" style="fill: none; stroke: #ff0000; stroke-width: 1.5; stroke-linecap: square"/>
    </g>
    <g id="text_13">
     <!-- FPSNN -->
     <g transform="translate(282.2125 50.56)scale(0.1 -0.1)">
      <defs>
       <path id="TimesNewRomanPSMT-46" d="M 1309 4006 
L 1309 2341 
L 2081 2341 
Q 2347 2341 2470 2458 
Q 2594 2575 2634 2922 
L 2750 2922 
L 2750 1488 
L 2634 1488 
Q 2631 1734 2570 1850 
Q 2509 1966 2401 2023 
Q 2294 2081 2081 2081 
L 1309 2081 
L 1309 750 
Q 1309 428 1350 325 
Q 1381 247 1481 191 
Q 1619 116 1769 116 
L 1922 116 
L 1922 0 
L 103 0 
L 103 116 
L 253 116 
Q 516 116 634 269 
Q 709 369 709 750 
L 709 3488 
Q 709 3809 669 3913 
Q 638 3991 541 4047 
Q 406 4122 253 4122 
L 103 4122 
L 103 4238 
L 3256 4238 
L 3297 3306 
L 3188 3306 
Q 3106 3603 2998 3742 
Q 2891 3881 2733 3943 
Q 2575 4006 2244 4006 
L 1309 4006 
z
" transform="scale(0.015625)"/>
       <path id="TimesNewRomanPSMT-50" d="M 1313 1984 
L 1313 750 
Q 1313 350 1400 253 
Q 1519 116 1759 116 
L 1922 116 
L 1922 0 
L 106 0 
L 106 116 
L 266 116 
Q 534 116 650 291 
Q 713 388 713 750 
L 713 3488 
Q 713 3888 628 3984 
Q 506 4122 266 4122 
L 106 4122 
L 106 4238 
L 1659 4238 
Q 2228 4238 2556 4120 
Q 2884 4003 3109 3725 
Q 3334 3447 3334 3066 
Q 3334 2547 2992 2222 
Q 2650 1897 2025 1897 
Q 1872 1897 1694 1919 
Q 1516 1941 1313 1984 
z
M 1313 2163 
Q 1478 2131 1606 2115 
Q 1734 2100 1825 2100 
Q 2150 2100 2386 2351 
Q 2622 2603 2622 3003 
Q 2622 3278 2509 3514 
Q 2397 3750 2190 3867 
Q 1984 3984 1722 3984 
Q 1563 3984 1313 3925 
L 1313 2163 
z
" transform="scale(0.015625)"/>
       <path id="TimesNewRomanPSMT-53" d="M 2934 4334 
L 2934 2869 
L 2819 2869 
Q 2763 3291 2617 3541 
Q 2472 3791 2203 3937 
Q 1934 4084 1647 4084 
Q 1322 4084 1109 3886 
Q 897 3688 897 3434 
Q 897 3241 1031 3081 
Q 1225 2847 1953 2456 
Q 2547 2138 2764 1967 
Q 2981 1797 3098 1565 
Q 3216 1334 3216 1081 
Q 3216 600 2842 251 
Q 2469 -97 1881 -97 
Q 1697 -97 1534 -69 
Q 1438 -53 1133 45 
Q 828 144 747 144 
Q 669 144 623 97 
Q 578 50 556 -97 
L 441 -97 
L 441 1356 
L 556 1356 
Q 638 900 775 673 
Q 913 447 1195 297 
Q 1478 147 1816 147 
Q 2206 147 2432 353 
Q 2659 559 2659 841 
Q 2659 997 2573 1156 
Q 2488 1316 2306 1453 
Q 2184 1547 1640 1851 
Q 1097 2156 867 2337 
Q 638 2519 519 2737 
Q 400 2956 400 3219 
Q 400 3675 750 4004 
Q 1100 4334 1641 4334 
Q 1978 4334 2356 4169 
Q 2531 4091 2603 4091 
Q 2684 4091 2736 4139 
Q 2788 4188 2819 4334 
L 2934 4334 
z
" transform="scale(0.015625)"/>
       <path id="TimesNewRomanPSMT-4e" d="M -84 4238 
L 1066 4238 
L 3656 1059 
L 3656 3503 
Q 3656 3894 3569 3991 
Q 3453 4122 3203 4122 
L 3056 4122 
L 3056 4238 
L 4531 4238 
L 4531 4122 
L 4381 4122 
Q 4113 4122 4000 3959 
Q 3931 3859 3931 3503 
L 3931 -69 
L 3819 -69 
L 1025 3344 
L 1025 734 
Q 1025 344 1109 247 
Q 1228 116 1475 116 
L 1625 116 
L 1625 0 
L 150 0 
L 150 116 
L 297 116 
Q 569 116 681 278 
Q 750 378 750 734 
L 750 3681 
Q 566 3897 470 3965 
Q 375 4034 191 4094 
Q 100 4122 -84 4122 
L -84 4238 
z
" transform="scale(0.015625)"/>
      </defs>
      <use xlink:href="#TimesNewRomanPSMT-46"/>
      <use xlink:href="#TimesNewRomanPSMT-50" x="55.615234"/>
      <use xlink:href="#TimesNewRomanPSMT-53" x="111.230469"/>
      <use xlink:href="#TimesNewRomanPSMT-4e" x="166.845703"/>
      <use xlink:href="#TimesNewRomanPSMT-4e" x="239.0625"/>
     </g>
    </g>
    <g id="line2d_15">
     <path d="M 254.2125 61.199062 
L 264.2125 61.199062 
L 274.2125 61.199062 
" style="fill: none; stroke: #0000ff; stroke-width: 1.5; stroke-linecap: square"/>
    </g>
    <g id="text_14">
     <!-- FPANN -->
     <g transform="translate(282.2125 64.699062)scale(0.1 -0.1)">
      <defs>
       <path id="TimesNewRomanPSMT-41" d="M 2928 1419 
L 1288 1419 
L 1000 750 
Q 894 503 894 381 
Q 894 284 986 211 
Q 1078 138 1384 116 
L 1384 0 
L 50 0 
L 50 116 
Q 316 163 394 238 
Q 553 388 747 847 
L 2238 4334 
L 2347 4334 
L 3822 809 
Q 4000 384 4145 257 
Q 4291 131 4550 116 
L 4550 0 
L 2878 0 
L 2878 116 
Q 3131 128 3220 200 
Q 3309 272 3309 375 
Q 3309 513 3184 809 
L 2928 1419 
z
M 2841 1650 
L 2122 3363 
L 1384 1650 
L 2841 1650 
z
" transform="scale(0.015625)"/>
      </defs>
      <use xlink:href="#TimesNewRomanPSMT-46"/>
      <use xlink:href="#TimesNewRomanPSMT-50" x="55.615234"/>
      <use xlink:href="#TimesNewRomanPSMT-41" x="102.105469"/>
      <use xlink:href="#TimesNewRomanPSMT-4e" x="174.322266"/>
      <use xlink:href="#TimesNewRomanPSMT-4e" x="246.539062"/>
     </g>
    </g>
    <g id="line2d_16">
     <path d="M 254.2125 75.338125 
L 264.2125 75.338125 
L 274.2125 75.338125 
" style="fill: none; stroke: #008000; stroke-width: 1.5; stroke-linecap: square"/>
    </g>
    <g id="text_15">
     <!-- APSNN -->
     <g transform="translate(282.2125 78.838125)scale(0.1 -0.1)">
      <use xlink:href="#TimesNewRomanPSMT-41"/>
      <use xlink:href="#TimesNewRomanPSMT-50" x="72.216797"/>
      <use xlink:href="#TimesNewRomanPSMT-53" x="127.832031"/>
      <use xlink:href="#TimesNewRomanPSMT-4e" x="183.447266"/>
      <use xlink:href="#TimesNewRomanPSMT-4e" x="255.664062"/>
     </g>
    </g>
   </g>
  </g>
 </g>
 <defs>
  <clipPath id="p73333220cc">
   <rect x="45" y="34.56" width="279" height="221.76"/>
  </clipPath>
 </defs>
</svg>
