<?xml version="1.0" encoding="utf-8" standalone="no"?>
<!DOCTYPE svg PUBLIC "-//W3C//DTD SVG 1.1//EN"
  "http://www.w3.org/Graphics/SVG/1.1/DTD/svg11.dtd">
<svg xmlns:xlink="http://www.w3.org/1999/xlink" width="360pt" height="288pt" viewBox="0 0 360 288" xmlns="http://www.w3.org/2000/svg" version="1.1">
 <metadata>
  <rdf:RDF xmlns:dc="http://purl.org/dc/elements/1.1/" xmlns:cc="http://creativecommons.org/ns#" xmlns:rdf="http://www.w3.org/1999/02/22-rdf-syntax-ns#">
   <cc:Work>
    <dc:type rdf:resource="http://purl.org/dc/dcmitype/StillImage"/>
    <dc:date>2024-11-11T15:22:12.118889</dc:date>
    <dc:format>image/svg+xml</dc:format>
    <dc:creator>
     <cc:Agent>
      <dc:title>Matplotlib v3.5.2, https://matplotlib.org/</dc:title>
     </cc:Agent>
    </dc:creator>
   </cc:Work>
  </rdf:RDF>
 </metadata>
 <defs>
  <style type="text/css">*{stroke-linejoin: round; stroke-linecap: butt}</style>
 </defs>
 <g id="figure_1">
  <g id="patch_1">
   <path d="M 0 288 
L 360 288 
L 360 0 
L 0 0 
z
" style="fill: #ffffff"/>
  </g>
  <g id="axes_1">
   <g id="patch_2">
    <path d="M 45 256.32 
L 324 256.32 
L 324 34.56 
L 45 34.56 
z
" style="fill: #ffffff"/>
   </g>
   <g id="PolyCollection_1">
    <path d="M 57.681818 44.64 
L 57.681818 128.757549 
L 58.956373 133.350627 
L 60.230927 137.986805 
L 61.505482 142.730014 
L 62.780037 143.209633 
L 64.054591 143.241801 
L 65.329146 144.830493 
L 66.6037 147.251948 
L 67.878255 149.548073 
L 69.15281 151.862635 
L 70.427364 154.182327 
L 71.701919 157.401359 
L 72.976473 160.193745 
L 74.251028 162.804148 
L 75.525582 166.016955 
L 76.800137 169.662732 
L 78.074692 172.44835 
L 79.349246 174.873061 
L 80.623801 176.113402 
L 81.898355 176.67693 
L 83.17291 180.133019 
L 84.447465 182.447986 
L 85.722019 183.285958 
L 86.996574 183.935476 
L 88.271128 184.44171 
L 89.545683 184.892978 
L 90.820238 185.791885 
L 92.094792 189.296508 
L 93.369347 192.43678 
L 94.643901 194.58463 
L 95.918456 195.699059 
L 97.193011 196.609546 
L 98.467565 198.181083 
L 99.74212 199.779462 
L 101.016674 201.550946 
L 102.291229 203.771774 
L 103.565783 206.115979 
L 104.840338 208.922077 
L 106.114893 211.752353 
L 107.389447 214.480973 
L 108.664002 216.811122 
L 109.938556 218.965215 
L 111.213111 220.541142 
L 112.487666 221.591145 
L 113.76222 222.401388 
L 115.036775 223.255696 
L 116.311329 223.812536 
L 117.585884 224.221603 
L 118.860439 224.701982 
L 120.134993 225.001137 
L 121.409548 224.993946 
L 122.684102 225.76689 
L 123.958657 227.012568 
L 125.233212 227.817543 
L 126.507766 228.114015 
L 127.782321 228.005771 
L 129.056875 227.607446 
L 130.33143 227.032081 
L 131.605984 226.347632 
L 132.880539 225.789362 
L 134.155094 225.604232 
L 135.429648 225.590056 
L 136.704203 225.640514 
L 137.978757 225.22249 
L 139.253312 225.098294 
L 140.527867 224.742871 
L 141.802421 224.713918 
L 143.076976 224.650173 
L 144.35153 224.509009 
L 145.626085 224.29109 
L 146.90064 224.517414 
L 148.175194 224.799494 
L 149.449749 225.14885 
L 150.724303 225.453165 
L 151.998858 227.099939 
L 153.273413 228.448535 
L 154.547967 229.63617 
L 155.822522 230.774521 
L 157.097076 231.843415 
L 158.371631 232.834259 
L 159.646185 233.693618 
L 160.92074 234.385189 
L 162.195295 234.865134 
L 163.469849 235.232345 
L 164.744404 235.551161 
L 166.018958 235.877572 
L 167.293513 236.207278 
L 168.568068 236.562475 
L 169.842622 236.917563 
L 171.117177 237.285711 
L 172.391731 237.633341 
L 173.666286 237.985253 
L 174.940841 238.298663 
L 176.215395 238.650969 
L 177.48995 238.996044 
L 178.764504 239.402576 
L 180.039059 239.761402 
L 181.313614 240.18139 
L 182.588168 240.584006 
L 183.862723 240.990399 
L 185.137277 241.366637 
L 186.411832 241.819257 
L 187.686386 242.284671 
L 188.960941 242.764477 
L 190.235496 243.275072 
L 191.51005 243.756841 
L 192.784605 244.210408 
L 194.059159 244.651259 
L 195.333714 245.018993 
L 196.608269 245.365114 
L 197.882823 245.665345 
L 199.157378 245.924677 
L 200.431932 246.091044 
L 201.706487 246.224838 
L 202.981042 246.24 
L 204.255596 246.185044 
L 205.530151 246.039807 
L 206.804705 245.860704 
L 208.07926 245.660925 
L 209.353815 245.435834 
L 210.628369 245.237485 
L 211.902924 245.063424 
L 213.177478 244.932135 
L 214.452033 244.79111 
L 215.726587 244.749659 
L 217.001142 244.703157 
L 218.275697 244.645311 
L 219.550251 244.617404 
L 220.824806 244.624437 
L 222.09936 244.585136 
L 223.373915 244.575291 
L 224.64847 244.605073 
L 225.923024 244.592298 
L 227.197579 244.565298 
L 228.472133 244.582404 
L 229.746688 244.564342 
L 231.021243 244.571326 
L 232.295797 244.566936 
L 233.570352 244.582147 
L 234.844906 244.525238 
L 236.119461 244.51269 
L 237.394016 244.478638 
L 238.66857 244.42089 
L 239.943125 244.383611 
L 241.217679 244.394689 
L 242.492234 244.358772 
L 243.766788 244.315032 
L 245.041343 244.29112 
L 246.315898 244.224603 
L 247.590452 244.12282 
L 248.865007 244.034008 
L 250.139561 243.950987 
L 251.414116 243.857737 
L 252.688671 243.786909 
L 253.963225 243.672341 
L 255.23778 243.570419 
L 256.512334 243.43112 
L 257.786889 243.272625 
L 259.061444 243.099727 
L 260.335998 242.948256 
L 261.610553 242.771087 
L 262.885107 242.610214 
L 264.159662 242.467699 
L 265.434217 242.290047 
L 266.708771 242.137599 
L 267.983326 241.98661 
L 269.25788 241.802122 
L 270.532435 241.527036 
L 271.806989 241.330473 
L 273.081544 241.070076 
L 274.356099 240.866697 
L 275.630653 240.643795 
L 276.905208 240.529987 
L 278.179762 240.313329 
L 279.454317 240.114507 
L 280.728872 239.886161 
L 282.003426 239.685119 
L 283.277981 239.410596 
L 284.552535 239.184567 
L 285.82709 238.970238 
L 287.101645 238.726729 
L 288.376199 238.478978 
L 289.650754 238.653237 
L 290.925308 238.763465 
L 292.199863 238.903079 
L 293.474418 238.991496 
L 294.748972 239.097265 
L 296.023527 239.160547 
L 297.298081 239.216331 
L 298.572636 239.247612 
L 299.84719 239.328473 
L 301.121745 239.375922 
L 302.3963 239.471993 
L 303.670854 239.581185 
L 304.945409 239.704395 
L 306.219963 239.75502 
L 307.494518 239.738299 
L 308.769073 239.755099 
L 310.043627 239.833395 
L 311.318182 239.870496 
L 311.318182 209.230623 
L 311.318182 209.230623 
L 310.043627 209.120909 
L 308.769073 208.670972 
L 307.494518 208.473827 
L 306.219963 208.458202 
L 304.945409 208.318005 
L 303.670854 208.365799 
L 302.3963 208.623178 
L 301.121745 208.740567 
L 299.84719 208.517725 
L 298.572636 208.559985 
L 297.298081 208.347461 
L 296.023527 207.923202 
L 294.748972 207.433541 
L 293.474418 207.321567 
L 292.199863 207.016454 
L 290.925308 206.605167 
L 289.650754 207.052371 
L 288.376199 206.747287 
L 287.101645 206.616679 
L 285.82709 205.973099 
L 284.552535 205.751421 
L 283.277981 205.128715 
L 282.003426 205.692628 
L 280.728872 205.393946 
L 279.454317 205.978091 
L 278.179762 206.317228 
L 276.905208 205.926045 
L 275.630653 205.50884 
L 274.356099 206.533046 
L 273.081544 206.529436 
L 271.806989 206.136458 
L 270.532435 206.517263 
L 269.25788 206.860671 
L 267.983326 206.205382 
L 266.708771 206.172326 
L 265.434217 206.581285 
L 264.159662 206.86732 
L 262.885107 206.433542 
L 261.610553 206.33529 
L 260.335998 206.27554 
L 259.061444 206.162274 
L 257.786889 206.153425 
L 256.512334 206.39288 
L 255.23778 206.639861 
L 253.963225 206.705974 
L 252.688671 206.775914 
L 251.414116 206.415914 
L 250.139561 206.658653 
L 248.865007 206.398177 
L 247.590452 206.322071 
L 246.315898 206.604141 
L 245.041343 206.940979 
L 243.766788 207.007477 
L 242.492234 206.576727 
L 241.217679 206.743193 
L 239.943125 206.546403 
L 238.66857 206.612792 
L 237.394016 206.278509 
L 236.119461 206.777729 
L 234.844906 206.966085 
L 233.570352 206.607653 
L 232.295797 206.85418 
L 231.021243 207.070048 
L 229.746688 207.420342 
L 228.472133 207.077032 
L 227.197579 207.187586 
L 225.923024 207.304866 
L 224.64847 207.37966 
L 223.373915 206.724016 
L 222.09936 206.830752 
L 220.824806 207.205687 
L 219.550251 207.176764 
L 218.275697 207.345163 
L 217.001142 208.137936 
L 215.726587 208.388794 
L 214.452033 208.476777 
L 213.177478 208.708112 
L 211.902924 208.970631 
L 210.628369 208.396015 
L 209.353815 208.890904 
L 208.07926 209.072572 
L 206.804705 208.622783 
L 205.530151 208.81838 
L 204.255596 209.483671 
L 202.981042 209.40501 
L 201.706487 209.948553 
L 200.431932 210.519005 
L 199.157378 210.391465 
L 197.882823 210.36415 
L 196.608269 210.382627 
L 195.333714 209.371313 
L 194.059159 209.263818 
L 192.784605 209.409469 
L 191.51005 209.505068 
L 190.235496 208.933766 
L 188.960941 209.736315 
L 187.686386 209.646635 
L 186.411832 209.624489 
L 185.137277 209.702676 
L 183.862723 210.309017 
L 182.588168 210.534522 
L 181.313614 210.639699 
L 180.039059 210.007277 
L 178.764504 210.039653 
L 177.48995 209.924029 
L 176.215395 209.551264 
L 174.940841 209.422727 
L 173.666286 209.562845 
L 172.391731 209.53915 
L 171.117177 209.177837 
L 169.842622 208.634187 
L 168.568068 207.942399 
L 167.293513 207.010732 
L 166.018958 205.899805 
L 164.744404 204.719441 
L 163.469849 203.497477 
L 162.195295 202.228982 
L 160.92074 200.883257 
L 159.646185 199.502798 
L 158.371631 198.029325 
L 157.097076 196.582773 
L 155.822522 195.139842 
L 154.547967 193.822684 
L 153.273413 192.590886 
L 151.998858 191.545667 
L 150.724303 190.656685 
L 149.449749 189.878098 
L 148.175194 189.282184 
L 146.90064 188.797199 
L 145.626085 188.331291 
L 144.35153 187.705074 
L 143.076976 186.800851 
L 141.802421 185.446987 
L 140.527867 183.633657 
L 139.253312 181.559684 
L 137.978757 179.453414 
L 136.704203 177.609909 
L 135.429648 176.242619 
L 134.155094 175.340754 
L 132.880539 174.76817 
L 131.605984 174.688375 
L 130.33143 174.809977 
L 129.056875 174.147043 
L 127.782321 173.131122 
L 126.507766 171.882692 
L 125.233212 170.161863 
L 123.958657 168.694467 
L 122.684102 167.202863 
L 121.409548 166.537542 
L 120.134993 165.481531 
L 118.860439 165.207166 
L 117.585884 163.981109 
L 116.311329 163.664897 
L 115.036775 162.703568 
L 113.76222 161.997989 
L 112.487666 160.104637 
L 111.213111 158.643989 
L 109.938556 156.90423 
L 108.664002 155.338109 
L 107.389447 154.077377 
L 106.114893 153.522244 
L 104.840338 153.189204 
L 103.565783 153.097462 
L 102.291229 153.038541 
L 101.016674 153.090291 
L 99.74212 153.076895 
L 98.467565 153.071321 
L 97.193011 152.97669 
L 95.918456 152.823699 
L 94.643901 150.60583 
L 93.369347 148.121833 
L 92.094792 145.904428 
L 90.820238 144.340003 
L 89.545683 143.426073 
L 88.271128 143.022037 
L 86.996574 142.920825 
L 85.722019 142.859191 
L 84.447465 142.826687 
L 83.17291 142.812738 
L 81.898355 142.80462 
L 80.623801 142.797823 
L 79.349246 142.776318 
L 78.074692 142.769551 
L 76.800137 142.790839 
L 75.525582 142.818716 
L 74.251028 142.86511 
L 72.976473 142.796324 
L 71.701919 142.661582 
L 70.427364 142.58964 
L 69.15281 142.485035 
L 67.878255 142.220958 
L 66.6037 141.819664 
L 65.329146 140.567969 
L 64.054591 138.73197 
L 62.780037 130.761256 
L 61.505482 113.835286 
L 60.230927 89.992718 
L 58.956373 67.048909 
L 57.681818 44.64 
z
" clip-path="url(#pe7f00104e3)" style="fill: #ff0000; fill-opacity: 0.3"/>
   </g>
   <g id="PolyCollection_2">
    <path d="M 57.681818 68.396874 
L 57.681818 128.90103 
L 58.956373 133.493201 
L 60.230927 138.09281 
L 61.505482 142.841089 
L 62.780037 142.850767 
L 64.054591 142.875113 
L 65.329146 142.957364 
L 66.6037 143.157981 
L 67.878255 143.718589 
L 69.15281 145.142749 
L 70.427364 147.380278 
L 71.701919 149.650863 
L 72.976473 151.884239 
L 74.251028 153.964141 
L 75.525582 155.672106 
L 76.800137 157.611496 
L 78.074692 160.569114 
L 79.349246 163.613947 
L 80.623801 166.008511 
L 81.898355 167.685037 
L 83.17291 167.883544 
L 84.447465 166.901488 
L 85.722019 165.527333 
L 86.996574 166.98225 
L 88.271128 167.731914 
L 89.545683 166.721685 
L 90.820238 167.079723 
L 92.094792 166.420922 
L 93.369347 165.155969 
L 94.643901 162.794076 
L 95.918456 160.47618 
L 97.193011 162.482925 
L 98.467565 164.601635 
L 99.74212 166.230268 
L 101.016674 167.089163 
L 102.291229 166.42548 
L 103.565783 166.367002 
L 104.840338 167.213497 
L 106.114893 167.297436 
L 107.389447 166.079112 
L 108.664002 165.328363 
L 109.938556 165.678045 
L 111.213111 165.770023 
L 112.487666 166.334784 
L 113.76222 166.827109 
L 115.036775 167.12296 
L 116.311329 167.311996 
L 117.585884 167.509309 
L 118.860439 167.829614 
L 120.134993 168.603347 
L 121.409548 170.405914 
L 122.684102 172.42502 
L 123.958657 174.54442 
L 125.233212 176.675756 
L 126.507766 178.774697 
L 127.782321 180.821197 
L 129.056875 182.768232 
L 130.33143 184.548594 
L 131.605984 186.108934 
L 132.880539 187.41822 
L 134.155094 188.451186 
L 135.429648 189.244432 
L 136.704203 189.850477 
L 137.978757 190.321474 
L 139.253312 190.679818 
L 140.527867 190.961483 
L 141.802421 191.180034 
L 143.076976 191.346816 
L 144.35153 191.476516 
L 145.626085 191.581999 
L 146.90064 191.671057 
L 148.175194 191.749579 
L 149.449749 191.827471 
L 150.724303 191.928514 
L 151.998858 192.047364 
L 153.273413 192.152323 
L 154.547967 192.280623 
L 155.822522 192.430595 
L 157.097076 192.601678 
L 158.371631 192.759956 
L 159.646185 192.950344 
L 160.92074 193.160727 
L 162.195295 193.400665 
L 163.469849 193.638867 
L 164.744404 193.923225 
L 166.018958 194.254075 
L 167.293513 194.595718 
L 168.568068 194.955156 
L 169.842622 195.344977 
L 171.117177 195.758996 
L 172.391731 196.208588 
L 173.666286 196.720464 
L 174.940841 197.251064 
L 176.215395 197.825196 
L 177.48995 198.458477 
L 178.764504 199.115423 
L 180.039059 199.809845 
L 181.313614 200.57476 
L 182.588168 201.389915 
L 183.862723 202.249718 
L 185.137277 203.174844 
L 186.411832 204.135513 
L 187.686386 205.122135 
L 188.960941 206.099811 
L 190.235496 207.006885 
L 191.51005 207.757516 
L 192.784605 208.270536 
L 194.059159 208.454167 
L 195.333714 208.315194 
L 196.608269 207.856399 
L 197.882823 207.81407 
L 199.157378 208.504506 
L 200.431932 209.136889 
L 201.706487 209.705182 
L 202.981042 210.213793 
L 204.255596 210.659991 
L 205.530151 211.047228 
L 206.804705 211.3787 
L 208.07926 211.663512 
L 209.353815 211.895637 
L 210.628369 212.087632 
L 211.902924 212.240811 
L 213.177478 212.368025 
L 214.452033 212.465369 
L 215.726587 212.545362 
L 217.001142 212.588806 
L 218.275697 212.644196 
L 219.550251 212.718102 
L 220.824806 212.747153 
L 222.09936 212.773275 
L 223.373915 212.790814 
L 224.64847 212.796802 
L 225.923024 212.772091 
L 227.197579 212.780703 
L 228.472133 212.805177 
L 229.746688 213.249303 
L 231.021243 213.637023 
L 232.295797 213.926965 
L 233.570352 214.134231 
L 234.844906 214.269653 
L 236.119461 214.351825 
L 237.394016 214.394391 
L 238.66857 214.384724 
L 239.943125 214.373222 
L 241.217679 214.338814 
L 242.492234 214.30266 
L 243.766788 214.260311 
L 245.041343 214.240562 
L 246.315898 214.186405 
L 247.590452 214.126231 
L 248.865007 214.065159 
L 250.139561 213.982128 
L 251.414116 213.90328 
L 252.688671 213.926265 
L 253.963225 214.032744 
L 255.23778 214.129052 
L 256.512334 214.247625 
L 257.786889 214.350721 
L 259.061444 214.446151 
L 260.335998 214.540704 
L 261.610553 214.642073 
L 262.885107 214.730164 
L 264.159662 214.825753 
L 265.434217 214.927566 
L 266.708771 215.037438 
L 267.983326 215.15755 
L 269.25788 215.269139 
L 270.532435 215.389034 
L 271.806989 215.51469 
L 273.081544 215.625569 
L 274.356099 215.719302 
L 275.630653 215.821372 
L 276.905208 215.915431 
L 278.179762 216.004006 
L 279.454317 216.103382 
L 280.728872 216.200589 
L 282.003426 216.295871 
L 283.277981 216.393926 
L 284.552535 216.498836 
L 285.82709 216.629267 
L 287.101645 216.795466 
L 288.376199 216.997692 
L 289.650754 217.242207 
L 290.925308 217.533036 
L 292.199863 217.875892 
L 293.474418 218.269087 
L 294.748972 218.710826 
L 296.023527 219.202371 
L 297.298081 219.738061 
L 298.572636 220.310655 
L 299.84719 220.916157 
L 301.121745 221.546251 
L 302.3963 222.195828 
L 303.670854 222.855645 
L 304.945409 223.511141 
L 306.219963 224.166164 
L 307.494518 224.804041 
L 308.769073 225.415699 
L 310.043627 225.992218 
L 311.318182 226.4447 
L 311.318182 200.963673 
L 311.318182 200.963673 
L 310.043627 200.945897 
L 308.769073 200.92238 
L 307.494518 200.903677 
L 306.219963 200.855517 
L 304.945409 200.805415 
L 303.670854 200.790421 
L 302.3963 200.781414 
L 301.121745 200.763007 
L 299.84719 200.781789 
L 298.572636 200.784877 
L 297.298081 200.758114 
L 296.023527 200.745606 
L 294.748972 200.761251 
L 293.474418 200.750814 
L 292.199863 200.735484 
L 290.925308 200.744363 
L 289.650754 200.741965 
L 288.376199 200.699745 
L 287.101645 200.703622 
L 285.82709 200.709609 
L 284.552535 200.716534 
L 283.277981 200.699705 
L 282.003426 200.688193 
L 280.728872 200.673702 
L 279.454317 200.703306 
L 278.179762 200.685717 
L 276.905208 200.694497 
L 275.630653 200.689328 
L 274.356099 200.659477 
L 273.081544 200.630396 
L 271.806989 200.600723 
L 270.532435 200.599993 
L 269.25788 200.61847 
L 267.983326 200.655305 
L 266.708771 200.659971 
L 265.434217 200.717876 
L 264.159662 200.730019 
L 262.885107 200.727257 
L 261.610553 200.737487 
L 260.335998 200.745566 
L 259.061444 200.745497 
L 257.786889 200.762168 
L 256.512334 200.815092 
L 255.23778 200.834585 
L 253.963225 200.849017 
L 252.688671 200.868568 
L 251.414116 200.882892 
L 250.139561 200.863419 
L 248.865007 200.922873 
L 247.590452 200.947416 
L 246.315898 200.957587 
L 245.041343 200.885338 
L 243.766788 200.518817 
L 242.492234 200.164242 
L 241.217679 199.816849 
L 239.943125 199.481066 
L 238.66857 199.162971 
L 237.394016 198.860728 
L 236.119461 198.574692 
L 234.844906 198.31104 
L 233.570352 198.062402 
L 232.295797 197.827653 
L 231.021243 197.609259 
L 229.746688 197.409993 
L 228.472133 197.220483 
L 227.197579 196.952816 
L 225.923024 196.61147 
L 224.64847 196.291007 
L 223.373915 195.993676 
L 222.09936 195.718798 
L 220.824806 195.466894 
L 219.550251 195.233487 
L 218.275697 195.013989 
L 217.001142 194.814654 
L 215.726587 194.626397 
L 214.452033 194.455817 
L 213.177478 194.294491 
L 211.902924 194.146748 
L 210.628369 194.004697 
L 209.353815 193.87405 
L 208.07926 193.746056 
L 206.804705 193.619552 
L 205.530151 193.495849 
L 204.255596 193.372097 
L 202.981042 193.216147 
L 201.706487 193.052798 
L 200.431932 192.890998 
L 199.157378 192.718278 
L 197.882823 192.552157 
L 196.608269 192.373676 
L 195.333714 192.199141 
L 194.059159 192.009079 
L 192.784605 191.820812 
L 191.51005 191.617659 
L 190.235496 191.415099 
L 188.960941 191.207497 
L 187.686386 190.996118 
L 186.411832 190.790154 
L 185.137277 190.473242 
L 183.862723 190.054202 
L 182.588168 189.708347 
L 181.313614 189.444349 
L 180.039059 189.265641 
L 178.764504 189.16228 
L 177.48995 189.121183 
L 176.215395 189.120513 
L 174.940841 188.894671 
L 173.666286 188.573419 
L 172.391731 188.281495 
L 171.117177 188.009536 
L 169.842622 187.754861 
L 168.568068 187.538332 
L 167.293513 187.22941 
L 166.018958 186.850726 
L 164.744404 186.442922 
L 163.469849 185.970908 
L 162.195295 185.385037 
L 160.92074 184.657529 
L 159.646185 183.781923 
L 158.371631 182.751472 
L 157.097076 181.591626 
L 155.822522 180.336211 
L 154.547967 179.032292 
L 153.273413 177.70896 
L 151.998858 176.398688 
L 150.724303 175.117862 
L 149.449749 173.875064 
L 148.175194 172.671903 
L 146.90064 171.484426 
L 145.626085 170.09503 
L 144.35153 168.008124 
L 143.076976 166.401933 
L 141.802421 165.269984 
L 140.527867 164.215019 
L 139.253312 162.915677 
L 137.978757 161.460326 
L 136.704203 160.282201 
L 135.429648 159.465724 
L 134.155094 159.07097 
L 132.880539 158.901437 
L 131.605984 158.175675 
L 130.33143 157.514714 
L 129.056875 156.946688 
L 127.782321 156.537314 
L 126.507766 156.352481 
L 125.233212 156.459946 
L 123.958657 156.894346 
L 122.684102 157.629163 
L 121.409548 158.569067 
L 120.134993 158.279835 
L 118.860439 157.564116 
L 117.585884 157.136464 
L 116.311329 157.224959 
L 115.036775 156.725483 
L 113.76222 156.46692 
L 112.487666 156.574642 
L 111.213111 157.029551 
L 109.938556 157.648755 
L 108.664002 158.697327 
L 107.389447 157.74167 
L 106.114893 156.846216 
L 104.840338 156.07706 
L 103.565783 155.566554 
L 102.291229 155.266817 
L 101.016674 155.213617 
L 99.74212 155.315124 
L 98.467565 155.174277 
L 97.193011 155.287641 
L 95.918456 154.676191 
L 94.643901 154.307924 
L 93.369347 154.06476 
L 92.094792 153.893392 
L 90.820238 153.774118 
L 89.545683 153.692459 
L 88.271128 153.63839 
L 86.996574 153.638667 
L 85.722019 153.616984 
L 84.447465 153.123071 
L 83.17291 151.912284 
L 81.898355 150.146088 
L 80.623801 148.084091 
L 79.349246 145.971724 
L 78.074692 144.314503 
L 76.800137 143.374767 
L 75.525582 142.990568 
L 74.251028 142.866067 
L 72.976473 142.828729 
L 71.701919 142.816872 
L 70.427364 142.811861 
L 69.15281 142.808566 
L 67.878255 142.805449 
L 66.6037 142.800802 
L 65.329146 142.727232 
L 64.054591 142.571587 
L 62.780037 142.36586 
L 61.505482 132.940929 
L 60.230927 111.426132 
L 58.956373 89.911463 
L 57.681818 68.396874 
z
" clip-path="url(#pe7f00104e3)" style="fill: #0000ff; fill-opacity: 0.3"/>
   </g>
   <g id="PolyCollection_3">
    <path d="M 57.681818 52.166539 
L 57.681818 126.682352 
L 58.956373 131.330565 
L 60.230927 135.532224 
L 61.505482 139.728675 
L 62.780037 141.671152 
L 64.054591 142.564031 
L 65.329146 142.675857 
L 66.6037 142.739345 
L 67.878255 144.002119 
L 69.15281 145.972217 
L 70.427364 147.739301 
L 71.701919 150.087788 
L 72.976473 152.151384 
L 74.251028 154.281871 
L 75.525582 155.887205 
L 76.800137 157.181732 
L 78.074692 157.949656 
L 79.349246 158.791584 
L 80.623801 159.781649 
L 81.898355 160.642054 
L 83.17291 161.768843 
L 84.447465 163.268674 
L 85.722019 164.999269 
L 86.996574 167.363489 
L 88.271128 169.163284 
L 89.545683 169.798252 
L 90.820238 169.797236 
L 92.094792 169.474455 
L 93.369347 168.819679 
L 94.643901 168.638002 
L 95.918456 169.978381 
L 97.193011 170.604046 
L 98.467565 171.173739 
L 99.74212 171.183702 
L 101.016674 170.981033 
L 102.291229 170.302454 
L 103.565783 169.3298 
L 104.840338 168.182334 
L 106.114893 169.429462 
L 107.389447 170.373864 
L 108.664002 170.249224 
L 109.938556 169.105626 
L 111.213111 168.135092 
L 112.487666 166.574525 
L 113.76222 164.132758 
L 115.036775 161.346607 
L 116.311329 158.859581 
L 117.585884 156.724003 
L 118.860439 155.756034 
L 120.134993 155.625594 
L 121.409548 158.50398 
L 122.684102 159.122444 
L 123.958657 161.935743 
L 125.233212 162.309485 
L 126.507766 162.337165 
L 127.782321 162.207228 
L 129.056875 161.695125 
L 130.33143 161.455857 
L 131.605984 161.151326 
L 132.880539 161.212822 
L 134.155094 161.545231 
L 135.429648 162.53144 
L 136.704203 163.716312 
L 137.978757 165.251143 
L 139.253312 167.40501 
L 140.527867 169.440382 
L 141.802421 170.810355 
L 143.076976 170.094695 
L 144.35153 168.598385 
L 145.626085 166.858054 
L 146.90064 165.083749 
L 148.175194 163.59765 
L 149.449749 163.436264 
L 150.724303 162.330793 
L 151.998858 160.274014 
L 153.273413 158.070754 
L 154.547967 155.801777 
L 155.822522 153.039113 
L 157.097076 151.236359 
L 158.371631 150.251018 
L 159.646185 149.397342 
L 160.92074 148.550639 
L 162.195295 148.009435 
L 163.469849 147.396682 
L 164.744404 146.627329 
L 166.018958 145.463734 
L 167.293513 144.561287 
L 168.568068 143.574437 
L 169.842622 142.253521 
L 171.117177 141.869875 
L 172.391731 141.468246 
L 173.666286 140.373616 
L 174.940841 139.088607 
L 176.215395 138.18027 
L 177.48995 136.398735 
L 178.764504 135.151912 
L 180.039059 134.764439 
L 181.313614 134.839331 
L 182.588168 135.71978 
L 183.862723 136.190847 
L 185.137277 137.145331 
L 186.411832 138.513843 
L 187.686386 139.634556 
L 188.960941 140.866483 
L 190.235496 140.436108 
L 191.51005 139.924034 
L 192.784605 139.094555 
L 194.059159 137.909259 
L 195.333714 136.535034 
L 196.608269 135.351287 
L 197.882823 134.504357 
L 199.157378 134.473067 
L 200.431932 134.57775 
L 201.706487 134.921918 
L 202.981042 135.471596 
L 204.255596 134.985081 
L 205.530151 134.890755 
L 206.804705 135.13455 
L 208.07926 135.553364 
L 209.353815 135.972532 
L 210.628369 134.770752 
L 211.902924 134.646527 
L 213.177478 134.529473 
L 214.452033 134.425381 
L 215.726587 134.304786 
L 217.001142 134.211653 
L 218.275697 134.170666 
L 219.550251 134.16673 
L 220.824806 134.181616 
L 222.09936 134.166562 
L 223.373915 134.145639 
L 224.64847 134.116854 
L 225.923024 134.119232 
L 227.197579 134.105145 
L 228.472133 134.093643 
L 229.746688 134.074515 
L 231.021243 134.047742 
L 232.295797 133.935118 
L 233.570352 133.866292 
L 234.844906 133.923872 
L 236.119461 133.803208 
L 237.394016 133.200201 
L 238.66857 133.241554 
L 239.943125 133.261569 
L 241.217679 133.112692 
L 242.492234 133.174859 
L 243.766788 133.757367 
L 245.041343 133.716862 
L 246.315898 133.640076 
L 247.590452 133.605589 
L 248.865007 133.562116 
L 250.139561 133.479697 
L 251.414116 133.421919 
L 252.688671 133.218875 
L 253.963225 134.314818 
L 255.23778 135.526877 
L 256.512334 136.063978 
L 257.786889 136.63887 
L 259.061444 136.743504 
L 260.335998 136.559153 
L 261.610553 136.444615 
L 262.885107 136.326072 
L 264.159662 136.137657 
L 265.434217 135.853762 
L 266.708771 135.594598 
L 267.983326 134.969031 
L 269.25788 135.054035 
L 270.532435 134.824712 
L 271.806989 135.457184 
L 273.081544 136.092467 
L 274.356099 136.519843 
L 275.630653 135.657574 
L 276.905208 135.031001 
L 278.179762 133.84749 
L 279.454317 133.694401 
L 280.728872 133.692467 
L 282.003426 133.703525 
L 283.277981 133.717395 
L 284.552535 133.716853 
L 285.82709 133.713765 
L 287.101645 133.703782 
L 288.376199 133.700162 
L 289.650754 133.677789 
L 290.925308 133.670765 
L 292.199863 133.692151 
L 293.474418 133.721538 
L 294.748972 133.744059 
L 296.023527 133.783646 
L 297.298081 133.821142 
L 298.572636 133.820865 
L 299.84719 133.829438 
L 301.121745 133.834597 
L 302.3963 133.837438 
L 303.670854 133.83731 
L 304.945409 134.025083 
L 306.219963 134.57561 
L 307.494518 134.080917 
L 308.769073 133.862031 
L 310.043627 133.872813 
L 311.318182 133.876749 
L 311.318182 129.767847 
L 311.318182 129.767847 
L 310.043627 128.39309 
L 308.769073 128.734318 
L 307.494518 129.49358 
L 306.219963 129.508318 
L 304.945409 128.660491 
L 303.670854 127.412179 
L 302.3963 126.514219 
L 301.121745 125.631698 
L 299.84719 124.455882 
L 298.572636 124.135073 
L 297.298081 125.133228 
L 296.023527 126.356671 
L 294.748972 127.546348 
L 293.474418 128.719817 
L 292.199863 129.954722 
L 290.925308 129.951467 
L 289.650754 129.910381 
L 288.376199 129.916014 
L 287.101645 130.021772 
L 285.82709 130.024554 
L 284.552535 130.039095 
L 283.277981 130.043051 
L 282.003426 130.054701 
L 280.728872 129.923373 
L 279.454317 129.961519 
L 278.179762 129.07596 
L 276.905208 127.34797 
L 275.630653 125.85314 
L 274.356099 124.863272 
L 273.081544 124.927718 
L 271.806989 124.983808 
L 270.532435 125.040914 
L 269.25788 125.097764 
L 267.983326 125.18557 
L 266.708771 125.28026 
L 265.434217 125.378078 
L 264.159662 125.506358 
L 262.885107 125.647728 
L 261.610553 125.785863 
L 260.335998 125.934898 
L 259.061444 126.069383 
L 257.786889 126.185825 
L 256.512334 126.305109 
L 255.23778 126.433852 
L 253.963225 126.516054 
L 252.688671 126.625493 
L 251.414116 126.721042 
L 250.139561 126.79407 
L 248.865007 126.865421 
L 247.590452 126.940244 
L 246.315898 127.010352 
L 245.041343 127.10013 
L 243.766788 127.217302 
L 242.492234 127.349459 
L 241.217679 127.473349 
L 239.943125 127.600041 
L 238.66857 127.777664 
L 237.394016 127.976486 
L 236.119461 128.174321 
L 234.844906 128.441367 
L 233.570352 128.603157 
L 232.295797 128.762471 
L 231.021243 128.764158 
L 229.746688 128.801328 
L 228.472133 128.831918 
L 227.197579 128.849902 
L 225.923024 128.75019 
L 224.64847 128.782418 
L 223.373915 128.805639 
L 222.09936 128.824678 
L 220.824806 128.948183 
L 219.550251 128.962003 
L 218.275697 128.969195 
L 217.001142 128.968682 
L 215.726587 128.947424 
L 214.452033 128.786502 
L 213.177478 128.70714 
L 211.902924 128.702504 
L 210.628369 128.604252 
L 209.353815 128.62479 
L 208.07926 128.674271 
L 206.804705 128.744182 
L 205.530151 128.732088 
L 204.255596 128.856452 
L 202.981042 128.874277 
L 201.706487 128.848215 
L 200.431932 128.821107 
L 199.157378 128.777732 
L 197.882823 128.670878 
L 196.608269 128.54973 
L 195.333714 128.417998 
L 194.059159 128.25752 
L 192.784605 128.084898 
L 191.51005 127.937501 
L 190.235496 127.849695 
L 188.960941 127.854529 
L 187.686386 127.925821 
L 186.411832 128.059931 
L 185.137277 128.198578 
L 183.862723 128.321018 
L 182.588168 128.400537 
L 181.313614 128.210337 
L 180.039059 127.905302 
L 178.764504 127.614769 
L 177.48995 127.339703 
L 176.215395 127.055276 
L 174.940841 127.026382 
L 173.666286 127.075321 
L 172.391731 127.034846 
L 171.117177 127.299465 
L 169.842622 126.799525 
L 168.568068 126.224485 
L 167.293513 126.018777 
L 166.018958 127.441329 
L 164.744404 128.566046 
L 163.469849 128.897824 
L 162.195295 127.874515 
L 160.92074 128.177143 
L 159.646185 125.880238 
L 158.371631 126.596076 
L 157.097076 127.571049 
L 155.822522 129.338705 
L 154.547967 129.529457 
L 153.273413 128.21817 
L 151.998858 126.477622 
L 150.724303 125.67531 
L 149.449749 126.36334 
L 148.175194 129.021142 
L 146.90064 129.230006 
L 145.626085 128.51115 
L 144.35153 129.148485 
L 143.076976 128.887772 
L 141.802421 128.49068 
L 140.527867 128.253159 
L 139.253312 128.189947 
L 137.978757 128.117895 
L 136.704203 127.898081 
L 135.429648 127.858169 
L 134.155094 127.789265 
L 132.880539 127.761229 
L 131.605984 127.772554 
L 130.33143 127.964826 
L 129.056875 128.225035 
L 127.782321 128.535476 
L 126.507766 128.830162 
L 125.233212 129.123734 
L 123.958657 125.657238 
L 122.684102 125.598198 
L 121.409548 127.359472 
L 120.134993 127.365055 
L 118.860439 127.39164 
L 117.585884 128.306478 
L 116.311329 129.265914 
L 115.036775 130.179469 
L 113.76222 133.505877 
L 112.487666 137.236628 
L 111.213111 134.126038 
L 109.938556 133.880034 
L 108.664002 135.393586 
L 107.389447 136.605162 
L 106.114893 137.811964 
L 104.840338 139.285239 
L 103.565783 138.480491 
L 102.291229 137.718989 
L 101.016674 138.086171 
L 99.74212 138.379507 
L 98.467565 138.526894 
L 97.193011 138.579552 
L 95.918456 139.019979 
L 94.643901 139.391087 
L 93.369347 139.777051 
L 92.094792 139.948903 
L 90.820238 140.320544 
L 89.545683 140.510793 
L 88.271128 140.719273 
L 86.996574 140.934598 
L 85.722019 141.162462 
L 84.447465 141.403504 
L 83.17291 141.650012 
L 81.898355 141.891006 
L 80.623801 141.988488 
L 79.349246 141.866877 
L 78.074692 141.49199 
L 76.800137 141.153278 
L 75.525582 140.375677 
L 74.251028 137.637774 
L 72.976473 135.593355 
L 71.701919 135.953336 
L 70.427364 137.129202 
L 69.15281 138.44995 
L 67.878255 138.07173 
L 66.6037 136.818584 
L 65.329146 134.680086 
L 64.054591 133.482005 
L 62.780037 130.188791 
L 61.505482 115.766814 
L 60.230927 93.299151 
L 58.956373 73.207251 
L 57.681818 52.166539 
z
" clip-path="url(#pe7f00104e3)" style="fill: #008000; fill-opacity: 0.3"/>
   </g>
   <g id="PolyCollection_4">
    <path d="M 57.681818 63.537972 
L 57.681818 139.712309 
L 58.956373 140.989337 
L 60.230927 142.28061 
L 61.505482 145.600813 
L 62.780037 146.999058 
L 64.054591 148.749057 
L 65.329146 150.704013 
L 66.6037 153.051335 
L 67.878255 156.159301 
L 69.15281 158.680745 
L 70.427364 160.549967 
L 71.701919 162.440349 
L 72.976473 164.74702 
L 74.251028 167.249276 
L 75.525582 169.46968 
L 76.800137 171.809683 
L 78.074692 173.768684 
L 79.349246 175.245146 
L 80.623801 176.490015 
L 81.898355 177.922628 
L 83.17291 178.989036 
L 84.447465 180.046871 
L 85.722019 181.069441 
L 86.996574 181.477226 
L 88.271128 182.304219 
L 89.545683 182.920286 
L 90.820238 183.561507 
L 92.094792 184.354941 
L 93.369347 185.383241 
L 94.643901 186.320176 
L 95.918456 187.412932 
L 97.193011 188.601464 
L 98.467565 189.71031 
L 99.74212 191.173089 
L 101.016674 192.447819 
L 102.291229 193.984267 
L 103.565783 195.788077 
L 104.840338 197.733613 
L 106.114893 199.725986 
L 107.389447 201.61474 
L 108.664002 203.248849 
L 109.938556 204.542617 
L 111.213111 205.66261 
L 112.487666 206.746725 
L 113.76222 207.780934 
L 115.036775 208.790749 
L 116.311329 209.714129 
L 117.585884 210.502206 
L 118.860439 210.986629 
L 120.134993 211.345397 
L 121.409548 211.577926 
L 122.684102 211.739519 
L 123.958657 211.925211 
L 125.233212 212.32756 
L 126.507766 212.688103 
L 127.782321 213.143465 
L 129.056875 213.637477 
L 130.33143 214.120204 
L 131.605984 214.552186 
L 132.880539 215.130758 
L 134.155094 215.693516 
L 135.429648 216.221275 
L 136.704203 216.672356 
L 137.978757 217.07507 
L 139.253312 217.360247 
L 140.527867 217.310391 
L 141.802421 217.265477 
L 143.076976 217.472734 
L 144.35153 217.412283 
L 145.626085 217.599179 
L 146.90064 218.016266 
L 148.175194 218.155979 
L 149.449749 218.326282 
L 150.724303 218.739088 
L 151.998858 218.89853 
L 153.273413 219.064168 
L 154.547967 219.495174 
L 155.822522 219.661581 
L 157.097076 219.82489 
L 158.371631 219.611744 
L 159.646185 219.769766 
L 160.92074 219.91382 
L 162.195295 219.651953 
L 163.469849 219.790038 
L 164.744404 220.296272 
L 166.018958 220.429652 
L 167.293513 220.565755 
L 168.568068 221.110411 
L 169.842622 221.254475 
L 171.117177 220.926248 
L 172.391731 221.063821 
L 173.666286 220.72134 
L 174.940841 220.847814 
L 176.215395 220.970067 
L 177.48995 221.55657 
L 178.764504 221.16885 
L 180.039059 221.745093 
L 181.313614 221.793341 
L 182.588168 221.310654 
L 183.862723 221.351918 
L 185.137277 221.872722 
L 186.411832 221.885319 
L 187.686386 221.944162 
L 188.960941 222.510915 
L 190.235496 222.558236 
L 191.51005 222.620462 
L 192.784605 222.689307 
L 194.059159 222.752076 
L 195.333714 222.258311 
L 196.608269 222.310929 
L 197.882823 222.36043 
L 199.157378 222.40488 
L 200.431932 222.431613 
L 201.706487 222.318545 
L 202.981042 222.231844 
L 204.255596 222.129499 
L 205.530151 222.142194 
L 206.804705 222.162545 
L 208.07926 222.858654 
L 209.353815 222.981962 
L 210.628369 223.104363 
L 211.902924 223.062418 
L 213.177478 223.033386 
L 214.452033 223.061175 
L 215.726587 223.068317 
L 217.001142 223.069461 
L 218.275697 223.256692 
L 219.550251 223.741678 
L 220.824806 224.214944 
L 222.09936 224.6795 
L 223.373915 225.138196 
L 224.64847 225.592325 
L 225.923024 226.042331 
L 227.197579 226.488805 
L 228.472133 226.932073 
L 229.746688 227.371217 
L 231.021243 227.806968 
L 232.295797 228.239878 
L 233.570352 228.670421 
L 234.844906 229.099287 
L 236.119461 229.527215 
L 237.394016 229.95469 
L 238.66857 230.381701 
L 239.943125 230.808583 
L 241.217679 231.235417 
L 242.492234 231.662053 
L 243.766788 232.087545 
L 245.041343 232.51134 
L 246.315898 232.932501 
L 247.590452 233.349697 
L 248.865007 233.761812 
L 250.139561 234.167841 
L 251.414116 234.566738 
L 252.688671 234.956648 
L 253.963225 235.337049 
L 255.23778 235.70649 
L 256.512334 236.06358 
L 257.786889 236.407235 
L 259.061444 236.736931 
L 260.335998 237.051426 
L 261.610553 237.350946 
L 262.885107 237.635433 
L 264.159662 237.905152 
L 265.434217 238.16041 
L 266.708771 238.402054 
L 267.983326 238.630559 
L 269.25788 238.847305 
L 270.532435 239.053821 
L 271.806989 239.251736 
L 273.081544 239.442557 
L 274.356099 239.628486 
L 275.630653 239.811988 
L 276.905208 239.99478 
L 278.179762 240.178657 
L 279.454317 240.364557 
L 280.728872 240.551403 
L 282.003426 240.736306 
L 283.277981 240.915566 
L 284.552535 241.084893 
L 285.82709 241.240794 
L 287.101645 241.380882 
L 288.376199 241.506182 
L 289.650754 241.618245 
L 290.925308 241.719535 
L 292.199863 241.812835 
L 293.474418 241.900975 
L 294.748972 241.984746 
L 296.023527 242.065173 
L 297.298081 242.143596 
L 298.572636 242.220057 
L 299.84719 242.294762 
L 301.121745 242.368007 
L 302.3963 242.440246 
L 303.670854 242.511094 
L 304.945409 242.580906 
L 306.219963 242.649722 
L 307.494518 242.717591 
L 308.769073 242.784552 
L 310.043627 242.850586 
L 311.318182 242.903066 
L 311.318182 177.607936 
L 311.318182 177.607936 
L 310.043627 177.601642 
L 308.769073 177.416522 
L 307.494518 177.588088 
L 306.219963 177.581272 
L 304.945409 177.751615 
L 303.670854 177.568112 
L 302.3963 177.74102 
L 301.121745 177.556679 
L 299.84719 177.550563 
L 298.572636 177.545799 
L 297.298081 177.539574 
L 296.023527 177.354631 
L 294.748972 177.348515 
L 293.474418 177.163238 
L 292.199863 176.978058 
L 290.925308 176.972386 
L 289.650754 176.965313 
L 288.376199 177.13391 
L 287.101645 177.305496 
L 285.82709 177.299824 
L 284.552535 177.469505 
L 283.277981 177.639897 
L 282.003426 177.633959 
L 280.728872 177.624025 
L 279.454317 177.617751 
L 278.179762 177.60839 
L 276.905208 177.597627 
L 275.630653 177.588236 
L 274.356099 177.580266 
L 273.081544 177.744512 
L 271.806989 177.736009 
L 270.532435 177.557478 
L 269.25788 177.378307 
L 267.983326 177.367337 
L 266.708771 177.357976 
L 265.434217 177.179376 
L 264.159662 177.171889 
L 262.885107 177.165003 
L 261.610553 176.989738 
L 260.335998 176.81396 
L 259.061444 176.806473 
L 257.786889 176.961841 
L 256.512334 177.114565 
L 255.23778 177.266382 
L 253.963225 177.416207 
L 252.688671 177.406332 
L 251.414116 177.235052 
L 250.139561 177.220975 
L 248.865007 177.20676 
L 247.590452 177.038223 
L 246.315898 177.02535 
L 245.041343 177.166335 
L 243.766788 177.14924 
L 242.492234 176.983208 
L 241.217679 176.97208 
L 239.943125 177.110837 
L 238.66857 177.092725 
L 237.394016 177.073598 
L 236.119461 177.058702 
L 234.844906 177.186055 
L 233.570352 177.164145 
L 232.295797 176.999484 
L 231.021243 176.976194 
L 229.746688 177.09527 
L 228.472133 177.066209 
L 227.197579 177.040729 
L 225.923024 177.019737 
L 224.64847 176.992264 
L 223.373915 176.96264 
L 222.09936 176.803582 
L 220.824806 176.639267 
L 219.550251 176.742313 
L 218.275697 176.575147 
L 217.001142 176.541272 
L 215.726587 176.506045 
L 214.452033 176.47143 
L 213.177478 176.431399 
L 211.902924 176.521907 
L 210.628369 176.476944 
L 209.353815 176.5618 
L 208.07926 176.64122 
L 206.804705 176.589598 
L 205.530151 176.407961 
L 204.255596 176.224498 
L 202.981042 176.03849 
L 201.706487 175.851239 
L 200.431932 175.786202 
L 199.157378 175.722239 
L 197.882823 175.656265 
L 196.608269 175.587686 
L 195.333714 175.63471 
L 194.059159 175.436293 
L 192.784605 175.361706 
L 191.51005 175.396716 
L 190.235496 175.427671 
L 188.960941 175.22807 
L 187.686386 175.247168 
L 186.411832 175.158583 
L 185.137277 174.956319 
L 183.862723 174.842629 
L 182.588168 174.747297 
L 181.313614 174.544282 
L 180.039059 174.518595 
L 178.764504 174.409758 
L 177.48995 174.205382 
L 176.215395 174.148266 
L 174.940841 174.082153 
L 173.666286 173.879267 
L 172.391731 173.79302 
L 171.117177 173.697116 
L 169.842622 173.526704 
L 168.568068 173.351715 
L 167.293513 173.219144 
L 166.018958 173.014601 
L 164.744404 172.808134 
L 163.469849 172.604202 
L 162.195295 172.388926 
L 160.92074 172.159139 
L 159.646185 171.923383 
L 158.371631 171.648495 
L 157.097076 171.33908 
L 155.822522 170.968101 
L 154.547967 170.523452 
L 153.273413 170.026244 
L 151.998858 169.501405 
L 150.724303 168.948916 
L 149.449749 168.388722 
L 148.175194 167.872357 
L 146.90064 167.406036 
L 145.626085 166.962807 
L 144.35153 166.538094 
L 143.076976 166.159785 
L 141.802421 165.81691 
L 140.527867 165.485793 
L 139.253312 165.165192 
L 137.978757 164.909559 
L 136.704203 164.692044 
L 135.429648 164.463756 
L 134.155094 164.293187 
L 132.880539 164.170194 
L 131.605984 164.039685 
L 130.33143 163.923923 
L 129.056875 163.834461 
L 127.782321 163.740135 
L 126.507766 163.653129 
L 125.233212 163.57214 
L 123.958657 163.495285 
L 122.684102 163.437488 
L 121.409548 163.376889 
L 120.134993 163.323985 
L 118.860439 163.277532 
L 117.585884 163.210098 
L 116.311329 163.142209 
L 115.036775 163.064545 
L 113.76222 162.60645 
L 112.487666 162.052905 
L 111.213111 161.574283 
L 109.938556 161.247654 
L 108.664002 159.854727 
L 107.389447 158.566561 
L 106.114893 157.354048 
L 104.840338 156.070687 
L 103.565783 154.770734 
L 102.291229 153.302075 
L 101.016674 151.840164 
L 99.74212 150.444701 
L 98.467565 149.25533 
L 97.193011 147.735099 
L 95.918456 146.895983 
L 94.643901 146.087022 
L 93.369347 145.294447 
L 92.094792 144.5924 
L 90.820238 144.477378 
L 89.545683 144.082901 
L 88.271128 143.823164 
L 86.996574 143.720789 
L 85.722019 143.676467 
L 84.447465 143.661739 
L 83.17291 143.647495 
L 81.898355 143.624086 
L 80.623801 143.566565 
L 79.349246 143.485951 
L 78.074692 143.450153 
L 76.800137 143.416356 
L 75.525582 143.287702 
L 74.251028 143.318598 
L 72.976473 143.283795 
L 71.701919 143.255809 
L 70.427364 143.238842 
L 69.15281 143.249239 
L 67.878255 143.109802 
L 66.6037 142.60707 
L 65.329146 141.951634 
L 64.054591 140.927368 
L 62.780037 139.468781 
L 61.505482 131.567277 
L 60.230927 108.6816 
L 58.956373 85.981338 
L 57.681818 63.537972 
z
" clip-path="url(#pe7f00104e3)" style="fill: #ffa500; fill-opacity: 0.3"/>
   </g>
   <g id="matplotlib.axis_1">
    <g id="xtick_1">
     <g id="line2d_1">
      <defs>
       <path id="m7205e86047" d="M 0 0 
L 0 3.5 
" style="stroke: #000000; stroke-width: 0.8"/>
      </defs>
      <g>
       <use xlink:href="#m7205e86047" x="57.681818" y="256.32" style="stroke: #000000; stroke-width: 0.8"/>
      </g>
     </g>
     <g id="text_1">
      <!-- 0 -->
      <g transform="translate(55.181818 270.26375)scale(0.1 -0.1)">
       <defs>
        <path id="TimesNewRomanPSMT-30" d="M 231 2094 
Q 231 2819 450 3342 
Q 669 3866 1031 4122 
Q 1313 4325 1613 4325 
Q 2100 4325 2488 3828 
Q 2972 3213 2972 2159 
Q 2972 1422 2759 906 
Q 2547 391 2217 158 
Q 1888 -75 1581 -75 
Q 975 -75 572 641 
Q 231 1244 231 2094 
z
M 844 2016 
Q 844 1141 1059 588 
Q 1238 122 1591 122 
Q 1759 122 1940 273 
Q 2122 425 2216 781 
Q 2359 1319 2359 2297 
Q 2359 3022 2209 3506 
Q 2097 3866 1919 4016 
Q 1791 4119 1609 4119 
Q 1397 4119 1231 3928 
Q 1006 3669 925 3112 
Q 844 2556 844 2016 
z
" transform="scale(0.015625)"/>
       </defs>
       <use xlink:href="#TimesNewRomanPSMT-30"/>
      </g>
     </g>
    </g>
    <g id="xtick_2">
     <g id="line2d_2">
      <g>
       <use xlink:href="#m7205e86047" x="121.409548" y="256.32" style="stroke: #000000; stroke-width: 0.8"/>
      </g>
     </g>
     <g id="text_2">
      <!-- 50 -->
      <g transform="translate(116.409548 270.26375)scale(0.1 -0.1)">
       <defs>
        <path id="TimesNewRomanPSMT-35" d="M 2778 4238 
L 2534 3706 
L 1259 3706 
L 981 3138 
Q 1809 3016 2294 2522 
Q 2709 2097 2709 1522 
Q 2709 1188 2573 903 
Q 2438 619 2231 419 
Q 2025 219 1772 97 
Q 1413 -75 1034 -75 
Q 653 -75 479 54 
Q 306 184 306 341 
Q 306 428 378 495 
Q 450 563 559 563 
Q 641 563 702 538 
Q 763 513 909 409 
Q 1144 247 1384 247 
Q 1750 247 2026 523 
Q 2303 800 2303 1197 
Q 2303 1581 2056 1914 
Q 1809 2247 1375 2428 
Q 1034 2569 447 2591 
L 1259 4238 
L 2778 4238 
z
" transform="scale(0.015625)"/>
       </defs>
       <use xlink:href="#TimesNewRomanPSMT-35"/>
       <use xlink:href="#TimesNewRomanPSMT-30" x="50"/>
      </g>
     </g>
    </g>
    <g id="xtick_3">
     <g id="line2d_3">
      <g>
       <use xlink:href="#m7205e86047" x="185.137277" y="256.32" style="stroke: #000000; stroke-width: 0.8"/>
      </g>
     </g>
     <g id="text_3">
      <!-- 100 -->
      <g transform="translate(177.637277 270.26375)scale(0.1 -0.1)">
       <defs>
        <path id="TimesNewRomanPSMT-31" d="M 750 3822 
L 1781 4325 
L 1884 4325 
L 1884 747 
Q 1884 391 1914 303 
Q 1944 216 2037 169 
Q 2131 122 2419 116 
L 2419 0 
L 825 0 
L 825 116 
Q 1125 122 1212 167 
Q 1300 213 1334 289 
Q 1369 366 1369 747 
L 1369 3034 
Q 1369 3497 1338 3628 
Q 1316 3728 1258 3775 
Q 1200 3822 1119 3822 
Q 1003 3822 797 3725 
L 750 3822 
z
" transform="scale(0.015625)"/>
       </defs>
       <use xlink:href="#TimesNewRomanPSMT-31"/>
       <use xlink:href="#TimesNewRomanPSMT-30" x="50"/>
       <use xlink:href="#TimesNewRomanPSMT-30" x="100"/>
      </g>
     </g>
    </g>
    <g id="xtick_4">
     <g id="line2d_4">
      <g>
       <use xlink:href="#m7205e86047" x="248.865007" y="256.32" style="stroke: #000000; stroke-width: 0.8"/>
      </g>
     </g>
     <g id="text_4">
      <!-- 150 -->
      <g transform="translate(241.365007 270.26375)scale(0.1 -0.1)">
       <use xlink:href="#TimesNewRomanPSMT-31"/>
       <use xlink:href="#TimesNewRomanPSMT-35" x="50"/>
       <use xlink:href="#TimesNewRomanPSMT-30" x="100"/>
      </g>
     </g>
    </g>
    <g id="xtick_5">
     <g id="line2d_5">
      <g>
       <use xlink:href="#m7205e86047" x="312.592736" y="256.32" style="stroke: #000000; stroke-width: 0.8"/>
      </g>
     </g>
     <g id="text_5">
      <!-- 200k -->
      <g transform="translate(302.592736 270.26375)scale(0.1 -0.1)">
       <defs>
        <path id="TimesNewRomanPSMT-32" d="M 2934 816 
L 2638 0 
L 138 0 
L 138 116 
Q 1241 1122 1691 1759 
Q 2141 2397 2141 2925 
Q 2141 3328 1894 3587 
Q 1647 3847 1303 3847 
Q 991 3847 742 3664 
Q 494 3481 375 3128 
L 259 3128 
Q 338 3706 661 4015 
Q 984 4325 1469 4325 
Q 1984 4325 2329 3994 
Q 2675 3663 2675 3213 
Q 2675 2891 2525 2569 
Q 2294 2063 1775 1497 
Q 997 647 803 472 
L 1909 472 
Q 2247 472 2383 497 
Q 2519 522 2628 598 
Q 2738 675 2819 816 
L 2934 816 
z
" transform="scale(0.015625)"/>
        <path id="TimesNewRomanPSMT-6b" d="M 1047 4444 
L 1047 1597 
L 1775 2259 
Q 2006 2472 2044 2528 
Q 2069 2566 2069 2603 
Q 2069 2666 2017 2711 
Q 1966 2756 1847 2763 
L 1847 2863 
L 3091 2863 
L 3091 2763 
Q 2834 2756 2664 2684 
Q 2494 2613 2291 2428 
L 1556 1750 
L 2291 822 
Q 2597 438 2703 334 
Q 2853 188 2966 144 
Q 3044 113 3238 113 
L 3238 0 
L 1847 0 
L 1847 113 
Q 1966 116 2008 148 
Q 2050 181 2050 241 
Q 2050 313 1925 472 
L 1047 1594 
L 1047 644 
Q 1047 366 1086 278 
Q 1125 191 1197 153 
Q 1269 116 1509 113 
L 1509 0 
L 53 0 
L 53 113 
Q 272 113 381 166 
Q 447 200 481 272 
Q 528 375 528 628 
L 528 3234 
Q 528 3731 506 3842 
Q 484 3953 434 3995 
Q 384 4038 303 4038 
Q 238 4038 106 3984 
L 53 4094 
L 903 4444 
L 1047 4444 
z
" transform="scale(0.015625)"/>
       </defs>
       <use xlink:href="#TimesNewRomanPSMT-32"/>
       <use xlink:href="#TimesNewRomanPSMT-30" x="50"/>
       <use xlink:href="#TimesNewRomanPSMT-30" x="100"/>
       <use xlink:href="#TimesNewRomanPSMT-6b" x="150"/>
      </g>
     </g>
    </g>
    <g id="text_6">
     <!-- Epochs -->
     <g transform="translate(169.780469 283.346563)scale(0.1 -0.1)">
      <defs>
       <path id="TimesNewRomanPSMT-45" d="M 1338 4006 
L 1338 2331 
L 2269 2331 
Q 2631 2331 2753 2441 
Q 2916 2584 2934 2947 
L 3050 2947 
L 3050 1472 
L 2934 1472 
Q 2891 1781 2847 1869 
Q 2791 1978 2662 2040 
Q 2534 2103 2269 2103 
L 1338 2103 
L 1338 706 
Q 1338 425 1363 364 
Q 1388 303 1450 267 
Q 1513 231 1688 231 
L 2406 231 
Q 2766 231 2928 281 
Q 3091 331 3241 478 
Q 3434 672 3638 1063 
L 3763 1063 
L 3397 0 
L 131 0 
L 131 116 
L 281 116 
Q 431 116 566 188 
Q 666 238 702 338 
Q 738 438 738 747 
L 738 3500 
Q 738 3903 656 3997 
Q 544 4122 281 4122 
L 131 4122 
L 131 4238 
L 3397 4238 
L 3444 3309 
L 3322 3309 
Q 3256 3644 3176 3769 
Q 3097 3894 2941 3959 
Q 2816 4006 2500 4006 
L 1338 4006 
z
" transform="scale(0.015625)"/>
       <path id="TimesNewRomanPSMT-70" d="M -6 2578 
L 875 2934 
L 994 2934 
L 994 2266 
Q 1216 2644 1439 2795 
Q 1663 2947 1909 2947 
Q 2341 2947 2628 2609 
Q 2981 2197 2981 1534 
Q 2981 794 2556 309 
Q 2206 -88 1675 -88 
Q 1444 -88 1275 -22 
Q 1150 25 994 166 
L 994 -706 
Q 994 -1000 1030 -1079 
Q 1066 -1159 1155 -1206 
Q 1244 -1253 1478 -1253 
L 1478 -1369 
L -22 -1369 
L -22 -1253 
L 56 -1253 
Q 228 -1256 350 -1188 
Q 409 -1153 442 -1076 
Q 475 -1000 475 -688 
L 475 2019 
Q 475 2297 450 2372 
Q 425 2447 370 2484 
Q 316 2522 222 2522 
Q 147 2522 31 2478 
L -6 2578 
z
M 994 2081 
L 994 1013 
Q 994 666 1022 556 
Q 1066 375 1236 237 
Q 1406 100 1666 100 
Q 1978 100 2172 344 
Q 2425 663 2425 1241 
Q 2425 1897 2138 2250 
Q 1938 2494 1663 2494 
Q 1513 2494 1366 2419 
Q 1253 2363 994 2081 
z
" transform="scale(0.015625)"/>
       <path id="TimesNewRomanPSMT-6f" d="M 1600 2947 
Q 2250 2947 2644 2453 
Q 2978 2031 2978 1484 
Q 2978 1100 2793 706 
Q 2609 313 2286 112 
Q 1963 -88 1566 -88 
Q 919 -88 538 428 
Q 216 863 216 1403 
Q 216 1797 411 2186 
Q 606 2575 925 2761 
Q 1244 2947 1600 2947 
z
M 1503 2744 
Q 1338 2744 1170 2645 
Q 1003 2547 900 2300 
Q 797 2053 797 1666 
Q 797 1041 1045 587 
Q 1294 134 1700 134 
Q 2003 134 2200 384 
Q 2397 634 2397 1244 
Q 2397 2006 2069 2444 
Q 1847 2744 1503 2744 
z
" transform="scale(0.015625)"/>
       <path id="TimesNewRomanPSMT-63" d="M 2631 1088 
Q 2516 522 2178 217 
Q 1841 -88 1431 -88 
Q 944 -88 581 321 
Q 219 731 219 1428 
Q 219 2103 620 2525 
Q 1022 2947 1584 2947 
Q 2006 2947 2278 2723 
Q 2550 2500 2550 2259 
Q 2550 2141 2473 2067 
Q 2397 1994 2259 1994 
Q 2075 1994 1981 2113 
Q 1928 2178 1911 2362 
Q 1894 2547 1784 2644 
Q 1675 2738 1481 2738 
Q 1169 2738 978 2506 
Q 725 2200 725 1697 
Q 725 1184 976 792 
Q 1228 400 1656 400 
Q 1963 400 2206 609 
Q 2378 753 2541 1131 
L 2631 1088 
z
" transform="scale(0.015625)"/>
       <path id="TimesNewRomanPSMT-68" d="M 1041 4444 
L 1041 2350 
Q 1388 2731 1591 2839 
Q 1794 2947 1997 2947 
Q 2241 2947 2416 2812 
Q 2591 2678 2675 2391 
Q 2734 2191 2734 1659 
L 2734 647 
Q 2734 375 2778 275 
Q 2809 200 2884 156 
Q 2959 113 3159 113 
L 3159 0 
L 1753 0 
L 1753 113 
L 1819 113 
Q 2019 113 2097 173 
Q 2175 234 2206 353 
Q 2216 403 2216 647 
L 2216 1659 
Q 2216 2128 2167 2275 
Q 2119 2422 2012 2495 
Q 1906 2569 1756 2569 
Q 1603 2569 1437 2487 
Q 1272 2406 1041 2159 
L 1041 647 
Q 1041 353 1073 281 
Q 1106 209 1195 161 
Q 1284 113 1503 113 
L 1503 0 
L 84 0 
L 84 113 
Q 275 113 384 172 
Q 447 203 484 290 
Q 522 378 522 647 
L 522 3238 
Q 522 3728 498 3840 
Q 475 3953 426 3993 
Q 378 4034 297 4034 
Q 231 4034 84 3984 
L 41 4094 
L 897 4444 
L 1041 4444 
z
" transform="scale(0.015625)"/>
       <path id="TimesNewRomanPSMT-73" d="M 2050 2947 
L 2050 1972 
L 1947 1972 
Q 1828 2431 1642 2597 
Q 1456 2763 1169 2763 
Q 950 2763 815 2647 
Q 681 2531 681 2391 
Q 681 2216 781 2091 
Q 878 1963 1175 1819 
L 1631 1597 
Q 2266 1288 2266 781 
Q 2266 391 1970 151 
Q 1675 -88 1309 -88 
Q 1047 -88 709 6 
Q 606 38 541 38 
Q 469 38 428 -44 
L 325 -44 
L 325 978 
L 428 978 
Q 516 541 762 319 
Q 1009 97 1316 97 
Q 1531 97 1667 223 
Q 1803 350 1803 528 
Q 1803 744 1651 891 
Q 1500 1038 1047 1263 
Q 594 1488 453 1669 
Q 313 1847 313 2119 
Q 313 2472 555 2709 
Q 797 2947 1181 2947 
Q 1350 2947 1591 2875 
Q 1750 2828 1803 2828 
Q 1853 2828 1881 2850 
Q 1909 2872 1947 2947 
L 2050 2947 
z
" transform="scale(0.015625)"/>
      </defs>
      <use xlink:href="#TimesNewRomanPSMT-45"/>
      <use xlink:href="#TimesNewRomanPSMT-70" x="61.083984"/>
      <use xlink:href="#TimesNewRomanPSMT-6f" x="111.083984"/>
      <use xlink:href="#TimesNewRomanPSMT-63" x="161.083984"/>
      <use xlink:href="#TimesNewRomanPSMT-68" x="205.46875"/>
      <use xlink:href="#TimesNewRomanPSMT-73" x="255.46875"/>
     </g>
    </g>
   </g>
   <g id="matplotlib.axis_2">
    <g id="ytick_1">
     <g id="line2d_6">
      <defs>
       <path id="mca4f15325e" d="M 0 0 
L -3.5 0 
" style="stroke: #000000; stroke-width: 0.8"/>
      </defs>
      <g>
       <use xlink:href="#mca4f15325e" x="45" y="254.195385" style="stroke: #000000; stroke-width: 0.8"/>
      </g>
     </g>
     <g id="text_7">
      <!-- 4.5 -->
      <g transform="translate(19.860937 257.66726)scale(0.1 -0.1)">
       <defs>
        <path id="TimesNewRomanPSMT-2212" d="M 3484 2000 
L 116 2000 
L 116 2256 
L 3484 2256 
L 3484 2000 
z
" transform="scale(0.015625)"/>
        <path id="TimesNewRomanPSMT-34" d="M 2978 1563 
L 2978 1119 
L 2409 1119 
L 2409 0 
L 1894 0 
L 1894 1119 
L 100 1119 
L 100 1519 
L 2066 4325 
L 2409 4325 
L 2409 1563 
L 2978 1563 
z
M 1894 1563 
L 1894 3666 
L 406 1563 
L 1894 1563 
z
" transform="scale(0.015625)"/>
        <path id="TimesNewRomanPSMT-2e" d="M 800 606 
Q 947 606 1047 504 
Q 1147 403 1147 259 
Q 1147 116 1045 14 
Q 944 -88 800 -88 
Q 656 -88 554 14 
Q 453 116 453 259 
Q 453 406 554 506 
Q 656 606 800 606 
z
" transform="scale(0.015625)"/>
       </defs>
       <use xlink:href="#TimesNewRomanPSMT-2212"/>
       <use xlink:href="#TimesNewRomanPSMT-34" x="56.396484"/>
       <use xlink:href="#TimesNewRomanPSMT-2e" x="106.396484"/>
       <use xlink:href="#TimesNewRomanPSMT-35" x="131.396484"/>
      </g>
     </g>
    </g>
    <g id="ytick_2">
     <g id="line2d_7">
      <g>
       <use xlink:href="#mca4f15325e" x="45" y="229.533765" style="stroke: #000000; stroke-width: 0.8"/>
      </g>
     </g>
     <g id="text_8">
      <!-- 4.0 -->
      <g transform="translate(19.860937 233.00564)scale(0.1 -0.1)">
       <use xlink:href="#TimesNewRomanPSMT-2212"/>
       <use xlink:href="#TimesNewRomanPSMT-34" x="56.396484"/>
       <use xlink:href="#TimesNewRomanPSMT-2e" x="106.396484"/>
       <use xlink:href="#TimesNewRomanPSMT-30" x="131.396484"/>
      </g>
     </g>
    </g>
    <g id="ytick_3">
     <g id="line2d_8">
      <g>
       <use xlink:href="#mca4f15325e" x="45" y="204.872146" style="stroke: #000000; stroke-width: 0.8"/>
      </g>
     </g>
     <g id="text_9">
      <!-- 3.5 -->
      <g transform="translate(19.860937 208.344021)scale(0.1 -0.1)">
       <defs>
        <path id="TimesNewRomanPSMT-33" d="M 325 3431 
Q 506 3859 782 4092 
Q 1059 4325 1472 4325 
Q 1981 4325 2253 3994 
Q 2459 3747 2459 3466 
Q 2459 3003 1878 2509 
Q 2269 2356 2469 2072 
Q 2669 1788 2669 1403 
Q 2669 853 2319 450 
Q 1863 -75 997 -75 
Q 569 -75 414 31 
Q 259 138 259 259 
Q 259 350 332 419 
Q 406 488 509 488 
Q 588 488 669 463 
Q 722 447 909 348 
Q 1097 250 1169 231 
Q 1284 197 1416 197 
Q 1734 197 1970 444 
Q 2206 691 2206 1028 
Q 2206 1275 2097 1509 
Q 2016 1684 1919 1775 
Q 1784 1900 1550 2001 
Q 1316 2103 1072 2103 
L 972 2103 
L 972 2197 
Q 1219 2228 1467 2375 
Q 1716 2522 1828 2728 
Q 1941 2934 1941 3181 
Q 1941 3503 1739 3701 
Q 1538 3900 1238 3900 
Q 753 3900 428 3381 
L 325 3431 
z
" transform="scale(0.015625)"/>
       </defs>
       <use xlink:href="#TimesNewRomanPSMT-2212"/>
       <use xlink:href="#TimesNewRomanPSMT-33" x="56.396484"/>
       <use xlink:href="#TimesNewRomanPSMT-2e" x="106.396484"/>
       <use xlink:href="#TimesNewRomanPSMT-35" x="131.396484"/>
      </g>
     </g>
    </g>
    <g id="ytick_4">
     <g id="line2d_9">
      <g>
       <use xlink:href="#mca4f15325e" x="45" y="180.210526" style="stroke: #000000; stroke-width: 0.8"/>
      </g>
     </g>
     <g id="text_10">
      <!-- 3.0 -->
      <g transform="translate(19.860937 183.682401)scale(0.1 -0.1)">
       <use xlink:href="#TimesNewRomanPSMT-2212"/>
       <use xlink:href="#TimesNewRomanPSMT-33" x="56.396484"/>
       <use xlink:href="#TimesNewRomanPSMT-2e" x="106.396484"/>
       <use xlink:href="#TimesNewRomanPSMT-30" x="131.396484"/>
      </g>
     </g>
    </g>
    <g id="ytick_5">
     <g id="line2d_10">
      <g>
       <use xlink:href="#mca4f15325e" x="45" y="155.548906" style="stroke: #000000; stroke-width: 0.8"/>
      </g>
     </g>
     <g id="text_11">
      <!-- 2.5 -->
      <g transform="translate(19.860937 159.020781)scale(0.1 -0.1)">
       <use xlink:href="#TimesNewRomanPSMT-2212"/>
       <use xlink:href="#TimesNewRomanPSMT-32" x="56.396484"/>
       <use xlink:href="#TimesNewRomanPSMT-2e" x="106.396484"/>
       <use xlink:href="#TimesNewRomanPSMT-35" x="131.396484"/>
      </g>
     </g>
    </g>
    <g id="ytick_6">
     <g id="line2d_11">
      <g>
       <use xlink:href="#mca4f15325e" x="45" y="130.887287" style="stroke: #000000; stroke-width: 0.8"/>
      </g>
     </g>
     <g id="text_12">
      <!-- 2.0 -->
      <g transform="translate(19.860937 134.359162)scale(0.1 -0.1)">
       <use xlink:href="#TimesNewRomanPSMT-2212"/>
       <use xlink:href="#TimesNewRomanPSMT-32" x="56.396484"/>
       <use xlink:href="#TimesNewRomanPSMT-2e" x="106.396484"/>
       <use xlink:href="#TimesNewRomanPSMT-30" x="131.396484"/>
      </g>
     </g>
    </g>
    <g id="ytick_7">
     <g id="line2d_12">
      <g>
       <use xlink:href="#mca4f15325e" x="45" y="106.225667" style="stroke: #000000; stroke-width: 0.8"/>
      </g>
     </g>
     <g id="text_13">
      <!-- 1.5 -->
      <g transform="translate(19.860937 109.697542)scale(0.1 -0.1)">
       <use xlink:href="#TimesNewRomanPSMT-2212"/>
       <use xlink:href="#TimesNewRomanPSMT-31" x="56.396484"/>
       <use xlink:href="#TimesNewRomanPSMT-2e" x="106.396484"/>
       <use xlink:href="#TimesNewRomanPSMT-35" x="131.396484"/>
      </g>
     </g>
    </g>
    <g id="ytick_8">
     <g id="line2d_13">
      <g>
       <use xlink:href="#mca4f15325e" x="45" y="81.564048" style="stroke: #000000; stroke-width: 0.8"/>
      </g>
     </g>
     <g id="text_14">
      <!-- 1.0 -->
      <g transform="translate(19.860937 85.035923)scale(0.1 -0.1)">
       <use xlink:href="#TimesNewRomanPSMT-2212"/>
       <use xlink:href="#TimesNewRomanPSMT-31" x="56.396484"/>
       <use xlink:href="#TimesNewRomanPSMT-2e" x="106.396484"/>
       <use xlink:href="#TimesNewRomanPSMT-30" x="131.396484"/>
      </g>
     </g>
    </g>
    <g id="ytick_9">
     <g id="line2d_14">
      <g>
       <use xlink:href="#mca4f15325e" x="45" y="56.902428" style="stroke: #000000; stroke-width: 0.8"/>
      </g>
     </g>
     <g id="text_15">
      <!-- 0.5 -->
      <g transform="translate(19.860937 60.374303)scale(0.1 -0.1)">
       <use xlink:href="#TimesNewRomanPSMT-2212"/>
       <use xlink:href="#TimesNewRomanPSMT-30" x="56.396484"/>
       <use xlink:href="#TimesNewRomanPSMT-2e" x="106.396484"/>
       <use xlink:href="#TimesNewRomanPSMT-35" x="131.396484"/>
      </g>
     </g>
    </g>
    <g id="text_16">
     <!-- Error ($\log_{10}$) -->
     <g transform="translate(13.660937 170.79)rotate(-90)scale(0.1 -0.1)">
      <defs>
       <path id="TimesNewRomanPSMT-72" d="M 1038 2947 
L 1038 2303 
Q 1397 2947 1775 2947 
Q 1947 2947 2059 2842 
Q 2172 2738 2172 2600 
Q 2172 2478 2090 2393 
Q 2009 2309 1897 2309 
Q 1788 2309 1652 2417 
Q 1516 2525 1450 2525 
Q 1394 2525 1328 2463 
Q 1188 2334 1038 2041 
L 1038 669 
Q 1038 431 1097 309 
Q 1138 225 1241 169 
Q 1344 113 1538 113 
L 1538 0 
L 72 0 
L 72 113 
Q 291 113 397 181 
Q 475 231 506 341 
Q 522 394 522 644 
L 522 1753 
Q 522 2253 501 2348 
Q 481 2444 426 2487 
Q 372 2531 291 2531 
Q 194 2531 72 2484 
L 41 2597 
L 906 2947 
L 1038 2947 
z
" transform="scale(0.015625)"/>
       <path id="TimesNewRomanPSMT-20" transform="scale(0.015625)"/>
       <path id="TimesNewRomanPSMT-28" d="M 1988 -1253 
L 1988 -1369 
Q 1516 -1131 1200 -813 
Q 750 -359 506 256 
Q 263 872 263 1534 
Q 263 2503 741 3301 
Q 1219 4100 1988 4444 
L 1988 4313 
Q 1603 4100 1356 3731 
Q 1109 3363 987 2797 
Q 866 2231 866 1616 
Q 866 947 969 400 
Q 1050 -31 1165 -292 
Q 1281 -553 1476 -793 
Q 1672 -1034 1988 -1253 
z
" transform="scale(0.015625)"/>
       <path id="STIXGeneral-Regular-6c" d="M 1645 0 
L 134 0 
L 134 96 
Q 435 122 531 221 
Q 627 320 627 589 
L 627 3590 
Q 627 3821 569 3910 
Q 512 4000 358 4000 
Q 224 4000 122 3987 
L 122 4090 
Q 730 4237 1133 4371 
L 1165 4346 
L 1165 557 
Q 1165 288 1254 201 
Q 1344 115 1645 96 
L 1645 0 
z
" transform="scale(0.015625)"/>
       <path id="STIXGeneral-Regular-6f" d="M 3008 1478 
Q 3008 806 2608 371 
Q 2208 -64 1568 -64 
Q 979 -64 582 368 
Q 186 800 186 1459 
Q 186 2125 582 2534 
Q 979 2944 1626 2944 
Q 2221 2944 2614 2537 
Q 3008 2131 3008 1478 
z
M 2432 1306 
Q 2432 2035 2112 2445 
Q 1856 2765 1504 2765 
Q 1171 2765 966 2493 
Q 762 2221 762 1747 
Q 762 928 1101 435 
Q 1318 115 1677 115 
Q 2029 115 2230 432 
Q 2432 749 2432 1306 
z
" transform="scale(0.015625)"/>
       <path id="STIXGeneral-Regular-67" d="M 3008 2483 
L 2477 2483 
Q 2598 2208 2598 1946 
Q 2598 1453 2265 1203 
Q 1933 954 1600 954 
Q 1530 954 1357 973 
L 1235 986 
Q 1107 947 979 812 
Q 851 678 851 582 
Q 851 435 1350 410 
L 2176 371 
Q 2528 358 2739 172 
Q 2950 -13 2950 -314 
Q 2950 -685 2566 -986 
Q 2035 -1395 1286 -1395 
Q 826 -1395 502 -1212 
Q 179 -1030 179 -774 
Q 179 -595 320 -419 
Q 461 -243 806 6 
Q 602 102 534 172 
Q 467 243 467 346 
Q 467 531 762 787 
Q 909 915 1037 1043 
Q 717 1203 579 1401 
Q 442 1600 442 1901 
Q 442 2336 752 2640 
Q 1062 2944 1510 2944 
Q 1766 2944 2022 2848 
L 2163 2797 
Q 2349 2733 2515 2733 
L 3008 2733 
L 3008 2483 
z
M 973 2163 
L 973 2144 
Q 973 1683 1155 1398 
Q 1338 1114 1632 1114 
Q 1850 1114 1978 1270 
Q 2106 1427 2106 1690 
Q 2106 2112 1914 2464 
Q 1754 2765 1446 2765 
Q 1222 2765 1097 2605 
Q 973 2445 973 2163 
z
M 2771 -410 
Q 2771 -230 2595 -163 
Q 2419 -96 1978 -96 
Q 1344 -96 941 -13 
Q 749 -243 688 -348 
Q 627 -454 627 -563 
Q 627 -774 880 -902 
Q 1133 -1030 1555 -1030 
Q 2099 -1030 2435 -860 
Q 2771 -691 2771 -410 
z
" transform="scale(0.015625)"/>
       <path id="STIXGeneral-Regular-31" d="M 2522 0 
L 755 0 
L 755 96 
Q 1107 115 1235 227 
Q 1363 339 1363 608 
L 1363 3482 
Q 1363 3795 1171 3795 
Q 1082 3795 883 3718 
L 710 3654 
L 710 3744 
L 1856 4326 
L 1914 4307 
L 1914 486 
Q 1914 275 2042 185 
Q 2170 96 2522 96 
L 2522 0 
z
" transform="scale(0.015625)"/>
       <path id="STIXGeneral-Regular-30" d="M 3046 2112 
Q 3046 1683 2963 1302 
Q 2880 922 2717 602 
Q 2554 282 2266 96 
Q 1978 -90 1600 -90 
Q 1210 -90 915 108 
Q 621 307 461 640 
Q 301 973 227 1350 
Q 154 1728 154 2150 
Q 154 2746 301 3222 
Q 448 3699 790 4012 
Q 1133 4326 1626 4326 
Q 2253 4326 2649 3712 
Q 3046 3098 3046 2112 
z
M 2432 2080 
Q 2432 3091 2217 3625 
Q 2003 4160 1587 4160 
Q 1190 4160 979 3622 
Q 768 3085 768 2106 
Q 768 1120 979 598 
Q 1190 77 1600 77 
Q 2003 77 2217 598 
Q 2432 1120 2432 2080 
z
" transform="scale(0.015625)"/>
       <path id="TimesNewRomanPSMT-29" d="M 144 4313 
L 144 4444 
Q 619 4209 934 3891 
Q 1381 3434 1625 2820 
Q 1869 2206 1869 1541 
Q 1869 572 1392 -226 
Q 916 -1025 144 -1369 
L 144 -1253 
Q 528 -1038 776 -670 
Q 1025 -303 1145 264 
Q 1266 831 1266 1447 
Q 1266 2113 1163 2663 
Q 1084 3094 967 3353 
Q 850 3613 656 3853 
Q 463 4094 144 4313 
z
" transform="scale(0.015625)"/>
      </defs>
      <use xlink:href="#TimesNewRomanPSMT-45" transform="translate(0 0.5625)"/>
      <use xlink:href="#TimesNewRomanPSMT-72" transform="translate(61.083984 0.5625)"/>
      <use xlink:href="#TimesNewRomanPSMT-72" transform="translate(94.384766 0.5625)"/>
      <use xlink:href="#TimesNewRomanPSMT-6f" transform="translate(127.685547 0.5625)"/>
      <use xlink:href="#TimesNewRomanPSMT-72" transform="translate(177.685547 0.5625)"/>
      <use xlink:href="#TimesNewRomanPSMT-20" transform="translate(210.986328 0.5625)"/>
      <use xlink:href="#TimesNewRomanPSMT-28" transform="translate(235.986328 0.5625)"/>
      <use xlink:href="#STIXGeneral-Regular-6c" transform="translate(269.287109 0.5625)"/>
      <use xlink:href="#STIXGeneral-Regular-6f" transform="translate(297.087097 0.5625)"/>
      <use xlink:href="#STIXGeneral-Regular-67" transform="translate(347.087082 0.5625)"/>
      <use xlink:href="#STIXGeneral-Regular-31" transform="translate(398.630348 -12.665625)scale(0.7)"/>
      <use xlink:href="#STIXGeneral-Regular-30" transform="translate(433.630337 -12.665625)scale(0.7)"/>
      <use xlink:href="#TimesNewRomanPSMT-29" transform="translate(473.039702 0.5625)"/>
     </g>
    </g>
   </g>
   <g id="line2d_15">
    <path d="M 57.681818 88.021 
L 61.505482 134.522773 
L 62.780037 140.343575 
L 64.054591 142.140725 
L 65.329146 142.892249 
L 66.6037 143.979969 
L 67.878255 145.259011 
L 70.427364 148.454469 
L 75.525582 155.245746 
L 79.349246 161.318662 
L 80.623801 163.162165 
L 83.17291 166.127265 
L 84.447465 167.411317 
L 89.545683 172.005291 
L 95.918456 178.531465 
L 97.193011 179.649917 
L 99.74212 182.278898 
L 103.565783 187.011614 
L 107.389447 192.511781 
L 109.938556 196.216478 
L 111.213111 197.788309 
L 112.487666 199.072215 
L 113.76222 200.187924 
L 116.311329 201.808829 
L 126.507766 206.224859 
L 129.056875 207.117372 
L 134.155094 208.406842 
L 135.429648 208.785207 
L 144.35153 212.699584 
L 146.90064 214.06167 
L 150.724303 215.514495 
L 151.998858 215.96486 
L 154.547967 216.693051 
L 157.097076 217.474255 
L 164.744404 219.186152 
L 167.293513 219.648784 
L 169.842622 220.203619 
L 173.666286 220.510144 
L 176.215395 220.498152 
L 177.48995 220.785539 
L 180.039059 221.120729 
L 181.313614 221.48453 
L 182.588168 221.686519 
L 183.862723 221.726764 
L 190.235496 222.835819 
L 191.51005 223.194293 
L 194.059159 223.538026 
L 196.608269 224.252494 
L 199.157378 224.675638 
L 200.431932 225.000782 
L 204.255596 225.356676 
L 211.902924 225.646232 
L 220.824806 225.238297 
L 224.64847 225.512807 
L 225.923024 225.433031 
L 227.197579 225.531773 
L 228.472133 225.421134 
L 231.021243 225.508279 
L 233.570352 225.372855 
L 238.66857 225.200401 
L 243.766788 225.04984 
L 247.590452 224.797982 
L 251.414116 224.766475 
L 259.061444 225.135182 
L 260.335998 225.049429 
L 262.885107 224.726561 
L 266.708771 224.474518 
L 270.532435 224.677548 
L 273.081544 224.598905 
L 280.728872 224.454666 
L 282.003426 224.538193 
L 283.277981 224.376956 
L 284.552535 224.467353 
L 285.82709 224.35408 
L 289.650754 224.403363 
L 290.925308 224.216199 
L 292.199863 224.280698 
L 294.748972 224.030089 
L 301.121745 224.131953 
L 303.670854 224.124321 
L 308.769073 224.265421 
L 311.318182 224.238771 
L 311.318182 224.238771 
" clip-path="url(#pe7f00104e3)" style="fill: none; stroke: #ff0000; stroke-width: 1.5; stroke-linecap: square"/>
   </g>
   <g id="line2d_16">
    <path d="M 57.681818 97.452196 
L 61.505482 141.398523 
L 62.780037 142.73319 
L 67.878255 142.974019 
L 69.15281 143.218008 
L 71.701919 144.223034 
L 72.976473 144.869795 
L 74.251028 145.750143 
L 75.525582 146.974894 
L 76.800137 148.545433 
L 81.898355 156.511928 
L 83.17291 157.866799 
L 84.447465 158.715512 
L 86.996574 159.715698 
L 88.271128 159.94074 
L 89.545683 159.743729 
L 92.094792 158.79809 
L 93.369347 158.190934 
L 94.643901 157.721816 
L 95.918456 157.635852 
L 97.193011 157.873812 
L 98.467565 158.416627 
L 99.74212 159.179671 
L 101.016674 160.08037 
L 102.291229 160.750825 
L 103.565783 161.236685 
L 104.840338 161.497864 
L 106.114893 161.536624 
L 108.664002 161.249241 
L 111.213111 161.215876 
L 113.76222 161.501423 
L 116.311329 162.041102 
L 118.860439 162.883161 
L 121.409548 164.032285 
L 123.958657 165.451741 
L 135.429648 172.628423 
L 139.253312 175.340963 
L 145.626085 180.220506 
L 150.724303 184.199 
L 153.273413 185.797707 
L 155.822522 187.006201 
L 158.371631 187.915073 
L 162.195295 188.948156 
L 169.842622 190.555241 
L 177.48995 192.242508 
L 181.313614 193.299513 
L 185.137277 194.649239 
L 190.235496 196.836689 
L 194.059159 198.438837 
L 197.882823 199.724685 
L 204.255596 201.437965 
L 223.373915 206.13254 
L 228.472133 206.934361 
L 233.570352 207.483387 
L 241.217679 207.990884 
L 267.983326 209.332141 
L 292.199863 210.397269 
L 303.670854 211.360409 
L 311.318182 212.02107 
L 311.318182 212.02107 
" clip-path="url(#pe7f00104e3)" style="fill: none; stroke: #0000ff; stroke-width: 1.5; stroke-linecap: square"/>
   </g>
   <g id="line2d_17">
    <path d="M 57.681818 77.05643 
L 61.505482 129.383876 
L 62.780037 137.650506 
L 64.054591 139.459245 
L 65.329146 139.787625 
L 66.6037 140.475047 
L 70.427364 142.069334 
L 72.976473 143.480863 
L 75.525582 146.038479 
L 76.800137 147.582466 
L 79.349246 150.123642 
L 81.898355 151.922674 
L 85.722019 154.932673 
L 88.271128 156.507993 
L 90.820238 157.47086 
L 93.369347 157.826656 
L 94.643901 157.830885 
L 95.918456 157.659313 
L 99.74212 156.444629 
L 102.291229 155.150631 
L 104.840338 155.128083 
L 107.389447 154.287905 
L 108.664002 153.547718 
L 109.938556 152.347716 
L 112.487666 150.769957 
L 113.76222 149.61789 
L 115.036775 148.890585 
L 116.311329 148.554921 
L 117.585884 147.378328 
L 118.860439 146.836689 
L 121.409548 146.714677 
L 122.684102 146.241657 
L 125.233212 146.044684 
L 126.507766 146.036578 
L 129.056875 146.744655 
L 130.33143 146.83812 
L 131.605984 146.560957 
L 132.880539 145.933917 
L 135.429648 142.982305 
L 136.704203 142.494389 
L 137.978757 142.231308 
L 139.253312 141.490335 
L 141.802421 142.432263 
L 143.076976 142.024403 
L 144.35153 141.310748 
L 145.626085 141.246784 
L 148.175194 139.817824 
L 151.998858 138.730092 
L 153.273413 138.082062 
L 155.822522 136.347585 
L 157.097076 135.558924 
L 158.371631 135.012474 
L 159.646185 134.619087 
L 160.92074 134.459942 
L 162.195295 134.085885 
L 164.744404 133.723938 
L 168.568068 133.501528 
L 169.842622 133.171899 
L 171.117177 133.142568 
L 173.666286 132.649579 
L 174.940841 132.325237 
L 176.215395 132.211243 
L 177.48995 131.978561 
L 178.764504 131.871256 
L 181.313614 132.113457 
L 185.137277 132.400773 
L 187.686386 132.448389 
L 188.960941 132.413971 
L 191.51005 132.110347 
L 196.608269 131.629024 
L 199.157378 131.598815 
L 202.981042 131.86533 
L 205.530151 132.097973 
L 206.804705 132.135283 
L 211.902924 131.67242 
L 214.452033 131.491633 
L 218.275697 131.272917 
L 223.373915 130.876493 
L 225.923024 130.895291 
L 229.746688 130.974897 
L 242.492234 130.96419 
L 245.041343 130.99136 
L 252.688671 130.894322 
L 255.23778 131.004284 
L 259.061444 131.208846 
L 264.159662 131.058764 
L 266.708771 131.040254 
L 270.532435 131.167263 
L 274.356099 131.5199 
L 289.650754 131.803512 
L 292.199863 131.580961 
L 294.748972 131.224886 
L 298.572636 130.987139 
L 301.121745 131.272985 
L 303.670854 131.627925 
L 304.945409 131.629899 
L 306.219963 131.769169 
L 307.494518 131.692367 
L 310.043627 131.322154 
L 311.318182 131.317321 
L 311.318182 131.317321 
" clip-path="url(#pe7f00104e3)" style="fill: none; stroke: #008000; stroke-width: 1.5; stroke-linecap: square"/>
   </g>
   <g id="line2d_18">
    <path d="M 57.681818 108.820223 
L 61.505482 140.745045 
L 62.780037 143.058072 
L 65.329146 145.171571 
L 67.878255 147.671266 
L 71.701919 151.782923 
L 74.251028 154.308357 
L 76.800137 156.276495 
L 79.349246 157.73394 
L 84.447465 160.336701 
L 88.271128 162.659847 
L 93.369347 166.38931 
L 101.016674 172.392491 
L 102.291229 173.272659 
L 111.213111 177.961263 
L 113.76222 178.808664 
L 116.311329 179.162987 
L 120.134993 180.491999 
L 125.233212 183.341685 
L 130.33143 185.374708 
L 134.155094 186.505309 
L 145.626085 189.813914 
L 148.175194 190.82754 
L 149.449749 191.110697 
L 151.998858 192.107281 
L 153.273413 192.364019 
L 154.547967 192.751249 
L 155.822522 193.283348 
L 162.195295 194.82706 
L 163.469849 194.934099 
L 166.018958 195.453485 
L 173.666286 196.850502 
L 174.940841 197.192593 
L 177.48995 198.04073 
L 180.039059 198.726038 
L 181.313614 198.785745 
L 185.137277 199.469314 
L 188.960941 200.312788 
L 190.235496 200.730123 
L 192.784605 201.267015 
L 201.706487 203.655236 
L 204.255596 204.249621 
L 205.530151 204.409721 
L 206.804705 204.790331 
L 209.353815 205.135496 
L 210.628369 205.343435 
L 211.902924 205.677461 
L 213.177478 205.743445 
L 215.726587 206.289144 
L 218.275697 206.618111 
L 219.550251 206.908189 
L 220.824806 206.972071 
L 223.373915 207.322316 
L 225.923024 207.510449 
L 228.472133 207.838596 
L 229.746688 207.691709 
L 231.021243 207.923198 
L 232.295797 207.509401 
L 233.570352 207.377949 
L 234.844906 207.465671 
L 236.119461 207.804486 
L 237.394016 207.888085 
L 238.66857 208.57922 
L 239.943125 208.844965 
L 242.492234 208.960986 
L 243.766788 208.921875 
L 247.590452 209.318351 
L 251.414116 209.90048 
L 256.512334 210.397378 
L 257.786889 210.591597 
L 260.335998 211.189717 
L 265.434217 211.873717 
L 266.708771 211.901093 
L 269.25788 212.318005 
L 271.806989 212.561795 
L 273.081544 212.953006 
L 274.356099 213.198833 
L 276.905208 213.355535 
L 282.003426 214.434863 
L 283.277981 214.864783 
L 288.376199 215.508539 
L 294.748972 216.627899 
L 296.023527 216.702302 
L 297.298081 216.491817 
L 299.84719 216.620852 
L 302.3963 216.733226 
L 303.670854 217.151571 
L 307.494518 217.498179 
L 311.318182 217.826704 
L 311.318182 217.826704 
" clip-path="url(#pe7f00104e3)" style="fill: none; stroke: #ffa500; stroke-width: 1.5; stroke-linecap: square"/>
   </g>
   <g id="patch_3">
    <path d="M 45 256.32 
L 45 34.56 
" style="fill: none; stroke: #000000; stroke-width: 0.8; stroke-linejoin: miter; stroke-linecap: square"/>
   </g>
   <g id="patch_4">
    <path d="M 324 256.32 
L 324 34.56 
" style="fill: none; stroke: #000000; stroke-width: 0.8; stroke-linejoin: miter; stroke-linecap: square"/>
   </g>
   <g id="patch_5">
    <path d="M 45 256.32 
L 324 256.32 
" style="fill: none; stroke: #000000; stroke-width: 0.8; stroke-linejoin: miter; stroke-linecap: square"/>
   </g>
   <g id="patch_6">
    <path d="M 45 34.56 
L 324 34.56 
" style="fill: none; stroke: #000000; stroke-width: 0.8; stroke-linejoin: miter; stroke-linecap: square"/>
   </g>
   <g id="legend_1">
    <g id="patch_7">
     <path d="M 250.551562 99.11625 
L 317 99.11625 
Q 319 99.11625 319 97.11625 
L 319 41.56 
Q 319 39.56 317 39.56 
L 250.551562 39.56 
Q 248.551562 39.56 248.551562 41.56 
L 248.551562 97.11625 
Q 248.551562 99.11625 250.551562 99.11625 
z
" style="fill: #ffffff; opacity: 0.8; stroke: #cccccc; stroke-linejoin: miter"/>
    </g>
    <g id="line2d_19">
     <path d="M 252.551562 47.06 
L 262.551562 47.06 
L 272.551562 47.06 
" style="fill: none; stroke: #ff0000; stroke-width: 1.5; stroke-linecap: square"/>
    </g>
    <g id="text_17">
     <!-- FPSNN -->
     <g transform="translate(280.551562 50.56)scale(0.1 -0.1)">
      <defs>
       <path id="TimesNewRomanPSMT-46" d="M 1309 4006 
L 1309 2341 
L 2081 2341 
Q 2347 2341 2470 2458 
Q 2594 2575 2634 2922 
L 2750 2922 
L 2750 1488 
L 2634 1488 
Q 2631 1734 2570 1850 
Q 2509 1966 2401 2023 
Q 2294 2081 2081 2081 
L 1309 2081 
L 1309 750 
Q 1309 428 1350 325 
Q 1381 247 1481 191 
Q 1619 116 1769 116 
L 1922 116 
L 1922 0 
L 103 0 
L 103 116 
L 253 116 
Q 516 116 634 269 
Q 709 369 709 750 
L 709 3488 
Q 709 3809 669 3913 
Q 638 3991 541 4047 
Q 406 4122 253 4122 
L 103 4122 
L 103 4238 
L 3256 4238 
L 3297 3306 
L 3188 3306 
Q 3106 3603 2998 3742 
Q 2891 3881 2733 3943 
Q 2575 4006 2244 4006 
L 1309 4006 
z
" transform="scale(0.015625)"/>
       <path id="TimesNewRomanPSMT-50" d="M 1313 1984 
L 1313 750 
Q 1313 350 1400 253 
Q 1519 116 1759 116 
L 1922 116 
L 1922 0 
L 106 0 
L 106 116 
L 266 116 
Q 534 116 650 291 
Q 713 388 713 750 
L 713 3488 
Q 713 3888 628 3984 
Q 506 4122 266 4122 
L 106 4122 
L 106 4238 
L 1659 4238 
Q 2228 4238 2556 4120 
Q 2884 4003 3109 3725 
Q 3334 3447 3334 3066 
Q 3334 2547 2992 2222 
Q 2650 1897 2025 1897 
Q 1872 1897 1694 1919 
Q 1516 1941 1313 1984 
z
M 1313 2163 
Q 1478 2131 1606 2115 
Q 1734 2100 1825 2100 
Q 2150 2100 2386 2351 
Q 2622 2603 2622 3003 
Q 2622 3278 2509 3514 
Q 2397 3750 2190 3867 
Q 1984 3984 1722 3984 
Q 1563 3984 1313 3925 
L 1313 2163 
z
" transform="scale(0.015625)"/>
       <path id="TimesNewRomanPSMT-53" d="M 2934 4334 
L 2934 2869 
L 2819 2869 
Q 2763 3291 2617 3541 
Q 2472 3791 2203 3937 
Q 1934 4084 1647 4084 
Q 1322 4084 1109 3886 
Q 897 3688 897 3434 
Q 897 3241 1031 3081 
Q 1225 2847 1953 2456 
Q 2547 2138 2764 1967 
Q 2981 1797 3098 1565 
Q 3216 1334 3216 1081 
Q 3216 600 2842 251 
Q 2469 -97 1881 -97 
Q 1697 -97 1534 -69 
Q 1438 -53 1133 45 
Q 828 144 747 144 
Q 669 144 623 97 
Q 578 50 556 -97 
L 441 -97 
L 441 1356 
L 556 1356 
Q 638 900 775 673 
Q 913 447 1195 297 
Q 1478 147 1816 147 
Q 2206 147 2432 353 
Q 2659 559 2659 841 
Q 2659 997 2573 1156 
Q 2488 1316 2306 1453 
Q 2184 1547 1640 1851 
Q 1097 2156 867 2337 
Q 638 2519 519 2737 
Q 400 2956 400 3219 
Q 400 3675 750 4004 
Q 1100 4334 1641 4334 
Q 1978 4334 2356 4169 
Q 2531 4091 2603 4091 
Q 2684 4091 2736 4139 
Q 2788 4188 2819 4334 
L 2934 4334 
z
" transform="scale(0.015625)"/>
       <path id="TimesNewRomanPSMT-4e" d="M -84 4238 
L 1066 4238 
L 3656 1059 
L 3656 3503 
Q 3656 3894 3569 3991 
Q 3453 4122 3203 4122 
L 3056 4122 
L 3056 4238 
L 4531 4238 
L 4531 4122 
L 4381 4122 
Q 4113 4122 4000 3959 
Q 3931 3859 3931 3503 
L 3931 -69 
L 3819 -69 
L 1025 3344 
L 1025 734 
Q 1025 344 1109 247 
Q 1228 116 1475 116 
L 1625 116 
L 1625 0 
L 150 0 
L 150 116 
L 297 116 
Q 569 116 681 278 
Q 750 378 750 734 
L 750 3681 
Q 566 3897 470 3965 
Q 375 4034 191 4094 
Q 100 4122 -84 4122 
L -84 4238 
z
" transform="scale(0.015625)"/>
      </defs>
      <use xlink:href="#TimesNewRomanPSMT-46"/>
      <use xlink:href="#TimesNewRomanPSMT-50" x="55.615234"/>
      <use xlink:href="#TimesNewRomanPSMT-53" x="111.230469"/>
      <use xlink:href="#TimesNewRomanPSMT-4e" x="166.845703"/>
      <use xlink:href="#TimesNewRomanPSMT-4e" x="239.0625"/>
     </g>
    </g>
    <g id="line2d_20">
     <path d="M 252.551562 61.199063 
L 262.551562 61.199063 
L 272.551562 61.199063 
" style="fill: none; stroke: #0000ff; stroke-width: 1.5; stroke-linecap: square"/>
    </g>
    <g id="text_18">
     <!-- FPANN -->
     <g transform="translate(280.551562 64.699063)scale(0.1 -0.1)">
      <defs>
       <path id="TimesNewRomanPSMT-41" d="M 2928 1419 
L 1288 1419 
L 1000 750 
Q 894 503 894 381 
Q 894 284 986 211 
Q 1078 138 1384 116 
L 1384 0 
L 50 0 
L 50 116 
Q 316 163 394 238 
Q 553 388 747 847 
L 2238 4334 
L 2347 4334 
L 3822 809 
Q 4000 384 4145 257 
Q 4291 131 4550 116 
L 4550 0 
L 2878 0 
L 2878 116 
Q 3131 128 3220 200 
Q 3309 272 3309 375 
Q 3309 513 3184 809 
L 2928 1419 
z
M 2841 1650 
L 2122 3363 
L 1384 1650 
L 2841 1650 
z
" transform="scale(0.015625)"/>
      </defs>
      <use xlink:href="#TimesNewRomanPSMT-46"/>
      <use xlink:href="#TimesNewRomanPSMT-50" x="55.615234"/>
      <use xlink:href="#TimesNewRomanPSMT-41" x="102.105469"/>
      <use xlink:href="#TimesNewRomanPSMT-4e" x="174.322266"/>
      <use xlink:href="#TimesNewRomanPSMT-4e" x="246.539062"/>
     </g>
    </g>
    <g id="line2d_21">
     <path d="M 252.551562 75.338125 
L 262.551562 75.338125 
L 272.551562 75.338125 
" style="fill: none; stroke: #008000; stroke-width: 1.5; stroke-linecap: square"/>
    </g>
    <g id="text_19">
     <!-- APSNN -->
     <g transform="translate(280.551562 78.838125)scale(0.1 -0.1)">
      <use xlink:href="#TimesNewRomanPSMT-41"/>
      <use xlink:href="#TimesNewRomanPSMT-50" x="72.216797"/>
      <use xlink:href="#TimesNewRomanPSMT-53" x="127.832031"/>
      <use xlink:href="#TimesNewRomanPSMT-4e" x="183.447266"/>
      <use xlink:href="#TimesNewRomanPSMT-4e" x="255.664062"/>
     </g>
    </g>
    <g id="line2d_22">
     <path d="M 252.551562 89.477188 
L 262.551562 89.477188 
L 272.551562 89.477188 
" style="fill: none; stroke: #ffa500; stroke-width: 1.5; stroke-linecap: square"/>
    </g>
    <g id="text_20">
     <!-- DDSNN -->
     <g transform="translate(280.551562 92.977188)scale(0.1 -0.1)">
      <defs>
       <path id="TimesNewRomanPSMT-44" d="M 109 0 
L 109 116 
L 269 116 
Q 538 116 650 288 
Q 719 391 719 750 
L 719 3488 
Q 719 3884 631 3984 
Q 509 4122 269 4122 
L 109 4122 
L 109 4238 
L 1834 4238 
Q 2784 4238 3279 4022 
Q 3775 3806 4076 3303 
Q 4378 2800 4378 2141 
Q 4378 1256 3841 663 
Q 3238 0 2003 0 
L 109 0 
z
M 1319 306 
Q 1716 219 1984 219 
Q 2709 219 3187 728 
Q 3666 1238 3666 2109 
Q 3666 2988 3187 3494 
Q 2709 4000 1959 4000 
Q 1678 4000 1319 3909 
L 1319 306 
z
" transform="scale(0.015625)"/>
      </defs>
      <use xlink:href="#TimesNewRomanPSMT-44"/>
      <use xlink:href="#TimesNewRomanPSMT-44" x="72.216797"/>
      <use xlink:href="#TimesNewRomanPSMT-53" x="144.433594"/>
      <use xlink:href="#TimesNewRomanPSMT-4e" x="200.048828"/>
      <use xlink:href="#TimesNewRomanPSMT-4e" x="272.265625"/>
     </g>
    </g>
   </g>
  </g>
 </g>
 <defs>
  <clipPath id="pe7f00104e3">
   <rect x="45" y="34.56" width="279" height="221.76"/>
  </clipPath>
 </defs>
</svg>
