<?xml version="1.0" encoding="utf-8" standalone="no"?>
<!DOCTYPE svg PUBLIC "-//W3C//DTD SVG 1.1//EN"
  "http://www.w3.org/Graphics/SVG/1.1/DTD/svg11.dtd">
<svg xmlns:xlink="http://www.w3.org/1999/xlink" width="360pt" height="288pt" viewBox="0 0 360 288" xmlns="http://www.w3.org/2000/svg" version="1.1">
 <metadata>
  <rdf:RDF xmlns:dc="http://purl.org/dc/elements/1.1/" xmlns:cc="http://creativecommons.org/ns#" xmlns:rdf="http://www.w3.org/1999/02/22-rdf-syntax-ns#">
   <cc:Work>
    <dc:type rdf:resource="http://purl.org/dc/dcmitype/StillImage"/>
    <dc:date>2024-11-11T15:22:01.925204</dc:date>
    <dc:format>image/svg+xml</dc:format>
    <dc:creator>
     <cc:Agent>
      <dc:title>Matplotlib v3.5.2, https://matplotlib.org/</dc:title>
     </cc:Agent>
    </dc:creator>
   </cc:Work>
  </rdf:RDF>
 </metadata>
 <defs>
  <style type="text/css">*{stroke-linejoin: round; stroke-linecap: butt}</style>
 </defs>
 <g id="figure_1">
  <g id="patch_1">
   <path d="M 0 288 
L 360 288 
L 360 0 
L 0 0 
z
" style="fill: #ffffff"/>
  </g>
  <g id="axes_1">
   <g id="patch_2">
    <path d="M 45 256.32 
L 324 256.32 
L 324 34.56 
L 45 34.56 
z
" style="fill: #ffffff"/>
   </g>
   <g id="PolyCollection_1">
    <path d="M 57.681818 56.912551 
L 57.681818 76.673996 
L 58.700438 85.328623 
L 59.719058 94.520038 
L 60.737678 103.870357 
L 61.756298 112.840479 
L 62.774918 120.322559 
L 63.793538 123.232802 
L 64.812158 126.857829 
L 65.830778 131.602035 
L 66.849398 140.668954 
L 67.868018 141.052302 
L 68.886637 143.449363 
L 69.905257 150.611427 
L 70.923877 157.107294 
L 71.942497 161.992586 
L 72.961117 166.344739 
L 73.979737 177.815196 
L 74.998357 181.438962 
L 76.016977 184.406455 
L 77.035597 185.925326 
L 78.054217 191.049363 
L 79.072837 195.162638 
L 80.091457 198.844111 
L 81.110077 201.903771 
L 82.128697 205.147274 
L 83.147317 207.542888 
L 84.165936 209.424515 
L 85.184556 210.372965 
L 86.203176 211.193364 
L 87.221796 212.042328 
L 88.240416 212.330543 
L 89.259036 213.039995 
L 90.277656 214.042964 
L 91.296276 214.954294 
L 92.314896 215.624026 
L 93.333516 215.136455 
L 94.352136 215.542719 
L 95.370756 216.181557 
L 96.389376 215.182761 
L 97.407996 215.68746 
L 98.426616 217.747742 
L 99.445235 217.968585 
L 100.463855 218.219374 
L 101.482475 219.880044 
L 102.501095 220.034883 
L 103.519715 220.164699 
L 104.538335 220.650535 
L 105.556955 220.797437 
L 106.575575 220.970419 
L 107.594195 221.113599 
L 108.612815 221.206589 
L 109.631435 221.340691 
L 110.650055 220.917071 
L 111.668675 221.04891 
L 112.687295 221.183883 
L 113.705915 221.342697 
L 114.724535 221.480894 
L 115.743154 222.151233 
L 116.761774 221.735062 
L 117.780394 221.859889 
L 118.799014 221.96682 
L 119.817634 222.080228 
L 120.836254 221.95016 
L 121.854874 222.396486 
L 122.873494 222.196242 
L 123.892114 221.979001 
L 124.910734 221.796677 
L 125.929354 221.983276 
L 126.947974 222.159818 
L 127.966594 222.298459 
L 128.985214 222.636084 
L 130.003834 222.953393 
L 131.022453 222.912574 
L 132.041073 223.001367 
L 133.059693 223.394009 
L 134.078313 223.684482 
L 135.096933 223.891666 
L 136.115553 224.373444 
L 137.134173 224.80347 
L 138.152793 225.075758 
L 139.171413 225.170987 
L 140.190033 225.333391 
L 141.208653 225.311964 
L 142.227273 225.333907 
L 143.245893 225.4387 
L 144.264513 225.398332 
L 145.283133 225.535856 
L 146.301752 226.238134 
L 147.320372 226.855473 
L 148.338992 227.185762 
L 149.357612 226.337932 
L 150.376232 226.777312 
L 151.394852 225.144091 
L 152.413472 225.406821 
L 153.432092 225.746433 
L 154.450712 228.66762 
L 155.469332 227.8258 
L 156.487952 228.442635 
L 157.506572 228.30119 
L 158.525192 227.987514 
L 159.543812 227.163464 
L 160.562432 228.461745 
L 161.581051 228.599299 
L 162.599671 229.144823 
L 163.618291 229.643069 
L 164.636911 230.491384 
L 165.655531 230.657186 
L 166.674151 230.899636 
L 167.692771 231.085345 
L 168.711391 231.386582 
L 169.730011 231.798274 
L 170.748631 231.922284 
L 171.767251 232.053727 
L 172.785871 232.080809 
L 173.804491 232.289567 
L 174.823111 232.547728 
L 175.841731 232.723472 
L 176.86035 232.099451 
L 177.87897 232.332247 
L 178.89759 232.468096 
L 179.91621 231.164767 
L 180.93483 231.265195 
L 181.95345 231.39545 
L 182.97207 230.798793 
L 183.99069 230.792159 
L 185.00931 233.926276 
L 186.02793 232.007475 
L 187.04655 232.057005 
L 188.06517 232.175937 
L 189.08379 232.303747 
L 190.10241 232.99331 
L 191.12103 234.575074 
L 192.13965 234.797472 
L 193.158269 234.875207 
L 194.176889 234.793413 
L 195.195509 234.898345 
L 196.214129 234.041534 
L 197.232749 234.133749 
L 198.251369 234.595901 
L 199.269989 234.688603 
L 200.288609 234.685481 
L 201.307229 235.66566 
L 202.325849 235.814075 
L 203.344469 235.961529 
L 204.363089 236.156016 
L 205.381709 236.292628 
L 206.400329 236.423231 
L 207.418949 236.394876 
L 208.437568 234.660169 
L 209.456188 234.738877 
L 210.474808 237.179469 
L 211.493428 237.325615 
L 212.512048 237.50044 
L 213.530668 237.764191 
L 214.549288 237.990755 
L 215.567908 238.216106 
L 216.586528 238.420805 
L 217.605148 238.740786 
L 218.623768 238.931862 
L 219.642388 239.123251 
L 220.661008 239.184884 
L 221.679628 239.343055 
L 222.698248 239.431074 
L 223.716867 239.527786 
L 224.735487 239.592409 
L 225.754107 239.801797 
L 226.772727 239.897194 
L 227.791347 240.034695 
L 228.809967 240.161005 
L 229.828587 240.307859 
L 230.847207 240.411019 
L 231.865827 240.507479 
L 232.884447 240.607373 
L 233.903067 239.239139 
L 234.921687 239.375997 
L 235.940307 239.479908 
L 236.958927 238.008802 
L 237.977547 238.081956 
L 238.996166 239.604561 
L 240.014786 240.389887 
L 241.033406 239.574086 
L 242.052026 239.674311 
L 243.070646 239.739468 
L 244.089266 237.947655 
L 245.107886 237.852876 
L 246.126506 238.149454 
L 247.145126 238.216052 
L 248.163746 238.283539 
L 249.182366 239.798441 
L 250.200986 239.850799 
L 251.219606 239.687512 
L 252.238226 240.184611 
L 253.256846 240.28238 
L 254.275465 239.827571 
L 255.294085 239.932436 
L 256.312705 240.271435 
L 257.331325 240.466565 
L 258.349945 240.549234 
L 259.368565 241.173652 
L 260.387185 241.245191 
L 261.405805 241.327302 
L 262.424425 241.371909 
L 263.443045 241.451408 
L 264.461665 243.542387 
L 265.480285 243.836834 
L 266.498905 244.037823 
L 267.517525 244.144339 
L 268.536145 244.008885 
L 269.554765 239.792444 
L 270.573384 239.852828 
L 271.592004 239.904171 
L 272.610624 242.214209 
L 273.629244 242.291709 
L 274.647864 242.366628 
L 275.666484 242.442784 
L 276.685104 242.517445 
L 277.703724 242.589098 
L 278.722344 238.792753 
L 279.740964 236.987678 
L 280.759584 238.973984 
L 281.778204 238.963639 
L 282.796824 238.302756 
L 283.815444 242.769224 
L 284.834064 240.290053 
L 285.852683 240.582248 
L 286.871303 240.695176 
L 287.889923 240.828294 
L 288.908543 240.886109 
L 289.927163 242.266908 
L 290.945783 244.407711 
L 291.964403 244.413709 
L 292.983023 244.947297 
L 294.001643 244.481003 
L 295.020263 244.569838 
L 296.038883 244.724251 
L 297.057503 244.883647 
L 298.076123 245.016231 
L 299.094743 240.181237 
L 300.113363 238.587862 
L 301.131982 241.384606 
L 302.150602 241.423876 
L 303.169222 244.298499 
L 304.187842 244.360685 
L 305.206462 244.355444 
L 306.225082 244.417011 
L 307.243702 244.160302 
L 308.262322 244.429414 
L 309.280942 244.895162 
L 310.299562 246.102631 
L 311.318182 246.24 
L 311.318182 201.793851 
L 311.318182 201.793851 
L 310.299562 208.292595 
L 309.280942 212.413411 
L 308.262322 212.327973 
L 307.243702 212.444335 
L 306.225082 211.748163 
L 305.206462 211.641629 
L 304.187842 212.709149 
L 303.169222 212.458696 
L 302.150602 212.359378 
L 301.131982 212.675324 
L 300.113363 211.762386 
L 299.094743 212.601504 
L 298.076123 212.450879 
L 297.057503 211.941587 
L 296.038883 211.945352 
L 295.020263 211.910128 
L 294.001643 211.473336 
L 292.983023 211.555339 
L 291.964403 211.957935 
L 290.945783 211.923174 
L 289.927163 211.889626 
L 288.908543 211.042307 
L 287.889923 211.004472 
L 286.871303 210.591136 
L 285.852683 208.259737 
L 284.834064 208.103469 
L 283.815444 209.289289 
L 282.796824 209.09066 
L 281.778204 209.458021 
L 280.759584 211.714687 
L 279.740964 211.691831 
L 278.722344 211.559254 
L 277.703724 211.380586 
L 276.685104 211.223262 
L 275.666484 211.066111 
L 274.647864 210.933462 
L 273.629244 210.743729 
L 272.610624 210.578576 
L 271.592004 210.40787 
L 270.573384 210.234588 
L 269.554765 210.05822 
L 268.536145 209.871015 
L 267.517525 209.641551 
L 266.498905 209.480282 
L 265.480285 209.312313 
L 264.461665 209.10977 
L 263.443045 208.283817 
L 262.424425 207.556786 
L 261.405805 203.679963 
L 260.387185 202.510766 
L 259.368565 201.994564 
L 258.349945 207.743721 
L 257.331325 207.483777 
L 256.312705 207.088367 
L 255.294085 206.6881 
L 254.275465 206.258284 
L 253.256846 205.790465 
L 252.238226 205.230352 
L 251.219606 204.721451 
L 250.200986 203.769981 
L 249.182366 203.15215 
L 248.163746 202.199077 
L 247.145126 201.072284 
L 246.126506 200.367982 
L 245.107886 199.936713 
L 244.089266 199.181003 
L 243.070646 198.701465 
L 242.052026 198.049167 
L 241.033406 197.312074 
L 240.014786 196.648393 
L 238.996166 195.801801 
L 237.977547 195.048462 
L 236.958927 194.780905 
L 235.940307 194.212958 
L 234.921687 193.591434 
L 233.903067 193.28115 
L 232.884447 192.985028 
L 231.865827 192.633487 
L 230.847207 192.278932 
L 229.828587 192.112091 
L 228.809967 191.910214 
L 227.791347 191.690446 
L 226.772727 191.514042 
L 225.754107 191.428304 
L 224.735487 191.268068 
L 223.716867 191.150007 
L 222.698248 191.052785 
L 221.679628 190.981798 
L 220.661008 190.852396 
L 219.642388 190.732588 
L 218.623768 190.664249 
L 217.605148 190.629428 
L 216.586528 190.547659 
L 215.567908 190.559907 
L 214.549288 190.633205 
L 213.530668 190.570791 
L 212.512048 190.552228 
L 211.493428 190.541782 
L 210.474808 190.511265 
L 209.456188 190.435164 
L 208.437568 190.421397 
L 207.418949 190.37 
L 206.400329 190.358966 
L 205.381709 190.301571 
L 204.363089 190.289984 
L 203.344469 190.246999 
L 202.325849 190.223404 
L 201.307229 190.141017 
L 200.288609 189.869822 
L 199.269989 189.824543 
L 198.251369 189.807721 
L 197.232749 189.768991 
L 196.214129 189.784649 
L 195.195509 190.004993 
L 194.176889 189.997699 
L 193.158269 189.931281 
L 192.13965 189.870374 
L 191.12103 189.829652 
L 190.10241 189.762339 
L 189.08379 189.746688 
L 188.06517 189.767094 
L 187.04655 189.799874 
L 186.02793 189.811215 
L 185.00931 189.817404 
L 183.99069 189.772894 
L 182.97207 189.747696 
L 181.95345 189.738787 
L 180.93483 189.611271 
L 179.91621 189.624526 
L 178.89759 189.627792 
L 177.87897 189.631965 
L 176.86035 189.607638 
L 175.841731 189.657366 
L 174.823111 189.627198 
L 173.804491 189.597192 
L 172.785871 189.535247 
L 171.767251 189.510962 
L 170.748631 189.485861 
L 169.730011 189.471693 
L 168.711391 189.431619 
L 167.692771 189.428317 
L 166.674151 189.36762 
L 165.655531 189.357318 
L 164.636911 189.298002 
L 163.618291 189.270458 
L 162.599671 189.246239 
L 161.581051 189.23392 
L 160.562432 189.039163 
L 159.543812 189.045196 
L 158.525192 189.011084 
L 157.506572 188.953773 
L 156.487952 188.928342 
L 155.469332 189.051464 
L 154.450712 189.019423 
L 153.432092 188.982417 
L 152.413472 188.952345 
L 151.394852 188.830609 
L 150.376232 188.806391 
L 149.357612 188.625934 
L 148.338992 187.385421 
L 147.320372 186.407127 
L 146.301752 185.140348 
L 145.283133 184.381726 
L 144.264513 183.382582 
L 143.245893 182.900492 
L 142.227273 181.99564 
L 141.208653 181.684797 
L 140.190033 180.504188 
L 139.171413 180.011346 
L 138.152793 179.193054 
L 137.134173 178.671695 
L 136.115553 177.674363 
L 135.096933 177.464279 
L 134.078313 177.088651 
L 133.059693 176.566998 
L 132.041073 176.277498 
L 131.022453 176.30105 
L 130.003834 174.613178 
L 128.985214 174.127042 
L 127.966594 174.021889 
L 126.947974 173.457669 
L 125.929354 173.028748 
L 124.910734 173.9415 
L 123.892114 173.28931 
L 122.873494 172.411193 
L 121.854874 171.629685 
L 120.836254 170.584415 
L 119.817634 168.868404 
L 118.799014 168.072337 
L 117.780394 167.472493 
L 116.761774 166.759973 
L 115.743154 166.108059 
L 114.724535 165.897891 
L 113.705915 165.366992 
L 112.687295 164.817199 
L 111.668675 164.238073 
L 110.650055 163.896342 
L 109.631435 163.84022 
L 108.612815 163.640042 
L 107.594195 159.260098 
L 106.575575 159.318585 
L 105.556955 158.98434 
L 104.538335 158.74712 
L 103.519715 158.018744 
L 102.501095 157.129838 
L 101.482475 156.521012 
L 100.463855 151.473557 
L 99.445235 146.10779 
L 98.426616 145.85388 
L 97.407996 149.788926 
L 96.389376 149.264805 
L 95.370756 153.448095 
L 94.352136 157.847011 
L 93.333516 156.986538 
L 92.314896 156.728376 
L 91.296276 156.179082 
L 90.277656 150.888919 
L 89.259036 150.013461 
L 88.240416 147.74417 
L 87.221796 143.841608 
L 86.203176 140.205391 
L 85.184556 136.886867 
L 84.165936 134.257449 
L 83.147317 131.640224 
L 82.128697 129.191533 
L 81.110077 126.163505 
L 80.091457 122.253043 
L 79.072837 121.698664 
L 78.054217 120.724015 
L 77.035597 119.603855 
L 76.016977 119.387509 
L 74.998357 121.856841 
L 73.979737 120.651521 
L 72.961117 117.564208 
L 71.942497 114.401669 
L 70.923877 111.870776 
L 69.905257 110.307527 
L 68.886637 109.038845 
L 67.868018 108.204097 
L 66.849398 107.273388 
L 65.830778 104.795489 
L 64.812158 103.246924 
L 63.793538 100.142399 
L 62.774918 96.447202 
L 61.756298 89.109923 
L 60.737678 83.528789 
L 59.719058 73.023574 
L 58.700438 64.152067 
L 57.681818 56.912551 
z
" clip-path="url(#p6d837145fc)" style="fill: #ff0000; fill-opacity: 0.3"/>
   </g>
   <g id="PolyCollection_2">
    <path d="M 57.681818 53.252535 
L 57.681818 81.993577 
L 58.700438 91.009146 
L 59.719058 101.609002 
L 60.737678 115.675689 
L 61.756298 129.963189 
L 62.774918 139.694556 
L 63.793538 148.077418 
L 64.812158 155.362244 
L 65.830778 160.290689 
L 66.849398 166.633603 
L 67.868018 172.023269 
L 68.886637 176.129371 
L 69.905257 179.680319 
L 70.923877 182.885537 
L 71.942497 185.736542 
L 72.961117 188.186512 
L 73.979737 190.087585 
L 74.998357 191.728899 
L 76.016977 193.082376 
L 77.035597 194.191903 
L 78.054217 195.120115 
L 79.072837 196.021328 
L 80.091457 196.712308 
L 81.110077 197.321848 
L 82.128697 197.845939 
L 83.147317 198.341098 
L 84.165936 198.797511 
L 85.184556 199.218093 
L 86.203176 199.458946 
L 87.221796 199.848478 
L 88.240416 200.197156 
L 89.259036 200.525031 
L 90.277656 200.837549 
L 91.296276 201.286132 
L 92.314896 200.349047 
L 93.333516 200.622493 
L 94.352136 201.524866 
L 95.370756 201.744316 
L 96.389376 202.112403 
L 97.407996 202.639712 
L 98.426616 202.867188 
L 99.445235 203.276532 
L 100.463855 203.584187 
L 101.482475 203.883515 
L 102.501095 204.174876 
L 103.519715 204.412697 
L 104.538335 204.675145 
L 105.556955 204.938049 
L 106.575575 205.194373 
L 107.594195 205.204441 
L 108.612815 205.486526 
L 109.631435 205.727139 
L 110.650055 205.951176 
L 111.668675 206.157183 
L 112.687295 206.605239 
L 113.705915 205.958056 
L 114.724535 206.007069 
L 115.743154 206.200451 
L 116.761774 206.400191 
L 117.780394 206.461788 
L 118.799014 207.494643 
L 119.817634 207.32381 
L 120.836254 207.496402 
L 121.854874 207.665998 
L 122.873494 207.953547 
L 123.892114 208.091528 
L 124.910734 208.357458 
L 125.929354 208.509505 
L 126.947974 208.660364 
L 127.966594 208.808935 
L 128.985214 206.712505 
L 130.003834 206.828801 
L 131.022453 206.963144 
L 132.041073 206.6715 
L 133.059693 206.781901 
L 134.078313 210.07189 
L 135.096933 210.198632 
L 136.115553 210.331726 
L 137.134173 210.413141 
L 138.152793 210.5451 
L 139.171413 210.679689 
L 140.190033 210.193763 
L 141.208653 210.32137 
L 142.227273 210.498908 
L 143.245893 210.622054 
L 144.264513 210.60839 
L 145.283133 211.351967 
L 146.301752 211.471721 
L 147.320372 211.589962 
L 148.338992 211.708167 
L 149.357612 211.963266 
L 150.376232 212.05284 
L 151.394852 212.168284 
L 152.413472 210.020559 
L 153.432092 210.167263 
L 154.450712 210.193985 
L 155.469332 209.398435 
L 156.487952 209.317572 
L 157.506572 210.72055 
L 158.525192 210.832055 
L 159.543812 210.942551 
L 160.562432 211.037858 
L 161.581051 213.304082 
L 162.599671 213.40735 
L 163.618291 213.514635 
L 164.636911 213.621547 
L 165.655531 213.742478 
L 166.674151 213.847553 
L 167.692771 213.956986 
L 168.711391 214.021039 
L 169.730011 214.058579 
L 170.748631 214.16219 
L 171.767251 214.212512 
L 172.785871 214.314507 
L 173.804491 213.902161 
L 174.823111 214.071133 
L 175.841731 214.171027 
L 176.86035 214.324089 
L 177.87897 214.423131 
L 178.89759 215.079667 
L 179.91621 212.038738 
L 180.93483 212.10665 
L 181.95345 212.175206 
L 182.97207 212.284171 
L 183.99069 212.34802 
L 185.00931 215.230502 
L 186.02793 215.275421 
L 187.04655 215.374318 
L 188.06517 215.608663 
L 189.08379 215.767524 
L 190.10241 212.666199 
L 191.12103 212.310719 
L 192.13965 212.505422 
L 193.158269 212.566107 
L 194.176889 211.611251 
L 195.195509 214.732665 
L 196.214129 214.826345 
L 197.232749 214.919341 
L 198.251369 215.035571 
L 199.269989 216.659378 
L 200.288609 217.089921 
L 201.307229 217.180822 
L 202.325849 217.265647 
L 203.344469 217.356883 
L 204.363089 217.448739 
L 205.381709 217.544622 
L 206.400329 217.637594 
L 207.418949 217.736372 
L 208.437568 217.828365 
L 209.456188 217.920508 
L 210.474808 217.396922 
L 211.493428 217.485931 
L 212.512048 215.057832 
L 213.530668 215.148156 
L 214.549288 214.224675 
L 215.567908 214.277687 
L 216.586528 214.312724 
L 217.605148 215.698675 
L 218.623768 215.785883 
L 219.642388 218.816583 
L 220.661008 218.905448 
L 221.679628 216.061335 
L 222.698248 216.149204 
L 223.716867 216.230138 
L 224.735487 216.319106 
L 225.754107 216.402796 
L 226.772727 219.423025 
L 227.791347 217.285296 
L 228.809967 217.37831 
L 229.828587 217.465681 
L 230.847207 217.556239 
L 231.865827 215.645171 
L 232.884447 217.955299 
L 233.903067 217.98345 
L 234.921687 218.068425 
L 235.940307 215.076389 
L 236.958927 217.159155 
L 237.977547 217.097648 
L 238.996166 214.475998 
L 240.014786 214.915997 
L 241.033406 214.805963 
L 242.052026 214.511312 
L 243.070646 214.743897 
L 244.089266 220.505506 
L 245.107886 218.468872 
L 246.126506 218.548732 
L 247.145126 219.0126 
L 248.163746 215.329507 
L 249.182366 215.414236 
L 250.200986 217.619745 
L 251.219606 217.708545 
L 252.238226 217.74085 
L 253.256846 221.537934 
L 254.275465 221.622735 
L 255.294085 221.704678 
L 256.312705 221.784526 
L 257.331325 219.964478 
L 258.349945 220.094168 
L 259.368565 216.351591 
L 260.387185 216.43309 
L 261.405805 216.485586 
L 262.424425 217.909954 
L 263.443045 217.993932 
L 264.461665 221.896349 
L 265.480285 217.672289 
L 266.498905 216.747661 
L 267.517525 217.109523 
L 268.536145 217.187678 
L 269.554765 217.266793 
L 270.573384 221.652513 
L 271.592004 222.767155 
L 272.610624 223.080819 
L 273.629244 221.932821 
L 274.647864 221.909011 
L 275.666484 220.088927 
L 276.685104 220.165431 
L 277.703724 220.336186 
L 278.722344 221.578086 
L 279.740964 221.760614 
L 280.759584 222.893248 
L 281.778204 222.973733 
L 282.796824 223.054019 
L 283.815444 223.194071 
L 284.834064 223.270503 
L 285.852683 220.205229 
L 286.871303 220.279104 
L 287.889923 220.329282 
L 288.908543 220.408313 
L 289.927163 220.484097 
L 290.945783 224.545015 
L 291.964403 224.624683 
L 292.983023 224.726528 
L 294.001643 224.801861 
L 295.020263 224.743464 
L 296.038883 224.434104 
L 297.057503 224.508057 
L 298.076123 224.582742 
L 299.094743 223.926013 
L 300.113363 221.570636 
L 301.131982 222.028789 
L 302.150602 222.104038 
L 303.169222 222.179912 
L 304.187842 222.953843 
L 305.206462 218.345287 
L 306.225082 218.423869 
L 307.243702 218.498884 
L 308.262322 218.570939 
L 309.280942 218.468223 
L 310.299562 225.771516 
L 311.318182 225.808492 
L 311.318182 190.127821 
L 311.318182 190.127821 
L 310.299562 190.109582 
L 309.280942 190.082079 
L 308.262322 186.706323 
L 307.243702 186.689044 
L 306.225082 187.713272 
L 305.206462 187.645173 
L 304.187842 187.568897 
L 303.169222 190.027357 
L 302.150602 189.995381 
L 301.131982 189.77326 
L 300.113363 189.745739 
L 299.094743 189.720098 
L 298.076123 189.43004 
L 297.057503 189.412809 
L 296.038883 189.586247 
L 295.020263 189.551012 
L 294.001643 189.526157 
L 292.983023 189.765893 
L 291.964403 189.702291 
L 290.945783 189.608749 
L 289.927163 189.557946 
L 288.908543 189.558301 
L 287.889923 189.533308 
L 286.871303 189.511515 
L 285.852683 189.589051 
L 284.834064 189.545225 
L 283.815444 189.531987 
L 282.796824 189.505367 
L 281.778204 189.479443 
L 280.759584 189.407064 
L 279.740964 189.399091 
L 278.722344 189.372669 
L 277.703724 189.346752 
L 276.685104 189.315989 
L 275.666484 188.036374 
L 274.647864 187.972136 
L 273.629244 187.906852 
L 272.610624 188.226604 
L 271.592004 188.169132 
L 270.573384 189.210097 
L 269.554765 186.824486 
L 268.536145 186.799913 
L 267.517525 186.768448 
L 266.498905 186.742369 
L 265.480285 186.715256 
L 264.461665 189.008424 
L 263.443045 188.864566 
L 262.424425 188.843715 
L 261.405805 188.816717 
L 260.387185 187.969572 
L 259.368565 187.935435 
L 258.349945 188.065834 
L 257.331325 188.03647 
L 256.312705 187.93349 
L 255.294085 188.564536 
L 254.275465 188.543949 
L 253.256846 188.512916 
L 252.238226 188.455462 
L 251.219606 187.232029 
L 250.200986 187.179851 
L 249.182366 187.128713 
L 248.163746 187.076944 
L 247.145126 187.465305 
L 246.126506 188.521922 
L 245.107886 188.475202 
L 244.089266 188.448072 
L 243.070646 187.632145 
L 242.052026 187.5833 
L 241.033406 187.538561 
L 240.014786 186.305294 
L 238.996166 186.287967 
L 237.977547 186.268336 
L 236.958927 186.231197 
L 235.940307 186.21303 
L 234.921687 188.264025 
L 233.903067 188.233328 
L 232.884447 184.934466 
L 231.865827 184.890063 
L 230.847207 184.951024 
L 229.828587 184.906555 
L 228.809967 184.862795 
L 227.791347 188.063426 
L 226.772727 188.03925 
L 225.754107 188.010901 
L 224.735487 187.985025 
L 223.716867 187.95547 
L 222.698248 187.927829 
L 221.679628 187.899114 
L 220.661008 187.870987 
L 219.642388 187.83697 
L 218.623768 187.567114 
L 217.605148 187.259735 
L 216.586528 187.025949 
L 215.567908 186.997024 
L 214.549288 186.680375 
L 213.530668 186.820968 
L 212.512048 186.583507 
L 211.493428 187.038298 
L 210.474808 187.008905 
L 209.456188 187.272073 
L 208.437568 187.315539 
L 207.418949 187.473992 
L 206.400329 187.432393 
L 205.381709 187.39325 
L 204.363089 187.356225 
L 203.344469 187.317778 
L 202.325849 187.202245 
L 201.307229 186.667203 
L 200.288609 185.794759 
L 199.269989 185.775013 
L 198.251369 185.251475 
L 197.232749 184.492132 
L 196.214129 184.949301 
L 195.195509 184.909677 
L 194.176889 184.874964 
L 193.158269 184.836151 
L 192.13965 186.888688 
L 191.12103 186.056907 
L 190.10241 184.965018 
L 189.08379 184.927136 
L 188.06517 183.728696 
L 187.04655 182.50079 
L 186.02793 183.258907 
L 185.00931 184.274183 
L 183.99069 184.045752 
L 182.97207 185.151455 
L 181.95345 184.260939 
L 180.93483 184.235982 
L 179.91621 184.28933 
L 178.89759 182.403027 
L 177.87897 184.566331 
L 176.86035 184.363697 
L 175.841731 184.837538 
L 174.823111 181.881854 
L 173.804491 183.11368 
L 172.785871 183.073732 
L 171.767251 183.037356 
L 170.748631 183.039631 
L 169.730011 185.936672 
L 168.711391 185.986376 
L 167.692771 185.936792 
L 166.674151 185.895109 
L 165.655531 185.79698 
L 164.636911 185.760178 
L 163.618291 185.714743 
L 162.599671 183.29012 
L 161.581051 183.299384 
L 160.562432 183.633616 
L 159.543812 183.563134 
L 158.525192 182.207141 
L 157.506572 182.904886 
L 156.487952 182.996586 
L 155.469332 182.92752 
L 154.450712 184.482448 
L 153.432092 184.798484 
L 152.413472 184.748564 
L 151.394852 184.575402 
L 150.376232 183.673222 
L 149.357612 183.632794 
L 148.338992 183.554495 
L 147.320372 184.461094 
L 146.301752 184.53803 
L 145.283133 184.483565 
L 144.264513 184.433381 
L 143.245893 184.381894 
L 142.227273 184.793651 
L 141.208653 184.740273 
L 140.190033 184.691092 
L 139.171413 183.53003 
L 138.152793 182.458044 
L 137.134173 180.532405 
L 136.115553 181.624629 
L 135.096933 181.523889 
L 134.078313 182.249365 
L 133.059693 184.289006 
L 132.041073 184.203047 
L 131.022453 184.142578 
L 130.003834 184.088912 
L 128.985214 184.026276 
L 127.966594 182.636201 
L 126.947974 182.598684 
L 125.929354 182.533737 
L 124.910734 182.468232 
L 123.892114 182.356277 
L 122.873494 180.732319 
L 121.854874 180.663338 
L 120.836254 180.593257 
L 119.817634 180.521412 
L 118.799014 180.348706 
L 117.780394 183.158173 
L 116.761774 183.083626 
L 115.743154 182.865023 
L 114.724535 182.598384 
L 113.705915 182.373411 
L 112.687295 182.088438 
L 111.668675 181.814445 
L 110.650055 181.983585 
L 109.631435 181.06038 
L 108.612815 180.716307 
L 107.594195 180.358426 
L 106.575575 179.361203 
L 105.556955 178.871615 
L 104.538335 179.656268 
L 103.519715 179.242163 
L 102.501095 178.811573 
L 101.482475 178.99688 
L 100.463855 178.641977 
L 99.445235 178.181026 
L 98.426616 177.592156 
L 97.407996 177.10644 
L 96.389376 176.605247 
L 95.370756 176.098891 
L 94.352136 175.582592 
L 93.333516 175.156684 
L 92.314896 174.565773 
L 91.296276 174.004466 
L 90.277656 173.428738 
L 89.259036 172.821485 
L 88.240416 171.981196 
L 87.221796 171.400599 
L 86.203176 170.757253 
L 85.184556 170.091615 
L 84.165936 169.419169 
L 83.147317 168.931748 
L 82.128697 168.179694 
L 81.110077 167.391678 
L 80.091457 166.563258 
L 79.072837 165.691931 
L 78.054217 164.772352 
L 77.035597 163.791663 
L 76.016977 162.719917 
L 74.998357 161.298209 
L 73.979737 160.099378 
L 72.961117 158.808747 
L 71.942497 157.408141 
L 70.923877 153.268269 
L 69.905257 146.167202 
L 68.886637 138.685734 
L 67.868018 131.460735 
L 66.849398 124.712884 
L 65.830778 116.363066 
L 64.812158 106.527572 
L 63.793538 97.714936 
L 62.774918 89.596293 
L 61.756298 82.147323 
L 60.737678 77.462816 
L 59.719058 69.280799 
L 58.700438 61.217354 
L 57.681818 53.252535 
z
" clip-path="url(#p6d837145fc)" style="fill: #0000ff; fill-opacity: 0.3"/>
   </g>
   <g id="PolyCollection_3">
    <path d="M 57.681818 44.64 
L 57.681818 86.487283 
L 58.700438 100.675729 
L 59.719058 115.575855 
L 60.737678 129.943713 
L 61.756298 140.697915 
L 62.774918 145.969167 
L 63.793538 146.505433 
L 64.812158 150.845033 
L 65.830778 152.56996 
L 66.849398 156.32778 
L 67.868018 160.687792 
L 68.886637 165.853092 
L 69.905257 168.07011 
L 70.923877 172.455565 
L 71.942497 173.594948 
L 72.961117 175.312592 
L 73.979737 178.937096 
L 74.998357 182.681354 
L 76.016977 188.26962 
L 77.035597 183.377821 
L 78.054217 179.466464 
L 79.072837 180.286053 
L 80.091457 180.796684 
L 81.110077 181.886783 
L 82.128697 184.657376 
L 83.147317 191.595253 
L 84.165936 191.560066 
L 85.184556 192.129376 
L 86.203176 190.839441 
L 87.221796 187.010544 
L 88.240416 186.079942 
L 89.259036 186.061643 
L 90.277656 187.431072 
L 91.296276 188.641664 
L 92.314896 191.828097 
L 93.333516 188.761712 
L 94.352136 191.050702 
L 95.370756 188.319528 
L 96.389376 187.988874 
L 97.407996 190.194923 
L 98.426616 189.560336 
L 99.445235 188.224311 
L 100.463855 189.291218 
L 101.482475 192.515204 
L 102.501095 197.203121 
L 103.519715 193.858541 
L 104.538335 192.591647 
L 105.556955 191.791012 
L 106.575575 190.166454 
L 107.594195 196.494047 
L 108.612815 199.00655 
L 109.631435 200.976154 
L 110.650055 203.138906 
L 111.668675 204.951251 
L 112.687295 209.109295 
L 113.705915 210.019562 
L 114.724535 212.2518 
L 115.743154 213.902113 
L 116.761774 215.459653 
L 117.780394 217.229805 
L 118.799014 219.14576 
L 119.817634 213.699564 
L 120.836254 209.33655 
L 121.854874 209.52633 
L 122.873494 209.362546 
L 123.892114 209.978828 
L 124.910734 216.168097 
L 125.929354 221.934514 
L 126.947974 221.430211 
L 127.966594 220.833092 
L 128.985214 220.949352 
L 130.003834 221.056751 
L 131.022453 221.841236 
L 132.041073 223.852031 
L 133.059693 225.857944 
L 134.078313 222.77556 
L 135.096933 222.14452 
L 136.115553 218.986971 
L 137.134173 218.946567 
L 138.152793 218.488101 
L 139.171413 221.144722 
L 140.190033 216.677881 
L 141.208653 218.032385 
L 142.227273 218.082401 
L 143.245893 218.962524 
L 144.264513 209.893096 
L 145.283133 215.693512 
L 146.301752 215.093211 
L 147.320372 203.918414 
L 148.338992 200.418527 
L 149.357612 201.565222 
L 150.376232 199.490849 
L 151.394852 201.060246 
L 152.413472 203.645202 
L 153.432092 209.241513 
L 154.450712 210.853614 
L 155.469332 211.130494 
L 156.487952 211.978708 
L 157.506572 211.503366 
L 158.525192 210.585138 
L 159.543812 209.857459 
L 160.562432 212.371782 
L 161.581051 212.955825 
L 162.599671 213.147064 
L 163.618291 213.532393 
L 164.636911 213.461521 
L 165.655531 213.575007 
L 166.674151 213.043664 
L 167.692771 212.568046 
L 168.711391 213.224192 
L 169.730011 211.979092 
L 170.748631 211.529434 
L 171.767251 212.53918 
L 172.785871 215.139595 
L 173.804491 213.415977 
L 174.823111 212.856699 
L 175.841731 213.440004 
L 176.86035 207.630505 
L 177.87897 208.604344 
L 178.89759 208.86017 
L 179.91621 209.791191 
L 180.93483 210.923952 
L 181.95345 212.339128 
L 182.97207 214.034595 
L 183.99069 214.846811 
L 185.00931 214.74918 
L 186.02793 215.399245 
L 187.04655 215.914157 
L 188.06517 214.844218 
L 189.08379 215.083275 
L 190.10241 215.349943 
L 191.12103 214.677263 
L 192.13965 214.375972 
L 193.158269 214.985104 
L 194.176889 216.284243 
L 195.195509 218.085355 
L 196.214129 221.758891 
L 197.232749 222.91515 
L 198.251369 222.391707 
L 199.269989 219.89695 
L 200.288609 220.962956 
L 201.307229 221.896295 
L 202.325849 222.177156 
L 203.344469 222.987361 
L 204.363089 221.561216 
L 205.381709 222.060152 
L 206.400329 222.764681 
L 207.418949 223.280925 
L 208.437568 225.463921 
L 209.456188 227.924878 
L 210.474808 229.570809 
L 211.493428 224.929834 
L 212.512048 223.813187 
L 213.530668 225.727089 
L 214.549288 225.470105 
L 215.567908 224.460496 
L 216.586528 224.560762 
L 217.605148 233.712374 
L 218.623768 228.859598 
L 219.642388 224.610791 
L 220.661008 225.847708 
L 221.679628 225.08956 
L 222.698248 226.597528 
L 223.716867 226.134212 
L 224.735487 226.31794 
L 225.754107 228.094474 
L 226.772727 228.320462 
L 227.791347 225.636903 
L 228.809967 225.40278 
L 229.828587 223.675729 
L 230.847207 222.043738 
L 231.865827 221.658931 
L 232.884447 224.527845 
L 233.903067 225.08579 
L 234.921687 226.668887 
L 235.940307 225.371502 
L 236.958927 218.850287 
L 237.977547 214.711448 
L 238.996166 217.063991 
L 240.014786 217.257878 
L 241.033406 214.941656 
L 242.052026 216.68619 
L 243.070646 213.82648 
L 244.089266 210.517315 
L 245.107886 209.224499 
L 246.126506 209.195981 
L 247.145126 209.358349 
L 248.163746 210.157639 
L 249.182366 209.119489 
L 250.200986 212.668372 
L 251.219606 214.319838 
L 252.238226 212.993209 
L 253.256846 208.995899 
L 254.275465 210.32502 
L 255.294085 209.60906 
L 256.312705 210.66492 
L 257.331325 214.674808 
L 258.349945 217.646251 
L 259.368565 221.765681 
L 260.387185 222.953056 
L 261.405805 220.997405 
L 262.424425 221.070787 
L 263.443045 221.136305 
L 264.461665 220.314147 
L 265.480285 221.262879 
L 266.498905 224.330452 
L 267.517525 226.170894 
L 268.536145 224.640646 
L 269.554765 224.25979 
L 270.573384 222.153178 
L 271.592004 220.704357 
L 272.610624 218.492106 
L 273.629244 213.459876 
L 274.647864 213.297724 
L 275.666484 216.131583 
L 276.685104 217.837562 
L 277.703724 215.701983 
L 278.722344 211.648671 
L 279.740964 212.225 
L 280.759584 212.637315 
L 281.778204 222.022827 
L 282.796824 223.655052 
L 283.815444 225.314437 
L 284.834064 228.251889 
L 285.852683 223.9644 
L 286.871303 222.941325 
L 287.889923 219.373826 
L 288.908543 217.786664 
L 289.927163 217.980959 
L 290.945783 218.239978 
L 291.964403 220.381069 
L 292.983023 223.455648 
L 294.001643 223.392166 
L 295.020263 223.466263 
L 296.038883 223.133837 
L 297.057503 219.562273 
L 298.076123 217.453289 
L 299.094743 220.498679 
L 300.113363 219.895539 
L 301.131982 217.837995 
L 302.150602 218.916759 
L 303.169222 222.913925 
L 304.187842 226.696126 
L 305.206462 226.91653 
L 306.225082 228.53117 
L 307.243702 230.231008 
L 308.262322 226.295589 
L 309.280942 224.150056 
L 310.299562 226.574006 
L 311.318182 228.228096 
L 311.318182 185.604949 
L 311.318182 185.604949 
L 310.299562 184.781098 
L 309.280942 185.27322 
L 308.262322 184.703177 
L 307.243702 181.521547 
L 306.225082 181.215561 
L 305.206462 180.804885 
L 304.187842 173.910474 
L 303.169222 170.925342 
L 302.150602 168.440082 
L 301.131982 165.157868 
L 300.113363 165.221044 
L 299.094743 172.405693 
L 298.076123 177.877958 
L 297.057503 181.966673 
L 296.038883 183.742072 
L 295.020263 184.340811 
L 294.001643 182.098932 
L 292.983023 179.24618 
L 291.964403 173.53891 
L 290.945783 169.863436 
L 289.927163 166.245794 
L 288.908543 164.053354 
L 287.889923 164.652838 
L 286.871303 171.255912 
L 285.852683 178.514004 
L 284.834064 184.320567 
L 283.815444 185.58931 
L 282.796824 186.694694 
L 281.778204 187.564214 
L 280.759584 185.604877 
L 279.740964 185.797461 
L 278.722344 185.693658 
L 277.703724 185.546792 
L 276.685104 186.60246 
L 275.666484 192.666056 
L 274.647864 191.403708 
L 273.629244 190.784231 
L 272.610624 191.387798 
L 271.592004 189.876624 
L 270.573384 189.546281 
L 269.554765 189.801339 
L 268.536145 180.581568 
L 267.517525 178.603638 
L 266.498905 171.186289 
L 265.480285 165.304956 
L 264.461665 161.068799 
L 263.443045 157.293634 
L 262.424425 162.050431 
L 261.405805 166.581774 
L 260.387185 166.905362 
L 259.368565 170.205125 
L 258.349945 173.895555 
L 257.331325 172.367871 
L 256.312705 174.284678 
L 255.294085 175.89113 
L 254.275465 172.818754 
L 253.256846 170.392558 
L 252.238226 166.387173 
L 251.219606 172.502015 
L 250.200986 168.804825 
L 249.182366 160.985156 
L 248.163746 155.524353 
L 247.145126 155.525073 
L 246.126506 156.546467 
L 245.107886 159.238005 
L 244.089266 168.132433 
L 243.070646 172.922778 
L 242.052026 176.586161 
L 241.033406 180.438418 
L 240.014786 186.428308 
L 238.996166 189.155591 
L 237.977547 189.036113 
L 236.958927 188.323196 
L 235.940307 187.828109 
L 234.921687 186.671322 
L 233.903067 184.78509 
L 232.884447 183.21986 
L 231.865827 180.432595 
L 230.847207 177.706657 
L 229.828587 172.766366 
L 228.809967 172.495976 
L 227.791347 170.534429 
L 226.772727 174.14818 
L 225.754107 175.096006 
L 224.735487 181.653615 
L 223.716867 182.58101 
L 222.698248 179.247669 
L 221.679628 175.395616 
L 220.661008 174.616966 
L 219.642388 172.577204 
L 218.623768 173.31288 
L 217.605148 179.465402 
L 216.586528 180.818441 
L 215.567908 177.454031 
L 214.549288 180.838985 
L 213.530668 179.729891 
L 212.512048 176.858809 
L 211.493428 173.333959 
L 210.474808 172.202879 
L 209.456188 171.537337 
L 208.437568 168.184761 
L 207.418949 162.887508 
L 206.400329 155.903973 
L 205.381709 149.025808 
L 204.363089 140.489632 
L 203.344469 132.486085 
L 202.325849 126.196933 
L 201.307229 125.00646 
L 200.288609 124.104604 
L 199.269989 117.250723 
L 198.251369 121.94713 
L 197.232749 137.503378 
L 196.214129 150.25755 
L 195.195509 163.545401 
L 194.176889 166.1401 
L 193.158269 160.240973 
L 192.13965 157.386702 
L 191.12103 155.890489 
L 190.10241 164.339876 
L 189.08379 175.253331 
L 188.06517 172.834009 
L 187.04655 169.39477 
L 186.02793 170.916871 
L 185.00931 169.195192 
L 183.99069 160.483459 
L 182.97207 168.038207 
L 181.95345 178.165621 
L 180.93483 181.676728 
L 179.91621 180.552505 
L 178.89759 179.724307 
L 177.87897 180.998003 
L 176.86035 180.658415 
L 175.841731 181.692032 
L 174.823111 182.923822 
L 173.804491 184.678544 
L 172.785871 184.239945 
L 171.767251 182.623888 
L 170.748631 178.33084 
L 169.730011 176.837022 
L 168.711391 171.547364 
L 167.692771 166.968502 
L 166.674151 168.858852 
L 165.655531 171.190119 
L 164.636911 168.824061 
L 163.618291 173.305724 
L 162.599671 176.403244 
L 161.581051 176.765855 
L 160.562432 177.145067 
L 159.543812 176.877505 
L 158.525192 169.2553 
L 157.506572 167.906968 
L 156.487952 168.598535 
L 155.469332 169.463956 
L 154.450712 169.800962 
L 153.432092 166.021871 
L 152.413472 165.64419 
L 151.394852 164.99759 
L 150.376232 167.746341 
L 149.357612 173.773651 
L 148.338992 169.420393 
L 147.320372 165.412133 
L 146.301752 163.401476 
L 145.283133 161.812057 
L 144.264513 161.817863 
L 143.245893 164.344409 
L 142.227273 169.220137 
L 141.208653 170.5292 
L 140.190033 170.069852 
L 139.171413 170.797405 
L 138.152793 173.430815 
L 137.134173 173.348926 
L 136.115553 171.043433 
L 135.096933 169.642887 
L 134.078313 169.434382 
L 133.059693 168.028451 
L 132.041073 167.148772 
L 131.022453 167.284316 
L 130.003834 173.735558 
L 128.985214 173.719253 
L 127.966594 173.848012 
L 126.947974 171.248942 
L 125.929354 167.946346 
L 124.910734 167.849171 
L 123.892114 169.410013 
L 122.873494 167.545479 
L 121.854874 164.541586 
L 120.836254 165.350872 
L 119.817634 166.546773 
L 118.799014 158.650257 
L 117.780394 158.779533 
L 116.761774 164.091651 
L 115.743154 164.474045 
L 114.724535 162.61271 
L 113.705915 167.985873 
L 112.687295 167.497102 
L 111.668675 167.279345 
L 110.650055 166.919404 
L 109.631435 168.685966 
L 108.612815 166.154557 
L 107.594195 165.698145 
L 106.575575 163.168579 
L 105.556955 161.201262 
L 104.538335 158.994546 
L 103.519715 151.977488 
L 102.501095 147.132744 
L 101.482475 145.880428 
L 100.463855 141.135855 
L 99.445235 137.754563 
L 98.426616 141.911647 
L 97.407996 141.568853 
L 96.389376 141.016407 
L 95.370756 138.791212 
L 94.352136 139.705753 
L 93.333516 142.90965 
L 92.314896 144.771237 
L 91.296276 146.111723 
L 90.277656 149.363763 
L 89.259036 147.254846 
L 88.240416 154.810224 
L 87.221796 149.798634 
L 86.203176 146.225719 
L 85.184556 146.41072 
L 84.165936 148.712564 
L 83.147317 150.947929 
L 82.128697 156.662673 
L 81.110077 158.063933 
L 80.091457 158.443667 
L 79.072837 155.514759 
L 78.054217 152.247428 
L 77.035597 146.218305 
L 76.016977 143.671736 
L 74.998357 138.414923 
L 73.979737 133.042439 
L 72.961117 133.19463 
L 71.942497 131.603038 
L 70.923877 130.965071 
L 69.905257 130.018848 
L 68.886637 129.32722 
L 67.868018 124.95388 
L 66.849398 119.356291 
L 65.830778 108.52475 
L 64.812158 98.850134 
L 63.793538 91.67138 
L 62.774918 86.594724 
L 61.756298 83.713058 
L 60.737678 82.160591 
L 59.719058 73.51267 
L 58.700438 56.19871 
L 57.681818 44.64 
z
" clip-path="url(#p6d837145fc)" style="fill: #008000; fill-opacity: 0.3"/>
   </g>
   <g id="matplotlib.axis_1">
    <g id="xtick_1">
     <g id="line2d_1">
      <defs>
       <path id="m183691fbb2" d="M 0 0 
L 0 3.5 
" style="stroke: #000000; stroke-width: 0.8"/>
      </defs>
      <g>
       <use xlink:href="#m183691fbb2" x="57.681818" y="256.32" style="stroke: #000000; stroke-width: 0.8"/>
      </g>
     </g>
     <g id="text_1">
      <!-- 0 -->
      <g transform="translate(55.181818 270.26375)scale(0.1 -0.1)">
       <defs>
        <path id="TimesNewRomanPSMT-30" d="M 231 2094 
Q 231 2819 450 3342 
Q 669 3866 1031 4122 
Q 1313 4325 1613 4325 
Q 2100 4325 2488 3828 
Q 2972 3213 2972 2159 
Q 2972 1422 2759 906 
Q 2547 391 2217 158 
Q 1888 -75 1581 -75 
Q 975 -75 572 641 
Q 231 1244 231 2094 
z
M 844 2016 
Q 844 1141 1059 588 
Q 1238 122 1591 122 
Q 1759 122 1940 273 
Q 2122 425 2216 781 
Q 2359 1319 2359 2297 
Q 2359 3022 2209 3506 
Q 2097 3866 1919 4016 
Q 1791 4119 1609 4119 
Q 1397 4119 1231 3928 
Q 1006 3669 925 3112 
Q 844 2556 844 2016 
z
" transform="scale(0.015625)"/>
       </defs>
       <use xlink:href="#TimesNewRomanPSMT-30"/>
      </g>
     </g>
    </g>
    <g id="xtick_2">
     <g id="line2d_2">
      <g>
       <use xlink:href="#m183691fbb2" x="108.612815" y="256.32" style="stroke: #000000; stroke-width: 0.8"/>
      </g>
     </g>
     <g id="text_2">
      <!-- 50 -->
      <g transform="translate(103.612815 270.26375)scale(0.1 -0.1)">
       <defs>
        <path id="TimesNewRomanPSMT-35" d="M 2778 4238 
L 2534 3706 
L 1259 3706 
L 981 3138 
Q 1809 3016 2294 2522 
Q 2709 2097 2709 1522 
Q 2709 1188 2573 903 
Q 2438 619 2231 419 
Q 2025 219 1772 97 
Q 1413 -75 1034 -75 
Q 653 -75 479 54 
Q 306 184 306 341 
Q 306 428 378 495 
Q 450 563 559 563 
Q 641 563 702 538 
Q 763 513 909 409 
Q 1144 247 1384 247 
Q 1750 247 2026 523 
Q 2303 800 2303 1197 
Q 2303 1581 2056 1914 
Q 1809 2247 1375 2428 
Q 1034 2569 447 2591 
L 1259 4238 
L 2778 4238 
z
" transform="scale(0.015625)"/>
       </defs>
       <use xlink:href="#TimesNewRomanPSMT-35"/>
       <use xlink:href="#TimesNewRomanPSMT-30" x="50"/>
      </g>
     </g>
    </g>
    <g id="xtick_3">
     <g id="line2d_3">
      <g>
       <use xlink:href="#m183691fbb2" x="159.543812" y="256.32" style="stroke: #000000; stroke-width: 0.8"/>
      </g>
     </g>
     <g id="text_3">
      <!-- 100 -->
      <g transform="translate(152.043812 270.26375)scale(0.1 -0.1)">
       <defs>
        <path id="TimesNewRomanPSMT-31" d="M 750 3822 
L 1781 4325 
L 1884 4325 
L 1884 747 
Q 1884 391 1914 303 
Q 1944 216 2037 169 
Q 2131 122 2419 116 
L 2419 0 
L 825 0 
L 825 116 
Q 1125 122 1212 167 
Q 1300 213 1334 289 
Q 1369 366 1369 747 
L 1369 3034 
Q 1369 3497 1338 3628 
Q 1316 3728 1258 3775 
Q 1200 3822 1119 3822 
Q 1003 3822 797 3725 
L 750 3822 
z
" transform="scale(0.015625)"/>
       </defs>
       <use xlink:href="#TimesNewRomanPSMT-31"/>
       <use xlink:href="#TimesNewRomanPSMT-30" x="50"/>
       <use xlink:href="#TimesNewRomanPSMT-30" x="100"/>
      </g>
     </g>
    </g>
    <g id="xtick_4">
     <g id="line2d_4">
      <g>
       <use xlink:href="#m183691fbb2" x="210.474808" y="256.32" style="stroke: #000000; stroke-width: 0.8"/>
      </g>
     </g>
     <g id="text_4">
      <!-- 150 -->
      <g transform="translate(202.974808 270.26375)scale(0.1 -0.1)">
       <use xlink:href="#TimesNewRomanPSMT-31"/>
       <use xlink:href="#TimesNewRomanPSMT-35" x="50"/>
       <use xlink:href="#TimesNewRomanPSMT-30" x="100"/>
      </g>
     </g>
    </g>
    <g id="xtick_5">
     <g id="line2d_5">
      <g>
       <use xlink:href="#m183691fbb2" x="261.405805" y="256.32" style="stroke: #000000; stroke-width: 0.8"/>
      </g>
     </g>
     <g id="text_5">
      <!-- 200 -->
      <g transform="translate(253.905805 270.26375)scale(0.1 -0.1)">
       <defs>
        <path id="TimesNewRomanPSMT-32" d="M 2934 816 
L 2638 0 
L 138 0 
L 138 116 
Q 1241 1122 1691 1759 
Q 2141 2397 2141 2925 
Q 2141 3328 1894 3587 
Q 1647 3847 1303 3847 
Q 991 3847 742 3664 
Q 494 3481 375 3128 
L 259 3128 
Q 338 3706 661 4015 
Q 984 4325 1469 4325 
Q 1984 4325 2329 3994 
Q 2675 3663 2675 3213 
Q 2675 2891 2525 2569 
Q 2294 2063 1775 1497 
Q 997 647 803 472 
L 1909 472 
Q 2247 472 2383 497 
Q 2519 522 2628 598 
Q 2738 675 2819 816 
L 2934 816 
z
" transform="scale(0.015625)"/>
       </defs>
       <use xlink:href="#TimesNewRomanPSMT-32"/>
       <use xlink:href="#TimesNewRomanPSMT-30" x="50"/>
       <use xlink:href="#TimesNewRomanPSMT-30" x="100"/>
      </g>
     </g>
    </g>
    <g id="xtick_6">
     <g id="line2d_6">
      <g>
       <use xlink:href="#m183691fbb2" x="312.336802" y="256.32" style="stroke: #000000; stroke-width: 0.8"/>
      </g>
     </g>
     <g id="text_6">
      <!-- 250k -->
      <g transform="translate(302.336802 270.26375)scale(0.1 -0.1)">
       <defs>
        <path id="TimesNewRomanPSMT-6b" d="M 1047 4444 
L 1047 1597 
L 1775 2259 
Q 2006 2472 2044 2528 
Q 2069 2566 2069 2603 
Q 2069 2666 2017 2711 
Q 1966 2756 1847 2763 
L 1847 2863 
L 3091 2863 
L 3091 2763 
Q 2834 2756 2664 2684 
Q 2494 2613 2291 2428 
L 1556 1750 
L 2291 822 
Q 2597 438 2703 334 
Q 2853 188 2966 144 
Q 3044 113 3238 113 
L 3238 0 
L 1847 0 
L 1847 113 
Q 1966 116 2008 148 
Q 2050 181 2050 241 
Q 2050 313 1925 472 
L 1047 1594 
L 1047 644 
Q 1047 366 1086 278 
Q 1125 191 1197 153 
Q 1269 116 1509 113 
L 1509 0 
L 53 0 
L 53 113 
Q 272 113 381 166 
Q 447 200 481 272 
Q 528 375 528 628 
L 528 3234 
Q 528 3731 506 3842 
Q 484 3953 434 3995 
Q 384 4038 303 4038 
Q 238 4038 106 3984 
L 53 4094 
L 903 4444 
L 1047 4444 
z
" transform="scale(0.015625)"/>
       </defs>
       <use xlink:href="#TimesNewRomanPSMT-32"/>
       <use xlink:href="#TimesNewRomanPSMT-35" x="50"/>
       <use xlink:href="#TimesNewRomanPSMT-30" x="100"/>
       <use xlink:href="#TimesNewRomanPSMT-6b" x="150"/>
      </g>
     </g>
    </g>
    <g id="text_7">
     <!-- Epochs -->
     <g transform="translate(169.780469 283.346563)scale(0.1 -0.1)">
      <defs>
       <path id="TimesNewRomanPSMT-45" d="M 1338 4006 
L 1338 2331 
L 2269 2331 
Q 2631 2331 2753 2441 
Q 2916 2584 2934 2947 
L 3050 2947 
L 3050 1472 
L 2934 1472 
Q 2891 1781 2847 1869 
Q 2791 1978 2662 2040 
Q 2534 2103 2269 2103 
L 1338 2103 
L 1338 706 
Q 1338 425 1363 364 
Q 1388 303 1450 267 
Q 1513 231 1688 231 
L 2406 231 
Q 2766 231 2928 281 
Q 3091 331 3241 478 
Q 3434 672 3638 1063 
L 3763 1063 
L 3397 0 
L 131 0 
L 131 116 
L 281 116 
Q 431 116 566 188 
Q 666 238 702 338 
Q 738 438 738 747 
L 738 3500 
Q 738 3903 656 3997 
Q 544 4122 281 4122 
L 131 4122 
L 131 4238 
L 3397 4238 
L 3444 3309 
L 3322 3309 
Q 3256 3644 3176 3769 
Q 3097 3894 2941 3959 
Q 2816 4006 2500 4006 
L 1338 4006 
z
" transform="scale(0.015625)"/>
       <path id="TimesNewRomanPSMT-70" d="M -6 2578 
L 875 2934 
L 994 2934 
L 994 2266 
Q 1216 2644 1439 2795 
Q 1663 2947 1909 2947 
Q 2341 2947 2628 2609 
Q 2981 2197 2981 1534 
Q 2981 794 2556 309 
Q 2206 -88 1675 -88 
Q 1444 -88 1275 -22 
Q 1150 25 994 166 
L 994 -706 
Q 994 -1000 1030 -1079 
Q 1066 -1159 1155 -1206 
Q 1244 -1253 1478 -1253 
L 1478 -1369 
L -22 -1369 
L -22 -1253 
L 56 -1253 
Q 228 -1256 350 -1188 
Q 409 -1153 442 -1076 
Q 475 -1000 475 -688 
L 475 2019 
Q 475 2297 450 2372 
Q 425 2447 370 2484 
Q 316 2522 222 2522 
Q 147 2522 31 2478 
L -6 2578 
z
M 994 2081 
L 994 1013 
Q 994 666 1022 556 
Q 1066 375 1236 237 
Q 1406 100 1666 100 
Q 1978 100 2172 344 
Q 2425 663 2425 1241 
Q 2425 1897 2138 2250 
Q 1938 2494 1663 2494 
Q 1513 2494 1366 2419 
Q 1253 2363 994 2081 
z
" transform="scale(0.015625)"/>
       <path id="TimesNewRomanPSMT-6f" d="M 1600 2947 
Q 2250 2947 2644 2453 
Q 2978 2031 2978 1484 
Q 2978 1100 2793 706 
Q 2609 313 2286 112 
Q 1963 -88 1566 -88 
Q 919 -88 538 428 
Q 216 863 216 1403 
Q 216 1797 411 2186 
Q 606 2575 925 2761 
Q 1244 2947 1600 2947 
z
M 1503 2744 
Q 1338 2744 1170 2645 
Q 1003 2547 900 2300 
Q 797 2053 797 1666 
Q 797 1041 1045 587 
Q 1294 134 1700 134 
Q 2003 134 2200 384 
Q 2397 634 2397 1244 
Q 2397 2006 2069 2444 
Q 1847 2744 1503 2744 
z
" transform="scale(0.015625)"/>
       <path id="TimesNewRomanPSMT-63" d="M 2631 1088 
Q 2516 522 2178 217 
Q 1841 -88 1431 -88 
Q 944 -88 581 321 
Q 219 731 219 1428 
Q 219 2103 620 2525 
Q 1022 2947 1584 2947 
Q 2006 2947 2278 2723 
Q 2550 2500 2550 2259 
Q 2550 2141 2473 2067 
Q 2397 1994 2259 1994 
Q 2075 1994 1981 2113 
Q 1928 2178 1911 2362 
Q 1894 2547 1784 2644 
Q 1675 2738 1481 2738 
Q 1169 2738 978 2506 
Q 725 2200 725 1697 
Q 725 1184 976 792 
Q 1228 400 1656 400 
Q 1963 400 2206 609 
Q 2378 753 2541 1131 
L 2631 1088 
z
" transform="scale(0.015625)"/>
       <path id="TimesNewRomanPSMT-68" d="M 1041 4444 
L 1041 2350 
Q 1388 2731 1591 2839 
Q 1794 2947 1997 2947 
Q 2241 2947 2416 2812 
Q 2591 2678 2675 2391 
Q 2734 2191 2734 1659 
L 2734 647 
Q 2734 375 2778 275 
Q 2809 200 2884 156 
Q 2959 113 3159 113 
L 3159 0 
L 1753 0 
L 1753 113 
L 1819 113 
Q 2019 113 2097 173 
Q 2175 234 2206 353 
Q 2216 403 2216 647 
L 2216 1659 
Q 2216 2128 2167 2275 
Q 2119 2422 2012 2495 
Q 1906 2569 1756 2569 
Q 1603 2569 1437 2487 
Q 1272 2406 1041 2159 
L 1041 647 
Q 1041 353 1073 281 
Q 1106 209 1195 161 
Q 1284 113 1503 113 
L 1503 0 
L 84 0 
L 84 113 
Q 275 113 384 172 
Q 447 203 484 290 
Q 522 378 522 647 
L 522 3238 
Q 522 3728 498 3840 
Q 475 3953 426 3993 
Q 378 4034 297 4034 
Q 231 4034 84 3984 
L 41 4094 
L 897 4444 
L 1041 4444 
z
" transform="scale(0.015625)"/>
       <path id="TimesNewRomanPSMT-73" d="M 2050 2947 
L 2050 1972 
L 1947 1972 
Q 1828 2431 1642 2597 
Q 1456 2763 1169 2763 
Q 950 2763 815 2647 
Q 681 2531 681 2391 
Q 681 2216 781 2091 
Q 878 1963 1175 1819 
L 1631 1597 
Q 2266 1288 2266 781 
Q 2266 391 1970 151 
Q 1675 -88 1309 -88 
Q 1047 -88 709 6 
Q 606 38 541 38 
Q 469 38 428 -44 
L 325 -44 
L 325 978 
L 428 978 
Q 516 541 762 319 
Q 1009 97 1316 97 
Q 1531 97 1667 223 
Q 1803 350 1803 528 
Q 1803 744 1651 891 
Q 1500 1038 1047 1263 
Q 594 1488 453 1669 
Q 313 1847 313 2119 
Q 313 2472 555 2709 
Q 797 2947 1181 2947 
Q 1350 2947 1591 2875 
Q 1750 2828 1803 2828 
Q 1853 2828 1881 2850 
Q 1909 2872 1947 2947 
L 2050 2947 
z
" transform="scale(0.015625)"/>
      </defs>
      <use xlink:href="#TimesNewRomanPSMT-45"/>
      <use xlink:href="#TimesNewRomanPSMT-70" x="61.083984"/>
      <use xlink:href="#TimesNewRomanPSMT-6f" x="111.083984"/>
      <use xlink:href="#TimesNewRomanPSMT-63" x="161.083984"/>
      <use xlink:href="#TimesNewRomanPSMT-68" x="205.46875"/>
      <use xlink:href="#TimesNewRomanPSMT-73" x="255.46875"/>
     </g>
    </g>
   </g>
   <g id="matplotlib.axis_2">
    <g id="ytick_1">
     <g id="line2d_7">
      <defs>
       <path id="m01762cbd61" d="M 0 0 
L -3.5 0 
" style="stroke: #000000; stroke-width: 0.8"/>
      </defs>
      <g>
       <use xlink:href="#m01762cbd61" x="45" y="239.3744" style="stroke: #000000; stroke-width: 0.8"/>
      </g>
     </g>
     <g id="text_8">
      <!-- 2 -->
      <g transform="translate(27.360937 242.846275)scale(0.1 -0.1)">
       <defs>
        <path id="TimesNewRomanPSMT-2212" d="M 3484 2000 
L 116 2000 
L 116 2256 
L 3484 2256 
L 3484 2000 
z
" transform="scale(0.015625)"/>
       </defs>
       <use xlink:href="#TimesNewRomanPSMT-2212"/>
       <use xlink:href="#TimesNewRomanPSMT-32" x="56.396484"/>
      </g>
     </g>
    </g>
    <g id="ytick_2">
     <g id="line2d_8">
      <g>
       <use xlink:href="#m01762cbd61" x="45" y="209.356362" style="stroke: #000000; stroke-width: 0.8"/>
      </g>
     </g>
     <g id="text_9">
      <!-- 1 -->
      <g transform="translate(27.360937 212.828237)scale(0.1 -0.1)">
       <use xlink:href="#TimesNewRomanPSMT-2212"/>
       <use xlink:href="#TimesNewRomanPSMT-31" x="56.396484"/>
      </g>
     </g>
    </g>
    <g id="ytick_3">
     <g id="line2d_9">
      <g>
       <use xlink:href="#m01762cbd61" x="45" y="179.338323" style="stroke: #000000; stroke-width: 0.8"/>
      </g>
     </g>
     <g id="text_10">
      <!-- 0 -->
      <g transform="translate(33 182.810198)scale(0.1 -0.1)">
       <use xlink:href="#TimesNewRomanPSMT-30"/>
      </g>
     </g>
    </g>
    <g id="ytick_4">
     <g id="line2d_10">
      <g>
       <use xlink:href="#m01762cbd61" x="45" y="149.320285" style="stroke: #000000; stroke-width: 0.8"/>
      </g>
     </g>
     <g id="text_11">
      <!-- 1 -->
      <g transform="translate(33 152.79216)scale(0.1 -0.1)">
       <use xlink:href="#TimesNewRomanPSMT-31"/>
      </g>
     </g>
    </g>
    <g id="ytick_5">
     <g id="line2d_11">
      <g>
       <use xlink:href="#m01762cbd61" x="45" y="119.302246" style="stroke: #000000; stroke-width: 0.8"/>
      </g>
     </g>
     <g id="text_12">
      <!-- 2 -->
      <g transform="translate(33 122.774121)scale(0.1 -0.1)">
       <use xlink:href="#TimesNewRomanPSMT-32"/>
      </g>
     </g>
    </g>
    <g id="ytick_6">
     <g id="line2d_12">
      <g>
       <use xlink:href="#m01762cbd61" x="45" y="89.284208" style="stroke: #000000; stroke-width: 0.8"/>
      </g>
     </g>
     <g id="text_13">
      <!-- 3 -->
      <g transform="translate(33 92.756083)scale(0.1 -0.1)">
       <defs>
        <path id="TimesNewRomanPSMT-33" d="M 325 3431 
Q 506 3859 782 4092 
Q 1059 4325 1472 4325 
Q 1981 4325 2253 3994 
Q 2459 3747 2459 3466 
Q 2459 3003 1878 2509 
Q 2269 2356 2469 2072 
Q 2669 1788 2669 1403 
Q 2669 853 2319 450 
Q 1863 -75 997 -75 
Q 569 -75 414 31 
Q 259 138 259 259 
Q 259 350 332 419 
Q 406 488 509 488 
Q 588 488 669 463 
Q 722 447 909 348 
Q 1097 250 1169 231 
Q 1284 197 1416 197 
Q 1734 197 1970 444 
Q 2206 691 2206 1028 
Q 2206 1275 2097 1509 
Q 2016 1684 1919 1775 
Q 1784 1900 1550 2001 
Q 1316 2103 1072 2103 
L 972 2103 
L 972 2197 
Q 1219 2228 1467 2375 
Q 1716 2522 1828 2728 
Q 1941 2934 1941 3181 
Q 1941 3503 1739 3701 
Q 1538 3900 1238 3900 
Q 753 3900 428 3381 
L 325 3431 
z
" transform="scale(0.015625)"/>
       </defs>
       <use xlink:href="#TimesNewRomanPSMT-33"/>
      </g>
     </g>
    </g>
    <g id="ytick_7">
     <g id="line2d_13">
      <g>
       <use xlink:href="#m01762cbd61" x="45" y="59.266169" style="stroke: #000000; stroke-width: 0.8"/>
      </g>
     </g>
     <g id="text_14">
      <!-- 4 -->
      <g transform="translate(33 62.738044)scale(0.1 -0.1)">
       <defs>
        <path id="TimesNewRomanPSMT-34" d="M 2978 1563 
L 2978 1119 
L 2409 1119 
L 2409 0 
L 1894 0 
L 1894 1119 
L 100 1119 
L 100 1519 
L 2066 4325 
L 2409 4325 
L 2409 1563 
L 2978 1563 
z
M 1894 1563 
L 1894 3666 
L 406 1563 
L 1894 1563 
z
" transform="scale(0.015625)"/>
       </defs>
       <use xlink:href="#TimesNewRomanPSMT-34"/>
      </g>
     </g>
    </g>
    <g id="text_15">
     <!-- Loss ($\log_{10}$) -->
     <g transform="translate(21.160937 169.69)rotate(-90)scale(0.1 -0.1)">
      <defs>
       <path id="TimesNewRomanPSMT-4c" d="M 3669 1172 
L 3772 1150 
L 3409 0 
L 128 0 
L 128 116 
L 288 116 
Q 556 116 672 291 
Q 738 391 738 753 
L 738 3488 
Q 738 3884 650 3984 
Q 528 4122 288 4122 
L 128 4122 
L 128 4238 
L 2047 4238 
L 2047 4122 
Q 1709 4125 1573 4059 
Q 1438 3994 1388 3894 
Q 1338 3794 1338 3416 
L 1338 753 
Q 1338 494 1388 397 
Q 1425 331 1503 300 
Q 1581 269 1991 269 
L 2300 269 
Q 2788 269 2984 341 
Q 3181 413 3343 595 
Q 3506 778 3669 1172 
z
" transform="scale(0.015625)"/>
       <path id="TimesNewRomanPSMT-20" transform="scale(0.015625)"/>
       <path id="TimesNewRomanPSMT-28" d="M 1988 -1253 
L 1988 -1369 
Q 1516 -1131 1200 -813 
Q 750 -359 506 256 
Q 263 872 263 1534 
Q 263 2503 741 3301 
Q 1219 4100 1988 4444 
L 1988 4313 
Q 1603 4100 1356 3731 
Q 1109 3363 987 2797 
Q 866 2231 866 1616 
Q 866 947 969 400 
Q 1050 -31 1165 -292 
Q 1281 -553 1476 -793 
Q 1672 -1034 1988 -1253 
z
" transform="scale(0.015625)"/>
       <path id="STIXGeneral-Regular-6c" d="M 1645 0 
L 134 0 
L 134 96 
Q 435 122 531 221 
Q 627 320 627 589 
L 627 3590 
Q 627 3821 569 3910 
Q 512 4000 358 4000 
Q 224 4000 122 3987 
L 122 4090 
Q 730 4237 1133 4371 
L 1165 4346 
L 1165 557 
Q 1165 288 1254 201 
Q 1344 115 1645 96 
L 1645 0 
z
" transform="scale(0.015625)"/>
       <path id="STIXGeneral-Regular-6f" d="M 3008 1478 
Q 3008 806 2608 371 
Q 2208 -64 1568 -64 
Q 979 -64 582 368 
Q 186 800 186 1459 
Q 186 2125 582 2534 
Q 979 2944 1626 2944 
Q 2221 2944 2614 2537 
Q 3008 2131 3008 1478 
z
M 2432 1306 
Q 2432 2035 2112 2445 
Q 1856 2765 1504 2765 
Q 1171 2765 966 2493 
Q 762 2221 762 1747 
Q 762 928 1101 435 
Q 1318 115 1677 115 
Q 2029 115 2230 432 
Q 2432 749 2432 1306 
z
" transform="scale(0.015625)"/>
       <path id="STIXGeneral-Regular-67" d="M 3008 2483 
L 2477 2483 
Q 2598 2208 2598 1946 
Q 2598 1453 2265 1203 
Q 1933 954 1600 954 
Q 1530 954 1357 973 
L 1235 986 
Q 1107 947 979 812 
Q 851 678 851 582 
Q 851 435 1350 410 
L 2176 371 
Q 2528 358 2739 172 
Q 2950 -13 2950 -314 
Q 2950 -685 2566 -986 
Q 2035 -1395 1286 -1395 
Q 826 -1395 502 -1212 
Q 179 -1030 179 -774 
Q 179 -595 320 -419 
Q 461 -243 806 6 
Q 602 102 534 172 
Q 467 243 467 346 
Q 467 531 762 787 
Q 909 915 1037 1043 
Q 717 1203 579 1401 
Q 442 1600 442 1901 
Q 442 2336 752 2640 
Q 1062 2944 1510 2944 
Q 1766 2944 2022 2848 
L 2163 2797 
Q 2349 2733 2515 2733 
L 3008 2733 
L 3008 2483 
z
M 973 2163 
L 973 2144 
Q 973 1683 1155 1398 
Q 1338 1114 1632 1114 
Q 1850 1114 1978 1270 
Q 2106 1427 2106 1690 
Q 2106 2112 1914 2464 
Q 1754 2765 1446 2765 
Q 1222 2765 1097 2605 
Q 973 2445 973 2163 
z
M 2771 -410 
Q 2771 -230 2595 -163 
Q 2419 -96 1978 -96 
Q 1344 -96 941 -13 
Q 749 -243 688 -348 
Q 627 -454 627 -563 
Q 627 -774 880 -902 
Q 1133 -1030 1555 -1030 
Q 2099 -1030 2435 -860 
Q 2771 -691 2771 -410 
z
" transform="scale(0.015625)"/>
       <path id="STIXGeneral-Regular-31" d="M 2522 0 
L 755 0 
L 755 96 
Q 1107 115 1235 227 
Q 1363 339 1363 608 
L 1363 3482 
Q 1363 3795 1171 3795 
Q 1082 3795 883 3718 
L 710 3654 
L 710 3744 
L 1856 4326 
L 1914 4307 
L 1914 486 
Q 1914 275 2042 185 
Q 2170 96 2522 96 
L 2522 0 
z
" transform="scale(0.015625)"/>
       <path id="STIXGeneral-Regular-30" d="M 3046 2112 
Q 3046 1683 2963 1302 
Q 2880 922 2717 602 
Q 2554 282 2266 96 
Q 1978 -90 1600 -90 
Q 1210 -90 915 108 
Q 621 307 461 640 
Q 301 973 227 1350 
Q 154 1728 154 2150 
Q 154 2746 301 3222 
Q 448 3699 790 4012 
Q 1133 4326 1626 4326 
Q 2253 4326 2649 3712 
Q 3046 3098 3046 2112 
z
M 2432 2080 
Q 2432 3091 2217 3625 
Q 2003 4160 1587 4160 
Q 1190 4160 979 3622 
Q 768 3085 768 2106 
Q 768 1120 979 598 
Q 1190 77 1600 77 
Q 2003 77 2217 598 
Q 2432 1120 2432 2080 
z
" transform="scale(0.015625)"/>
       <path id="TimesNewRomanPSMT-29" d="M 144 4313 
L 144 4444 
Q 619 4209 934 3891 
Q 1381 3434 1625 2820 
Q 1869 2206 1869 1541 
Q 1869 572 1392 -226 
Q 916 -1025 144 -1369 
L 144 -1253 
Q 528 -1038 776 -670 
Q 1025 -303 1145 264 
Q 1266 831 1266 1447 
Q 1266 2113 1163 2663 
Q 1084 3094 967 3353 
Q 850 3613 656 3853 
Q 463 4094 144 4313 
z
" transform="scale(0.015625)"/>
      </defs>
      <use xlink:href="#TimesNewRomanPSMT-4c" transform="translate(0 0.5625)"/>
      <use xlink:href="#TimesNewRomanPSMT-6f" transform="translate(61.083984 0.5625)"/>
      <use xlink:href="#TimesNewRomanPSMT-73" transform="translate(111.083984 0.5625)"/>
      <use xlink:href="#TimesNewRomanPSMT-73" transform="translate(150 0.5625)"/>
      <use xlink:href="#TimesNewRomanPSMT-20" transform="translate(188.916016 0.5625)"/>
      <use xlink:href="#TimesNewRomanPSMT-28" transform="translate(213.916016 0.5625)"/>
      <use xlink:href="#STIXGeneral-Regular-6c" transform="translate(247.216797 0.5625)"/>
      <use xlink:href="#STIXGeneral-Regular-6f" transform="translate(275.016785 0.5625)"/>
      <use xlink:href="#STIXGeneral-Regular-67" transform="translate(325.016769 0.5625)"/>
      <use xlink:href="#STIXGeneral-Regular-31" transform="translate(376.560035 -12.665625)scale(0.7)"/>
      <use xlink:href="#STIXGeneral-Regular-30" transform="translate(411.560025 -12.665625)scale(0.7)"/>
      <use xlink:href="#TimesNewRomanPSMT-29" transform="translate(450.969389 0.5625)"/>
     </g>
    </g>
   </g>
   <g id="line2d_14">
    <path d="M 57.681818 66.903235 
L 58.700438 74.166652 
L 59.719058 83.38418 
L 60.737678 93.617746 
L 62.774918 107.492542 
L 63.793538 113.070497 
L 67.868018 129.478182 
L 68.886637 132.17143 
L 70.923877 139.935561 
L 72.961117 146.410947 
L 73.979737 150.373603 
L 74.998357 152.384754 
L 76.016977 154.086173 
L 77.035597 156.268089 
L 78.054217 158.974211 
L 79.072837 160.887362 
L 80.091457 163.572003 
L 82.128697 167.542712 
L 83.147317 168.536047 
L 84.165936 170.400076 
L 86.203176 173.327356 
L 87.221796 174.380978 
L 88.240416 176.010495 
L 89.259036 176.673891 
L 90.277656 177.835715 
L 92.314896 180.863727 
L 93.333516 181.836631 
L 94.352136 183.316188 
L 95.370756 183.847179 
L 96.389376 183.62081 
L 97.407996 183.877447 
L 98.426616 184.571224 
L 99.445235 185.66181 
L 100.463855 187.183265 
L 101.482475 189.548972 
L 102.501095 191.072391 
L 104.538335 193.462429 
L 107.594195 196.394349 
L 108.612815 196.312973 
L 110.650055 197.099321 
L 111.668675 197.269534 
L 112.687295 197.582326 
L 113.705915 199.117053 
L 114.724535 199.915681 
L 116.761774 201.101216 
L 117.780394 201.04092 
L 120.836254 201.822646 
L 121.854874 200.282775 
L 124.910734 200.623396 
L 125.929354 200.278106 
L 126.947974 201.722222 
L 127.966594 202.070382 
L 130.003834 202.308702 
L 131.022453 202.232797 
L 132.041073 202.592434 
L 134.078313 203.133753 
L 135.096933 203.523379 
L 136.115553 204.765513 
L 138.152793 206.615341 
L 139.171413 206.669657 
L 140.190033 205.859847 
L 141.208653 205.851689 
L 142.227273 205.667273 
L 143.245893 206.127896 
L 144.264513 206.867028 
L 145.283133 208.381147 
L 146.301752 208.52006 
L 147.320372 209.04005 
L 149.357612 209.392821 
L 150.376232 209.676837 
L 154.450712 209.552896 
L 155.469332 208.490277 
L 156.487952 209.273999 
L 157.506572 207.942126 
L 159.543812 208.88222 
L 160.562432 209.998416 
L 161.581051 210.239167 
L 162.599671 212.115717 
L 164.636911 212.435876 
L 166.674151 213.267568 
L 167.692771 214.07682 
L 168.711391 214.538869 
L 169.730011 215.13689 
L 170.748631 215.333138 
L 172.785871 215.157549 
L 177.87897 215.915564 
L 178.89759 215.580579 
L 179.91621 214.921767 
L 180.93483 215.058261 
L 181.95345 215.071938 
L 183.99069 214.699754 
L 185.00931 214.395715 
L 187.04655 214.266723 
L 188.06517 214.900356 
L 189.08379 215.401642 
L 190.10241 216.419744 
L 191.12103 216.839898 
L 192.13965 217.755895 
L 193.158269 217.584334 
L 195.195509 218.820549 
L 197.232749 218.457632 
L 198.251369 219.147094 
L 200.288609 219.382672 
L 201.307229 219.856153 
L 202.325849 220.202631 
L 203.344469 220.266422 
L 204.363089 220.170543 
L 205.381709 218.147989 
L 206.400329 218.202252 
L 207.418949 218.40565 
L 208.437568 217.97036 
L 209.456188 218.138189 
L 210.474808 220.385704 
L 212.512048 220.735994 
L 213.530668 220.638521 
L 214.549288 221.093066 
L 215.567908 220.974872 
L 216.586528 221.05296 
L 217.605148 220.523525 
L 218.623768 221.229952 
L 219.642388 221.478857 
L 220.661008 221.434667 
L 222.698248 221.556765 
L 224.735487 220.409206 
L 225.754107 219.70006 
L 226.772727 219.373071 
L 228.809967 220.570654 
L 229.828587 219.675652 
L 231.865827 220.986443 
L 232.884447 220.814566 
L 233.903067 220.84409 
L 234.921687 221.785833 
L 235.940307 222.432397 
L 236.958927 222.0525 
L 237.977547 222.488681 
L 238.996166 223.060419 
L 240.014786 223.907411 
L 241.033406 222.747668 
L 242.052026 222.623078 
L 243.070646 221.42486 
L 244.089266 220.520725 
L 245.107886 220.312122 
L 246.126506 221.587628 
L 247.145126 222.077809 
L 248.163746 223.334853 
L 249.182366 224.247637 
L 251.219606 224.490876 
L 252.238226 224.80926 
L 253.256846 224.714309 
L 254.275465 224.859213 
L 255.294085 225.178549 
L 256.312705 224.845591 
L 257.331325 223.650933 
L 258.349945 223.408993 
L 259.368565 222.029617 
L 260.387185 222.457012 
L 261.405805 221.797889 
L 262.424425 222.705731 
L 263.443045 223.836966 
L 264.461665 225.559717 
L 265.480285 225.512755 
L 266.498905 226.666363 
L 267.517525 226.414774 
L 268.536145 226.347553 
L 269.554765 225.984116 
L 270.573384 225.924309 
L 271.592004 226.190058 
L 272.610624 227.34524 
L 273.629244 226.86901 
L 275.666484 225.024481 
L 276.685104 224.649753 
L 277.703724 223.952131 
L 278.722344 224.101312 
L 279.740964 224.763406 
L 280.759584 225.849089 
L 281.778204 225.727853 
L 282.796824 226.134197 
L 283.815444 226.758537 
L 284.834064 227.03079 
L 285.852683 226.819751 
L 286.871303 227.596212 
L 287.889923 227.878604 
L 288.908543 227.700595 
L 290.945783 227.711381 
L 291.964403 227.902521 
L 294.001643 227.521709 
L 295.020263 228.181532 
L 296.038883 227.764674 
L 297.057503 227.752079 
L 298.076123 227.511244 
L 300.113363 225.826976 
L 301.131982 226.515581 
L 302.150602 226.446243 
L 303.169222 227.254625 
L 304.187842 228.467554 
L 305.206462 228.843617 
L 306.225082 229.093736 
L 307.243702 228.949155 
L 308.262322 228.966631 
L 309.280942 228.625116 
L 310.299562 228.58513 
L 311.318182 228.097777 
L 311.318182 228.097777 
" clip-path="url(#p6d837145fc)" style="fill: none; stroke: #ff0000; stroke-width: 1.5; stroke-linecap: square"/>
   </g>
   <g id="line2d_15">
    <path d="M 57.681818 70.232572 
L 58.700438 77.90993 
L 59.719058 87.529881 
L 61.756298 109.270621 
L 63.793538 127.678982 
L 65.830778 143.000584 
L 66.849398 148.838464 
L 67.868018 153.790229 
L 68.886637 158.16962 
L 69.905257 161.995063 
L 70.923877 165.349056 
L 71.942497 168.273527 
L 72.961117 170.680407 
L 74.998357 174.606569 
L 77.035597 177.522697 
L 81.110077 181.495564 
L 84.165936 183.753463 
L 88.240416 185.74411 
L 89.259036 185.907351 
L 91.296276 186.862321 
L 92.314896 187.084551 
L 93.333516 187.442583 
L 94.352136 187.925044 
L 96.389376 188.588695 
L 97.407996 189.153956 
L 100.463855 190.30042 
L 101.482475 190.305349 
L 104.538335 190.928762 
L 105.556955 190.730919 
L 107.594195 191.109751 
L 108.612815 191.007548 
L 109.631435 191.046416 
L 116.761774 193.160846 
L 118.799014 193.20381 
L 119.817634 193.182468 
L 122.873494 193.683162 
L 125.929354 194.252891 
L 126.947974 194.349623 
L 128.985214 193.911808 
L 131.022453 194.280286 
L 132.041073 194.281961 
L 133.059693 194.455424 
L 134.078313 194.775788 
L 135.096933 194.539618 
L 138.152793 194.888858 
L 140.190033 195.674157 
L 142.227273 195.96724 
L 144.264513 196.255551 
L 145.283133 196.404352 
L 146.301752 196.306357 
L 147.320372 196.369446 
L 148.338992 196.223649 
L 149.357612 196.318014 
L 150.376232 196.038807 
L 151.394852 196.228072 
L 152.413472 195.867735 
L 154.450712 195.778051 
L 155.469332 195.623236 
L 156.487952 195.331482 
L 157.506572 195.835606 
L 158.525192 195.695743 
L 159.543812 195.894539 
L 160.562432 196.573237 
L 161.581051 197.006743 
L 162.599671 197.124769 
L 163.618291 197.844163 
L 165.655531 198.002626 
L 166.674151 197.814948 
L 167.692771 197.372798 
L 168.711391 197.394763 
L 170.748631 196.703333 
L 171.767251 197.071047 
L 172.785871 197.637712 
L 173.804491 197.610623 
L 174.823111 197.346258 
L 175.841731 197.721004 
L 176.86035 197.601628 
L 177.87897 197.270423 
L 178.89759 197.149393 
L 181.95345 197.72231 
L 182.97207 198.028964 
L 183.99069 197.978659 
L 185.00931 198.703943 
L 186.02793 198.462895 
L 187.04655 198.437574 
L 188.06517 198.642302 
L 189.08379 199.060168 
L 190.10241 198.226642 
L 191.12103 198.535216 
L 192.13965 198.611009 
L 193.158269 198.461841 
L 194.176889 197.878681 
L 195.195509 198.463025 
L 196.214129 198.083101 
L 197.232749 198.015207 
L 198.251369 198.308457 
L 199.269989 199.072223 
L 201.307229 200.016632 
L 202.325849 200.203123 
L 203.344469 200.260885 
L 204.363089 199.950831 
L 206.400329 200.028922 
L 207.418949 199.383669 
L 208.437568 199.419761 
L 209.456188 199.798667 
L 211.493428 199.81161 
L 212.512048 200.34099 
L 213.530668 200.363095 
L 214.549288 200.0799 
L 216.586528 200.352927 
L 217.605148 200.70858 
L 218.623768 200.686003 
L 220.661008 200.765571 
L 221.679628 200.398115 
L 222.698248 200.406917 
L 224.735487 200.703928 
L 225.754107 200.46058 
L 226.772727 200.793296 
L 227.791347 200.670959 
L 228.809967 200.318847 
L 230.847207 201.1153 
L 231.865827 200.893363 
L 232.884447 201.066448 
L 233.903067 201.515606 
L 234.921687 201.449003 
L 235.940307 200.770155 
L 236.958927 201.221189 
L 237.977547 201.294577 
L 238.996166 200.626997 
L 240.014786 200.778619 
L 242.052026 200.320722 
L 243.070646 200.44755 
L 244.089266 201.217962 
L 245.107886 201.086194 
L 246.126506 201.666326 
L 247.145126 201.622305 
L 248.163746 201.247118 
L 249.182366 201.305898 
L 250.200986 200.861468 
L 251.219606 201.371627 
L 252.238226 201.599512 
L 253.256846 202.016115 
L 254.275465 201.824942 
L 255.294085 202.309126 
L 256.312705 202.185254 
L 258.349945 202.174096 
L 259.368565 201.919347 
L 260.387185 202.234296 
L 261.405805 201.698835 
L 263.443045 201.825017 
L 264.461665 201.995035 
L 265.480285 201.078666 
L 266.498905 201.821609 
L 268.536145 201.995467 
L 269.554765 202.427454 
L 270.573384 203.419906 
L 271.592004 203.330778 
L 272.610624 203.492914 
L 273.629244 203.379888 
L 274.647864 203.379914 
L 275.666484 203.080668 
L 277.703724 203.235504 
L 278.722344 202.887774 
L 279.740964 202.388982 
L 280.759584 202.295274 
L 281.778204 202.528979 
L 282.796824 201.904953 
L 283.815444 202.284177 
L 285.852683 202.576325 
L 286.871303 202.079998 
L 287.889923 202.849974 
L 290.945783 203.619828 
L 291.964403 204.214442 
L 292.983023 204.258736 
L 294.001643 203.785501 
L 295.020263 203.708023 
L 297.057503 203.868176 
L 298.076123 203.164749 
L 299.094743 203.310599 
L 300.113363 203.110447 
L 301.131982 202.638302 
L 302.150602 202.643813 
L 303.169222 203.409162 
L 305.206462 203.539392 
L 306.225082 204.050926 
L 307.243702 203.171572 
L 308.262322 203.206172 
L 309.280942 203.001845 
L 310.299562 203.414717 
L 311.318182 203.150201 
L 311.318182 203.150201 
" clip-path="url(#p6d837145fc)" style="fill: none; stroke: #0000ff; stroke-width: 1.5; stroke-linecap: square"/>
   </g>
   <g id="line2d_16">
    <path d="M 57.681818 68.97537 
L 58.700438 79.010672 
L 59.719058 91.435693 
L 60.737678 105.228126 
L 61.756298 115.204005 
L 62.774918 123.291572 
L 63.793538 130.014327 
L 64.812158 135.550867 
L 66.849398 144.080295 
L 68.886637 150.466689 
L 71.942497 157.229997 
L 72.961117 159.156676 
L 73.979737 161.508961 
L 74.998357 163.306118 
L 76.016977 165.826832 
L 77.035597 166.392107 
L 78.054217 166.075091 
L 79.072837 165.493028 
L 80.091457 166.322753 
L 81.110077 165.952438 
L 82.128697 166.850279 
L 84.165936 171.337922 
L 85.184556 170.405162 
L 86.203176 170.666728 
L 87.221796 169.121409 
L 89.259036 167.951544 
L 90.277656 169.378249 
L 91.296276 169.692635 
L 92.314896 171.001107 
L 93.333516 171.650148 
L 94.352136 172.15224 
L 95.370756 171.821904 
L 96.389376 173.020616 
L 97.407996 174.555325 
L 99.445235 173.604003 
L 100.463855 174.348407 
L 101.482475 175.358334 
L 102.501095 174.519983 
L 103.519715 175.712136 
L 104.538335 177.148912 
L 105.556955 177.950952 
L 106.575575 178.435154 
L 107.594195 179.316368 
L 108.612815 180.390042 
L 109.631435 180.359886 
L 110.650055 180.063516 
L 111.668675 179.983302 
L 112.687295 181.322223 
L 113.705915 181.768881 
L 114.724535 181.83413 
L 115.743154 183.382485 
L 116.761774 184.29881 
L 117.780394 184.567226 
L 118.799014 184.708066 
L 119.817634 186.083417 
L 120.836254 186.894298 
L 121.854874 186.666529 
L 123.892114 190.042132 
L 125.929354 191.814357 
L 126.947974 192.157061 
L 127.966594 192.036423 
L 128.985214 192.484029 
L 130.003834 193.166972 
L 131.022453 193.461872 
L 132.041073 194.359687 
L 133.059693 194.524676 
L 134.078313 193.803607 
L 135.096933 194.334641 
L 136.115553 194.483515 
L 137.134173 195.316023 
L 138.152793 196.494153 
L 139.171413 197.410948 
L 140.190033 196.272035 
L 141.208653 196.489337 
L 143.245893 193.371723 
L 144.264513 191.401981 
L 145.283133 192.235299 
L 146.301752 190.378592 
L 147.320372 189.769877 
L 148.338992 188.97939 
L 149.357612 189.177796 
L 150.376232 188.059784 
L 151.394852 188.149184 
L 152.413472 188.782298 
L 153.432092 190.001185 
L 154.450712 190.378772 
L 155.469332 191.503286 
L 156.487952 192.224901 
L 158.525192 192.451135 
L 159.543812 192.913568 
L 160.562432 193.630358 
L 162.599671 197.17989 
L 163.618291 197.044835 
L 164.636911 197.954194 
L 165.655531 196.688918 
L 166.674151 195.177705 
L 167.692771 195.055056 
L 168.711391 195.298901 
L 169.730011 194.411412 
L 170.748631 195.495514 
L 171.767251 196.340497 
L 172.785871 195.892126 
L 173.804491 196.652137 
L 174.823111 197.682193 
L 175.841731 197.617398 
L 176.86035 197.7949 
L 177.87897 197.331375 
L 178.89759 198.140706 
L 179.91621 197.656774 
L 180.93483 197.794259 
L 182.97207 197.592832 
L 183.99069 196.485343 
L 185.00931 197.465154 
L 186.02793 195.341012 
L 187.04655 193.626732 
L 188.06517 193.708864 
L 189.08379 193.023486 
L 190.10241 191.186306 
L 191.12103 191.303305 
L 192.13965 193.406709 
L 193.158269 194.112621 
L 194.176889 193.820405 
L 195.195509 191.558308 
L 196.214129 191.349487 
L 197.232749 188.958175 
L 198.251369 187.893618 
L 199.269989 187.871285 
L 200.288609 189.504855 
L 202.325849 191.550929 
L 203.344469 191.834964 
L 204.363089 192.599112 
L 205.381709 194.180756 
L 206.400329 194.810264 
L 207.418949 196.319617 
L 208.437568 198.297283 
L 209.456188 199.026052 
L 210.474808 200.464882 
L 211.493428 200.576812 
L 212.512048 199.788364 
L 213.530668 200.431433 
L 215.567908 200.967042 
L 216.586528 202.580636 
L 217.605148 203.466676 
L 218.623768 202.65725 
L 219.642388 203.529792 
L 221.679628 204.788507 
L 222.698248 206.217754 
L 223.716867 205.625369 
L 224.735487 204.701197 
L 225.754107 204.203943 
L 226.772727 204.529497 
L 227.791347 202.103418 
L 229.828587 203.042881 
L 230.847207 201.869604 
L 231.865827 200.484155 
L 232.884447 202.452756 
L 233.903067 203.181952 
L 234.921687 204.069632 
L 235.940307 205.171899 
L 236.958927 205.594394 
L 237.977547 204.510975 
L 238.996166 204.804954 
L 240.014786 204.249562 
L 241.033406 201.834552 
L 242.052026 200.210253 
L 243.070646 200.35628 
L 244.089266 196.074794 
L 245.107886 193.637364 
L 246.126506 193.375062 
L 247.145126 194.074603 
L 248.163746 192.629243 
L 249.182366 194.440622 
L 250.200986 193.644513 
L 251.219606 193.496458 
L 252.238226 192.220776 
L 253.256846 191.384724 
L 254.275465 190.013966 
L 255.294085 190.997332 
L 256.312705 191.521746 
L 257.331325 191.866317 
L 258.349945 192.79531 
L 259.368565 194.175502 
L 261.405805 195.278075 
L 262.424425 195.535025 
L 263.443045 196.415603 
L 264.461665 197.701778 
L 265.480285 199.400196 
L 266.498905 200.432588 
L 267.517525 201.980509 
L 269.554765 204.222219 
L 270.573384 204.25113 
L 271.592004 203.430476 
L 272.610624 204.101939 
L 273.629244 203.84393 
L 274.647864 202.227504 
L 276.685104 200.774349 
L 277.703724 200.597595 
L 278.722344 200.908534 
L 279.740964 201.097394 
L 280.759584 200.714487 
L 281.778204 201.970533 
L 282.796824 202.284706 
L 283.815444 201.19669 
L 284.834064 202.186835 
L 286.871303 202.866457 
L 287.889923 200.78063 
L 289.927163 200.350727 
L 290.945783 199.146662 
L 291.964403 198.779418 
L 292.983023 200.125322 
L 294.001643 199.992685 
L 295.020263 200.198291 
L 296.038883 202.11207 
L 298.076123 201.471596 
L 299.094743 202.261356 
L 301.131982 201.079052 
L 302.150602 202.589491 
L 303.169222 202.177944 
L 304.187842 202.805355 
L 305.206462 202.752521 
L 306.225082 203.906748 
L 309.280942 205.399057 
L 310.299562 206.856581 
L 311.318182 206.964122 
L 311.318182 206.964122 
" clip-path="url(#p6d837145fc)" style="fill: none; stroke: #008000; stroke-width: 1.5; stroke-linecap: square"/>
   </g>
   <g id="patch_3">
    <path d="M 45 256.32 
L 45 34.56 
" style="fill: none; stroke: #000000; stroke-width: 0.8; stroke-linejoin: miter; stroke-linecap: square"/>
   </g>
   <g id="patch_4">
    <path d="M 324 256.32 
L 324 34.56 
" style="fill: none; stroke: #000000; stroke-width: 0.8; stroke-linejoin: miter; stroke-linecap: square"/>
   </g>
   <g id="patch_5">
    <path d="M 45 256.32 
L 324 256.32 
" style="fill: none; stroke: #000000; stroke-width: 0.8; stroke-linejoin: miter; stroke-linecap: square"/>
   </g>
   <g id="patch_6">
    <path d="M 45 34.56 
L 324 34.56 
" style="fill: none; stroke: #000000; stroke-width: 0.8; stroke-linejoin: miter; stroke-linecap: square"/>
   </g>
   <g id="legend_1">
    <g id="patch_7">
     <path d="M 252.2125 84.977188 
L 317 84.977188 
Q 319 84.977188 319 82.977188 
L 319 41.56 
Q 319 39.56 317 39.56 
L 252.2125 39.56 
Q 250.2125 39.56 250.2125 41.56 
L 250.2125 82.977188 
Q 250.2125 84.977188 252.2125 84.977188 
z
" style="fill: #ffffff; opacity: 0.8; stroke: #cccccc; stroke-linejoin: miter"/>
    </g>
    <g id="line2d_17">
     <path d="M 254.2125 47.06 
L 264.2125 47.06 
L 274.2125 47.06 
" style="fill: none; stroke: #ff0000; stroke-width: 1.5; stroke-linecap: square"/>
    </g>
    <g id="text_16">
     <!-- FPSNN -->
     <g transform="translate(282.2125 50.56)scale(0.1 -0.1)">
      <defs>
       <path id="TimesNewRomanPSMT-46" d="M 1309 4006 
L 1309 2341 
L 2081 2341 
Q 2347 2341 2470 2458 
Q 2594 2575 2634 2922 
L 2750 2922 
L 2750 1488 
L 2634 1488 
Q 2631 1734 2570 1850 
Q 2509 1966 2401 2023 
Q 2294 2081 2081 2081 
L 1309 2081 
L 1309 750 
Q 1309 428 1350 325 
Q 1381 247 1481 191 
Q 1619 116 1769 116 
L 1922 116 
L 1922 0 
L 103 0 
L 103 116 
L 253 116 
Q 516 116 634 269 
Q 709 369 709 750 
L 709 3488 
Q 709 3809 669 3913 
Q 638 3991 541 4047 
Q 406 4122 253 4122 
L 103 4122 
L 103 4238 
L 3256 4238 
L 3297 3306 
L 3188 3306 
Q 3106 3603 2998 3742 
Q 2891 3881 2733 3943 
Q 2575 4006 2244 4006 
L 1309 4006 
z
" transform="scale(0.015625)"/>
       <path id="TimesNewRomanPSMT-50" d="M 1313 1984 
L 1313 750 
Q 1313 350 1400 253 
Q 1519 116 1759 116 
L 1922 116 
L 1922 0 
L 106 0 
L 106 116 
L 266 116 
Q 534 116 650 291 
Q 713 388 713 750 
L 713 3488 
Q 713 3888 628 3984 
Q 506 4122 266 4122 
L 106 4122 
L 106 4238 
L 1659 4238 
Q 2228 4238 2556 4120 
Q 2884 4003 3109 3725 
Q 3334 3447 3334 3066 
Q 3334 2547 2992 2222 
Q 2650 1897 2025 1897 
Q 1872 1897 1694 1919 
Q 1516 1941 1313 1984 
z
M 1313 2163 
Q 1478 2131 1606 2115 
Q 1734 2100 1825 2100 
Q 2150 2100 2386 2351 
Q 2622 2603 2622 3003 
Q 2622 3278 2509 3514 
Q 2397 3750 2190 3867 
Q 1984 3984 1722 3984 
Q 1563 3984 1313 3925 
L 1313 2163 
z
" transform="scale(0.015625)"/>
       <path id="TimesNewRomanPSMT-53" d="M 2934 4334 
L 2934 2869 
L 2819 2869 
Q 2763 3291 2617 3541 
Q 2472 3791 2203 3937 
Q 1934 4084 1647 4084 
Q 1322 4084 1109 3886 
Q 897 3688 897 3434 
Q 897 3241 1031 3081 
Q 1225 2847 1953 2456 
Q 2547 2138 2764 1967 
Q 2981 1797 3098 1565 
Q 3216 1334 3216 1081 
Q 3216 600 2842 251 
Q 2469 -97 1881 -97 
Q 1697 -97 1534 -69 
Q 1438 -53 1133 45 
Q 828 144 747 144 
Q 669 144 623 97 
Q 578 50 556 -97 
L 441 -97 
L 441 1356 
L 556 1356 
Q 638 900 775 673 
Q 913 447 1195 297 
Q 1478 147 1816 147 
Q 2206 147 2432 353 
Q 2659 559 2659 841 
Q 2659 997 2573 1156 
Q 2488 1316 2306 1453 
Q 2184 1547 1640 1851 
Q 1097 2156 867 2337 
Q 638 2519 519 2737 
Q 400 2956 400 3219 
Q 400 3675 750 4004 
Q 1100 4334 1641 4334 
Q 1978 4334 2356 4169 
Q 2531 4091 2603 4091 
Q 2684 4091 2736 4139 
Q 2788 4188 2819 4334 
L 2934 4334 
z
" transform="scale(0.015625)"/>
       <path id="TimesNewRomanPSMT-4e" d="M -84 4238 
L 1066 4238 
L 3656 1059 
L 3656 3503 
Q 3656 3894 3569 3991 
Q 3453 4122 3203 4122 
L 3056 4122 
L 3056 4238 
L 4531 4238 
L 4531 4122 
L 4381 4122 
Q 4113 4122 4000 3959 
Q 3931 3859 3931 3503 
L 3931 -69 
L 3819 -69 
L 1025 3344 
L 1025 734 
Q 1025 344 1109 247 
Q 1228 116 1475 116 
L 1625 116 
L 1625 0 
L 150 0 
L 150 116 
L 297 116 
Q 569 116 681 278 
Q 750 378 750 734 
L 750 3681 
Q 566 3897 470 3965 
Q 375 4034 191 4094 
Q 100 4122 -84 4122 
L -84 4238 
z
" transform="scale(0.015625)"/>
      </defs>
      <use xlink:href="#TimesNewRomanPSMT-46"/>
      <use xlink:href="#TimesNewRomanPSMT-50" x="55.615234"/>
      <use xlink:href="#TimesNewRomanPSMT-53" x="111.230469"/>
      <use xlink:href="#TimesNewRomanPSMT-4e" x="166.845703"/>
      <use xlink:href="#TimesNewRomanPSMT-4e" x="239.0625"/>
     </g>
    </g>
    <g id="line2d_18">
     <path d="M 254.2125 61.199062 
L 264.2125 61.199062 
L 274.2125 61.199062 
" style="fill: none; stroke: #0000ff; stroke-width: 1.5; stroke-linecap: square"/>
    </g>
    <g id="text_17">
     <!-- FPANN -->
     <g transform="translate(282.2125 64.699062)scale(0.1 -0.1)">
      <defs>
       <path id="TimesNewRomanPSMT-41" d="M 2928 1419 
L 1288 1419 
L 1000 750 
Q 894 503 894 381 
Q 894 284 986 211 
Q 1078 138 1384 116 
L 1384 0 
L 50 0 
L 50 116 
Q 316 163 394 238 
Q 553 388 747 847 
L 2238 4334 
L 2347 4334 
L 3822 809 
Q 4000 384 4145 257 
Q 4291 131 4550 116 
L 4550 0 
L 2878 0 
L 2878 116 
Q 3131 128 3220 200 
Q 3309 272 3309 375 
Q 3309 513 3184 809 
L 2928 1419 
z
M 2841 1650 
L 2122 3363 
L 1384 1650 
L 2841 1650 
z
" transform="scale(0.015625)"/>
      </defs>
      <use xlink:href="#TimesNewRomanPSMT-46"/>
      <use xlink:href="#TimesNewRomanPSMT-50" x="55.615234"/>
      <use xlink:href="#TimesNewRomanPSMT-41" x="102.105469"/>
      <use xlink:href="#TimesNewRomanPSMT-4e" x="174.322266"/>
      <use xlink:href="#TimesNewRomanPSMT-4e" x="246.539062"/>
     </g>
    </g>
    <g id="line2d_19">
     <path d="M 254.2125 75.338125 
L 264.2125 75.338125 
L 274.2125 75.338125 
" style="fill: none; stroke: #008000; stroke-width: 1.5; stroke-linecap: square"/>
    </g>
    <g id="text_18">
     <!-- APSNN -->
     <g transform="translate(282.2125 78.838125)scale(0.1 -0.1)">
      <use xlink:href="#TimesNewRomanPSMT-41"/>
      <use xlink:href="#TimesNewRomanPSMT-50" x="72.216797"/>
      <use xlink:href="#TimesNewRomanPSMT-53" x="127.832031"/>
      <use xlink:href="#TimesNewRomanPSMT-4e" x="183.447266"/>
      <use xlink:href="#TimesNewRomanPSMT-4e" x="255.664062"/>
     </g>
    </g>
   </g>
  </g>
 </g>
 <defs>
  <clipPath id="p6d837145fc">
   <rect x="45" y="34.56" width="279" height="221.76"/>
  </clipPath>
 </defs>
</svg>
