<?xml version="1.0" encoding="utf-8" standalone="no"?>
<!DOCTYPE svg PUBLIC "-//W3C//DTD SVG 1.1//EN"
  "http://www.w3.org/Graphics/SVG/1.1/DTD/svg11.dtd">
<svg xmlns:xlink="http://www.w3.org/1999/xlink" width="460.8pt" height="345.6pt" viewBox="0 0 460.8 345.6" xmlns="http://www.w3.org/2000/svg" version="1.1">
 <metadata>
  <rdf:RDF xmlns:dc="http://purl.org/dc/elements/1.1/" xmlns:cc="http://creativecommons.org/ns#" xmlns:rdf="http://www.w3.org/1999/02/22-rdf-syntax-ns#">
   <cc:Work>
    <dc:type rdf:resource="http://purl.org/dc/dcmitype/StillImage"/>
    <dc:date>2024-10-12T11:03:52.670998</dc:date>
    <dc:format>image/svg+xml</dc:format>
    <dc:creator>
     <cc:Agent>
      <dc:title>Matplotlib v3.5.2, https://matplotlib.org/</dc:title>
     </cc:Agent>
    </dc:creator>
   </cc:Work>
  </rdf:RDF>
 </metadata>
 <defs>
  <style type="text/css">*{stroke-linejoin: round; stroke-linecap: butt}</style>
 </defs>
 <g id="figure_1">
  <g id="patch_1">
   <path d="M 0 345.6 
L 460.8 345.6 
L 460.8 0 
L 0 0 
z
" style="fill: #ffffff"/>
  </g>
  <g id="patch_2">
   <path d="M 103.104 307.584 
L 369.216 307.584 
L 369.216 41.472 
L 103.104 41.472 
z
" style="fill: #ffffff"/>
  </g>
  <g id="pane3d_1">
   <g id="patch_3">
    <path d="M 123.197291 241.969309 
L 211.076164 168.307495 
L 209.854564 62.073991 
L 117.770234 129.272941 
" style="fill: #f2f2f2; opacity: 0.5; stroke: #f2f2f2; stroke-linejoin: miter"/>
   </g>
  </g>
  <g id="pane3d_2">
   <g id="patch_4">
    <path d="M 211.076164 168.307495 
L 352.090401 209.294766 
L 357.122702 99.402171 
L 209.854564 62.073991 
" style="fill: #e6e6e6; opacity: 0.5; stroke: #e6e6e6; stroke-linejoin: miter"/>
   </g>
  </g>
  <g id="pane3d_3">
   <g id="patch_5">
    <path d="M 123.197291 241.969309 
L 272.679269 290.790123 
L 352.090401 209.294766 
L 211.076164 168.307495 
" style="fill: #ececec; opacity: 0.5; stroke: #ececec; stroke-linejoin: miter"/>
   </g>
  </g>
  <g id="axis3d_1">
   <g id="line2d_1">
    <path d="M 123.197291 241.969309 
L 272.679269 290.790123 
" style="fill: none; stroke: #000000; stroke-width: 0.8; stroke-linecap: square"/>
   </g>
   <g id="text_1">
    <!-- t -->
    <g transform="translate(178.287365 303.410559)scale(0.1 -0.1)">
     <defs>
      <path id="TimesNewRomanPSMT-74" d="M 1031 3803 
L 1031 2863 
L 1700 2863 
L 1700 2644 
L 1031 2644 
L 1031 788 
Q 1031 509 1111 412 
Q 1191 316 1316 316 
Q 1419 316 1516 380 
Q 1613 444 1666 569 
L 1788 569 
Q 1678 263 1478 108 
Q 1278 -47 1066 -47 
Q 922 -47 784 33 
Q 647 113 581 261 
Q 516 409 516 719 
L 516 2644 
L 63 2644 
L 63 2747 
Q 234 2816 414 2980 
Q 594 3144 734 3369 
Q 806 3488 934 3803 
L 1031 3803 
z
" transform="scale(0.015625)"/>
     </defs>
     <use xlink:href="#TimesNewRomanPSMT-74"/>
    </g>
   </g>
   <g id="Line3DCollection_1">
    <path d="M 132.250704 244.926154 
L 219.652219 170.800215 
L 218.79322 64.33968 
" style="fill: none; stroke: #b0b0b0; stroke-width: 0.8"/>
    <path d="M 157.390529 253.13682 
L 243.442418 177.715087 
L 243.601294 70.627803 
" style="fill: none; stroke: #b0b0b0; stroke-width: 0.8"/>
    <path d="M 182.990962 261.497922 
L 267.632176 184.746095 
L 268.844138 77.026128 
" style="fill: none; stroke: #b0b0b0; stroke-width: 0.8"/>
    <path d="M 209.06478 270.013631 
L 292.231644 191.896189 
L 294.53328 83.537577 
" style="fill: none; stroke: #b0b0b0; stroke-width: 0.8"/>
    <path d="M 235.625236 278.688276 
L 317.25132 199.168421 
L 320.680664 90.165177 
" style="fill: none; stroke: #b0b0b0; stroke-width: 0.8"/>
    <path d="M 262.686081 287.526347 
L 342.702063 206.565947 
L 347.298659 96.912062 
" style="fill: none; stroke: #b0b0b0; stroke-width: 0.8"/>
   </g>
   <g id="xtick_1">
    <g id="line2d_2">
     <path d="M 133.011792 244.280669 
L 130.725263 246.219892 
" style="fill: none; stroke: #000000; stroke-width: 0.8; stroke-linecap: square"/>
    </g>
    <g id="text_2">
     <!-- 0.0 -->
     <g transform="translate(118.471655 267.580615)scale(0.1 -0.1)">
      <defs>
       <path id="TimesNewRomanPSMT-30" d="M 231 2094 
Q 231 2819 450 3342 
Q 669 3866 1031 4122 
Q 1313 4325 1613 4325 
Q 2100 4325 2488 3828 
Q 2972 3213 2972 2159 
Q 2972 1422 2759 906 
Q 2547 391 2217 158 
Q 1888 -75 1581 -75 
Q 975 -75 572 641 
Q 231 1244 231 2094 
z
M 844 2016 
Q 844 1141 1059 588 
Q 1238 122 1591 122 
Q 1759 122 1940 273 
Q 2122 425 2216 781 
Q 2359 1319 2359 2297 
Q 2359 3022 2209 3506 
Q 2097 3866 1919 4016 
Q 1791 4119 1609 4119 
Q 1397 4119 1231 3928 
Q 1006 3669 925 3112 
Q 844 2556 844 2016 
z
" transform="scale(0.015625)"/>
       <path id="TimesNewRomanPSMT-2e" d="M 800 606 
Q 947 606 1047 504 
Q 1147 403 1147 259 
Q 1147 116 1045 14 
Q 944 -88 800 -88 
Q 656 -88 554 14 
Q 453 116 453 259 
Q 453 406 554 506 
Q 656 606 800 606 
z
" transform="scale(0.015625)"/>
      </defs>
      <use xlink:href="#TimesNewRomanPSMT-30"/>
      <use xlink:href="#TimesNewRomanPSMT-2e" x="50"/>
      <use xlink:href="#TimesNewRomanPSMT-30" x="75"/>
     </g>
    </g>
   </g>
   <g id="xtick_2">
    <g id="line2d_3">
     <path d="M 158.140416 252.479568 
L 155.887507 254.454171 
" style="fill: none; stroke: #000000; stroke-width: 0.8; stroke-linecap: square"/>
    </g>
    <g id="text_3">
     <!-- 0.2 -->
     <g transform="translate(143.637179 275.965235)scale(0.1 -0.1)">
      <defs>
       <path id="TimesNewRomanPSMT-32" d="M 2934 816 
L 2638 0 
L 138 0 
L 138 116 
Q 1241 1122 1691 1759 
Q 2141 2397 2141 2925 
Q 2141 3328 1894 3587 
Q 1647 3847 1303 3847 
Q 991 3847 742 3664 
Q 494 3481 375 3128 
L 259 3128 
Q 338 3706 661 4015 
Q 984 4325 1469 4325 
Q 1984 4325 2329 3994 
Q 2675 3663 2675 3213 
Q 2675 2891 2525 2569 
Q 2294 2063 1775 1497 
Q 997 647 803 472 
L 1909 472 
Q 2247 472 2383 497 
Q 2519 522 2628 598 
Q 2738 675 2819 816 
L 2934 816 
z
" transform="scale(0.015625)"/>
      </defs>
      <use xlink:href="#TimesNewRomanPSMT-30"/>
      <use xlink:href="#TimesNewRomanPSMT-2e" x="50"/>
      <use xlink:href="#TimesNewRomanPSMT-32" x="75"/>
     </g>
    </g>
   </g>
   <g id="xtick_3">
    <g id="line2d_4">
     <path d="M 183.72911 260.828577 
L 181.511441 262.839538 
" style="fill: none; stroke: #000000; stroke-width: 0.8; stroke-linecap: square"/>
    </g>
    <g id="text_4">
     <!-- 0.4 -->
     <g transform="translate(169.265528 284.504057)scale(0.1 -0.1)">
      <defs>
       <path id="TimesNewRomanPSMT-34" d="M 2978 1563 
L 2978 1119 
L 2409 1119 
L 2409 0 
L 1894 0 
L 1894 1119 
L 100 1119 
L 100 1519 
L 2066 4325 
L 2409 4325 
L 2409 1563 
L 2978 1563 
z
M 1894 1563 
L 1894 3666 
L 406 1563 
L 1894 1563 
z
" transform="scale(0.015625)"/>
      </defs>
      <use xlink:href="#TimesNewRomanPSMT-30"/>
      <use xlink:href="#TimesNewRomanPSMT-2e" x="50"/>
      <use xlink:href="#TimesNewRomanPSMT-34" x="75"/>
     </g>
    </g>
   </g>
   <g id="xtick_4">
    <g id="line2d_5">
     <path d="M 209.790625 269.331856 
L 207.609891 271.380188 
" style="fill: none; stroke: #000000; stroke-width: 0.8; stroke-linecap: square"/>
    </g>
    <g id="text_5">
     <!-- 0.6 -->
     <g transform="translate(195.369589 293.201377)scale(0.1 -0.1)">
      <defs>
       <path id="TimesNewRomanPSMT-36" d="M 2869 4325 
L 2869 4209 
Q 2456 4169 2195 4045 
Q 1934 3922 1679 3669 
Q 1425 3416 1258 3105 
Q 1091 2794 978 2366 
Q 1428 2675 1881 2675 
Q 2316 2675 2634 2325 
Q 2953 1975 2953 1425 
Q 2953 894 2631 456 
Q 2244 -75 1606 -75 
Q 1172 -75 869 213 
Q 275 772 275 1663 
Q 275 2231 503 2743 
Q 731 3256 1154 3653 
Q 1578 4050 1965 4187 
Q 2353 4325 2688 4325 
L 2869 4325 
z
M 925 2138 
Q 869 1716 869 1456 
Q 869 1156 980 804 
Q 1091 453 1309 247 
Q 1469 100 1697 100 
Q 1969 100 2183 356 
Q 2397 613 2397 1088 
Q 2397 1622 2184 2012 
Q 1972 2403 1581 2403 
Q 1463 2403 1327 2353 
Q 1191 2303 925 2138 
z
" transform="scale(0.015625)"/>
      </defs>
      <use xlink:href="#TimesNewRomanPSMT-30"/>
      <use xlink:href="#TimesNewRomanPSMT-2e" x="50"/>
      <use xlink:href="#TimesNewRomanPSMT-36" x="75"/>
     </g>
    </g>
   </g>
   <g id="xtick_5">
    <g id="line2d_6">
     <path d="M 236.338187 277.993721 
L 234.196161 280.080476 
" style="fill: none; stroke: #000000; stroke-width: 0.8; stroke-linecap: square"/>
    </g>
    <g id="text_6">
     <!-- 0.8 -->
     <g transform="translate(221.96273 302.061648)scale(0.1 -0.1)">
      <defs>
       <path id="TimesNewRomanPSMT-38" d="M 1228 2134 
Q 725 2547 579 2797 
Q 434 3047 434 3316 
Q 434 3728 753 4026 
Q 1072 4325 1600 4325 
Q 2113 4325 2425 4047 
Q 2738 3769 2738 3413 
Q 2738 3175 2569 2928 
Q 2400 2681 1866 2347 
Q 2416 1922 2594 1678 
Q 2831 1359 2831 1006 
Q 2831 559 2490 242 
Q 2150 -75 1597 -75 
Q 994 -75 656 303 
Q 388 606 388 966 
Q 388 1247 577 1523 
Q 766 1800 1228 2134 
z
M 1719 2469 
Q 2094 2806 2194 3001 
Q 2294 3197 2294 3444 
Q 2294 3772 2109 3958 
Q 1925 4144 1606 4144 
Q 1288 4144 1088 3959 
Q 888 3775 888 3528 
Q 888 3366 970 3203 
Q 1053 3041 1206 2894 
L 1719 2469 
z
M 1375 2016 
Q 1116 1797 991 1539 
Q 866 1281 866 981 
Q 866 578 1086 336 
Q 1306 94 1647 94 
Q 1984 94 2187 284 
Q 2391 475 2391 747 
Q 2391 972 2272 1150 
Q 2050 1481 1375 2016 
z
" transform="scale(0.015625)"/>
      </defs>
      <use xlink:href="#TimesNewRomanPSMT-30"/>
      <use xlink:href="#TimesNewRomanPSMT-2e" x="50"/>
      <use xlink:href="#TimesNewRomanPSMT-38" x="75"/>
     </g>
    </g>
   </g>
   <g id="xtick_6">
    <g id="line2d_7">
     <path d="M 263.385522 286.818651 
L 261.284057 288.94492 
" style="fill: none; stroke: #000000; stroke-width: 0.8; stroke-linecap: square"/>
    </g>
    <g id="text_7">
     <!-- 1.0 -->
     <g transform="translate(249.058827 311.089494)scale(0.1 -0.1)">
      <defs>
       <path id="TimesNewRomanPSMT-31" d="M 750 3822 
L 1781 4325 
L 1884 4325 
L 1884 747 
Q 1884 391 1914 303 
Q 1944 216 2037 169 
Q 2131 122 2419 116 
L 2419 0 
L 825 0 
L 825 116 
Q 1125 122 1212 167 
Q 1300 213 1334 289 
Q 1369 366 1369 747 
L 1369 3034 
Q 1369 3497 1338 3628 
Q 1316 3728 1258 3775 
Q 1200 3822 1119 3822 
Q 1003 3822 797 3725 
L 750 3822 
z
" transform="scale(0.015625)"/>
      </defs>
      <use xlink:href="#TimesNewRomanPSMT-31"/>
      <use xlink:href="#TimesNewRomanPSMT-2e" x="50"/>
      <use xlink:href="#TimesNewRomanPSMT-30" x="75"/>
     </g>
    </g>
   </g>
  </g>
  <g id="axis3d_2">
   <g id="line2d_8">
    <path d="M 352.090401 209.294766 
L 272.679269 290.790123 
" style="fill: none; stroke: #000000; stroke-width: 0.8; stroke-linecap: square"/>
   </g>
   <g id="text_8">
    <!-- x -->
    <g transform="translate(338.632782 278.631666)scale(0.1 -0.1)">
     <defs>
      <path id="TimesNewRomanPSMT-78" d="M 84 2863 
L 1431 2863 
L 1431 2747 
Q 1303 2747 1251 2703 
Q 1200 2659 1200 2588 
Q 1200 2513 1309 2356 
Q 1344 2306 1413 2200 
L 1616 1875 
L 1850 2200 
Q 2075 2509 2075 2591 
Q 2075 2656 2022 2701 
Q 1969 2747 1850 2747 
L 1850 2863 
L 2819 2863 
L 2819 2747 
Q 2666 2738 2553 2663 
Q 2400 2556 2134 2200 
L 1744 1678 
L 2456 653 
Q 2719 275 2831 198 
Q 2944 122 3122 113 
L 3122 0 
L 1772 0 
L 1772 113 
Q 1913 113 1991 175 
Q 2050 219 2050 291 
Q 2050 363 1850 653 
L 1431 1266 
L 972 653 
Q 759 369 759 316 
Q 759 241 829 180 
Q 900 119 1041 113 
L 1041 0 
L 106 0 
L 106 113 
Q 219 128 303 191 
Q 422 281 703 653 
L 1303 1450 
L 759 2238 
Q 528 2575 401 2661 
Q 275 2747 84 2747 
L 84 2863 
z
" transform="scale(0.015625)"/>
     </defs>
     <use xlink:href="#TimesNewRomanPSMT-78"/>
    </g>
   </g>
   <g id="Line3DCollection_2">
    <path d="M 124.138093 124.625967 
L 129.252888 236.893387 
L 278.173905 285.151275 
" style="fill: none; stroke: #b0b0b0; stroke-width: 0.8"/>
    <path d="M 141.225233 112.156551 
L 145.517822 223.259797 
L 292.915566 270.022704 
" style="fill: none; stroke: #b0b0b0; stroke-width: 0.8"/>
    <path d="M 157.777465 100.077486 
L 161.295438 210.034687 
L 307.192521 255.371036 
" style="fill: none; stroke: #b0b0b0; stroke-width: 0.8"/>
    <path d="M 173.819521 88.370724 
L 176.607314 197.199969 
L 321.026403 241.17407 
" style="fill: none; stroke: #b0b0b0; stroke-width: 0.8"/>
    <path d="M 189.374629 77.019315 
L 191.473771 184.73861 
L 334.437521 227.410963 
" style="fill: none; stroke: #b0b0b0; stroke-width: 0.8"/>
    <path d="M 204.46463 66.007319 
L 205.913967 172.634551 
L 347.444965 214.062126 
" style="fill: none; stroke: #b0b0b0; stroke-width: 0.8"/>
   </g>
   <g id="xtick_7">
    <g id="line2d_9">
     <path d="M 276.918943 284.744604 
L 280.687074 285.965668 
" style="fill: none; stroke: #000000; stroke-width: 0.8; stroke-linecap: square"/>
    </g>
    <g id="text_9">
     <!-- 0.0 -->
     <g transform="translate(284.804539 305.518317)scale(0.1 -0.1)">
      <use xlink:href="#TimesNewRomanPSMT-30"/>
      <use xlink:href="#TimesNewRomanPSMT-2e" x="50"/>
      <use xlink:href="#TimesNewRomanPSMT-30" x="75"/>
     </g>
    </g>
   </g>
   <g id="xtick_8">
    <g id="line2d_10">
     <path d="M 291.674448 269.628951 
L 295.400959 270.811211 
" style="fill: none; stroke: #000000; stroke-width: 0.8; stroke-linecap: square"/>
    </g>
    <g id="text_10">
     <!-- 0.2 -->
     <g transform="translate(299.348492 290.165745)scale(0.1 -0.1)">
      <use xlink:href="#TimesNewRomanPSMT-30"/>
      <use xlink:href="#TimesNewRomanPSMT-2e" x="50"/>
      <use xlink:href="#TimesNewRomanPSMT-32" x="75"/>
     </g>
    </g>
   </g>
   <g id="xtick_9">
    <g id="line2d_11">
     <path d="M 305.965005 254.989595 
L 309.650627 256.134872 
" style="fill: none; stroke: #000000; stroke-width: 0.8; stroke-linecap: square"/>
    </g>
    <g id="text_11">
     <!-- 0.4 -->
     <g transform="translate(313.433707 275.297417)scale(0.1 -0.1)">
      <use xlink:href="#TimesNewRomanPSMT-30"/>
      <use xlink:href="#TimesNewRomanPSMT-2e" x="50"/>
      <use xlink:href="#TimesNewRomanPSMT-34" x="75"/>
     </g>
    </g>
   </g>
   <g id="xtick_10">
    <g id="line2d_12">
     <path d="M 319.812248 240.804373 
L 323.457705 241.914376 
" style="fill: none; stroke: #000000; stroke-width: 0.8; stroke-linecap: square"/>
    </g>
    <g id="text_12">
     <!-- 0.6 -->
     <g transform="translate(327.081548 260.890779)scale(0.1 -0.1)">
      <use xlink:href="#TimesNewRomanPSMT-30"/>
      <use xlink:href="#TimesNewRomanPSMT-2e" x="50"/>
      <use xlink:href="#TimesNewRomanPSMT-36" x="75"/>
     </g>
    </g>
   </g>
   <g id="xtick_11">
    <g id="line2d_13">
     <path d="M 333.236491 227.052475 
L 336.842497 228.128809 
" style="fill: none; stroke: #000000; stroke-width: 0.8; stroke-linecap: square"/>
    </g>
    <g id="text_13">
     <!-- 0.8 -->
     <g transform="translate(340.312078 246.924655)scale(0.1 -0.1)">
      <use xlink:href="#TimesNewRomanPSMT-30"/>
      <use xlink:href="#TimesNewRomanPSMT-2e" x="50"/>
      <use xlink:href="#TimesNewRomanPSMT-38" x="75"/>
     </g>
    </g>
   </g>
   <g id="xtick_12">
    <g id="line2d_14">
     <path d="M 346.256825 213.714346 
L 349.824086 214.758519 
" style="fill: none; stroke: #000000; stroke-width: 0.8; stroke-linecap: square"/>
    </g>
    <g id="text_14">
     <!-- 1.0 -->
     <g transform="translate(353.144148 233.379144)scale(0.1 -0.1)">
      <use xlink:href="#TimesNewRomanPSMT-31"/>
      <use xlink:href="#TimesNewRomanPSMT-2e" x="50"/>
      <use xlink:href="#TimesNewRomanPSMT-30" x="75"/>
     </g>
    </g>
   </g>
  </g>
  <g id="axis3d_3">
   <g id="line2d_15">
    <path d="M 352.090401 209.294766 
L 357.122702 99.402171 
" style="fill: none; stroke: #000000; stroke-width: 0.8; stroke-linecap: square"/>
   </g>
   <g id="Line3DCollection_3">
    <path d="M 352.186814 207.189334 
L 211.052711 166.267948 
L 123.093486 239.813727 
" style="fill: none; stroke: #b0b0b0; stroke-width: 0.8"/>
    <path d="M 353.356817 181.63946 
L 210.768253 141.53077 
L 121.833253 213.644183 
" style="fill: none; stroke: #b0b0b0; stroke-width: 0.8"/>
    <path d="M 354.551427 155.552229 
L 210.478101 116.298381 
L 120.545497 186.903079 
" style="fill: none; stroke: #b0b0b0; stroke-width: 0.8"/>
    <path d="M 355.771429 128.910507 
L 210.182082 90.555761 
L 119.229304 159.571483 
" style="fill: none; stroke: #b0b0b0; stroke-width: 0.8"/>
    <path d="M 357.017641 101.696426 
L 209.880015 64.287274 
L 117.883723 131.629618 
" style="fill: none; stroke: #b0b0b0; stroke-width: 0.8"/>
   </g>
   <g id="xtick_13">
    <g id="line2d_16">
     <path d="M 351.002263 206.845877 
L 354.558737 207.877065 
" style="fill: none; stroke: #000000; stroke-width: 0.8; stroke-linecap: square"/>
    </g>
    <g id="text_15">
     <!-- −1.0 -->
     <g transform="translate(361.381249 211.532175)scale(0.1 -0.1)">
      <defs>
       <path id="TimesNewRomanPSMT-2212" d="M 3484 2000 
L 116 2000 
L 116 2256 
L 3484 2256 
L 3484 2000 
z
" transform="scale(0.015625)"/>
      </defs>
      <use xlink:href="#TimesNewRomanPSMT-2212"/>
      <use xlink:href="#TimesNewRomanPSMT-31" x="56.396484"/>
      <use xlink:href="#TimesNewRomanPSMT-2e" x="106.396484"/>
      <use xlink:href="#TimesNewRomanPSMT-30" x="131.396484"/>
     </g>
    </g>
   </g>
   <g id="xtick_14">
    <g id="line2d_17">
     <path d="M 352.159475 181.302661 
L 355.754381 182.31387 
" style="fill: none; stroke: #000000; stroke-width: 0.8; stroke-linecap: square"/>
    </g>
    <g id="text_16">
     <!-- −0.5 -->
     <g transform="translate(362.737191 186.032783)scale(0.1 -0.1)">
      <defs>
       <path id="TimesNewRomanPSMT-35" d="M 2778 4238 
L 2534 3706 
L 1259 3706 
L 981 3138 
Q 1809 3016 2294 2522 
Q 2709 2097 2709 1522 
Q 2709 1188 2573 903 
Q 2438 619 2231 419 
Q 2025 219 1772 97 
Q 1413 -75 1034 -75 
Q 653 -75 479 54 
Q 306 184 306 341 
Q 306 428 378 495 
Q 450 563 559 563 
Q 641 563 702 538 
Q 763 513 909 409 
Q 1144 247 1384 247 
Q 1750 247 2026 523 
Q 2303 800 2303 1197 
Q 2303 1581 2056 1914 
Q 1809 2247 1375 2428 
Q 1034 2569 447 2591 
L 1259 4238 
L 2778 4238 
z
" transform="scale(0.015625)"/>
      </defs>
      <use xlink:href="#TimesNewRomanPSMT-2212"/>
      <use xlink:href="#TimesNewRomanPSMT-30" x="56.396484"/>
      <use xlink:href="#TimesNewRomanPSMT-2e" x="106.396484"/>
      <use xlink:href="#TimesNewRomanPSMT-35" x="131.396484"/>
     </g>
    </g>
   </g>
   <g id="xtick_15">
    <g id="line2d_18">
     <path d="M 353.341016 155.222444 
L 356.975192 156.212602 
" style="fill: none; stroke: #000000; stroke-width: 0.8; stroke-linecap: square"/>
    </g>
    <g id="text_17">
     <!-- 0.0 -->
     <g transform="translate(366.941094 159.998737)scale(0.1 -0.1)">
      <use xlink:href="#TimesNewRomanPSMT-30"/>
      <use xlink:href="#TimesNewRomanPSMT-2e" x="50"/>
      <use xlink:href="#TimesNewRomanPSMT-30" x="75"/>
     </g>
    </g>
   </g>
   <g id="xtick_16">
    <g id="line2d_19">
     <path d="M 354.547661 128.588112 
L 358.221972 129.55609 
" style="fill: none; stroke: #000000; stroke-width: 0.8; stroke-linecap: square"/>
    </g>
    <g id="text_18">
     <!-- 0.5 -->
     <g transform="translate(368.354801 133.413045)scale(0.1 -0.1)">
      <use xlink:href="#TimesNewRomanPSMT-30"/>
      <use xlink:href="#TimesNewRomanPSMT-2e" x="50"/>
      <use xlink:href="#TimesNewRomanPSMT-35" x="75"/>
     </g>
    </g>
   </g>
   <g id="xtick_17">
    <g id="line2d_20">
     <path d="M 355.780217 101.381816 
L 359.495561 102.326427 
" style="fill: none; stroke: #000000; stroke-width: 0.8; stroke-linecap: square"/>
    </g>
    <g id="text_19">
     <!-- 1.0 -->
     <g transform="translate(369.798784 106.257984)scale(0.1 -0.1)">
      <use xlink:href="#TimesNewRomanPSMT-31"/>
      <use xlink:href="#TimesNewRomanPSMT-2e" x="50"/>
      <use xlink:href="#TimesNewRomanPSMT-30" x="75"/>
     </g>
    </g>
   </g>
  </g>
  <g id="axes_1">
   <g id="line2d_21">
    <path d="M 135.971775 184.836349 
L 137.898788 178.93033 
L 139.825822 173.053733 
L 141.75381 167.232835 
L 143.683653 161.49379 
L 145.616099 155.86246 
L 147.551836 150.36423 
L 149.491409 145.023836 
L 151.435264 139.865153 
L 153.383771 134.911054 
L 155.337132 130.183195 
L 157.295471 125.701866 
L 159.258789 121.485806 
L 161.226993 117.552087 
L 163.199865 113.915911 
L 165.177104 110.590523 
L 167.158314 107.58712 
L 169.143002 104.914669 
L 171.130594 102.579962 
L 173.120437 100.587424 
L 175.111828 98.939161 
L 177.104001 97.634932 
L 179.096143 96.672138 
L 181.08739 96.045871 
L 183.076879 95.748956 
L 185.063694 95.772014 
L 187.046951 96.103568 
L 189.025733 96.730156 
L 190.999157 97.636417 
L 192.966343 98.805244 
L 194.926467 100.217963 
L 196.878716 101.854453 
L 198.822328 103.693354 
L 200.756609 105.712198 
L 202.680897 107.887593 
L 204.594607 110.195459 
L 206.497212 112.611103 
L 208.388271 115.109543 
L 210.267386 117.665513 
L 212.134259 120.253758 
L 213.988652 122.849151 
" clip-path="url(#p5c3c62c15e)" style="fill: none; stroke: #ff0000; stroke-opacity: 0.2; stroke-width: 1.5; stroke-linecap: square"/>
   </g>
   <g id="line2d_22">
    <path d="M 139.146564 185.803047 
L 141.075956 179.916191 
L 143.005284 174.058735 
L 144.935458 168.256804 
L 146.867315 162.536403 
L 148.801605 156.923265 
L 150.738944 151.442615 
L 152.679857 146.119033 
L 154.624784 140.976295 
L 156.574013 136.037092 
L 158.52775 131.322979 
L 160.4861 126.854124 
L 162.449026 122.649141 
L 164.416416 118.724987 
L 166.388072 115.0968 
L 168.363634 111.777736 
L 170.3427 108.778882 
L 172.3248 106.109218 
L 174.309337 103.775422 
L 176.29567 101.781935 
L 178.283091 100.130832 
L 180.270833 98.821866 
L 182.258114 97.852471 
L 184.244066 97.217758 
L 186.227843 96.910586 
L 188.20856 96.921663 
L 190.185333 97.239573 
L 192.157288 97.850879 
L 194.123564 98.740394 
L 196.083299 99.891055 
L 198.035704 101.284339 
L 199.979995 102.900225 
L 201.915443 104.717477 
L 203.841379 106.713756 
L 205.757187 108.865836 
L 207.662304 111.149727 
L 209.556235 113.540952 
L 211.438582 116.014544 
L 213.308965 118.545527 
L 215.167133 121.108672 
L 217.012874 123.679062 
" clip-path="url(#p5c3c62c15e)" style="fill: none; stroke: #ff0000; stroke-opacity: 0.2; stroke-width: 1.5; stroke-linecap: square"/>
   </g>
   <g id="line2d_23">
    <path d="M 142.328619 186.771962 
L 144.261344 180.930335 
L 146.193865 175.118027 
L 148.127062 169.36085 
L 150.061727 163.684512 
L 151.998562 158.114404 
L 153.938168 152.67546 
L 155.881005 147.39197 
L 157.827491 142.287356 
L 159.777894 137.384083 
L 161.732391 132.703405 
L 163.691036 128.265217 
L 165.653802 124.087903 
L 167.620554 120.188206 
L 169.591041 116.58102 
L 171.564947 113.279376 
L 173.541844 110.294219 
L 175.521232 107.634345 
L 177.502554 105.306406 
L 179.485141 103.314725 
L 181.468312 101.661398 
L 183.451317 100.346157 
L 185.433374 99.366447 
L 187.413641 98.71748 
L 189.391293 98.392191 
L 191.365467 98.38142 
L 193.335322 98.673845 
L 195.299982 99.256338 
L 197.25864 100.113717 
L 199.210466 101.229338 
L 201.154696 102.584769 
L 203.090582 104.16032 
L 205.017435 105.935004 
L 206.934625 107.886768 
L 208.841562 109.992657 
L 210.737728 112.229039 
L 212.622662 114.571607 
L 214.49599 116.9959 
L 216.357394 119.476999 
L 218.206631 121.990208 
L 220.043524 124.51073 
" clip-path="url(#p5c3c62c15e)" style="fill: none; stroke: #ff0000; stroke-opacity: 0.2; stroke-width: 1.5; stroke-linecap: square"/>
   </g>
   <g id="line2d_24">
    <path d="M 145.517972 187.743099 
L 147.454845 181.972504 
L 149.391342 176.231077 
L 151.328301 170.544178 
L 153.266454 164.937018 
L 155.206456 159.434516 
L 157.148875 154.06115 
L 159.094145 148.840705 
L 161.04263 143.796198 
L 162.994571 138.949617 
L 164.950108 134.321815 
L 166.909283 129.932262 
L 168.872049 125.799017 
L 170.838238 121.938443 
L 172.807611 118.365156 
L 174.779824 115.091908 
L 176.754453 112.129406 
L 178.731007 109.4863 
L 180.708905 107.169045 
L 182.687532 105.181936 
L 184.666186 103.526964 
L 186.644143 102.20391 
L 188.620638 101.210261 
L 190.594865 100.541292 
L 192.566017 100.190136 
L 194.533257 100.147728 
L 196.495781 100.403114 
L 198.452752 100.943252 
L 200.403391 101.75347 
L 202.346911 102.817247 
L 204.282578 104.116696 
L 206.2097 105.632408 
L 208.127612 107.34386 
L 210.035725 109.229381 
L 211.933496 111.266529 
L 213.820439 113.431995 
L 215.696146 115.702153 
L 217.560258 118.052721 
L 219.412504 120.459524 
L 221.252668 122.898049 
L 223.080619 125.344167 
" clip-path="url(#p5c3c62c15e)" style="fill: none; stroke: #ff0000; stroke-opacity: 0.2; stroke-width: 1.5; stroke-linecap: square"/>
   </g>
   <g id="line2d_25">
    <path d="M 148.714667 188.716469 
L 150.65641 183.042268 
L 152.597549 177.397039 
L 154.538874 171.805483 
L 156.481079 166.292179 
L 158.424773 160.881436 
L 160.370455 155.597047 
L 162.318554 150.462223 
L 164.26936 145.499344 
L 166.223107 140.729838 
L 168.179892 136.173949 
L 170.139764 131.850696 
L 172.102615 127.777559 
L 174.06829 123.970496 
L 176.036527 120.443721 
L 178.006982 117.209612 
L 179.979233 114.278566 
L 181.95279 111.659021 
L 183.927082 109.357243 
L 185.901503 107.377356 
L 187.875372 105.721361 
L 189.847981 104.388973 
L 191.818608 103.377791 
L 193.786458 102.683239 
L 195.750767 102.298543 
L 197.710728 102.21504 
L 199.665573 102.421893 
L 201.614508 102.906613 
L 203.556793 103.654735 
L 205.491678 104.650382 
L 207.418482 105.875957 
L 209.336548 107.312769 
L 211.245259 108.940648 
L 213.144066 110.7387 
L 215.032462 112.684848 
L 216.91001 114.756635 
L 218.776323 116.930777 
L 220.631118 119.183894 
L 222.474118 121.492151 
L 224.305173 123.831884 
L 226.124168 126.179377 
" clip-path="url(#p5c3c62c15e)" style="fill: none; stroke: #ff0000; stroke-opacity: 0.2; stroke-width: 1.5; stroke-linecap: square"/>
   </g>
   <g id="line2d_26">
    <path d="M 151.918713 189.692077 
L 153.865912 184.139066 
L 155.812248 178.61473 
L 157.758445 173.142983 
L 159.705156 167.747633 
L 161.652934 162.452144 
L 163.602238 157.279576 
L 165.553451 152.252343 
L 167.506828 147.392083 
L 169.462574 142.719451 
L 171.420758 138.254068 
L 173.381385 134.014206 
L 175.344365 130.016818 
L 177.309505 126.277261 
L 179.276546 122.809256 
L 181.245126 119.624715 
L 183.214847 116.733697 
L 185.185216 114.144306 
L 187.155693 111.862595 
L 189.125666 109.892579 
L 191.094492 108.23608 
L 193.061491 106.892937 
L 195.025947 105.860765 
L 196.987124 105.135112 
L 198.94429 104.709573 
L 200.89667 104.575592 
L 202.843545 104.722938 
L 204.784163 105.139351 
L 206.717823 105.811054 
L 208.643826 106.722549 
L 210.561542 107.857033 
L 212.470341 109.1962 
L 214.369666 110.720893 
L 216.25901 112.410594 
L 218.137913 114.244282 
L 220.005977 116.199942 
L 221.862859 118.255336 
L 223.708309 120.387589 
L 225.542088 122.573868 
L 227.36408 124.791083 
L 229.174202 127.01637 
" clip-path="url(#p5c3c62c15e)" style="fill: none; stroke: #ff0000; stroke-opacity: 0.2; stroke-width: 1.5; stroke-linecap: square"/>
   </g>
   <g id="line2d_27">
    <path d="M 155.130123 190.669934 
L 157.083264 185.262155 
L 159.035227 179.882655 
L 160.986697 174.554446 
L 162.938257 169.300333 
L 164.890397 164.142893 
L 166.843576 159.104219 
L 168.798089 154.205828 
L 170.754183 149.46841 
L 172.712019 144.911833 
L 174.671649 140.55482 
L 176.633043 136.414926 
L 178.596109 132.508329 
L 180.560637 128.849773 
L 182.526361 125.452309 
L 184.492942 122.32742 
L 186.459962 119.484673 
L 188.42695 116.9318 
L 190.393376 114.674632 
L 192.358665 112.716941 
L 194.322192 111.060549 
L 196.283307 109.705221 
L 198.241338 108.648678 
L 200.195575 107.886741 
L 202.145336 107.413131 
L 204.089887 107.219861 
L 206.028552 107.296913 
L 207.960626 107.632775 
L 209.885464 108.214067 
L 211.802405 109.026128 
L 213.710869 110.052668 
L 215.610285 111.276427 
L 217.50013 112.678665 
L 219.379954 114.24015 
L 221.249336 115.940316 
L 223.107922 117.758426 
L 224.955417 119.672809 
L 226.791587 121.661762 
L 228.61626 123.703176 
L 230.429329 125.774973 
L 232.230749 127.855146 
" clip-path="url(#p5c3c62c15e)" style="fill: none; stroke: #ff0000; stroke-opacity: 0.2; stroke-width: 1.5; stroke-linecap: square"/>
   </g>
   <g id="line2d_28">
    <path d="M 158.348949 191.65004 
L 160.30837 186.410637 
L 162.266276 181.199048 
L 164.22327 176.037133 
L 166.1799 170.946681 
L 168.13661 165.949137 
L 170.093782 161.065557 
L 172.051698 156.316328 
L 174.010567 151.721208 
L 175.970498 147.298985 
L 177.931544 143.067493 
L 179.893645 139.04336 
L 181.856694 135.241983 
L 183.820473 131.677256 
L 185.784733 128.361678 
L 187.749112 125.306008 
L 189.713222 122.519382 
L 191.67661 120.009137 
L 193.638753 117.780713 
L 195.599121 115.837763 
L 197.557104 114.181988 
L 199.512094 112.813118 
L 201.463462 111.729069 
L 203.410532 110.925764 
L 205.352664 110.397372 
L 207.289186 110.136166 
L 209.219462 110.132871 
L 211.142831 110.376286 
L 213.058712 110.853985 
L 214.966484 111.55179 
L 216.865627 112.454535 
L 218.755613 113.545485 
L 220.635981 114.807269 
L 222.506307 116.221087 
L 224.366229 117.767922 
L 226.215431 119.427593 
L 228.053661 121.17984 
L 229.88072 123.003758 
L 231.696475 124.878401 
L 233.500847 126.782718 
L 235.293821 128.69571 
" clip-path="url(#p5c3c62c15e)" style="fill: none; stroke: #ff0000; stroke-opacity: 0.2; stroke-width: 1.5; stroke-linecap: square"/>
   </g>
   <g id="line2d_29">
    <path d="M 161.575212 192.632411 
L 163.541139 187.58351 
L 165.50517 182.561784 
L 167.467849 177.587932 
L 169.429661 172.682458 
L 171.390996 167.865641 
L 173.352191 163.157244 
L 175.313505 158.576572 
L 177.275091 154.142137 
L 179.237053 149.871678 
L 181.199401 145.781941 
L 183.16207 141.888586 
L 185.124943 138.206001 
L 187.087799 134.747356 
L 189.050377 131.524275 
L 191.01235 128.546938 
L 192.973326 125.823865 
L 194.932873 123.36195 
L 196.890503 121.166315 
L 198.845704 119.240384 
L 200.797908 117.58567 
L 202.746548 116.202037 
L 204.691036 115.087412 
L 206.630746 114.238055 
L 208.565079 113.648392 
L 210.493415 113.311308 
L 212.415168 113.217865 
L 214.329749 113.357827 
L 216.236598 113.719201 
L 218.135182 114.289021 
L 220.025002 115.052618 
L 221.905596 115.994674 
L 223.776549 117.098405 
L 225.637488 118.346604 
L 227.488091 119.720827 
L 229.32809 121.202544 
L 231.15726 122.772303 
L 232.975469 124.410583 
L 234.782577 126.097557 
L 236.578564 127.813322 
L 238.363432 129.538069 
" clip-path="url(#p5c3c62c15e)" style="fill: none; stroke: #ff0000; stroke-opacity: 0.2; stroke-width: 1.5; stroke-linecap: square"/>
   </g>
   <g id="line2d_30">
    <path d="M 164.808919 193.617055 
L 166.781469 188.77958 
L 168.751689 183.968539 
L 170.720086 179.203258 
L 172.687069 174.502936 
L 174.652991 169.886401 
L 176.618157 165.372208 
L 178.58275 160.978258 
L 180.54693 156.721851 
L 182.510762 152.619484 
L 184.47423 148.686753 
L 186.437263 144.938181 
L 188.399734 141.38722 
L 190.361428 138.046017 
L 192.322087 134.925452 
L 194.281397 132.034917 
L 196.238978 129.382366 
L 198.194431 126.974133 
L 200.147305 124.815062 
L 202.097103 122.908198 
L 204.043313 121.25508 
L 205.985399 119.855436 
L 207.922821 118.707454 
L 209.855011 117.80757 
L 211.781415 117.150705 
L 213.70147 116.730102 
L 215.614636 116.537636 
L 217.520382 116.56354 
L 219.418205 116.79701 
L 221.307626 117.225565 
L 223.188197 117.83603 
L 225.059511 118.613651 
L 226.921193 119.543286 
L 228.772933 120.608445 
L 230.614446 121.7924 
L 232.445505 123.077429 
L 234.265932 124.445704 
L 236.075603 125.878845 
L 237.874445 127.358373 
L 239.66244 128.86568 
L 241.439619 130.382233 
" clip-path="url(#p5c3c62c15e)" style="fill: none; stroke: #ff0000; stroke-opacity: 0.2; stroke-width: 1.5; stroke-linecap: square"/>
   </g>
   <g id="line2d_31">
    <path d="M 168.050112 194.603973 
L 170.029258 189.997553 
L 172.00563 185.416675 
L 173.979648 180.879191 
L 175.951684 176.402768 
L 177.922059 172.004876 
L 179.891003 167.702516 
L 181.858698 163.512243 
L 183.825247 159.44997 
L 185.790703 155.530871 
L 187.755033 151.769255 
L 189.718168 148.178525 
L 191.679959 144.770979 
L 193.640206 141.557825 
L 195.598658 138.548972 
L 197.55502 135.753112 
L 199.508946 133.177465 
L 201.460046 130.827939 
L 203.407906 128.708801 
L 205.352075 126.823028 
L 207.292077 125.171861 
L 209.227431 123.755176 
L 211.157643 122.571189 
L 213.08218 121.616749 
L 215.000568 120.887061 
L 216.912277 120.376047 
L 218.816848 120.076088 
L 220.713774 119.978475 
L 222.602643 120.072889 
L 224.482996 120.348348 
L 226.354465 120.792224 
L 228.216687 121.391473 
L 230.06933 122.131643 
L 231.912137 122.99803 
L 233.744865 123.974831 
L 235.567325 125.046035 
L 237.379377 126.194936 
L 239.180929 127.404762 
L 240.971936 128.658349 
L 242.752405 129.938553 
L 244.522387 131.228206 
" clip-path="url(#p5c3c62c15e)" style="fill: none; stroke: #ff0000; stroke-opacity: 0.2; stroke-width: 1.5; stroke-linecap: square"/>
   </g>
   <g id="line2d_32">
    <path d="M 171.298806 195.593182 
L 173.284421 191.236022 
L 175.266772 186.903335 
L 177.24623 182.611364 
L 179.223105 178.376243 
L 181.19767 174.213813 
L 183.170135 170.139577 
L 185.140638 166.168553 
L 187.109255 162.315194 
L 189.076013 158.593242 
L 191.04089 155.015719 
L 193.003789 151.594716 
L 194.964567 148.341421 
L 196.92304 145.265925 
L 198.878979 142.377255 
L 200.832083 139.683177 
L 202.782044 137.19035 
L 204.728519 134.90394 
L 206.671118 132.828 
L 208.609435 130.964994 
L 210.543044 129.316235 
L 212.471496 127.881465 
L 214.394369 126.659167 
L 216.311174 125.646366 
L 218.221494 124.838871 
L 220.124856 124.231005 
L 222.020859 123.816082 
L 223.909056 123.585935 
L 225.789086 123.531598 
L 227.660547 123.642623 
L 229.523126 123.908105 
L 231.376508 124.315698 
L 233.220421 124.852776 
L 235.054633 125.505553 
L 236.878952 126.259993 
L 238.693228 127.101312 
L 240.497354 128.014544 
L 242.291268 128.98417 
L 244.07495 129.994765 
L 245.848429 131.030567 
L 247.611772 132.075996 
" clip-path="url(#p5c3c62c15e)" style="fill: none; stroke: #ff0000; stroke-opacity: 0.2; stroke-width: 1.5; stroke-linecap: square"/>
   </g>
   <g id="line2d_33">
    <path d="M 174.555041 196.584679 
L 176.546877 192.493453 
L 178.534924 188.425403 
L 180.51951 184.395147 
L 182.500902 180.417112 
L 184.47932 176.505481 
L 186.454946 172.674122 
L 188.427877 168.936455 
L 190.398177 165.305354 
L 192.365862 161.793135 
L 194.330883 158.411356 
L 196.293161 155.170832 
L 198.252559 152.081491 
L 200.208897 149.152337 
L 202.161958 146.391366 
L 204.111485 143.805576 
L 206.057189 141.400705 
L 207.998758 139.181559 
L 209.935848 137.151519 
L 211.868099 135.312966 
L 213.795123 133.66689 
L 215.716549 132.213201 
L 217.631975 130.950416 
L 219.541003 129.875988 
L 221.443242 128.986048 
L 223.338305 128.275771 
L 225.225818 127.738902 
L 227.105426 127.36849 
L 228.97679 127.156192 
L 230.839596 127.093118 
L 232.693559 127.169058 
L 234.53842 127.373497 
L 236.373957 127.694728 
L 238.199979 128.120784 
L 240.016334 128.638855 
L 241.822907 129.235939 
L 243.619615 129.898441 
L 245.406445 130.612694 
L 247.18337 131.364615 
L 248.950457 132.140291 
L 250.707782 132.9256 
" clip-path="url(#p5c3c62c15e)" style="fill: none; stroke: #ff0000; stroke-opacity: 0.2; stroke-width: 1.5; stroke-linecap: square"/>
   </g>
   <g id="line2d_34">
    <path d="M 177.81883 197.578481 
L 179.816529 193.768165 
L 181.809903 189.979592 
L 183.799215 186.225561 
L 185.784696 182.518751 
L 187.766538 178.871625 
L 189.74487 175.296296 
L 191.719779 171.804515 
L 193.691316 168.407577 
L 195.659467 165.116198 
L 197.624202 161.940517 
L 199.585427 158.88994 
L 201.543019 155.973134 
L 203.496814 153.197948 
L 205.446628 150.571386 
L 207.392219 148.099434 
L 209.333344 145.787249 
L 211.269723 143.638797 
L 213.201058 141.657225 
L 215.127039 139.844444 
L 217.047335 138.201433 
L 218.961612 136.727963 
L 220.869532 135.422887 
L 222.770755 134.28383 
L 224.664951 133.307597 
L 226.551789 132.489719 
L 228.430954 131.825073 
L 230.302148 131.307249 
L 232.165088 130.929278 
L 234.019515 130.683079 
L 235.865193 130.560113 
L 237.701913 130.55077 
L 239.529487 130.645178 
L 241.347785 130.832593 
L 243.15668 131.102043 
L 244.956093 131.441889 
L 246.745965 131.84042 
L 248.52631 132.285446 
L 250.297116 132.764844 
L 252.058466 133.266116 
L 253.810443 133.777033 
" clip-path="url(#p5c3c62c15e)" style="fill: none; stroke: #ff0000; stroke-opacity: 0.2; stroke-width: 1.5; stroke-linecap: square"/>
   </g>
   <g id="line2d_35">
    <path d="M 181.090208 198.574594 
L 183.093308 195.058451 
L 185.091521 191.5624 
L 187.085072 188.097364 
L 189.074137 184.674202 
L 191.058879 181.303532 
L 193.039397 177.995715 
L 195.015763 174.760761 
L 196.988008 171.608278 
L 198.956122 168.547408 
L 200.920063 165.586745 
L 202.879756 162.734294 
L 204.835086 159.997419 
L 206.785913 157.382801 
L 208.73208 154.896299 
L 210.673371 152.543109 
L 212.609592 150.327447 
L 214.540501 148.252835 
L 216.465845 146.321771 
L 218.385361 144.536012 
L 220.298778 142.896253 
L 222.205813 141.402417 
L 224.10619 140.05335 
L 225.999624 138.847281 
L 227.885843 137.781199 
L 229.764578 136.851608 
L 231.635573 136.053838 
L 233.498583 135.382759 
L 235.353382 134.832164 
L 237.199764 134.395431 
L 239.03754 134.065054 
L 240.86655 133.83309 
L 242.686647 133.690888 
L 244.497738 133.629537 
L 246.299733 133.639429 
L 248.092578 133.710889 
L 249.876243 133.833666 
L 251.650756 133.997562 
L 253.416126 134.191981 
L 255.172439 134.406454 
L 256.919786 134.630297 
" clip-path="url(#p5c3c62c15e)" style="fill: none; stroke: #ff0000; stroke-opacity: 0.2; stroke-width: 1.5; stroke-linecap: square"/>
   </g>
   <g id="line2d_36">
    <path d="M 184.369195 199.573023 
L 186.377145 196.362497 
L 188.379623 193.170147 
L 190.376818 190.005067 
L 192.368879 186.87614 
L 194.355919 183.792124 
L 196.338032 180.761554 
L 198.315266 177.792667 
L 200.287639 174.893339 
L 202.255155 172.071076 
L 204.217763 169.332927 
L 206.175408 166.68545 
L 208.127989 164.134693 
L 210.0754 161.686058 
L 212.017497 159.344434 
L 213.954129 157.113942 
L 215.885104 154.998146 
L 217.810259 152.999816 
L 219.72938 151.121087 
L 221.642253 149.363252 
L 223.548663 147.727023 
L 225.448382 146.212161 
L 227.341208 144.817947 
L 229.226891 143.542607 
L 231.105246 142.384028 
L 232.976029 141.338993 
L 234.839078 140.403978 
L 236.694168 139.574507 
L 238.541162 138.84574 
L 240.379868 138.212046 
L 242.210174 137.667372 
L 244.03195 137.205118 
L 245.845101 136.818312 
L 247.649552 136.499402 
L 249.445249 136.240741 
L 251.232167 136.034102 
L 253.0103 135.871299 
L 254.779675 135.743668 
L 256.540335 135.642663 
L 258.292352 135.559484 
L 260.035826 135.485398 
" clip-path="url(#p5c3c62c15e)" style="fill: none; stroke: #ff0000; stroke-opacity: 0.2; stroke-width: 1.5; stroke-linecap: square"/>
   </g>
   <g id="line2d_37">
    <path d="M 187.655824 200.573777 
L 189.667974 197.678381 
L 191.674064 194.799096 
L 193.674249 191.942961 
L 195.66863 189.116989 
L 197.65731 186.327992 
L 199.640355 183.582618 
L 201.617812 180.88729 
L 203.589695 178.248162 
L 205.555997 175.671033 
L 207.516694 173.161412 
L 209.471738 170.724405 
L 211.421064 168.364633 
L 213.364579 166.086387 
L 215.302186 163.893332 
L 217.233764 161.78877 
L 219.159186 159.775376 
L 221.078308 157.855353 
L 222.990981 156.030265 
L 224.897048 154.301214 
L 226.796338 152.668574 
L 228.688709 151.132396 
L 230.573984 149.691809 
L 232.452005 148.345772 
L 234.322613 147.09226 
L 236.185657 145.929135 
L 238.040995 144.853346 
L 239.888493 143.861651 
L 241.728029 142.950094 
L 243.559496 142.114412 
L 245.382798 141.349847 
L 247.19786 140.65127 
L 249.004618 140.013182 
L 250.803031 139.429837 
L 252.593072 138.895042 
L 254.374737 138.40263 
L 256.148033 137.945937 
L 257.913013 137.518407 
L 259.669702 137.113189 
L 261.418194 136.723448 
L 263.158576 136.342343 
" clip-path="url(#p5c3c62c15e)" style="fill: none; stroke: #ff0000; stroke-opacity: 0.2; stroke-width: 1.5; stroke-linecap: square"/>
   </g>
   <g id="line2d_38">
    <path d="M 190.95012 201.576865 
L 192.965748 199.004184 
L 194.974727 196.445277 
L 196.977154 193.905209 
L 198.97313 191.388967 
L 200.962726 188.901457 
L 202.945994 186.4474 
L 204.922981 184.031377 
L 206.893696 181.657761 
L 208.858149 179.330722 
L 210.816328 177.054158 
L 212.768205 174.83165 
L 214.71374 172.666574 
L 216.652869 170.561854 
L 218.585559 168.520188 
L 220.511697 166.543847 
L 222.431224 164.634769 
L 224.344044 162.794443 
L 226.250059 161.024046 
L 228.14917 159.32424 
L 230.041273 157.695465 
L 231.926261 156.137468 
L 233.804032 154.649946 
L 235.674485 153.231809 
L 237.537519 151.881942 
L 239.39304 150.598489 
L 241.24096 149.379566 
L 243.081199 148.222645 
L 244.913685 147.124993 
L 246.738355 146.083532 
L 248.555158 145.094905 
L 250.364052 144.155402 
L 252.165002 143.261121 
L 253.958011 142.407884 
L 255.743067 141.591394 
L 257.520183 140.807027 
L 259.289378 140.050223 
L 261.050716 139.316103 
L 262.804216 138.599846 
L 264.549976 137.896506 
L 266.288063 137.201137 
" clip-path="url(#p5c3c62c15e)" style="fill: none; stroke: #ff0000; stroke-opacity: 0.2; stroke-width: 1.5; stroke-linecap: square"/>
   </g>
   <g id="line2d_39">
    <path d="M 194.252106 202.5823 
L 196.27043 200.337893 
L 198.281487 198.104708 
L 200.285378 195.885795 
L 202.282152 193.684139 
L 204.27189 191.50264 
L 206.25463 189.344161 
L 208.230409 187.211383 
L 210.199256 185.106935 
L 212.161191 183.033297 
L 214.116216 180.992755 
L 216.064337 178.987489 
L 218.005539 177.019409 
L 219.939802 175.090332 
L 221.867127 173.201791 
L 223.78745 171.355168 
L 225.700766 169.55155 
L 227.607024 167.791863 
L 229.506186 166.076707 
L 231.398208 164.406608 
L 233.283045 162.781602 
L 235.160651 161.201783 
L 237.030981 159.666647 
L 238.893991 158.175854 
L 240.74964 156.728427 
L 242.59789 155.323512 
L 244.438705 153.959744 
L 246.272054 152.635754 
L 248.097915 151.349831 
L 249.916266 150.100155 
L 251.727096 148.884661 
L 253.530399 147.701179 
L 255.326167 146.547313 
L 257.114428 145.420588 
L 258.895189 144.318363 
L 260.668479 143.237942 
L 262.434321 142.176454 
L 264.192786 141.131062 
L 265.943889 140.09881 
L 267.687712 139.076723 
L 269.424317 138.061787 
" clip-path="url(#p5c3c62c15e)" style="fill: none; stroke: #ff0000; stroke-opacity: 0.2; stroke-width: 1.5; stroke-linecap: square"/>
   </g>
   <g id="line2d_40">
    <path d="M 197.561817 203.590082 
L 199.581968 201.677449 
L 201.594266 199.773309 
L 203.598764 197.878633 
L 205.595512 195.994403 
L 207.584577 194.121566 
L 209.565996 192.261003 
L 211.539801 190.413635 
L 213.506052 188.580287 
L 215.464777 186.761711 
L 217.416004 184.958713 
L 219.359767 183.171917 
L 221.296091 181.40198 
L 223.225003 179.649447 
L 225.14652 177.914825 
L 227.060666 176.198508 
L 228.967456 174.500868 
L 230.866907 172.822122 
L 232.759035 171.162554 
L 234.643854 169.522155 
L 236.521377 167.901104 
L 238.39161 166.299192 
L 240.254592 164.716446 
L 242.110302 163.152511 
L 243.958788 161.607253 
L 245.800032 160.080195 
L 247.634085 158.570973 
L 249.46093 157.079037 
L 251.280619 155.603866 
L 253.093141 154.144772 
L 254.898544 152.701094 
L 256.696845 151.272043 
L 258.488063 149.856871 
L 260.272245 148.454681 
L 262.049418 147.064572 
L 263.819612 145.685658 
L 265.582868 144.316932 
L 267.339228 142.957443 
L 269.088731 141.606198 
L 270.831424 140.262143 
L 272.567359 138.924297 
" clip-path="url(#p5c3c62c15e)" style="fill: none; stroke: #ff0000; stroke-opacity: 0.2; stroke-width: 1.5; stroke-linecap: square"/>
   </g>
   <g id="line2d_41">
    <path d="M 200.879268 204.600219 
L 202.900349 203.020806 
L 204.912982 201.446953 
L 206.917207 199.877585 
L 208.913067 198.311644 
L 210.900608 196.748114 
L 212.879887 195.186015 
L 214.850953 193.624385 
L 216.813852 192.062305 
L 218.768664 190.498929 
L 220.715441 188.933398 
L 222.654249 187.364999 
L 224.58515 185.793029 
L 226.508211 184.216857 
L 228.423506 182.6359 
L 230.331102 181.049705 
L 232.23107 179.457787 
L 234.123484 177.859908 
L 236.008414 176.255674 
L 237.885934 174.645045 
L 239.756108 173.027765 
L 241.619024 171.403952 
L 243.474745 169.773518 
L 245.323341 168.136733 
L 247.164881 166.493686 
L 248.99943 164.84474 
L 250.827055 163.190213 
L 252.647819 161.530575 
L 254.461783 159.86626 
L 256.269004 158.197902 
L 258.06954 156.526059 
L 259.863439 154.851448 
L 261.650757 153.174784 
L 263.431536 151.49686 
L 265.20582 149.818499 
L 266.973655 148.140494 
L 268.73506 146.463844 
L 270.490104 144.789378 
L 272.238779 143.118051 
L 273.981134 141.45084 
L 275.717195 139.788672 
" clip-path="url(#p5c3c62c15e)" style="fill: none; stroke: #ff0000; stroke-opacity: 0.2; stroke-width: 1.5; stroke-linecap: square"/>
   </g>
   <g id="line2d_42">
    <path d="M 204.204489 205.61273 
L 206.225567 204.3659 
L 208.237603 203.121513 
L 210.240641 201.876462 
L 212.234712 200.62769 
L 214.219871 199.372225 
L 216.196175 198.107223 
L 218.163688 196.829879 
L 220.122504 195.537597 
L 222.072703 194.227852 
L 224.014377 192.898327 
L 225.947631 191.546839 
L 227.87257 190.171428 
L 229.789308 188.770291 
L 231.697966 187.341839 
L 233.598665 185.884664 
L 235.491532 184.397693 
L 237.376694 182.879866 
L 239.254283 181.330615 
L 241.124428 179.749325 
L 242.98726 178.135893 
L 244.8429 176.490186 
L 246.691502 174.812547 
L 248.533154 173.103359 
L 250.368012 171.36334 
L 252.196159 169.593383 
L 254.017739 167.794659 
L 255.832825 165.968464 
L 257.64155 164.116375 
L 259.443973 162.240073 
L 261.2402 160.341543 
L 263.030304 158.422803 
L 264.814341 156.486113 
L 266.592387 154.533878 
L 268.364487 152.568546 
L 270.13068 150.592833 
L 271.890999 148.609341 
L 273.645467 146.62094 
L 275.3941 144.630468 
L 277.136897 142.640813 
L 278.873858 140.654922 
" clip-path="url(#p5c3c62c15e)" style="fill: none; stroke: #ff0000; stroke-opacity: 0.2; stroke-width: 1.5; stroke-linecap: square"/>
   </g>
   <g id="line2d_43">
    <path d="M 207.537523 206.627612 
L 209.557623 205.710656 
L 211.568115 204.79288 
L 213.569026 203.869134 
L 215.560402 202.934431 
L 217.542301 201.983889 
L 219.514797 201.012739 
L 221.477971 200.016513 
L 223.431947 198.99083 
L 225.376834 197.93164 
L 227.312763 196.835138 
L 229.239879 195.697766 
L 231.158332 194.516274 
L 233.068287 193.287782 
L 234.969913 192.009661 
L 236.863387 190.679756 
L 238.748892 189.296072 
L 240.626611 187.85724 
L 242.496733 186.361981 
L 244.359447 184.809685 
L 246.21494 183.199861 
L 248.063389 181.532633 
L 249.905002 179.808322 
L 251.739921 178.02774 
L 253.568351 176.192032 
L 255.390425 174.302735 
L 257.206325 172.361684 
L 259.016168 170.371166 
L 260.820119 168.333666 
L 262.618269 166.252121 
L 264.410751 164.129637 
L 266.197649 161.969701 
L 267.979047 159.776027 
L 269.755022 157.552497 
L 271.525617 155.303371 
L 273.29088 153.032908 
L 275.050824 150.745679 
L 276.805461 148.446263 
L 278.554785 146.139492 
L 280.298768 143.830118 
L 282.037378 141.523056 
" clip-path="url(#p5c3c62c15e)" style="fill: none; stroke: #ff0000; stroke-opacity: 0.2; stroke-width: 1.5; stroke-linecap: square"/>
   </g>
   <g id="line2d_44">
    <path d="M 210.878376 207.644881 
L 212.896514 207.053027 
L 214.904493 206.456935 
L 216.902344 205.849522 
L 218.890115 205.223847 
L 220.86788 204.573123 
L 222.835731 203.890877 
L 224.793788 203.170772 
L 226.742176 202.406917 
L 228.681068 201.593664 
L 230.610626 200.725774 
L 232.531037 199.798382 
L 234.442502 198.807035 
L 236.345234 197.7477 
L 238.239456 196.616925 
L 240.1254 195.411552 
L 242.003304 194.129124 
L 243.87341 192.767454 
L 245.735964 191.325139 
L 247.59121 189.801038 
L 249.439385 188.194774 
L 251.280745 186.50631 
L 253.115514 184.736223 
L 254.943924 182.885618 
L 256.766191 180.956089 
L 258.582523 178.949728 
L 260.393116 176.869156 
L 262.198149 174.717403 
L 263.997789 172.498059 
L 265.792184 170.215047 
L 267.58147 167.872766 
L 269.36575 165.475982 
L 271.145128 163.029809 
L 272.919669 160.539783 
L 274.689425 158.011559 
L 276.454431 155.451262 
L 278.214686 152.865084 
L 279.970205 150.259558 
L 281.720927 147.641184 
L 283.466787 145.016781 
L 285.207767 142.393073 
" clip-path="url(#p5c3c62c15e)" style="fill: none; stroke: #ff0000; stroke-opacity: 0.2; stroke-width: 1.5; stroke-linecap: square"/>
   </g>
   <g id="line2d_45">
    <path d="M 214.227094 208.664541 
L 216.242283 208.390973 
L 218.246786 208.109677 
L 220.240637 207.811644 
L 222.223897 207.488016 
L 224.196665 207.130256 
L 226.159054 206.730053 
L 228.111214 206.279511 
L 230.053306 205.771072 
L 231.98554 205.197654 
L 233.908124 204.552602 
L 235.82129 203.829786 
L 237.725289 203.023598 
L 239.620386 202.129044 
L 241.506858 201.141568 
L 243.384993 200.057469 
L 245.255084 198.873383 
L 247.117431 197.586853 
L 248.972337 196.195839 
L 250.8201 194.699182 
L 252.661011 193.096205 
L 254.495381 191.38698 
L 256.323487 189.572249 
L 258.145603 187.65338 
L 259.961992 185.632394 
L 261.772907 183.511971 
L 263.578573 181.295373 
L 265.379211 178.986524 
L 267.175008 176.589841 
L 268.966145 174.110386 
L 270.752762 171.553701 
L 272.534987 168.925783 
L 274.312926 166.233218 
L 276.086642 163.48286 
L 277.85619 160.682073 
L 279.621584 157.838461 
L 281.382804 154.960064 
L 283.13986 152.054998 
L 284.892627 149.131784 
L 286.641079 146.198847 
L 288.385042 143.264979 
" clip-path="url(#p5c3c62c15e)" style="fill: none; stroke: #ff0000; stroke-opacity: 0.2; stroke-width: 1.5; stroke-linecap: square"/>
   </g>
   <g id="line2d_46">
    <path d="M 217.583695 209.686604 
L 219.594955 209.722509 
L 221.595022 209.747159 
L 223.58395 209.749602 
L 225.56182 209.719248 
L 227.528746 209.64572 
L 229.484878 209.519096 
L 231.430398 209.329835 
L 233.365503 209.06891 
L 235.290449 208.727748 
L 237.205486 208.29844 
L 239.110898 207.773587 
L 241.006985 207.146551 
L 242.894066 206.411236 
L 244.772473 205.56241 
L 246.642549 204.595351 
L 248.504644 203.506359 
L 250.359113 202.292246 
L 252.206312 200.950809 
L 254.046598 199.480482 
L 255.880312 197.880567 
L 257.707818 196.151164 
L 259.529436 194.293119 
L 261.34549 192.308112 
L 263.156285 190.198564 
L 264.962104 187.967669 
L 266.763217 185.619382 
L 268.559868 183.158353 
L 270.352272 180.58993 
L 272.140628 177.920159 
L 273.925091 175.155656 
L 275.705795 172.303754 
L 277.482852 169.372191 
L 279.256319 166.369351 
L 281.026244 163.303997 
L 282.792627 160.185423 
L 284.555443 157.023111 
L 286.314622 153.827083 
L 288.070078 150.607391 
L 289.821661 147.374493 
L 291.569256 144.138788 
" clip-path="url(#p5c3c62c15e)" style="fill: none; stroke: #ff0000; stroke-opacity: 0.2; stroke-width: 1.5; stroke-linecap: square"/>
   </g>
   <g id="line2d_47">
    <path d="M 220.948211 210.711072 
L 222.954575 211.045742 
L 224.949276 211.365515 
L 226.932383 211.657763 
L 228.904002 211.910012 
L 230.864278 212.110328 
L 232.81339 212.247123 
L 234.751559 212.309339 
L 236.679025 212.286479 
L 238.596087 212.168686 
L 240.503044 211.946692 
L 242.400229 211.612095 
L 244.287996 211.157043 
L 246.166716 210.57469 
L 248.036778 209.858773 
L 249.898577 209.004127 
L 251.75252 208.006189 
L 253.59902 206.861551 
L 255.438482 205.567498 
L 257.271316 204.122305 
L 259.097916 202.525188 
L 260.91869 200.776236 
L 262.734012 198.876461 
L 264.544237 196.827792 
L 266.349716 194.63303 
L 268.150767 192.295898 
L 269.947688 189.820938 
L 271.740752 187.213531 
L 273.53019 184.479907 
L 275.316218 181.626981 
L 277.099006 178.662545 
L 278.878694 175.594932 
L 280.655379 172.433272 
L 282.429136 169.187173 
L 284.199977 165.866917 
L 285.967892 162.483164 
L 287.732823 159.047135 
L 289.49471 155.570257 
L 291.25336 152.064484 
L 293.008678 148.541808 
L 294.760389 145.014496 
" clip-path="url(#p5c3c62c15e)" style="fill: none; stroke: #ff0000; stroke-opacity: 0.2; stroke-width: 1.5; stroke-linecap: square"/>
   </g>
   <g id="line2d_48">
    <path d="M 224.320658 211.737958 
L 226.32119 212.358748 
L 228.309626 212.961095 
L 230.28605 213.530555 
L 232.250601 214.053128 
L 234.203454 214.515185 
L 236.144827 214.903658 
L 238.07497 215.206026 
L 239.994196 215.410436 
L 241.902824 215.505712 
L 243.80121 215.48154 
L 245.68974 215.328222 
L 247.568819 215.037168 
L 249.438875 214.600409 
L 251.300346 214.011154 
L 253.153688 213.263366 
L 254.999359 212.352163 
L 256.837821 211.273478 
L 258.66954 210.024395 
L 260.494971 208.603 
L 262.314564 207.008353 
L 264.128748 205.24059 
L 265.937973 203.300864 
L 267.742603 201.191334 
L 269.543048 198.915188 
L 271.339638 196.47659 
L 273.132723 193.880653 
L 274.922563 191.133508 
L 276.709448 188.242052 
L 278.493565 185.214274 
L 280.275124 182.058759 
L 282.054244 178.785076 
L 283.831039 175.403416 
L 285.605553 171.924781 
L 287.377804 168.360643 
L 289.147745 164.723225 
L 290.915301 161.025073 
L 292.680345 157.279356 
L 294.442708 153.499429 
L 296.202173 149.699041 
L 297.958487 145.89212 
" clip-path="url(#p5c3c62c15e)" style="fill: none; stroke: #ff0000; stroke-opacity: 0.2; stroke-width: 1.5; stroke-linecap: square"/>
   </g>
   <g id="line2d_49">
    <path d="M 227.701081 212.767273 
L 229.69489 213.659773 
L 231.676201 214.530288 
L 233.64513 215.362785 
L 235.601841 216.141663 
L 237.546548 216.851824 
L 239.479512 217.478718 
L 241.401024 218.008498 
L 243.311443 218.427998 
L 245.211135 218.724935 
L 247.10051 218.88773 
L 248.980003 218.905911 
L 250.850074 218.769685 
L 252.711202 218.470567 
L 254.563883 218.000798 
L 256.408622 217.353932 
L 258.245932 216.524429 
L 260.076326 215.507918 
L 261.900318 214.301151 
L 263.718412 212.902003 
L 265.531104 211.309477 
L 267.338866 209.523728 
L 269.142181 207.54601 
L 270.94146 205.378754 
L 272.737141 203.025449 
L 274.529575 200.490686 
L 276.319145 197.780182 
L 278.106124 194.90057 
L 279.89082 191.859688 
L 281.673436 188.666121 
L 283.454148 185.329588 
L 285.233145 181.860509 
L 287.010454 178.27032 
L 288.786156 174.571045 
L 290.560228 170.775596 
L 292.332624 166.897342 
L 294.103208 162.950402 
L 295.871836 158.949264 
L 297.638289 154.908879 
L 299.402303 150.84451 
L 301.163579 146.771657 
" clip-path="url(#p5c3c62c15e)" style="fill: none; stroke: #ff0000; stroke-opacity: 0.2; stroke-width: 1.5; stroke-linecap: square"/>
   </g>
   <g id="line2d_50">
    <path d="M 231.089491 213.799022 
L 233.075735 214.94709 
L 235.049119 216.069729 
L 237.009788 217.149431 
L 238.957947 218.16908 
L 240.893847 219.112154 
L 242.817789 219.962824 
L 244.730122 220.705909 
L 246.631224 221.327155 
L 248.521539 221.813016 
L 250.401516 222.151096 
L 252.271644 222.329731 
L 254.132437 222.338589 
L 255.984425 222.168126 
L 257.828157 221.810197 
L 259.664187 221.2576 
L 261.493082 220.504398 
L 263.315404 219.545891 
L 265.131713 218.378505 
L 266.942559 216.999953 
L 268.748467 215.409174 
L 270.549981 213.606313 
L 272.347586 211.592782 
L 274.141753 209.371193 
L 275.932922 206.945341 
L 277.721495 204.320266 
L 279.507847 201.502058 
L 281.292302 198.498164 
L 283.075138 195.316827 
L 284.856595 191.96764 
L 286.636852 188.460981 
L 288.416047 184.808403 
L 290.194262 181.022165 
L 291.971506 177.115578 
L 293.747765 173.102524 
L 295.522952 168.997833 
L 297.296896 164.816763 
L 299.069442 160.575214 
L 300.840283 156.289584 
L 302.609163 151.976554 
L 304.375653 147.653117 
" clip-path="url(#p5c3c62c15e)" style="fill: none; stroke: #ff0000; stroke-opacity: 0.2; stroke-width: 1.5; stroke-linecap: square"/>
   </g>
   <g id="line2d_51">
    <path d="M 234.485926 214.833217 
L 236.463823 216.219084 
L 238.428538 217.576277 
L 240.380254 218.885779 
L 242.319211 220.129188 
L 244.245705 221.288653 
L 246.160081 222.347056 
L 248.062725 223.288184 
L 249.954092 224.096511 
L 251.834648 224.757678 
L 253.704902 225.258098 
L 255.565396 225.585542 
L 257.416691 225.728617 
L 259.259375 225.677378 
L 261.094043 225.422828 
L 262.921304 224.957399 
L 264.741769 224.274722 
L 266.556044 223.369673 
L 268.364736 222.238522 
L 270.168439 220.878794 
L 271.967732 219.289321 
L 273.763153 217.470348 
L 275.555266 215.423316 
L 277.344533 213.151055 
L 279.131452 210.657663 
L 280.916419 207.948474 
L 282.69985 205.030213 
L 284.482044 201.910597 
L 286.263345 198.598745 
L 288.043928 195.104741 
L 289.82404 191.439958 
L 291.603734 187.616582 
L 293.383133 183.648048 
L 295.162226 179.548437 
L 296.940955 175.332944 
L 298.719202 171.01735 
L 300.496785 166.618226 
L 302.273467 162.152732 
L 304.048943 157.638508 
L 305.822855 153.093641 
L 307.594779 148.53651 
" clip-path="url(#p5c3c62c15e)" style="fill: none; stroke: #ff0000; stroke-opacity: 0.2; stroke-width: 1.5; stroke-linecap: square"/>
   </g>
   <g id="line2d_52">
    <path d="M 237.890424 215.869857 
L 239.859262 217.474298 
L 241.814639 219.046913 
L 243.756778 220.567474 
L 245.68596 222.016236 
L 247.602522 223.374222 
L 249.50686 224.623231 
L 251.399404 225.745797 
L 253.280659 226.725663 
L 255.151141 227.547268 
L 257.011411 228.196465 
L 258.862059 228.659953 
L 260.703701 228.925928 
L 262.536968 228.983565 
L 264.362507 228.823514 
L 266.180976 228.437651 
L 267.993028 227.819239 
L 269.799319 226.9629 
L 271.600493 225.864603 
L 273.397178 224.521771 
L 275.189993 222.933224 
L 276.979517 221.099119 
L 278.766329 219.021068 
L 280.550924 216.702067 
L 282.333822 214.146408 
L 284.115442 211.359899 
L 285.896194 208.349478 
L 287.676413 205.123539 
L 289.456407 201.691585 
L 291.2364 198.064542 
L 293.016566 194.254264 
L 294.797058 190.273945 
L 296.577861 186.137633 
L 298.359007 181.86059 
L 300.140404 177.458779 
L 301.921899 172.949128 
L 303.703275 168.349296 
L 305.484244 163.677575 
L 307.264474 158.952827 
L 309.043535 154.194344 
L 310.820962 149.421834 
" clip-path="url(#p5c3c62c15e)" style="fill: none; stroke: #ff0000; stroke-opacity: 0.2; stroke-width: 1.5; stroke-linecap: square"/>
   </g>
   <g id="line2d_53">
    <path d="M 241.302995 216.908963 
L 243.262141 218.711313 
L 245.207592 220.478945 
L 247.139611 222.190423 
L 249.058523 223.824947 
L 250.964711 225.362441 
L 252.858615 226.783606 
L 254.740726 228.07021 
L 256.611565 229.204823 
L 258.471732 230.171373 
L 260.321825 230.954658 
L 262.162482 231.540939 
L 263.994367 231.917565 
L 265.818163 232.073318 
L 267.63456 231.998298 
L 269.444257 231.683972 
L 271.247954 231.123262 
L 273.04635 230.310526 
L 274.840123 229.241551 
L 276.629937 227.913637 
L 278.416436 226.325503 
L 280.20025 224.477374 
L 281.981956 222.370923 
L 283.762097 220.009272 
L 285.54118 217.397058 
L 287.319668 214.540202 
L 289.097963 211.446173 
L 290.876419 208.123663 
L 292.655331 204.582854 
L 294.434928 200.83501 
L 296.215382 196.892859 
L 297.996791 192.770062 
L 299.779191 188.481667 
L 301.562539 184.043553 
L 303.346723 179.47269 
L 305.131561 174.786926 
L 306.916785 170.004871 
L 308.702121 165.145877 
L 310.487099 160.229897 
L 312.271326 155.277371 
L 314.054197 150.309099 
" clip-path="url(#p5c3c62c15e)" style="fill: none; stroke: #ff0000; stroke-opacity: 0.2; stroke-width: 1.5; stroke-linecap: square"/>
   </g>
   <g id="line2d_54">
    <path d="M 244.723677 217.950534 
L 246.672585 219.928882 
L 248.607609 221.869854 
L 250.529054 223.750998 
L 252.437289 225.550529 
L 254.332743 227.247352 
L 256.215904 228.821403 
L 258.0873 230.253424 
L 259.947532 231.52541 
L 261.797215 232.620299 
L 263.637007 233.522482 
L 265.467594 234.217403 
L 267.289685 234.691984 
L 269.104006 234.934483 
L 270.911294 234.934558 
L 272.712291 234.683357 
L 274.507733 234.173479 
L 276.298356 233.399024 
L 278.084866 232.355675 
L 279.867976 231.040557 
L 281.64835 229.452359 
L 283.426616 227.591337 
L 285.203432 225.459202 
L 286.979294 223.059291 
L 288.754787 220.396325 
L 290.530317 217.476607 
L 292.306367 214.307804 
L 294.083209 210.899128 
L 295.861221 207.261036 
L 297.640545 203.405491 
L 299.421428 199.345544 
L 301.20386 195.095731 
L 302.987921 190.67156 
L 304.773525 186.089747 
L 306.560528 181.368024 
L 308.348715 176.525049 
L 310.137802 171.580329 
L 311.92741 166.554126 
L 313.717086 161.467374 
L 315.506335 156.341496 
L 317.294559 151.198314 
" clip-path="url(#p5c3c62c15e)" style="fill: none; stroke: #ff0000; stroke-opacity: 0.2; stroke-width: 1.5; stroke-linecap: square"/>
   </g>
   <g id="line2d_55">
    <path d="M 248.152507 218.994586 
L 250.090726 221.125853 
L 252.014917 223.217413 
L 253.925425 225.245929 
L 255.822668 227.188637 
L 257.70712 229.023793 
L 259.579318 230.730368 
L 261.439834 232.288552 
L 263.289318 233.679478 
L 265.128428 234.885639 
L 266.957868 235.890659 
L 268.778376 236.679597 
L 270.590698 237.238855 
L 272.395604 237.556251 
L 274.193871 237.621101 
L 275.986275 237.424253 
L 277.773597 236.958031 
L 279.556594 236.216382 
L 281.33602 235.194746 
L 283.112598 233.890233 
L 284.887027 232.301494 
L 286.659969 230.428721 
L 288.432048 228.273806 
L 290.203848 225.840098 
L 291.97589 223.132527 
L 293.74866 220.15762 
L 295.522577 216.923362 
L 297.297979 213.439201 
L 299.075165 209.716079 
L 300.854355 205.766257 
L 302.635656 201.603449 
L 304.419202 197.242554 
L 306.204914 192.699744 
L 307.992747 187.992379 
L 309.782515 183.138804 
L 311.573966 178.158434 
L 313.366761 173.071534 
L 315.1605 167.899186 
L 316.954683 162.663127 
L 318.748744 157.385637 
L 320.542037 152.089486 
" clip-path="url(#p5c3c62c15e)" style="fill: none; stroke: #ff0000; stroke-opacity: 0.2; stroke-width: 1.5; stroke-linecap: square"/>
   </g>
   <g id="line2d_56">
    <path d="M 251.589497 220.041129 
L 253.516675 222.30125 
L 255.429723 224.519708 
L 257.329038 226.672259 
L 259.21507 228.735606 
L 261.08835 230.68707 
L 262.949456 232.505196 
L 264.799012 234.169374 
L 266.637691 235.660313 
L 268.46622 236.959853 
L 270.285343 238.051216 
L 272.09583 238.918964 
L 273.898469 239.549138 
L 275.694075 239.929192 
L 277.48346 240.048159 
L 279.267433 239.896569 
L 281.046805 239.466642 
L 282.822359 238.752038 
L 284.594883 237.748165 
L 286.365127 236.45199 
L 288.133798 234.862142 
L 289.90159 232.978903 
L 291.66913 230.804103 
L 293.437019 228.341249 
L 295.205781 225.595418 
L 296.975915 222.573302 
L 298.747823 219.283137 
L 300.521852 215.734649 
L 302.298283 211.939032 
L 304.077333 207.909024 
L 305.859117 203.658653 
L 307.643687 199.203286 
L 309.431001 194.55962 
L 311.220956 189.745472 
L 313.013334 184.779823 
L 314.807855 179.682649 
L 316.604128 174.474892 
L 318.401746 169.178289 
L 320.200104 163.815273 
L 321.998665 158.408886 
L 323.796653 152.982617 
" clip-path="url(#p5c3c62c15e)" style="fill: none; stroke: #ff0000; stroke-opacity: 0.2; stroke-width: 1.5; stroke-linecap: square"/>
   </g>
   <g id="line2d_57">
    <path d="M 255.034695 221.090165 
L 256.950586 223.45428 
L 258.852291 225.774985 
L 260.740247 228.027636 
L 262.61496 230.188103 
L 264.476991 232.233375 
L 266.326969 234.14122 
L 268.165567 235.890739 
L 269.993488 237.462058 
L 271.811515 238.836618 
L 273.620419 239.997295 
L 275.421016 240.928243 
L 277.214136 241.615159 
L 279.000619 242.045306 
L 280.781307 242.207377 
L 282.557062 242.091818 
L 284.328672 241.69049 
L 286.097014 240.997112 
L 287.862855 240.006871 
L 289.626966 238.716719 
L 291.390086 237.125258 
L 293.152916 235.23276 
L 294.916089 233.041095 
L 296.680216 230.553876 
L 298.445832 227.776306 
L 300.213416 224.715201 
L 301.983383 221.378935 
L 303.756073 217.77752 
L 305.53177 213.922431 
L 307.310638 209.826632 
L 309.092808 205.504472 
L 310.878299 200.971764 
L 312.667049 196.245503 
L 314.458912 191.343982 
L 316.253664 186.286621 
L 318.05096 181.093931 
L 319.850411 175.787318 
L 321.651513 170.389069 
L 323.453675 164.922233 
L 325.256223 159.410418 
L 327.058461 153.877718 
" clip-path="url(#p5c3c62c15e)" style="fill: none; stroke: #ff0000; stroke-opacity: 0.2; stroke-width: 1.5; stroke-linecap: square"/>
   </g>
   <g id="line2d_58">
    <path d="M 258.488122 222.141713 
L 260.392588 224.584161 
L 262.282854 226.98202 
L 264.159405 229.309954 
L 266.022779 231.543619 
L 267.873595 233.659367 
L 269.712509 235.634753 
L 271.540243 237.448334 
L 273.357546 239.079959 
L 275.165223 240.510806 
L 276.964095 241.723295 
L 278.755007 242.701447 
L 280.538821 243.430691 
L 282.316406 243.897989 
L 284.088665 244.092019 
L 285.856406 244.002879 
L 287.620549 243.622476 
L 289.381906 242.944273 
L 291.141296 241.963485 
L 292.899507 240.676998 
L 294.657278 239.083377 
L 296.415323 237.182863 
L 298.174295 234.977454 
L 299.934784 232.470745 
L 301.697351 229.668065 
L 303.462459 226.576308 
L 305.230513 223.204049 
L 307.001858 219.561388 
L 308.77674 215.660078 
L 310.555346 211.513207 
L 312.337751 207.135502 
L 314.123972 202.542879 
L 315.913906 197.752783 
L 317.707393 192.783756 
L 319.50417 187.6556 
L 321.303872 182.389167 
L 323.106029 177.006273 
L 324.910153 171.529633 
L 326.715568 165.982708 
L 328.52161 160.38957 
L 330.327438 154.774795 
" clip-path="url(#p5c3c62c15e)" style="fill: none; stroke: #ff0000; stroke-opacity: 0.2; stroke-width: 1.5; stroke-linecap: square"/>
   </g>
   <g id="line2d_59">
    <path d="M 261.949795 223.195764 
L 263.842812 225.690448 
L 265.721659 228.139615 
L 267.586858 230.517743 
L 269.438995 232.800006 
L 271.278724 234.962642 
L 273.106744 236.98281 
L 274.923801 238.838842 
L 276.730708 240.510378 
L 278.528281 241.978269 
L 280.317379 243.224893 
L 282.098881 244.233958 
L 283.873683 244.990783 
L 285.642678 245.482238 
L 287.406762 245.696706 
L 289.166832 245.624391 
L 290.923763 245.256945 
L 292.67841 244.587858 
L 294.4316 243.612273 
L 296.184142 242.32703 
L 297.936774 240.73066 
L 299.690205 238.82349 
L 301.445132 236.607433 
L 303.202094 234.086224 
L 304.961698 231.265163 
L 306.724341 228.151281 
L 308.490488 224.753215 
L 310.260397 221.081269 
L 312.034378 217.147127 
L 313.812529 212.964294 
L 315.594966 208.547385 
L 317.381615 203.912746 
L 319.172417 199.077841 
L 320.967158 194.061579 
L 322.765516 188.883901 
L 324.567126 183.565938 
L 326.371486 178.129793 
L 328.178032 172.598462 
L 329.986083 166.995674 
L 331.794906 161.345834 
L 333.603654 155.673847 
" clip-path="url(#p5c3c62c15e)" style="fill: none; stroke: #ff0000; stroke-opacity: 0.2; stroke-width: 1.5; stroke-linecap: square"/>
   </g>
   <g id="line2d_60">
    <path d="M 265.419763 224.252345 
L 267.301423 226.772707 
L 269.168982 229.247108 
L 271.022997 231.649827 
L 272.8641 233.955924 
L 274.692973 236.141399 
L 276.510362 238.183322 
L 278.317041 240.059932 
L 280.113853 241.75063 
L 281.901652 243.236253 
L 283.681316 244.49898 
L 285.45376 245.522519 
L 287.219896 246.292048 
L 288.980636 246.794339 
L 290.736913 247.017809 
L 292.489621 246.952434 
L 294.239665 246.590004 
L 295.987898 245.923885 
L 297.735172 244.949179 
L 299.482286 243.662714 
L 301.229994 242.063075 
L 302.979015 240.150514 
L 304.730002 237.927036 
L 306.483551 235.396289 
L 308.240203 232.563701 
L 310.000402 229.436288 
L 311.76455 226.022827 
L 313.532948 222.333498 
L 315.305826 218.380327 
L 317.083312 214.176547 
L 318.865444 209.737235 
L 320.652237 205.078513 
L 322.443468 200.218206 
L 324.238975 195.175148 
L 326.038405 189.969529 
L 327.841328 184.622562 
L 329.647236 179.156508 
L 331.455513 173.594484 
L 333.265461 167.960428 
L 335.076278 162.27887 
L 336.887094 156.574891 
" clip-path="url(#p5c3c62c15e)" style="fill: none; stroke: #ff0000; stroke-opacity: 0.2; stroke-width: 1.5; stroke-linecap: square"/>
   </g>
   <g id="line2d_61">
    <path d="M 268.898039 225.311459 
L 270.768548 227.830739 
L 272.625058 230.304052 
L 274.468176 232.705592 
L 276.298552 235.010479 
L 278.116916 237.194625 
L 279.924035 239.235144 
L 281.720726 241.110189 
L 283.507842 242.799231 
L 285.286276 244.283038 
L 287.05693 245.543803 
L 288.820724 246.565215 
L 290.578609 247.33244 
L 292.331493 247.832255 
L 294.080364 248.053057 
L 295.826073 247.984841 
L 297.56957 247.619335 
L 299.311726 246.949985 
L 301.053368 245.971823 
L 302.795305 244.681708 
L 304.538309 243.078201 
L 306.283075 241.1616 
L 308.030258 238.93384 
L 309.780447 236.39865 
L 311.534167 233.56138 
L 313.291869 230.429187 
L 315.053922 227.010613 
L 316.820622 223.316151 
L 318.59217 219.357509 
L 320.368692 215.148277 
L 322.150218 210.703155 
L 323.936653 206.03867 
L 325.727867 201.172319 
L 327.523589 196.123182 
L 329.323452 190.91131 
L 331.127019 185.558055 
L 332.933709 180.085592 
L 334.74294 174.517114 
L 336.553906 168.876546 
L 338.365859 163.188463 
L 340.177811 157.477926 
" clip-path="url(#p5c3c62c15e)" style="fill: none; stroke: #ff0000; stroke-opacity: 0.2; stroke-width: 1.5; stroke-linecap: square"/>
   </g>
  </g>
 </g>
 <defs>
  <clipPath id="p5c3c62c15e">
   <rect x="103.104" y="41.472" width="266.112" height="266.112"/>
  </clipPath>
 </defs>
</svg>
