<?xml version="1.0" encoding="utf-8" standalone="no"?>
<!DOCTYPE svg PUBLIC "-//W3C//DTD SVG 1.1//EN"
  "http://www.w3.org/Graphics/SVG/1.1/DTD/svg11.dtd">
<svg xmlns:xlink="http://www.w3.org/1999/xlink" width="360pt" height="288pt" viewBox="0 0 360 288" xmlns="http://www.w3.org/2000/svg" version="1.1">
 <metadata>
  <rdf:RDF xmlns:dc="http://purl.org/dc/elements/1.1/" xmlns:cc="http://creativecommons.org/ns#" xmlns:rdf="http://www.w3.org/1999/02/22-rdf-syntax-ns#">
   <cc:Work>
    <dc:type rdf:resource="http://purl.org/dc/dcmitype/StillImage"/>
    <dc:date>2024-11-11T15:22:12.346843</dc:date>
    <dc:format>image/svg+xml</dc:format>
    <dc:creator>
     <cc:Agent>
      <dc:title>Matplotlib v3.5.2, https://matplotlib.org/</dc:title>
     </cc:Agent>
    </dc:creator>
   </cc:Work>
  </rdf:RDF>
 </metadata>
 <defs>
  <style type="text/css">*{stroke-linejoin: round; stroke-linecap: butt}</style>
 </defs>
 <g id="figure_1">
  <g id="patch_1">
   <path d="M 0 288 
L 360 288 
L 360 0 
L 0 0 
z
" style="fill: #ffffff"/>
  </g>
  <g id="axes_1">
   <g id="patch_2">
    <path d="M 45 256.32 
L 324 256.32 
L 324 34.56 
L 45 34.56 
z
" style="fill: #ffffff"/>
   </g>
   <g id="PolyCollection_1">
    <path d="M 57.681818 44.64 
L 57.681818 98.053749 
L 58.956373 99.6357 
L 60.230927 101.223076 
L 61.505482 102.819284 
L 62.780037 102.926598 
L 64.054591 103.034521 
L 65.329146 103.447725 
L 66.6037 104.016632 
L 67.878255 104.618404 
L 69.15281 105.220687 
L 70.427364 105.738677 
L 71.701919 106.302777 
L 72.976473 106.996207 
L 74.251028 107.688068 
L 75.525582 108.57968 
L 76.800137 109.685579 
L 78.074692 111.072215 
L 79.349246 112.573498 
L 80.623801 114.205299 
L 81.898355 115.867981 
L 83.17291 117.553837 
L 84.447465 119.203807 
L 85.722019 121.001266 
L 86.996574 122.946809 
L 88.271128 125.081949 
L 89.545683 127.373388 
L 90.820238 129.752605 
L 92.094792 132.126242 
L 93.369347 134.49886 
L 94.643901 136.857003 
L 95.918456 139.184407 
L 97.193011 141.493062 
L 98.467565 143.804114 
L 99.74212 146.097539 
L 101.016674 148.385176 
L 102.291229 150.668176 
L 103.565783 152.94732 
L 104.840338 155.230723 
L 106.114893 157.483145 
L 107.389447 159.645447 
L 108.664002 161.685043 
L 109.938556 164.008946 
L 111.213111 166.970469 
L 112.487666 169.350219 
L 113.76222 170.65097 
L 115.036775 171.888517 
L 116.311329 172.618143 
L 117.585884 173.071244 
L 118.860439 173.197181 
L 120.134993 173.958529 
L 121.409548 174.20113 
L 122.684102 174.544823 
L 123.958657 176.842413 
L 125.233212 179.173649 
L 126.507766 181.315288 
L 127.782321 183.12202 
L 129.056875 184.552734 
L 130.33143 185.646176 
L 131.605984 186.364551 
L 132.880539 186.224882 
L 134.155094 186.741705 
L 135.429648 187.114137 
L 136.704203 187.196421 
L 137.978757 187.256673 
L 139.253312 187.969028 
L 140.527867 187.810302 
L 141.802421 187.778751 
L 143.076976 187.943874 
L 144.35153 186.269988 
L 145.626085 185.652227 
L 146.90064 185.886683 
L 148.175194 185.177975 
L 149.449749 183.259062 
L 150.724303 184.407578 
L 151.998858 185.324985 
L 153.273413 184.690564 
L 154.547967 185.45457 
L 155.822522 186.073111 
L 157.097076 186.580669 
L 158.371631 187.007411 
L 159.646185 187.372757 
L 160.92074 187.686514 
L 162.195295 188.00061 
L 163.469849 188.160904 
L 164.744404 188.326739 
L 166.018958 188.454191 
L 167.293513 188.552532 
L 168.568068 188.629847 
L 169.842622 188.691498 
L 171.117177 188.741272 
L 172.391731 189.348662 
L 173.666286 188.813764 
L 174.940841 189.465766 
L 176.215395 188.860849 
L 177.48995 188.877741 
L 178.764504 188.891435 
L 180.039059 188.944237 
L 181.313614 189.001151 
L 182.588168 188.917106 
L 183.862723 188.921727 
L 185.137277 188.925011 
L 186.411832 189.771849 
L 187.686386 188.928674 
L 188.960941 189.85724 
L 190.235496 189.880322 
L 191.51005 189.080537 
L 192.784605 188.919864 
L 194.059159 189.427028 
L 195.333714 189.432097 
L 196.608269 188.880361 
L 197.882823 189.135681 
L 199.157378 189.259462 
L 200.431932 188.784384 
L 201.706487 188.737609 
L 202.981042 188.861289 
L 204.255596 189.176491 
L 205.530151 189.227068 
L 206.804705 189.429014 
L 208.07926 189.22492 
L 209.353815 189.352595 
L 210.628369 189.319923 
L 211.902924 189.510247 
L 213.177478 189.540863 
L 214.452033 189.502086 
L 215.726587 189.452073 
L 217.001142 189.405615 
L 218.275697 189.370632 
L 219.550251 189.30116 
L 220.824806 189.254663 
L 222.09936 189.531737 
L 223.373915 189.465751 
L 224.64847 189.412144 
L 225.923024 189.750073 
L 227.197579 190.128989 
L 228.472133 189.766796 
L 229.746688 190.184921 
L 231.021243 190.127436 
L 232.295797 189.642752 
L 233.570352 189.164722 
L 234.844906 189.109006 
L 236.119461 188.581565 
L 237.394016 189.137629 
L 238.66857 189.75658 
L 239.943125 189.707695 
L 241.217679 190.311082 
L 242.492234 190.957876 
L 243.766788 190.987836 
L 245.041343 190.331924 
L 246.315898 191.018986 
L 247.590452 191.069772 
L 248.865007 191.112204 
L 250.139561 191.144939 
L 251.414116 191.866165 
L 252.688671 191.901217 
L 253.963225 191.123757 
L 255.23778 190.350377 
L 256.512334 190.388034 
L 257.786889 189.576642 
L 259.061444 189.610311 
L 260.335998 189.675749 
L 261.610553 190.442398 
L 262.885107 190.486816 
L 264.159662 191.362571 
L 265.434217 190.409223 
L 266.708771 191.260482 
L 267.983326 191.287482 
L 269.25788 191.313702 
L 270.532435 190.499853 
L 271.806989 190.60586 
L 273.081544 190.712323 
L 274.356099 190.818277 
L 275.630653 190.923674 
L 276.905208 191.028445 
L 278.179762 191.433318 
L 279.454317 191.453634 
L 280.728872 191.46106 
L 282.003426 191.4799 
L 283.277981 191.540515 
L 284.552535 191.63956 
L 285.82709 191.737144 
L 287.101645 191.833492 
L 288.376199 191.92821 
L 289.650754 192.021289 
L 290.925308 192.694349 
L 292.199863 192.20332 
L 293.474418 192.291941 
L 294.748972 192.379209 
L 296.023527 192.464862 
L 297.298081 192.549093 
L 298.572636 192.631685 
L 299.84719 192.713158 
L 301.121745 192.792953 
L 302.3963 192.871697 
L 303.670854 192.94912 
L 304.945409 193.025346 
L 306.219963 193.100273 
L 307.494518 193.17428 
L 308.769073 193.246865 
L 310.043627 193.318392 
L 311.318182 193.375206 
L 311.318182 170.226678 
L 311.318182 170.226678 
L 310.043627 170.247967 
L 308.769073 170.259219 
L 307.494518 170.093956 
L 306.219963 169.925069 
L 304.945409 169.723618 
L 303.670854 169.468916 
L 302.3963 169.156218 
L 301.121745 168.949713 
L 299.84719 167.390658 
L 298.572636 166.919792 
L 297.298081 166.475423 
L 296.023527 166.084715 
L 294.748972 165.715829 
L 293.474418 166.627773 
L 292.199863 166.469658 
L 290.925308 166.30778 
L 289.650754 166.088269 
L 288.376199 164.940139 
L 287.101645 164.798329 
L 285.82709 163.714037 
L 284.552535 162.662919 
L 283.277981 162.563526 
L 282.003426 163.393132 
L 280.728872 162.426477 
L 279.454317 163.209462 
L 278.179762 163.168034 
L 276.905208 161.3102 
L 275.630653 160.409763 
L 274.356099 160.966823 
L 273.081544 160.102938 
L 271.806989 160.031998 
L 270.532435 160.902638 
L 269.25788 160.843761 
L 267.983326 160.16567 
L 266.708771 160.728689 
L 265.434217 160.665786 
L 264.159662 160.590357 
L 262.885107 161.108486 
L 261.610553 161.608764 
L 260.335998 161.458686 
L 259.061444 161.925735 
L 257.786889 162.367245 
L 256.512334 162.208079 
L 255.23778 161.507996 
L 253.963225 161.734933 
L 252.688671 161.58249 
L 251.414116 161.428293 
L 250.139561 161.257776 
L 248.865007 160.951523 
L 247.590452 159.938069 
L 246.315898 159.752003 
L 245.041343 159.055398 
L 243.766788 159.43021 
L 242.492234 159.525863 
L 241.217679 160.428695 
L 239.943125 161.060142 
L 238.66857 161.422304 
L 237.394016 160.348266 
L 236.119461 160.38124 
L 234.844906 160.309079 
L 233.570352 159.356226 
L 232.295797 158.833321 
L 231.021243 158.70077 
L 229.746688 159.645756 
L 228.472133 158.753371 
L 227.197579 158.276632 
L 225.923024 158.652797 
L 224.64847 159.064648 
L 223.373915 157.955364 
L 222.09936 157.766493 
L 220.824806 157.620743 
L 219.550251 157.663345 
L 218.275697 158.281948 
L 217.001142 159.074724 
L 215.726587 159.890521 
L 214.452033 160.985594 
L 213.177478 161.082815 
L 211.902924 160.582583 
L 210.628369 159.227847 
L 209.353815 158.88148 
L 208.07926 158.554934 
L 206.804705 157.571039 
L 205.530151 157.56352 
L 204.255596 158.589106 
L 202.981042 158.631329 
L 201.706487 158.634799 
L 200.431932 159.646359 
L 199.157378 159.683676 
L 197.882823 159.587197 
L 196.608269 159.536426 
L 195.333714 158.119158 
L 194.059159 158.098317 
L 192.784605 158.051256 
L 191.51005 158.089987 
L 190.235496 156.575861 
L 188.960941 157.941068 
L 187.686386 157.881155 
L 186.411832 157.860662 
L 185.137277 157.828832 
L 183.862723 159.245821 
L 182.588168 159.178676 
L 181.313614 159.066518 
L 180.039059 157.236232 
L 178.764504 157.147728 
L 177.48995 157.09222 
L 176.215395 157.026481 
L 174.940841 157.014673 
L 173.666286 158.701171 
L 172.391731 158.620209 
L 171.117177 158.338986 
L 169.842622 157.856018 
L 168.568068 157.170408 
L 167.293513 156.273131 
L 166.018958 155.229046 
L 164.744404 154.184743 
L 163.469849 153.15442 
L 162.195295 152.137142 
L 160.92074 151.132312 
L 159.646185 150.133425 
L 158.371631 149.134283 
L 157.097076 148.124995 
L 155.822522 147.109107 
L 154.547967 146.074055 
L 153.273413 145.035255 
L 151.998858 143.993116 
L 150.724303 142.943613 
L 149.449749 141.886166 
L 148.175194 140.824902 
L 146.90064 139.722851 
L 145.626085 138.57843 
L 144.35153 137.398207 
L 143.076976 136.192413 
L 141.802421 134.987214 
L 140.527867 133.81604 
L 139.253312 132.687283 
L 137.978757 131.596885 
L 136.704203 130.536208 
L 135.429648 129.488343 
L 134.155094 128.442758 
L 132.880539 127.393464 
L 131.605984 126.341017 
L 130.33143 125.284606 
L 129.056875 124.239484 
L 127.782321 123.225297 
L 126.507766 122.251493 
L 125.233212 121.323778 
L 123.958657 120.450256 
L 122.684102 119.620627 
L 121.409548 118.81663 
L 120.134993 118.030492 
L 118.860439 117.255822 
L 117.585884 116.480209 
L 116.311329 115.702154 
L 115.036775 114.926788 
L 113.76222 114.165927 
L 112.487666 113.432785 
L 111.213111 112.716474 
L 109.938556 111.97953 
L 108.664002 111.203368 
L 107.389447 110.390709 
L 106.114893 109.564109 
L 104.840338 108.763428 
L 103.565783 108.045478 
L 102.291229 107.440869 
L 101.016674 106.953133 
L 99.74212 106.567008 
L 98.467565 106.277013 
L 97.193011 105.908321 
L 95.918456 105.415554 
L 94.643901 104.81508 
L 93.369347 104.20721 
L 92.094792 103.703609 
L 90.820238 103.29046 
L 89.545683 103.006957 
L 88.271128 102.884451 
L 86.996574 102.815297 
L 85.722019 102.785004 
L 84.447465 102.772207 
L 83.17291 102.767161 
L 81.898355 102.764882 
L 80.623801 102.763792 
L 79.349246 102.762455 
L 78.074692 102.760554 
L 76.800137 102.758066 
L 75.525582 102.755153 
L 74.251028 102.751034 
L 72.976473 102.745462 
L 71.701919 102.737503 
L 70.427364 102.727256 
L 69.15281 102.715085 
L 67.878255 102.690782 
L 66.6037 102.619371 
L 65.329146 102.326788 
L 64.054591 101.796612 
L 62.780037 98.557983 
L 61.505482 89.130362 
L 60.230927 74.067146 
L 58.956373 59.229916 
L 57.681818 44.64 
z
" clip-path="url(#p7195bbb2b6)" style="fill: #ff0000; fill-opacity: 0.3"/>
   </g>
   <g id="PolyCollection_2">
    <path d="M 57.681818 60.706933 
L 57.681818 98.410131 
L 58.956373 99.851578 
L 60.230927 101.294703 
L 61.505482 102.770786 
L 62.780037 102.773158 
L 64.054591 102.779294 
L 65.329146 102.799339 
L 66.6037 102.848247 
L 67.878255 102.98209 
L 69.15281 103.307685 
L 70.427364 103.818248 
L 71.701919 104.368254 
L 72.976473 104.916667 
L 74.251028 105.433328 
L 75.525582 105.876027 
L 76.800137 106.396119 
L 78.074692 107.208987 
L 79.349246 108.320303 
L 80.623801 109.649824 
L 81.898355 111.159236 
L 83.17291 112.74818 
L 84.447465 114.403567 
L 85.722019 116.235035 
L 86.996574 118.332395 
L 88.271128 120.606176 
L 89.545683 122.926787 
L 90.820238 125.167138 
L 92.094792 127.151652 
L 93.369347 128.756801 
L 94.643901 129.975454 
L 95.918456 130.931808 
L 97.193011 131.663706 
L 98.467565 132.235681 
L 99.74212 132.745533 
L 101.016674 133.28074 
L 102.291229 133.879916 
L 103.565783 134.564042 
L 104.840338 135.363526 
L 106.114893 136.317809 
L 107.389447 137.453475 
L 108.664002 138.779487 
L 109.938556 140.281141 
L 111.213111 141.912255 
L 112.487666 143.577146 
L 113.76222 145.158193 
L 115.036775 146.53928 
L 116.311329 147.64494 
L 117.585884 148.440289 
L 118.860439 148.928079 
L 120.134993 149.190092 
L 121.409548 149.309715 
L 122.684102 149.518454 
L 123.958657 149.746418 
L 125.233212 149.922724 
L 126.507766 150.077052 
L 127.782321 150.245908 
L 129.056875 150.455682 
L 130.33143 150.760235 
L 131.605984 151.05339 
L 132.880539 151.323509 
L 134.155094 151.572137 
L 135.429648 151.805828 
L 136.704203 152.016537 
L 137.978757 152.210345 
L 139.253312 152.392694 
L 140.527867 152.570785 
L 141.802421 152.733775 
L 143.076976 152.891797 
L 144.35153 153.040175 
L 145.626085 153.183894 
L 146.90064 153.37465 
L 148.175194 153.567299 
L 149.449749 153.760088 
L 150.724303 153.946285 
L 151.998858 154.128085 
L 153.273413 154.315866 
L 154.547967 154.499366 
L 155.822522 154.679898 
L 157.097076 154.859256 
L 158.371631 155.049564 
L 159.646185 155.238767 
L 160.92074 155.432243 
L 162.195295 155.628988 
L 163.469849 155.840022 
L 164.744404 156.052122 
L 166.018958 156.266517 
L 167.293513 156.495988 
L 168.568068 156.739934 
L 169.842622 156.99656 
L 171.117177 157.269808 
L 172.391731 157.557732 
L 173.666286 157.8538 
L 174.940841 158.174673 
L 176.215395 158.514503 
L 177.48995 158.870437 
L 178.764504 159.256911 
L 180.039059 159.672517 
L 181.313614 160.108811 
L 182.588168 160.576115 
L 183.862723 161.079082 
L 185.137277 161.613679 
L 186.411832 162.191473 
L 187.686386 162.812649 
L 188.960941 163.476954 
L 190.235496 164.183041 
L 191.51005 164.926515 
L 192.784605 165.694462 
L 194.059159 166.471559 
L 195.333714 167.248718 
L 196.608269 168.002292 
L 197.882823 168.719646 
L 199.157378 169.379121 
L 200.431932 169.979997 
L 201.706487 170.504702 
L 202.981042 170.957903 
L 204.255596 171.338071 
L 205.530151 171.653528 
L 206.804705 171.909428 
L 208.07926 172.124874 
L 209.353815 172.307501 
L 210.628369 172.465724 
L 211.902924 172.610562 
L 213.177478 172.743763 
L 214.452033 172.860234 
L 215.726587 172.96774 
L 217.001142 173.064691 
L 218.275697 173.151464 
L 219.550251 173.228493 
L 220.824806 173.299116 
L 222.09936 173.362065 
L 223.373915 173.419056 
L 224.64847 173.470499 
L 225.923024 173.517831 
L 227.197579 173.565487 
L 228.472133 173.606899 
L 229.746688 173.64631 
L 231.021243 173.685659 
L 232.295797 173.721901 
L 233.570352 173.753732 
L 234.844906 173.786126 
L 236.119461 173.817832 
L 237.394016 173.845327 
L 238.66857 173.87453 
L 239.943125 173.902813 
L 241.217679 173.930678 
L 242.492234 173.957107 
L 243.766788 173.986905 
L 245.041343 174.012058 
L 246.315898 174.036956 
L 247.590452 174.061747 
L 248.865007 174.085385 
L 250.139561 174.107355 
L 251.414116 174.13257 
L 252.688671 174.156147 
L 253.963225 174.178998 
L 255.23778 174.202188 
L 256.512334 174.224923 
L 257.786889 174.246012 
L 259.061444 174.268754 
L 260.335998 174.291914 
L 261.610553 174.314973 
L 262.885107 174.337244 
L 264.159662 174.360257 
L 265.434217 174.382242 
L 266.708771 174.402743 
L 267.983326 174.424728 
L 269.25788 174.445971 
L 270.532435 174.467771 
L 271.806989 174.490274 
L 273.081544 174.513696 
L 274.356099 174.53674 
L 275.630653 174.560085 
L 276.905208 174.582317 
L 278.179762 174.604496 
L 279.454317 174.627423 
L 280.728872 174.649231 
L 282.003426 174.672159 
L 283.277981 174.695705 
L 284.552535 174.719096 
L 285.82709 174.74231 
L 287.101645 174.765902 
L 288.376199 174.790036 
L 289.650754 174.814579 
L 290.925308 174.839508 
L 292.199863 174.86446 
L 293.474418 174.890271 
L 294.748972 174.91622 
L 296.023527 174.942424 
L 297.298081 174.969046 
L 298.572636 174.996232 
L 299.84719 175.02341 
L 301.121745 175.050603 
L 302.3963 175.078654 
L 303.670854 175.122424 
L 304.945409 175.171687 
L 306.219963 175.2199 
L 307.494518 175.26601 
L 308.769073 175.311016 
L 310.043627 175.354012 
L 311.318182 175.388207 
L 311.318182 169.732721 
L 311.318182 169.732721 
L 310.043627 169.687607 
L 308.769073 169.632795 
L 307.494518 169.57524 
L 306.219963 169.51957 
L 304.945409 169.461729 
L 303.670854 169.409127 
L 302.3963 169.35549 
L 301.121745 169.302107 
L 299.84719 169.250147 
L 298.572636 169.200922 
L 297.298081 169.147748 
L 296.023527 169.095718 
L 294.748972 169.044909 
L 293.474418 168.993304 
L 292.199863 168.941243 
L 290.925308 168.890936 
L 289.650754 168.841248 
L 288.376199 168.789681 
L 287.101645 168.737976 
L 285.82709 168.687306 
L 284.552535 168.63659 
L 283.277981 168.584374 
L 282.003426 168.533758 
L 280.728872 168.48373 
L 279.454317 168.434196 
L 278.179762 168.384167 
L 276.905208 168.335205 
L 275.630653 168.288314 
L 274.356099 168.241361 
L 273.081544 168.195219 
L 271.806989 168.149889 
L 270.532435 168.104134 
L 269.25788 168.056308 
L 267.983326 168.011171 
L 266.708771 167.966474 
L 265.434217 167.92449 
L 264.159662 167.885226 
L 262.885107 167.846874 
L 261.610553 167.806636 
L 260.335998 167.767828 
L 259.061444 167.724167 
L 257.786889 167.677276 
L 256.512334 167.629017 
L 255.23778 167.580201 
L 253.963225 167.526278 
L 252.688671 167.473437 
L 251.414116 167.420108 
L 250.139561 167.36314 
L 248.865007 167.304125 
L 247.590452 167.247133 
L 246.315898 167.186109 
L 245.041343 167.115378 
L 243.766788 167.04858 
L 242.492234 166.976852 
L 241.217679 166.897807 
L 239.943125 166.817702 
L 238.66857 166.73715 
L 237.394016 166.643491 
L 236.119461 166.543488 
L 234.844906 166.434621 
L 233.570352 166.311752 
L 232.295797 166.179903 
L 231.021243 166.028535 
L 229.746688 165.867298 
L 228.472133 165.693666 
L 227.197579 165.505723 
L 225.923024 165.297843 
L 224.64847 164.988761 
L 223.373915 164.502725 
L 222.09936 164.019115 
L 220.824806 163.545768 
L 219.550251 163.082351 
L 218.275697 162.632897 
L 217.001142 162.199308 
L 215.726587 161.789011 
L 214.452033 161.372384 
L 213.177478 160.976962 
L 211.902924 160.595998 
L 210.628369 160.113439 
L 209.353815 159.654427 
L 208.07926 159.218605 
L 206.804705 158.80816 
L 205.530151 158.419801 
L 204.255596 158.059408 
L 202.981042 157.723883 
L 201.706487 157.409616 
L 200.431932 157.116616 
L 199.157378 156.846103 
L 197.882823 156.589716 
L 196.608269 156.350616 
L 195.333714 156.123347 
L 194.059159 155.913403 
L 192.784605 155.716009 
L 191.51005 155.530523 
L 190.235496 155.353661 
L 188.960941 155.190709 
L 187.686386 155.027046 
L 186.411832 154.875113 
L 185.137277 154.732206 
L 183.862723 154.592197 
L 182.588168 154.456114 
L 181.313614 154.323269 
L 180.039059 154.190215 
L 178.764504 154.053699 
L 177.48995 153.916023 
L 176.215395 153.772266 
L 174.940841 153.624777 
L 173.666286 153.464947 
L 172.391731 153.290743 
L 171.117177 153.105327 
L 169.842622 152.907284 
L 168.568068 152.694179 
L 167.293513 152.472049 
L 166.018958 152.254053 
L 164.744404 152.041072 
L 163.469849 151.840772 
L 162.195295 151.660796 
L 160.92074 151.504072 
L 159.646185 151.267329 
L 158.371631 151.063861 
L 157.097076 150.901681 
L 155.822522 150.776401 
L 154.547967 150.668439 
L 153.273413 150.558915 
L 151.998858 150.447823 
L 150.724303 150.327195 
L 149.449749 150.146817 
L 148.175194 149.968711 
L 146.90064 149.799499 
L 145.626085 149.643255 
L 144.35153 149.501971 
L 143.076976 149.373074 
L 141.802421 149.18918 
L 140.527867 148.606217 
L 139.253312 147.75954 
L 137.978757 146.627653 
L 136.704203 145.235462 
L 135.429648 143.669885 
L 134.155094 142.035224 
L 132.880539 140.427378 
L 131.605984 138.911398 
L 130.33143 137.533146 
L 129.056875 136.324099 
L 127.782321 135.297207 
L 126.507766 134.445694 
L 125.233212 133.751221 
L 123.958657 133.186432 
L 122.684102 132.697553 
L 121.409548 132.19831 
L 120.134993 131.594366 
L 118.860439 130.786567 
L 117.585884 129.689246 
L 116.311329 128.218596 
L 115.036775 126.265596 
L 113.76222 123.969613 
L 112.487666 121.526952 
L 111.213111 119.082839 
L 109.938556 116.801067 
L 108.664002 114.903374 
L 107.389447 113.366049 
L 106.114893 112.005271 
L 104.840338 110.696715 
L 103.565783 109.454385 
L 102.291229 108.320504 
L 101.016674 107.315945 
L 99.74212 106.542411 
L 98.467565 106.067835 
L 97.193011 105.813843 
L 95.918456 105.676439 
L 94.643901 105.594387 
L 93.369347 105.540355 
L 92.094792 105.502598 
L 90.820238 105.475891 
L 89.545683 105.456851 
L 88.271128 105.442802 
L 86.996574 105.430129 
L 85.722019 105.38629 
L 84.447465 105.230246 
L 83.17291 104.917734 
L 81.898355 104.479029 
L 80.623801 103.981123 
L 79.349246 103.496285 
L 78.074692 103.119819 
L 76.800137 102.899999 
L 75.525582 102.807376 
L 74.251028 102.776898 
L 72.976473 102.76771 
L 71.701919 102.764789 
L 70.427364 102.763553 
L 69.15281 102.762749 
L 67.878255 102.762007 
L 66.6037 102.761211 
L 65.329146 102.745679 
L 64.054591 102.710649 
L 62.780037 102.66443 
L 61.505482 98.574652 
L 60.230927 85.952048 
L 58.956373 73.329483 
L 57.681818 60.706933 
z
" clip-path="url(#p7195bbb2b6)" style="fill: #0000ff; fill-opacity: 0.3"/>
   </g>
   <g id="PolyCollection_3">
    <path d="M 57.681818 49.757791 
L 57.681818 94.279342 
L 58.956373 97.098847 
L 60.230927 99.921475 
L 61.505482 102.748538 
L 62.780037 102.785739 
L 64.054591 102.844229 
L 65.329146 102.929464 
L 66.6037 103.117292 
L 67.878255 103.464177 
L 69.15281 103.934433 
L 70.427364 104.465297 
L 71.701919 105.007714 
L 72.976473 105.482784 
L 74.251028 105.827173 
L 75.525582 106.081064 
L 76.800137 106.286225 
L 78.074692 106.544876 
L 79.349246 106.954934 
L 80.623801 107.351446 
L 81.898355 107.741134 
L 83.17291 108.104903 
L 84.447465 108.446742 
L 85.722019 108.968936 
L 86.996574 109.979893 
L 88.271128 111.14307 
L 89.545683 112.401666 
L 90.820238 113.701451 
L 92.094792 115.02377 
L 93.369347 116.365632 
L 94.643901 117.655927 
L 95.918456 118.993183 
L 97.193011 120.461415 
L 98.467565 122.058566 
L 99.74212 123.804126 
L 101.016674 125.725505 
L 102.291229 127.833869 
L 103.565783 130.203217 
L 104.840338 132.887304 
L 106.114893 135.747627 
L 107.389447 138.763514 
L 108.664002 141.934224 
L 109.938556 145.176199 
L 111.213111 148.434772 
L 112.487666 151.517997 
L 113.76222 154.057168 
L 115.036775 156.172124 
L 116.311329 157.720259 
L 117.585884 158.604344 
L 118.860439 159.17186 
L 120.134993 160.624621 
L 121.409548 165.18964 
L 122.684102 169.765432 
L 123.958657 174.183163 
L 125.233212 178.246389 
L 126.507766 181.78682 
L 127.782321 184.738537 
L 129.056875 187.089115 
L 130.33143 188.813679 
L 131.605984 189.995 
L 132.880539 190.74488 
L 134.155094 191.196528 
L 135.429648 191.429531 
L 136.704203 191.594029 
L 137.978757 191.767537 
L 139.253312 192.011042 
L 140.527867 192.308679 
L 141.802421 192.679025 
L 143.076976 193.122234 
L 144.35153 193.645348 
L 145.626085 194.236495 
L 146.90064 194.744315 
L 148.175194 195.044139 
L 149.449749 195.106616 
L 150.724303 195.162912 
L 151.998858 194.726928 
L 153.273413 194.593812 
L 154.547967 194.725521 
L 155.822522 195.038567 
L 157.097076 195.089423 
L 158.371631 194.962852 
L 159.646185 195.430009 
L 160.92074 195.402144 
L 162.195295 195.329427 
L 163.469849 194.84989 
L 164.744404 195.461059 
L 166.018958 195.105821 
L 167.293513 194.579052 
L 168.568068 194.629931 
L 169.842622 195.735474 
L 171.117177 195.645772 
L 172.391731 196.262822 
L 173.666286 196.735227 
L 174.940841 196.719625 
L 176.215395 196.782528 
L 177.48995 196.84067 
L 178.764504 195.997355 
L 180.039059 196.577267 
L 181.313614 196.426006 
L 182.588168 195.745482 
L 183.862723 195.861002 
L 185.137277 196.286956 
L 186.411832 196.067329 
L 187.686386 196.500446 
L 188.960941 196.896162 
L 190.235496 196.966723 
L 191.51005 197.208257 
L 192.784605 197.323723 
L 194.059159 197.452999 
L 195.333714 197.58239 
L 196.608269 197.879416 
L 197.882823 198.001505 
L 199.157378 198.140486 
L 200.431932 198.25494 
L 201.706487 198.367778 
L 202.981042 198.497486 
L 204.255596 198.597729 
L 205.530151 199.697616 
L 206.804705 201.489696 
L 208.07926 203.334239 
L 209.353815 205.227861 
L 210.628369 207.168172 
L 211.902924 209.155591 
L 213.177478 211.190574 
L 214.452033 213.273514 
L 215.726587 215.402905 
L 217.001142 217.57523 
L 218.275697 219.783736 
L 219.550251 222.018655 
L 220.824806 224.270992 
L 222.09936 226.510726 
L 223.373915 228.710206 
L 224.64847 230.85387 
L 225.923024 232.914539 
L 227.197579 234.850809 
L 228.472133 236.047013 
L 229.746688 236.900883 
L 231.021243 237.335917 
L 232.295797 237.465811 
L 233.570352 237.228781 
L 234.844906 236.932636 
L 236.119461 236.699826 
L 237.394016 227.73284 
L 238.66857 227.045902 
L 239.943125 226.542973 
L 241.217679 226.454631 
L 242.492234 226.078482 
L 243.766788 234.476877 
L 245.041343 234.438324 
L 246.315898 234.072908 
L 247.590452 233.580311 
L 248.865007 233.225915 
L 250.139561 232.766006 
L 251.414116 232.395336 
L 252.688671 232.127102 
L 253.963225 231.414732 
L 255.23778 231.040561 
L 256.512334 230.697664 
L 257.786889 223.663069 
L 259.061444 216.869096 
L 260.335998 216.751675 
L 261.610553 216.625112 
L 262.885107 217.622724 
L 264.159662 222.11559 
L 265.434217 228.152009 
L 266.708771 227.859527 
L 267.983326 227.499698 
L 269.25788 222.906775 
L 270.532435 224.001345 
L 271.806989 225.097863 
L 273.081544 226.194218 
L 274.356099 227.287104 
L 275.630653 228.371713 
L 276.905208 229.443487 
L 278.179762 230.50217 
L 279.454317 231.541488 
L 280.728872 232.555769 
L 282.003426 233.541836 
L 283.277981 234.497201 
L 284.552535 235.417251 
L 285.82709 236.302642 
L 287.101645 237.150562 
L 288.376199 237.960347 
L 289.650754 238.730102 
L 290.925308 239.459922 
L 292.199863 240.146984 
L 293.474418 240.792773 
L 294.748972 241.398093 
L 296.023527 241.962889 
L 297.298081 242.489811 
L 298.572636 242.979765 
L 299.84719 243.435339 
L 301.121745 243.855127 
L 302.3963 244.243099 
L 303.670854 244.602364 
L 304.945409 244.934775 
L 306.219963 245.242342 
L 307.494518 245.530118 
L 308.769073 245.798591 
L 310.043627 246.047814 
L 311.318182 246.24 
L 311.318182 181.837451 
L 311.318182 181.837451 
L 310.043627 181.859335 
L 308.769073 181.872109 
L 307.494518 181.847242 
L 306.219963 181.791062 
L 304.945409 182.188702 
L 303.670854 181.681361 
L 302.3963 181.636881 
L 301.121745 181.625104 
L 299.84719 181.152838 
L 298.572636 181.159391 
L 297.298081 181.145675 
L 296.023527 179.069597 
L 294.748972 179.051947 
L 293.474418 179.524877 
L 292.199863 179.466904 
L 290.925308 179.41516 
L 289.650754 181.460768 
L 288.376199 181.425036 
L 287.101645 178.567209 
L 285.82709 178.040943 
L 284.552535 177.997181 
L 283.277981 177.949989 
L 282.003426 175.791411 
L 280.728872 178.566946 
L 279.454317 178.470297 
L 278.179762 178.310451 
L 276.905208 178.294586 
L 275.630653 180.393175 
L 274.356099 178.144794 
L 273.081544 178.711352 
L 271.806989 178.705047 
L 270.532435 178.015086 
L 269.25788 177.984477 
L 267.983326 179.534645 
L 266.708771 179.503193 
L 265.434217 180.083468 
L 264.159662 180.712326 
L 262.885107 180.028602 
L 261.610553 180.6292 
L 260.335998 179.881074 
L 259.061444 179.831231 
L 257.786889 179.780329 
L 256.512334 180.381298 
L 255.23778 179.581775 
L 253.963225 179.462044 
L 252.688671 179.411938 
L 251.414116 179.355704 
L 250.139561 178.500056 
L 248.865007 178.383717 
L 247.590452 179.071026 
L 246.315898 178.99443 
L 245.041343 178.913352 
L 243.766788 179.633643 
L 242.492234 180.362334 
L 241.217679 180.289996 
L 239.943125 180.215679 
L 238.66857 180.146293 
L 237.394016 180.073252 
L 236.119461 179.98984 
L 234.844906 177.515434 
L 233.570352 175.056654 
L 232.295797 172.586916 
L 231.021243 171.463189 
L 229.746688 171.386948 
L 228.472133 170.99165 
L 227.197579 173.270446 
L 225.923024 173.248307 
L 224.64847 174.188093 
L 223.373915 174.075788 
L 222.09936 174.437517 
L 220.824806 174.322229 
L 219.550251 176.509167 
L 218.275697 176.374251 
L 217.001142 176.232496 
L 215.726587 176.224861 
L 214.452033 173.988929 
L 213.177478 173.838248 
L 211.902924 173.714916 
L 210.628369 173.59826 
L 209.353815 175.585099 
L 208.07926 175.503519 
L 206.804705 173.330946 
L 205.530151 173.223957 
L 204.255596 173.114565 
L 202.981042 170.189423 
L 201.706487 170.049909 
L 200.431932 172.000088 
L 199.157378 171.852908 
L 197.882823 171.749752 
L 196.608269 169.95098 
L 195.333714 166.373635 
L 194.059159 162.426639 
L 192.784605 158.440619 
L 191.51005 154.59202 
L 190.235496 150.948774 
L 188.960941 147.662775 
L 187.686386 145.021731 
L 186.411832 142.792291 
L 185.137277 140.904852 
L 183.862723 139.357559 
L 182.588168 138.138543 
L 181.313614 137.218208 
L 180.039059 136.583593 
L 178.764504 136.159895 
L 177.48995 135.821449 
L 176.215395 135.354113 
L 174.940841 133.241499 
L 173.666286 132.267658 
L 172.391731 131.895078 
L 171.117177 131.378047 
L 169.842622 130.941954 
L 168.568068 132.123058 
L 167.293513 132.143629 
L 166.018958 131.290408 
L 164.744404 130.769312 
L 163.469849 130.273747 
L 162.195295 129.748478 
L 160.92074 129.120888 
L 159.646185 128.577598 
L 158.371631 127.79734 
L 157.097076 126.824101 
L 155.822522 125.74759 
L 154.547967 124.675762 
L 153.273413 123.690221 
L 151.998858 122.757003 
L 150.724303 121.622875 
L 149.449749 120.282188 
L 148.175194 118.998283 
L 146.90064 118.020995 
L 145.626085 117.252175 
L 144.35153 116.471585 
L 143.076976 115.530508 
L 141.802421 114.539573 
L 140.527867 113.403304 
L 139.253312 112.050771 
L 137.978757 110.800018 
L 136.704203 109.712016 
L 135.429648 108.93063 
L 134.155094 108.378461 
L 132.880539 108.020989 
L 131.605984 107.779664 
L 130.33143 107.614934 
L 129.056875 107.484461 
L 127.782321 107.368817 
L 126.507766 107.213508 
L 125.233212 107.020062 
L 123.958657 106.797182 
L 122.684102 106.542186 
L 121.409548 106.086018 
L 120.134993 105.768675 
L 118.860439 104.938629 
L 117.585884 104.517304 
L 116.311329 104.081397 
L 115.036775 103.783806 
L 113.76222 103.356833 
L 112.487666 103.484987 
L 111.213111 103.243461 
L 109.938556 103.025418 
L 108.664002 102.918885 
L 107.389447 102.846029 
L 106.114893 102.805166 
L 104.840338 102.774796 
L 103.565783 102.761057 
L 102.291229 102.76686 
L 101.016674 102.765709 
L 99.74212 102.763298 
L 98.467565 102.762563 
L 97.193011 102.761937 
L 95.918456 102.764573 
L 94.643901 102.735725 
L 93.369347 102.738546 
L 92.094792 102.757154 
L 90.820238 102.759712 
L 89.545683 102.758027 
L 88.271128 102.761026 
L 86.996574 102.760122 
L 85.722019 102.759047 
L 84.447465 102.757556 
L 83.17291 102.755369 
L 81.898355 102.754148 
L 80.623801 102.760423 
L 79.349246 102.761767 
L 78.074692 102.763367 
L 76.800137 102.763328 
L 75.525582 102.761914 
L 74.251028 102.758445 
L 72.976473 102.704993 
L 71.701919 102.749025 
L 70.427364 102.74404 
L 69.15281 102.720232 
L 67.878255 102.713084 
L 66.6037 102.676702 
L 65.329146 102.131055 
L 64.054591 101.40112 
L 62.780037 99.161541 
L 61.505482 91.014386 
L 60.230927 76.928257 
L 58.956373 63.247093 
L 57.681818 49.757791 
z
" clip-path="url(#p7195bbb2b6)" style="fill: #008000; fill-opacity: 0.3"/>
   </g>
   <g id="matplotlib.axis_1">
    <g id="xtick_1">
     <g id="line2d_1">
      <defs>
       <path id="mc1ac95ee55" d="M 0 0 
L 0 3.5 
" style="stroke: #000000; stroke-width: 0.8"/>
      </defs>
      <g>
       <use xlink:href="#mc1ac95ee55" x="57.681818" y="256.32" style="stroke: #000000; stroke-width: 0.8"/>
      </g>
     </g>
     <g id="text_1">
      <!-- 0 -->
      <g transform="translate(55.181818 270.26375)scale(0.1 -0.1)">
       <defs>
        <path id="TimesNewRomanPSMT-30" d="M 231 2094 
Q 231 2819 450 3342 
Q 669 3866 1031 4122 
Q 1313 4325 1613 4325 
Q 2100 4325 2488 3828 
Q 2972 3213 2972 2159 
Q 2972 1422 2759 906 
Q 2547 391 2217 158 
Q 1888 -75 1581 -75 
Q 975 -75 572 641 
Q 231 1244 231 2094 
z
M 844 2016 
Q 844 1141 1059 588 
Q 1238 122 1591 122 
Q 1759 122 1940 273 
Q 2122 425 2216 781 
Q 2359 1319 2359 2297 
Q 2359 3022 2209 3506 
Q 2097 3866 1919 4016 
Q 1791 4119 1609 4119 
Q 1397 4119 1231 3928 
Q 1006 3669 925 3112 
Q 844 2556 844 2016 
z
" transform="scale(0.015625)"/>
       </defs>
       <use xlink:href="#TimesNewRomanPSMT-30"/>
      </g>
     </g>
    </g>
    <g id="xtick_2">
     <g id="line2d_2">
      <g>
       <use xlink:href="#mc1ac95ee55" x="121.409548" y="256.32" style="stroke: #000000; stroke-width: 0.8"/>
      </g>
     </g>
     <g id="text_2">
      <!-- 50 -->
      <g transform="translate(116.409548 270.26375)scale(0.1 -0.1)">
       <defs>
        <path id="TimesNewRomanPSMT-35" d="M 2778 4238 
L 2534 3706 
L 1259 3706 
L 981 3138 
Q 1809 3016 2294 2522 
Q 2709 2097 2709 1522 
Q 2709 1188 2573 903 
Q 2438 619 2231 419 
Q 2025 219 1772 97 
Q 1413 -75 1034 -75 
Q 653 -75 479 54 
Q 306 184 306 341 
Q 306 428 378 495 
Q 450 563 559 563 
Q 641 563 702 538 
Q 763 513 909 409 
Q 1144 247 1384 247 
Q 1750 247 2026 523 
Q 2303 800 2303 1197 
Q 2303 1581 2056 1914 
Q 1809 2247 1375 2428 
Q 1034 2569 447 2591 
L 1259 4238 
L 2778 4238 
z
" transform="scale(0.015625)"/>
       </defs>
       <use xlink:href="#TimesNewRomanPSMT-35"/>
       <use xlink:href="#TimesNewRomanPSMT-30" x="50"/>
      </g>
     </g>
    </g>
    <g id="xtick_3">
     <g id="line2d_3">
      <g>
       <use xlink:href="#mc1ac95ee55" x="185.137277" y="256.32" style="stroke: #000000; stroke-width: 0.8"/>
      </g>
     </g>
     <g id="text_3">
      <!-- 100 -->
      <g transform="translate(177.637277 270.26375)scale(0.1 -0.1)">
       <defs>
        <path id="TimesNewRomanPSMT-31" d="M 750 3822 
L 1781 4325 
L 1884 4325 
L 1884 747 
Q 1884 391 1914 303 
Q 1944 216 2037 169 
Q 2131 122 2419 116 
L 2419 0 
L 825 0 
L 825 116 
Q 1125 122 1212 167 
Q 1300 213 1334 289 
Q 1369 366 1369 747 
L 1369 3034 
Q 1369 3497 1338 3628 
Q 1316 3728 1258 3775 
Q 1200 3822 1119 3822 
Q 1003 3822 797 3725 
L 750 3822 
z
" transform="scale(0.015625)"/>
       </defs>
       <use xlink:href="#TimesNewRomanPSMT-31"/>
       <use xlink:href="#TimesNewRomanPSMT-30" x="50"/>
       <use xlink:href="#TimesNewRomanPSMT-30" x="100"/>
      </g>
     </g>
    </g>
    <g id="xtick_4">
     <g id="line2d_4">
      <g>
       <use xlink:href="#mc1ac95ee55" x="248.865007" y="256.32" style="stroke: #000000; stroke-width: 0.8"/>
      </g>
     </g>
     <g id="text_4">
      <!-- 150 -->
      <g transform="translate(241.365007 270.26375)scale(0.1 -0.1)">
       <use xlink:href="#TimesNewRomanPSMT-31"/>
       <use xlink:href="#TimesNewRomanPSMT-35" x="50"/>
       <use xlink:href="#TimesNewRomanPSMT-30" x="100"/>
      </g>
     </g>
    </g>
    <g id="xtick_5">
     <g id="line2d_5">
      <g>
       <use xlink:href="#mc1ac95ee55" x="312.592736" y="256.32" style="stroke: #000000; stroke-width: 0.8"/>
      </g>
     </g>
     <g id="text_5">
      <!-- 200k -->
      <g transform="translate(302.592736 270.26375)scale(0.1 -0.1)">
       <defs>
        <path id="TimesNewRomanPSMT-32" d="M 2934 816 
L 2638 0 
L 138 0 
L 138 116 
Q 1241 1122 1691 1759 
Q 2141 2397 2141 2925 
Q 2141 3328 1894 3587 
Q 1647 3847 1303 3847 
Q 991 3847 742 3664 
Q 494 3481 375 3128 
L 259 3128 
Q 338 3706 661 4015 
Q 984 4325 1469 4325 
Q 1984 4325 2329 3994 
Q 2675 3663 2675 3213 
Q 2675 2891 2525 2569 
Q 2294 2063 1775 1497 
Q 997 647 803 472 
L 1909 472 
Q 2247 472 2383 497 
Q 2519 522 2628 598 
Q 2738 675 2819 816 
L 2934 816 
z
" transform="scale(0.015625)"/>
        <path id="TimesNewRomanPSMT-6b" d="M 1047 4444 
L 1047 1597 
L 1775 2259 
Q 2006 2472 2044 2528 
Q 2069 2566 2069 2603 
Q 2069 2666 2017 2711 
Q 1966 2756 1847 2763 
L 1847 2863 
L 3091 2863 
L 3091 2763 
Q 2834 2756 2664 2684 
Q 2494 2613 2291 2428 
L 1556 1750 
L 2291 822 
Q 2597 438 2703 334 
Q 2853 188 2966 144 
Q 3044 113 3238 113 
L 3238 0 
L 1847 0 
L 1847 113 
Q 1966 116 2008 148 
Q 2050 181 2050 241 
Q 2050 313 1925 472 
L 1047 1594 
L 1047 644 
Q 1047 366 1086 278 
Q 1125 191 1197 153 
Q 1269 116 1509 113 
L 1509 0 
L 53 0 
L 53 113 
Q 272 113 381 166 
Q 447 200 481 272 
Q 528 375 528 628 
L 528 3234 
Q 528 3731 506 3842 
Q 484 3953 434 3995 
Q 384 4038 303 4038 
Q 238 4038 106 3984 
L 53 4094 
L 903 4444 
L 1047 4444 
z
" transform="scale(0.015625)"/>
       </defs>
       <use xlink:href="#TimesNewRomanPSMT-32"/>
       <use xlink:href="#TimesNewRomanPSMT-30" x="50"/>
       <use xlink:href="#TimesNewRomanPSMT-30" x="100"/>
       <use xlink:href="#TimesNewRomanPSMT-6b" x="150"/>
      </g>
     </g>
    </g>
    <g id="text_6">
     <!-- Epochs -->
     <g transform="translate(169.780469 283.346563)scale(0.1 -0.1)">
      <defs>
       <path id="TimesNewRomanPSMT-45" d="M 1338 4006 
L 1338 2331 
L 2269 2331 
Q 2631 2331 2753 2441 
Q 2916 2584 2934 2947 
L 3050 2947 
L 3050 1472 
L 2934 1472 
Q 2891 1781 2847 1869 
Q 2791 1978 2662 2040 
Q 2534 2103 2269 2103 
L 1338 2103 
L 1338 706 
Q 1338 425 1363 364 
Q 1388 303 1450 267 
Q 1513 231 1688 231 
L 2406 231 
Q 2766 231 2928 281 
Q 3091 331 3241 478 
Q 3434 672 3638 1063 
L 3763 1063 
L 3397 0 
L 131 0 
L 131 116 
L 281 116 
Q 431 116 566 188 
Q 666 238 702 338 
Q 738 438 738 747 
L 738 3500 
Q 738 3903 656 3997 
Q 544 4122 281 4122 
L 131 4122 
L 131 4238 
L 3397 4238 
L 3444 3309 
L 3322 3309 
Q 3256 3644 3176 3769 
Q 3097 3894 2941 3959 
Q 2816 4006 2500 4006 
L 1338 4006 
z
" transform="scale(0.015625)"/>
       <path id="TimesNewRomanPSMT-70" d="M -6 2578 
L 875 2934 
L 994 2934 
L 994 2266 
Q 1216 2644 1439 2795 
Q 1663 2947 1909 2947 
Q 2341 2947 2628 2609 
Q 2981 2197 2981 1534 
Q 2981 794 2556 309 
Q 2206 -88 1675 -88 
Q 1444 -88 1275 -22 
Q 1150 25 994 166 
L 994 -706 
Q 994 -1000 1030 -1079 
Q 1066 -1159 1155 -1206 
Q 1244 -1253 1478 -1253 
L 1478 -1369 
L -22 -1369 
L -22 -1253 
L 56 -1253 
Q 228 -1256 350 -1188 
Q 409 -1153 442 -1076 
Q 475 -1000 475 -688 
L 475 2019 
Q 475 2297 450 2372 
Q 425 2447 370 2484 
Q 316 2522 222 2522 
Q 147 2522 31 2478 
L -6 2578 
z
M 994 2081 
L 994 1013 
Q 994 666 1022 556 
Q 1066 375 1236 237 
Q 1406 100 1666 100 
Q 1978 100 2172 344 
Q 2425 663 2425 1241 
Q 2425 1897 2138 2250 
Q 1938 2494 1663 2494 
Q 1513 2494 1366 2419 
Q 1253 2363 994 2081 
z
" transform="scale(0.015625)"/>
       <path id="TimesNewRomanPSMT-6f" d="M 1600 2947 
Q 2250 2947 2644 2453 
Q 2978 2031 2978 1484 
Q 2978 1100 2793 706 
Q 2609 313 2286 112 
Q 1963 -88 1566 -88 
Q 919 -88 538 428 
Q 216 863 216 1403 
Q 216 1797 411 2186 
Q 606 2575 925 2761 
Q 1244 2947 1600 2947 
z
M 1503 2744 
Q 1338 2744 1170 2645 
Q 1003 2547 900 2300 
Q 797 2053 797 1666 
Q 797 1041 1045 587 
Q 1294 134 1700 134 
Q 2003 134 2200 384 
Q 2397 634 2397 1244 
Q 2397 2006 2069 2444 
Q 1847 2744 1503 2744 
z
" transform="scale(0.015625)"/>
       <path id="TimesNewRomanPSMT-63" d="M 2631 1088 
Q 2516 522 2178 217 
Q 1841 -88 1431 -88 
Q 944 -88 581 321 
Q 219 731 219 1428 
Q 219 2103 620 2525 
Q 1022 2947 1584 2947 
Q 2006 2947 2278 2723 
Q 2550 2500 2550 2259 
Q 2550 2141 2473 2067 
Q 2397 1994 2259 1994 
Q 2075 1994 1981 2113 
Q 1928 2178 1911 2362 
Q 1894 2547 1784 2644 
Q 1675 2738 1481 2738 
Q 1169 2738 978 2506 
Q 725 2200 725 1697 
Q 725 1184 976 792 
Q 1228 400 1656 400 
Q 1963 400 2206 609 
Q 2378 753 2541 1131 
L 2631 1088 
z
" transform="scale(0.015625)"/>
       <path id="TimesNewRomanPSMT-68" d="M 1041 4444 
L 1041 2350 
Q 1388 2731 1591 2839 
Q 1794 2947 1997 2947 
Q 2241 2947 2416 2812 
Q 2591 2678 2675 2391 
Q 2734 2191 2734 1659 
L 2734 647 
Q 2734 375 2778 275 
Q 2809 200 2884 156 
Q 2959 113 3159 113 
L 3159 0 
L 1753 0 
L 1753 113 
L 1819 113 
Q 2019 113 2097 173 
Q 2175 234 2206 353 
Q 2216 403 2216 647 
L 2216 1659 
Q 2216 2128 2167 2275 
Q 2119 2422 2012 2495 
Q 1906 2569 1756 2569 
Q 1603 2569 1437 2487 
Q 1272 2406 1041 2159 
L 1041 647 
Q 1041 353 1073 281 
Q 1106 209 1195 161 
Q 1284 113 1503 113 
L 1503 0 
L 84 0 
L 84 113 
Q 275 113 384 172 
Q 447 203 484 290 
Q 522 378 522 647 
L 522 3238 
Q 522 3728 498 3840 
Q 475 3953 426 3993 
Q 378 4034 297 4034 
Q 231 4034 84 3984 
L 41 4094 
L 897 4444 
L 1041 4444 
z
" transform="scale(0.015625)"/>
       <path id="TimesNewRomanPSMT-73" d="M 2050 2947 
L 2050 1972 
L 1947 1972 
Q 1828 2431 1642 2597 
Q 1456 2763 1169 2763 
Q 950 2763 815 2647 
Q 681 2531 681 2391 
Q 681 2216 781 2091 
Q 878 1963 1175 1819 
L 1631 1597 
Q 2266 1288 2266 781 
Q 2266 391 1970 151 
Q 1675 -88 1309 -88 
Q 1047 -88 709 6 
Q 606 38 541 38 
Q 469 38 428 -44 
L 325 -44 
L 325 978 
L 428 978 
Q 516 541 762 319 
Q 1009 97 1316 97 
Q 1531 97 1667 223 
Q 1803 350 1803 528 
Q 1803 744 1651 891 
Q 1500 1038 1047 1263 
Q 594 1488 453 1669 
Q 313 1847 313 2119 
Q 313 2472 555 2709 
Q 797 2947 1181 2947 
Q 1350 2947 1591 2875 
Q 1750 2828 1803 2828 
Q 1853 2828 1881 2850 
Q 1909 2872 1947 2947 
L 2050 2947 
z
" transform="scale(0.015625)"/>
      </defs>
      <use xlink:href="#TimesNewRomanPSMT-45"/>
      <use xlink:href="#TimesNewRomanPSMT-70" x="61.083984"/>
      <use xlink:href="#TimesNewRomanPSMT-6f" x="111.083984"/>
      <use xlink:href="#TimesNewRomanPSMT-63" x="161.083984"/>
      <use xlink:href="#TimesNewRomanPSMT-68" x="205.46875"/>
      <use xlink:href="#TimesNewRomanPSMT-73" x="255.46875"/>
     </g>
    </g>
   </g>
   <g id="matplotlib.axis_2">
    <g id="ytick_1">
     <g id="line2d_6">
      <defs>
       <path id="m30d4c42d67" d="M 0 0 
L -3.5 0 
" style="stroke: #000000; stroke-width: 0.8"/>
      </defs>
      <g>
       <use xlink:href="#m30d4c42d67" x="45" y="230.762831" style="stroke: #000000; stroke-width: 0.8"/>
      </g>
     </g>
     <g id="text_7">
      <!-- −5 -->
      <g transform="translate(27.360937 234.234706)scale(0.1 -0.1)">
       <defs>
        <path id="TimesNewRomanPSMT-2212" d="M 3484 2000 
L 116 2000 
L 116 2256 
L 3484 2256 
L 3484 2000 
z
" transform="scale(0.015625)"/>
       </defs>
       <use xlink:href="#TimesNewRomanPSMT-2212"/>
       <use xlink:href="#TimesNewRomanPSMT-35" x="56.396484"/>
      </g>
     </g>
    </g>
    <g id="ytick_2">
     <g id="line2d_7">
      <g>
       <use xlink:href="#m30d4c42d67" x="45" y="192.124754" style="stroke: #000000; stroke-width: 0.8"/>
      </g>
     </g>
     <g id="text_8">
      <!-- −4 -->
      <g transform="translate(27.360937 195.596629)scale(0.1 -0.1)">
       <defs>
        <path id="TimesNewRomanPSMT-34" d="M 2978 1563 
L 2978 1119 
L 2409 1119 
L 2409 0 
L 1894 0 
L 1894 1119 
L 100 1119 
L 100 1519 
L 2066 4325 
L 2409 4325 
L 2409 1563 
L 2978 1563 
z
M 1894 1563 
L 1894 3666 
L 406 1563 
L 1894 1563 
z
" transform="scale(0.015625)"/>
       </defs>
       <use xlink:href="#TimesNewRomanPSMT-2212"/>
       <use xlink:href="#TimesNewRomanPSMT-34" x="56.396484"/>
      </g>
     </g>
    </g>
    <g id="ytick_3">
     <g id="line2d_8">
      <g>
       <use xlink:href="#m30d4c42d67" x="45" y="153.486677" style="stroke: #000000; stroke-width: 0.8"/>
      </g>
     </g>
     <g id="text_9">
      <!-- −3 -->
      <g transform="translate(27.360937 156.958552)scale(0.1 -0.1)">
       <defs>
        <path id="TimesNewRomanPSMT-33" d="M 325 3431 
Q 506 3859 782 4092 
Q 1059 4325 1472 4325 
Q 1981 4325 2253 3994 
Q 2459 3747 2459 3466 
Q 2459 3003 1878 2509 
Q 2269 2356 2469 2072 
Q 2669 1788 2669 1403 
Q 2669 853 2319 450 
Q 1863 -75 997 -75 
Q 569 -75 414 31 
Q 259 138 259 259 
Q 259 350 332 419 
Q 406 488 509 488 
Q 588 488 669 463 
Q 722 447 909 348 
Q 1097 250 1169 231 
Q 1284 197 1416 197 
Q 1734 197 1970 444 
Q 2206 691 2206 1028 
Q 2206 1275 2097 1509 
Q 2016 1684 1919 1775 
Q 1784 1900 1550 2001 
Q 1316 2103 1072 2103 
L 972 2103 
L 972 2197 
Q 1219 2228 1467 2375 
Q 1716 2522 1828 2728 
Q 1941 2934 1941 3181 
Q 1941 3503 1739 3701 
Q 1538 3900 1238 3900 
Q 753 3900 428 3381 
L 325 3431 
z
" transform="scale(0.015625)"/>
       </defs>
       <use xlink:href="#TimesNewRomanPSMT-2212"/>
       <use xlink:href="#TimesNewRomanPSMT-33" x="56.396484"/>
      </g>
     </g>
    </g>
    <g id="ytick_4">
     <g id="line2d_9">
      <g>
       <use xlink:href="#m30d4c42d67" x="45" y="114.8486" style="stroke: #000000; stroke-width: 0.8"/>
      </g>
     </g>
     <g id="text_10">
      <!-- −2 -->
      <g transform="translate(27.360937 118.320475)scale(0.1 -0.1)">
       <use xlink:href="#TimesNewRomanPSMT-2212"/>
       <use xlink:href="#TimesNewRomanPSMT-32" x="56.396484"/>
      </g>
     </g>
    </g>
    <g id="ytick_5">
     <g id="line2d_10">
      <g>
       <use xlink:href="#m30d4c42d67" x="45" y="76.210523" style="stroke: #000000; stroke-width: 0.8"/>
      </g>
     </g>
     <g id="text_11">
      <!-- −1 -->
      <g transform="translate(27.360937 79.682398)scale(0.1 -0.1)">
       <use xlink:href="#TimesNewRomanPSMT-2212"/>
       <use xlink:href="#TimesNewRomanPSMT-31" x="56.396484"/>
      </g>
     </g>
    </g>
    <g id="ytick_6">
     <g id="line2d_11">
      <g>
       <use xlink:href="#m30d4c42d67" x="45" y="37.572447" style="stroke: #000000; stroke-width: 0.8"/>
      </g>
     </g>
     <g id="text_12">
      <!-- 0 -->
      <g transform="translate(33 41.044322)scale(0.1 -0.1)">
       <use xlink:href="#TimesNewRomanPSMT-30"/>
      </g>
     </g>
    </g>
    <g id="text_13">
     <!-- Conditional loss, log scale -->
     <g transform="translate(21.203125 198.215)rotate(-90)scale(0.1 -0.1)">
      <defs>
       <path id="TimesNewRomanPSMT-43" d="M 3853 4334 
L 3950 2894 
L 3853 2894 
Q 3659 3541 3300 3825 
Q 2941 4109 2438 4109 
Q 2016 4109 1675 3895 
Q 1334 3681 1139 3212 
Q 944 2744 944 2047 
Q 944 1472 1128 1050 
Q 1313 628 1683 403 
Q 2053 178 2528 178 
Q 2941 178 3256 354 
Q 3572 531 3950 1056 
L 4047 994 
Q 3728 428 3303 165 
Q 2878 -97 2294 -97 
Q 1241 -97 663 684 
Q 231 1266 231 2053 
Q 231 2688 515 3219 
Q 800 3750 1298 4042 
Q 1797 4334 2388 4334 
Q 2847 4334 3294 4109 
Q 3425 4041 3481 4041 
Q 3566 4041 3628 4100 
Q 3709 4184 3744 4334 
L 3853 4334 
z
" transform="scale(0.015625)"/>
       <path id="TimesNewRomanPSMT-6e" d="M 1034 2341 
Q 1538 2947 1994 2947 
Q 2228 2947 2397 2830 
Q 2566 2713 2666 2444 
Q 2734 2256 2734 1869 
L 2734 647 
Q 2734 375 2778 278 
Q 2813 200 2889 156 
Q 2966 113 3172 113 
L 3172 0 
L 1756 0 
L 1756 113 
L 1816 113 
Q 2016 113 2095 173 
Q 2175 234 2206 353 
Q 2219 400 2219 647 
L 2219 1819 
Q 2219 2209 2117 2386 
Q 2016 2563 1775 2563 
Q 1403 2563 1034 2156 
L 1034 647 
Q 1034 356 1069 288 
Q 1113 197 1189 155 
Q 1266 113 1500 113 
L 1500 0 
L 84 0 
L 84 113 
L 147 113 
Q 366 113 442 223 
Q 519 334 519 647 
L 519 1709 
Q 519 2225 495 2337 
Q 472 2450 423 2490 
Q 375 2531 294 2531 
Q 206 2531 84 2484 
L 38 2597 
L 900 2947 
L 1034 2947 
L 1034 2341 
z
" transform="scale(0.015625)"/>
       <path id="TimesNewRomanPSMT-64" d="M 2222 322 
Q 2013 103 1813 7 
Q 1613 -88 1381 -88 
Q 913 -88 563 304 
Q 213 697 213 1313 
Q 213 1928 600 2439 
Q 988 2950 1597 2950 
Q 1975 2950 2222 2709 
L 2222 3238 
Q 2222 3728 2198 3840 
Q 2175 3953 2125 3993 
Q 2075 4034 2000 4034 
Q 1919 4034 1784 3984 
L 1744 4094 
L 2597 4444 
L 2738 4444 
L 2738 1134 
Q 2738 631 2761 520 
Q 2784 409 2836 365 
Q 2888 322 2956 322 
Q 3041 322 3181 375 
L 3216 266 
L 2366 -88 
L 2222 -88 
L 2222 322 
z
M 2222 541 
L 2222 2016 
Q 2203 2228 2109 2403 
Q 2016 2578 1861 2667 
Q 1706 2756 1559 2756 
Q 1284 2756 1069 2509 
Q 784 2184 784 1559 
Q 784 928 1059 592 
Q 1334 256 1672 256 
Q 1956 256 2222 541 
z
" transform="scale(0.015625)"/>
       <path id="TimesNewRomanPSMT-69" d="M 928 4444 
Q 1059 4444 1151 4351 
Q 1244 4259 1244 4128 
Q 1244 3997 1151 3903 
Q 1059 3809 928 3809 
Q 797 3809 703 3903 
Q 609 3997 609 4128 
Q 609 4259 701 4351 
Q 794 4444 928 4444 
z
M 1188 2947 
L 1188 647 
Q 1188 378 1227 289 
Q 1266 200 1342 156 
Q 1419 113 1622 113 
L 1622 0 
L 231 0 
L 231 113 
Q 441 113 512 153 
Q 584 194 626 287 
Q 669 381 669 647 
L 669 1750 
Q 669 2216 641 2353 
Q 619 2453 572 2492 
Q 525 2531 444 2531 
Q 356 2531 231 2484 
L 188 2597 
L 1050 2947 
L 1188 2947 
z
" transform="scale(0.015625)"/>
       <path id="TimesNewRomanPSMT-74" d="M 1031 3803 
L 1031 2863 
L 1700 2863 
L 1700 2644 
L 1031 2644 
L 1031 788 
Q 1031 509 1111 412 
Q 1191 316 1316 316 
Q 1419 316 1516 380 
Q 1613 444 1666 569 
L 1788 569 
Q 1678 263 1478 108 
Q 1278 -47 1066 -47 
Q 922 -47 784 33 
Q 647 113 581 261 
Q 516 409 516 719 
L 516 2644 
L 63 2644 
L 63 2747 
Q 234 2816 414 2980 
Q 594 3144 734 3369 
Q 806 3488 934 3803 
L 1031 3803 
z
" transform="scale(0.015625)"/>
       <path id="TimesNewRomanPSMT-61" d="M 1822 413 
Q 1381 72 1269 19 
Q 1100 -59 909 -59 
Q 613 -59 420 144 
Q 228 347 228 678 
Q 228 888 322 1041 
Q 450 1253 767 1440 
Q 1084 1628 1822 1897 
L 1822 2009 
Q 1822 2438 1686 2597 
Q 1550 2756 1291 2756 
Q 1094 2756 978 2650 
Q 859 2544 859 2406 
L 866 2225 
Q 866 2081 792 2003 
Q 719 1925 600 1925 
Q 484 1925 411 2006 
Q 338 2088 338 2228 
Q 338 2497 613 2722 
Q 888 2947 1384 2947 
Q 1766 2947 2009 2819 
Q 2194 2722 2281 2516 
Q 2338 2381 2338 1966 
L 2338 994 
Q 2338 584 2353 492 
Q 2369 400 2405 369 
Q 2441 338 2488 338 
Q 2538 338 2575 359 
Q 2641 400 2828 588 
L 2828 413 
Q 2478 -56 2159 -56 
Q 2006 -56 1915 50 
Q 1825 156 1822 413 
z
M 1822 616 
L 1822 1706 
Q 1350 1519 1213 1441 
Q 966 1303 859 1153 
Q 753 1003 753 825 
Q 753 600 887 451 
Q 1022 303 1197 303 
Q 1434 303 1822 616 
z
" transform="scale(0.015625)"/>
       <path id="TimesNewRomanPSMT-6c" d="M 1184 4444 
L 1184 647 
Q 1184 378 1223 290 
Q 1263 203 1344 158 
Q 1425 113 1647 113 
L 1647 0 
L 244 0 
L 244 113 
Q 441 113 512 153 
Q 584 194 625 287 
Q 666 381 666 647 
L 666 3247 
Q 666 3731 644 3842 
Q 622 3953 573 3993 
Q 525 4034 450 4034 
Q 369 4034 244 3984 
L 191 4094 
L 1044 4444 
L 1184 4444 
z
" transform="scale(0.015625)"/>
       <path id="TimesNewRomanPSMT-20" transform="scale(0.015625)"/>
       <path id="TimesNewRomanPSMT-2c" d="M 344 -1066 
L 344 -928 
Q 666 -822 842 -598 
Q 1019 -375 1019 -125 
Q 1019 -66 991 -25 
Q 969 3 947 3 
Q 913 3 797 -59 
Q 741 -88 678 -88 
Q 525 -88 434 3 
Q 344 94 344 253 
Q 344 406 461 515 
Q 578 625 747 625 
Q 953 625 1114 445 
Q 1275 266 1275 -31 
Q 1275 -353 1051 -629 
Q 828 -906 344 -1066 
z
" transform="scale(0.015625)"/>
       <path id="TimesNewRomanPSMT-67" d="M 966 1044 
Q 703 1172 562 1401 
Q 422 1631 422 1909 
Q 422 2334 742 2640 
Q 1063 2947 1563 2947 
Q 1972 2947 2272 2747 
L 2878 2747 
Q 3013 2747 3034 2739 
Q 3056 2731 3066 2713 
Q 3084 2684 3084 2613 
Q 3084 2531 3069 2500 
Q 3059 2484 3036 2475 
Q 3013 2466 2878 2466 
L 2506 2466 
Q 2681 2241 2681 1891 
Q 2681 1491 2375 1206 
Q 2069 922 1553 922 
Q 1341 922 1119 984 
Q 981 866 932 777 
Q 884 688 884 625 
Q 884 572 936 522 
Q 988 472 1138 450 
Q 1225 438 1575 428 
Q 2219 413 2409 384 
Q 2700 344 2873 169 
Q 3047 -6 3047 -263 
Q 3047 -616 2716 -925 
Q 2228 -1381 1444 -1381 
Q 841 -1381 425 -1109 
Q 191 -953 191 -784 
Q 191 -709 225 -634 
Q 278 -519 444 -313 
Q 466 -284 763 25 
Q 600 122 533 198 
Q 466 275 466 372 
Q 466 481 555 628 
Q 644 775 966 1044 
z
M 1509 2797 
Q 1278 2797 1122 2612 
Q 966 2428 966 2047 
Q 966 1553 1178 1281 
Q 1341 1075 1591 1075 
Q 1828 1075 1981 1253 
Q 2134 1431 2134 1813 
Q 2134 2309 1919 2591 
Q 1759 2797 1509 2797 
z
M 934 0 
Q 788 -159 713 -296 
Q 638 -434 638 -550 
Q 638 -700 819 -813 
Q 1131 -1006 1722 -1006 
Q 2284 -1006 2551 -807 
Q 2819 -609 2819 -384 
Q 2819 -222 2659 -153 
Q 2497 -84 2016 -72 
Q 1313 -53 934 0 
z
" transform="scale(0.015625)"/>
       <path id="TimesNewRomanPSMT-65" d="M 681 1784 
Q 678 1147 991 784 
Q 1303 422 1725 422 
Q 2006 422 2214 576 
Q 2422 731 2563 1106 
L 2659 1044 
Q 2594 616 2278 264 
Q 1963 -88 1488 -88 
Q 972 -88 605 314 
Q 238 716 238 1394 
Q 238 2128 614 2539 
Q 991 2950 1559 2950 
Q 2041 2950 2350 2633 
Q 2659 2316 2659 1784 
L 681 1784 
z
M 681 1966 
L 2006 1966 
Q 1991 2241 1941 2353 
Q 1863 2528 1708 2628 
Q 1553 2728 1384 2728 
Q 1125 2728 920 2526 
Q 716 2325 681 1966 
z
" transform="scale(0.015625)"/>
      </defs>
      <use xlink:href="#TimesNewRomanPSMT-43"/>
      <use xlink:href="#TimesNewRomanPSMT-6f" x="66.699219"/>
      <use xlink:href="#TimesNewRomanPSMT-6e" x="116.699219"/>
      <use xlink:href="#TimesNewRomanPSMT-64" x="166.699219"/>
      <use xlink:href="#TimesNewRomanPSMT-69" x="216.699219"/>
      <use xlink:href="#TimesNewRomanPSMT-74" x="244.482422"/>
      <use xlink:href="#TimesNewRomanPSMT-69" x="272.265625"/>
      <use xlink:href="#TimesNewRomanPSMT-6f" x="300.048828"/>
      <use xlink:href="#TimesNewRomanPSMT-6e" x="350.048828"/>
      <use xlink:href="#TimesNewRomanPSMT-61" x="400.048828"/>
      <use xlink:href="#TimesNewRomanPSMT-6c" x="444.433594"/>
      <use xlink:href="#TimesNewRomanPSMT-20" x="472.216797"/>
      <use xlink:href="#TimesNewRomanPSMT-6c" x="497.216797"/>
      <use xlink:href="#TimesNewRomanPSMT-6f" x="525"/>
      <use xlink:href="#TimesNewRomanPSMT-73" x="575"/>
      <use xlink:href="#TimesNewRomanPSMT-73" x="613.916016"/>
      <use xlink:href="#TimesNewRomanPSMT-2c" x="652.832031"/>
      <use xlink:href="#TimesNewRomanPSMT-20" x="677.832031"/>
      <use xlink:href="#TimesNewRomanPSMT-6c" x="702.832031"/>
      <use xlink:href="#TimesNewRomanPSMT-6f" x="730.615234"/>
      <use xlink:href="#TimesNewRomanPSMT-67" x="780.615234"/>
      <use xlink:href="#TimesNewRomanPSMT-20" x="830.615234"/>
      <use xlink:href="#TimesNewRomanPSMT-73" x="855.615234"/>
      <use xlink:href="#TimesNewRomanPSMT-63" x="894.53125"/>
      <use xlink:href="#TimesNewRomanPSMT-61" x="938.916016"/>
      <use xlink:href="#TimesNewRomanPSMT-6c" x="983.300781"/>
      <use xlink:href="#TimesNewRomanPSMT-65" x="1011.083984"/>
     </g>
    </g>
   </g>
   <g id="line2d_12">
    <path d="M 57.681818 73.113218 
L 61.505482 99.321732 
L 62.780037 102.033552 
L 64.054591 102.665146 
L 66.6037 103.184327 
L 69.15281 103.874546 
L 74.251028 105.501407 
L 76.800137 106.622708 
L 79.349246 108.126507 
L 83.17291 110.730498 
L 85.722019 112.607783 
L 88.271128 114.778035 
L 90.820238 117.247972 
L 94.643901 121.320133 
L 98.467565 125.779716 
L 104.840338 133.609921 
L 112.487666 143.323628 
L 116.311329 147.506802 
L 121.409548 152.300581 
L 123.958657 154.713716 
L 126.507766 157.06476 
L 131.605984 161.124383 
L 132.880539 161.939658 
L 136.704203 164.750695 
L 141.802421 168.21656 
L 143.076976 168.913725 
L 144.35153 169.198585 
L 148.175194 171.052489 
L 149.449749 171.49189 
L 150.724303 172.396655 
L 151.998858 173.036377 
L 153.273413 173.14365 
L 157.097076 174.592256 
L 158.371631 174.747909 
L 159.646185 175.495018 
L 163.469849 175.902313 
L 164.744404 176.275002 
L 166.018958 176.119845 
L 168.568068 176.839429 
L 169.842622 177.350476 
L 171.117177 177.496487 
L 172.391731 177.959517 
L 173.666286 178.222372 
L 174.940841 178.086848 
L 176.215395 178.086909 
L 177.48995 178.475058 
L 178.764504 178.602656 
L 180.039059 178.485263 
L 181.313614 178.946767 
L 182.588168 179.156794 
L 183.862723 179.13759 
L 185.137277 179.243241 
L 186.411832 179.691815 
L 187.686386 179.726761 
L 190.235496 179.622202 
L 194.059159 179.914115 
L 195.333714 180.201603 
L 196.608269 180.183784 
L 197.882823 180.03636 
L 199.157378 180.020241 
L 200.431932 180.135693 
L 201.706487 180.078182 
L 202.981042 180.326435 
L 205.530151 180.491536 
L 209.353815 180.74343 
L 210.628369 181.169055 
L 211.902924 181.428861 
L 217.001142 181.576889 
L 220.824806 181.230614 
L 222.09936 181.15861 
L 223.373915 180.966497 
L 228.472133 181.707364 
L 229.746688 182.19554 
L 231.021243 182.091243 
L 232.295797 182.352026 
L 236.119461 182.417052 
L 237.394016 182.688182 
L 239.943125 182.803492 
L 241.217679 182.48099 
L 242.492234 182.481459 
L 245.041343 181.850823 
L 246.315898 181.792601 
L 247.590452 182.080751 
L 248.865007 182.076264 
L 251.414116 182.528671 
L 252.688671 182.645256 
L 253.963225 182.357171 
L 255.23778 182.486892 
L 256.512334 182.323262 
L 259.061444 182.316055 
L 265.434217 182.719591 
L 266.708771 182.909559 
L 270.532435 183.071944 
L 271.806989 182.973593 
L 274.356099 183.198393 
L 275.630653 183.129999 
L 276.905208 183.219854 
L 279.454317 183.141814 
L 280.728872 182.814719 
L 282.003426 183.119863 
L 283.277981 182.956335 
L 284.552535 183.155328 
L 285.82709 183.092623 
L 287.101645 183.584936 
L 288.376199 183.577056 
L 289.650754 183.839072 
L 290.925308 183.768791 
L 292.199863 183.957862 
L 293.474418 183.307117 
L 294.748972 182.875935 
L 296.023527 183.020068 
L 298.572636 182.966802 
L 299.84719 183.54213 
L 301.121745 183.904161 
L 302.3963 183.773438 
L 304.945409 184.387892 
L 306.219963 184.290385 
L 307.494518 184.560889 
L 311.318182 184.2482 
L 311.318182 184.2482 
" clip-path="url(#p7195bbb2b6)" style="fill: none; stroke: #ff0000; stroke-width: 1.5; stroke-linecap: square"/>
   </g>
   <g id="line2d_13">
    <path d="M 57.681818 79.078722 
L 61.505482 102.234723 
L 62.780037 102.746576 
L 69.15281 102.859758 
L 72.976473 103.253434 
L 75.525582 103.755524 
L 76.800137 104.13427 
L 79.349246 105.228285 
L 83.17291 107.163058 
L 85.722019 108.648463 
L 88.271128 110.600418 
L 90.820238 112.905889 
L 97.193011 118.972264 
L 101.016674 122.297558 
L 106.114893 126.437899 
L 108.664002 128.881618 
L 116.311329 137.082692 
L 118.860439 139.251794 
L 121.409548 141.162241 
L 123.958657 142.81769 
L 131.605984 147.193171 
L 134.155094 148.603894 
L 136.704203 149.694171 
L 139.253312 150.396265 
L 143.076976 151.032062 
L 171.117177 155.037114 
L 177.48995 156.21418 
L 182.588168 157.35574 
L 187.686386 158.705323 
L 194.059159 160.675541 
L 202.981042 163.486251 
L 208.07926 164.824542 
L 214.452033 166.196353 
L 222.09936 167.621839 
L 228.472133 168.587689 
L 234.844906 169.308469 
L 242.492234 169.924853 
L 253.963225 170.566848 
L 280.728872 171.703594 
L 311.318182 172.933373 
L 311.318182 172.933373 
" clip-path="url(#p7195bbb2b6)" style="fill: none; stroke: #0000ff; stroke-width: 1.5; stroke-linecap: square"/>
   </g>
   <g id="line2d_14">
    <path d="M 57.681818 65.790117 
L 61.505482 97.702585 
L 62.780037 101.864321 
L 64.054591 102.530854 
L 72.976473 103.60586 
L 89.545683 107.477901 
L 93.369347 108.7593 
L 95.918456 109.826692 
L 104.840338 114.141317 
L 107.389447 116.005744 
L 108.664002 117.11514 
L 112.487666 120.941833 
L 118.860439 126.356451 
L 125.233212 132.642181 
L 135.429648 143.376591 
L 137.978757 146.437177 
L 139.253312 148.323475 
L 141.802421 152.518911 
L 144.35153 156.312967 
L 145.626085 157.880342 
L 146.90064 159.259584 
L 148.175194 160.413177 
L 150.724303 162.20795 
L 153.273413 163.042301 
L 154.547967 163.016376 
L 155.822522 164.073046 
L 157.097076 164.922348 
L 159.646185 167.747265 
L 160.92074 169.553441 
L 166.018958 173.553957 
L 167.293513 174.678709 
L 168.568068 174.919166 
L 169.842622 175.93206 
L 171.117177 176.59869 
L 173.666286 178.466609 
L 174.940841 180.070819 
L 176.215395 180.858784 
L 177.48995 181.481993 
L 180.039059 181.935558 
L 182.588168 182.116317 
L 187.686386 183.741874 
L 188.960941 184.266303 
L 191.51005 185.503724 
L 196.608269 187.508305 
L 199.157378 188.170749 
L 200.431932 188.728217 
L 201.706487 189.064326 
L 202.981042 189.547562 
L 204.255596 190.289602 
L 205.530151 190.815234 
L 206.804705 190.658897 
L 208.07926 191.001478 
L 209.353815 191.207334 
L 210.628369 191.181141 
L 211.902924 191.654627 
L 213.177478 192.543981 
L 215.726587 193.529012 
L 217.001142 193.658849 
L 219.550251 194.226041 
L 220.824806 194.354292 
L 223.373915 195.378635 
L 225.923024 195.865719 
L 227.197579 195.9107 
L 228.472133 195.779115 
L 229.746688 195.863533 
L 232.295797 196.493131 
L 233.570352 197.190159 
L 234.844906 197.374105 
L 236.119461 197.952938 
L 237.394016 196.957482 
L 238.66857 196.670298 
L 239.943125 196.676148 
L 241.217679 197.039363 
L 242.492234 197.078756 
L 243.766788 198.136205 
L 245.041343 198.410768 
L 246.315898 198.412771 
L 247.590452 198.651207 
L 248.865007 198.42713 
L 250.139561 198.695287 
L 251.414116 198.635396 
L 252.688671 198.826344 
L 253.963225 198.768114 
L 255.23778 199.014709 
L 256.512334 198.935155 
L 257.786889 198.389695 
L 259.061444 197.56565 
L 261.610553 197.269819 
L 262.885107 197.375012 
L 265.434217 199.090102 
L 266.708771 199.216028 
L 267.983326 199.499309 
L 269.25788 198.794259 
L 270.532435 198.965659 
L 271.806989 199.38695 
L 273.081544 198.709017 
L 274.356099 199.065014 
L 275.630653 200.205296 
L 278.179762 200.186881 
L 279.454317 200.635309 
L 280.728872 200.636597 
L 282.003426 200.418997 
L 284.552535 200.391968 
L 285.82709 201.06021 
L 287.101645 201.044508 
L 288.376199 200.781839 
L 289.650754 201.153258 
L 290.925308 201.112268 
L 292.199863 200.867282 
L 294.748972 201.633727 
L 297.298081 201.565603 
L 301.121745 202.017244 
L 302.3963 202.368077 
L 303.670854 202.538421 
L 304.945409 202.862061 
L 306.219963 202.868212 
L 308.769073 202.553229 
L 311.318182 201.721665 
L 311.318182 201.721665 
" clip-path="url(#p7195bbb2b6)" style="fill: none; stroke: #008000; stroke-width: 1.5; stroke-linecap: square"/>
   </g>
   <g id="patch_3">
    <path d="M 45 256.32 
L 45 34.56 
" style="fill: none; stroke: #000000; stroke-width: 0.8; stroke-linejoin: miter; stroke-linecap: square"/>
   </g>
   <g id="patch_4">
    <path d="M 324 256.32 
L 324 34.56 
" style="fill: none; stroke: #000000; stroke-width: 0.8; stroke-linejoin: miter; stroke-linecap: square"/>
   </g>
   <g id="patch_5">
    <path d="M 45 256.32 
L 324 256.32 
" style="fill: none; stroke: #000000; stroke-width: 0.8; stroke-linejoin: miter; stroke-linecap: square"/>
   </g>
   <g id="patch_6">
    <path d="M 45 34.56 
L 324 34.56 
" style="fill: none; stroke: #000000; stroke-width: 0.8; stroke-linejoin: miter; stroke-linecap: square"/>
   </g>
   <g id="legend_1">
    <g id="patch_7">
     <path d="M 252.2125 84.977188 
L 317 84.977188 
Q 319 84.977188 319 82.977188 
L 319 41.56 
Q 319 39.56 317 39.56 
L 252.2125 39.56 
Q 250.2125 39.56 250.2125 41.56 
L 250.2125 82.977188 
Q 250.2125 84.977188 252.2125 84.977188 
z
" style="fill: #ffffff; opacity: 0.8; stroke: #cccccc; stroke-linejoin: miter"/>
    </g>
    <g id="line2d_15">
     <path d="M 254.2125 47.06 
L 264.2125 47.06 
L 274.2125 47.06 
" style="fill: none; stroke: #ff0000; stroke-width: 1.5; stroke-linecap: square"/>
    </g>
    <g id="text_14">
     <!-- FPSNN -->
     <g transform="translate(282.2125 50.56)scale(0.1 -0.1)">
      <defs>
       <path id="TimesNewRomanPSMT-46" d="M 1309 4006 
L 1309 2341 
L 2081 2341 
Q 2347 2341 2470 2458 
Q 2594 2575 2634 2922 
L 2750 2922 
L 2750 1488 
L 2634 1488 
Q 2631 1734 2570 1850 
Q 2509 1966 2401 2023 
Q 2294 2081 2081 2081 
L 1309 2081 
L 1309 750 
Q 1309 428 1350 325 
Q 1381 247 1481 191 
Q 1619 116 1769 116 
L 1922 116 
L 1922 0 
L 103 0 
L 103 116 
L 253 116 
Q 516 116 634 269 
Q 709 369 709 750 
L 709 3488 
Q 709 3809 669 3913 
Q 638 3991 541 4047 
Q 406 4122 253 4122 
L 103 4122 
L 103 4238 
L 3256 4238 
L 3297 3306 
L 3188 3306 
Q 3106 3603 2998 3742 
Q 2891 3881 2733 3943 
Q 2575 4006 2244 4006 
L 1309 4006 
z
" transform="scale(0.015625)"/>
       <path id="TimesNewRomanPSMT-50" d="M 1313 1984 
L 1313 750 
Q 1313 350 1400 253 
Q 1519 116 1759 116 
L 1922 116 
L 1922 0 
L 106 0 
L 106 116 
L 266 116 
Q 534 116 650 291 
Q 713 388 713 750 
L 713 3488 
Q 713 3888 628 3984 
Q 506 4122 266 4122 
L 106 4122 
L 106 4238 
L 1659 4238 
Q 2228 4238 2556 4120 
Q 2884 4003 3109 3725 
Q 3334 3447 3334 3066 
Q 3334 2547 2992 2222 
Q 2650 1897 2025 1897 
Q 1872 1897 1694 1919 
Q 1516 1941 1313 1984 
z
M 1313 2163 
Q 1478 2131 1606 2115 
Q 1734 2100 1825 2100 
Q 2150 2100 2386 2351 
Q 2622 2603 2622 3003 
Q 2622 3278 2509 3514 
Q 2397 3750 2190 3867 
Q 1984 3984 1722 3984 
Q 1563 3984 1313 3925 
L 1313 2163 
z
" transform="scale(0.015625)"/>
       <path id="TimesNewRomanPSMT-53" d="M 2934 4334 
L 2934 2869 
L 2819 2869 
Q 2763 3291 2617 3541 
Q 2472 3791 2203 3937 
Q 1934 4084 1647 4084 
Q 1322 4084 1109 3886 
Q 897 3688 897 3434 
Q 897 3241 1031 3081 
Q 1225 2847 1953 2456 
Q 2547 2138 2764 1967 
Q 2981 1797 3098 1565 
Q 3216 1334 3216 1081 
Q 3216 600 2842 251 
Q 2469 -97 1881 -97 
Q 1697 -97 1534 -69 
Q 1438 -53 1133 45 
Q 828 144 747 144 
Q 669 144 623 97 
Q 578 50 556 -97 
L 441 -97 
L 441 1356 
L 556 1356 
Q 638 900 775 673 
Q 913 447 1195 297 
Q 1478 147 1816 147 
Q 2206 147 2432 353 
Q 2659 559 2659 841 
Q 2659 997 2573 1156 
Q 2488 1316 2306 1453 
Q 2184 1547 1640 1851 
Q 1097 2156 867 2337 
Q 638 2519 519 2737 
Q 400 2956 400 3219 
Q 400 3675 750 4004 
Q 1100 4334 1641 4334 
Q 1978 4334 2356 4169 
Q 2531 4091 2603 4091 
Q 2684 4091 2736 4139 
Q 2788 4188 2819 4334 
L 2934 4334 
z
" transform="scale(0.015625)"/>
       <path id="TimesNewRomanPSMT-4e" d="M -84 4238 
L 1066 4238 
L 3656 1059 
L 3656 3503 
Q 3656 3894 3569 3991 
Q 3453 4122 3203 4122 
L 3056 4122 
L 3056 4238 
L 4531 4238 
L 4531 4122 
L 4381 4122 
Q 4113 4122 4000 3959 
Q 3931 3859 3931 3503 
L 3931 -69 
L 3819 -69 
L 1025 3344 
L 1025 734 
Q 1025 344 1109 247 
Q 1228 116 1475 116 
L 1625 116 
L 1625 0 
L 150 0 
L 150 116 
L 297 116 
Q 569 116 681 278 
Q 750 378 750 734 
L 750 3681 
Q 566 3897 470 3965 
Q 375 4034 191 4094 
Q 100 4122 -84 4122 
L -84 4238 
z
" transform="scale(0.015625)"/>
      </defs>
      <use xlink:href="#TimesNewRomanPSMT-46"/>
      <use xlink:href="#TimesNewRomanPSMT-50" x="55.615234"/>
      <use xlink:href="#TimesNewRomanPSMT-53" x="111.230469"/>
      <use xlink:href="#TimesNewRomanPSMT-4e" x="166.845703"/>
      <use xlink:href="#TimesNewRomanPSMT-4e" x="239.0625"/>
     </g>
    </g>
    <g id="line2d_16">
     <path d="M 254.2125 61.199062 
L 264.2125 61.199062 
L 274.2125 61.199062 
" style="fill: none; stroke: #0000ff; stroke-width: 1.5; stroke-linecap: square"/>
    </g>
    <g id="text_15">
     <!-- FPANN -->
     <g transform="translate(282.2125 64.699062)scale(0.1 -0.1)">
      <defs>
       <path id="TimesNewRomanPSMT-41" d="M 2928 1419 
L 1288 1419 
L 1000 750 
Q 894 503 894 381 
Q 894 284 986 211 
Q 1078 138 1384 116 
L 1384 0 
L 50 0 
L 50 116 
Q 316 163 394 238 
Q 553 388 747 847 
L 2238 4334 
L 2347 4334 
L 3822 809 
Q 4000 384 4145 257 
Q 4291 131 4550 116 
L 4550 0 
L 2878 0 
L 2878 116 
Q 3131 128 3220 200 
Q 3309 272 3309 375 
Q 3309 513 3184 809 
L 2928 1419 
z
M 2841 1650 
L 2122 3363 
L 1384 1650 
L 2841 1650 
z
" transform="scale(0.015625)"/>
      </defs>
      <use xlink:href="#TimesNewRomanPSMT-46"/>
      <use xlink:href="#TimesNewRomanPSMT-50" x="55.615234"/>
      <use xlink:href="#TimesNewRomanPSMT-41" x="102.105469"/>
      <use xlink:href="#TimesNewRomanPSMT-4e" x="174.322266"/>
      <use xlink:href="#TimesNewRomanPSMT-4e" x="246.539062"/>
     </g>
    </g>
    <g id="line2d_17">
     <path d="M 254.2125 75.338125 
L 264.2125 75.338125 
L 274.2125 75.338125 
" style="fill: none; stroke: #008000; stroke-width: 1.5; stroke-linecap: square"/>
    </g>
    <g id="text_16">
     <!-- APSNN -->
     <g transform="translate(282.2125 78.838125)scale(0.1 -0.1)">
      <use xlink:href="#TimesNewRomanPSMT-41"/>
      <use xlink:href="#TimesNewRomanPSMT-50" x="72.216797"/>
      <use xlink:href="#TimesNewRomanPSMT-53" x="127.832031"/>
      <use xlink:href="#TimesNewRomanPSMT-4e" x="183.447266"/>
      <use xlink:href="#TimesNewRomanPSMT-4e" x="255.664062"/>
     </g>
    </g>
   </g>
  </g>
  <g id="text_17">
   <!-- Conditional loss comparison, log scale -->
   <g transform="translate(87.17625 14.0925)scale(0.12 -0.12)">
    <defs>
     <path id="TimesNewRomanPSMT-6d" d="M 1050 2338 
Q 1363 2650 1419 2697 
Q 1559 2816 1721 2881 
Q 1884 2947 2044 2947 
Q 2313 2947 2506 2790 
Q 2700 2634 2766 2338 
Q 3088 2713 3309 2830 
Q 3531 2947 3766 2947 
Q 3994 2947 4170 2830 
Q 4347 2713 4450 2447 
Q 4519 2266 4519 1878 
L 4519 647 
Q 4519 378 4559 278 
Q 4591 209 4675 161 
Q 4759 113 4950 113 
L 4950 0 
L 3538 0 
L 3538 113 
L 3597 113 
Q 3781 113 3884 184 
Q 3956 234 3988 344 
Q 4000 397 4000 647 
L 4000 1878 
Q 4000 2228 3916 2372 
Q 3794 2572 3525 2572 
Q 3359 2572 3192 2489 
Q 3025 2406 2788 2181 
L 2781 2147 
L 2788 2013 
L 2788 647 
Q 2788 353 2820 281 
Q 2853 209 2943 161 
Q 3034 113 3253 113 
L 3253 0 
L 1806 0 
L 1806 113 
Q 2044 113 2133 169 
Q 2222 225 2256 338 
Q 2272 391 2272 647 
L 2272 1878 
Q 2272 2228 2169 2381 
Q 2031 2581 1784 2581 
Q 1616 2581 1450 2491 
Q 1191 2353 1050 2181 
L 1050 647 
Q 1050 366 1089 281 
Q 1128 197 1204 155 
Q 1281 113 1516 113 
L 1516 0 
L 100 0 
L 100 113 
Q 297 113 375 155 
Q 453 197 493 289 
Q 534 381 534 647 
L 534 1741 
Q 534 2213 506 2350 
Q 484 2453 437 2492 
Q 391 2531 309 2531 
Q 222 2531 100 2484 
L 53 2597 
L 916 2947 
L 1050 2947 
L 1050 2338 
z
" transform="scale(0.015625)"/>
     <path id="TimesNewRomanPSMT-72" d="M 1038 2947 
L 1038 2303 
Q 1397 2947 1775 2947 
Q 1947 2947 2059 2842 
Q 2172 2738 2172 2600 
Q 2172 2478 2090 2393 
Q 2009 2309 1897 2309 
Q 1788 2309 1652 2417 
Q 1516 2525 1450 2525 
Q 1394 2525 1328 2463 
Q 1188 2334 1038 2041 
L 1038 669 
Q 1038 431 1097 309 
Q 1138 225 1241 169 
Q 1344 113 1538 113 
L 1538 0 
L 72 0 
L 72 113 
Q 291 113 397 181 
Q 475 231 506 341 
Q 522 394 522 644 
L 522 1753 
Q 522 2253 501 2348 
Q 481 2444 426 2487 
Q 372 2531 291 2531 
Q 194 2531 72 2484 
L 41 2597 
L 906 2947 
L 1038 2947 
z
" transform="scale(0.015625)"/>
    </defs>
    <use xlink:href="#TimesNewRomanPSMT-43"/>
    <use xlink:href="#TimesNewRomanPSMT-6f" x="66.699219"/>
    <use xlink:href="#TimesNewRomanPSMT-6e" x="116.699219"/>
    <use xlink:href="#TimesNewRomanPSMT-64" x="166.699219"/>
    <use xlink:href="#TimesNewRomanPSMT-69" x="216.699219"/>
    <use xlink:href="#TimesNewRomanPSMT-74" x="244.482422"/>
    <use xlink:href="#TimesNewRomanPSMT-69" x="272.265625"/>
    <use xlink:href="#TimesNewRomanPSMT-6f" x="300.048828"/>
    <use xlink:href="#TimesNewRomanPSMT-6e" x="350.048828"/>
    <use xlink:href="#TimesNewRomanPSMT-61" x="400.048828"/>
    <use xlink:href="#TimesNewRomanPSMT-6c" x="444.433594"/>
    <use xlink:href="#TimesNewRomanPSMT-20" x="472.216797"/>
    <use xlink:href="#TimesNewRomanPSMT-6c" x="497.216797"/>
    <use xlink:href="#TimesNewRomanPSMT-6f" x="525"/>
    <use xlink:href="#TimesNewRomanPSMT-73" x="575"/>
    <use xlink:href="#TimesNewRomanPSMT-73" x="613.916016"/>
    <use xlink:href="#TimesNewRomanPSMT-20" x="652.832031"/>
    <use xlink:href="#TimesNewRomanPSMT-63" x="677.832031"/>
    <use xlink:href="#TimesNewRomanPSMT-6f" x="722.216797"/>
    <use xlink:href="#TimesNewRomanPSMT-6d" x="772.216797"/>
    <use xlink:href="#TimesNewRomanPSMT-70" x="850"/>
    <use xlink:href="#TimesNewRomanPSMT-61" x="900"/>
    <use xlink:href="#TimesNewRomanPSMT-72" x="944.384766"/>
    <use xlink:href="#TimesNewRomanPSMT-69" x="977.685547"/>
    <use xlink:href="#TimesNewRomanPSMT-73" x="1005.46875"/>
    <use xlink:href="#TimesNewRomanPSMT-6f" x="1044.384766"/>
    <use xlink:href="#TimesNewRomanPSMT-6e" x="1094.384766"/>
    <use xlink:href="#TimesNewRomanPSMT-2c" x="1144.384766"/>
    <use xlink:href="#TimesNewRomanPSMT-20" x="1169.384766"/>
    <use xlink:href="#TimesNewRomanPSMT-6c" x="1194.384766"/>
    <use xlink:href="#TimesNewRomanPSMT-6f" x="1222.167969"/>
    <use xlink:href="#TimesNewRomanPSMT-67" x="1272.167969"/>
    <use xlink:href="#TimesNewRomanPSMT-20" x="1322.167969"/>
    <use xlink:href="#TimesNewRomanPSMT-73" x="1347.167969"/>
    <use xlink:href="#TimesNewRomanPSMT-63" x="1386.083984"/>
    <use xlink:href="#TimesNewRomanPSMT-61" x="1430.46875"/>
    <use xlink:href="#TimesNewRomanPSMT-6c" x="1474.853516"/>
    <use xlink:href="#TimesNewRomanPSMT-65" x="1502.636719"/>
   </g>
  </g>
 </g>
 <defs>
  <clipPath id="p7195bbb2b6">
   <rect x="45" y="34.56" width="279" height="221.76"/>
  </clipPath>
 </defs>
</svg>
