<?xml version="1.0" encoding="utf-8" standalone="no"?>
<!DOCTYPE svg PUBLIC "-//W3C//DTD SVG 1.1//EN"
  "http://www.w3.org/Graphics/SVG/1.1/DTD/svg11.dtd">
<svg xmlns:xlink="http://www.w3.org/1999/xlink" width="360pt" height="288pt" viewBox="0 0 360 288" xmlns="http://www.w3.org/2000/svg" version="1.1">
 <metadata>
  <rdf:RDF xmlns:dc="http://purl.org/dc/elements/1.1/" xmlns:cc="http://creativecommons.org/ns#" xmlns:rdf="http://www.w3.org/1999/02/22-rdf-syntax-ns#">
   <cc:Work>
    <dc:type rdf:resource="http://purl.org/dc/dcmitype/StillImage"/>
    <dc:date>2024-11-11T15:22:12.440577</dc:date>
    <dc:format>image/svg+xml</dc:format>
    <dc:creator>
     <cc:Agent>
      <dc:title>Matplotlib v3.5.2, https://matplotlib.org/</dc:title>
     </cc:Agent>
    </dc:creator>
   </cc:Work>
  </rdf:RDF>
 </metadata>
 <defs>
  <style type="text/css">*{stroke-linejoin: round; stroke-linecap: butt}</style>
 </defs>
 <g id="figure_1">
  <g id="patch_1">
   <path d="M 0 288 
L 360 288 
L 360 0 
L 0 0 
z
" style="fill: #ffffff"/>
  </g>
  <g id="axes_1">
   <g id="patch_2">
    <path d="M 45 256.32 
L 324 256.32 
L 324 34.56 
L 45 34.56 
z
" style="fill: #ffffff"/>
   </g>
   <g id="PolyCollection_1">
    <path d="M 57.681818 55.655533 
L 57.681818 88.297562 
L 58.956373 84.40993 
L 60.230927 83.037201 
L 61.505482 81.885695 
L 62.780037 83.536328 
L 64.054591 84.44874 
L 65.329146 87.123312 
L 66.6037 86.683596 
L 67.878255 86.832179 
L 69.15281 85.530359 
L 70.427364 84.484061 
L 71.701919 85.54818 
L 72.976473 87.474368 
L 74.251028 91.503482 
L 75.525582 103.193047 
L 76.800137 115.230452 
L 78.074692 126.661215 
L 79.349246 138.164263 
L 80.623801 141.968051 
L 81.898355 140.648529 
L 83.17291 139.223405 
L 84.447465 138.5224 
L 85.722019 135.592867 
L 86.996574 130.61796 
L 88.271128 119.578337 
L 89.545683 107.537324 
L 90.820238 95.511268 
L 92.094792 85.406186 
L 93.369347 79.872341 
L 94.643901 79.199068 
L 95.918456 78.65951 
L 97.193011 77.949345 
L 98.467565 77.536411 
L 99.74212 75.503375 
L 101.016674 74.660156 
L 102.291229 73.353557 
L 103.565783 71.849429 
L 104.840338 70.215774 
L 106.114893 67.892974 
L 107.389447 66.680581 
L 108.664002 66.528356 
L 109.938556 66.380608 
L 111.213111 65.786142 
L 112.487666 65.1008 
L 113.76222 64.369908 
L 115.036775 63.652528 
L 116.311329 62.973406 
L 117.585884 62.326835 
L 118.860439 61.717214 
L 120.134993 61.146404 
L 121.409548 60.592792 
L 122.684102 60.064941 
L 123.958657 60.272379 
L 125.233212 60.899473 
L 126.507766 61.351237 
L 127.782321 61.683812 
L 129.056875 61.954138 
L 130.33143 62.191565 
L 131.605984 62.390151 
L 132.880539 62.431689 
L 134.155094 62.705344 
L 135.429648 62.946959 
L 136.704203 63.184626 
L 137.978757 63.407691 
L 139.253312 63.517209 
L 140.527867 63.570926 
L 141.802421 63.382785 
L 143.076976 63.133056 
L 144.35153 63.073404 
L 145.626085 63.150403 
L 146.90064 62.927594 
L 148.175194 63.010267 
L 149.449749 63.197089 
L 150.724303 63.129097 
L 151.998858 63.047506 
L 153.273413 63.202458 
L 154.547967 63.199987 
L 155.822522 63.118084 
L 157.097076 63.111391 
L 158.371631 63.120124 
L 159.646185 62.972223 
L 160.92074 62.978859 
L 162.195295 62.899423 
L 163.469849 62.900918 
L 164.744404 62.907931 
L 166.018958 63.001809 
L 167.293513 62.924615 
L 168.568068 63.033171 
L 169.842622 63.020026 
L 171.117177 63.078625 
L 172.391731 63.137643 
L 173.666286 63.197123 
L 174.940841 63.257022 
L 176.215395 63.317196 
L 177.48995 63.377801 
L 178.764504 63.438825 
L 180.039059 63.500528 
L 181.313614 63.563024 
L 182.588168 63.626783 
L 183.862723 63.692071 
L 185.137277 63.759479 
L 186.411832 63.829381 
L 187.686386 63.902407 
L 188.960941 63.97907 
L 190.235496 64.059944 
L 191.51005 64.145249 
L 192.784605 64.235283 
L 194.059159 64.329817 
L 195.333714 64.428572 
L 196.608269 64.530664 
L 197.882823 64.634869 
L 199.157378 64.739524 
L 200.431932 64.842844 
L 201.706487 64.942828 
L 202.981042 65.037449 
L 204.255596 65.125435 
L 205.530151 65.205748 
L 206.804705 65.278049 
L 208.07926 65.342509 
L 209.353815 65.399739 
L 210.628369 65.450555 
L 211.902924 65.495932 
L 213.177478 65.536866 
L 214.452033 65.574106 
L 215.726587 65.608645 
L 217.001142 65.640892 
L 218.275697 65.671259 
L 219.550251 65.7002 
L 220.824806 65.727921 
L 222.09936 65.754444 
L 223.373915 65.780025 
L 224.64847 65.804783 
L 225.923024 65.828587 
L 227.197579 65.851567 
L 228.472133 65.873877 
L 229.746688 65.895339 
L 231.021243 65.916073 
L 232.295797 65.936049 
L 233.570352 65.955349 
L 234.844906 65.973784 
L 236.119461 65.99157 
L 237.394016 66.008571 
L 238.66857 66.024801 
L 239.943125 66.040292 
L 241.217679 66.055081 
L 242.492234 66.069069 
L 243.766788 66.08221 
L 245.041343 66.09452 
L 246.315898 66.105934 
L 247.590452 66.116441 
L 248.865007 66.126062 
L 250.139561 66.134917 
L 251.414116 66.142948 
L 252.688671 66.15016 
L 253.963225 66.156513 
L 255.23778 66.162092 
L 256.512334 66.16681 
L 257.786889 66.170753 
L 259.061444 66.17393 
L 260.335998 66.176469 
L 261.610553 66.178227 
L 262.885107 66.179406 
L 264.159662 66.179963 
L 265.434217 66.179902 
L 266.708771 66.179314 
L 267.983326 66.178273 
L 269.25788 66.176637 
L 270.532435 66.17446 
L 271.806989 66.172004 
L 273.081544 66.169079 
L 274.356099 66.165982 
L 275.630653 66.162565 
L 276.905208 66.159106 
L 278.179762 66.155297 
L 279.454317 66.151292 
L 280.728872 66.147029 
L 282.003426 66.142742 
L 283.277981 66.138162 
L 284.552535 66.133567 
L 285.82709 66.128953 
L 287.101645 66.124258 
L 288.376199 66.119514 
L 289.650754 66.114846 
L 290.925308 66.110087 
L 292.199863 66.105366 
L 293.474418 66.100683 
L 294.748972 66.096046 
L 296.023527 66.091424 
L 297.298081 66.08692 
L 298.572636 66.082473 
L 299.84719 66.078069 
L 301.121745 66.07374 
L 302.3963 66.069431 
L 303.670854 66.065129 
L 304.945409 66.060896 
L 306.219963 66.05672 
L 307.494518 66.052491 
L 308.769073 66.048422 
L 310.043627 66.044403 
L 311.318182 66.041173 
L 311.318182 59.003714 
L 311.318182 59.003714 
L 310.043627 58.97189 
L 308.769073 58.924064 
L 307.494518 58.943189 
L 306.219963 58.936458 
L 304.945409 58.920563 
L 303.670854 58.905607 
L 302.3963 58.89552 
L 301.121745 58.823921 
L 299.84719 58.568921 
L 298.572636 58.348559 
L 297.298081 58.139379 
L 296.023527 57.935976 
L 294.748972 57.71926 
L 293.474418 57.959719 
L 292.199863 57.935873 
L 290.925308 57.930225 
L 289.650754 58.135459 
L 288.376199 58.123762 
L 287.101645 57.900838 
L 285.82709 57.878132 
L 284.552535 57.827809 
L 283.277981 57.579006 
L 282.003426 57.555179 
L 280.728872 57.474996 
L 279.454317 57.466156 
L 278.179762 57.448377 
L 276.905208 57.46794 
L 275.630653 57.41007 
L 274.356099 57.608996 
L 273.081544 57.559965 
L 271.806989 57.520445 
L 270.532435 57.406245 
L 269.25788 57.391159 
L 267.983326 57.142058 
L 266.708771 57.122525 
L 265.434217 57.092536 
L 264.159662 57.092215 
L 262.885107 57.054072 
L 261.610553 57.032392 
L 260.335998 57.020696 
L 259.061444 56.986618 
L 257.786889 56.959005 
L 256.512334 56.957605 
L 255.23778 56.904032 
L 253.963225 56.947526 
L 252.688671 56.944128 
L 251.414116 56.901401 
L 250.139561 56.857141 
L 248.865007 56.918791 
L 247.590452 56.80252 
L 246.315898 56.766265 
L 245.041343 56.815715 
L 243.766788 56.875889 
L 242.492234 56.791461 
L 241.217679 56.804919 
L 239.943125 56.810463 
L 238.66857 56.73375 
L 237.394016 56.624222 
L 236.119461 56.667189 
L 234.844906 56.669847 
L 233.570352 56.60388 
L 232.295797 56.54948 
L 231.021243 56.524345 
L 229.746688 56.659619 
L 228.472133 56.560578 
L 227.197579 56.52947 
L 225.923024 56.596818 
L 224.64847 56.648766 
L 223.373915 56.389182 
L 222.09936 56.369935 
L 220.824806 56.368196 
L 219.550251 56.355623 
L 218.275697 56.388781 
L 217.001142 56.424137 
L 215.726587 56.468908 
L 214.452033 56.520185 
L 213.177478 56.485066 
L 211.902924 56.417337 
L 210.628369 56.358319 
L 209.353815 56.347725 
L 208.07926 56.321335 
L 206.804705 56.230272 
L 205.530151 56.224254 
L 204.255596 56.272297 
L 202.981042 56.246571 
L 201.706487 56.230977 
L 200.431932 56.290907 
L 199.157378 56.253595 
L 197.882823 56.231976 
L 196.608269 56.440268 
L 195.333714 56.339716 
L 194.059159 56.322056 
L 192.784605 56.312507 
L 191.51005 56.299682 
L 190.235496 56.008213 
L 188.960941 56.123382 
L 187.686386 56.162265 
L 186.411832 56.1838 
L 185.137277 56.167985 
L 183.862723 56.223236 
L 182.588168 56.129026 
L 181.313614 55.944218 
L 180.039059 55.667065 
L 178.764504 55.514726 
L 177.48995 55.347559 
L 176.215395 55.216805 
L 174.940841 55.166004 
L 173.666286 55.201989 
L 172.391731 55.111662 
L 171.117177 54.982001 
L 169.842622 54.822359 
L 168.568068 54.637311 
L 167.293513 54.441482 
L 166.018958 54.255819 
L 164.744404 54.094457 
L 163.469849 53.950618 
L 162.195295 53.818624 
L 160.92074 53.694733 
L 159.646185 53.576899 
L 158.371631 53.462039 
L 157.097076 53.35161 
L 155.822522 53.248263 
L 154.547967 53.119774 
L 153.273413 52.997191 
L 151.998858 52.882709 
L 150.724303 52.780197 
L 149.449749 52.687643 
L 148.175194 52.644794 
L 146.90064 52.63698 
L 145.626085 52.676336 
L 144.35153 52.763097 
L 143.076976 52.887476 
L 141.802421 53.025614 
L 140.527867 53.158394 
L 139.253312 53.279912 
L 137.978757 53.403211 
L 136.704203 53.556828 
L 135.429648 53.782388 
L 134.155094 54.068319 
L 132.880539 54.420351 
L 131.605984 54.854202 
L 130.33143 55.313142 
L 129.056875 55.190178 
L 127.782321 54.968482 
L 126.507766 54.794951 
L 125.233212 54.676304 
L 123.958657 54.556742 
L 122.684102 54.474625 
L 121.409548 54.386315 
L 120.134993 54.286904 
L 118.860439 54.178241 
L 117.585884 54.086639 
L 116.311329 53.971932 
L 115.036775 53.892397 
L 113.76222 53.832185 
L 112.487666 53.767458 
L 111.213111 53.72279 
L 109.938556 53.770005 
L 108.664002 53.434658 
L 107.389447 53.079781 
L 106.114893 52.816773 
L 104.840338 52.67396 
L 103.565783 52.645469 
L 102.291229 52.734858 
L 101.016674 52.964357 
L 99.74212 53.283333 
L 98.467565 53.750796 
L 97.193011 54.314537 
L 95.918456 54.83018 
L 94.643901 55.391674 
L 93.369347 55.947879 
L 92.094792 56.406106 
L 90.820238 56.898987 
L 89.545683 57.634535 
L 88.271128 58.534923 
L 86.996574 59.52131 
L 85.722019 60.76841 
L 84.447465 62.015792 
L 83.17291 63.202641 
L 81.898355 64.640917 
L 80.623801 66.401667 
L 79.349246 68.371924 
L 78.074692 70.773073 
L 76.800137 73.619571 
L 75.525582 75.993976 
L 74.251028 76.800646 
L 72.976473 77.478697 
L 71.701919 78.03068 
L 70.427364 77.536743 
L 69.15281 77.879385 
L 67.878255 75.882628 
L 66.6037 75.759679 
L 65.329146 74.129689 
L 64.054591 70.382963 
L 62.780037 67.320554 
L 61.505482 64.958757 
L 60.230927 62.064555 
L 58.956373 58.695416 
L 57.681818 55.655533 
z
" clip-path="url(#p0ca4690560)" style="fill: #ff0000; fill-opacity: 0.3"/>
   </g>
   <g id="PolyCollection_2">
    <path d="M 57.681818 161.43624 
L 57.681818 192.822722 
L 58.956373 206.583889 
L 60.230927 221.662313 
L 61.505482 236.147198 
L 62.780037 241.340716 
L 64.054591 246.025244 
L 65.329146 246.24 
L 66.6037 245.234751 
L 67.878255 243.74339 
L 69.15281 243.104398 
L 70.427364 241.265444 
L 71.701919 237.746135 
L 72.976473 232.487097 
L 74.251028 226.416931 
L 75.525582 219.869138 
L 76.800137 210.148202 
L 78.074692 198.427263 
L 79.349246 185.799278 
L 80.623801 172.43176 
L 81.898355 159.082642 
L 83.17291 149.561822 
L 84.447465 143.419892 
L 85.722019 139.731296 
L 86.996574 137.618043 
L 88.271128 136.188412 
L 89.545683 134.716565 
L 90.820238 132.948589 
L 92.094792 130.808237 
L 93.369347 128.246507 
L 94.643901 125.181573 
L 95.918456 121.398844 
L 97.193011 116.598216 
L 98.467565 110.546873 
L 99.74212 103.258922 
L 101.016674 95.080578 
L 102.291229 86.834814 
L 103.565783 79.573035 
L 104.840338 73.756778 
L 106.114893 69.346096 
L 107.389447 66.039342 
L 108.664002 63.263082 
L 109.938556 60.287896 
L 111.213111 57.043917 
L 112.487666 53.907266 
L 113.76222 51.137531 
L 115.036775 48.850372 
L 116.311329 48.843103 
L 117.585884 48.874634 
L 118.860439 48.793009 
L 120.134993 48.656991 
L 121.409548 48.445 
L 122.684102 48.198646 
L 123.958657 47.983433 
L 125.233212 48.372669 
L 126.507766 48.644586 
L 127.782321 48.929964 
L 129.056875 49.060612 
L 130.33143 48.957529 
L 131.605984 48.728121 
L 132.880539 48.726806 
L 134.155094 48.687988 
L 135.429648 48.515826 
L 136.704203 48.253679 
L 137.978757 48.172069 
L 139.253312 48.200972 
L 140.527867 48.23246 
L 141.802421 48.26454 
L 143.076976 48.295845 
L 144.35153 48.326064 
L 145.626085 48.355424 
L 146.90064 48.383816 
L 148.175194 48.419804 
L 149.449749 48.46469 
L 150.724303 48.50228 
L 151.998858 48.534169 
L 153.273413 48.565543 
L 154.547967 48.593172 
L 155.822522 48.631296 
L 157.097076 48.682977 
L 158.371631 48.736656 
L 159.646185 48.797101 
L 160.92074 48.863128 
L 162.195295 48.935723 
L 163.469849 49.011673 
L 164.744404 49.096097 
L 166.018958 49.189155 
L 167.293513 49.287129 
L 168.568068 49.390983 
L 169.842622 49.502106 
L 171.117177 49.619898 
L 172.391731 49.745661 
L 173.666286 49.882358 
L 174.940841 50.025171 
L 176.215395 50.176862 
L 177.48995 50.339124 
L 178.764504 50.508045 
L 180.039059 50.685199 
L 181.313614 50.874149 
L 182.588168 51.072693 
L 183.862723 51.280088 
L 185.137277 51.49889 
L 186.411832 51.725708 
L 187.686386 51.960031 
L 188.960941 52.198659 
L 190.235496 52.435636 
L 191.51005 52.661821 
L 192.784605 52.86649 
L 194.059159 53.037954 
L 195.333714 53.164537 
L 196.608269 53.244484 
L 197.882823 53.279553 
L 199.157378 53.280694 
L 200.431932 53.257832 
L 201.706487 53.226229 
L 202.981042 53.193448 
L 204.255596 53.166105 
L 205.530151 53.145843 
L 206.804705 53.133716 
L 208.07926 53.126913 
L 209.353815 53.124335 
L 210.628369 53.124636 
L 211.902924 53.125845 
L 213.177478 53.127714 
L 214.452033 53.131272 
L 215.726587 53.135226 
L 217.001142 53.139997 
L 218.275697 53.145618 
L 219.550251 53.152067 
L 220.824806 53.158783 
L 222.09936 53.16604 
L 223.373915 53.17359 
L 224.64847 53.181389 
L 225.923024 53.189211 
L 227.197579 53.196251 
L 228.472133 53.203885 
L 229.746688 53.211284 
L 231.021243 53.218148 
L 232.295797 53.225169 
L 233.570352 53.23262 
L 234.844906 53.239538 
L 236.119461 53.246235 
L 237.394016 53.253408 
L 238.66857 53.260005 
L 239.943125 53.266538 
L 241.217679 53.272937 
L 242.492234 53.279447 
L 243.766788 53.285091 
L 245.041343 53.291566 
L 246.315898 53.298007 
L 247.590452 53.304403 
L 248.865007 53.310992 
L 250.139561 53.317963 
L 251.414116 53.326388 
L 252.688671 53.34242 
L 253.963225 53.35833 
L 255.23778 53.375468 
L 256.512334 53.391027 
L 257.786889 53.406766 
L 259.061444 53.423358 
L 260.335998 53.439379 
L 261.610553 53.453542 
L 262.885107 53.469105 
L 264.159662 53.484558 
L 265.434217 53.498824 
L 266.708771 53.513983 
L 267.983326 53.5296 
L 269.25788 53.545144 
L 270.532435 53.560924 
L 271.806989 53.577021 
L 273.081544 53.592016 
L 274.356099 53.60849 
L 275.630653 53.624705 
L 276.905208 53.653105 
L 278.179762 53.685436 
L 279.454317 53.720936 
L 280.728872 53.761882 
L 282.003426 53.808938 
L 283.277981 53.862777 
L 284.552535 53.9239 
L 285.82709 53.99108 
L 287.101645 54.063941 
L 288.376199 54.142218 
L 289.650754 54.226535 
L 290.925308 54.316596 
L 292.199863 54.411503 
L 293.474418 54.512608 
L 294.748972 54.619486 
L 296.023527 54.73194 
L 297.298081 54.850137 
L 298.572636 54.973364 
L 299.84719 55.103821 
L 301.121745 55.241627 
L 302.3963 55.384272 
L 303.670854 55.533264 
L 304.945409 55.692605 
L 306.219963 55.852994 
L 307.494518 56.018956 
L 308.769073 56.190291 
L 310.043627 56.365172 
L 311.318182 56.504293 
L 311.318182 53.336928 
L 311.318182 53.336928 
L 310.043627 53.330933 
L 308.769073 53.323062 
L 307.494518 53.315771 
L 306.219963 53.307922 
L 304.945409 53.3006 
L 303.670854 53.293 
L 302.3963 53.285255 
L 301.121745 53.277643 
L 299.84719 53.270458 
L 298.572636 53.252588 
L 297.298081 53.234893 
L 296.023527 53.217107 
L 294.748972 53.199153 
L 293.474418 53.181587 
L 292.199863 53.164278 
L 290.925308 53.146716 
L 289.650754 53.12922 
L 288.376199 53.112509 
L 287.101645 53.09608 
L 285.82709 53.079686 
L 284.552535 53.063562 
L 283.277981 53.047976 
L 282.003426 53.032158 
L 280.728872 53.016351 
L 279.454317 53.000601 
L 278.179762 52.985133 
L 276.905208 52.96949 
L 275.630653 52.953359 
L 274.356099 52.93725 
L 273.081544 52.920822 
L 271.806989 52.904011 
L 270.532435 52.887075 
L 269.25788 52.870361 
L 267.983326 52.852574 
L 266.708771 52.834189 
L 265.434217 52.814481 
L 264.159662 52.793392 
L 262.885107 52.771251 
L 261.610553 52.748678 
L 260.335998 52.724684 
L 259.061444 52.700952 
L 257.786889 52.676816 
L 256.512334 52.651799 
L 255.23778 52.625612 
L 253.963225 52.599466 
L 252.688671 52.571631 
L 251.414116 52.542743 
L 250.139561 52.513463 
L 248.865007 52.483443 
L 247.590452 52.451611 
L 246.315898 52.419654 
L 245.041343 52.388928 
L 243.766788 52.356212 
L 242.492234 52.323724 
L 241.217679 52.292133 
L 239.943125 52.25987 
L 238.66857 52.226864 
L 237.394016 52.196276 
L 236.119461 52.166351 
L 234.844906 52.137635 
L 233.570352 52.111222 
L 232.295797 52.085523 
L 231.021243 52.062729 
L 229.746688 52.03986 
L 228.472133 52.016841 
L 227.197579 51.993087 
L 225.923024 51.96908 
L 224.64847 51.941669 
L 223.373915 51.911679 
L 222.09936 51.877792 
L 220.824806 51.839058 
L 219.550251 51.7932 
L 218.275697 51.738239 
L 217.001142 51.675758 
L 215.726587 51.590579 
L 214.452033 51.401523 
L 213.177478 51.190909 
L 211.902924 50.982503 
L 210.628369 50.779435 
L 209.353815 50.584255 
L 208.07926 50.399779 
L 206.804705 50.226385 
L 205.530151 50.065026 
L 204.255596 49.913568 
L 202.981042 49.772451 
L 201.706487 49.641643 
L 200.431932 49.520148 
L 199.157378 49.406497 
L 197.882823 49.302189 
L 196.608269 49.204974 
L 195.333714 49.115676 
L 194.059159 49.031446 
L 192.784605 48.952907 
L 191.51005 48.879458 
L 190.235496 48.811398 
L 188.960941 48.746148 
L 187.686386 48.687976 
L 186.411832 48.632108 
L 185.137277 48.578921 
L 183.862723 48.530168 
L 182.588168 48.485138 
L 181.313614 48.443563 
L 180.039059 48.405969 
L 178.764504 48.37289 
L 177.48995 48.34284 
L 176.215395 48.316911 
L 174.940841 48.294034 
L 173.666286 48.276812 
L 172.391731 48.265631 
L 171.117177 48.258808 
L 169.842622 48.256135 
L 168.568068 48.235938 
L 167.293513 48.211799 
L 166.018958 48.191713 
L 164.744404 48.172062 
L 163.469849 48.154268 
L 162.195295 48.141691 
L 160.92074 48.107216 
L 159.646185 48.039915 
L 158.371631 47.964334 
L 157.097076 47.889242 
L 155.822522 47.818242 
L 154.547967 47.75639 
L 153.273413 47.701162 
L 151.998858 47.657078 
L 150.724303 47.619957 
L 149.449749 47.588434 
L 148.175194 47.557605 
L 146.90064 47.523859 
L 145.626085 47.452279 
L 144.35153 47.380409 
L 143.076976 47.351384 
L 141.802421 47.330192 
L 140.527867 47.27808 
L 139.253312 47.243865 
L 137.978757 47.253815 
L 136.704203 47.201962 
L 135.429648 47.145224 
L 134.155094 47.104267 
L 132.880539 47.073377 
L 131.605984 47.049177 
L 130.33143 47.037675 
L 129.056875 47.059431 
L 127.782321 47.141514 
L 126.507766 46.957564 
L 125.233212 46.451385 
L 123.958657 45.997219 
L 122.684102 45.637839 
L 121.409548 45.421348 
L 120.134993 45.39664 
L 118.860439 45.339395 
L 117.585884 45.161044 
L 116.311329 45.228113 
L 115.036775 45.494412 
L 113.76222 45.816153 
L 112.487666 46.320646 
L 111.213111 45.833638 
L 109.938556 45.416982 
L 108.664002 45.092331 
L 107.389447 44.869525 
L 106.114893 44.762079 
L 104.840338 44.757057 
L 103.565783 44.670684 
L 102.291229 44.734122 
L 101.016674 44.81103 
L 99.74212 44.759676 
L 98.467565 44.64 
L 97.193011 44.686624 
L 95.918456 44.945178 
L 94.643901 45.46779 
L 93.369347 46.316611 
L 92.094792 47.607566 
L 90.820238 49.44311 
L 89.545683 51.831251 
L 88.271128 54.656428 
L 86.996574 57.812585 
L 85.722019 61.073329 
L 84.447465 64.442049 
L 83.17291 68.228283 
L 81.898355 72.94806 
L 80.623801 79.409915 
L 79.349246 87.129662 
L 78.074692 95.48087 
L 76.800137 103.487216 
L 75.525582 110.993713 
L 74.251028 120.125568 
L 72.976473 133.066477 
L 71.701919 148.914149 
L 70.427364 167.748288 
L 69.15281 188.82547 
L 67.878255 208.251088 
L 66.6037 213.690449 
L 65.329146 216.369323 
L 64.054591 220.326145 
L 62.780037 215.578922 
L 61.505482 201.764865 
L 60.230927 187.080978 
L 58.956373 173.245817 
L 57.681818 161.43624 
z
" clip-path="url(#p0ca4690560)" style="fill: #0000ff; fill-opacity: 0.3"/>
   </g>
   <g id="PolyCollection_3">
    <path d="M 57.681818 77.669412 
L 57.681818 106.518796 
L 58.956373 109.208588 
L 60.230927 119.090696 
L 61.505482 129.395747 
L 62.780037 137.815675 
L 64.054591 140.608097 
L 65.329146 148.046016 
L 66.6037 151.009796 
L 67.878255 151.99309 
L 69.15281 149.981875 
L 70.427364 151.449775 
L 71.701919 159.519132 
L 72.976473 154.269002 
L 74.251028 149.471761 
L 75.525582 145.251615 
L 76.800137 137.887297 
L 78.074692 139.942692 
L 79.349246 141.104418 
L 80.623801 142.603959 
L 81.898355 142.800032 
L 83.17291 144.52681 
L 84.447465 144.899835 
L 85.722019 146.930442 
L 86.996574 148.777056 
L 88.271128 150.906521 
L 89.545683 151.374793 
L 90.820238 152.983527 
L 92.094792 152.97405 
L 93.369347 153.501821 
L 94.643901 153.706029 
L 95.918456 153.866571 
L 97.193011 149.01697 
L 98.467565 145.884739 
L 99.74212 145.351514 
L 101.016674 144.810526 
L 102.291229 144.243891 
L 103.565783 143.33101 
L 104.840338 141.31753 
L 106.114893 138.474743 
L 107.389447 134.015186 
L 108.664002 128.769606 
L 109.938556 123.689385 
L 111.213111 119.196144 
L 112.487666 115.037018 
L 113.76222 113.099553 
L 115.036775 112.255888 
L 116.311329 113.693116 
L 117.585884 116.994348 
L 118.860439 120.733908 
L 120.134993 123.3467 
L 121.409548 127.382847 
L 122.684102 128.671835 
L 123.958657 128.957633 
L 125.233212 128.217082 
L 126.507766 126.204361 
L 127.782321 123.099789 
L 129.056875 124.231323 
L 130.33143 120.362263 
L 131.605984 121.088376 
L 132.880539 122.628051 
L 134.155094 123.306773 
L 135.429648 122.959893 
L 136.704203 123.370299 
L 137.978757 123.427258 
L 139.253312 118.543323 
L 140.527867 118.316955 
L 141.802421 119.091283 
L 143.076976 115.941963 
L 144.35153 116.357029 
L 145.626085 117.961549 
L 146.90064 122.955725 
L 148.175194 125.310219 
L 149.449749 125.834089 
L 150.724303 125.370321 
L 151.998858 124.684864 
L 153.273413 122.082036 
L 154.547967 123.177799 
L 155.822522 125.315162 
L 157.097076 128.195226 
L 158.371631 132.106052 
L 159.646185 134.001358 
L 160.92074 134.098394 
L 162.195295 132.634079 
L 163.469849 130.08069 
L 164.744404 125.665088 
L 166.018958 128.747328 
L 167.293513 129.825297 
L 168.568068 128.52845 
L 169.842622 130.641524 
L 171.117177 131.308062 
L 172.391731 131.702874 
L 173.666286 131.462236 
L 174.940841 129.872604 
L 176.215395 127.813266 
L 177.48995 125.652103 
L 178.764504 123.285508 
L 180.039059 120.483289 
L 181.313614 121.198523 
L 182.588168 121.396792 
L 183.862723 118.464204 
L 185.137277 120.141997 
L 186.411832 119.425238 
L 187.686386 121.254532 
L 188.960941 123.307101 
L 190.235496 124.734009 
L 191.51005 126.181727 
L 192.784605 121.4494 
L 194.059159 119.899597 
L 195.333714 120.327892 
L 196.608269 120.713074 
L 197.882823 121.942407 
L 199.157378 121.121443 
L 200.431932 122.373958 
L 201.706487 125.636185 
L 202.981042 127.893995 
L 204.255596 128.846941 
L 205.530151 129.029293 
L 206.804705 128.58915 
L 208.07926 128.250698 
L 209.353815 124.744736 
L 210.628369 124.934441 
L 211.902924 124.740469 
L 213.177478 126.045809 
L 214.452033 129.842126 
L 215.726587 131.821627 
L 217.001142 131.729427 
L 218.275697 131.462068 
L 219.550251 128.505145 
L 220.824806 129.006831 
L 222.09936 127.469605 
L 223.373915 125.740596 
L 224.64847 127.67117 
L 225.923024 131.546789 
L 227.197579 131.810846 
L 228.472133 132.160552 
L 229.746688 134.680878 
L 231.021243 135.335128 
L 232.295797 135.448368 
L 233.570352 135.118596 
L 234.844906 134.735911 
L 236.119461 133.824284 
L 237.394016 132.300101 
L 238.66857 133.6111 
L 239.943125 133.5535 
L 241.217679 135.003854 
L 242.492234 137.40837 
L 243.766788 139.663499 
L 245.041343 139.063683 
L 246.315898 140.954065 
L 247.590452 142.169669 
L 248.865007 141.324917 
L 250.139561 141.007295 
L 251.414116 141.184834 
L 252.688671 140.024981 
L 253.963225 138.806429 
L 255.23778 138.718931 
L 256.512334 138.533757 
L 257.786889 138.941547 
L 259.061444 140.021838 
L 260.335998 140.378751 
L 261.610553 139.995124 
L 262.885107 139.833529 
L 264.159662 137.572452 
L 265.434217 137.826018 
L 266.708771 136.173752 
L 267.983326 135.794568 
L 269.25788 136.68262 
L 270.532435 136.187344 
L 271.806989 136.222707 
L 273.081544 137.975669 
L 274.356099 136.91666 
L 275.630653 135.794454 
L 276.905208 135.151182 
L 278.179762 129.814291 
L 279.454317 130.015692 
L 280.728872 131.435949 
L 282.003426 130.305357 
L 283.277981 130.883542 
L 284.552535 130.699429 
L 285.82709 130.075995 
L 287.101645 131.835467 
L 288.376199 133.767463 
L 289.650754 134.046415 
L 290.925308 133.785573 
L 292.199863 136.828308 
L 293.474418 131.824125 
L 294.748972 131.706073 
L 296.023527 131.343764 
L 297.298081 132.069835 
L 298.572636 129.011938 
L 299.84719 127.761966 
L 301.121745 129.316254 
L 302.3963 129.6199 
L 303.670854 129.7948 
L 304.945409 129.459106 
L 306.219963 129.26598 
L 307.494518 130.763172 
L 308.769073 131.414193 
L 310.043627 132.861625 
L 311.318182 132.916185 
L 311.318182 110.642033 
L 311.318182 110.642033 
L 310.043627 110.359156 
L 308.769073 110.457618 
L 307.494518 110.294924 
L 306.219963 110.557986 
L 304.945409 110.814366 
L 303.670854 110.571269 
L 302.3963 110.086148 
L 301.121745 109.686337 
L 299.84719 109.192609 
L 298.572636 108.495651 
L 297.298081 106.863102 
L 296.023527 103.881463 
L 294.748972 103.966532 
L 293.474418 106.610702 
L 292.199863 108.729959 
L 290.925308 111.779043 
L 289.650754 111.56693 
L 288.376199 112.165084 
L 287.101645 111.73465 
L 285.82709 110.385744 
L 284.552535 112.325287 
L 283.277981 113.206554 
L 282.003426 113.60251 
L 280.728872 114.773079 
L 279.454317 116.429006 
L 278.179762 115.007635 
L 276.905208 114.885289 
L 275.630653 114.856172 
L 274.356099 110.549825 
L 273.081544 110.766518 
L 271.806989 110.84259 
L 270.532435 112.925416 
L 269.25788 112.351898 
L 267.983326 111.505151 
L 266.708771 112.438572 
L 265.434217 112.853729 
L 264.159662 113.609855 
L 262.885107 113.40379 
L 261.610553 110.502247 
L 260.335998 103.160918 
L 259.061444 105.35543 
L 257.786889 104.88852 
L 256.512334 106.894167 
L 255.23778 108.720627 
L 253.963225 110.384009 
L 252.688671 110.739472 
L 251.414116 109.576926 
L 250.139561 110.458033 
L 248.865007 108.768616 
L 247.590452 108.314088 
L 246.315898 108.989683 
L 245.041343 110.515408 
L 243.766788 110.910635 
L 242.492234 110.612474 
L 241.217679 108.875826 
L 239.943125 110.3873 
L 238.66857 112.397279 
L 237.394016 112.994113 
L 236.119461 110.909011 
L 234.844906 109.87759 
L 233.570352 108.241143 
L 232.295797 105.892994 
L 231.021243 107.159444 
L 229.746688 106.363959 
L 228.472133 108.281891 
L 227.197579 109.223949 
L 225.923024 109.430406 
L 224.64847 109.194379 
L 223.373915 108.550066 
L 222.09936 109.088527 
L 220.824806 109.287544 
L 219.550251 109.360699 
L 218.275697 108.370979 
L 217.001142 108.14098 
L 215.726587 106.303957 
L 214.452033 107.307127 
L 213.177478 106.19524 
L 211.902924 105.604378 
L 210.628369 104.97749 
L 209.353815 104.094285 
L 208.07926 103.685817 
L 206.804705 104.139796 
L 205.530151 103.903628 
L 204.255596 104.488056 
L 202.981042 105.166054 
L 201.706487 105.384642 
L 200.431932 105.253922 
L 199.157378 105.004322 
L 197.882823 104.709463 
L 196.608269 103.611346 
L 195.333714 102.303657 
L 194.059159 96.950379 
L 192.784605 93.403452 
L 191.51005 90.961346 
L 190.235496 89.335604 
L 188.960941 84.286051 
L 187.686386 88.848729 
L 186.411832 92.450964 
L 185.137277 95.911491 
L 183.862723 101.350856 
L 182.588168 101.892672 
L 181.313614 102.13606 
L 180.039059 102.246721 
L 178.764504 102.889512 
L 177.48995 102.633597 
L 176.215395 102.157099 
L 174.940841 100.938105 
L 173.666286 96.795824 
L 172.391731 94.432513 
L 171.117177 90.8331 
L 169.842622 86.307612 
L 168.568068 82.71964 
L 167.293513 85.217847 
L 166.018958 87.418175 
L 164.744404 91.816906 
L 163.469849 90.485649 
L 162.195295 88.578395 
L 160.92074 87.733551 
L 159.646185 89.0801 
L 158.371631 92.212835 
L 157.097076 92.269794 
L 155.822522 91.051307 
L 154.547967 89.877233 
L 153.273413 89.593342 
L 151.998858 89.632171 
L 150.724303 88.935388 
L 149.449749 88.067205 
L 148.175194 87.719716 
L 146.90064 87.212931 
L 145.626085 87.471298 
L 144.35153 86.695018 
L 143.076976 86.413472 
L 141.802421 87.140161 
L 140.527867 85.198478 
L 139.253312 85.751335 
L 137.978757 84.544311 
L 136.704203 83.400555 
L 135.429648 81.084162 
L 134.155094 80.023285 
L 132.880539 79.497767 
L 131.605984 78.72958 
L 130.33143 78.471758 
L 129.056875 80.037982 
L 127.782321 78.615913 
L 126.507766 77.125224 
L 125.233212 76.321231 
L 123.958657 77.490015 
L 122.684102 79.293087 
L 121.409548 81.69162 
L 120.134993 82.947834 
L 118.860439 84.356456 
L 117.585884 85.17512 
L 116.311329 85.387683 
L 115.036775 85.388846 
L 113.76222 85.336707 
L 112.487666 85.660431 
L 111.213111 86.217109 
L 109.938556 87.185729 
L 108.664002 89.237489 
L 107.389447 88.123863 
L 106.114893 91.669726 
L 104.840338 93.69764 
L 103.565783 98.370979 
L 102.291229 99.108346 
L 101.016674 99.518733 
L 99.74212 100.101125 
L 98.467565 101.291235 
L 97.193011 103.801707 
L 95.918456 104.186066 
L 94.643901 103.305382 
L 93.369347 104.146886 
L 92.094792 106.852637 
L 90.820238 107.343787 
L 89.545683 106.175848 
L 88.271128 108.41882 
L 86.996574 110.990781 
L 85.722019 111.458119 
L 84.447465 111.639494 
L 83.17291 110.06829 
L 81.898355 105.025105 
L 80.623801 99.531844 
L 79.349246 92.414258 
L 78.074692 98.566397 
L 76.800137 106.631151 
L 75.525582 114.475513 
L 74.251028 113.750883 
L 72.976473 110.901437 
L 71.701919 112.551369 
L 70.427364 114.521904 
L 69.15281 114.944875 
L 67.878255 115.636445 
L 66.6037 116.44953 
L 65.329146 116.205692 
L 64.054591 109.996481 
L 62.780037 106.678164 
L 61.505482 101.935517 
L 60.230927 93.603503 
L 58.956373 84.906498 
L 57.681818 77.669412 
z
" clip-path="url(#p0ca4690560)" style="fill: #008000; fill-opacity: 0.3"/>
   </g>
   <g id="matplotlib.axis_1">
    <g id="xtick_1">
     <g id="line2d_1">
      <defs>
       <path id="mdafb0b8467" d="M 0 0 
L 0 3.5 
" style="stroke: #000000; stroke-width: 0.8"/>
      </defs>
      <g>
       <use xlink:href="#mdafb0b8467" x="57.681818" y="256.32" style="stroke: #000000; stroke-width: 0.8"/>
      </g>
     </g>
     <g id="text_1">
      <!-- 0 -->
      <g transform="translate(55.181818 270.26375)scale(0.1 -0.1)">
       <defs>
        <path id="TimesNewRomanPSMT-30" d="M 231 2094 
Q 231 2819 450 3342 
Q 669 3866 1031 4122 
Q 1313 4325 1613 4325 
Q 2100 4325 2488 3828 
Q 2972 3213 2972 2159 
Q 2972 1422 2759 906 
Q 2547 391 2217 158 
Q 1888 -75 1581 -75 
Q 975 -75 572 641 
Q 231 1244 231 2094 
z
M 844 2016 
Q 844 1141 1059 588 
Q 1238 122 1591 122 
Q 1759 122 1940 273 
Q 2122 425 2216 781 
Q 2359 1319 2359 2297 
Q 2359 3022 2209 3506 
Q 2097 3866 1919 4016 
Q 1791 4119 1609 4119 
Q 1397 4119 1231 3928 
Q 1006 3669 925 3112 
Q 844 2556 844 2016 
z
" transform="scale(0.015625)"/>
       </defs>
       <use xlink:href="#TimesNewRomanPSMT-30"/>
      </g>
     </g>
    </g>
    <g id="xtick_2">
     <g id="line2d_2">
      <g>
       <use xlink:href="#mdafb0b8467" x="121.409548" y="256.32" style="stroke: #000000; stroke-width: 0.8"/>
      </g>
     </g>
     <g id="text_2">
      <!-- 50 -->
      <g transform="translate(116.409548 270.26375)scale(0.1 -0.1)">
       <defs>
        <path id="TimesNewRomanPSMT-35" d="M 2778 4238 
L 2534 3706 
L 1259 3706 
L 981 3138 
Q 1809 3016 2294 2522 
Q 2709 2097 2709 1522 
Q 2709 1188 2573 903 
Q 2438 619 2231 419 
Q 2025 219 1772 97 
Q 1413 -75 1034 -75 
Q 653 -75 479 54 
Q 306 184 306 341 
Q 306 428 378 495 
Q 450 563 559 563 
Q 641 563 702 538 
Q 763 513 909 409 
Q 1144 247 1384 247 
Q 1750 247 2026 523 
Q 2303 800 2303 1197 
Q 2303 1581 2056 1914 
Q 1809 2247 1375 2428 
Q 1034 2569 447 2591 
L 1259 4238 
L 2778 4238 
z
" transform="scale(0.015625)"/>
       </defs>
       <use xlink:href="#TimesNewRomanPSMT-35"/>
       <use xlink:href="#TimesNewRomanPSMT-30" x="50"/>
      </g>
     </g>
    </g>
    <g id="xtick_3">
     <g id="line2d_3">
      <g>
       <use xlink:href="#mdafb0b8467" x="185.137277" y="256.32" style="stroke: #000000; stroke-width: 0.8"/>
      </g>
     </g>
     <g id="text_3">
      <!-- 100 -->
      <g transform="translate(177.637277 270.26375)scale(0.1 -0.1)">
       <defs>
        <path id="TimesNewRomanPSMT-31" d="M 750 3822 
L 1781 4325 
L 1884 4325 
L 1884 747 
Q 1884 391 1914 303 
Q 1944 216 2037 169 
Q 2131 122 2419 116 
L 2419 0 
L 825 0 
L 825 116 
Q 1125 122 1212 167 
Q 1300 213 1334 289 
Q 1369 366 1369 747 
L 1369 3034 
Q 1369 3497 1338 3628 
Q 1316 3728 1258 3775 
Q 1200 3822 1119 3822 
Q 1003 3822 797 3725 
L 750 3822 
z
" transform="scale(0.015625)"/>
       </defs>
       <use xlink:href="#TimesNewRomanPSMT-31"/>
       <use xlink:href="#TimesNewRomanPSMT-30" x="50"/>
       <use xlink:href="#TimesNewRomanPSMT-30" x="100"/>
      </g>
     </g>
    </g>
    <g id="xtick_4">
     <g id="line2d_4">
      <g>
       <use xlink:href="#mdafb0b8467" x="248.865007" y="256.32" style="stroke: #000000; stroke-width: 0.8"/>
      </g>
     </g>
     <g id="text_4">
      <!-- 150 -->
      <g transform="translate(241.365007 270.26375)scale(0.1 -0.1)">
       <use xlink:href="#TimesNewRomanPSMT-31"/>
       <use xlink:href="#TimesNewRomanPSMT-35" x="50"/>
       <use xlink:href="#TimesNewRomanPSMT-30" x="100"/>
      </g>
     </g>
    </g>
    <g id="xtick_5">
     <g id="line2d_5">
      <g>
       <use xlink:href="#mdafb0b8467" x="312.592736" y="256.32" style="stroke: #000000; stroke-width: 0.8"/>
      </g>
     </g>
     <g id="text_5">
      <!-- 200k -->
      <g transform="translate(302.592736 270.26375)scale(0.1 -0.1)">
       <defs>
        <path id="TimesNewRomanPSMT-32" d="M 2934 816 
L 2638 0 
L 138 0 
L 138 116 
Q 1241 1122 1691 1759 
Q 2141 2397 2141 2925 
Q 2141 3328 1894 3587 
Q 1647 3847 1303 3847 
Q 991 3847 742 3664 
Q 494 3481 375 3128 
L 259 3128 
Q 338 3706 661 4015 
Q 984 4325 1469 4325 
Q 1984 4325 2329 3994 
Q 2675 3663 2675 3213 
Q 2675 2891 2525 2569 
Q 2294 2063 1775 1497 
Q 997 647 803 472 
L 1909 472 
Q 2247 472 2383 497 
Q 2519 522 2628 598 
Q 2738 675 2819 816 
L 2934 816 
z
" transform="scale(0.015625)"/>
        <path id="TimesNewRomanPSMT-6b" d="M 1047 4444 
L 1047 1597 
L 1775 2259 
Q 2006 2472 2044 2528 
Q 2069 2566 2069 2603 
Q 2069 2666 2017 2711 
Q 1966 2756 1847 2763 
L 1847 2863 
L 3091 2863 
L 3091 2763 
Q 2834 2756 2664 2684 
Q 2494 2613 2291 2428 
L 1556 1750 
L 2291 822 
Q 2597 438 2703 334 
Q 2853 188 2966 144 
Q 3044 113 3238 113 
L 3238 0 
L 1847 0 
L 1847 113 
Q 1966 116 2008 148 
Q 2050 181 2050 241 
Q 2050 313 1925 472 
L 1047 1594 
L 1047 644 
Q 1047 366 1086 278 
Q 1125 191 1197 153 
Q 1269 116 1509 113 
L 1509 0 
L 53 0 
L 53 113 
Q 272 113 381 166 
Q 447 200 481 272 
Q 528 375 528 628 
L 528 3234 
Q 528 3731 506 3842 
Q 484 3953 434 3995 
Q 384 4038 303 4038 
Q 238 4038 106 3984 
L 53 4094 
L 903 4444 
L 1047 4444 
z
" transform="scale(0.015625)"/>
       </defs>
       <use xlink:href="#TimesNewRomanPSMT-32"/>
       <use xlink:href="#TimesNewRomanPSMT-30" x="50"/>
       <use xlink:href="#TimesNewRomanPSMT-30" x="100"/>
       <use xlink:href="#TimesNewRomanPSMT-6b" x="150"/>
      </g>
     </g>
    </g>
    <g id="text_6">
     <!-- Epochs -->
     <g transform="translate(169.780469 283.346563)scale(0.1 -0.1)">
      <defs>
       <path id="TimesNewRomanPSMT-45" d="M 1338 4006 
L 1338 2331 
L 2269 2331 
Q 2631 2331 2753 2441 
Q 2916 2584 2934 2947 
L 3050 2947 
L 3050 1472 
L 2934 1472 
Q 2891 1781 2847 1869 
Q 2791 1978 2662 2040 
Q 2534 2103 2269 2103 
L 1338 2103 
L 1338 706 
Q 1338 425 1363 364 
Q 1388 303 1450 267 
Q 1513 231 1688 231 
L 2406 231 
Q 2766 231 2928 281 
Q 3091 331 3241 478 
Q 3434 672 3638 1063 
L 3763 1063 
L 3397 0 
L 131 0 
L 131 116 
L 281 116 
Q 431 116 566 188 
Q 666 238 702 338 
Q 738 438 738 747 
L 738 3500 
Q 738 3903 656 3997 
Q 544 4122 281 4122 
L 131 4122 
L 131 4238 
L 3397 4238 
L 3444 3309 
L 3322 3309 
Q 3256 3644 3176 3769 
Q 3097 3894 2941 3959 
Q 2816 4006 2500 4006 
L 1338 4006 
z
" transform="scale(0.015625)"/>
       <path id="TimesNewRomanPSMT-70" d="M -6 2578 
L 875 2934 
L 994 2934 
L 994 2266 
Q 1216 2644 1439 2795 
Q 1663 2947 1909 2947 
Q 2341 2947 2628 2609 
Q 2981 2197 2981 1534 
Q 2981 794 2556 309 
Q 2206 -88 1675 -88 
Q 1444 -88 1275 -22 
Q 1150 25 994 166 
L 994 -706 
Q 994 -1000 1030 -1079 
Q 1066 -1159 1155 -1206 
Q 1244 -1253 1478 -1253 
L 1478 -1369 
L -22 -1369 
L -22 -1253 
L 56 -1253 
Q 228 -1256 350 -1188 
Q 409 -1153 442 -1076 
Q 475 -1000 475 -688 
L 475 2019 
Q 475 2297 450 2372 
Q 425 2447 370 2484 
Q 316 2522 222 2522 
Q 147 2522 31 2478 
L -6 2578 
z
M 994 2081 
L 994 1013 
Q 994 666 1022 556 
Q 1066 375 1236 237 
Q 1406 100 1666 100 
Q 1978 100 2172 344 
Q 2425 663 2425 1241 
Q 2425 1897 2138 2250 
Q 1938 2494 1663 2494 
Q 1513 2494 1366 2419 
Q 1253 2363 994 2081 
z
" transform="scale(0.015625)"/>
       <path id="TimesNewRomanPSMT-6f" d="M 1600 2947 
Q 2250 2947 2644 2453 
Q 2978 2031 2978 1484 
Q 2978 1100 2793 706 
Q 2609 313 2286 112 
Q 1963 -88 1566 -88 
Q 919 -88 538 428 
Q 216 863 216 1403 
Q 216 1797 411 2186 
Q 606 2575 925 2761 
Q 1244 2947 1600 2947 
z
M 1503 2744 
Q 1338 2744 1170 2645 
Q 1003 2547 900 2300 
Q 797 2053 797 1666 
Q 797 1041 1045 587 
Q 1294 134 1700 134 
Q 2003 134 2200 384 
Q 2397 634 2397 1244 
Q 2397 2006 2069 2444 
Q 1847 2744 1503 2744 
z
" transform="scale(0.015625)"/>
       <path id="TimesNewRomanPSMT-63" d="M 2631 1088 
Q 2516 522 2178 217 
Q 1841 -88 1431 -88 
Q 944 -88 581 321 
Q 219 731 219 1428 
Q 219 2103 620 2525 
Q 1022 2947 1584 2947 
Q 2006 2947 2278 2723 
Q 2550 2500 2550 2259 
Q 2550 2141 2473 2067 
Q 2397 1994 2259 1994 
Q 2075 1994 1981 2113 
Q 1928 2178 1911 2362 
Q 1894 2547 1784 2644 
Q 1675 2738 1481 2738 
Q 1169 2738 978 2506 
Q 725 2200 725 1697 
Q 725 1184 976 792 
Q 1228 400 1656 400 
Q 1963 400 2206 609 
Q 2378 753 2541 1131 
L 2631 1088 
z
" transform="scale(0.015625)"/>
       <path id="TimesNewRomanPSMT-68" d="M 1041 4444 
L 1041 2350 
Q 1388 2731 1591 2839 
Q 1794 2947 1997 2947 
Q 2241 2947 2416 2812 
Q 2591 2678 2675 2391 
Q 2734 2191 2734 1659 
L 2734 647 
Q 2734 375 2778 275 
Q 2809 200 2884 156 
Q 2959 113 3159 113 
L 3159 0 
L 1753 0 
L 1753 113 
L 1819 113 
Q 2019 113 2097 173 
Q 2175 234 2206 353 
Q 2216 403 2216 647 
L 2216 1659 
Q 2216 2128 2167 2275 
Q 2119 2422 2012 2495 
Q 1906 2569 1756 2569 
Q 1603 2569 1437 2487 
Q 1272 2406 1041 2159 
L 1041 647 
Q 1041 353 1073 281 
Q 1106 209 1195 161 
Q 1284 113 1503 113 
L 1503 0 
L 84 0 
L 84 113 
Q 275 113 384 172 
Q 447 203 484 290 
Q 522 378 522 647 
L 522 3238 
Q 522 3728 498 3840 
Q 475 3953 426 3993 
Q 378 4034 297 4034 
Q 231 4034 84 3984 
L 41 4094 
L 897 4444 
L 1041 4444 
z
" transform="scale(0.015625)"/>
       <path id="TimesNewRomanPSMT-73" d="M 2050 2947 
L 2050 1972 
L 1947 1972 
Q 1828 2431 1642 2597 
Q 1456 2763 1169 2763 
Q 950 2763 815 2647 
Q 681 2531 681 2391 
Q 681 2216 781 2091 
Q 878 1963 1175 1819 
L 1631 1597 
Q 2266 1288 2266 781 
Q 2266 391 1970 151 
Q 1675 -88 1309 -88 
Q 1047 -88 709 6 
Q 606 38 541 38 
Q 469 38 428 -44 
L 325 -44 
L 325 978 
L 428 978 
Q 516 541 762 319 
Q 1009 97 1316 97 
Q 1531 97 1667 223 
Q 1803 350 1803 528 
Q 1803 744 1651 891 
Q 1500 1038 1047 1263 
Q 594 1488 453 1669 
Q 313 1847 313 2119 
Q 313 2472 555 2709 
Q 797 2947 1181 2947 
Q 1350 2947 1591 2875 
Q 1750 2828 1803 2828 
Q 1853 2828 1881 2850 
Q 1909 2872 1947 2947 
L 2050 2947 
z
" transform="scale(0.015625)"/>
      </defs>
      <use xlink:href="#TimesNewRomanPSMT-45"/>
      <use xlink:href="#TimesNewRomanPSMT-70" x="61.083984"/>
      <use xlink:href="#TimesNewRomanPSMT-6f" x="111.083984"/>
      <use xlink:href="#TimesNewRomanPSMT-63" x="161.083984"/>
      <use xlink:href="#TimesNewRomanPSMT-68" x="205.46875"/>
      <use xlink:href="#TimesNewRomanPSMT-73" x="255.46875"/>
     </g>
    </g>
   </g>
   <g id="matplotlib.axis_2">
    <g id="ytick_1">
     <g id="line2d_6">
      <defs>
       <path id="ma705481f1c" d="M 0 0 
L -3.5 0 
" style="stroke: #000000; stroke-width: 0.8"/>
      </defs>
      <g>
       <use xlink:href="#ma705481f1c" x="45" y="254.99939" style="stroke: #000000; stroke-width: 0.8"/>
      </g>
     </g>
     <g id="text_7">
      <!-- −8 -->
      <g transform="translate(27.360937 258.471265)scale(0.1 -0.1)">
       <defs>
        <path id="TimesNewRomanPSMT-2212" d="M 3484 2000 
L 116 2000 
L 116 2256 
L 3484 2256 
L 3484 2000 
z
" transform="scale(0.015625)"/>
        <path id="TimesNewRomanPSMT-38" d="M 1228 2134 
Q 725 2547 579 2797 
Q 434 3047 434 3316 
Q 434 3728 753 4026 
Q 1072 4325 1600 4325 
Q 2113 4325 2425 4047 
Q 2738 3769 2738 3413 
Q 2738 3175 2569 2928 
Q 2400 2681 1866 2347 
Q 2416 1922 2594 1678 
Q 2831 1359 2831 1006 
Q 2831 559 2490 242 
Q 2150 -75 1597 -75 
Q 994 -75 656 303 
Q 388 606 388 966 
Q 388 1247 577 1523 
Q 766 1800 1228 2134 
z
M 1719 2469 
Q 2094 2806 2194 3001 
Q 2294 3197 2294 3444 
Q 2294 3772 2109 3958 
Q 1925 4144 1606 4144 
Q 1288 4144 1088 3959 
Q 888 3775 888 3528 
Q 888 3366 970 3203 
Q 1053 3041 1206 2894 
L 1719 2469 
z
M 1375 2016 
Q 1116 1797 991 1539 
Q 866 1281 866 981 
Q 866 578 1086 336 
Q 1306 94 1647 94 
Q 1984 94 2187 284 
Q 2391 475 2391 747 
Q 2391 972 2272 1150 
Q 2050 1481 1375 2016 
z
" transform="scale(0.015625)"/>
       </defs>
       <use xlink:href="#TimesNewRomanPSMT-2212"/>
       <use xlink:href="#TimesNewRomanPSMT-38" x="56.396484"/>
      </g>
     </g>
    </g>
    <g id="ytick_2">
     <g id="line2d_7">
      <g>
       <use xlink:href="#ma705481f1c" x="45" y="216.864" style="stroke: #000000; stroke-width: 0.8"/>
      </g>
     </g>
     <g id="text_8">
      <!-- −6 -->
      <g transform="translate(27.360937 220.335875)scale(0.1 -0.1)">
       <defs>
        <path id="TimesNewRomanPSMT-36" d="M 2869 4325 
L 2869 4209 
Q 2456 4169 2195 4045 
Q 1934 3922 1679 3669 
Q 1425 3416 1258 3105 
Q 1091 2794 978 2366 
Q 1428 2675 1881 2675 
Q 2316 2675 2634 2325 
Q 2953 1975 2953 1425 
Q 2953 894 2631 456 
Q 2244 -75 1606 -75 
Q 1172 -75 869 213 
Q 275 772 275 1663 
Q 275 2231 503 2743 
Q 731 3256 1154 3653 
Q 1578 4050 1965 4187 
Q 2353 4325 2688 4325 
L 2869 4325 
z
M 925 2138 
Q 869 1716 869 1456 
Q 869 1156 980 804 
Q 1091 453 1309 247 
Q 1469 100 1697 100 
Q 1969 100 2183 356 
Q 2397 613 2397 1088 
Q 2397 1622 2184 2012 
Q 1972 2403 1581 2403 
Q 1463 2403 1327 2353 
Q 1191 2303 925 2138 
z
" transform="scale(0.015625)"/>
       </defs>
       <use xlink:href="#TimesNewRomanPSMT-2212"/>
       <use xlink:href="#TimesNewRomanPSMT-36" x="56.396484"/>
      </g>
     </g>
    </g>
    <g id="ytick_3">
     <g id="line2d_8">
      <g>
       <use xlink:href="#ma705481f1c" x="45" y="178.728611" style="stroke: #000000; stroke-width: 0.8"/>
      </g>
     </g>
     <g id="text_9">
      <!-- −4 -->
      <g transform="translate(27.360937 182.200486)scale(0.1 -0.1)">
       <defs>
        <path id="TimesNewRomanPSMT-34" d="M 2978 1563 
L 2978 1119 
L 2409 1119 
L 2409 0 
L 1894 0 
L 1894 1119 
L 100 1119 
L 100 1519 
L 2066 4325 
L 2409 4325 
L 2409 1563 
L 2978 1563 
z
M 1894 1563 
L 1894 3666 
L 406 1563 
L 1894 1563 
z
" transform="scale(0.015625)"/>
       </defs>
       <use xlink:href="#TimesNewRomanPSMT-2212"/>
       <use xlink:href="#TimesNewRomanPSMT-34" x="56.396484"/>
      </g>
     </g>
    </g>
    <g id="ytick_4">
     <g id="line2d_9">
      <g>
       <use xlink:href="#ma705481f1c" x="45" y="140.593221" style="stroke: #000000; stroke-width: 0.8"/>
      </g>
     </g>
     <g id="text_10">
      <!-- −2 -->
      <g transform="translate(27.360937 144.065096)scale(0.1 -0.1)">
       <use xlink:href="#TimesNewRomanPSMT-2212"/>
       <use xlink:href="#TimesNewRomanPSMT-32" x="56.396484"/>
      </g>
     </g>
    </g>
    <g id="ytick_5">
     <g id="line2d_10">
      <g>
       <use xlink:href="#ma705481f1c" x="45" y="102.457831" style="stroke: #000000; stroke-width: 0.8"/>
      </g>
     </g>
     <g id="text_11">
      <!-- 0 -->
      <g transform="translate(33 105.929706)scale(0.1 -0.1)">
       <use xlink:href="#TimesNewRomanPSMT-30"/>
      </g>
     </g>
    </g>
    <g id="ytick_6">
     <g id="line2d_11">
      <g>
       <use xlink:href="#ma705481f1c" x="45" y="64.322441" style="stroke: #000000; stroke-width: 0.8"/>
      </g>
     </g>
     <g id="text_12">
      <!-- 2 -->
      <g transform="translate(33 67.794316)scale(0.1 -0.1)">
       <use xlink:href="#TimesNewRomanPSMT-32"/>
      </g>
     </g>
    </g>
    <g id="text_13">
     <!-- Physical loss, log scale -->
     <g transform="translate(21.203125 191.547812)rotate(-90)scale(0.1 -0.1)">
      <defs>
       <path id="TimesNewRomanPSMT-50" d="M 1313 1984 
L 1313 750 
Q 1313 350 1400 253 
Q 1519 116 1759 116 
L 1922 116 
L 1922 0 
L 106 0 
L 106 116 
L 266 116 
Q 534 116 650 291 
Q 713 388 713 750 
L 713 3488 
Q 713 3888 628 3984 
Q 506 4122 266 4122 
L 106 4122 
L 106 4238 
L 1659 4238 
Q 2228 4238 2556 4120 
Q 2884 4003 3109 3725 
Q 3334 3447 3334 3066 
Q 3334 2547 2992 2222 
Q 2650 1897 2025 1897 
Q 1872 1897 1694 1919 
Q 1516 1941 1313 1984 
z
M 1313 2163 
Q 1478 2131 1606 2115 
Q 1734 2100 1825 2100 
Q 2150 2100 2386 2351 
Q 2622 2603 2622 3003 
Q 2622 3278 2509 3514 
Q 2397 3750 2190 3867 
Q 1984 3984 1722 3984 
Q 1563 3984 1313 3925 
L 1313 2163 
z
" transform="scale(0.015625)"/>
       <path id="TimesNewRomanPSMT-79" d="M 38 2863 
L 1372 2863 
L 1372 2747 
L 1306 2747 
Q 1166 2747 1095 2686 
Q 1025 2625 1025 2534 
Q 1025 2413 1128 2197 
L 1825 753 
L 2466 2334 
Q 2519 2463 2519 2588 
Q 2519 2644 2497 2672 
Q 2472 2706 2419 2726 
Q 2366 2747 2231 2747 
L 2231 2863 
L 3163 2863 
L 3163 2747 
Q 3047 2734 2984 2696 
Q 2922 2659 2847 2556 
Q 2819 2513 2741 2316 
L 1575 -541 
Q 1406 -956 1132 -1168 
Q 859 -1381 606 -1381 
Q 422 -1381 303 -1275 
Q 184 -1169 184 -1031 
Q 184 -900 270 -820 
Q 356 -741 506 -741 
Q 609 -741 788 -809 
Q 913 -856 944 -856 
Q 1038 -856 1148 -759 
Q 1259 -663 1372 -384 
L 1575 113 
L 547 2272 
Q 500 2369 397 2513 
Q 319 2622 269 2659 
Q 197 2709 38 2747 
L 38 2863 
z
" transform="scale(0.015625)"/>
       <path id="TimesNewRomanPSMT-69" d="M 928 4444 
Q 1059 4444 1151 4351 
Q 1244 4259 1244 4128 
Q 1244 3997 1151 3903 
Q 1059 3809 928 3809 
Q 797 3809 703 3903 
Q 609 3997 609 4128 
Q 609 4259 701 4351 
Q 794 4444 928 4444 
z
M 1188 2947 
L 1188 647 
Q 1188 378 1227 289 
Q 1266 200 1342 156 
Q 1419 113 1622 113 
L 1622 0 
L 231 0 
L 231 113 
Q 441 113 512 153 
Q 584 194 626 287 
Q 669 381 669 647 
L 669 1750 
Q 669 2216 641 2353 
Q 619 2453 572 2492 
Q 525 2531 444 2531 
Q 356 2531 231 2484 
L 188 2597 
L 1050 2947 
L 1188 2947 
z
" transform="scale(0.015625)"/>
       <path id="TimesNewRomanPSMT-61" d="M 1822 413 
Q 1381 72 1269 19 
Q 1100 -59 909 -59 
Q 613 -59 420 144 
Q 228 347 228 678 
Q 228 888 322 1041 
Q 450 1253 767 1440 
Q 1084 1628 1822 1897 
L 1822 2009 
Q 1822 2438 1686 2597 
Q 1550 2756 1291 2756 
Q 1094 2756 978 2650 
Q 859 2544 859 2406 
L 866 2225 
Q 866 2081 792 2003 
Q 719 1925 600 1925 
Q 484 1925 411 2006 
Q 338 2088 338 2228 
Q 338 2497 613 2722 
Q 888 2947 1384 2947 
Q 1766 2947 2009 2819 
Q 2194 2722 2281 2516 
Q 2338 2381 2338 1966 
L 2338 994 
Q 2338 584 2353 492 
Q 2369 400 2405 369 
Q 2441 338 2488 338 
Q 2538 338 2575 359 
Q 2641 400 2828 588 
L 2828 413 
Q 2478 -56 2159 -56 
Q 2006 -56 1915 50 
Q 1825 156 1822 413 
z
M 1822 616 
L 1822 1706 
Q 1350 1519 1213 1441 
Q 966 1303 859 1153 
Q 753 1003 753 825 
Q 753 600 887 451 
Q 1022 303 1197 303 
Q 1434 303 1822 616 
z
" transform="scale(0.015625)"/>
       <path id="TimesNewRomanPSMT-6c" d="M 1184 4444 
L 1184 647 
Q 1184 378 1223 290 
Q 1263 203 1344 158 
Q 1425 113 1647 113 
L 1647 0 
L 244 0 
L 244 113 
Q 441 113 512 153 
Q 584 194 625 287 
Q 666 381 666 647 
L 666 3247 
Q 666 3731 644 3842 
Q 622 3953 573 3993 
Q 525 4034 450 4034 
Q 369 4034 244 3984 
L 191 4094 
L 1044 4444 
L 1184 4444 
z
" transform="scale(0.015625)"/>
       <path id="TimesNewRomanPSMT-20" transform="scale(0.015625)"/>
       <path id="TimesNewRomanPSMT-2c" d="M 344 -1066 
L 344 -928 
Q 666 -822 842 -598 
Q 1019 -375 1019 -125 
Q 1019 -66 991 -25 
Q 969 3 947 3 
Q 913 3 797 -59 
Q 741 -88 678 -88 
Q 525 -88 434 3 
Q 344 94 344 253 
Q 344 406 461 515 
Q 578 625 747 625 
Q 953 625 1114 445 
Q 1275 266 1275 -31 
Q 1275 -353 1051 -629 
Q 828 -906 344 -1066 
z
" transform="scale(0.015625)"/>
       <path id="TimesNewRomanPSMT-67" d="M 966 1044 
Q 703 1172 562 1401 
Q 422 1631 422 1909 
Q 422 2334 742 2640 
Q 1063 2947 1563 2947 
Q 1972 2947 2272 2747 
L 2878 2747 
Q 3013 2747 3034 2739 
Q 3056 2731 3066 2713 
Q 3084 2684 3084 2613 
Q 3084 2531 3069 2500 
Q 3059 2484 3036 2475 
Q 3013 2466 2878 2466 
L 2506 2466 
Q 2681 2241 2681 1891 
Q 2681 1491 2375 1206 
Q 2069 922 1553 922 
Q 1341 922 1119 984 
Q 981 866 932 777 
Q 884 688 884 625 
Q 884 572 936 522 
Q 988 472 1138 450 
Q 1225 438 1575 428 
Q 2219 413 2409 384 
Q 2700 344 2873 169 
Q 3047 -6 3047 -263 
Q 3047 -616 2716 -925 
Q 2228 -1381 1444 -1381 
Q 841 -1381 425 -1109 
Q 191 -953 191 -784 
Q 191 -709 225 -634 
Q 278 -519 444 -313 
Q 466 -284 763 25 
Q 600 122 533 198 
Q 466 275 466 372 
Q 466 481 555 628 
Q 644 775 966 1044 
z
M 1509 2797 
Q 1278 2797 1122 2612 
Q 966 2428 966 2047 
Q 966 1553 1178 1281 
Q 1341 1075 1591 1075 
Q 1828 1075 1981 1253 
Q 2134 1431 2134 1813 
Q 2134 2309 1919 2591 
Q 1759 2797 1509 2797 
z
M 934 0 
Q 788 -159 713 -296 
Q 638 -434 638 -550 
Q 638 -700 819 -813 
Q 1131 -1006 1722 -1006 
Q 2284 -1006 2551 -807 
Q 2819 -609 2819 -384 
Q 2819 -222 2659 -153 
Q 2497 -84 2016 -72 
Q 1313 -53 934 0 
z
" transform="scale(0.015625)"/>
       <path id="TimesNewRomanPSMT-65" d="M 681 1784 
Q 678 1147 991 784 
Q 1303 422 1725 422 
Q 2006 422 2214 576 
Q 2422 731 2563 1106 
L 2659 1044 
Q 2594 616 2278 264 
Q 1963 -88 1488 -88 
Q 972 -88 605 314 
Q 238 716 238 1394 
Q 238 2128 614 2539 
Q 991 2950 1559 2950 
Q 2041 2950 2350 2633 
Q 2659 2316 2659 1784 
L 681 1784 
z
M 681 1966 
L 2006 1966 
Q 1991 2241 1941 2353 
Q 1863 2528 1708 2628 
Q 1553 2728 1384 2728 
Q 1125 2728 920 2526 
Q 716 2325 681 1966 
z
" transform="scale(0.015625)"/>
      </defs>
      <use xlink:href="#TimesNewRomanPSMT-50"/>
      <use xlink:href="#TimesNewRomanPSMT-68" x="55.615234"/>
      <use xlink:href="#TimesNewRomanPSMT-79" x="105.615234"/>
      <use xlink:href="#TimesNewRomanPSMT-73" x="155.615234"/>
      <use xlink:href="#TimesNewRomanPSMT-69" x="194.53125"/>
      <use xlink:href="#TimesNewRomanPSMT-63" x="222.314453"/>
      <use xlink:href="#TimesNewRomanPSMT-61" x="266.699219"/>
      <use xlink:href="#TimesNewRomanPSMT-6c" x="311.083984"/>
      <use xlink:href="#TimesNewRomanPSMT-20" x="338.867188"/>
      <use xlink:href="#TimesNewRomanPSMT-6c" x="363.867188"/>
      <use xlink:href="#TimesNewRomanPSMT-6f" x="391.650391"/>
      <use xlink:href="#TimesNewRomanPSMT-73" x="441.650391"/>
      <use xlink:href="#TimesNewRomanPSMT-73" x="480.566406"/>
      <use xlink:href="#TimesNewRomanPSMT-2c" x="519.482422"/>
      <use xlink:href="#TimesNewRomanPSMT-20" x="544.482422"/>
      <use xlink:href="#TimesNewRomanPSMT-6c" x="569.482422"/>
      <use xlink:href="#TimesNewRomanPSMT-6f" x="597.265625"/>
      <use xlink:href="#TimesNewRomanPSMT-67" x="647.265625"/>
      <use xlink:href="#TimesNewRomanPSMT-20" x="697.265625"/>
      <use xlink:href="#TimesNewRomanPSMT-73" x="722.265625"/>
      <use xlink:href="#TimesNewRomanPSMT-63" x="761.181641"/>
      <use xlink:href="#TimesNewRomanPSMT-61" x="805.566406"/>
      <use xlink:href="#TimesNewRomanPSMT-6c" x="849.951172"/>
      <use xlink:href="#TimesNewRomanPSMT-65" x="877.734375"/>
     </g>
    </g>
   </g>
   <g id="line2d_12">
    <path d="M 57.681818 66.601746 
L 58.956373 68.250508 
L 60.230927 70.41396 
L 61.505482 73.133375 
L 62.780037 75.576441 
L 64.054591 77.458744 
L 65.329146 79.60733 
L 66.6037 80.565577 
L 67.878255 81.074478 
L 69.15281 81.060475 
L 70.427364 81.408026 
L 71.701919 81.626742 
L 72.976473 82.139228 
L 74.251028 83.047011 
L 75.525582 84.414432 
L 76.800137 85.089353 
L 78.074692 84.945683 
L 79.349246 84.922065 
L 80.623801 84.144522 
L 83.17291 80.951812 
L 84.447465 79.611035 
L 85.722019 77.848996 
L 86.996574 75.853632 
L 90.820238 68.703168 
L 92.094792 66.968349 
L 93.369347 65.773524 
L 101.016674 61.833559 
L 103.565783 60.688375 
L 108.664002 58.989154 
L 112.487666 58.381515 
L 120.134993 57.532049 
L 123.958657 57.485931 
L 131.605984 57.668017 
L 134.155094 57.87257 
L 143.076976 58.790865 
L 176.215395 60.478721 
L 177.48995 60.4271 
L 182.588168 60.740136 
L 183.862723 60.873203 
L 190.235496 61.009587 
L 194.059159 61.025478 
L 195.333714 60.972274 
L 200.431932 61.346391 
L 214.452033 61.577746 
L 217.001142 61.662809 
L 222.09936 61.865041 
L 224.64847 61.829424 
L 231.021243 61.637064 
L 239.943125 61.9813 
L 241.217679 62.106357 
L 242.492234 62.106672 
L 245.041343 62.263489 
L 256.512334 62.35843 
L 259.061444 62.437729 
L 265.434217 62.443522 
L 267.983326 62.376234 
L 270.532435 62.373629 
L 285.82709 62.760933 
L 287.101645 62.639727 
L 288.376199 62.690176 
L 290.925308 62.536324 
L 301.121745 62.820215 
L 303.670854 62.884408 
L 304.945409 62.856931 
L 306.219963 62.973215 
L 307.494518 62.913809 
L 310.043627 62.947836 
L 311.318182 62.948398 
L 311.318182 62.948398 
" clip-path="url(#p0ca4690560)" style="fill: none; stroke: #ff0000; stroke-width: 1.5; stroke-linecap: square"/>
   </g>
   <g id="line2d_13">
    <path d="M 57.681818 180.291621 
L 60.230927 207.015709 
L 61.505482 220.863373 
L 62.780037 229.648548 
L 64.054591 233.314987 
L 65.329146 233.417984 
L 66.6037 231.96309 
L 67.878255 229.130436 
L 69.15281 224.403099 
L 70.427364 217.655096 
L 71.701919 209.393688 
L 72.976473 199.614452 
L 75.525582 175.991988 
L 79.349246 137.400393 
L 80.623801 126.66107 
L 81.898355 117.825374 
L 83.17291 110.777243 
L 84.447465 105.152392 
L 85.722019 100.404268 
L 88.271128 92.222043 
L 90.820238 85.48355 
L 93.369347 78.880995 
L 98.467565 64.579883 
L 99.74212 61.538999 
L 101.016674 58.939124 
L 102.291229 56.762098 
L 103.565783 54.963929 
L 104.840338 53.442292 
L 106.114893 52.154771 
L 107.389447 51.070233 
L 109.938556 49.328866 
L 111.213111 48.629644 
L 112.487666 48.084518 
L 113.76222 47.690249 
L 115.036775 47.433445 
L 117.585884 47.259859 
L 121.409548 47.359945 
L 125.233212 47.67834 
L 129.056875 48.053272 
L 131.605984 48.099673 
L 140.527867 47.841207 
L 157.097076 48.308405 
L 171.117177 48.902522 
L 178.764504 49.438573 
L 187.686386 50.303248 
L 197.882823 51.318779 
L 205.530151 51.803402 
L 224.64847 52.733486 
L 236.119461 52.927716 
L 311.318182 53.94337 
L 311.318182 53.94337 
" clip-path="url(#p0ca4690560)" style="fill: none; stroke: #0000ff; stroke-width: 1.5; stroke-linecap: square"/>
   </g>
   <g id="line2d_14">
    <path d="M 57.681818 89.483155 
L 58.956373 96.496046 
L 60.230927 104.280187 
L 61.505482 114.384268 
L 62.780037 121.324181 
L 64.054591 125.956829 
L 65.329146 128.577724 
L 66.6037 131.520642 
L 67.878255 132.587347 
L 69.15281 132.866261 
L 70.427364 132.792879 
L 71.701919 133.065113 
L 72.976473 130.946789 
L 74.251028 128.158432 
L 75.525582 125.965254 
L 76.800137 123.135311 
L 78.074692 121.440839 
L 79.349246 120.636685 
L 80.623801 120.311926 
L 81.898355 119.674489 
L 83.17291 119.769468 
L 84.447465 119.453456 
L 85.722019 119.32359 
L 88.271128 119.542586 
L 90.820238 120.305433 
L 92.094792 121.297983 
L 94.643901 121.381764 
L 95.918456 121.298097 
L 98.467565 119.899678 
L 101.016674 119.350979 
L 103.565783 117.433422 
L 104.840338 115.197392 
L 106.114893 111.587288 
L 107.389447 107.595481 
L 108.664002 105.197177 
L 109.938556 103.570411 
L 111.213111 102.959947 
L 112.487666 103.626016 
L 113.76222 103.798399 
L 115.036775 103.620241 
L 116.311329 102.760883 
L 118.860439 102.064042 
L 120.134993 102.494222 
L 122.684102 103.772354 
L 123.958657 103.913113 
L 125.233212 103.331793 
L 127.782321 100.829498 
L 129.056875 100.20779 
L 130.33143 99.232038 
L 131.605984 99.222468 
L 132.880539 100.066615 
L 135.429648 100.619269 
L 136.704203 101.883128 
L 137.978757 102.224357 
L 139.253312 102.012496 
L 141.802421 102.776634 
L 143.076976 102.2961 
L 144.35153 102.390434 
L 145.626085 103.550648 
L 146.90064 104.296375 
L 148.175194 104.248497 
L 149.449749 104.444924 
L 150.724303 105.175153 
L 151.998858 104.60598 
L 153.273413 104.420046 
L 154.547967 105.075401 
L 155.822522 106.168159 
L 157.097076 106.73945 
L 158.371631 108.300069 
L 162.195295 110.110745 
L 164.744404 110.138632 
L 166.018958 110.679812 
L 168.568068 109.454216 
L 169.842622 110.076164 
L 171.117177 109.356847 
L 172.391731 109.319036 
L 173.666286 110.555004 
L 174.940841 111.445027 
L 176.215395 111.194633 
L 177.48995 112.505653 
L 178.764504 112.794367 
L 180.039059 112.901997 
L 181.313614 112.474077 
L 182.588168 112.968289 
L 183.862723 111.479177 
L 185.137277 111.415084 
L 186.411832 111.669793 
L 187.686386 112.23516 
L 188.960941 111.570319 
L 190.235496 112.801412 
L 191.51005 112.401027 
L 192.784605 110.801518 
L 194.059159 111.029086 
L 195.333714 112.203815 
L 196.608269 112.763535 
L 197.882823 113.92095 
L 199.157378 115.342975 
L 200.431932 115.971942 
L 201.706487 116.327878 
L 204.255596 116.214893 
L 205.530151 117.605416 
L 206.804705 117.216162 
L 209.353815 117.951879 
L 210.628369 118.680892 
L 211.902924 118.636118 
L 213.177478 119.166175 
L 214.452033 119.26342 
L 215.726587 119.618645 
L 217.001142 119.419184 
L 218.275697 119.405953 
L 219.550251 119.259026 
L 220.824806 119.980073 
L 222.09936 119.85033 
L 223.373915 120.21485 
L 224.64847 119.452617 
L 225.923024 120.049691 
L 227.197579 119.001141 
L 228.472133 118.981249 
L 229.746688 119.131716 
L 231.021243 119.938587 
L 232.295797 119.986387 
L 233.570352 120.838382 
L 234.844906 120.865322 
L 236.119461 120.245207 
L 237.394016 120.660512 
L 238.66857 120.669293 
L 239.943125 120.338919 
L 241.217679 121.127928 
L 242.492234 122.445102 
L 243.766788 121.85497 
L 245.041343 121.875604 
L 246.315898 122.824542 
L 247.590452 123.56951 
L 248.865007 123.731973 
L 251.414116 125.039685 
L 252.688671 124.708697 
L 253.963225 124.871963 
L 255.23778 123.63248 
L 256.512334 124.258678 
L 257.786889 124.28028 
L 259.061444 124.586813 
L 260.335998 124.432083 
L 261.610553 125.872853 
L 262.885107 125.245728 
L 264.159662 125.160496 
L 265.434217 125.269676 
L 267.983326 123.897917 
L 269.25788 122.818841 
L 271.806989 121.497593 
L 274.356099 122.068639 
L 275.630653 123.611996 
L 276.905208 122.726592 
L 278.179762 122.786016 
L 279.454317 123.081507 
L 280.728872 122.712336 
L 282.003426 122.648113 
L 283.277981 124.464189 
L 284.552535 124.559632 
L 285.82709 123.359829 
L 287.101645 123.641418 
L 288.376199 123.610107 
L 289.650754 123.156137 
L 290.925308 122.357553 
L 292.199863 122.855538 
L 296.023527 120.866078 
L 297.298081 121.643441 
L 298.572636 120.862483 
L 299.84719 120.822643 
L 301.121745 120.065534 
L 302.3963 120.545359 
L 303.670854 120.374713 
L 304.945409 120.889616 
L 306.219963 120.93763 
L 307.494518 121.497585 
L 310.043627 121.545185 
L 311.318182 121.790907 
L 311.318182 121.790907 
" clip-path="url(#p0ca4690560)" style="fill: none; stroke: #008000; stroke-width: 1.5; stroke-linecap: square"/>
   </g>
   <g id="patch_3">
    <path d="M 45 256.32 
L 45 34.56 
" style="fill: none; stroke: #000000; stroke-width: 0.8; stroke-linejoin: miter; stroke-linecap: square"/>
   </g>
   <g id="patch_4">
    <path d="M 324 256.32 
L 324 34.56 
" style="fill: none; stroke: #000000; stroke-width: 0.8; stroke-linejoin: miter; stroke-linecap: square"/>
   </g>
   <g id="patch_5">
    <path d="M 45 256.32 
L 324 256.32 
" style="fill: none; stroke: #000000; stroke-width: 0.8; stroke-linejoin: miter; stroke-linecap: square"/>
   </g>
   <g id="patch_6">
    <path d="M 45 34.56 
L 324 34.56 
" style="fill: none; stroke: #000000; stroke-width: 0.8; stroke-linejoin: miter; stroke-linecap: square"/>
   </g>
   <g id="legend_1">
    <g id="patch_7">
     <path d="M 252.2125 84.977188 
L 317 84.977188 
Q 319 84.977188 319 82.977188 
L 319 41.56 
Q 319 39.56 317 39.56 
L 252.2125 39.56 
Q 250.2125 39.56 250.2125 41.56 
L 250.2125 82.977188 
Q 250.2125 84.977188 252.2125 84.977188 
z
" style="fill: #ffffff; opacity: 0.8; stroke: #cccccc; stroke-linejoin: miter"/>
    </g>
    <g id="line2d_15">
     <path d="M 254.2125 47.06 
L 264.2125 47.06 
L 274.2125 47.06 
" style="fill: none; stroke: #ff0000; stroke-width: 1.5; stroke-linecap: square"/>
    </g>
    <g id="text_14">
     <!-- FPSNN -->
     <g transform="translate(282.2125 50.56)scale(0.1 -0.1)">
      <defs>
       <path id="TimesNewRomanPSMT-46" d="M 1309 4006 
L 1309 2341 
L 2081 2341 
Q 2347 2341 2470 2458 
Q 2594 2575 2634 2922 
L 2750 2922 
L 2750 1488 
L 2634 1488 
Q 2631 1734 2570 1850 
Q 2509 1966 2401 2023 
Q 2294 2081 2081 2081 
L 1309 2081 
L 1309 750 
Q 1309 428 1350 325 
Q 1381 247 1481 191 
Q 1619 116 1769 116 
L 1922 116 
L 1922 0 
L 103 0 
L 103 116 
L 253 116 
Q 516 116 634 269 
Q 709 369 709 750 
L 709 3488 
Q 709 3809 669 3913 
Q 638 3991 541 4047 
Q 406 4122 253 4122 
L 103 4122 
L 103 4238 
L 3256 4238 
L 3297 3306 
L 3188 3306 
Q 3106 3603 2998 3742 
Q 2891 3881 2733 3943 
Q 2575 4006 2244 4006 
L 1309 4006 
z
" transform="scale(0.015625)"/>
       <path id="TimesNewRomanPSMT-53" d="M 2934 4334 
L 2934 2869 
L 2819 2869 
Q 2763 3291 2617 3541 
Q 2472 3791 2203 3937 
Q 1934 4084 1647 4084 
Q 1322 4084 1109 3886 
Q 897 3688 897 3434 
Q 897 3241 1031 3081 
Q 1225 2847 1953 2456 
Q 2547 2138 2764 1967 
Q 2981 1797 3098 1565 
Q 3216 1334 3216 1081 
Q 3216 600 2842 251 
Q 2469 -97 1881 -97 
Q 1697 -97 1534 -69 
Q 1438 -53 1133 45 
Q 828 144 747 144 
Q 669 144 623 97 
Q 578 50 556 -97 
L 441 -97 
L 441 1356 
L 556 1356 
Q 638 900 775 673 
Q 913 447 1195 297 
Q 1478 147 1816 147 
Q 2206 147 2432 353 
Q 2659 559 2659 841 
Q 2659 997 2573 1156 
Q 2488 1316 2306 1453 
Q 2184 1547 1640 1851 
Q 1097 2156 867 2337 
Q 638 2519 519 2737 
Q 400 2956 400 3219 
Q 400 3675 750 4004 
Q 1100 4334 1641 4334 
Q 1978 4334 2356 4169 
Q 2531 4091 2603 4091 
Q 2684 4091 2736 4139 
Q 2788 4188 2819 4334 
L 2934 4334 
z
" transform="scale(0.015625)"/>
       <path id="TimesNewRomanPSMT-4e" d="M -84 4238 
L 1066 4238 
L 3656 1059 
L 3656 3503 
Q 3656 3894 3569 3991 
Q 3453 4122 3203 4122 
L 3056 4122 
L 3056 4238 
L 4531 4238 
L 4531 4122 
L 4381 4122 
Q 4113 4122 4000 3959 
Q 3931 3859 3931 3503 
L 3931 -69 
L 3819 -69 
L 1025 3344 
L 1025 734 
Q 1025 344 1109 247 
Q 1228 116 1475 116 
L 1625 116 
L 1625 0 
L 150 0 
L 150 116 
L 297 116 
Q 569 116 681 278 
Q 750 378 750 734 
L 750 3681 
Q 566 3897 470 3965 
Q 375 4034 191 4094 
Q 100 4122 -84 4122 
L -84 4238 
z
" transform="scale(0.015625)"/>
      </defs>
      <use xlink:href="#TimesNewRomanPSMT-46"/>
      <use xlink:href="#TimesNewRomanPSMT-50" x="55.615234"/>
      <use xlink:href="#TimesNewRomanPSMT-53" x="111.230469"/>
      <use xlink:href="#TimesNewRomanPSMT-4e" x="166.845703"/>
      <use xlink:href="#TimesNewRomanPSMT-4e" x="239.0625"/>
     </g>
    </g>
    <g id="line2d_16">
     <path d="M 254.2125 61.199062 
L 264.2125 61.199062 
L 274.2125 61.199062 
" style="fill: none; stroke: #0000ff; stroke-width: 1.5; stroke-linecap: square"/>
    </g>
    <g id="text_15">
     <!-- FPANN -->
     <g transform="translate(282.2125 64.699062)scale(0.1 -0.1)">
      <defs>
       <path id="TimesNewRomanPSMT-41" d="M 2928 1419 
L 1288 1419 
L 1000 750 
Q 894 503 894 381 
Q 894 284 986 211 
Q 1078 138 1384 116 
L 1384 0 
L 50 0 
L 50 116 
Q 316 163 394 238 
Q 553 388 747 847 
L 2238 4334 
L 2347 4334 
L 3822 809 
Q 4000 384 4145 257 
Q 4291 131 4550 116 
L 4550 0 
L 2878 0 
L 2878 116 
Q 3131 128 3220 200 
Q 3309 272 3309 375 
Q 3309 513 3184 809 
L 2928 1419 
z
M 2841 1650 
L 2122 3363 
L 1384 1650 
L 2841 1650 
z
" transform="scale(0.015625)"/>
      </defs>
      <use xlink:href="#TimesNewRomanPSMT-46"/>
      <use xlink:href="#TimesNewRomanPSMT-50" x="55.615234"/>
      <use xlink:href="#TimesNewRomanPSMT-41" x="102.105469"/>
      <use xlink:href="#TimesNewRomanPSMT-4e" x="174.322266"/>
      <use xlink:href="#TimesNewRomanPSMT-4e" x="246.539062"/>
     </g>
    </g>
    <g id="line2d_17">
     <path d="M 254.2125 75.338125 
L 264.2125 75.338125 
L 274.2125 75.338125 
" style="fill: none; stroke: #008000; stroke-width: 1.5; stroke-linecap: square"/>
    </g>
    <g id="text_16">
     <!-- APSNN -->
     <g transform="translate(282.2125 78.838125)scale(0.1 -0.1)">
      <use xlink:href="#TimesNewRomanPSMT-41"/>
      <use xlink:href="#TimesNewRomanPSMT-50" x="72.216797"/>
      <use xlink:href="#TimesNewRomanPSMT-53" x="127.832031"/>
      <use xlink:href="#TimesNewRomanPSMT-4e" x="183.447266"/>
      <use xlink:href="#TimesNewRomanPSMT-4e" x="255.664062"/>
     </g>
    </g>
   </g>
  </g>
  <g id="text_17">
   <!-- Physical loss comparison, log scale -->
   <g transform="translate(95.176875 14.0925)scale(0.12 -0.12)">
    <defs>
     <path id="TimesNewRomanPSMT-6d" d="M 1050 2338 
Q 1363 2650 1419 2697 
Q 1559 2816 1721 2881 
Q 1884 2947 2044 2947 
Q 2313 2947 2506 2790 
Q 2700 2634 2766 2338 
Q 3088 2713 3309 2830 
Q 3531 2947 3766 2947 
Q 3994 2947 4170 2830 
Q 4347 2713 4450 2447 
Q 4519 2266 4519 1878 
L 4519 647 
Q 4519 378 4559 278 
Q 4591 209 4675 161 
Q 4759 113 4950 113 
L 4950 0 
L 3538 0 
L 3538 113 
L 3597 113 
Q 3781 113 3884 184 
Q 3956 234 3988 344 
Q 4000 397 4000 647 
L 4000 1878 
Q 4000 2228 3916 2372 
Q 3794 2572 3525 2572 
Q 3359 2572 3192 2489 
Q 3025 2406 2788 2181 
L 2781 2147 
L 2788 2013 
L 2788 647 
Q 2788 353 2820 281 
Q 2853 209 2943 161 
Q 3034 113 3253 113 
L 3253 0 
L 1806 0 
L 1806 113 
Q 2044 113 2133 169 
Q 2222 225 2256 338 
Q 2272 391 2272 647 
L 2272 1878 
Q 2272 2228 2169 2381 
Q 2031 2581 1784 2581 
Q 1616 2581 1450 2491 
Q 1191 2353 1050 2181 
L 1050 647 
Q 1050 366 1089 281 
Q 1128 197 1204 155 
Q 1281 113 1516 113 
L 1516 0 
L 100 0 
L 100 113 
Q 297 113 375 155 
Q 453 197 493 289 
Q 534 381 534 647 
L 534 1741 
Q 534 2213 506 2350 
Q 484 2453 437 2492 
Q 391 2531 309 2531 
Q 222 2531 100 2484 
L 53 2597 
L 916 2947 
L 1050 2947 
L 1050 2338 
z
" transform="scale(0.015625)"/>
     <path id="TimesNewRomanPSMT-72" d="M 1038 2947 
L 1038 2303 
Q 1397 2947 1775 2947 
Q 1947 2947 2059 2842 
Q 2172 2738 2172 2600 
Q 2172 2478 2090 2393 
Q 2009 2309 1897 2309 
Q 1788 2309 1652 2417 
Q 1516 2525 1450 2525 
Q 1394 2525 1328 2463 
Q 1188 2334 1038 2041 
L 1038 669 
Q 1038 431 1097 309 
Q 1138 225 1241 169 
Q 1344 113 1538 113 
L 1538 0 
L 72 0 
L 72 113 
Q 291 113 397 181 
Q 475 231 506 341 
Q 522 394 522 644 
L 522 1753 
Q 522 2253 501 2348 
Q 481 2444 426 2487 
Q 372 2531 291 2531 
Q 194 2531 72 2484 
L 41 2597 
L 906 2947 
L 1038 2947 
z
" transform="scale(0.015625)"/>
     <path id="TimesNewRomanPSMT-6e" d="M 1034 2341 
Q 1538 2947 1994 2947 
Q 2228 2947 2397 2830 
Q 2566 2713 2666 2444 
Q 2734 2256 2734 1869 
L 2734 647 
Q 2734 375 2778 278 
Q 2813 200 2889 156 
Q 2966 113 3172 113 
L 3172 0 
L 1756 0 
L 1756 113 
L 1816 113 
Q 2016 113 2095 173 
Q 2175 234 2206 353 
Q 2219 400 2219 647 
L 2219 1819 
Q 2219 2209 2117 2386 
Q 2016 2563 1775 2563 
Q 1403 2563 1034 2156 
L 1034 647 
Q 1034 356 1069 288 
Q 1113 197 1189 155 
Q 1266 113 1500 113 
L 1500 0 
L 84 0 
L 84 113 
L 147 113 
Q 366 113 442 223 
Q 519 334 519 647 
L 519 1709 
Q 519 2225 495 2337 
Q 472 2450 423 2490 
Q 375 2531 294 2531 
Q 206 2531 84 2484 
L 38 2597 
L 900 2947 
L 1034 2947 
L 1034 2341 
z
" transform="scale(0.015625)"/>
    </defs>
    <use xlink:href="#TimesNewRomanPSMT-50"/>
    <use xlink:href="#TimesNewRomanPSMT-68" x="55.615234"/>
    <use xlink:href="#TimesNewRomanPSMT-79" x="105.615234"/>
    <use xlink:href="#TimesNewRomanPSMT-73" x="155.615234"/>
    <use xlink:href="#TimesNewRomanPSMT-69" x="194.53125"/>
    <use xlink:href="#TimesNewRomanPSMT-63" x="222.314453"/>
    <use xlink:href="#TimesNewRomanPSMT-61" x="266.699219"/>
    <use xlink:href="#TimesNewRomanPSMT-6c" x="311.083984"/>
    <use xlink:href="#TimesNewRomanPSMT-20" x="338.867188"/>
    <use xlink:href="#TimesNewRomanPSMT-6c" x="363.867188"/>
    <use xlink:href="#TimesNewRomanPSMT-6f" x="391.650391"/>
    <use xlink:href="#TimesNewRomanPSMT-73" x="441.650391"/>
    <use xlink:href="#TimesNewRomanPSMT-73" x="480.566406"/>
    <use xlink:href="#TimesNewRomanPSMT-20" x="519.482422"/>
    <use xlink:href="#TimesNewRomanPSMT-63" x="544.482422"/>
    <use xlink:href="#TimesNewRomanPSMT-6f" x="588.867188"/>
    <use xlink:href="#TimesNewRomanPSMT-6d" x="638.867188"/>
    <use xlink:href="#TimesNewRomanPSMT-70" x="716.650391"/>
    <use xlink:href="#TimesNewRomanPSMT-61" x="766.650391"/>
    <use xlink:href="#TimesNewRomanPSMT-72" x="811.035156"/>
    <use xlink:href="#TimesNewRomanPSMT-69" x="844.335938"/>
    <use xlink:href="#TimesNewRomanPSMT-73" x="872.119141"/>
    <use xlink:href="#TimesNewRomanPSMT-6f" x="911.035156"/>
    <use xlink:href="#TimesNewRomanPSMT-6e" x="961.035156"/>
    <use xlink:href="#TimesNewRomanPSMT-2c" x="1011.035156"/>
    <use xlink:href="#TimesNewRomanPSMT-20" x="1036.035156"/>
    <use xlink:href="#TimesNewRomanPSMT-6c" x="1061.035156"/>
    <use xlink:href="#TimesNewRomanPSMT-6f" x="1088.818359"/>
    <use xlink:href="#TimesNewRomanPSMT-67" x="1138.818359"/>
    <use xlink:href="#TimesNewRomanPSMT-20" x="1188.818359"/>
    <use xlink:href="#TimesNewRomanPSMT-73" x="1213.818359"/>
    <use xlink:href="#TimesNewRomanPSMT-63" x="1252.734375"/>
    <use xlink:href="#TimesNewRomanPSMT-61" x="1297.119141"/>
    <use xlink:href="#TimesNewRomanPSMT-6c" x="1341.503906"/>
    <use xlink:href="#TimesNewRomanPSMT-65" x="1369.287109"/>
   </g>
  </g>
 </g>
 <defs>
  <clipPath id="p0ca4690560">
   <rect x="45" y="34.56" width="279" height="221.76"/>
  </clipPath>
 </defs>
</svg>
