<?xml version="1.0" encoding="utf-8" standalone="no"?>
<!DOCTYPE svg PUBLIC "-//W3C//DTD SVG 1.1//EN"
  "http://www.w3.org/Graphics/SVG/1.1/DTD/svg11.dtd">
<svg xmlns:xlink="http://www.w3.org/1999/xlink" width="360pt" height="288pt" viewBox="0 0 360 288" xmlns="http://www.w3.org/2000/svg" version="1.1">
 <metadata>
  <rdf:RDF xmlns:dc="http://purl.org/dc/elements/1.1/" xmlns:cc="http://creativecommons.org/ns#" xmlns:rdf="http://www.w3.org/1999/02/22-rdf-syntax-ns#">
   <cc:Work>
    <dc:type rdf:resource="http://purl.org/dc/dcmitype/StillImage"/>
    <dc:date>2024-11-11T15:22:02.112703</dc:date>
    <dc:format>image/svg+xml</dc:format>
    <dc:creator>
     <cc:Agent>
      <dc:title>Matplotlib v3.5.2, https://matplotlib.org/</dc:title>
     </cc:Agent>
    </dc:creator>
   </cc:Work>
  </rdf:RDF>
 </metadata>
 <defs>
  <style type="text/css">*{stroke-linejoin: round; stroke-linecap: butt}</style>
 </defs>
 <g id="figure_1">
  <g id="patch_1">
   <path d="M 0 288 
L 360 288 
L 360 0 
L 0 0 
z
" style="fill: #ffffff"/>
  </g>
  <g id="axes_1">
   <g id="patch_2">
    <path d="M 45 256.32 
L 324 256.32 
L 324 34.56 
L 45 34.56 
z
" style="fill: #ffffff"/>
   </g>
   <g id="PolyCollection_1">
    <path d="M 57.681818 44.64 
L 57.681818 84.524075 
L 58.700438 70.464844 
L 59.719058 61.013818 
L 60.737678 58.647788 
L 61.756298 62.347691 
L 62.774918 69.820506 
L 63.793538 73.187643 
L 64.812158 76.39618 
L 65.830778 82.218932 
L 66.849398 93.265592 
L 67.868018 93.372103 
L 68.886637 95.818624 
L 69.905257 103.750039 
L 70.923877 111.51728 
L 71.942497 117.035146 
L 72.961117 121.653208 
L 73.979737 136.964839 
L 74.998357 141.610486 
L 76.016977 146.120252 
L 77.035597 148.586877 
L 78.054217 156.453662 
L 79.072837 163.653687 
L 80.091457 170.382511 
L 81.110077 175.85603 
L 82.128697 181.544776 
L 83.147317 185.204917 
L 84.165936 187.61108 
L 85.184556 188.721319 
L 86.203176 189.956149 
L 87.221796 190.913018 
L 88.240416 190.144976 
L 89.259036 191.338658 
L 90.277656 192.946276 
L 91.296276 194.467088 
L 92.314896 196.267185 
L 93.333516 199.766606 
L 94.352136 200.08117 
L 95.370756 201.797935 
L 96.389376 203.012146 
L 97.407996 204.019422 
L 98.426616 205.030268 
L 99.445235 204.882225 
L 100.463855 205.30805 
L 101.482475 205.541388 
L 102.501095 205.90139 
L 103.519715 206.179617 
L 104.538335 208.523951 
L 105.556955 208.715614 
L 106.575575 209.022456 
L 107.594195 209.17159 
L 108.612815 209.087723 
L 109.631435 209.214537 
L 110.650055 208.022667 
L 111.668675 208.18312 
L 112.687295 208.25941 
L 113.705915 208.617895 
L 114.724535 208.70818 
L 115.743154 210.144013 
L 116.761774 208.464285 
L 117.780394 208.612678 
L 118.799014 208.571153 
L 119.817634 208.73814 
L 120.836254 207.173263 
L 121.854874 207.690628 
L 122.873494 205.907883 
L 123.892114 204.07541 
L 124.910734 202.282774 
L 125.929354 202.651149 
L 126.947974 202.800606 
L 127.966594 202.953118 
L 128.985214 203.957354 
L 130.003834 204.88996 
L 131.022453 205.519493 
L 132.041073 205.416242 
L 133.059693 206.503927 
L 134.078313 207.888118 
L 135.096933 208.492214 
L 136.115553 209.39311 
L 137.134173 211.220723 
L 138.152793 212.349481 
L 139.171413 211.976164 
L 140.190033 212.124791 
L 141.208653 210.844729 
L 142.227273 210.207166 
L 143.245893 210.152346 
L 144.264513 209.342195 
L 145.283133 208.729176 
L 146.301752 209.608891 
L 147.320372 209.902953 
L 148.338992 210.147548 
L 149.357612 211.732166 
L 150.376232 213.232092 
L 151.394852 210.489107 
L 152.413472 211.18891 
L 153.432092 211.823185 
L 154.450712 212.877458 
L 155.469332 213.584907 
L 156.487952 214.933873 
L 157.506572 215.612276 
L 158.525192 216.27159 
L 159.543812 216.847736 
L 160.562432 217.508423 
L 161.581051 217.693441 
L 162.599671 218.27383 
L 163.618291 218.366463 
L 164.636911 218.302184 
L 165.655531 218.817161 
L 166.674151 219.818775 
L 167.692771 220.382917 
L 168.711391 220.85094 
L 169.730011 221.970493 
L 170.748631 222.449175 
L 171.767251 222.900986 
L 172.785871 222.712213 
L 173.804491 223.640715 
L 174.823111 224.108113 
L 175.841731 224.562724 
L 176.86035 224.998069 
L 177.87897 225.980231 
L 178.89759 226.361503 
L 179.91621 226.705718 
L 180.93483 226.978757 
L 181.95345 227.356899 
L 182.97207 227.659959 
L 183.99069 227.945936 
L 185.00931 228.323707 
L 186.02793 228.731872 
L 187.04655 229.017224 
L 188.06517 229.402079 
L 189.08379 229.799522 
L 190.10241 230.096151 
L 191.12103 230.384639 
L 192.13965 230.661116 
L 193.158269 230.969681 
L 194.176889 231.215416 
L 195.195509 231.466113 
L 196.214129 231.647672 
L 197.232749 231.95647 
L 198.251369 232.260168 
L 199.269989 232.354791 
L 200.288609 232.624254 
L 201.307229 233.10796 
L 202.325849 233.882097 
L 203.344469 234.637798 
L 204.363089 235.607956 
L 205.381709 236.365511 
L 206.400329 236.952351 
L 207.418949 237.132626 
L 208.437568 237.270875 
L 209.456188 237.423751 
L 210.474808 237.58303 
L 211.493428 237.750992 
L 212.512048 237.881986 
L 213.530668 238.041738 
L 214.549288 238.193172 
L 215.567908 238.339225 
L 216.586528 238.47987 
L 217.605148 238.624426 
L 218.623768 238.768159 
L 219.642388 238.905145 
L 220.661008 239.049372 
L 221.679628 239.183558 
L 222.698248 239.326282 
L 223.716867 239.383916 
L 224.735487 239.527114 
L 225.754107 239.654641 
L 226.772727 239.784922 
L 227.791347 239.919485 
L 228.809967 240.131347 
L 229.828587 240.249766 
L 230.847207 240.400322 
L 231.865827 240.522763 
L 232.884447 240.640311 
L 233.903067 240.76672 
L 234.921687 240.874659 
L 235.940307 240.968987 
L 236.958927 241.092472 
L 237.977547 241.212841 
L 238.996166 241.330643 
L 240.014786 241.461444 
L 241.033406 241.569184 
L 242.052026 241.676086 
L 243.070646 241.778136 
L 244.089266 241.883048 
L 245.107886 241.98496 
L 246.126506 242.087305 
L 247.145126 242.201524 
L 248.163746 242.305372 
L 249.182366 242.398245 
L 250.200986 242.493046 
L 251.219606 242.601863 
L 252.238226 242.679101 
L 253.256846 242.764835 
L 254.275465 242.837186 
L 255.294085 242.940883 
L 256.312705 243.012128 
L 257.331325 243.096455 
L 258.349945 243.189061 
L 259.368565 243.291824 
L 260.387185 243.363316 
L 261.405805 243.442057 
L 262.424425 243.530915 
L 263.443045 243.604789 
L 264.461665 243.678573 
L 265.480285 243.750203 
L 266.498905 243.835396 
L 267.517525 243.892838 
L 268.536145 243.969773 
L 269.554765 244.044176 
L 270.573384 244.121482 
L 271.592004 244.183681 
L 272.610624 244.267706 
L 273.629244 244.322863 
L 274.647864 244.382818 
L 275.666484 244.454379 
L 276.685104 244.514168 
L 277.703724 244.580293 
L 278.722344 244.573855 
L 279.740964 244.64519 
L 280.759584 244.709674 
L 281.778204 244.76722 
L 282.796824 244.810015 
L 283.815444 244.956486 
L 284.834064 244.978292 
L 285.852683 245.039187 
L 286.871303 245.115683 
L 287.889923 245.180511 
L 288.908543 245.234803 
L 289.927163 245.327559 
L 290.945783 245.373635 
L 291.964403 245.417103 
L 292.983023 245.4753 
L 294.001643 245.522358 
L 295.020263 245.552222 
L 296.038883 245.598916 
L 297.057503 245.652329 
L 298.076123 245.675995 
L 299.094743 245.711968 
L 300.113363 245.773336 
L 301.131982 245.812981 
L 302.150602 245.841067 
L 303.169222 245.897487 
L 304.187842 245.942046 
L 305.206462 245.96587 
L 306.225082 246.00303 
L 307.243702 246.069869 
L 308.262322 246.109095 
L 309.280942 246.15025 
L 310.299562 246.20435 
L 311.318182 246.24 
L 311.318182 177.097573 
L 311.318182 177.097573 
L 310.299562 176.962234 
L 309.280942 176.914943 
L 308.262322 176.857549 
L 307.243702 176.789529 
L 306.225082 176.740385 
L 305.206462 176.779769 
L 304.187842 176.719149 
L 303.169222 176.670334 
L 302.150602 176.619426 
L 301.131982 176.565738 
L 300.113363 176.513533 
L 299.094743 176.460332 
L 298.076123 176.392018 
L 297.057503 176.34251 
L 296.038883 176.282184 
L 295.020263 176.222841 
L 294.001643 176.151987 
L 292.983023 176.105567 
L 291.964403 176.039189 
L 290.945783 175.980504 
L 289.927163 175.92197 
L 288.908543 175.678103 
L 287.889923 175.611525 
L 286.871303 175.363237 
L 285.852683 175.239676 
L 284.834064 174.984504 
L 283.815444 175.114908 
L 282.796824 174.882111 
L 281.778204 174.995273 
L 280.759584 174.993036 
L 279.740964 175.111174 
L 278.722344 174.985582 
L 277.703724 175.092141 
L 276.685104 175.037128 
L 275.666484 174.788538 
L 274.647864 174.727849 
L 273.629244 174.717005 
L 272.610624 174.645396 
L 271.592004 174.407493 
L 270.573384 174.318463 
L 269.554765 174.084377 
L 268.536145 173.845609 
L 267.517525 173.774631 
L 266.498905 173.676048 
L 265.480285 173.8021 
L 264.461665 173.891053 
L 263.443045 173.993988 
L 262.424425 173.920959 
L 261.405805 174.042666 
L 260.387185 173.970302 
L 259.368565 173.897416 
L 258.349945 173.781193 
L 257.331325 173.70598 
L 256.312705 173.543029 
L 255.294085 173.456924 
L 254.275465 173.379076 
L 253.256846 173.306753 
L 252.238226 173.227566 
L 251.219606 173.23699 
L 250.200986 173.163795 
L 249.182366 173.074025 
L 248.163746 173.017715 
L 247.145126 172.794905 
L 246.126506 172.32111 
L 245.107886 170.930214 
L 244.089266 169.567267 
L 243.070646 168.123012 
L 242.052026 166.842923 
L 241.033406 165.427709 
L 240.014786 164.141607 
L 238.996166 162.821009 
L 237.977547 161.615865 
L 236.958927 160.443036 
L 235.940307 159.393362 
L 234.921687 158.424611 
L 233.903067 157.556139 
L 232.884447 156.782901 
L 231.865827 156.118494 
L 230.847207 155.462611 
L 229.828587 154.987073 
L 228.809967 154.608656 
L 227.791347 154.27333 
L 226.772727 154.004931 
L 225.754107 153.845693 
L 224.735487 153.636549 
L 223.716867 153.442663 
L 222.698248 153.284255 
L 221.679628 153.147318 
L 220.661008 153.027477 
L 219.642388 152.925826 
L 218.623768 152.831628 
L 217.605148 152.754034 
L 216.586528 152.671134 
L 215.567908 152.608681 
L 214.549288 152.551191 
L 213.530668 152.478229 
L 212.512048 152.416442 
L 211.493428 152.367635 
L 210.474808 152.316548 
L 209.456188 152.261782 
L 208.437568 152.228054 
L 207.418949 152.192205 
L 206.400329 152.159218 
L 205.381709 152.094864 
L 204.363089 152.055452 
L 203.344469 152.013776 
L 202.325849 151.983541 
L 201.307229 151.943663 
L 200.288609 151.936484 
L 199.269989 151.908494 
L 198.251369 151.896935 
L 197.232749 151.839788 
L 196.214129 151.797514 
L 195.195509 151.771926 
L 194.176889 151.724629 
L 193.158269 151.691648 
L 192.13965 151.661558 
L 191.12103 151.628036 
L 190.10241 151.599936 
L 189.08379 151.570078 
L 188.06517 151.505306 
L 187.04655 151.498881 
L 186.02793 151.500775 
L 185.00931 151.460328 
L 183.99069 151.454233 
L 182.97207 151.462634 
L 181.95345 151.440835 
L 180.93483 151.410312 
L 179.91621 151.383482 
L 178.89759 151.334248 
L 177.87897 151.30669 
L 176.86035 151.27662 
L 175.841731 151.248061 
L 174.823111 151.228197 
L 173.804491 151.202726 
L 172.785871 151.164948 
L 171.767251 151.131927 
L 170.748631 151.103078 
L 169.730011 151.069899 
L 168.711391 151.054291 
L 167.692771 151.009574 
L 166.674151 150.983389 
L 165.655531 150.951356 
L 164.636911 150.917868 
L 163.618291 150.88403 
L 162.599671 150.864997 
L 161.581051 150.831481 
L 160.562432 150.77209 
L 159.543812 150.73517 
L 158.525192 150.704187 
L 157.506572 150.66494 
L 156.487952 150.61581 
L 155.469332 150.600923 
L 154.450712 150.558656 
L 153.432092 150.510191 
L 152.413472 150.475543 
L 151.394852 150.440971 
L 150.376232 150.369547 
L 149.357612 149.965899 
L 148.338992 148.387603 
L 147.320372 147.403923 
L 146.301752 145.455152 
L 145.283133 144.724242 
L 144.264513 143.393218 
L 143.245893 142.520195 
L 142.227273 141.185753 
L 141.208653 140.872356 
L 140.190033 139.379108 
L 139.171413 138.671322 
L 138.152793 137.873958 
L 137.134173 136.85224 
L 136.115553 135.510653 
L 135.096933 134.94568 
L 134.078313 134.546562 
L 133.059693 133.647499 
L 132.041073 133.549416 
L 131.022453 133.786901 
L 130.003834 131.460975 
L 128.985214 130.862425 
L 127.966594 130.858684 
L 126.947974 130.1203 
L 125.929354 129.474775 
L 124.910734 130.663261 
L 123.892114 129.71215 
L 122.873494 128.768904 
L 121.854874 127.908751 
L 120.836254 126.855186 
L 119.817634 124.940876 
L 118.799014 123.982106 
L 117.780394 123.024556 
L 116.761774 122.107146 
L 115.743154 121.166035 
L 114.724535 121.166646 
L 113.705915 120.678588 
L 112.687295 120.161078 
L 111.668675 119.578343 
L 110.650055 119.674318 
L 109.631435 119.723291 
L 108.612815 119.479341 
L 107.594195 118.542218 
L 106.575575 118.502099 
L 105.556955 117.737173 
L 104.538335 117.114443 
L 103.519715 116.591044 
L 102.501095 116.061296 
L 101.482475 115.416848 
L 100.463855 114.046996 
L 99.445235 112.410969 
L 98.426616 111.891208 
L 97.407996 112.220378 
L 96.389376 111.865435 
L 95.370756 112.323155 
L 94.352136 112.918582 
L 93.333516 112.468961 
L 92.314896 111.944367 
L 91.296276 111.370156 
L 90.277656 106.91994 
L 89.259036 104.451983 
L 88.240416 100.532071 
L 87.221796 95.609473 
L 86.203176 91.153471 
L 85.184556 87.138736 
L 84.165936 84.005789 
L 83.147317 80.888011 
L 82.128697 78.048899 
L 81.110077 74.315865 
L 80.091457 69.542464 
L 79.072837 68.977169 
L 78.054217 67.649089 
L 77.035597 66.331175 
L 76.016977 66.292361 
L 74.998357 69.424093 
L 73.979737 67.985274 
L 72.961117 64.958474 
L 71.942497 61.205727 
L 70.923877 58.120325 
L 69.905257 56.389154 
L 68.886637 55.300535 
L 67.868018 54.937184 
L 66.849398 54.674613 
L 65.830778 54.097684 
L 64.812158 53.580359 
L 63.793538 53.61835 
L 62.774918 51.764654 
L 61.756298 49.41627 
L 60.737678 50.598002 
L 59.719058 48.300732 
L 58.700438 46.171781 
L 57.681818 44.64 
z
" clip-path="url(#pe23e13d04f)" style="fill: #ff0000; fill-opacity: 0.3"/>
   </g>
   <g id="PolyCollection_2">
    <path d="M 57.681818 107.149366 
L 57.681818 161.998915 
L 58.700438 127.694247 
L 59.719058 94.939768 
L 60.737678 70.995484 
L 61.756298 80.094113 
L 62.774918 91.386329 
L 63.793538 100.845564 
L 64.812158 108.855211 
L 65.830778 113.70366 
L 66.849398 120.397973 
L 67.868018 126.69651 
L 68.886637 131.39043 
L 69.905257 135.458008 
L 70.923877 139.217028 
L 71.942497 142.608696 
L 72.961117 145.534668 
L 73.979737 147.961092 
L 74.998357 149.936392 
L 76.016977 151.544223 
L 77.035597 152.871369 
L 78.054217 153.987003 
L 79.072837 154.939007 
L 80.091457 155.77386 
L 81.110077 156.515594 
L 82.128697 157.186439 
L 83.147317 157.796829 
L 84.165936 158.363167 
L 85.184556 158.890163 
L 86.203176 159.386958 
L 87.221796 159.85312 
L 88.240416 160.29423 
L 89.259036 160.713075 
L 90.277656 161.114135 
L 91.296276 161.494508 
L 92.314896 161.861195 
L 93.333516 162.213639 
L 94.352136 162.547669 
L 95.370756 162.874265 
L 96.389376 163.189213 
L 97.407996 163.494208 
L 98.426616 163.791668 
L 99.445235 164.084865 
L 100.463855 164.382421 
L 101.482475 164.752402 
L 102.501095 165.110214 
L 103.519715 165.454175 
L 104.538335 165.785974 
L 105.556955 166.104395 
L 106.575575 166.413687 
L 107.594195 166.709451 
L 108.612815 166.995613 
L 109.631435 167.271061 
L 110.650055 167.538533 
L 111.668675 167.795572 
L 112.687295 168.048211 
L 113.705915 168.282044 
L 114.724535 168.517291 
L 115.743154 168.746525 
L 116.761774 168.971517 
L 117.780394 169.189255 
L 118.799014 169.413259 
L 119.817634 169.678987 
L 120.836254 169.995404 
L 121.854874 170.28042 
L 122.873494 170.534603 
L 123.892114 170.765334 
L 124.910734 170.972247 
L 125.929354 171.15857 
L 126.947974 171.326291 
L 127.966594 171.481445 
L 128.985214 171.623263 
L 130.003834 171.754916 
L 131.022453 171.878964 
L 132.041073 171.995558 
L 133.059693 172.105672 
L 134.078313 172.211771 
L 135.096933 172.332477 
L 136.115553 172.492504 
L 137.134173 172.651667 
L 138.152793 172.808846 
L 139.171413 172.96367 
L 140.190033 173.114294 
L 141.208653 173.268426 
L 142.227273 173.42032 
L 143.245893 173.5685 
L 144.264513 173.718589 
L 145.283133 173.868314 
L 146.301752 174.012671 
L 147.320372 174.155176 
L 148.338992 174.299348 
L 149.357612 174.440994 
L 150.376232 174.58494 
L 151.394852 174.724466 
L 152.413472 174.730801 
L 153.432092 174.867848 
L 154.450712 175.006797 
L 155.469332 175.139988 
L 156.487952 175.239457 
L 157.506572 175.510312 
L 158.525192 175.647477 
L 159.543812 175.779967 
L 160.562432 175.913246 
L 161.581051 176.084015 
L 162.599671 176.212422 
L 163.618291 176.338268 
L 164.636911 176.46782 
L 165.655531 176.595849 
L 166.674151 176.722615 
L 167.692771 176.850575 
L 168.711391 176.977931 
L 169.730011 177.103592 
L 170.748631 177.228031 
L 171.767251 177.348558 
L 172.785871 177.471089 
L 173.804491 177.587339 
L 174.823111 177.709493 
L 175.841731 177.8291 
L 176.86035 177.952235 
L 177.87897 178.071499 
L 178.89759 178.199074 
L 179.91621 178.245082 
L 180.93483 178.368134 
L 181.95345 178.484481 
L 182.97207 178.597705 
L 183.99069 178.712617 
L 185.00931 178.902708 
L 186.02793 179.01718 
L 187.04655 179.13549 
L 188.06517 179.255948 
L 189.08379 179.369872 
L 190.10241 179.290109 
L 191.12103 179.402852 
L 192.13965 179.515445 
L 193.158269 179.627241 
L 194.176889 179.729325 
L 195.195509 180.033806 
L 196.214129 180.144346 
L 197.232749 180.253451 
L 198.251369 180.365275 
L 199.269989 180.485781 
L 200.288609 180.592875 
L 201.307229 180.701102 
L 202.325849 180.810228 
L 203.344469 180.917151 
L 204.363089 181.024767 
L 205.381709 181.133962 
L 206.400329 181.241455 
L 207.418949 181.348041 
L 208.437568 181.455273 
L 209.456188 181.563219 
L 210.474808 181.656393 
L 211.493428 181.762403 
L 212.512048 181.819846 
L 213.530668 181.924909 
L 214.549288 181.969104 
L 215.567908 182.082692 
L 216.586528 182.182483 
L 217.605148 182.334219 
L 218.623768 182.4355 
L 219.642388 182.595562 
L 220.661008 182.698284 
L 221.679628 182.74622 
L 222.698248 182.84759 
L 223.716867 182.948246 
L 224.735487 183.051305 
L 225.754107 183.149442 
L 226.772727 183.306916 
L 227.791347 183.366898 
L 228.809967 183.464246 
L 229.828587 183.563921 
L 230.847207 183.665181 
L 231.865827 183.743373 
L 232.884447 183.87946 
L 233.903067 183.977693 
L 234.921687 184.073922 
L 235.940307 184.132847 
L 236.958927 184.246606 
L 237.977547 184.339575 
L 238.996166 184.277129 
L 240.014786 184.372583 
L 241.033406 184.505842 
L 242.052026 184.597671 
L 243.070646 184.698149 
L 244.089266 184.952251 
L 245.107886 185.012885 
L 246.126506 185.104392 
L 247.145126 185.203071 
L 248.163746 185.234088 
L 249.182366 185.325252 
L 250.200986 185.451407 
L 251.219606 185.548302 
L 252.238226 185.640324 
L 253.256846 185.791003 
L 254.275465 185.887115 
L 255.294085 185.977922 
L 256.312705 186.066086 
L 257.331325 186.139693 
L 258.349945 186.227706 
L 259.368565 186.253006 
L 260.387185 186.342866 
L 261.405805 186.433 
L 262.424425 186.530162 
L 263.443045 186.6232 
L 264.461665 186.771593 
L 265.480285 186.775046 
L 266.498905 186.848282 
L 267.517525 186.93972 
L 268.536145 187.024439 
L 269.554765 187.115973 
L 270.573384 187.289989 
L 271.592004 187.392066 
L 272.610624 187.480004 
L 273.629244 187.560405 
L 274.647864 187.640532 
L 275.666484 187.692628 
L 276.685104 187.774477 
L 277.703724 187.86164 
L 278.722344 187.950957 
L 279.740964 188.039574 
L 280.759584 188.147136 
L 281.778204 188.234902 
L 282.796824 188.321886 
L 283.815444 188.403783 
L 284.834064 188.482922 
L 285.852683 188.484377 
L 286.871303 188.561711 
L 287.889923 188.636422 
L 288.908543 188.72136 
L 289.927163 188.803361 
L 290.945783 188.973169 
L 291.964403 189.058753 
L 292.983023 189.144913 
L 294.001643 189.225953 
L 295.020263 189.309141 
L 296.038883 189.390606 
L 297.057503 189.4677 
L 298.076123 189.546083 
L 299.094743 189.613505 
L 300.113363 189.643651 
L 301.131982 189.717024 
L 302.150602 189.79619 
L 303.169222 189.876461 
L 304.187842 189.961797 
L 305.206462 189.785757 
L 306.225082 189.868925 
L 307.243702 189.947487 
L 308.262322 190.021615 
L 309.280942 190.101035 
L 310.299562 190.482355 
L 311.318182 190.54441 
L 311.318182 150.28152 
L 311.318182 150.28152 
L 310.299562 150.251951 
L 309.280942 150.215772 
L 308.262322 150.181735 
L 307.243702 150.146222 
L 306.225082 150.107696 
L 305.206462 150.071463 
L 304.187842 150.035072 
L 303.169222 149.998323 
L 302.150602 149.961266 
L 301.131982 149.92644 
L 300.113363 149.890824 
L 299.094743 149.853705 
L 298.076123 149.816915 
L 297.057503 149.779687 
L 296.038883 149.741991 
L 295.020263 149.704378 
L 294.001643 149.667616 
L 292.983023 149.630785 
L 291.964403 149.593776 
L 290.945783 149.555188 
L 289.927163 149.517918 
L 288.908543 149.481829 
L 287.889923 149.445527 
L 286.871303 149.410062 
L 285.852683 149.373938 
L 284.834064 149.337176 
L 283.815444 149.299598 
L 282.796824 149.260948 
L 281.778204 149.223211 
L 280.759584 149.187575 
L 279.740964 149.149207 
L 278.722344 149.111024 
L 277.703724 149.07396 
L 276.685104 149.036381 
L 275.666484 148.996702 
L 274.647864 148.960482 
L 273.629244 148.924002 
L 272.610624 148.887295 
L 271.592004 148.849757 
L 270.573384 148.814313 
L 269.554765 148.761819 
L 268.536145 148.723918 
L 267.517525 148.685563 
L 266.498905 148.648582 
L 265.480285 148.610083 
L 264.461665 148.588037 
L 263.443045 148.548632 
L 262.424425 148.511321 
L 261.405805 148.473406 
L 260.387185 148.435017 
L 259.368565 148.396258 
L 258.349945 148.360539 
L 257.331325 148.323146 
L 256.312705 148.283686 
L 255.294085 148.248187 
L 254.275465 148.210169 
L 253.256846 148.171389 
L 252.238226 148.133096 
L 251.219606 148.084934 
L 250.200986 148.013826 
L 249.182366 147.942217 
L 248.163746 147.871665 
L 247.145126 147.80532 
L 246.126506 147.743759 
L 245.107886 147.67679 
L 244.089266 147.61131 
L 243.070646 147.536462 
L 242.052026 147.470495 
L 241.033406 147.406086 
L 240.014786 147.341491 
L 238.996166 147.27805 
L 237.977547 147.224637 
L 236.958927 147.163673 
L 235.940307 147.09993 
L 234.921687 147.039138 
L 233.903067 146.978271 
L 232.884447 146.882735 
L 231.865827 146.823487 
L 230.847207 146.766752 
L 229.828587 146.708101 
L 228.809967 146.649732 
L 227.791347 146.626135 
L 226.772727 146.56791 
L 225.754107 146.509184 
L 224.735487 146.452359 
L 223.716867 146.395734 
L 222.698248 146.340062 
L 221.679628 146.285063 
L 220.661008 146.229303 
L 219.642388 146.174057 
L 218.623768 146.118399 
L 217.605148 146.064127 
L 216.586528 146.008071 
L 215.567908 145.954589 
L 214.549288 145.900956 
L 213.530668 145.848669 
L 212.512048 145.795187 
L 211.493428 145.743565 
L 210.474808 145.689842 
L 209.456188 145.637191 
L 208.437568 145.583894 
L 207.418949 145.531085 
L 206.400329 145.478742 
L 205.381709 145.427004 
L 204.363089 145.373933 
L 203.344469 145.321948 
L 202.325849 145.271239 
L 201.307229 145.2188 
L 200.288609 145.167754 
L 199.269989 145.117073 
L 198.251369 145.065622 
L 197.232749 144.996958 
L 196.214129 144.946221 
L 195.195509 144.893762 
L 194.176889 144.841728 
L 193.158269 144.790429 
L 192.13965 144.756083 
L 191.12103 144.699183 
L 190.10241 144.648597 
L 189.08379 144.599844 
L 188.06517 144.541441 
L 187.04655 144.489139 
L 186.02793 144.444223 
L 185.00931 144.394022 
L 183.99069 144.342551 
L 182.97207 144.300319 
L 181.95345 144.250969 
L 180.93483 144.200294 
L 179.91621 144.148137 
L 178.89759 144.085999 
L 177.87897 144.033238 
L 176.86035 143.982426 
L 175.841731 143.929301 
L 174.823111 143.867679 
L 173.804491 143.826387 
L 172.785871 143.774572 
L 171.767251 143.720905 
L 170.748631 143.669311 
L 169.730011 143.626907 
L 168.711391 143.573411 
L 167.692771 143.519901 
L 166.674151 143.466474 
L 165.655531 143.414132 
L 164.636911 143.361027 
L 163.618291 143.306749 
L 162.599671 143.253171 
L 161.581051 143.198721 
L 160.562432 143.142274 
L 159.543812 143.086403 
L 158.525192 143.031363 
L 157.506572 142.975122 
L 156.487952 142.919848 
L 155.469332 142.864719 
L 154.450712 142.804003 
L 153.432092 142.747363 
L 152.413472 142.691706 
L 151.394852 142.632671 
L 150.376232 142.574501 
L 149.357612 142.521005 
L 148.338992 142.462183 
L 147.320372 142.404624 
L 146.301752 142.347216 
L 145.283133 142.287076 
L 144.264513 142.226676 
L 143.245893 142.165348 
L 142.227273 142.102003 
L 141.208653 142.03874 
L 140.190033 141.976033 
L 139.171413 141.912558 
L 138.152793 141.843777 
L 137.134173 141.778716 
L 136.115553 141.714602 
L 135.096933 141.648442 
L 134.078313 141.583223 
L 133.059693 141.520825 
L 132.041073 141.455064 
L 131.022453 141.386791 
L 130.003834 141.318078 
L 128.985214 141.248171 
L 127.966594 141.180427 
L 126.947974 141.108014 
L 125.929354 141.035877 
L 124.910734 140.963829 
L 123.892114 140.888328 
L 122.873494 140.809505 
L 121.854874 140.734107 
L 120.836254 140.658085 
L 119.817634 140.580223 
L 118.799014 140.506335 
L 117.780394 140.429242 
L 116.761774 140.349678 
L 115.743154 140.267409 
L 114.724535 140.185889 
L 113.705915 140.099825 
L 112.687295 140.016101 
L 111.668675 139.930449 
L 110.650055 139.843314 
L 109.631435 139.753146 
L 108.612815 139.66295 
L 107.594195 139.309482 
L 106.575575 138.84113 
L 105.556955 138.35728 
L 104.538335 137.853518 
L 103.519715 137.32946 
L 102.501095 136.787303 
L 101.482475 136.230498 
L 100.463855 135.651825 
L 99.445235 135.056742 
L 98.426616 134.446132 
L 97.407996 133.817691 
L 96.389376 133.173436 
L 95.370756 132.514568 
L 94.352136 131.8392 
L 93.333516 131.14801 
L 92.314896 130.444494 
L 91.296276 129.724868 
L 90.277656 128.988145 
L 89.259036 128.23534 
L 88.240416 127.464498 
L 87.221796 126.673393 
L 86.203176 125.860476 
L 85.184556 125.023351 
L 84.165936 124.159745 
L 83.147317 123.265514 
L 82.128697 122.337671 
L 81.110077 121.373415 
L 80.091457 120.368939 
L 79.072837 119.322896 
L 78.054217 118.226906 
L 77.035597 117.076226 
L 76.016977 115.86776 
L 74.998357 114.586909 
L 73.979737 113.234662 
L 72.961117 111.798912 
L 71.942497 110.261777 
L 70.923877 105.370821 
L 69.905257 98.995698 
L 68.886637 90.480168 
L 67.868018 82.178368 
L 66.849398 74.477547 
L 65.830778 65.770691 
L 64.812158 61.10177 
L 63.793538 57.867267 
L 62.774918 55.970028 
L 61.756298 56.25293 
L 60.737678 57.915492 
L 59.719058 73.871056 
L 58.700438 91.825188 
L 57.681818 107.149366 
z
" clip-path="url(#pe23e13d04f)" style="fill: #0000ff; fill-opacity: 0.3"/>
   </g>
   <g id="PolyCollection_3">
    <path d="M 57.681818 135.423442 
L 57.681818 172.726508 
L 58.700438 157.852528 
L 59.719058 144.11204 
L 60.737678 127.351459 
L 61.756298 113.118322 
L 62.774918 105.086142 
L 63.793538 105.637559 
L 64.812158 112.923153 
L 65.830778 120.519 
L 66.849398 122.508186 
L 67.868018 124.303945 
L 68.886637 128.972331 
L 69.905257 133.410968 
L 70.923877 138.769137 
L 71.942497 140.990933 
L 72.961117 138.626015 
L 73.979737 143.191315 
L 74.998357 147.750493 
L 76.016977 152.179143 
L 77.035597 147.388068 
L 78.054217 146.645991 
L 79.072837 142.068748 
L 80.091457 141.204388 
L 81.110077 143.899513 
L 82.128697 148.979673 
L 83.147317 155.778939 
L 84.165936 157.464907 
L 85.184556 160.07105 
L 86.203176 158.005492 
L 87.221796 156.293649 
L 88.240416 154.555723 
L 89.259036 153.270185 
L 90.277656 152.322211 
L 91.296276 152.838499 
L 92.314896 153.280892 
L 93.333516 152.189556 
L 94.352136 153.269732 
L 95.370756 150.235746 
L 96.389376 150.529643 
L 97.407996 151.327796 
L 98.426616 152.007805 
L 99.445235 149.990972 
L 100.463855 154.020663 
L 101.482475 157.530276 
L 102.501095 158.46092 
L 103.519715 155.537447 
L 104.538335 155.709932 
L 105.556955 156.49595 
L 106.575575 156.562953 
L 107.594195 159.596136 
L 108.612815 162.564354 
L 109.631435 165.522826 
L 110.650055 168.852679 
L 111.668675 171.594738 
L 112.687295 175.737865 
L 113.705915 176.263247 
L 114.724535 178.636807 
L 115.743154 179.465024 
L 116.761774 181.031041 
L 117.780394 181.906967 
L 118.799014 183.858409 
L 119.817634 180.943302 
L 120.836254 175.72781 
L 121.854874 174.837806 
L 122.873494 174.120782 
L 123.892114 174.387574 
L 124.910734 177.198634 
L 125.929354 183.750374 
L 126.947974 182.792605 
L 127.966594 182.248567 
L 128.985214 182.665764 
L 130.003834 182.736034 
L 131.022453 186.528241 
L 132.041073 186.518432 
L 133.059693 188.989176 
L 134.078313 185.577301 
L 135.096933 185.004257 
L 136.115553 180.961731 
L 137.134173 180.933514 
L 138.152793 180.392386 
L 139.171413 183.028037 
L 140.190033 183.039355 
L 141.208653 185.192501 
L 142.227273 185.617227 
L 143.245893 187.214419 
L 144.264513 185.323859 
L 145.283133 189.949457 
L 146.301752 192.326812 
L 147.320372 193.36838 
L 148.338992 186.706924 
L 149.357612 176.755149 
L 150.376232 170.551083 
L 151.394852 176.732684 
L 152.413472 178.18337 
L 153.432092 179.70581 
L 154.450712 179.768894 
L 155.469332 184.57767 
L 156.487952 179.773204 
L 157.506572 188.102048 
L 158.525192 189.738645 
L 159.543812 193.504117 
L 160.562432 194.565576 
L 161.581051 195.604446 
L 162.599671 197.473228 
L 163.618291 199.679101 
L 164.636911 199.373961 
L 165.655531 198.473703 
L 166.674151 196.030847 
L 167.692771 194.278151 
L 168.711391 194.708684 
L 169.730011 194.990419 
L 170.748631 195.881211 
L 171.767251 193.611108 
L 172.785871 187.726891 
L 173.804491 188.076268 
L 174.823111 188.073893 
L 175.841731 187.663176 
L 176.86035 187.776804 
L 177.87897 191.166845 
L 178.89759 192.778225 
L 179.91621 181.379628 
L 180.93483 177.445611 
L 181.95345 177.231435 
L 182.97207 177.445933 
L 183.99069 177.706898 
L 185.00931 180.242421 
L 186.02793 180.571124 
L 187.04655 182.796833 
L 188.06517 180.385996 
L 189.08379 181.59101 
L 190.10241 180.645019 
L 191.12103 178.621488 
L 192.13965 177.707537 
L 193.158269 177.966196 
L 194.176889 180.548659 
L 195.195509 181.688056 
L 196.214129 187.292007 
L 197.232749 188.010445 
L 198.251369 185.504683 
L 199.269989 185.134757 
L 200.288609 185.873148 
L 201.307229 190.411247 
L 202.325849 192.194274 
L 203.344469 190.100376 
L 204.363089 185.79764 
L 205.381709 186.37636 
L 206.400329 187.055174 
L 207.418949 187.588814 
L 208.437568 191.261475 
L 209.456188 196.212578 
L 210.474808 197.943221 
L 211.493428 194.271171 
L 212.512048 189.30087 
L 213.530668 189.392693 
L 214.549288 191.945011 
L 215.567908 192.056155 
L 216.586528 198.306771 
L 217.605148 198.034851 
L 218.623768 192.197411 
L 219.642388 187.875909 
L 220.661008 188.741354 
L 221.679628 190.970886 
L 222.698248 192.202105 
L 223.716867 189.2032 
L 224.735487 190.328079 
L 225.754107 192.271182 
L 226.772727 193.880866 
L 227.791347 195.319547 
L 228.809967 195.121598 
L 229.828587 193.787883 
L 230.847207 192.032867 
L 231.865827 190.415413 
L 232.884447 188.542376 
L 233.903067 189.67543 
L 234.921687 191.550883 
L 235.940307 192.484973 
L 236.958927 191.697314 
L 237.977547 188.130731 
L 238.996166 187.429912 
L 240.014786 186.466618 
L 241.033406 189.5938 
L 242.052026 191.923013 
L 243.070646 187.021309 
L 244.089266 183.427821 
L 245.107886 184.486747 
L 246.126506 185.617619 
L 247.145126 183.748026 
L 248.163746 183.724758 
L 249.182366 184.503961 
L 250.200986 184.466259 
L 251.219606 183.540434 
L 252.238226 177.890715 
L 253.256846 176.393878 
L 254.275465 177.532135 
L 255.294085 176.854144 
L 256.312705 178.281672 
L 257.331325 180.03734 
L 258.349945 182.087805 
L 259.368565 188.186204 
L 260.387185 190.228507 
L 261.405805 190.896545 
L 262.424425 191.572346 
L 263.443045 191.517697 
L 264.461665 192.391585 
L 265.480285 193.660493 
L 266.498905 194.953011 
L 267.517525 195.421913 
L 268.536145 192.626104 
L 269.554765 194.278144 
L 270.573384 190.061335 
L 271.592004 188.061854 
L 272.610624 193.605322 
L 273.629244 193.849169 
L 274.647864 192.201179 
L 275.666484 197.620441 
L 276.685104 200.774377 
L 277.703724 199.142187 
L 278.722344 196.705008 
L 279.740964 193.739116 
L 280.759584 191.27663 
L 281.778204 185.973399 
L 282.796824 186.6376 
L 283.815444 187.7028 
L 284.834064 191.529098 
L 285.852683 186.739176 
L 286.871303 188.721807 
L 287.889923 182.873453 
L 288.908543 183.60196 
L 289.927163 182.738697 
L 290.945783 182.396281 
L 291.964403 182.868339 
L 292.983023 187.674041 
L 294.001643 187.485474 
L 295.020263 187.40081 
L 296.038883 186.66673 
L 297.057503 182.178996 
L 298.076123 178.426984 
L 299.094743 183.465351 
L 300.113363 181.597084 
L 301.131982 179.282717 
L 302.150602 181.706162 
L 303.169222 185.903835 
L 304.187842 190.609155 
L 305.206462 190.991313 
L 306.225082 193.550749 
L 307.243702 195.697731 
L 308.262322 190.762868 
L 309.280942 190.76897 
L 310.299562 190.2754 
L 311.318182 192.031604 
L 311.318182 153.528535 
L 311.318182 153.528535 
L 310.299562 151.744746 
L 309.280942 152.017489 
L 308.262322 153.16285 
L 307.243702 150.834858 
L 306.225082 151.994921 
L 305.206462 153.061659 
L 304.187842 146.481118 
L 303.169222 143.684685 
L 302.150602 137.003901 
L 301.131982 130.333851 
L 300.113363 130.246311 
L 299.094743 137.145444 
L 298.076123 139.649991 
L 297.057503 145.56657 
L 296.038883 151.418404 
L 295.020263 152.264075 
L 294.001643 151.730291 
L 292.983023 150.470368 
L 291.964403 142.938648 
L 290.945783 138.733446 
L 289.927163 137.247089 
L 288.908543 136.452148 
L 287.889923 136.776931 
L 286.871303 145.589481 
L 285.852683 150.271924 
L 284.834064 151.659197 
L 283.815444 141.383448 
L 282.796824 143.057328 
L 281.778204 145.332669 
L 280.759584 146.929476 
L 279.740964 150.627952 
L 278.722344 150.187906 
L 277.703724 153.260809 
L 276.685104 152.814881 
L 275.666484 154.978095 
L 274.647864 155.681399 
L 273.629244 155.987891 
L 272.610624 156.255775 
L 271.592004 156.764081 
L 270.573384 154.933605 
L 269.554765 152.52574 
L 268.536145 140.773189 
L 267.517525 138.230411 
L 266.498905 136.37596 
L 265.480285 135.6946 
L 264.461665 136.564342 
L 263.443045 135.126985 
L 262.424425 142.428709 
L 261.405805 144.21317 
L 260.387185 140.442008 
L 259.368565 141.497098 
L 258.349945 132.505343 
L 257.331325 131.634922 
L 256.312705 133.278828 
L 255.294085 134.357529 
L 254.275465 128.173485 
L 253.256846 130.95306 
L 252.238226 129.891457 
L 251.219606 139.833787 
L 250.200986 143.412525 
L 249.182366 131.465745 
L 248.163746 129.133683 
L 247.145126 128.832641 
L 246.126506 130.751652 
L 245.107886 134.998284 
L 244.089266 144.264065 
L 243.070646 143.560912 
L 242.052026 142.989186 
L 241.033406 146.20471 
L 240.014786 148.905772 
L 238.996166 149.246747 
L 237.977547 148.331163 
L 236.958927 148.732937 
L 235.940307 148.23109 
L 234.921687 146.955634 
L 233.903067 147.588846 
L 232.884447 147.74704 
L 231.865827 146.766264 
L 230.847207 147.056531 
L 229.828587 147.315862 
L 228.809967 145.874236 
L 227.791347 145.137856 
L 226.772727 145.763785 
L 225.754107 144.593035 
L 224.735487 144.827404 
L 223.716867 145.711298 
L 222.698248 146.108611 
L 221.679628 146.894293 
L 220.661008 146.050887 
L 219.642388 145.499876 
L 218.623768 144.566363 
L 217.605148 148.969021 
L 216.586528 149.080741 
L 215.567908 147.51563 
L 214.549288 144.803388 
L 213.530668 145.716673 
L 212.512048 141.813439 
L 211.493428 140.230208 
L 210.474808 138.182564 
L 209.456188 137.830682 
L 208.437568 138.011665 
L 207.418949 138.494705 
L 206.400329 139.222773 
L 205.381709 134.375725 
L 204.363089 129.149806 
L 203.344469 121.999434 
L 202.325849 115.373003 
L 201.307229 111.320827 
L 200.288609 110.788374 
L 199.269989 114.048877 
L 198.251369 117.2811 
L 197.232749 130.070936 
L 196.214129 138.515269 
L 195.195509 136.631435 
L 194.176889 134.439241 
L 193.158269 129.490466 
L 192.13965 127.91694 
L 191.12103 125.639705 
L 190.10241 132.591057 
L 189.08379 137.536888 
L 188.06517 136.251933 
L 187.04655 133.684316 
L 186.02793 133.640306 
L 185.00931 131.67876 
L 183.99069 119.859906 
L 182.97207 131.999838 
L 181.95345 143.955143 
L 180.93483 142.798539 
L 179.91621 142.452244 
L 178.89759 146.164928 
L 177.87897 149.203712 
L 176.86035 151.690571 
L 175.841731 153.761105 
L 174.823111 154.763007 
L 173.804491 153.539709 
L 172.785871 150.505085 
L 171.767251 149.067728 
L 170.748631 145.047454 
L 169.730011 143.092567 
L 168.711391 141.007399 
L 167.692771 139.576213 
L 166.674151 139.57878 
L 165.655531 140.245795 
L 164.636911 139.615892 
L 163.618291 140.164399 
L 162.599671 142.603596 
L 161.581051 143.49281 
L 160.562432 146.259764 
L 159.543812 147.659466 
L 158.525192 146.713791 
L 157.506572 144.933558 
L 156.487952 144.346841 
L 155.469332 137.651416 
L 154.450712 136.94604 
L 153.432092 135.026898 
L 152.413472 135.003665 
L 151.394852 130.531663 
L 150.376232 135.499204 
L 149.357612 138.910708 
L 148.338992 136.631071 
L 147.320372 134.23285 
L 146.301752 134.706809 
L 145.283133 135.878678 
L 144.264513 136.136987 
L 143.245893 138.075559 
L 142.227273 140.372952 
L 141.208653 136.036406 
L 140.190033 136.684402 
L 139.171413 135.88141 
L 138.152793 136.625394 
L 137.134173 136.47 
L 136.115553 141.605071 
L 135.096933 140.073008 
L 134.078313 140.779394 
L 133.059693 138.890556 
L 132.041073 137.3176 
L 131.022453 137.42663 
L 130.003834 137.07912 
L 128.985214 136.722866 
L 127.966594 136.513852 
L 126.947974 134.139208 
L 125.929354 135.581568 
L 124.910734 135.291048 
L 123.892114 134.856617 
L 122.873494 129.887964 
L 121.854874 130.788009 
L 120.836254 130.491345 
L 119.817634 128.355194 
L 118.799014 124.505546 
L 117.780394 128.12885 
L 116.761774 126.298374 
L 115.743154 125.45748 
L 114.724535 123.237359 
L 113.705915 126.492809 
L 112.687295 126.870348 
L 111.668675 126.897809 
L 110.650055 126.157291 
L 109.631435 130.840832 
L 108.612815 128.500767 
L 107.594195 124.867119 
L 106.575575 125.065583 
L 105.556955 122.625033 
L 104.538335 122.742053 
L 103.519715 115.870862 
L 102.501095 112.947842 
L 101.482475 112.296661 
L 100.463855 107.611616 
L 99.445235 100.831239 
L 98.426616 108.756916 
L 97.407996 111.269452 
L 96.389376 109.766437 
L 95.370756 111.59554 
L 94.352136 114.533969 
L 93.333516 113.721382 
L 92.314896 111.488219 
L 91.296276 109.733889 
L 90.277656 106.889287 
L 89.259036 114.913649 
L 88.240416 117.126138 
L 87.221796 114.445427 
L 86.203176 114.684175 
L 85.184556 116.463502 
L 84.165936 119.451673 
L 83.147317 120.776067 
L 82.128697 122.182407 
L 81.110077 123.484013 
L 80.091457 125.08091 
L 79.072837 116.347602 
L 78.054217 114.822568 
L 77.035597 110.105442 
L 76.016977 108.296958 
L 74.998357 107.870673 
L 73.979737 113.34534 
L 72.961117 110.533182 
L 71.942497 108.215815 
L 70.923877 104.471257 
L 69.905257 103.027626 
L 68.886637 99.790818 
L 67.868018 97.209184 
L 66.849398 94.161835 
L 65.830778 90.268121 
L 64.812158 88.492946 
L 63.793538 88.198397 
L 62.774918 89.709154 
L 61.756298 91.887339 
L 60.737678 92.083256 
L 59.719058 106.362833 
L 58.700438 121.73978 
L 57.681818 135.423442 
z
" clip-path="url(#pe23e13d04f)" style="fill: #008000; fill-opacity: 0.3"/>
   </g>
   <g id="matplotlib.axis_1">
    <g id="xtick_1">
     <g id="line2d_1">
      <defs>
       <path id="m94f2c706b8" d="M 0 0 
L 0 3.5 
" style="stroke: #000000; stroke-width: 0.8"/>
      </defs>
      <g>
       <use xlink:href="#m94f2c706b8" x="57.681818" y="256.32" style="stroke: #000000; stroke-width: 0.8"/>
      </g>
     </g>
     <g id="text_1">
      <!-- 0 -->
      <g transform="translate(55.181818 270.26375)scale(0.1 -0.1)">
       <defs>
        <path id="TimesNewRomanPSMT-30" d="M 231 2094 
Q 231 2819 450 3342 
Q 669 3866 1031 4122 
Q 1313 4325 1613 4325 
Q 2100 4325 2488 3828 
Q 2972 3213 2972 2159 
Q 2972 1422 2759 906 
Q 2547 391 2217 158 
Q 1888 -75 1581 -75 
Q 975 -75 572 641 
Q 231 1244 231 2094 
z
M 844 2016 
Q 844 1141 1059 588 
Q 1238 122 1591 122 
Q 1759 122 1940 273 
Q 2122 425 2216 781 
Q 2359 1319 2359 2297 
Q 2359 3022 2209 3506 
Q 2097 3866 1919 4016 
Q 1791 4119 1609 4119 
Q 1397 4119 1231 3928 
Q 1006 3669 925 3112 
Q 844 2556 844 2016 
z
" transform="scale(0.015625)"/>
       </defs>
       <use xlink:href="#TimesNewRomanPSMT-30"/>
      </g>
     </g>
    </g>
    <g id="xtick_2">
     <g id="line2d_2">
      <g>
       <use xlink:href="#m94f2c706b8" x="108.612815" y="256.32" style="stroke: #000000; stroke-width: 0.8"/>
      </g>
     </g>
     <g id="text_2">
      <!-- 50 -->
      <g transform="translate(103.612815 270.26375)scale(0.1 -0.1)">
       <defs>
        <path id="TimesNewRomanPSMT-35" d="M 2778 4238 
L 2534 3706 
L 1259 3706 
L 981 3138 
Q 1809 3016 2294 2522 
Q 2709 2097 2709 1522 
Q 2709 1188 2573 903 
Q 2438 619 2231 419 
Q 2025 219 1772 97 
Q 1413 -75 1034 -75 
Q 653 -75 479 54 
Q 306 184 306 341 
Q 306 428 378 495 
Q 450 563 559 563 
Q 641 563 702 538 
Q 763 513 909 409 
Q 1144 247 1384 247 
Q 1750 247 2026 523 
Q 2303 800 2303 1197 
Q 2303 1581 2056 1914 
Q 1809 2247 1375 2428 
Q 1034 2569 447 2591 
L 1259 4238 
L 2778 4238 
z
" transform="scale(0.015625)"/>
       </defs>
       <use xlink:href="#TimesNewRomanPSMT-35"/>
       <use xlink:href="#TimesNewRomanPSMT-30" x="50"/>
      </g>
     </g>
    </g>
    <g id="xtick_3">
     <g id="line2d_3">
      <g>
       <use xlink:href="#m94f2c706b8" x="159.543812" y="256.32" style="stroke: #000000; stroke-width: 0.8"/>
      </g>
     </g>
     <g id="text_3">
      <!-- 100 -->
      <g transform="translate(152.043812 270.26375)scale(0.1 -0.1)">
       <defs>
        <path id="TimesNewRomanPSMT-31" d="M 750 3822 
L 1781 4325 
L 1884 4325 
L 1884 747 
Q 1884 391 1914 303 
Q 1944 216 2037 169 
Q 2131 122 2419 116 
L 2419 0 
L 825 0 
L 825 116 
Q 1125 122 1212 167 
Q 1300 213 1334 289 
Q 1369 366 1369 747 
L 1369 3034 
Q 1369 3497 1338 3628 
Q 1316 3728 1258 3775 
Q 1200 3822 1119 3822 
Q 1003 3822 797 3725 
L 750 3822 
z
" transform="scale(0.015625)"/>
       </defs>
       <use xlink:href="#TimesNewRomanPSMT-31"/>
       <use xlink:href="#TimesNewRomanPSMT-30" x="50"/>
       <use xlink:href="#TimesNewRomanPSMT-30" x="100"/>
      </g>
     </g>
    </g>
    <g id="xtick_4">
     <g id="line2d_4">
      <g>
       <use xlink:href="#m94f2c706b8" x="210.474808" y="256.32" style="stroke: #000000; stroke-width: 0.8"/>
      </g>
     </g>
     <g id="text_4">
      <!-- 150 -->
      <g transform="translate(202.974808 270.26375)scale(0.1 -0.1)">
       <use xlink:href="#TimesNewRomanPSMT-31"/>
       <use xlink:href="#TimesNewRomanPSMT-35" x="50"/>
       <use xlink:href="#TimesNewRomanPSMT-30" x="100"/>
      </g>
     </g>
    </g>
    <g id="xtick_5">
     <g id="line2d_5">
      <g>
       <use xlink:href="#m94f2c706b8" x="261.405805" y="256.32" style="stroke: #000000; stroke-width: 0.8"/>
      </g>
     </g>
     <g id="text_5">
      <!-- 200 -->
      <g transform="translate(253.905805 270.26375)scale(0.1 -0.1)">
       <defs>
        <path id="TimesNewRomanPSMT-32" d="M 2934 816 
L 2638 0 
L 138 0 
L 138 116 
Q 1241 1122 1691 1759 
Q 2141 2397 2141 2925 
Q 2141 3328 1894 3587 
Q 1647 3847 1303 3847 
Q 991 3847 742 3664 
Q 494 3481 375 3128 
L 259 3128 
Q 338 3706 661 4015 
Q 984 4325 1469 4325 
Q 1984 4325 2329 3994 
Q 2675 3663 2675 3213 
Q 2675 2891 2525 2569 
Q 2294 2063 1775 1497 
Q 997 647 803 472 
L 1909 472 
Q 2247 472 2383 497 
Q 2519 522 2628 598 
Q 2738 675 2819 816 
L 2934 816 
z
" transform="scale(0.015625)"/>
       </defs>
       <use xlink:href="#TimesNewRomanPSMT-32"/>
       <use xlink:href="#TimesNewRomanPSMT-30" x="50"/>
       <use xlink:href="#TimesNewRomanPSMT-30" x="100"/>
      </g>
     </g>
    </g>
    <g id="xtick_6">
     <g id="line2d_6">
      <g>
       <use xlink:href="#m94f2c706b8" x="312.336802" y="256.32" style="stroke: #000000; stroke-width: 0.8"/>
      </g>
     </g>
     <g id="text_6">
      <!-- 250k -->
      <g transform="translate(302.336802 270.26375)scale(0.1 -0.1)">
       <defs>
        <path id="TimesNewRomanPSMT-6b" d="M 1047 4444 
L 1047 1597 
L 1775 2259 
Q 2006 2472 2044 2528 
Q 2069 2566 2069 2603 
Q 2069 2666 2017 2711 
Q 1966 2756 1847 2763 
L 1847 2863 
L 3091 2863 
L 3091 2763 
Q 2834 2756 2664 2684 
Q 2494 2613 2291 2428 
L 1556 1750 
L 2291 822 
Q 2597 438 2703 334 
Q 2853 188 2966 144 
Q 3044 113 3238 113 
L 3238 0 
L 1847 0 
L 1847 113 
Q 1966 116 2008 148 
Q 2050 181 2050 241 
Q 2050 313 1925 472 
L 1047 1594 
L 1047 644 
Q 1047 366 1086 278 
Q 1125 191 1197 153 
Q 1269 116 1509 113 
L 1509 0 
L 53 0 
L 53 113 
Q 272 113 381 166 
Q 447 200 481 272 
Q 528 375 528 628 
L 528 3234 
Q 528 3731 506 3842 
Q 484 3953 434 3995 
Q 384 4038 303 4038 
Q 238 4038 106 3984 
L 53 4094 
L 903 4444 
L 1047 4444 
z
" transform="scale(0.015625)"/>
       </defs>
       <use xlink:href="#TimesNewRomanPSMT-32"/>
       <use xlink:href="#TimesNewRomanPSMT-35" x="50"/>
       <use xlink:href="#TimesNewRomanPSMT-30" x="100"/>
       <use xlink:href="#TimesNewRomanPSMT-6b" x="150"/>
      </g>
     </g>
    </g>
    <g id="text_7">
     <!-- Epochs -->
     <g transform="translate(169.780469 283.346563)scale(0.1 -0.1)">
      <defs>
       <path id="TimesNewRomanPSMT-45" d="M 1338 4006 
L 1338 2331 
L 2269 2331 
Q 2631 2331 2753 2441 
Q 2916 2584 2934 2947 
L 3050 2947 
L 3050 1472 
L 2934 1472 
Q 2891 1781 2847 1869 
Q 2791 1978 2662 2040 
Q 2534 2103 2269 2103 
L 1338 2103 
L 1338 706 
Q 1338 425 1363 364 
Q 1388 303 1450 267 
Q 1513 231 1688 231 
L 2406 231 
Q 2766 231 2928 281 
Q 3091 331 3241 478 
Q 3434 672 3638 1063 
L 3763 1063 
L 3397 0 
L 131 0 
L 131 116 
L 281 116 
Q 431 116 566 188 
Q 666 238 702 338 
Q 738 438 738 747 
L 738 3500 
Q 738 3903 656 3997 
Q 544 4122 281 4122 
L 131 4122 
L 131 4238 
L 3397 4238 
L 3444 3309 
L 3322 3309 
Q 3256 3644 3176 3769 
Q 3097 3894 2941 3959 
Q 2816 4006 2500 4006 
L 1338 4006 
z
" transform="scale(0.015625)"/>
       <path id="TimesNewRomanPSMT-70" d="M -6 2578 
L 875 2934 
L 994 2934 
L 994 2266 
Q 1216 2644 1439 2795 
Q 1663 2947 1909 2947 
Q 2341 2947 2628 2609 
Q 2981 2197 2981 1534 
Q 2981 794 2556 309 
Q 2206 -88 1675 -88 
Q 1444 -88 1275 -22 
Q 1150 25 994 166 
L 994 -706 
Q 994 -1000 1030 -1079 
Q 1066 -1159 1155 -1206 
Q 1244 -1253 1478 -1253 
L 1478 -1369 
L -22 -1369 
L -22 -1253 
L 56 -1253 
Q 228 -1256 350 -1188 
Q 409 -1153 442 -1076 
Q 475 -1000 475 -688 
L 475 2019 
Q 475 2297 450 2372 
Q 425 2447 370 2484 
Q 316 2522 222 2522 
Q 147 2522 31 2478 
L -6 2578 
z
M 994 2081 
L 994 1013 
Q 994 666 1022 556 
Q 1066 375 1236 237 
Q 1406 100 1666 100 
Q 1978 100 2172 344 
Q 2425 663 2425 1241 
Q 2425 1897 2138 2250 
Q 1938 2494 1663 2494 
Q 1513 2494 1366 2419 
Q 1253 2363 994 2081 
z
" transform="scale(0.015625)"/>
       <path id="TimesNewRomanPSMT-6f" d="M 1600 2947 
Q 2250 2947 2644 2453 
Q 2978 2031 2978 1484 
Q 2978 1100 2793 706 
Q 2609 313 2286 112 
Q 1963 -88 1566 -88 
Q 919 -88 538 428 
Q 216 863 216 1403 
Q 216 1797 411 2186 
Q 606 2575 925 2761 
Q 1244 2947 1600 2947 
z
M 1503 2744 
Q 1338 2744 1170 2645 
Q 1003 2547 900 2300 
Q 797 2053 797 1666 
Q 797 1041 1045 587 
Q 1294 134 1700 134 
Q 2003 134 2200 384 
Q 2397 634 2397 1244 
Q 2397 2006 2069 2444 
Q 1847 2744 1503 2744 
z
" transform="scale(0.015625)"/>
       <path id="TimesNewRomanPSMT-63" d="M 2631 1088 
Q 2516 522 2178 217 
Q 1841 -88 1431 -88 
Q 944 -88 581 321 
Q 219 731 219 1428 
Q 219 2103 620 2525 
Q 1022 2947 1584 2947 
Q 2006 2947 2278 2723 
Q 2550 2500 2550 2259 
Q 2550 2141 2473 2067 
Q 2397 1994 2259 1994 
Q 2075 1994 1981 2113 
Q 1928 2178 1911 2362 
Q 1894 2547 1784 2644 
Q 1675 2738 1481 2738 
Q 1169 2738 978 2506 
Q 725 2200 725 1697 
Q 725 1184 976 792 
Q 1228 400 1656 400 
Q 1963 400 2206 609 
Q 2378 753 2541 1131 
L 2631 1088 
z
" transform="scale(0.015625)"/>
       <path id="TimesNewRomanPSMT-68" d="M 1041 4444 
L 1041 2350 
Q 1388 2731 1591 2839 
Q 1794 2947 1997 2947 
Q 2241 2947 2416 2812 
Q 2591 2678 2675 2391 
Q 2734 2191 2734 1659 
L 2734 647 
Q 2734 375 2778 275 
Q 2809 200 2884 156 
Q 2959 113 3159 113 
L 3159 0 
L 1753 0 
L 1753 113 
L 1819 113 
Q 2019 113 2097 173 
Q 2175 234 2206 353 
Q 2216 403 2216 647 
L 2216 1659 
Q 2216 2128 2167 2275 
Q 2119 2422 2012 2495 
Q 1906 2569 1756 2569 
Q 1603 2569 1437 2487 
Q 1272 2406 1041 2159 
L 1041 647 
Q 1041 353 1073 281 
Q 1106 209 1195 161 
Q 1284 113 1503 113 
L 1503 0 
L 84 0 
L 84 113 
Q 275 113 384 172 
Q 447 203 484 290 
Q 522 378 522 647 
L 522 3238 
Q 522 3728 498 3840 
Q 475 3953 426 3993 
Q 378 4034 297 4034 
Q 231 4034 84 3984 
L 41 4094 
L 897 4444 
L 1041 4444 
z
" transform="scale(0.015625)"/>
       <path id="TimesNewRomanPSMT-73" d="M 2050 2947 
L 2050 1972 
L 1947 1972 
Q 1828 2431 1642 2597 
Q 1456 2763 1169 2763 
Q 950 2763 815 2647 
Q 681 2531 681 2391 
Q 681 2216 781 2091 
Q 878 1963 1175 1819 
L 1631 1597 
Q 2266 1288 2266 781 
Q 2266 391 1970 151 
Q 1675 -88 1309 -88 
Q 1047 -88 709 6 
Q 606 38 541 38 
Q 469 38 428 -44 
L 325 -44 
L 325 978 
L 428 978 
Q 516 541 762 319 
Q 1009 97 1316 97 
Q 1531 97 1667 223 
Q 1803 350 1803 528 
Q 1803 744 1651 891 
Q 1500 1038 1047 1263 
Q 594 1488 453 1669 
Q 313 1847 313 2119 
Q 313 2472 555 2709 
Q 797 2947 1181 2947 
Q 1350 2947 1591 2875 
Q 1750 2828 1803 2828 
Q 1853 2828 1881 2850 
Q 1909 2872 1947 2947 
L 2050 2947 
z
" transform="scale(0.015625)"/>
      </defs>
      <use xlink:href="#TimesNewRomanPSMT-45"/>
      <use xlink:href="#TimesNewRomanPSMT-70" x="61.083984"/>
      <use xlink:href="#TimesNewRomanPSMT-6f" x="111.083984"/>
      <use xlink:href="#TimesNewRomanPSMT-63" x="161.083984"/>
      <use xlink:href="#TimesNewRomanPSMT-68" x="205.46875"/>
      <use xlink:href="#TimesNewRomanPSMT-73" x="255.46875"/>
     </g>
    </g>
   </g>
   <g id="matplotlib.axis_2">
    <g id="ytick_1">
     <g id="line2d_7">
      <defs>
       <path id="maaa9ad8eb3" d="M 0 0 
L -3.5 0 
" style="stroke: #000000; stroke-width: 0.8"/>
      </defs>
      <g>
       <use xlink:href="#maaa9ad8eb3" x="45" y="235.653957" style="stroke: #000000; stroke-width: 0.8"/>
      </g>
     </g>
     <g id="text_8">
      <!-- 4 -->
      <g transform="translate(27.360937 239.125832)scale(0.1 -0.1)">
       <defs>
        <path id="TimesNewRomanPSMT-2212" d="M 3484 2000 
L 116 2000 
L 116 2256 
L 3484 2256 
L 3484 2000 
z
" transform="scale(0.015625)"/>
        <path id="TimesNewRomanPSMT-34" d="M 2978 1563 
L 2978 1119 
L 2409 1119 
L 2409 0 
L 1894 0 
L 1894 1119 
L 100 1119 
L 100 1519 
L 2066 4325 
L 2409 4325 
L 2409 1563 
L 2978 1563 
z
M 1894 1563 
L 1894 3666 
L 406 1563 
L 1894 1563 
z
" transform="scale(0.015625)"/>
       </defs>
       <use xlink:href="#TimesNewRomanPSMT-2212"/>
       <use xlink:href="#TimesNewRomanPSMT-34" x="56.396484"/>
      </g>
     </g>
    </g>
    <g id="ytick_2">
     <g id="line2d_8">
      <g>
       <use xlink:href="#maaa9ad8eb3" x="45" y="201.33541" style="stroke: #000000; stroke-width: 0.8"/>
      </g>
     </g>
     <g id="text_9">
      <!-- 3 -->
      <g transform="translate(27.360937 204.807285)scale(0.1 -0.1)">
       <defs>
        <path id="TimesNewRomanPSMT-33" d="M 325 3431 
Q 506 3859 782 4092 
Q 1059 4325 1472 4325 
Q 1981 4325 2253 3994 
Q 2459 3747 2459 3466 
Q 2459 3003 1878 2509 
Q 2269 2356 2469 2072 
Q 2669 1788 2669 1403 
Q 2669 853 2319 450 
Q 1863 -75 997 -75 
Q 569 -75 414 31 
Q 259 138 259 259 
Q 259 350 332 419 
Q 406 488 509 488 
Q 588 488 669 463 
Q 722 447 909 348 
Q 1097 250 1169 231 
Q 1284 197 1416 197 
Q 1734 197 1970 444 
Q 2206 691 2206 1028 
Q 2206 1275 2097 1509 
Q 2016 1684 1919 1775 
Q 1784 1900 1550 2001 
Q 1316 2103 1072 2103 
L 972 2103 
L 972 2197 
Q 1219 2228 1467 2375 
Q 1716 2522 1828 2728 
Q 1941 2934 1941 3181 
Q 1941 3503 1739 3701 
Q 1538 3900 1238 3900 
Q 753 3900 428 3381 
L 325 3431 
z
" transform="scale(0.015625)"/>
       </defs>
       <use xlink:href="#TimesNewRomanPSMT-2212"/>
       <use xlink:href="#TimesNewRomanPSMT-33" x="56.396484"/>
      </g>
     </g>
    </g>
    <g id="ytick_3">
     <g id="line2d_9">
      <g>
       <use xlink:href="#maaa9ad8eb3" x="45" y="167.016863" style="stroke: #000000; stroke-width: 0.8"/>
      </g>
     </g>
     <g id="text_10">
      <!-- 2 -->
      <g transform="translate(27.360937 170.488738)scale(0.1 -0.1)">
       <use xlink:href="#TimesNewRomanPSMT-2212"/>
       <use xlink:href="#TimesNewRomanPSMT-32" x="56.396484"/>
      </g>
     </g>
    </g>
    <g id="ytick_4">
     <g id="line2d_10">
      <g>
       <use xlink:href="#maaa9ad8eb3" x="45" y="132.698316" style="stroke: #000000; stroke-width: 0.8"/>
      </g>
     </g>
     <g id="text_11">
      <!-- 1 -->
      <g transform="translate(27.360937 136.170191)scale(0.1 -0.1)">
       <use xlink:href="#TimesNewRomanPSMT-2212"/>
       <use xlink:href="#TimesNewRomanPSMT-31" x="56.396484"/>
      </g>
     </g>
    </g>
    <g id="ytick_5">
     <g id="line2d_11">
      <g>
       <use xlink:href="#maaa9ad8eb3" x="45" y="98.379769" style="stroke: #000000; stroke-width: 0.8"/>
      </g>
     </g>
     <g id="text_12">
      <!-- 0 -->
      <g transform="translate(33 101.851644)scale(0.1 -0.1)">
       <use xlink:href="#TimesNewRomanPSMT-30"/>
      </g>
     </g>
    </g>
    <g id="ytick_6">
     <g id="line2d_12">
      <g>
       <use xlink:href="#maaa9ad8eb3" x="45" y="64.061223" style="stroke: #000000; stroke-width: 0.8"/>
      </g>
     </g>
     <g id="text_13">
      <!-- 1 -->
      <g transform="translate(33 67.533098)scale(0.1 -0.1)">
       <use xlink:href="#TimesNewRomanPSMT-31"/>
      </g>
     </g>
    </g>
    <g id="text_14">
     <!-- Physical loss, log scale -->
     <g transform="translate(21.203125 191.547812)rotate(-90)scale(0.1 -0.1)">
      <defs>
       <path id="TimesNewRomanPSMT-50" d="M 1313 1984 
L 1313 750 
Q 1313 350 1400 253 
Q 1519 116 1759 116 
L 1922 116 
L 1922 0 
L 106 0 
L 106 116 
L 266 116 
Q 534 116 650 291 
Q 713 388 713 750 
L 713 3488 
Q 713 3888 628 3984 
Q 506 4122 266 4122 
L 106 4122 
L 106 4238 
L 1659 4238 
Q 2228 4238 2556 4120 
Q 2884 4003 3109 3725 
Q 3334 3447 3334 3066 
Q 3334 2547 2992 2222 
Q 2650 1897 2025 1897 
Q 1872 1897 1694 1919 
Q 1516 1941 1313 1984 
z
M 1313 2163 
Q 1478 2131 1606 2115 
Q 1734 2100 1825 2100 
Q 2150 2100 2386 2351 
Q 2622 2603 2622 3003 
Q 2622 3278 2509 3514 
Q 2397 3750 2190 3867 
Q 1984 3984 1722 3984 
Q 1563 3984 1313 3925 
L 1313 2163 
z
" transform="scale(0.015625)"/>
       <path id="TimesNewRomanPSMT-79" d="M 38 2863 
L 1372 2863 
L 1372 2747 
L 1306 2747 
Q 1166 2747 1095 2686 
Q 1025 2625 1025 2534 
Q 1025 2413 1128 2197 
L 1825 753 
L 2466 2334 
Q 2519 2463 2519 2588 
Q 2519 2644 2497 2672 
Q 2472 2706 2419 2726 
Q 2366 2747 2231 2747 
L 2231 2863 
L 3163 2863 
L 3163 2747 
Q 3047 2734 2984 2696 
Q 2922 2659 2847 2556 
Q 2819 2513 2741 2316 
L 1575 -541 
Q 1406 -956 1132 -1168 
Q 859 -1381 606 -1381 
Q 422 -1381 303 -1275 
Q 184 -1169 184 -1031 
Q 184 -900 270 -820 
Q 356 -741 506 -741 
Q 609 -741 788 -809 
Q 913 -856 944 -856 
Q 1038 -856 1148 -759 
Q 1259 -663 1372 -384 
L 1575 113 
L 547 2272 
Q 500 2369 397 2513 
Q 319 2622 269 2659 
Q 197 2709 38 2747 
L 38 2863 
z
" transform="scale(0.015625)"/>
       <path id="TimesNewRomanPSMT-69" d="M 928 4444 
Q 1059 4444 1151 4351 
Q 1244 4259 1244 4128 
Q 1244 3997 1151 3903 
Q 1059 3809 928 3809 
Q 797 3809 703 3903 
Q 609 3997 609 4128 
Q 609 4259 701 4351 
Q 794 4444 928 4444 
z
M 1188 2947 
L 1188 647 
Q 1188 378 1227 289 
Q 1266 200 1342 156 
Q 1419 113 1622 113 
L 1622 0 
L 231 0 
L 231 113 
Q 441 113 512 153 
Q 584 194 626 287 
Q 669 381 669 647 
L 669 1750 
Q 669 2216 641 2353 
Q 619 2453 572 2492 
Q 525 2531 444 2531 
Q 356 2531 231 2484 
L 188 2597 
L 1050 2947 
L 1188 2947 
z
" transform="scale(0.015625)"/>
       <path id="TimesNewRomanPSMT-61" d="M 1822 413 
Q 1381 72 1269 19 
Q 1100 -59 909 -59 
Q 613 -59 420 144 
Q 228 347 228 678 
Q 228 888 322 1041 
Q 450 1253 767 1440 
Q 1084 1628 1822 1897 
L 1822 2009 
Q 1822 2438 1686 2597 
Q 1550 2756 1291 2756 
Q 1094 2756 978 2650 
Q 859 2544 859 2406 
L 866 2225 
Q 866 2081 792 2003 
Q 719 1925 600 1925 
Q 484 1925 411 2006 
Q 338 2088 338 2228 
Q 338 2497 613 2722 
Q 888 2947 1384 2947 
Q 1766 2947 2009 2819 
Q 2194 2722 2281 2516 
Q 2338 2381 2338 1966 
L 2338 994 
Q 2338 584 2353 492 
Q 2369 400 2405 369 
Q 2441 338 2488 338 
Q 2538 338 2575 359 
Q 2641 400 2828 588 
L 2828 413 
Q 2478 -56 2159 -56 
Q 2006 -56 1915 50 
Q 1825 156 1822 413 
z
M 1822 616 
L 1822 1706 
Q 1350 1519 1213 1441 
Q 966 1303 859 1153 
Q 753 1003 753 825 
Q 753 600 887 451 
Q 1022 303 1197 303 
Q 1434 303 1822 616 
z
" transform="scale(0.015625)"/>
       <path id="TimesNewRomanPSMT-6c" d="M 1184 4444 
L 1184 647 
Q 1184 378 1223 290 
Q 1263 203 1344 158 
Q 1425 113 1647 113 
L 1647 0 
L 244 0 
L 244 113 
Q 441 113 512 153 
Q 584 194 625 287 
Q 666 381 666 647 
L 666 3247 
Q 666 3731 644 3842 
Q 622 3953 573 3993 
Q 525 4034 450 4034 
Q 369 4034 244 3984 
L 191 4094 
L 1044 4444 
L 1184 4444 
z
" transform="scale(0.015625)"/>
       <path id="TimesNewRomanPSMT-20" transform="scale(0.015625)"/>
       <path id="TimesNewRomanPSMT-2c" d="M 344 -1066 
L 344 -928 
Q 666 -822 842 -598 
Q 1019 -375 1019 -125 
Q 1019 -66 991 -25 
Q 969 3 947 3 
Q 913 3 797 -59 
Q 741 -88 678 -88 
Q 525 -88 434 3 
Q 344 94 344 253 
Q 344 406 461 515 
Q 578 625 747 625 
Q 953 625 1114 445 
Q 1275 266 1275 -31 
Q 1275 -353 1051 -629 
Q 828 -906 344 -1066 
z
" transform="scale(0.015625)"/>
       <path id="TimesNewRomanPSMT-67" d="M 966 1044 
Q 703 1172 562 1401 
Q 422 1631 422 1909 
Q 422 2334 742 2640 
Q 1063 2947 1563 2947 
Q 1972 2947 2272 2747 
L 2878 2747 
Q 3013 2747 3034 2739 
Q 3056 2731 3066 2713 
Q 3084 2684 3084 2613 
Q 3084 2531 3069 2500 
Q 3059 2484 3036 2475 
Q 3013 2466 2878 2466 
L 2506 2466 
Q 2681 2241 2681 1891 
Q 2681 1491 2375 1206 
Q 2069 922 1553 922 
Q 1341 922 1119 984 
Q 981 866 932 777 
Q 884 688 884 625 
Q 884 572 936 522 
Q 988 472 1138 450 
Q 1225 438 1575 428 
Q 2219 413 2409 384 
Q 2700 344 2873 169 
Q 3047 -6 3047 -263 
Q 3047 -616 2716 -925 
Q 2228 -1381 1444 -1381 
Q 841 -1381 425 -1109 
Q 191 -953 191 -784 
Q 191 -709 225 -634 
Q 278 -519 444 -313 
Q 466 -284 763 25 
Q 600 122 533 198 
Q 466 275 466 372 
Q 466 481 555 628 
Q 644 775 966 1044 
z
M 1509 2797 
Q 1278 2797 1122 2612 
Q 966 2428 966 2047 
Q 966 1553 1178 1281 
Q 1341 1075 1591 1075 
Q 1828 1075 1981 1253 
Q 2134 1431 2134 1813 
Q 2134 2309 1919 2591 
Q 1759 2797 1509 2797 
z
M 934 0 
Q 788 -159 713 -296 
Q 638 -434 638 -550 
Q 638 -700 819 -813 
Q 1131 -1006 1722 -1006 
Q 2284 -1006 2551 -807 
Q 2819 -609 2819 -384 
Q 2819 -222 2659 -153 
Q 2497 -84 2016 -72 
Q 1313 -53 934 0 
z
" transform="scale(0.015625)"/>
       <path id="TimesNewRomanPSMT-65" d="M 681 1784 
Q 678 1147 991 784 
Q 1303 422 1725 422 
Q 2006 422 2214 576 
Q 2422 731 2563 1106 
L 2659 1044 
Q 2594 616 2278 264 
Q 1963 -88 1488 -88 
Q 972 -88 605 314 
Q 238 716 238 1394 
Q 238 2128 614 2539 
Q 991 2950 1559 2950 
Q 2041 2950 2350 2633 
Q 2659 2316 2659 1784 
L 681 1784 
z
M 681 1966 
L 2006 1966 
Q 1991 2241 1941 2353 
Q 1863 2528 1708 2628 
Q 1553 2728 1384 2728 
Q 1125 2728 920 2526 
Q 716 2325 681 1966 
z
" transform="scale(0.015625)"/>
      </defs>
      <use xlink:href="#TimesNewRomanPSMT-50"/>
      <use xlink:href="#TimesNewRomanPSMT-68" x="55.615234"/>
      <use xlink:href="#TimesNewRomanPSMT-79" x="105.615234"/>
      <use xlink:href="#TimesNewRomanPSMT-73" x="155.615234"/>
      <use xlink:href="#TimesNewRomanPSMT-69" x="194.53125"/>
      <use xlink:href="#TimesNewRomanPSMT-63" x="222.314453"/>
      <use xlink:href="#TimesNewRomanPSMT-61" x="266.699219"/>
      <use xlink:href="#TimesNewRomanPSMT-6c" x="311.083984"/>
      <use xlink:href="#TimesNewRomanPSMT-20" x="338.867188"/>
      <use xlink:href="#TimesNewRomanPSMT-6c" x="363.867188"/>
      <use xlink:href="#TimesNewRomanPSMT-6f" x="391.650391"/>
      <use xlink:href="#TimesNewRomanPSMT-73" x="441.650391"/>
      <use xlink:href="#TimesNewRomanPSMT-73" x="480.566406"/>
      <use xlink:href="#TimesNewRomanPSMT-2c" x="519.482422"/>
      <use xlink:href="#TimesNewRomanPSMT-20" x="544.482422"/>
      <use xlink:href="#TimesNewRomanPSMT-6c" x="569.482422"/>
      <use xlink:href="#TimesNewRomanPSMT-6f" x="597.265625"/>
      <use xlink:href="#TimesNewRomanPSMT-67" x="647.265625"/>
      <use xlink:href="#TimesNewRomanPSMT-20" x="697.265625"/>
      <use xlink:href="#TimesNewRomanPSMT-73" x="722.265625"/>
      <use xlink:href="#TimesNewRomanPSMT-63" x="761.181641"/>
      <use xlink:href="#TimesNewRomanPSMT-61" x="805.566406"/>
      <use xlink:href="#TimesNewRomanPSMT-6c" x="849.951172"/>
      <use xlink:href="#TimesNewRomanPSMT-65" x="877.734375"/>
     </g>
    </g>
   </g>
   <g id="line2d_13">
    <path d="M 57.681818 58.918912 
L 58.700438 57.037806 
L 59.719058 55.859564 
L 60.737678 54.941878 
L 61.756298 55.395628 
L 62.774918 58.250129 
L 64.812158 65.95976 
L 67.868018 79.827339 
L 68.886637 82.722082 
L 70.923877 91.35796 
L 72.961117 98.593973 
L 73.979737 103.24786 
L 74.998357 105.666061 
L 76.016977 107.792034 
L 77.035597 110.533734 
L 78.054217 114.057967 
L 79.072837 116.900357 
L 80.091457 120.384198 
L 82.128697 125.610771 
L 83.147317 126.972124 
L 84.165936 129.103428 
L 85.184556 130.9274 
L 86.203176 133.056294 
L 87.221796 134.323792 
L 88.240416 135.99165 
L 89.259036 136.917635 
L 91.296276 140.062118 
L 93.333516 144.004942 
L 94.352136 145.897529 
L 95.370756 147.203095 
L 96.389376 147.79544 
L 97.407996 148.089592 
L 99.445235 150.603195 
L 100.463855 152.179925 
L 102.501095 156.667473 
L 104.538335 160.08815 
L 107.594195 164.00598 
L 108.612815 163.57935 
L 110.650055 164.90303 
L 112.687295 166.072107 
L 113.705915 168.151262 
L 114.724535 169.076619 
L 115.743154 169.839908 
L 116.761774 170.371498 
L 117.780394 170.347611 
L 118.799014 170.919259 
L 120.836254 171.748389 
L 121.854874 169.274716 
L 122.873494 168.691858 
L 124.910734 168.596127 
L 125.929354 167.573655 
L 126.947974 169.648826 
L 127.966594 170.448188 
L 128.985214 169.942358 
L 132.041073 169.892163 
L 134.078313 171.542631 
L 135.096933 171.910838 
L 137.134173 174.887251 
L 138.152793 175.354777 
L 139.171413 175.101571 
L 140.190033 174.009452 
L 141.208653 174.037244 
L 142.227273 173.817739 
L 143.245893 174.502609 
L 144.264513 175.455619 
L 145.283133 177.560473 
L 146.301752 177.976783 
L 147.320372 179.195436 
L 148.338992 179.384064 
L 149.357612 180.069223 
L 150.376232 180.524094 
L 151.394852 180.092518 
L 152.413472 179.475772 
L 153.432092 179.14158 
L 154.450712 179.180406 
L 155.469332 178.89115 
L 156.487952 180.223978 
L 157.506572 179.258899 
L 159.543812 180.65687 
L 160.562432 181.219362 
L 161.581051 181.645543 
L 162.599671 183.871363 
L 163.618291 184.249416 
L 164.636911 184.418651 
L 166.674151 185.47372 
L 167.692771 186.298875 
L 171.767251 188.384447 
L 173.804491 188.718074 
L 174.823111 189.060857 
L 175.841731 189.168574 
L 176.86035 188.942368 
L 179.91621 188.853921 
L 181.95345 188.904955 
L 182.97207 188.690157 
L 183.99069 187.735338 
L 185.00931 187.669445 
L 186.02793 188.03532 
L 187.04655 188.199801 
L 188.06517 188.891523 
L 189.08379 190.276092 
L 190.10241 190.913001 
L 191.12103 191.167396 
L 192.13965 192.079901 
L 193.158269 192.179822 
L 196.214129 193.951774 
L 197.232749 194.226517 
L 198.251369 195.006995 
L 199.269989 195.183897 
L 200.288609 195.484397 
L 201.307229 195.649622 
L 202.325849 195.681183 
L 204.363089 195.930347 
L 205.381709 193.588325 
L 206.400329 193.365879 
L 207.418949 193.530053 
L 208.437568 193.546563 
L 209.456188 193.937989 
L 210.474808 196.517633 
L 211.493428 197.109787 
L 212.512048 197.510994 
L 214.549288 197.922561 
L 216.586528 198.237791 
L 220.661008 198.430552 
L 221.679628 198.327707 
L 222.698248 197.49749 
L 224.735487 196.406362 
L 225.754107 195.491538 
L 226.772727 195.167041 
L 227.791347 195.87296 
L 228.809967 196.319194 
L 229.828587 194.786899 
L 231.865827 195.915693 
L 232.884447 196.052679 
L 233.903067 196.629678 
L 234.921687 199.166166 
L 235.940307 200.027323 
L 236.958927 199.644123 
L 238.996166 200.389966 
L 240.014786 200.542836 
L 241.033406 199.260148 
L 242.052026 199.398889 
L 243.070646 197.755421 
L 244.089266 197.098251 
L 245.107886 196.818323 
L 246.126506 198.116713 
L 247.145126 198.637729 
L 248.163746 200.657584 
L 249.182366 201.166336 
L 251.219606 201.375071 
L 252.238226 201.762359 
L 253.256846 201.573339 
L 254.275465 201.799082 
L 255.294085 202.212425 
L 256.312705 202.35251 
L 257.331325 201.202354 
L 258.349945 200.821571 
L 259.368565 199.201047 
L 260.387185 199.578407 
L 261.405805 199.320184 
L 263.443045 201.828771 
L 264.461665 203.955455 
L 265.480285 203.894538 
L 266.498905 204.44813 
L 267.517525 204.719725 
L 269.554765 204.830961 
L 270.573384 204.421288 
L 271.592004 204.393788 
L 272.610624 204.58862 
L 273.629244 204.098 
L 274.647864 202.599408 
L 275.666484 202.116179 
L 276.685104 202.090142 
L 277.703724 201.614603 
L 278.722344 202.154054 
L 280.759584 204.645058 
L 281.778204 205.129099 
L 282.796824 205.790992 
L 283.815444 205.990323 
L 284.834064 206.39045 
L 286.871303 206.701355 
L 287.889923 206.787085 
L 288.908543 206.751024 
L 289.927163 206.226885 
L 294.001643 206.663752 
L 295.020263 207.357065 
L 299.094743 207.570882 
L 300.113363 206.096296 
L 304.187842 206.580051 
L 305.206462 207.641978 
L 306.225082 207.680979 
L 307.243702 207.587288 
L 309.280942 207.655334 
L 310.299562 207.245596 
L 311.318182 206.298321 
L 311.318182 206.298321 
" clip-path="url(#pe23e13d04f)" style="fill: none; stroke: #ff0000; stroke-width: 1.5; stroke-linecap: square"/>
   </g>
   <g id="line2d_14">
    <path d="M 57.681818 126.090645 
L 59.719058 83.821068 
L 60.737678 64.78248 
L 61.756298 67.024968 
L 63.793538 80.374834 
L 64.812158 88.044845 
L 66.849398 100.968838 
L 68.886637 111.386578 
L 70.923877 119.798161 
L 71.942497 123.169422 
L 72.961117 125.995832 
L 73.979737 128.390348 
L 76.016977 132.299656 
L 78.054217 135.37842 
L 80.091457 137.880683 
L 82.128697 139.97189 
L 84.165936 141.76988 
L 87.221796 144.056075 
L 90.277656 145.971586 
L 93.333516 147.592496 
L 96.389376 148.990146 
L 100.463855 150.592917 
L 105.556955 152.287891 
L 110.650055 153.753457 
L 115.743154 154.985972 
L 120.836254 155.995476 
L 126.947974 156.982327 
L 135.096933 158.049056 
L 146.301752 159.286586 
L 161.581051 160.703113 
L 178.89759 162.089174 
L 196.214129 163.379187 
L 240.014786 166.331014 
L 255.294085 167.312151 
L 294.001643 169.496929 
L 311.318182 170.335362 
L 311.318182 170.335362 
" clip-path="url(#pe23e13d04f)" style="fill: none; stroke: #0000ff; stroke-width: 1.5; stroke-linecap: square"/>
   </g>
   <g id="line2d_15">
    <path d="M 57.681818 154.610137 
L 58.700438 140.06828 
L 60.737678 106.430256 
L 61.756298 100.432964 
L 62.774918 98.471841 
L 63.793538 98.377471 
L 64.812158 101.561138 
L 66.849398 109.126977 
L 68.886637 115.359506 
L 69.905257 118.406574 
L 70.923877 120.706392 
L 71.942497 123.470997 
L 73.979737 127.020252 
L 74.998357 127.990721 
L 76.016977 129.758769 
L 77.035597 129.516251 
L 78.054217 130.955408 
L 79.072837 131.165815 
L 80.091457 132.180634 
L 81.110077 132.689575 
L 82.128697 133.705168 
L 83.147317 134.560855 
L 84.165936 136.437521 
L 85.184556 137.026506 
L 86.203176 136.128123 
L 87.221796 134.556349 
L 89.259036 133.259327 
L 90.277656 133.188997 
L 91.296276 134.390661 
L 92.314896 136.646588 
L 93.333516 137.7791 
L 94.352136 138.646295 
L 95.370756 137.88929 
L 96.389376 137.788224 
L 97.407996 138.081723 
L 98.426616 137.642238 
L 99.445235 136.163448 
L 100.463855 137.101936 
L 101.482475 138.820428 
L 103.519715 139.758047 
L 104.538335 141.077568 
L 105.556955 141.179988 
L 106.575575 140.803102 
L 107.594195 139.936205 
L 108.612815 141.502187 
L 109.631435 142.797142 
L 110.650055 143.25171 
L 111.668675 143.246447 
L 112.687295 144.710498 
L 113.705915 145.069037 
L 114.724535 144.786122 
L 116.761774 146.938169 
L 117.780394 147.425861 
L 118.799014 147.509794 
L 119.817634 148.638646 
L 121.854874 151.235855 
L 123.892114 155.195262 
L 124.910734 156.584759 
L 125.929354 157.673906 
L 126.947974 157.725609 
L 127.966594 158.348515 
L 130.003834 160.158862 
L 131.022453 162.084238 
L 132.041073 162.328928 
L 133.059693 162.729904 
L 134.078313 162.846957 
L 135.096933 163.142594 
L 136.115553 162.172884 
L 137.134173 164.126108 
L 138.152793 164.092528 
L 139.171413 164.822244 
L 140.190033 164.65242 
L 141.208653 165.520154 
L 142.227273 164.293706 
L 143.245893 163.807158 
L 144.264513 163.192343 
L 145.283133 164.194009 
L 146.301752 162.034187 
L 147.320372 161.416413 
L 149.357612 158.928734 
L 150.376232 156.966194 
L 151.394852 157.699543 
L 152.413472 157.755119 
L 153.432092 159.681958 
L 154.450712 160.207706 
L 156.487952 162.450279 
L 157.506572 163.063845 
L 158.525192 163.366 
L 160.562432 164.971918 
L 161.581051 165.843102 
L 162.599671 167.91587 
L 163.618291 168.900087 
L 164.636911 170.548351 
L 166.674151 168.091926 
L 167.692771 168.018287 
L 169.730011 165.701094 
L 170.748631 167.127027 
L 171.767251 167.767644 
L 172.785871 166.550087 
L 173.804491 167.55585 
L 174.823111 169.318572 
L 175.841731 168.586467 
L 176.86035 168.612249 
L 177.87897 169.372339 
L 178.89759 168.967395 
L 179.91621 166.111135 
L 181.95345 164.092928 
L 182.97207 162.048229 
L 183.99069 160.939287 
L 185.00931 162.430744 
L 186.02793 160.59711 
L 187.04655 159.245221 
L 188.06517 159.218984 
L 189.08379 158.220262 
L 190.10241 156.170364 
L 191.12103 157.505912 
L 192.13965 159.608741 
L 193.158269 160.40122 
L 194.176889 161.689299 
L 195.195509 162.358438 
L 196.214129 161.956712 
L 197.232749 160.868061 
L 198.251369 160.183009 
L 199.269989 160.078303 
L 200.288609 159.586925 
L 201.307229 160.52095 
L 202.325849 160.561886 
L 203.344469 161.356803 
L 204.363089 161.248593 
L 205.381709 161.664311 
L 206.400329 162.95336 
L 207.418949 165.471409 
L 208.437568 166.716744 
L 209.456188 167.517089 
L 210.474808 169.839453 
L 212.512048 168.288597 
L 213.530668 169.36066 
L 214.549288 169.336212 
L 215.567908 169.879941 
L 216.586528 171.739747 
L 217.605148 171.180292 
L 218.623768 170.298339 
L 219.642388 171.322265 
L 220.661008 171.672037 
L 221.679628 172.316477 
L 222.698248 174.514101 
L 223.716867 173.914345 
L 225.754107 173.159046 
L 226.772727 173.940395 
L 227.791347 171.037746 
L 228.809967 171.297294 
L 229.828587 171.233797 
L 230.847207 169.585573 
L 231.865827 167.582834 
L 232.884447 170.160796 
L 235.940307 174.432045 
L 236.958927 175.474102 
L 237.977547 175.160661 
L 238.996166 175.722634 
L 240.014786 176.007456 
L 242.052026 171.989053 
L 243.070646 170.751215 
L 244.089266 167.688552 
L 245.107886 165.029002 
L 247.145126 166.441346 
L 248.163746 165.080938 
L 249.182366 165.583764 
L 250.200986 163.645512 
L 252.238226 158.647433 
L 253.256846 157.379172 
L 254.275465 155.496129 
L 255.294085 156.516692 
L 256.312705 157.982692 
L 257.331325 158.563084 
L 258.349945 160.193043 
L 260.387185 162.087429 
L 261.405805 162.546714 
L 262.424425 163.503096 
L 263.443045 163.682698 
L 264.461665 164.603868 
L 265.480285 165.730126 
L 266.498905 166.46296 
L 268.536145 169.242037 
L 269.554765 171.509047 
L 270.573384 172.402034 
L 271.592004 172.621395 
L 272.610624 173.345826 
L 273.629244 173.343822 
L 274.647864 171.306567 
L 275.666484 169.778567 
L 276.685104 167.896822 
L 277.703724 167.909703 
L 278.722344 168.420766 
L 280.759584 167.970047 
L 281.778204 169.16653 
L 282.796824 168.896836 
L 283.815444 166.993376 
L 284.834064 168.74086 
L 285.852683 169.309473 
L 286.871303 170.395147 
L 287.889923 168.550926 
L 288.908543 169.257321 
L 289.927163 168.851857 
L 290.945783 168.254692 
L 291.964403 167.038134 
L 292.983023 167.960371 
L 294.001643 166.030736 
L 295.020263 165.952804 
L 296.038883 167.072519 
L 297.057503 167.774958 
L 298.076123 167.36759 
L 299.094743 170.062853 
L 300.113363 168.964664 
L 301.131982 168.189391 
L 302.150602 168.357916 
L 303.169222 169.878291 
L 304.187842 170.685082 
L 306.225082 173.824418 
L 307.243702 174.682765 
L 308.262322 174.383085 
L 309.280942 174.543935 
L 310.299562 175.226869 
L 311.318182 175.526955 
L 311.318182 175.526955 
" clip-path="url(#pe23e13d04f)" style="fill: none; stroke: #008000; stroke-width: 1.5; stroke-linecap: square"/>
   </g>
   <g id="patch_3">
    <path d="M 45 256.32 
L 45 34.56 
" style="fill: none; stroke: #000000; stroke-width: 0.8; stroke-linejoin: miter; stroke-linecap: square"/>
   </g>
   <g id="patch_4">
    <path d="M 324 256.32 
L 324 34.56 
" style="fill: none; stroke: #000000; stroke-width: 0.8; stroke-linejoin: miter; stroke-linecap: square"/>
   </g>
   <g id="patch_5">
    <path d="M 45 256.32 
L 324 256.32 
" style="fill: none; stroke: #000000; stroke-width: 0.8; stroke-linejoin: miter; stroke-linecap: square"/>
   </g>
   <g id="patch_6">
    <path d="M 45 34.56 
L 324 34.56 
" style="fill: none; stroke: #000000; stroke-width: 0.8; stroke-linejoin: miter; stroke-linecap: square"/>
   </g>
   <g id="legend_1">
    <g id="patch_7">
     <path d="M 252.2125 84.977188 
L 317 84.977188 
Q 319 84.977188 319 82.977188 
L 319 41.56 
Q 319 39.56 317 39.56 
L 252.2125 39.56 
Q 250.2125 39.56 250.2125 41.56 
L 250.2125 82.977188 
Q 250.2125 84.977188 252.2125 84.977188 
z
" style="fill: #ffffff; opacity: 0.8; stroke: #cccccc; stroke-linejoin: miter"/>
    </g>
    <g id="line2d_16">
     <path d="M 254.2125 47.06 
L 264.2125 47.06 
L 274.2125 47.06 
" style="fill: none; stroke: #ff0000; stroke-width: 1.5; stroke-linecap: square"/>
    </g>
    <g id="text_15">
     <!-- FPSNN -->
     <g transform="translate(282.2125 50.56)scale(0.1 -0.1)">
      <defs>
       <path id="TimesNewRomanPSMT-46" d="M 1309 4006 
L 1309 2341 
L 2081 2341 
Q 2347 2341 2470 2458 
Q 2594 2575 2634 2922 
L 2750 2922 
L 2750 1488 
L 2634 1488 
Q 2631 1734 2570 1850 
Q 2509 1966 2401 2023 
Q 2294 2081 2081 2081 
L 1309 2081 
L 1309 750 
Q 1309 428 1350 325 
Q 1381 247 1481 191 
Q 1619 116 1769 116 
L 1922 116 
L 1922 0 
L 103 0 
L 103 116 
L 253 116 
Q 516 116 634 269 
Q 709 369 709 750 
L 709 3488 
Q 709 3809 669 3913 
Q 638 3991 541 4047 
Q 406 4122 253 4122 
L 103 4122 
L 103 4238 
L 3256 4238 
L 3297 3306 
L 3188 3306 
Q 3106 3603 2998 3742 
Q 2891 3881 2733 3943 
Q 2575 4006 2244 4006 
L 1309 4006 
z
" transform="scale(0.015625)"/>
       <path id="TimesNewRomanPSMT-53" d="M 2934 4334 
L 2934 2869 
L 2819 2869 
Q 2763 3291 2617 3541 
Q 2472 3791 2203 3937 
Q 1934 4084 1647 4084 
Q 1322 4084 1109 3886 
Q 897 3688 897 3434 
Q 897 3241 1031 3081 
Q 1225 2847 1953 2456 
Q 2547 2138 2764 1967 
Q 2981 1797 3098 1565 
Q 3216 1334 3216 1081 
Q 3216 600 2842 251 
Q 2469 -97 1881 -97 
Q 1697 -97 1534 -69 
Q 1438 -53 1133 45 
Q 828 144 747 144 
Q 669 144 623 97 
Q 578 50 556 -97 
L 441 -97 
L 441 1356 
L 556 1356 
Q 638 900 775 673 
Q 913 447 1195 297 
Q 1478 147 1816 147 
Q 2206 147 2432 353 
Q 2659 559 2659 841 
Q 2659 997 2573 1156 
Q 2488 1316 2306 1453 
Q 2184 1547 1640 1851 
Q 1097 2156 867 2337 
Q 638 2519 519 2737 
Q 400 2956 400 3219 
Q 400 3675 750 4004 
Q 1100 4334 1641 4334 
Q 1978 4334 2356 4169 
Q 2531 4091 2603 4091 
Q 2684 4091 2736 4139 
Q 2788 4188 2819 4334 
L 2934 4334 
z
" transform="scale(0.015625)"/>
       <path id="TimesNewRomanPSMT-4e" d="M -84 4238 
L 1066 4238 
L 3656 1059 
L 3656 3503 
Q 3656 3894 3569 3991 
Q 3453 4122 3203 4122 
L 3056 4122 
L 3056 4238 
L 4531 4238 
L 4531 4122 
L 4381 4122 
Q 4113 4122 4000 3959 
Q 3931 3859 3931 3503 
L 3931 -69 
L 3819 -69 
L 1025 3344 
L 1025 734 
Q 1025 344 1109 247 
Q 1228 116 1475 116 
L 1625 116 
L 1625 0 
L 150 0 
L 150 116 
L 297 116 
Q 569 116 681 278 
Q 750 378 750 734 
L 750 3681 
Q 566 3897 470 3965 
Q 375 4034 191 4094 
Q 100 4122 -84 4122 
L -84 4238 
z
" transform="scale(0.015625)"/>
      </defs>
      <use xlink:href="#TimesNewRomanPSMT-46"/>
      <use xlink:href="#TimesNewRomanPSMT-50" x="55.615234"/>
      <use xlink:href="#TimesNewRomanPSMT-53" x="111.230469"/>
      <use xlink:href="#TimesNewRomanPSMT-4e" x="166.845703"/>
      <use xlink:href="#TimesNewRomanPSMT-4e" x="239.0625"/>
     </g>
    </g>
    <g id="line2d_17">
     <path d="M 254.2125 61.199062 
L 264.2125 61.199062 
L 274.2125 61.199062 
" style="fill: none; stroke: #0000ff; stroke-width: 1.5; stroke-linecap: square"/>
    </g>
    <g id="text_16">
     <!-- FPANN -->
     <g transform="translate(282.2125 64.699062)scale(0.1 -0.1)">
      <defs>
       <path id="TimesNewRomanPSMT-41" d="M 2928 1419 
L 1288 1419 
L 1000 750 
Q 894 503 894 381 
Q 894 284 986 211 
Q 1078 138 1384 116 
L 1384 0 
L 50 0 
L 50 116 
Q 316 163 394 238 
Q 553 388 747 847 
L 2238 4334 
L 2347 4334 
L 3822 809 
Q 4000 384 4145 257 
Q 4291 131 4550 116 
L 4550 0 
L 2878 0 
L 2878 116 
Q 3131 128 3220 200 
Q 3309 272 3309 375 
Q 3309 513 3184 809 
L 2928 1419 
z
M 2841 1650 
L 2122 3363 
L 1384 1650 
L 2841 1650 
z
" transform="scale(0.015625)"/>
      </defs>
      <use xlink:href="#TimesNewRomanPSMT-46"/>
      <use xlink:href="#TimesNewRomanPSMT-50" x="55.615234"/>
      <use xlink:href="#TimesNewRomanPSMT-41" x="102.105469"/>
      <use xlink:href="#TimesNewRomanPSMT-4e" x="174.322266"/>
      <use xlink:href="#TimesNewRomanPSMT-4e" x="246.539062"/>
     </g>
    </g>
    <g id="line2d_18">
     <path d="M 254.2125 75.338125 
L 264.2125 75.338125 
L 274.2125 75.338125 
" style="fill: none; stroke: #008000; stroke-width: 1.5; stroke-linecap: square"/>
    </g>
    <g id="text_17">
     <!-- APSNN -->
     <g transform="translate(282.2125 78.838125)scale(0.1 -0.1)">
      <use xlink:href="#TimesNewRomanPSMT-41"/>
      <use xlink:href="#TimesNewRomanPSMT-50" x="72.216797"/>
      <use xlink:href="#TimesNewRomanPSMT-53" x="127.832031"/>
      <use xlink:href="#TimesNewRomanPSMT-4e" x="183.447266"/>
      <use xlink:href="#TimesNewRomanPSMT-4e" x="255.664062"/>
     </g>
    </g>
   </g>
  </g>
  <g id="text_18">
   <!-- Physical loss comparison, log scale -->
   <g transform="translate(95.176875 14.0925)scale(0.12 -0.12)">
    <defs>
     <path id="TimesNewRomanPSMT-6d" d="M 1050 2338 
Q 1363 2650 1419 2697 
Q 1559 2816 1721 2881 
Q 1884 2947 2044 2947 
Q 2313 2947 2506 2790 
Q 2700 2634 2766 2338 
Q 3088 2713 3309 2830 
Q 3531 2947 3766 2947 
Q 3994 2947 4170 2830 
Q 4347 2713 4450 2447 
Q 4519 2266 4519 1878 
L 4519 647 
Q 4519 378 4559 278 
Q 4591 209 4675 161 
Q 4759 113 4950 113 
L 4950 0 
L 3538 0 
L 3538 113 
L 3597 113 
Q 3781 113 3884 184 
Q 3956 234 3988 344 
Q 4000 397 4000 647 
L 4000 1878 
Q 4000 2228 3916 2372 
Q 3794 2572 3525 2572 
Q 3359 2572 3192 2489 
Q 3025 2406 2788 2181 
L 2781 2147 
L 2788 2013 
L 2788 647 
Q 2788 353 2820 281 
Q 2853 209 2943 161 
Q 3034 113 3253 113 
L 3253 0 
L 1806 0 
L 1806 113 
Q 2044 113 2133 169 
Q 2222 225 2256 338 
Q 2272 391 2272 647 
L 2272 1878 
Q 2272 2228 2169 2381 
Q 2031 2581 1784 2581 
Q 1616 2581 1450 2491 
Q 1191 2353 1050 2181 
L 1050 647 
Q 1050 366 1089 281 
Q 1128 197 1204 155 
Q 1281 113 1516 113 
L 1516 0 
L 100 0 
L 100 113 
Q 297 113 375 155 
Q 453 197 493 289 
Q 534 381 534 647 
L 534 1741 
Q 534 2213 506 2350 
Q 484 2453 437 2492 
Q 391 2531 309 2531 
Q 222 2531 100 2484 
L 53 2597 
L 916 2947 
L 1050 2947 
L 1050 2338 
z
" transform="scale(0.015625)"/>
     <path id="TimesNewRomanPSMT-72" d="M 1038 2947 
L 1038 2303 
Q 1397 2947 1775 2947 
Q 1947 2947 2059 2842 
Q 2172 2738 2172 2600 
Q 2172 2478 2090 2393 
Q 2009 2309 1897 2309 
Q 1788 2309 1652 2417 
Q 1516 2525 1450 2525 
Q 1394 2525 1328 2463 
Q 1188 2334 1038 2041 
L 1038 669 
Q 1038 431 1097 309 
Q 1138 225 1241 169 
Q 1344 113 1538 113 
L 1538 0 
L 72 0 
L 72 113 
Q 291 113 397 181 
Q 475 231 506 341 
Q 522 394 522 644 
L 522 1753 
Q 522 2253 501 2348 
Q 481 2444 426 2487 
Q 372 2531 291 2531 
Q 194 2531 72 2484 
L 41 2597 
L 906 2947 
L 1038 2947 
z
" transform="scale(0.015625)"/>
     <path id="TimesNewRomanPSMT-6e" d="M 1034 2341 
Q 1538 2947 1994 2947 
Q 2228 2947 2397 2830 
Q 2566 2713 2666 2444 
Q 2734 2256 2734 1869 
L 2734 647 
Q 2734 375 2778 278 
Q 2813 200 2889 156 
Q 2966 113 3172 113 
L 3172 0 
L 1756 0 
L 1756 113 
L 1816 113 
Q 2016 113 2095 173 
Q 2175 234 2206 353 
Q 2219 400 2219 647 
L 2219 1819 
Q 2219 2209 2117 2386 
Q 2016 2563 1775 2563 
Q 1403 2563 1034 2156 
L 1034 647 
Q 1034 356 1069 288 
Q 1113 197 1189 155 
Q 1266 113 1500 113 
L 1500 0 
L 84 0 
L 84 113 
L 147 113 
Q 366 113 442 223 
Q 519 334 519 647 
L 519 1709 
Q 519 2225 495 2337 
Q 472 2450 423 2490 
Q 375 2531 294 2531 
Q 206 2531 84 2484 
L 38 2597 
L 900 2947 
L 1034 2947 
L 1034 2341 
z
" transform="scale(0.015625)"/>
    </defs>
    <use xlink:href="#TimesNewRomanPSMT-50"/>
    <use xlink:href="#TimesNewRomanPSMT-68" x="55.615234"/>
    <use xlink:href="#TimesNewRomanPSMT-79" x="105.615234"/>
    <use xlink:href="#TimesNewRomanPSMT-73" x="155.615234"/>
    <use xlink:href="#TimesNewRomanPSMT-69" x="194.53125"/>
    <use xlink:href="#TimesNewRomanPSMT-63" x="222.314453"/>
    <use xlink:href="#TimesNewRomanPSMT-61" x="266.699219"/>
    <use xlink:href="#TimesNewRomanPSMT-6c" x="311.083984"/>
    <use xlink:href="#TimesNewRomanPSMT-20" x="338.867188"/>
    <use xlink:href="#TimesNewRomanPSMT-6c" x="363.867188"/>
    <use xlink:href="#TimesNewRomanPSMT-6f" x="391.650391"/>
    <use xlink:href="#TimesNewRomanPSMT-73" x="441.650391"/>
    <use xlink:href="#TimesNewRomanPSMT-73" x="480.566406"/>
    <use xlink:href="#TimesNewRomanPSMT-20" x="519.482422"/>
    <use xlink:href="#TimesNewRomanPSMT-63" x="544.482422"/>
    <use xlink:href="#TimesNewRomanPSMT-6f" x="588.867188"/>
    <use xlink:href="#TimesNewRomanPSMT-6d" x="638.867188"/>
    <use xlink:href="#TimesNewRomanPSMT-70" x="716.650391"/>
    <use xlink:href="#TimesNewRomanPSMT-61" x="766.650391"/>
    <use xlink:href="#TimesNewRomanPSMT-72" x="811.035156"/>
    <use xlink:href="#TimesNewRomanPSMT-69" x="844.335938"/>
    <use xlink:href="#TimesNewRomanPSMT-73" x="872.119141"/>
    <use xlink:href="#TimesNewRomanPSMT-6f" x="911.035156"/>
    <use xlink:href="#TimesNewRomanPSMT-6e" x="961.035156"/>
    <use xlink:href="#TimesNewRomanPSMT-2c" x="1011.035156"/>
    <use xlink:href="#TimesNewRomanPSMT-20" x="1036.035156"/>
    <use xlink:href="#TimesNewRomanPSMT-6c" x="1061.035156"/>
    <use xlink:href="#TimesNewRomanPSMT-6f" x="1088.818359"/>
    <use xlink:href="#TimesNewRomanPSMT-67" x="1138.818359"/>
    <use xlink:href="#TimesNewRomanPSMT-20" x="1188.818359"/>
    <use xlink:href="#TimesNewRomanPSMT-73" x="1213.818359"/>
    <use xlink:href="#TimesNewRomanPSMT-63" x="1252.734375"/>
    <use xlink:href="#TimesNewRomanPSMT-61" x="1297.119141"/>
    <use xlink:href="#TimesNewRomanPSMT-6c" x="1341.503906"/>
    <use xlink:href="#TimesNewRomanPSMT-65" x="1369.287109"/>
   </g>
  </g>
 </g>
 <defs>
  <clipPath id="pe23e13d04f">
   <rect x="45" y="34.56" width="279" height="221.76"/>
  </clipPath>
 </defs>
</svg>
