<?xml version="1.0" encoding="utf-8" standalone="no"?>
<!DOCTYPE svg PUBLIC "-//W3C//DTD SVG 1.1//EN"
  "http://www.w3.org/Graphics/SVG/1.1/DTD/svg11.dtd">
<svg xmlns:xlink="http://www.w3.org/1999/xlink" width="360pt" height="288pt" viewBox="0 0 360 288" xmlns="http://www.w3.org/2000/svg" version="1.1">
 <metadata>
  <rdf:RDF xmlns:dc="http://purl.org/dc/elements/1.1/" xmlns:cc="http://creativecommons.org/ns#" xmlns:rdf="http://www.w3.org/1999/02/22-rdf-syntax-ns#">
   <cc:Work>
    <dc:type rdf:resource="http://purl.org/dc/dcmitype/StillImage"/>
    <dc:date>2024-11-11T15:22:02.018910</dc:date>
    <dc:format>image/svg+xml</dc:format>
    <dc:creator>
     <cc:Agent>
      <dc:title>Matplotlib v3.5.2, https://matplotlib.org/</dc:title>
     </cc:Agent>
    </dc:creator>
   </cc:Work>
  </rdf:RDF>
 </metadata>
 <defs>
  <style type="text/css">*{stroke-linejoin: round; stroke-linecap: butt}</style>
 </defs>
 <g id="figure_1">
  <g id="patch_1">
   <path d="M 0 288 
L 360 288 
L 360 0 
L 0 0 
z
" style="fill: #ffffff"/>
  </g>
  <g id="axes_1">
   <g id="patch_2">
    <path d="M 45 256.32 
L 324 256.32 
L 324 34.56 
L 45 34.56 
z
" style="fill: #ffffff"/>
   </g>
   <g id="PolyCollection_1">
    <path d="M 57.681818 56.851993 
L 57.681818 77.12628 
L 58.700438 89.649038 
L 59.719058 102.010436 
L 60.737678 115.032329 
L 61.756298 126.738701 
L 62.774918 133.433424 
L 63.793538 137.796448 
L 64.812158 142.035225 
L 65.830778 146.636313 
L 66.849398 152.315508 
L 67.868018 154.661906 
L 68.886637 157.011211 
L 69.905257 163.645605 
L 70.923877 169.593366 
L 71.942497 174.439798 
L 72.961117 178.829509 
L 73.979737 185.069658 
L 74.998357 187.759936 
L 76.016977 189.214831 
L 77.035597 189.910895 
L 78.054217 192.875002 
L 79.072837 195.124812 
L 80.091457 197.146443 
L 81.110077 199.131723 
L 82.128697 201.285086 
L 83.147317 203.21993 
L 84.165936 204.934531 
L 85.184556 205.829134 
L 86.203176 206.532626 
L 87.221796 207.343672 
L 88.240416 208.046513 
L 89.259036 208.623965 
L 90.277656 209.461688 
L 91.296276 210.223584 
L 92.314896 210.628887 
L 93.333516 209.234172 
L 94.352136 209.656613 
L 95.370756 210.080201 
L 96.389376 208.828458 
L 97.407996 209.237757 
L 98.426616 211.354271 
L 99.445235 211.673358 
L 100.463855 211.891312 
L 101.482475 213.653682 
L 102.501095 213.774373 
L 103.519715 213.8788 
L 104.538335 213.969647 
L 105.556955 214.105939 
L 106.575575 214.254494 
L 107.594195 214.392676 
L 108.612815 214.509279 
L 109.631435 214.640537 
L 110.650055 214.353914 
L 111.668675 214.477888 
L 112.687295 214.617377 
L 113.705915 214.742098 
L 114.724535 214.883254 
L 115.743154 215.409928 
L 116.761774 215.234811 
L 117.780394 215.352682 
L 118.799014 215.478631 
L 119.817634 215.58106 
L 120.836254 215.733776 
L 121.854874 216.156525 
L 122.873494 216.280481 
L 123.892114 216.87511 
L 124.910734 217.859646 
L 125.929354 219.808699 
L 126.947974 219.564919 
L 127.966594 219.346212 
L 128.985214 218.406791 
L 130.003834 217.632587 
L 131.022453 217.155407 
L 132.041073 217.2907 
L 133.059693 217.509402 
L 134.078313 217.59156 
L 135.096933 217.714597 
L 136.115553 222.242564 
L 137.134173 222.680755 
L 138.152793 223.15326 
L 139.171413 223.12285 
L 140.190033 223.802657 
L 141.208653 223.498184 
L 142.227273 224.12675 
L 143.245893 223.890775 
L 144.264513 224.438622 
L 145.283133 224.558639 
L 146.301752 223.685797 
L 147.320372 223.760733 
L 148.338992 223.540165 
L 149.357612 223.993632 
L 150.376232 224.395876 
L 151.394852 226.182593 
L 152.413472 226.857462 
L 153.432092 228.171515 
L 154.450712 227.912368 
L 155.469332 225.587268 
L 156.487952 226.659026 
L 157.506572 226.705728 
L 158.525192 227.308372 
L 159.543812 227.951289 
L 160.562432 230.435938 
L 161.581051 230.097585 
L 162.599671 229.075132 
L 163.618291 228.808125 
L 164.636911 226.688785 
L 165.655531 227.359498 
L 166.674151 226.768511 
L 167.692771 227.852828 
L 168.711391 228.299872 
L 169.730011 231.507268 
L 170.748631 231.798446 
L 171.767251 233.771845 
L 172.785871 231.748787 
L 173.804491 232.052158 
L 174.823111 231.518131 
L 175.841731 231.27514 
L 176.86035 229.729062 
L 177.87897 230.898122 
L 178.89759 230.848754 
L 179.91621 229.439819 
L 180.93483 230.634842 
L 181.95345 232.2989 
L 182.97207 234.561685 
L 183.99069 235.380296 
L 185.00931 237.776068 
L 186.02793 237.331997 
L 187.04655 234.632597 
L 188.06517 234.722016 
L 189.08379 234.784668 
L 190.10241 235.23286 
L 191.12103 233.911123 
L 192.13965 236.928115 
L 193.158269 237.205175 
L 194.176889 237.309597 
L 195.195509 237.1856 
L 196.214129 238.186498 
L 197.232749 238.729104 
L 198.251369 238.904032 
L 199.269989 238.851616 
L 200.288609 238.971513 
L 201.307229 238.008675 
L 202.325849 236.448554 
L 203.344469 235.987712 
L 204.363089 236.22544 
L 205.381709 235.838563 
L 206.400329 234.737738 
L 207.418949 236.167441 
L 208.437568 236.206681 
L 209.456188 236.062979 
L 210.474808 236.411631 
L 211.493428 238.794405 
L 212.512048 238.893408 
L 213.530668 239.319332 
L 214.549288 239.071887 
L 215.567908 238.436619 
L 216.586528 239.51775 
L 217.605148 237.333076 
L 218.623768 236.961915 
L 219.642388 237.54753 
L 220.661008 238.331313 
L 221.679628 234.680475 
L 222.698248 234.833042 
L 223.716867 234.966052 
L 224.735487 235.014518 
L 225.754107 235.245356 
L 226.772727 239.462303 
L 227.791347 241.55588 
L 228.809967 239.0303 
L 229.828587 238.688356 
L 230.847207 238.957858 
L 231.865827 239.080416 
L 232.884447 239.927581 
L 233.903067 242.718159 
L 234.921687 243.230846 
L 235.940307 243.314483 
L 236.958927 239.960063 
L 237.977547 239.175584 
L 238.996166 239.366838 
L 240.014786 237.029225 
L 241.033406 231.52505 
L 242.052026 231.591452 
L 243.070646 231.810822 
L 244.089266 230.624613 
L 245.107886 232.425453 
L 246.126506 237.70692 
L 247.145126 240.693987 
L 248.163746 239.907201 
L 249.182366 241.204094 
L 250.200986 241.533251 
L 251.219606 240.095213 
L 252.238226 240.64443 
L 253.256846 241.858891 
L 254.275465 241.828625 
L 255.294085 240.074092 
L 256.312705 241.978931 
L 257.331325 241.797033 
L 258.349945 240.428383 
L 259.368565 236.117993 
L 260.387185 238.184477 
L 261.405805 235.520293 
L 262.424425 241.234173 
L 263.443045 240.808415 
L 264.461665 240.353618 
L 265.480285 240.151357 
L 266.498905 241.915172 
L 267.517525 241.411881 
L 268.536145 240.092827 
L 269.554765 238.598378 
L 270.573384 239.400148 
L 271.592004 240.723232 
L 272.610624 241.220609 
L 273.629244 243.080716 
L 274.647864 245.111248 
L 275.666484 241.706449 
L 276.685104 241.660318 
L 277.703724 241.852989 
L 278.722344 241.90045 
L 279.740964 241.28833 
L 280.759584 244.187496 
L 281.778204 242.336568 
L 282.796824 237.811158 
L 283.815444 237.124285 
L 284.834064 237.516875 
L 285.852683 235.945582 
L 286.871303 237.998514 
L 287.889923 239.20407 
L 288.908543 239.604869 
L 289.927163 239.835496 
L 290.945783 240.944845 
L 291.964403 240.849882 
L 292.983023 241.318032 
L 294.001643 240.851892 
L 295.020263 240.909628 
L 296.038883 240.998836 
L 297.057503 241.156228 
L 298.076123 241.272934 
L 299.094743 236.332167 
L 300.113363 235.939445 
L 301.131982 238.166186 
L 302.150602 240.146077 
L 303.169222 242.920585 
L 304.187842 239.607992 
L 305.206462 239.745843 
L 306.225082 238.865294 
L 307.243702 239.431562 
L 308.262322 239.714988 
L 309.280942 242.0072 
L 310.299562 242.330106 
L 311.318182 245.293928 
L 311.318182 200.686701 
L 311.318182 200.686701 
L 310.299562 205.561784 
L 309.280942 210.573834 
L 308.262322 210.013816 
L 307.243702 209.915081 
L 306.225082 208.385614 
L 305.206462 208.285463 
L 304.187842 210.492532 
L 303.169222 207.964184 
L 302.150602 207.863108 
L 301.131982 208.852685 
L 300.113363 207.162779 
L 299.094743 208.975716 
L 298.076123 210.479654 
L 297.057503 210.647355 
L 296.038883 210.52055 
L 295.020263 209.720972 
L 294.001643 209.610042 
L 292.983023 210.602063 
L 291.964403 210.41139 
L 290.945783 210.310611 
L 289.927163 209.596656 
L 288.908543 210.7626 
L 287.889923 210.69304 
L 286.871303 209.454244 
L 285.852683 208.091839 
L 284.834064 207.962146 
L 283.815444 207.805137 
L 282.796824 207.67062 
L 281.778204 208.73075 
L 280.759584 209.823498 
L 279.740964 209.22674 
L 278.722344 208.583114 
L 277.703724 208.156175 
L 276.685104 208.749348 
L 275.666484 209.131064 
L 274.647864 208.98078 
L 273.629244 208.809482 
L 272.610624 208.657982 
L 271.592004 208.503948 
L 270.573384 208.344815 
L 269.554765 208.186585 
L 268.536145 208.011217 
L 267.517525 207.725257 
L 266.498905 207.546732 
L 265.480285 207.357162 
L 264.461665 207.147057 
L 263.443045 206.427942 
L 262.424425 205.451631 
L 261.405805 201.011228 
L 260.387185 199.714358 
L 259.368565 199.016255 
L 258.349945 205.246368 
L 257.331325 202.749948 
L 256.312705 204.987535 
L 255.294085 204.587226 
L 254.275465 204.132561 
L 253.256846 203.625599 
L 252.238226 203.082575 
L 251.219606 202.577954 
L 250.200986 201.433617 
L 249.182366 200.825881 
L 248.163746 199.804262 
L 247.145126 198.642189 
L 246.126506 198.12357 
L 245.107886 198.145765 
L 244.089266 197.705074 
L 243.070646 197.735854 
L 242.052026 197.384908 
L 241.033406 197.065798 
L 240.014786 196.813679 
L 238.996166 196.260723 
L 237.977547 195.811623 
L 236.958927 196.224593 
L 235.940307 196.049682 
L 234.921687 195.698399 
L 233.903067 195.896418 
L 232.884447 196.058873 
L 231.865827 196.021008 
L 230.847207 195.974717 
L 229.828587 194.233359 
L 228.809967 196.12995 
L 227.791347 196.025683 
L 226.772727 195.19799 
L 225.754107 195.943183 
L 224.735487 195.824319 
L 223.716867 195.791055 
L 222.698248 195.760822 
L 221.679628 195.769168 
L 220.661008 195.608523 
L 219.642388 195.449202 
L 218.623768 195.406485 
L 217.605148 195.425015 
L 216.586528 195.332581 
L 215.567908 195.448734 
L 214.549288 195.708731 
L 213.530668 195.651628 
L 212.512048 195.691406 
L 211.493428 195.733215 
L 210.474808 195.727267 
L 209.456188 195.609356 
L 208.437568 195.62163 
L 207.418949 195.540065 
L 206.400329 195.558921 
L 205.381709 195.502549 
L 204.363089 195.528391 
L 203.344469 195.476946 
L 202.325849 195.459118 
L 201.307229 195.303724 
L 200.288609 194.664015 
L 199.269989 194.587434 
L 198.251369 194.560638 
L 197.232749 194.542142 
L 196.214129 194.642636 
L 195.195509 195.198047 
L 194.176889 195.246433 
L 193.158269 195.124212 
L 192.13965 195.01064 
L 191.12103 194.952972 
L 190.10241 194.821994 
L 189.08379 194.824495 
L 188.06517 194.967569 
L 187.04655 195.060653 
L 186.02793 195.087518 
L 185.00931 195.158504 
L 183.99069 195.052044 
L 182.97207 194.974659 
L 181.95345 194.982982 
L 180.93483 194.701988 
L 179.91621 194.774476 
L 178.89759 194.853717 
L 177.87897 194.903987 
L 176.86035 194.884144 
L 175.841731 195.048203 
L 174.823111 194.998389 
L 173.804491 194.956905 
L 172.785871 194.850686 
L 171.767251 194.835272 
L 170.748631 194.811616 
L 169.730011 194.822685 
L 168.711391 194.741069 
L 167.692771 194.796791 
L 166.674151 194.677059 
L 165.655531 194.696286 
L 164.636911 194.59066 
L 163.618291 194.567797 
L 162.599671 194.53213 
L 161.581051 194.548011 
L 160.562432 194.143038 
L 159.543812 194.211907 
L 158.525192 194.168093 
L 157.506572 194.075888 
L 156.487952 194.080701 
L 155.469332 194.406586 
L 154.450712 194.384426 
L 153.432092 194.357972 
L 152.413472 194.32976 
L 151.394852 194.068376 
L 150.376232 194.109455 
L 149.357612 194.053282 
L 148.338992 193.289343 
L 147.320372 192.168896 
L 146.301752 191.87656 
L 145.283133 190.960629 
L 144.264513 190.3469 
L 143.245893 190.504919 
L 142.227273 190.103697 
L 141.208653 189.710341 
L 140.190033 188.793149 
L 139.171413 188.634353 
L 138.152793 187.564468 
L 137.134173 188.047751 
L 136.115553 187.623746 
L 135.096933 188.01334 
L 134.078313 187.586509 
L 133.059693 187.804211 
L 132.041073 186.929582 
L 131.022453 186.406944 
L 130.003834 185.945742 
L 128.985214 185.582545 
L 127.966594 185.174279 
L 126.947974 184.855466 
L 125.929354 184.8333 
L 124.910734 185.201018 
L 123.892114 185.147254 
L 122.873494 184.169894 
L 121.854874 183.346071 
L 120.836254 181.997493 
L 119.817634 180.226 
L 118.799014 179.63144 
L 117.780394 179.804609 
L 116.761774 179.388305 
L 115.743154 179.279283 
L 114.724535 178.497121 
L 113.705915 177.616887 
L 112.687295 176.7546 
L 111.668675 175.999171 
L 110.650055 174.600243 
L 109.631435 174.327253 
L 108.612815 174.180742 
L 107.594195 166.902214 
L 106.575575 167.239403 
L 105.556955 167.707387 
L 104.538335 168.276693 
L 103.519715 166.843382 
L 102.501095 165.908293 
L 101.482475 165.188321 
L 100.463855 157.36395 
L 99.445235 149.054315 
L 98.426616 149.332283 
L 97.407996 155.42451 
L 96.389376 154.374451 
L 95.370756 161.191526 
L 94.352136 168.407088 
L 93.333516 166.557313 
L 92.314896 166.767675 
L 91.296276 166.143926 
L 90.277656 158.289351 
L 89.259036 156.50877 
L 88.240416 156.292654 
L 87.221796 155.523634 
L 86.203176 155.34459 
L 85.184556 153.75487 
L 84.165936 151.723967 
L 83.147317 149.64352 
L 82.128697 147.47463 
L 81.110077 146.908339 
L 80.091457 145.075844 
L 79.072837 144.281791 
L 78.054217 144.320496 
L 77.035597 143.417643 
L 76.016977 141.259468 
L 74.998357 141.498458 
L 73.979737 138.358424 
L 72.961117 135.760556 
L 71.942497 133.318311 
L 70.923877 131.573951 
L 69.905257 129.895353 
L 68.886637 127.387196 
L 67.868018 124.730759 
L 66.849398 121.736151 
L 65.830778 116.199979 
L 64.812158 112.610303 
L 63.793538 106.762882 
L 62.774918 100.925343 
L 61.756298 93.081705 
L 60.737678 84.627671 
L 59.719058 73.182615 
L 58.700438 64.091926 
L 57.681818 56.851993 
z
" clip-path="url(#p84b0c064ae)" style="fill: #ff0000; fill-opacity: 0.3"/>
   </g>
   <g id="PolyCollection_2">
    <path d="M 57.681818 52.959248 
L 57.681818 84.271347 
L 58.700438 97.237707 
L 59.719058 111.894595 
L 60.737678 128.146118 
L 61.756298 144.734396 
L 62.774918 153.324837 
L 63.793538 161.845849 
L 64.812158 170.203967 
L 65.830778 178.930043 
L 66.849398 185.263869 
L 67.868018 189.58401 
L 68.886637 193.490422 
L 69.905257 196.831769 
L 70.923877 199.461742 
L 71.942497 201.576463 
L 72.961117 203.367656 
L 73.979737 204.222168 
L 74.998357 205.38761 
L 76.016977 207.388536 
L 77.035597 207.724481 
L 78.054217 208.344598 
L 79.072837 209.07633 
L 80.091457 209.576487 
L 81.110077 210.001811 
L 82.128697 210.335284 
L 83.147317 210.586735 
L 84.165936 210.874648 
L 85.184556 211.125214 
L 86.203176 210.732949 
L 87.221796 211.039363 
L 88.240416 211.23974 
L 89.259036 211.417191 
L 90.277656 211.582535 
L 91.296276 212.35611 
L 92.314896 209.658605 
L 93.333516 209.857093 
L 94.352136 212.514478 
L 95.370756 212.127841 
L 96.389376 212.362481 
L 97.407996 212.573733 
L 98.426616 212.785436 
L 99.445235 213.362345 
L 100.463855 213.801255 
L 101.482475 214.010246 
L 102.501095 214.220499 
L 103.519715 214.259654 
L 104.538335 214.425197 
L 105.556955 214.627835 
L 106.575575 214.828697 
L 107.594195 214.206091 
L 108.612815 214.566262 
L 109.631435 214.794103 
L 110.650055 214.977657 
L 111.668675 215.118214 
L 112.687295 216.112089 
L 113.705915 213.946173 
L 114.724535 213.57942 
L 115.743154 214.681912 
L 116.761774 214.838944 
L 117.780394 213.655515 
L 118.799014 216.144788 
L 119.817634 215.314035 
L 120.836254 215.45965 
L 121.854874 215.601479 
L 122.873494 216.178309 
L 123.892114 216.22448 
L 124.910734 216.642268 
L 125.929354 216.76333 
L 126.947974 216.890197 
L 127.966594 217.011111 
L 128.985214 213.025339 
L 130.003834 213.079976 
L 131.022453 213.205336 
L 132.041073 212.111361 
L 133.059693 212.163788 
L 134.078313 219.009486 
L 135.096933 219.086757 
L 136.115553 219.193953 
L 137.134173 219.115186 
L 138.152793 219.225202 
L 139.171413 219.350859 
L 140.190033 217.701461 
L 141.208653 217.802709 
L 142.227273 218.091066 
L 143.245893 218.190201 
L 144.264513 217.812824 
L 145.283133 219.69326 
L 146.301752 219.789181 
L 147.320372 219.883984 
L 148.338992 219.974699 
L 149.357612 220.543764 
L 150.376232 220.531679 
L 151.394852 220.623428 
L 152.413472 216.511947 
L 153.432092 216.743789 
L 154.450712 216.606156 
L 155.469332 214.5851 
L 156.487952 214.155621 
L 157.506572 216.867963 
L 158.525192 216.951245 
L 159.543812 217.041846 
L 160.562432 217.076012 
L 161.581051 221.559093 
L 162.599671 221.633173 
L 163.618291 221.727747 
L 164.636911 221.812343 
L 165.655531 221.950867 
L 166.674151 222.035388 
L 167.692771 222.132845 
L 168.711391 222.072077 
L 169.730011 221.925492 
L 170.748631 222.010202 
L 171.767251 221.918026 
L 172.785871 222.001405 
L 173.804491 220.658073 
L 174.823111 220.974066 
L 175.841731 221.056686 
L 176.86035 221.316689 
L 177.87897 221.397089 
L 178.89759 223.051134 
L 179.91621 217.547621 
L 180.93483 217.593352 
L 181.95345 217.639106 
L 182.97207 217.799118 
L 183.99069 217.834032 
L 185.00931 222.121708 
L 186.02793 222.026905 
L 187.04655 222.109103 
L 188.06517 222.636011 
L 189.08379 222.933057 
L 190.10241 217.910001 
L 191.12103 216.90814 
L 192.13965 217.319346 
L 193.158269 217.366653 
L 194.176889 215.232471 
L 195.195509 219.848505 
L 196.214129 219.929886 
L 197.232749 220.012073 
L 198.251369 220.168876 
L 199.269989 223.647989 
L 200.288609 224.747559 
L 201.307229 224.824408 
L 202.325849 224.878171 
L 203.344469 224.959113 
L 204.363089 225.040666 
L 205.381709 225.132791 
L 206.400329 225.218545 
L 207.418949 225.326477 
L 208.437568 225.4094 
L 209.456188 225.491256 
L 210.474808 223.908757 
L 211.493428 223.983996 
L 212.512048 219.369372 
L 213.530668 219.418803 
L 214.549288 219.442231 
L 215.567908 219.482664 
L 216.586528 219.476807 
L 217.605148 220.830261 
L 218.623768 220.909702 
L 219.642388 226.325776 
L 220.661008 226.407786 
L 221.679628 221.169117 
L 222.698248 221.250681 
L 223.716867 221.309799 
L 224.735487 221.391415 
L 225.754107 221.465581 
L 226.772727 226.862777 
L 227.791347 222.551861 
L 228.809967 222.66005 
L 229.828587 222.743595 
L 230.847207 222.834704 
L 231.865827 220.008356 
L 232.884447 223.316954 
L 233.903067 223.203524 
L 234.921687 223.286373 
L 235.940307 219.234358 
L 236.958927 222.031569 
L 237.977547 221.64499 
L 238.996166 218.215228 
L 240.014786 219.241483 
L 241.033406 219.197641 
L 242.052026 218.162115 
L 243.070646 218.716105 
L 244.089266 227.182754 
L 245.107886 223.012007 
L 246.126506 223.087497 
L 247.145126 224.290461 
L 248.163746 218.048155 
L 249.182366 218.14137 
L 250.200986 222.486606 
L 251.219606 222.581289 
L 252.238226 222.493736 
L 253.256846 228.73417 
L 254.275465 228.816659 
L 255.294085 228.900963 
L 256.312705 228.983852 
L 257.331325 225.20416 
L 258.349945 225.457501 
L 259.368565 219.138426 
L 260.387185 219.223341 
L 261.405805 219.207237 
L 262.424425 221.653547 
L 263.443045 221.740066 
L 264.461665 228.231369 
L 265.480285 221.361348 
L 266.498905 219.002122 
L 267.517525 222.048958 
L 268.536145 222.094695 
L 269.554765 222.142636 
L 270.573384 226.968271 
L 271.592004 229.600744 
L 272.610624 230.370238 
L 273.629244 227.542937 
L 274.647864 227.2939 
L 275.666484 223.403833 
L 276.685104 223.489341 
L 277.703724 223.882885 
L 278.722344 226.663816 
L 279.740964 227.092553 
L 280.759584 228.957239 
L 281.778204 229.043495 
L 282.796824 229.130837 
L 283.815444 229.435829 
L 284.834064 229.52744 
L 285.852683 225.173259 
L 286.871303 225.259915 
L 287.889923 225.268233 
L 288.908543 225.355905 
L 289.927163 225.438714 
L 290.945783 232.16045 
L 291.964403 232.248973 
L 292.983023 232.415172 
L 294.001643 232.498643 
L 295.020263 232.124919 
L 296.038883 231.033427 
L 297.057503 231.121197 
L 298.076123 231.208635 
L 299.094743 229.306729 
L 300.113363 224.898528 
L 301.131982 226.167306 
L 302.150602 226.255081 
L 303.169222 226.342542 
L 304.187842 228.312597 
L 305.206462 223.242645 
L 306.225082 223.333246 
L 307.243702 223.421746 
L 308.262322 223.509961 
L 309.280942 223.011961 
L 310.299562 233.13704 
L 311.318182 233.125537 
L 311.318182 195.525012 
L 311.318182 195.525012 
L 310.299562 196.781208 
L 309.280942 196.758631 
L 308.262322 190.71629 
L 307.243702 190.699593 
L 306.225082 193.101268 
L 305.206462 192.930136 
L 304.187842 192.733241 
L 303.169222 198.278358 
L 302.150602 198.24897 
L 301.131982 197.639739 
L 300.113363 197.622111 
L 299.094743 197.14227 
L 298.076123 196.818988 
L 297.057503 196.838711 
L 296.038883 196.970248 
L 295.020263 196.955611 
L 294.001643 196.268863 
L 292.983023 196.839293 
L 291.964403 196.678539 
L 290.945783 196.627881 
L 289.927163 196.639236 
L 288.908543 197.803427 
L 287.889923 197.795932 
L 286.871303 196.713322 
L 285.852683 196.683609 
L 284.834064 196.653462 
L 283.815444 194.909467 
L 282.796824 194.861275 
L 281.778204 198.067831 
L 280.759584 197.901643 
L 279.740964 197.955823 
L 278.722344 197.947786 
L 277.703724 197.93908 
L 276.685104 197.914955 
L 275.666484 194.84174 
L 274.647864 194.82377 
L 273.629244 194.805788 
L 272.610624 196.012137 
L 271.592004 196.016155 
L 270.573384 198.027911 
L 269.554765 193.445027 
L 268.536145 193.443046 
L 267.517525 193.4183 
L 266.498905 193.409189 
L 265.480285 193.399884 
L 264.461665 197.779371 
L 263.443045 195.850481 
L 262.424425 195.816372 
L 261.405805 195.794788 
L 260.387185 195.314765 
L 259.368565 195.281723 
L 258.349945 195.776041 
L 257.331325 195.756603 
L 256.312705 195.493072 
L 255.294085 197.077661 
L 254.275465 197.090305 
L 253.256846 197.068179 
L 252.238226 196.953625 
L 251.219606 195.002922 
L 250.200986 194.985214 
L 249.182366 194.973277 
L 248.163746 194.955912 
L 247.145126 196.390399 
L 246.126506 196.344399 
L 245.107886 197.552198 
L 244.089266 197.541808 
L 243.070646 196.87826 
L 242.052026 196.860757 
L 241.033406 196.856111 
L 240.014786 191.864246 
L 238.996166 191.850523 
L 237.977547 191.834156 
L 236.958927 191.756731 
L 235.940307 191.741455 
L 234.921687 197.659405 
L 233.903067 197.633819 
L 232.884447 193.26491 
L 231.865827 193.247636 
L 230.847207 193.647533 
L 229.828587 193.628324 
L 228.809967 193.611404 
L 227.791347 196.430587 
L 226.772727 196.390245 
L 225.754107 197.348076 
L 224.735487 197.398563 
L 223.716867 196.063497 
L 222.698248 195.997819 
L 221.679628 195.95122 
L 220.661008 197.463104 
L 219.642388 197.255671 
L 218.623768 196.263503 
L 217.605148 196.239098 
L 216.586528 195.18204 
L 215.567908 195.166884 
L 214.549288 194.231401 
L 213.530668 194.736794 
L 212.512048 194.026149 
L 211.493428 195.266076 
L 210.474808 195.421013 
L 209.456188 196.341961 
L 208.437568 196.445937 
L 207.418949 196.435131 
L 206.400329 196.269405 
L 205.381709 197.161674 
L 204.363089 197.109326 
L 203.344469 197.092434 
L 202.325849 197.144754 
L 201.307229 197.127571 
L 200.288609 193.682841 
L 199.269989 193.701354 
L 198.251369 190.834698 
L 197.232749 190.822647 
L 196.214129 190.811493 
L 195.195509 190.800715 
L 194.176889 190.981015 
L 193.158269 194.732078 
L 192.13965 195.981299 
L 191.12103 195.931588 
L 190.10241 193.939099 
L 189.08379 193.920672 
L 188.06517 190.627756 
L 187.04655 187.269757 
L 186.02793 189.757814 
L 185.00931 192.809685 
L 183.99069 192.009621 
L 182.97207 189.742304 
L 181.95345 187.740641 
L 180.93483 187.724274 
L 179.91621 187.96013 
L 178.89759 184.625638 
L 177.87897 190.253216 
L 176.86035 191.812903 
L 175.841731 192.870087 
L 174.823111 189.318236 
L 173.804491 192.575667 
L 172.785871 192.558296 
L 171.767251 192.564141 
L 170.748631 192.741861 
L 169.730011 193.701491 
L 168.711391 193.503643 
L 167.692771 193.445164 
L 166.674151 196.333456 
L 165.655531 195.118646 
L 164.636911 195.110672 
L 163.618291 195.08919 
L 162.599671 190.204413 
L 161.581051 190.34956 
L 160.562432 191.512192 
L 159.543812 191.350571 
L 158.525192 188.115118 
L 157.506572 189.186054 
L 156.487952 189.866134 
L 155.469332 189.85011 
L 154.450712 192.918976 
L 153.432092 194.054647 
L 152.413472 194.008738 
L 151.394852 193.908558 
L 150.376232 191.022413 
L 149.357612 191.184765 
L 148.338992 191.169021 
L 147.320372 195.841787 
L 146.301752 195.815596 
L 145.283133 195.788543 
L 144.264513 195.759058 
L 143.245893 195.345437 
L 142.227273 195.838693 
L 141.208653 195.810007 
L 140.190033 195.781333 
L 139.171413 192.038364 
L 138.152793 190.459792 
L 137.134173 184.888279 
L 136.115553 188.435444 
L 135.096933 188.414253 
L 134.078313 190.174118 
L 133.059693 193.974281 
L 132.041073 193.902519 
L 131.022453 195.589022 
L 130.003834 195.505945 
L 128.985214 195.46864 
L 127.966594 193.810622 
L 126.947974 193.876008 
L 125.929354 193.806848 
L 124.910734 193.734538 
L 123.892114 193.451501 
L 122.873494 191.030537 
L 121.854874 190.952826 
L 120.836254 190.871861 
L 119.817634 190.788618 
L 118.799014 190.262578 
L 117.780394 194.530503 
L 116.761774 194.244468 
L 115.743154 191.245014 
L 114.724535 191.036907 
L 113.705915 191.021277 
L 112.687295 190.824879 
L 111.668675 190.716867 
L 110.650055 190.985142 
L 109.631435 189.983657 
L 108.612815 189.741584 
L 107.594195 189.498353 
L 106.575575 187.340458 
L 105.556955 186.686345 
L 104.538335 189.438476 
L 103.519715 189.184986 
L 102.501095 188.915467 
L 101.482475 190.570904 
L 100.463855 190.694449 
L 99.445235 190.454221 
L 98.426616 189.722238 
L 97.407996 189.485788 
L 96.389376 189.234497 
L 95.370756 189.010343 
L 94.352136 188.799012 
L 93.333516 189.022594 
L 92.314896 188.554176 
L 91.296276 188.299973 
L 90.277656 188.042236 
L 89.259036 187.682744 
L 88.240416 186.293481 
L 87.221796 185.809045 
L 86.203176 185.942323 
L 85.184556 185.635681 
L 84.165936 185.406978 
L 83.147317 186.15136 
L 82.128697 185.375752 
L 81.110077 185.312467 
L 80.091457 184.809329 
L 79.072837 184.23407 
L 78.054217 183.589816 
L 77.035597 182.812336 
L 76.016977 181.267382 
L 74.998357 179.045522 
L 73.979737 177.387213 
L 72.961117 173.393929 
L 71.942497 169.798098 
L 70.923877 164.662041 
L 69.905257 158.224724 
L 68.886637 151.339586 
L 67.868018 144.567911 
L 66.849398 138.114861 
L 65.830778 128.739708 
L 64.812158 116.117787 
L 63.793538 104.564176 
L 62.774918 93.624626 
L 61.756298 82.826494 
L 60.737678 76.523979 
L 59.719058 68.583307 
L 58.700438 60.713735 
L 57.681818 52.959248 
z
" clip-path="url(#p84b0c064ae)" style="fill: #0000ff; fill-opacity: 0.3"/>
   </g>
   <g id="PolyCollection_3">
    <path d="M 57.681818 44.64 
L 57.681818 85.700069 
L 58.700438 100.873823 
L 59.719058 118.580058 
L 60.737678 133.447998 
L 61.756298 145.222754 
L 62.774918 153.546284 
L 63.793538 157.52967 
L 64.812158 156.8421 
L 65.830778 160.778316 
L 66.849398 165.548498 
L 67.868018 166.144623 
L 68.886637 170.445731 
L 69.905257 172.592529 
L 70.923877 179.637291 
L 71.942497 182.459209 
L 72.961117 184.374849 
L 73.979737 182.82973 
L 74.998357 184.250739 
L 76.016977 192.215872 
L 77.035597 188.265573 
L 78.054217 189.789953 
L 79.072837 189.2396 
L 80.091457 189.570378 
L 81.110077 190.450225 
L 82.128697 192.356275 
L 83.147317 194.254133 
L 84.165936 193.110207 
L 85.184556 192.350446 
L 86.203176 191.608376 
L 87.221796 194.463792 
L 88.240416 193.057529 
L 89.259036 192.649411 
L 90.277656 193.356259 
L 91.296276 193.269602 
L 92.314896 198.444444 
L 93.333516 193.372351 
L 94.352136 196.713807 
L 95.370756 195.405937 
L 96.389376 200.017015 
L 97.407996 202.622195 
L 98.426616 199.549791 
L 99.445235 197.452326 
L 100.463855 199.677149 
L 101.482475 200.727711 
L 102.501095 205.804736 
L 103.519715 201.993167 
L 104.538335 204.191239 
L 105.556955 205.882378 
L 106.575575 208.20439 
L 107.594195 210.325282 
L 108.612815 214.928169 
L 109.631435 211.739766 
L 110.650055 213.83872 
L 111.668675 212.932135 
L 112.687295 211.203582 
L 113.705915 212.537683 
L 114.724535 214.885012 
L 115.743154 218.379321 
L 116.761774 220.067041 
L 117.780394 223.269595 
L 118.799014 225.615891 
L 119.817634 221.908949 
L 120.836254 222.785593 
L 121.854874 223.800893 
L 122.873494 225.601357 
L 123.892114 228.303046 
L 124.910734 231.562333 
L 125.929354 237.265104 
L 126.947974 238.855937 
L 127.966594 237.64549 
L 128.985214 236.553866 
L 130.003834 236.928149 
L 131.022453 236.740942 
L 132.041073 236.587352 
L 133.059693 237.888024 
L 134.078313 234.628527 
L 135.096933 233.335145 
L 136.115553 233.172119 
L 137.134173 233.072453 
L 138.152793 232.874879 
L 139.171413 236.643365 
L 140.190033 228.445236 
L 141.208653 226.351065 
L 142.227273 226.704512 
L 143.245893 225.398428 
L 144.264513 224.400922 
L 145.283133 222.172183 
L 146.301752 222.219684 
L 147.320372 209.63661 
L 148.338992 206.401945 
L 149.357612 207.266264 
L 150.376232 206.58289 
L 151.394852 209.595537 
L 152.413472 211.169228 
L 153.432092 220.107315 
L 154.450712 223.661398 
L 155.469332 228.26247 
L 156.487952 229.31161 
L 157.506572 223.381187 
L 158.525192 223.901398 
L 159.543812 220.44504 
L 160.562432 219.896474 
L 161.581051 225.394033 
L 162.599671 225.107999 
L 163.618291 226.413369 
L 164.636911 228.649951 
L 165.655531 232.394587 
L 166.674151 230.37299 
L 167.692771 229.607583 
L 168.711391 222.072517 
L 169.730011 220.358138 
L 170.748631 225.631361 
L 171.767251 224.423049 
L 172.785871 219.925388 
L 173.804491 216.527702 
L 174.823111 214.384421 
L 175.841731 217.128154 
L 176.86035 218.930639 
L 177.87897 221.020208 
L 178.89759 221.701111 
L 179.91621 222.936979 
L 180.93483 222.760738 
L 181.95345 224.178048 
L 182.97207 226.058055 
L 183.99069 227.733747 
L 185.00931 227.076004 
L 186.02793 227.52044 
L 187.04655 227.356392 
L 188.06517 225.904426 
L 189.08379 225.685359 
L 190.10241 227.200605 
L 191.12103 227.01571 
L 192.13965 226.121854 
L 193.158269 225.111498 
L 194.176889 225.642453 
L 195.195509 227.482677 
L 196.214129 232.613877 
L 197.232749 234.81683 
L 198.251369 233.016069 
L 199.269989 228.684351 
L 200.288609 230.82471 
L 201.307229 232.019373 
L 202.325849 232.014818 
L 203.344469 234.245435 
L 204.363089 234.016755 
L 205.381709 236.827119 
L 206.400329 239.782926 
L 207.418949 239.182229 
L 208.437568 240.580997 
L 209.456188 240.988338 
L 210.474808 241.171532 
L 211.493428 242.261386 
L 212.512048 232.763864 
L 213.530668 236.308425 
L 214.549288 236.332955 
L 215.567908 234.121782 
L 216.586528 237.665687 
L 217.605148 246.24 
L 218.623768 242.378327 
L 219.642388 239.069866 
L 220.661008 238.894693 
L 221.679628 236.4283 
L 222.698248 238.52633 
L 223.716867 240.338582 
L 224.735487 240.875719 
L 225.754107 240.788715 
L 226.772727 240.385877 
L 227.791347 236.981296 
L 228.809967 233.615739 
L 229.828587 232.247351 
L 230.847207 229.731054 
L 231.865827 228.839265 
L 232.884447 233.760805 
L 233.903067 233.044623 
L 234.921687 234.315342 
L 235.940307 231.277446 
L 236.958927 229.291065 
L 237.977547 224.240003 
L 238.996166 222.988048 
L 240.014786 223.369079 
L 241.033406 215.898074 
L 242.052026 213.714764 
L 243.070646 214.960657 
L 244.089266 211.19865 
L 245.107886 211.874957 
L 246.126506 220.065985 
L 247.145126 217.820257 
L 248.163746 218.263597 
L 249.182366 217.331066 
L 250.200986 217.393432 
L 251.219606 219.869918 
L 252.238226 220.602443 
L 253.256846 222.791439 
L 254.275465 224.926905 
L 255.294085 226.196408 
L 256.312705 228.843575 
L 257.331325 231.644 
L 258.349945 231.733339 
L 259.368565 233.003265 
L 260.387185 233.324761 
L 261.405805 233.762934 
L 262.424425 231.314386 
L 263.443045 229.066221 
L 264.461665 229.159168 
L 265.480285 230.256991 
L 266.498905 229.602942 
L 267.517525 232.543718 
L 268.536145 235.963713 
L 269.554765 234.740672 
L 270.573384 232.218472 
L 271.592004 225.657786 
L 272.610624 223.040607 
L 273.629244 219.476807 
L 274.647864 220.056348 
L 275.666484 227.350455 
L 276.685104 229.515703 
L 277.703724 229.044129 
L 278.722344 229.659023 
L 279.740964 230.080465 
L 280.759584 232.106692 
L 281.778204 232.688756 
L 282.796824 236.076977 
L 283.815444 240.468743 
L 284.834064 241.768656 
L 285.852683 237.075259 
L 286.871303 237.493304 
L 287.889923 235.104086 
L 288.908543 232.215726 
L 289.927163 229.840687 
L 290.945783 232.855692 
L 291.964403 233.131554 
L 292.983023 233.398693 
L 294.001643 234.791193 
L 295.020263 235.46404 
L 296.038883 236.214017 
L 297.057503 234.245863 
L 298.076123 235.126195 
L 299.094743 234.027521 
L 300.113363 234.932863 
L 301.131982 235.807914 
L 302.150602 237.979025 
L 303.169222 238.810999 
L 304.187842 241.565368 
L 305.206462 240.903486 
L 306.225082 238.626515 
L 307.243702 238.953674 
L 308.262322 238.470756 
L 309.280942 236.598204 
L 310.299562 237.595996 
L 311.318182 239.526519 
L 311.318182 185.109304 
L 311.318182 185.109304 
L 310.299562 185.024394 
L 309.280942 184.419798 
L 308.262322 184.690145 
L 307.243702 181.126888 
L 306.225082 180.159164 
L 305.206462 178.710126 
L 304.187842 171.470416 
L 303.169222 168.539247 
L 302.150602 172.717787 
L 301.131982 171.879253 
L 300.113363 172.010693 
L 299.094743 179.536295 
L 298.076123 186.017773 
L 297.057503 185.041075 
L 296.038883 184.222293 
L 295.020263 183.412913 
L 294.001643 181.395671 
L 292.983023 178.019422 
L 291.964403 175.326364 
L 290.945783 171.832146 
L 289.927163 167.735548 
L 288.908543 165.329483 
L 287.889923 166.006869 
L 286.871303 169.233011 
L 285.852683 178.273453 
L 284.834064 186.05396 
L 283.815444 190.20153 
L 282.796824 191.000498 
L 281.778204 188.323789 
L 280.759584 187.566632 
L 279.740964 187.167299 
L 278.722344 187.26201 
L 277.703724 185.284477 
L 276.685104 187.937598 
L 275.666484 188.497011 
L 274.647864 186.863711 
L 273.629244 186.322309 
L 272.610624 187.378243 
L 271.592004 185.675281 
L 270.573384 185.37066 
L 269.554765 186.472667 
L 268.536145 185.187032 
L 267.517525 177.442409 
L 266.498905 169.24432 
L 265.480285 163.044229 
L 264.461665 158.21458 
L 263.443045 155.396675 
L 262.424425 159.515977 
L 261.405805 164.158293 
L 260.387185 165.437832 
L 259.368565 169.068616 
L 258.349945 170.765572 
L 257.331325 170.331759 
L 256.312705 172.573423 
L 255.294085 175.006991 
L 254.275465 173.917406 
L 253.256846 171.626837 
L 252.238226 166.333857 
L 251.219606 169.854767 
L 250.200986 166.098378 
L 249.182366 160.085842 
L 248.163746 154.667524 
L 247.145126 154.736038 
L 246.126506 155.510744 
L 245.107886 157.615447 
L 244.089266 164.172616 
L 243.070646 168.78426 
L 242.052026 171.864628 
L 241.033406 175.194981 
L 240.014786 180.471109 
L 238.996166 183.469485 
L 237.977547 190.130921 
L 236.958927 188.80786 
L 235.940307 185.644912 
L 234.921687 182.835878 
L 233.903067 180.717634 
L 232.884447 179.094188 
L 231.865827 176.594514 
L 230.847207 173.780599 
L 229.828587 168.72545 
L 228.809967 172.443678 
L 227.791347 170.914474 
L 226.772727 175.258763 
L 225.754107 176.205617 
L 224.735487 183.43835 
L 223.716867 180.501547 
L 222.698248 176.935973 
L 221.679628 173.391445 
L 220.661008 172.829047 
L 219.642388 170.361204 
L 218.623768 172.009323 
L 217.605148 175.532723 
L 216.586528 175.151196 
L 215.567908 174.07752 
L 214.549288 175.265316 
L 213.530668 177.872483 
L 212.512048 176.461458 
L 211.493428 174.402989 
L 210.474808 171.522592 
L 209.456188 166.904983 
L 208.437568 163.133814 
L 207.418949 158.075816 
L 206.400329 151.46582 
L 205.381709 145.056549 
L 204.363089 136.699652 
L 203.344469 128.953654 
L 202.325849 122.935113 
L 201.307229 122.064726 
L 200.288609 121.173987 
L 199.269989 114.595211 
L 198.251369 119.210069 
L 197.232749 134.961509 
L 196.214129 148.417728 
L 195.195509 163.21914 
L 194.176889 168.180121 
L 193.158269 161.355756 
L 192.13965 157.345768 
L 191.12103 157.149079 
L 190.10241 165.428715 
L 189.08379 176.030032 
L 188.06517 176.407592 
L 187.04655 170.728523 
L 186.02793 172.309378 
L 185.00931 172.031416 
L 183.99069 169.415212 
L 182.97207 175.884326 
L 181.95345 183.874652 
L 180.93483 187.13254 
L 179.91621 186.024709 
L 178.89759 181.330702 
L 177.87897 181.213351 
L 176.86035 179.981724 
L 175.841731 180.013224 
L 174.823111 181.472092 
L 173.804491 179.752182 
L 172.785871 180.378847 
L 171.767251 178.596097 
L 170.748631 178.775472 
L 169.730011 177.570984 
L 168.711391 171.118722 
L 167.692771 165.341117 
L 166.674151 168.102084 
L 165.655531 172.169894 
L 164.636911 168.795911 
L 163.618291 175.162202 
L 162.599671 178.302607 
L 161.581051 178.331938 
L 160.562432 175.45165 
L 159.543812 174.253127 
L 158.525192 166.746233 
L 157.506572 165.237089 
L 156.487952 164.134991 
L 155.469332 165.43399 
L 154.450712 166.698098 
L 153.432092 166.566202 
L 152.413472 165.413958 
L 151.394852 165.808507 
L 150.376232 168.272737 
L 149.357612 172.027071 
L 148.338992 166.201594 
L 147.320372 162.152868 
L 146.301752 160.205733 
L 145.283133 158.77329 
L 144.264513 158.930316 
L 143.245893 161.822792 
L 142.227273 166.755076 
L 141.208653 167.845443 
L 140.190033 166.913888 
L 139.171413 170.685606 
L 138.152793 172.297504 
L 137.134173 171.771059 
L 136.115553 169.379876 
L 135.096933 168.214412 
L 134.078313 168.209223 
L 133.059693 169.835039 
L 132.041073 169.393388 
L 131.022453 169.54784 
L 130.003834 176.777674 
L 128.985214 172.333051 
L 127.966594 168.836859 
L 126.947974 166.445853 
L 125.929354 163.129007 
L 124.910734 162.940224 
L 123.892114 168.363263 
L 122.873494 168.608544 
L 121.854874 164.844122 
L 120.836254 165.262139 
L 119.817634 166.424789 
L 118.799014 157.413729 
L 117.780394 157.480245 
L 116.761774 162.744089 
L 115.743154 162.882659 
L 114.724535 162.110899 
L 113.705915 168.610593 
L 112.687295 171.878397 
L 111.668675 171.559527 
L 110.650055 170.559737 
L 109.631435 170.343873 
L 108.612815 168.985562 
L 107.594195 168.934418 
L 106.575575 166.451819 
L 105.556955 163.625551 
L 104.538335 160.887504 
L 103.519715 153.656825 
L 102.501095 147.279756 
L 101.482475 145.905386 
L 100.463855 140.824274 
L 99.445235 140.740746 
L 98.426616 144.080946 
L 97.407996 143.249526 
L 96.389376 142.933556 
L 95.370756 139.713321 
L 94.352136 137.933694 
L 93.333516 142.255148 
L 92.314896 145.175413 
L 91.296276 149.429494 
L 90.277656 157.507229 
L 89.259036 154.160619 
L 88.240416 156.81487 
L 87.221796 151.174277 
L 86.203176 146.257897 
L 85.184556 145.655117 
L 84.165936 147.547317 
L 83.147317 150.255303 
L 82.128697 156.433742 
L 81.110077 158.386522 
L 80.091457 158.842541 
L 79.072837 156.849852 
L 78.054217 150.982879 
L 77.035597 143.946441 
L 76.016977 141.256557 
L 74.998357 135.554402 
L 73.979737 130.006888 
L 72.961117 130.106765 
L 71.942497 128.299108 
L 70.923877 127.760606 
L 69.905257 127.049031 
L 68.886637 126.544918 
L 67.868018 122.372955 
L 66.849398 117.548067 
L 65.830778 106.629935 
L 64.812158 96.681469 
L 63.793538 89.639344 
L 62.774918 84.636035 
L 61.756298 81.849247 
L 60.737678 80.356761 
L 59.719058 72.259132 
L 58.700438 55.632874 
L 57.681818 44.64 
z
" clip-path="url(#p84b0c064ae)" style="fill: #008000; fill-opacity: 0.3"/>
   </g>
   <g id="matplotlib.axis_1">
    <g id="xtick_1">
     <g id="line2d_1">
      <defs>
       <path id="m5fd2edeb98" d="M 0 0 
L 0 3.5 
" style="stroke: #000000; stroke-width: 0.8"/>
      </defs>
      <g>
       <use xlink:href="#m5fd2edeb98" x="57.681818" y="256.32" style="stroke: #000000; stroke-width: 0.8"/>
      </g>
     </g>
     <g id="text_1">
      <!-- 0 -->
      <g transform="translate(55.181818 270.26375)scale(0.1 -0.1)">
       <defs>
        <path id="TimesNewRomanPSMT-30" d="M 231 2094 
Q 231 2819 450 3342 
Q 669 3866 1031 4122 
Q 1313 4325 1613 4325 
Q 2100 4325 2488 3828 
Q 2972 3213 2972 2159 
Q 2972 1422 2759 906 
Q 2547 391 2217 158 
Q 1888 -75 1581 -75 
Q 975 -75 572 641 
Q 231 1244 231 2094 
z
M 844 2016 
Q 844 1141 1059 588 
Q 1238 122 1591 122 
Q 1759 122 1940 273 
Q 2122 425 2216 781 
Q 2359 1319 2359 2297 
Q 2359 3022 2209 3506 
Q 2097 3866 1919 4016 
Q 1791 4119 1609 4119 
Q 1397 4119 1231 3928 
Q 1006 3669 925 3112 
Q 844 2556 844 2016 
z
" transform="scale(0.015625)"/>
       </defs>
       <use xlink:href="#TimesNewRomanPSMT-30"/>
      </g>
     </g>
    </g>
    <g id="xtick_2">
     <g id="line2d_2">
      <g>
       <use xlink:href="#m5fd2edeb98" x="108.612815" y="256.32" style="stroke: #000000; stroke-width: 0.8"/>
      </g>
     </g>
     <g id="text_2">
      <!-- 50 -->
      <g transform="translate(103.612815 270.26375)scale(0.1 -0.1)">
       <defs>
        <path id="TimesNewRomanPSMT-35" d="M 2778 4238 
L 2534 3706 
L 1259 3706 
L 981 3138 
Q 1809 3016 2294 2522 
Q 2709 2097 2709 1522 
Q 2709 1188 2573 903 
Q 2438 619 2231 419 
Q 2025 219 1772 97 
Q 1413 -75 1034 -75 
Q 653 -75 479 54 
Q 306 184 306 341 
Q 306 428 378 495 
Q 450 563 559 563 
Q 641 563 702 538 
Q 763 513 909 409 
Q 1144 247 1384 247 
Q 1750 247 2026 523 
Q 2303 800 2303 1197 
Q 2303 1581 2056 1914 
Q 1809 2247 1375 2428 
Q 1034 2569 447 2591 
L 1259 4238 
L 2778 4238 
z
" transform="scale(0.015625)"/>
       </defs>
       <use xlink:href="#TimesNewRomanPSMT-35"/>
       <use xlink:href="#TimesNewRomanPSMT-30" x="50"/>
      </g>
     </g>
    </g>
    <g id="xtick_3">
     <g id="line2d_3">
      <g>
       <use xlink:href="#m5fd2edeb98" x="159.543812" y="256.32" style="stroke: #000000; stroke-width: 0.8"/>
      </g>
     </g>
     <g id="text_3">
      <!-- 100 -->
      <g transform="translate(152.043812 270.26375)scale(0.1 -0.1)">
       <defs>
        <path id="TimesNewRomanPSMT-31" d="M 750 3822 
L 1781 4325 
L 1884 4325 
L 1884 747 
Q 1884 391 1914 303 
Q 1944 216 2037 169 
Q 2131 122 2419 116 
L 2419 0 
L 825 0 
L 825 116 
Q 1125 122 1212 167 
Q 1300 213 1334 289 
Q 1369 366 1369 747 
L 1369 3034 
Q 1369 3497 1338 3628 
Q 1316 3728 1258 3775 
Q 1200 3822 1119 3822 
Q 1003 3822 797 3725 
L 750 3822 
z
" transform="scale(0.015625)"/>
       </defs>
       <use xlink:href="#TimesNewRomanPSMT-31"/>
       <use xlink:href="#TimesNewRomanPSMT-30" x="50"/>
       <use xlink:href="#TimesNewRomanPSMT-30" x="100"/>
      </g>
     </g>
    </g>
    <g id="xtick_4">
     <g id="line2d_4">
      <g>
       <use xlink:href="#m5fd2edeb98" x="210.474808" y="256.32" style="stroke: #000000; stroke-width: 0.8"/>
      </g>
     </g>
     <g id="text_4">
      <!-- 150 -->
      <g transform="translate(202.974808 270.26375)scale(0.1 -0.1)">
       <use xlink:href="#TimesNewRomanPSMT-31"/>
       <use xlink:href="#TimesNewRomanPSMT-35" x="50"/>
       <use xlink:href="#TimesNewRomanPSMT-30" x="100"/>
      </g>
     </g>
    </g>
    <g id="xtick_5">
     <g id="line2d_5">
      <g>
       <use xlink:href="#m5fd2edeb98" x="261.405805" y="256.32" style="stroke: #000000; stroke-width: 0.8"/>
      </g>
     </g>
     <g id="text_5">
      <!-- 200 -->
      <g transform="translate(253.905805 270.26375)scale(0.1 -0.1)">
       <defs>
        <path id="TimesNewRomanPSMT-32" d="M 2934 816 
L 2638 0 
L 138 0 
L 138 116 
Q 1241 1122 1691 1759 
Q 2141 2397 2141 2925 
Q 2141 3328 1894 3587 
Q 1647 3847 1303 3847 
Q 991 3847 742 3664 
Q 494 3481 375 3128 
L 259 3128 
Q 338 3706 661 4015 
Q 984 4325 1469 4325 
Q 1984 4325 2329 3994 
Q 2675 3663 2675 3213 
Q 2675 2891 2525 2569 
Q 2294 2063 1775 1497 
Q 997 647 803 472 
L 1909 472 
Q 2247 472 2383 497 
Q 2519 522 2628 598 
Q 2738 675 2819 816 
L 2934 816 
z
" transform="scale(0.015625)"/>
       </defs>
       <use xlink:href="#TimesNewRomanPSMT-32"/>
       <use xlink:href="#TimesNewRomanPSMT-30" x="50"/>
       <use xlink:href="#TimesNewRomanPSMT-30" x="100"/>
      </g>
     </g>
    </g>
    <g id="xtick_6">
     <g id="line2d_6">
      <g>
       <use xlink:href="#m5fd2edeb98" x="312.336802" y="256.32" style="stroke: #000000; stroke-width: 0.8"/>
      </g>
     </g>
     <g id="text_6">
      <!-- 250k -->
      <g transform="translate(302.336802 270.26375)scale(0.1 -0.1)">
       <defs>
        <path id="TimesNewRomanPSMT-6b" d="M 1047 4444 
L 1047 1597 
L 1775 2259 
Q 2006 2472 2044 2528 
Q 2069 2566 2069 2603 
Q 2069 2666 2017 2711 
Q 1966 2756 1847 2763 
L 1847 2863 
L 3091 2863 
L 3091 2763 
Q 2834 2756 2664 2684 
Q 2494 2613 2291 2428 
L 1556 1750 
L 2291 822 
Q 2597 438 2703 334 
Q 2853 188 2966 144 
Q 3044 113 3238 113 
L 3238 0 
L 1847 0 
L 1847 113 
Q 1966 116 2008 148 
Q 2050 181 2050 241 
Q 2050 313 1925 472 
L 1047 1594 
L 1047 644 
Q 1047 366 1086 278 
Q 1125 191 1197 153 
Q 1269 116 1509 113 
L 1509 0 
L 53 0 
L 53 113 
Q 272 113 381 166 
Q 447 200 481 272 
Q 528 375 528 628 
L 528 3234 
Q 528 3731 506 3842 
Q 484 3953 434 3995 
Q 384 4038 303 4038 
Q 238 4038 106 3984 
L 53 4094 
L 903 4444 
L 1047 4444 
z
" transform="scale(0.015625)"/>
       </defs>
       <use xlink:href="#TimesNewRomanPSMT-32"/>
       <use xlink:href="#TimesNewRomanPSMT-35" x="50"/>
       <use xlink:href="#TimesNewRomanPSMT-30" x="100"/>
       <use xlink:href="#TimesNewRomanPSMT-6b" x="150"/>
      </g>
     </g>
    </g>
    <g id="text_7">
     <!-- Epochs -->
     <g transform="translate(169.780469 283.346563)scale(0.1 -0.1)">
      <defs>
       <path id="TimesNewRomanPSMT-45" d="M 1338 4006 
L 1338 2331 
L 2269 2331 
Q 2631 2331 2753 2441 
Q 2916 2584 2934 2947 
L 3050 2947 
L 3050 1472 
L 2934 1472 
Q 2891 1781 2847 1869 
Q 2791 1978 2662 2040 
Q 2534 2103 2269 2103 
L 1338 2103 
L 1338 706 
Q 1338 425 1363 364 
Q 1388 303 1450 267 
Q 1513 231 1688 231 
L 2406 231 
Q 2766 231 2928 281 
Q 3091 331 3241 478 
Q 3434 672 3638 1063 
L 3763 1063 
L 3397 0 
L 131 0 
L 131 116 
L 281 116 
Q 431 116 566 188 
Q 666 238 702 338 
Q 738 438 738 747 
L 738 3500 
Q 738 3903 656 3997 
Q 544 4122 281 4122 
L 131 4122 
L 131 4238 
L 3397 4238 
L 3444 3309 
L 3322 3309 
Q 3256 3644 3176 3769 
Q 3097 3894 2941 3959 
Q 2816 4006 2500 4006 
L 1338 4006 
z
" transform="scale(0.015625)"/>
       <path id="TimesNewRomanPSMT-70" d="M -6 2578 
L 875 2934 
L 994 2934 
L 994 2266 
Q 1216 2644 1439 2795 
Q 1663 2947 1909 2947 
Q 2341 2947 2628 2609 
Q 2981 2197 2981 1534 
Q 2981 794 2556 309 
Q 2206 -88 1675 -88 
Q 1444 -88 1275 -22 
Q 1150 25 994 166 
L 994 -706 
Q 994 -1000 1030 -1079 
Q 1066 -1159 1155 -1206 
Q 1244 -1253 1478 -1253 
L 1478 -1369 
L -22 -1369 
L -22 -1253 
L 56 -1253 
Q 228 -1256 350 -1188 
Q 409 -1153 442 -1076 
Q 475 -1000 475 -688 
L 475 2019 
Q 475 2297 450 2372 
Q 425 2447 370 2484 
Q 316 2522 222 2522 
Q 147 2522 31 2478 
L -6 2578 
z
M 994 2081 
L 994 1013 
Q 994 666 1022 556 
Q 1066 375 1236 237 
Q 1406 100 1666 100 
Q 1978 100 2172 344 
Q 2425 663 2425 1241 
Q 2425 1897 2138 2250 
Q 1938 2494 1663 2494 
Q 1513 2494 1366 2419 
Q 1253 2363 994 2081 
z
" transform="scale(0.015625)"/>
       <path id="TimesNewRomanPSMT-6f" d="M 1600 2947 
Q 2250 2947 2644 2453 
Q 2978 2031 2978 1484 
Q 2978 1100 2793 706 
Q 2609 313 2286 112 
Q 1963 -88 1566 -88 
Q 919 -88 538 428 
Q 216 863 216 1403 
Q 216 1797 411 2186 
Q 606 2575 925 2761 
Q 1244 2947 1600 2947 
z
M 1503 2744 
Q 1338 2744 1170 2645 
Q 1003 2547 900 2300 
Q 797 2053 797 1666 
Q 797 1041 1045 587 
Q 1294 134 1700 134 
Q 2003 134 2200 384 
Q 2397 634 2397 1244 
Q 2397 2006 2069 2444 
Q 1847 2744 1503 2744 
z
" transform="scale(0.015625)"/>
       <path id="TimesNewRomanPSMT-63" d="M 2631 1088 
Q 2516 522 2178 217 
Q 1841 -88 1431 -88 
Q 944 -88 581 321 
Q 219 731 219 1428 
Q 219 2103 620 2525 
Q 1022 2947 1584 2947 
Q 2006 2947 2278 2723 
Q 2550 2500 2550 2259 
Q 2550 2141 2473 2067 
Q 2397 1994 2259 1994 
Q 2075 1994 1981 2113 
Q 1928 2178 1911 2362 
Q 1894 2547 1784 2644 
Q 1675 2738 1481 2738 
Q 1169 2738 978 2506 
Q 725 2200 725 1697 
Q 725 1184 976 792 
Q 1228 400 1656 400 
Q 1963 400 2206 609 
Q 2378 753 2541 1131 
L 2631 1088 
z
" transform="scale(0.015625)"/>
       <path id="TimesNewRomanPSMT-68" d="M 1041 4444 
L 1041 2350 
Q 1388 2731 1591 2839 
Q 1794 2947 1997 2947 
Q 2241 2947 2416 2812 
Q 2591 2678 2675 2391 
Q 2734 2191 2734 1659 
L 2734 647 
Q 2734 375 2778 275 
Q 2809 200 2884 156 
Q 2959 113 3159 113 
L 3159 0 
L 1753 0 
L 1753 113 
L 1819 113 
Q 2019 113 2097 173 
Q 2175 234 2206 353 
Q 2216 403 2216 647 
L 2216 1659 
Q 2216 2128 2167 2275 
Q 2119 2422 2012 2495 
Q 1906 2569 1756 2569 
Q 1603 2569 1437 2487 
Q 1272 2406 1041 2159 
L 1041 647 
Q 1041 353 1073 281 
Q 1106 209 1195 161 
Q 1284 113 1503 113 
L 1503 0 
L 84 0 
L 84 113 
Q 275 113 384 172 
Q 447 203 484 290 
Q 522 378 522 647 
L 522 3238 
Q 522 3728 498 3840 
Q 475 3953 426 3993 
Q 378 4034 297 4034 
Q 231 4034 84 3984 
L 41 4094 
L 897 4444 
L 1041 4444 
z
" transform="scale(0.015625)"/>
       <path id="TimesNewRomanPSMT-73" d="M 2050 2947 
L 2050 1972 
L 1947 1972 
Q 1828 2431 1642 2597 
Q 1456 2763 1169 2763 
Q 950 2763 815 2647 
Q 681 2531 681 2391 
Q 681 2216 781 2091 
Q 878 1963 1175 1819 
L 1631 1597 
Q 2266 1288 2266 781 
Q 2266 391 1970 151 
Q 1675 -88 1309 -88 
Q 1047 -88 709 6 
Q 606 38 541 38 
Q 469 38 428 -44 
L 325 -44 
L 325 978 
L 428 978 
Q 516 541 762 319 
Q 1009 97 1316 97 
Q 1531 97 1667 223 
Q 1803 350 1803 528 
Q 1803 744 1651 891 
Q 1500 1038 1047 1263 
Q 594 1488 453 1669 
Q 313 1847 313 2119 
Q 313 2472 555 2709 
Q 797 2947 1181 2947 
Q 1350 2947 1591 2875 
Q 1750 2828 1803 2828 
Q 1853 2828 1881 2850 
Q 1909 2872 1947 2947 
L 2050 2947 
z
" transform="scale(0.015625)"/>
      </defs>
      <use xlink:href="#TimesNewRomanPSMT-45"/>
      <use xlink:href="#TimesNewRomanPSMT-70" x="61.083984"/>
      <use xlink:href="#TimesNewRomanPSMT-6f" x="111.083984"/>
      <use xlink:href="#TimesNewRomanPSMT-63" x="161.083984"/>
      <use xlink:href="#TimesNewRomanPSMT-68" x="205.46875"/>
      <use xlink:href="#TimesNewRomanPSMT-73" x="255.46875"/>
     </g>
    </g>
   </g>
   <g id="matplotlib.axis_2">
    <g id="ytick_1">
     <g id="line2d_7">
      <defs>
       <path id="m916a8782fc" d="M 0 0 
L -3.5 0 
" style="stroke: #000000; stroke-width: 0.8"/>
      </defs>
      <g>
       <use xlink:href="#m916a8782fc" x="45" y="229.804643" style="stroke: #000000; stroke-width: 0.8"/>
      </g>
     </g>
     <g id="text_8">
      <!-- 6 -->
      <g transform="translate(27.360937 233.276518)scale(0.1 -0.1)">
       <defs>
        <path id="TimesNewRomanPSMT-2212" d="M 3484 2000 
L 116 2000 
L 116 2256 
L 3484 2256 
L 3484 2000 
z
" transform="scale(0.015625)"/>
        <path id="TimesNewRomanPSMT-36" d="M 2869 4325 
L 2869 4209 
Q 2456 4169 2195 4045 
Q 1934 3922 1679 3669 
Q 1425 3416 1258 3105 
Q 1091 2794 978 2366 
Q 1428 2675 1881 2675 
Q 2316 2675 2634 2325 
Q 2953 1975 2953 1425 
Q 2953 894 2631 456 
Q 2244 -75 1606 -75 
Q 1172 -75 869 213 
Q 275 772 275 1663 
Q 275 2231 503 2743 
Q 731 3256 1154 3653 
Q 1578 4050 1965 4187 
Q 2353 4325 2688 4325 
L 2869 4325 
z
M 925 2138 
Q 869 1716 869 1456 
Q 869 1156 980 804 
Q 1091 453 1309 247 
Q 1469 100 1697 100 
Q 1969 100 2183 356 
Q 2397 613 2397 1088 
Q 2397 1622 2184 2012 
Q 1972 2403 1581 2403 
Q 1463 2403 1327 2353 
Q 1191 2303 925 2138 
z
" transform="scale(0.015625)"/>
       </defs>
       <use xlink:href="#TimesNewRomanPSMT-2212"/>
       <use xlink:href="#TimesNewRomanPSMT-36" x="56.396484"/>
      </g>
     </g>
    </g>
    <g id="ytick_2">
     <g id="line2d_8">
      <g>
       <use xlink:href="#m916a8782fc" x="45" y="201.261732" style="stroke: #000000; stroke-width: 0.8"/>
      </g>
     </g>
     <g id="text_9">
      <!-- 5 -->
      <g transform="translate(27.360937 204.733607)scale(0.1 -0.1)">
       <use xlink:href="#TimesNewRomanPSMT-2212"/>
       <use xlink:href="#TimesNewRomanPSMT-35" x="56.396484"/>
      </g>
     </g>
    </g>
    <g id="ytick_3">
     <g id="line2d_9">
      <g>
       <use xlink:href="#m916a8782fc" x="45" y="172.71882" style="stroke: #000000; stroke-width: 0.8"/>
      </g>
     </g>
     <g id="text_10">
      <!-- 4 -->
      <g transform="translate(27.360937 176.190695)scale(0.1 -0.1)">
       <defs>
        <path id="TimesNewRomanPSMT-34" d="M 2978 1563 
L 2978 1119 
L 2409 1119 
L 2409 0 
L 1894 0 
L 1894 1119 
L 100 1119 
L 100 1519 
L 2066 4325 
L 2409 4325 
L 2409 1563 
L 2978 1563 
z
M 1894 1563 
L 1894 3666 
L 406 1563 
L 1894 1563 
z
" transform="scale(0.015625)"/>
       </defs>
       <use xlink:href="#TimesNewRomanPSMT-2212"/>
       <use xlink:href="#TimesNewRomanPSMT-34" x="56.396484"/>
      </g>
     </g>
    </g>
    <g id="ytick_4">
     <g id="line2d_10">
      <g>
       <use xlink:href="#m916a8782fc" x="45" y="144.175909" style="stroke: #000000; stroke-width: 0.8"/>
      </g>
     </g>
     <g id="text_11">
      <!-- 3 -->
      <g transform="translate(27.360937 147.647784)scale(0.1 -0.1)">
       <defs>
        <path id="TimesNewRomanPSMT-33" d="M 325 3431 
Q 506 3859 782 4092 
Q 1059 4325 1472 4325 
Q 1981 4325 2253 3994 
Q 2459 3747 2459 3466 
Q 2459 3003 1878 2509 
Q 2269 2356 2469 2072 
Q 2669 1788 2669 1403 
Q 2669 853 2319 450 
Q 1863 -75 997 -75 
Q 569 -75 414 31 
Q 259 138 259 259 
Q 259 350 332 419 
Q 406 488 509 488 
Q 588 488 669 463 
Q 722 447 909 348 
Q 1097 250 1169 231 
Q 1284 197 1416 197 
Q 1734 197 1970 444 
Q 2206 691 2206 1028 
Q 2206 1275 2097 1509 
Q 2016 1684 1919 1775 
Q 1784 1900 1550 2001 
Q 1316 2103 1072 2103 
L 972 2103 
L 972 2197 
Q 1219 2228 1467 2375 
Q 1716 2522 1828 2728 
Q 1941 2934 1941 3181 
Q 1941 3503 1739 3701 
Q 1538 3900 1238 3900 
Q 753 3900 428 3381 
L 325 3431 
z
" transform="scale(0.015625)"/>
       </defs>
       <use xlink:href="#TimesNewRomanPSMT-2212"/>
       <use xlink:href="#TimesNewRomanPSMT-33" x="56.396484"/>
      </g>
     </g>
    </g>
    <g id="ytick_5">
     <g id="line2d_11">
      <g>
       <use xlink:href="#m916a8782fc" x="45" y="115.632997" style="stroke: #000000; stroke-width: 0.8"/>
      </g>
     </g>
     <g id="text_12">
      <!-- 2 -->
      <g transform="translate(27.360937 119.104872)scale(0.1 -0.1)">
       <use xlink:href="#TimesNewRomanPSMT-2212"/>
       <use xlink:href="#TimesNewRomanPSMT-32" x="56.396484"/>
      </g>
     </g>
    </g>
    <g id="ytick_6">
     <g id="line2d_12">
      <g>
       <use xlink:href="#m916a8782fc" x="45" y="87.090086" style="stroke: #000000; stroke-width: 0.8"/>
      </g>
     </g>
     <g id="text_13">
      <!-- 1 -->
      <g transform="translate(27.360937 90.561961)scale(0.1 -0.1)">
       <use xlink:href="#TimesNewRomanPSMT-2212"/>
       <use xlink:href="#TimesNewRomanPSMT-31" x="56.396484"/>
      </g>
     </g>
    </g>
    <g id="ytick_7">
     <g id="line2d_13">
      <g>
       <use xlink:href="#m916a8782fc" x="45" y="58.547174" style="stroke: #000000; stroke-width: 0.8"/>
      </g>
     </g>
     <g id="text_14">
      <!-- 0 -->
      <g transform="translate(33 62.019049)scale(0.1 -0.1)">
       <use xlink:href="#TimesNewRomanPSMT-30"/>
      </g>
     </g>
    </g>
    <g id="text_15">
     <!-- Conditional loss, log scale -->
     <g transform="translate(21.203125 198.215)rotate(-90)scale(0.1 -0.1)">
      <defs>
       <path id="TimesNewRomanPSMT-43" d="M 3853 4334 
L 3950 2894 
L 3853 2894 
Q 3659 3541 3300 3825 
Q 2941 4109 2438 4109 
Q 2016 4109 1675 3895 
Q 1334 3681 1139 3212 
Q 944 2744 944 2047 
Q 944 1472 1128 1050 
Q 1313 628 1683 403 
Q 2053 178 2528 178 
Q 2941 178 3256 354 
Q 3572 531 3950 1056 
L 4047 994 
Q 3728 428 3303 165 
Q 2878 -97 2294 -97 
Q 1241 -97 663 684 
Q 231 1266 231 2053 
Q 231 2688 515 3219 
Q 800 3750 1298 4042 
Q 1797 4334 2388 4334 
Q 2847 4334 3294 4109 
Q 3425 4041 3481 4041 
Q 3566 4041 3628 4100 
Q 3709 4184 3744 4334 
L 3853 4334 
z
" transform="scale(0.015625)"/>
       <path id="TimesNewRomanPSMT-6e" d="M 1034 2341 
Q 1538 2947 1994 2947 
Q 2228 2947 2397 2830 
Q 2566 2713 2666 2444 
Q 2734 2256 2734 1869 
L 2734 647 
Q 2734 375 2778 278 
Q 2813 200 2889 156 
Q 2966 113 3172 113 
L 3172 0 
L 1756 0 
L 1756 113 
L 1816 113 
Q 2016 113 2095 173 
Q 2175 234 2206 353 
Q 2219 400 2219 647 
L 2219 1819 
Q 2219 2209 2117 2386 
Q 2016 2563 1775 2563 
Q 1403 2563 1034 2156 
L 1034 647 
Q 1034 356 1069 288 
Q 1113 197 1189 155 
Q 1266 113 1500 113 
L 1500 0 
L 84 0 
L 84 113 
L 147 113 
Q 366 113 442 223 
Q 519 334 519 647 
L 519 1709 
Q 519 2225 495 2337 
Q 472 2450 423 2490 
Q 375 2531 294 2531 
Q 206 2531 84 2484 
L 38 2597 
L 900 2947 
L 1034 2947 
L 1034 2341 
z
" transform="scale(0.015625)"/>
       <path id="TimesNewRomanPSMT-64" d="M 2222 322 
Q 2013 103 1813 7 
Q 1613 -88 1381 -88 
Q 913 -88 563 304 
Q 213 697 213 1313 
Q 213 1928 600 2439 
Q 988 2950 1597 2950 
Q 1975 2950 2222 2709 
L 2222 3238 
Q 2222 3728 2198 3840 
Q 2175 3953 2125 3993 
Q 2075 4034 2000 4034 
Q 1919 4034 1784 3984 
L 1744 4094 
L 2597 4444 
L 2738 4444 
L 2738 1134 
Q 2738 631 2761 520 
Q 2784 409 2836 365 
Q 2888 322 2956 322 
Q 3041 322 3181 375 
L 3216 266 
L 2366 -88 
L 2222 -88 
L 2222 322 
z
M 2222 541 
L 2222 2016 
Q 2203 2228 2109 2403 
Q 2016 2578 1861 2667 
Q 1706 2756 1559 2756 
Q 1284 2756 1069 2509 
Q 784 2184 784 1559 
Q 784 928 1059 592 
Q 1334 256 1672 256 
Q 1956 256 2222 541 
z
" transform="scale(0.015625)"/>
       <path id="TimesNewRomanPSMT-69" d="M 928 4444 
Q 1059 4444 1151 4351 
Q 1244 4259 1244 4128 
Q 1244 3997 1151 3903 
Q 1059 3809 928 3809 
Q 797 3809 703 3903 
Q 609 3997 609 4128 
Q 609 4259 701 4351 
Q 794 4444 928 4444 
z
M 1188 2947 
L 1188 647 
Q 1188 378 1227 289 
Q 1266 200 1342 156 
Q 1419 113 1622 113 
L 1622 0 
L 231 0 
L 231 113 
Q 441 113 512 153 
Q 584 194 626 287 
Q 669 381 669 647 
L 669 1750 
Q 669 2216 641 2353 
Q 619 2453 572 2492 
Q 525 2531 444 2531 
Q 356 2531 231 2484 
L 188 2597 
L 1050 2947 
L 1188 2947 
z
" transform="scale(0.015625)"/>
       <path id="TimesNewRomanPSMT-74" d="M 1031 3803 
L 1031 2863 
L 1700 2863 
L 1700 2644 
L 1031 2644 
L 1031 788 
Q 1031 509 1111 412 
Q 1191 316 1316 316 
Q 1419 316 1516 380 
Q 1613 444 1666 569 
L 1788 569 
Q 1678 263 1478 108 
Q 1278 -47 1066 -47 
Q 922 -47 784 33 
Q 647 113 581 261 
Q 516 409 516 719 
L 516 2644 
L 63 2644 
L 63 2747 
Q 234 2816 414 2980 
Q 594 3144 734 3369 
Q 806 3488 934 3803 
L 1031 3803 
z
" transform="scale(0.015625)"/>
       <path id="TimesNewRomanPSMT-61" d="M 1822 413 
Q 1381 72 1269 19 
Q 1100 -59 909 -59 
Q 613 -59 420 144 
Q 228 347 228 678 
Q 228 888 322 1041 
Q 450 1253 767 1440 
Q 1084 1628 1822 1897 
L 1822 2009 
Q 1822 2438 1686 2597 
Q 1550 2756 1291 2756 
Q 1094 2756 978 2650 
Q 859 2544 859 2406 
L 866 2225 
Q 866 2081 792 2003 
Q 719 1925 600 1925 
Q 484 1925 411 2006 
Q 338 2088 338 2228 
Q 338 2497 613 2722 
Q 888 2947 1384 2947 
Q 1766 2947 2009 2819 
Q 2194 2722 2281 2516 
Q 2338 2381 2338 1966 
L 2338 994 
Q 2338 584 2353 492 
Q 2369 400 2405 369 
Q 2441 338 2488 338 
Q 2538 338 2575 359 
Q 2641 400 2828 588 
L 2828 413 
Q 2478 -56 2159 -56 
Q 2006 -56 1915 50 
Q 1825 156 1822 413 
z
M 1822 616 
L 1822 1706 
Q 1350 1519 1213 1441 
Q 966 1303 859 1153 
Q 753 1003 753 825 
Q 753 600 887 451 
Q 1022 303 1197 303 
Q 1434 303 1822 616 
z
" transform="scale(0.015625)"/>
       <path id="TimesNewRomanPSMT-6c" d="M 1184 4444 
L 1184 647 
Q 1184 378 1223 290 
Q 1263 203 1344 158 
Q 1425 113 1647 113 
L 1647 0 
L 244 0 
L 244 113 
Q 441 113 512 153 
Q 584 194 625 287 
Q 666 381 666 647 
L 666 3247 
Q 666 3731 644 3842 
Q 622 3953 573 3993 
Q 525 4034 450 4034 
Q 369 4034 244 3984 
L 191 4094 
L 1044 4444 
L 1184 4444 
z
" transform="scale(0.015625)"/>
       <path id="TimesNewRomanPSMT-20" transform="scale(0.015625)"/>
       <path id="TimesNewRomanPSMT-2c" d="M 344 -1066 
L 344 -928 
Q 666 -822 842 -598 
Q 1019 -375 1019 -125 
Q 1019 -66 991 -25 
Q 969 3 947 3 
Q 913 3 797 -59 
Q 741 -88 678 -88 
Q 525 -88 434 3 
Q 344 94 344 253 
Q 344 406 461 515 
Q 578 625 747 625 
Q 953 625 1114 445 
Q 1275 266 1275 -31 
Q 1275 -353 1051 -629 
Q 828 -906 344 -1066 
z
" transform="scale(0.015625)"/>
       <path id="TimesNewRomanPSMT-67" d="M 966 1044 
Q 703 1172 562 1401 
Q 422 1631 422 1909 
Q 422 2334 742 2640 
Q 1063 2947 1563 2947 
Q 1972 2947 2272 2747 
L 2878 2747 
Q 3013 2747 3034 2739 
Q 3056 2731 3066 2713 
Q 3084 2684 3084 2613 
Q 3084 2531 3069 2500 
Q 3059 2484 3036 2475 
Q 3013 2466 2878 2466 
L 2506 2466 
Q 2681 2241 2681 1891 
Q 2681 1491 2375 1206 
Q 2069 922 1553 922 
Q 1341 922 1119 984 
Q 981 866 932 777 
Q 884 688 884 625 
Q 884 572 936 522 
Q 988 472 1138 450 
Q 1225 438 1575 428 
Q 2219 413 2409 384 
Q 2700 344 2873 169 
Q 3047 -6 3047 -263 
Q 3047 -616 2716 -925 
Q 2228 -1381 1444 -1381 
Q 841 -1381 425 -1109 
Q 191 -953 191 -784 
Q 191 -709 225 -634 
Q 278 -519 444 -313 
Q 466 -284 763 25 
Q 600 122 533 198 
Q 466 275 466 372 
Q 466 481 555 628 
Q 644 775 966 1044 
z
M 1509 2797 
Q 1278 2797 1122 2612 
Q 966 2428 966 2047 
Q 966 1553 1178 1281 
Q 1341 1075 1591 1075 
Q 1828 1075 1981 1253 
Q 2134 1431 2134 1813 
Q 2134 2309 1919 2591 
Q 1759 2797 1509 2797 
z
M 934 0 
Q 788 -159 713 -296 
Q 638 -434 638 -550 
Q 638 -700 819 -813 
Q 1131 -1006 1722 -1006 
Q 2284 -1006 2551 -807 
Q 2819 -609 2819 -384 
Q 2819 -222 2659 -153 
Q 2497 -84 2016 -72 
Q 1313 -53 934 0 
z
" transform="scale(0.015625)"/>
       <path id="TimesNewRomanPSMT-65" d="M 681 1784 
Q 678 1147 991 784 
Q 1303 422 1725 422 
Q 2006 422 2214 576 
Q 2422 731 2563 1106 
L 2659 1044 
Q 2594 616 2278 264 
Q 1963 -88 1488 -88 
Q 972 -88 605 314 
Q 238 716 238 1394 
Q 238 2128 614 2539 
Q 991 2950 1559 2950 
Q 2041 2950 2350 2633 
Q 2659 2316 2659 1784 
L 681 1784 
z
M 681 1966 
L 2006 1966 
Q 1991 2241 1941 2353 
Q 1863 2528 1708 2628 
Q 1553 2728 1384 2728 
Q 1125 2728 920 2526 
Q 716 2325 681 1966 
z
" transform="scale(0.015625)"/>
      </defs>
      <use xlink:href="#TimesNewRomanPSMT-43"/>
      <use xlink:href="#TimesNewRomanPSMT-6f" x="66.699219"/>
      <use xlink:href="#TimesNewRomanPSMT-6e" x="116.699219"/>
      <use xlink:href="#TimesNewRomanPSMT-64" x="166.699219"/>
      <use xlink:href="#TimesNewRomanPSMT-69" x="216.699219"/>
      <use xlink:href="#TimesNewRomanPSMT-74" x="244.482422"/>
      <use xlink:href="#TimesNewRomanPSMT-69" x="272.265625"/>
      <use xlink:href="#TimesNewRomanPSMT-6f" x="300.048828"/>
      <use xlink:href="#TimesNewRomanPSMT-6e" x="350.048828"/>
      <use xlink:href="#TimesNewRomanPSMT-61" x="400.048828"/>
      <use xlink:href="#TimesNewRomanPSMT-6c" x="444.433594"/>
      <use xlink:href="#TimesNewRomanPSMT-20" x="472.216797"/>
      <use xlink:href="#TimesNewRomanPSMT-6c" x="497.216797"/>
      <use xlink:href="#TimesNewRomanPSMT-6f" x="525"/>
      <use xlink:href="#TimesNewRomanPSMT-73" x="575"/>
      <use xlink:href="#TimesNewRomanPSMT-73" x="613.916016"/>
      <use xlink:href="#TimesNewRomanPSMT-2c" x="652.832031"/>
      <use xlink:href="#TimesNewRomanPSMT-20" x="677.832031"/>
      <use xlink:href="#TimesNewRomanPSMT-6c" x="702.832031"/>
      <use xlink:href="#TimesNewRomanPSMT-6f" x="730.615234"/>
      <use xlink:href="#TimesNewRomanPSMT-67" x="780.615234"/>
      <use xlink:href="#TimesNewRomanPSMT-20" x="830.615234"/>
      <use xlink:href="#TimesNewRomanPSMT-73" x="855.615234"/>
      <use xlink:href="#TimesNewRomanPSMT-63" x="894.53125"/>
      <use xlink:href="#TimesNewRomanPSMT-61" x="938.916016"/>
      <use xlink:href="#TimesNewRomanPSMT-6c" x="983.300781"/>
      <use xlink:href="#TimesNewRomanPSMT-65" x="1011.083984"/>
     </g>
    </g>
   </g>
   <g id="line2d_14">
    <path d="M 57.681818 67.026965 
L 58.700438 75.915076 
L 59.719058 87.286622 
L 60.737678 100.832143 
L 62.774918 120.559908 
L 63.793538 127.456035 
L 64.812158 132.29575 
L 69.905257 151.132119 
L 70.923877 155.119171 
L 71.942497 158.645138 
L 73.979737 164.592381 
L 74.998357 166.2977 
L 76.016977 167.763522 
L 78.054217 171.376844 
L 79.072837 172.171561 
L 80.091457 174.092332 
L 81.110077 175.27898 
L 82.128697 176.782632 
L 83.147317 177.560904 
L 84.165936 179.367296 
L 85.184556 180.739245 
L 87.221796 182.446125 
L 88.240416 184.141032 
L 89.259036 184.515807 
L 90.277656 185.271532 
L 91.296276 186.863154 
L 92.314896 187.643015 
L 93.333516 188.041171 
L 94.352136 189.425038 
L 95.370756 189.560111 
L 96.389376 189.012409 
L 97.407996 189.796419 
L 98.426616 190.138667 
L 99.445235 190.986897 
L 100.463855 192.506049 
L 101.482475 194.694854 
L 103.519715 196.435563 
L 105.556955 198.084712 
L 107.594195 199.421144 
L 109.631435 199.7929 
L 111.668675 199.856078 
L 112.687295 200.049101 
L 113.705915 201.200547 
L 115.743154 202.542905 
L 116.761774 203.126118 
L 117.780394 203.004616 
L 118.799014 203.177011 
L 120.836254 203.363377 
L 121.854874 202.726718 
L 122.873494 203.297524 
L 123.892114 203.241208 
L 124.910734 203.649688 
L 125.929354 203.917332 
L 126.947974 204.790063 
L 127.966594 204.958902 
L 128.985214 205.573968 
L 130.003834 205.786581 
L 131.022453 205.678759 
L 132.041073 206.163234 
L 133.059693 206.130869 
L 134.078313 206.232496 
L 135.096933 206.626608 
L 136.115553 207.515523 
L 137.134173 208.05871 
L 138.152793 209.014457 
L 139.171413 209.095519 
L 140.190033 208.431601 
L 142.227273 208.312673 
L 143.245893 208.607252 
L 144.264513 209.131553 
L 145.283133 210.276757 
L 146.301752 210.225804 
L 148.338992 210.462224 
L 152.413472 211.29898 
L 154.450712 211.192198 
L 155.469332 209.863972 
L 156.487952 210.423578 
L 157.506572 209.660241 
L 159.543812 210.553128 
L 160.562432 211.796568 
L 161.581051 211.86705 
L 162.599671 212.873849 
L 163.618291 212.816994 
L 164.636911 212.942089 
L 165.655531 213.456405 
L 166.674151 213.745292 
L 167.692771 214.483906 
L 168.711391 214.930525 
L 169.730011 215.672009 
L 171.767251 215.874835 
L 172.785871 215.512294 
L 173.804491 215.719368 
L 175.841731 215.866079 
L 177.87897 216.489231 
L 178.89759 216.233502 
L 179.91621 215.57942 
L 180.93483 215.95531 
L 182.97207 216.148971 
L 183.99069 216.583552 
L 185.00931 215.890332 
L 187.04655 215.402498 
L 188.06517 215.968289 
L 189.08379 215.710204 
L 190.10241 216.947529 
L 191.12103 217.328689 
L 192.13965 218.054429 
L 193.158269 217.701517 
L 194.176889 218.09374 
L 195.195509 218.764548 
L 196.214129 218.22774 
L 197.232749 217.99828 
L 198.251369 218.546784 
L 200.288609 218.524496 
L 202.325849 218.978433 
L 204.363089 218.849473 
L 205.381709 217.772652 
L 207.418949 218.532095 
L 208.437568 218.12311 
L 209.456188 218.101475 
L 210.474808 219.433245 
L 212.512048 219.500525 
L 213.530668 219.308064 
L 214.549288 219.914962 
L 215.567908 219.617039 
L 216.586528 219.749607 
L 217.605148 219.027491 
L 218.623768 219.667698 
L 219.642388 219.988178 
L 221.679628 220.13764 
L 222.698248 220.533894 
L 223.716867 220.357582 
L 224.735487 219.900647 
L 226.772727 219.363737 
L 228.809967 220.0566 
L 229.828587 219.543684 
L 230.847207 219.769207 
L 231.865827 220.467755 
L 232.884447 220.142492 
L 233.903067 220.040041 
L 234.921687 220.14412 
L 235.940307 220.613512 
L 236.958927 220.207558 
L 238.996166 221.355372 
L 240.014786 222.28831 
L 241.033406 221.310933 
L 242.052026 221.293384 
L 244.089266 219.679342 
L 245.107886 219.593345 
L 246.126506 220.702597 
L 247.145126 221.16122 
L 248.163746 221.924693 
L 249.182366 222.852997 
L 255.294085 223.653166 
L 257.331325 222.519934 
L 258.349945 222.720827 
L 259.368565 221.770928 
L 260.387185 222.276819 
L 261.405805 221.537715 
L 262.424425 221.851768 
L 263.443045 222.340207 
L 264.461665 223.505387 
L 265.480285 223.399921 
L 266.498905 224.536818 
L 267.517525 224.207273 
L 268.536145 224.014933 
L 269.554765 223.475075 
L 270.573384 223.673781 
L 271.592004 224.189015 
L 272.610624 225.475904 
L 273.629244 225.233499 
L 274.647864 225.122741 
L 275.666484 224.213761 
L 276.685104 223.807987 
L 277.703724 223.095928 
L 279.740964 223.283664 
L 280.759584 224.013952 
L 281.778204 223.474227 
L 282.796824 223.607776 
L 283.815444 224.121184 
L 284.834064 224.194209 
L 285.852683 223.780566 
L 286.871303 224.966724 
L 287.889923 225.306359 
L 288.908543 225.06575 
L 289.927163 225.33915 
L 290.945783 225.198481 
L 291.964403 225.328213 
L 292.983023 225.065004 
L 294.001643 224.601637 
L 295.020263 225.139918 
L 296.038883 224.823648 
L 298.076123 224.713541 
L 299.094743 224.005038 
L 300.113363 223.718691 
L 301.131982 224.315744 
L 302.150602 224.241433 
L 303.169222 225.056229 
L 304.187842 226.221738 
L 305.206462 225.872796 
L 306.225082 226.25182 
L 308.262322 226.156201 
L 309.280942 225.989566 
L 310.299562 226.263527 
L 311.318182 226.116869 
L 311.318182 226.116869 
" clip-path="url(#p84b0c064ae)" style="fill: none; stroke: #ff0000; stroke-width: 1.5; stroke-linecap: square"/>
   </g>
   <g id="line2d_15">
    <path d="M 57.681818 70.878046 
L 58.700438 80.342559 
L 59.719058 92.388261 
L 61.756298 119.334914 
L 63.793538 140.903713 
L 65.830778 158.149353 
L 66.849398 164.804899 
L 67.868018 170.056669 
L 68.886637 174.631031 
L 69.905257 178.242857 
L 71.942497 183.790048 
L 72.961117 185.84187 
L 74.998357 189.421912 
L 76.016977 190.710722 
L 77.035597 191.726845 
L 78.054217 192.088633 
L 79.072837 192.830018 
L 80.091457 193.331412 
L 81.110077 194.270543 
L 82.128697 194.730616 
L 83.147317 195.410591 
L 84.165936 195.676133 
L 87.221796 196.035126 
L 88.240416 196.363027 
L 89.259036 196.027798 
L 90.277656 196.546347 
L 91.296276 196.762994 
L 92.314896 196.43731 
L 93.333516 196.487957 
L 94.352136 196.820144 
L 96.389376 197.174897 
L 97.407996 198.084752 
L 98.426616 198.589728 
L 99.445235 199.250869 
L 100.463855 199.378652 
L 101.482475 199.082016 
L 104.538335 199.206917 
L 105.556955 198.377618 
L 108.612815 198.079546 
L 109.631435 197.848911 
L 111.668675 198.820191 
L 114.724535 199.569639 
L 115.743154 200.119399 
L 116.761774 200.437883 
L 117.780394 200.412887 
L 119.817634 199.903772 
L 121.854874 200.021683 
L 124.910734 200.908254 
L 125.929354 201.042635 
L 126.947974 201.039594 
L 128.985214 200.278476 
L 131.022453 200.822088 
L 132.041073 200.651938 
L 133.059693 200.647249 
L 134.078313 200.879951 
L 135.096933 200.245214 
L 137.134173 200.351034 
L 138.152793 200.708146 
L 139.171413 201.56292 
L 140.190033 202.153226 
L 141.208653 202.2191 
L 142.227273 202.609382 
L 144.264513 202.711462 
L 145.283133 202.9319 
L 146.301752 202.535111 
L 147.320372 202.534262 
L 148.338992 202.244829 
L 149.357612 202.346654 
L 150.376232 201.68632 
L 151.394852 202.030225 
L 152.413472 201.442466 
L 153.432092 201.370583 
L 154.450712 201.089665 
L 156.487952 199.991682 
L 157.506572 200.672399 
L 158.525192 200.393177 
L 159.543812 200.755027 
L 160.562432 202.132766 
L 161.581051 202.787687 
L 162.599671 202.957097 
L 163.618291 204.116619 
L 165.655531 204.258623 
L 166.674151 203.96404 
L 167.692771 203.181349 
L 168.711391 203.092494 
L 170.748631 201.812706 
L 171.767251 202.278671 
L 172.785871 203.131554 
L 173.804491 203.003702 
L 174.823111 202.322595 
L 175.841731 202.983118 
L 176.86035 202.650881 
L 177.87897 201.862955 
L 178.89759 201.665564 
L 180.93483 202.004686 
L 182.97207 203.01315 
L 183.99069 202.798631 
L 185.00931 204.014246 
L 186.02793 203.476469 
L 187.04655 203.247612 
L 188.06517 203.728108 
L 189.08379 204.351171 
L 190.10241 203.215844 
L 191.12103 203.724558 
L 192.13965 203.8274 
L 193.158269 203.358084 
L 194.176889 202.347586 
L 195.195509 202.961146 
L 196.214129 202.389643 
L 197.232749 202.128146 
L 198.251369 202.716581 
L 199.269989 204.021243 
L 201.307229 205.344615 
L 202.325849 205.768828 
L 203.344469 205.817121 
L 204.363089 205.377307 
L 206.400329 205.407131 
L 207.418949 204.257377 
L 208.437568 204.239222 
L 209.456188 204.710037 
L 210.474808 204.497338 
L 211.493428 204.503857 
L 212.512048 205.261015 
L 213.530668 205.199197 
L 214.549288 204.492606 
L 216.586528 205.045829 
L 217.605148 205.711625 
L 218.623768 205.760516 
L 219.642388 206.138354 
L 220.661008 206.060935 
L 221.679628 205.337608 
L 222.698248 205.24322 
L 224.735487 205.634792 
L 225.754107 205.154444 
L 226.772727 205.763225 
L 227.791347 205.501822 
L 228.809967 204.788698 
L 229.828587 205.145702 
L 230.847207 205.881875 
L 231.865827 205.371805 
L 232.884447 205.649248 
L 233.903067 206.417478 
L 234.921687 206.262764 
L 235.940307 205.077214 
L 236.958927 205.820089 
L 237.977547 205.863448 
L 238.996166 204.712357 
L 240.014786 204.94137 
L 241.033406 204.793902 
L 242.052026 204.369183 
L 243.070646 204.595644 
L 244.089266 205.836115 
L 245.107886 205.505586 
L 246.126506 206.230817 
L 247.145126 206.030406 
L 248.163746 205.279256 
L 249.182366 205.346629 
L 250.200986 204.838367 
L 251.219606 205.452449 
L 252.238226 205.799084 
L 253.256846 206.47235 
L 254.275465 206.055079 
L 255.294085 206.638295 
L 256.312705 206.365723 
L 257.331325 206.445996 
L 258.349945 206.342815 
L 259.368565 205.956662 
L 260.387185 206.412246 
L 261.405805 205.817975 
L 262.424425 205.749829 
L 264.461665 206.102853 
L 265.480285 204.446852 
L 266.498905 205.30644 
L 268.536145 205.711028 
L 269.554765 206.423592 
L 270.573384 208.126116 
L 271.592004 207.93263 
L 272.610624 208.057792 
L 273.629244 207.686578 
L 274.647864 207.60231 
L 275.666484 206.996743 
L 277.703724 207.144408 
L 278.722344 206.730239 
L 279.740964 205.944869 
L 280.759584 205.770036 
L 281.778204 206.142043 
L 282.796824 205.496027 
L 283.815444 206.038784 
L 284.834064 206.446447 
L 285.852683 206.72338 
L 286.871303 206.174505 
L 287.889923 207.048569 
L 288.908543 207.354646 
L 289.927163 207.218383 
L 290.945783 207.725979 
L 291.964403 208.407515 
L 292.983023 208.457939 
L 294.001643 207.626341 
L 295.020263 207.521066 
L 297.057503 207.695441 
L 298.076123 206.640041 
L 299.094743 206.984844 
L 300.113363 206.689164 
L 301.131982 206.048248 
L 302.150602 206.032559 
L 303.169222 207.104284 
L 304.187842 207.132203 
L 305.206462 207.373997 
L 306.225082 208.011895 
L 307.243702 206.684227 
L 308.262322 206.71762 
L 309.280942 206.288579 
L 310.299562 206.922226 
L 311.318182 206.666842 
L 311.318182 206.666842 
" clip-path="url(#p84b0c064ae)" style="fill: none; stroke: #0000ff; stroke-width: 1.5; stroke-linecap: square"/>
   </g>
   <g id="line2d_16">
    <path d="M 57.681818 68.450012 
L 58.700438 78.63855 
L 61.756298 116.608169 
L 62.774918 125.349748 
L 63.793538 133.052231 
L 64.812158 139.066416 
L 66.849398 147.829065 
L 67.868018 151.278126 
L 68.886637 153.488994 
L 70.923877 157.417774 
L 71.942497 159.471213 
L 72.961117 161.912557 
L 73.979737 164.926602 
L 74.998357 167.375936 
L 76.016977 170.133755 
L 77.035597 171.104329 
L 79.072837 168.927921 
L 80.091457 169.494225 
L 81.110077 168.747779 
L 82.128697 169.540953 
L 84.165936 174.413228 
L 85.184556 172.90158 
L 86.203176 174.135716 
L 87.221796 172.761327 
L 88.240416 171.885274 
L 89.259036 171.418033 
L 90.277656 173.537986 
L 91.296276 173.10029 
L 92.314896 174.074421 
L 93.333516 174.649879 
L 94.352136 175.628451 
L 95.370756 175.50055 
L 97.407996 180.20226 
L 98.426616 180.20962 
L 99.445235 180.041204 
L 100.463855 181.107119 
L 101.482475 181.523988 
L 102.501095 180.158691 
L 103.519715 181.540541 
L 104.538335 183.592786 
L 108.612815 189.62619 
L 109.631435 188.107319 
L 110.650055 187.396258 
L 111.668675 187.321163 
L 112.687295 188.677332 
L 113.705915 189.030535 
L 114.724535 190.192325 
L 115.743154 192.046669 
L 116.761774 192.723719 
L 117.780394 192.862757 
L 118.799014 193.364826 
L 119.817634 194.60016 
L 120.836254 195.389377 
L 121.854874 195.267736 
L 123.892114 199.294433 
L 124.910734 199.988612 
L 125.929354 200.438568 
L 126.947974 200.203999 
L 127.966594 199.351829 
L 130.003834 200.224328 
L 131.022453 199.434497 
L 132.041073 200.42417 
L 133.059693 200.436632 
L 134.078313 198.882765 
L 135.096933 198.99079 
L 136.115553 199.930072 
L 137.134173 200.105223 
L 138.152793 201.490906 
L 139.171413 202.171311 
L 140.190033 200.865613 
L 141.208653 200.241703 
L 142.227273 198.975244 
L 144.264513 195.667146 
L 145.283133 196.861513 
L 146.301752 195.556595 
L 147.320372 194.005494 
L 148.338992 192.65995 
L 149.357612 192.091246 
L 150.376232 190.11177 
L 151.394852 189.294057 
L 152.413472 191.088081 
L 154.450712 193.302121 
L 155.469332 195.462691 
L 156.487952 196.064367 
L 157.506572 195.262694 
L 158.525192 195.207776 
L 159.543812 195.661322 
L 160.562432 195.870613 
L 162.599671 200.5398 
L 163.618291 199.978684 
L 164.636911 200.518318 
L 165.655531 199.613964 
L 166.674151 197.966724 
L 167.692771 197.187106 
L 168.711391 197.995534 
L 169.730011 197.61472 
L 170.748631 198.440396 
L 171.767251 199.512266 
L 172.785871 199.587512 
L 173.804491 200.08855 
L 174.823111 200.295885 
L 175.841731 201.150128 
L 176.86035 201.844731 
L 177.87897 200.997436 
L 178.89759 203.112807 
L 179.91621 204.010452 
L 180.93483 204.50393 
L 181.95345 205.156092 
L 182.97207 206.097554 
L 183.99069 204.320245 
L 185.00931 204.792917 
L 186.02793 202.235735 
L 187.04655 200.003435 
L 188.06517 200.02827 
L 189.08379 199.724938 
L 190.10241 198.409117 
L 191.12103 198.57104 
L 192.13965 200.337293 
L 193.158269 201.312193 
L 194.176889 200.532548 
L 195.195509 197.60214 
L 196.214129 196.625019 
L 197.232749 193.884096 
L 198.251369 192.058665 
L 199.269989 191.36831 
L 200.288609 193.346311 
L 201.307229 194.396016 
L 202.325849 196.588408 
L 203.344469 197.154667 
L 204.363089 198.637049 
L 205.381709 200.866874 
L 206.400329 201.957063 
L 207.418949 202.144366 
L 208.437568 204.004668 
L 209.456188 205.220439 
L 210.474808 206.235256 
L 211.493428 206.730031 
L 212.512048 205.979119 
L 213.530668 206.624293 
L 214.549288 206.960455 
L 215.567908 206.581121 
L 216.586528 207.689045 
L 217.605148 210.07546 
L 218.623768 208.953661 
L 219.642388 209.42147 
L 221.679628 210.720375 
L 222.698248 211.178265 
L 223.716867 211.922559 
L 225.754107 211.988756 
L 226.772727 211.815259 
L 227.791347 210.039971 
L 228.809967 209.826175 
L 229.828587 209.253956 
L 230.847207 207.63043 
L 231.865827 206.460736 
L 232.884447 207.080662 
L 233.903067 206.921662 
L 234.921687 207.094694 
L 235.940307 207.930856 
L 236.958927 208.007163 
L 237.977547 206.684924 
L 238.996166 206.700967 
L 240.014786 206.302914 
L 241.033406 203.517671 
L 242.052026 202.107869 
L 243.070646 202.757892 
L 244.089266 198.982746 
L 245.107886 196.57436 
L 246.126506 195.601437 
L 247.145126 195.640761 
L 248.163746 194.528008 
L 249.182366 195.632168 
L 250.200986 195.343841 
L 251.219606 196.558611 
L 252.238226 196.588043 
L 253.256846 195.952457 
L 254.275465 196.187241 
L 255.294085 197.156589 
L 256.312705 196.998398 
L 257.331325 197.069858 
L 259.368565 197.927033 
L 260.387185 198.552814 
L 261.405805 199.516364 
L 262.424425 199.239289 
L 263.443045 200.525105 
L 264.461665 202.643242 
L 268.536145 208.878921 
L 269.554765 209.03496 
L 270.573384 208.347399 
L 271.592004 206.72136 
L 272.610624 207.476152 
L 273.629244 206.91787 
L 274.647864 206.063852 
L 276.685104 207.803528 
L 277.703724 207.196625 
L 278.722344 207.15271 
L 279.740964 208.241211 
L 280.759584 208.000902 
L 282.796824 209.775723 
L 283.815444 210.134328 
L 286.871303 208.435995 
L 287.889923 206.656583 
L 288.908543 205.125325 
L 289.927163 204.788999 
L 290.945783 203.590498 
L 291.964403 204.238024 
L 292.983023 205.875227 
L 294.001643 208.168124 
L 295.020263 209.161494 
L 296.038883 211.188529 
L 297.057503 209.94805 
L 298.076123 209.952267 
L 299.094743 208.294311 
L 300.113363 207.469104 
L 301.131982 207.746343 
L 302.150602 210.336315 
L 303.169222 208.50165 
L 304.187842 208.90535 
L 305.206462 208.615367 
L 307.243702 208.946746 
L 308.262322 209.829435 
L 309.280942 210.480057 
L 310.299562 211.405727 
L 311.318182 211.127903 
L 311.318182 211.127903 
" clip-path="url(#p84b0c064ae)" style="fill: none; stroke: #008000; stroke-width: 1.5; stroke-linecap: square"/>
   </g>
   <g id="patch_3">
    <path d="M 45 256.32 
L 45 34.56 
" style="fill: none; stroke: #000000; stroke-width: 0.8; stroke-linejoin: miter; stroke-linecap: square"/>
   </g>
   <g id="patch_4">
    <path d="M 324 256.32 
L 324 34.56 
" style="fill: none; stroke: #000000; stroke-width: 0.8; stroke-linejoin: miter; stroke-linecap: square"/>
   </g>
   <g id="patch_5">
    <path d="M 45 256.32 
L 324 256.32 
" style="fill: none; stroke: #000000; stroke-width: 0.8; stroke-linejoin: miter; stroke-linecap: square"/>
   </g>
   <g id="patch_6">
    <path d="M 45 34.56 
L 324 34.56 
" style="fill: none; stroke: #000000; stroke-width: 0.8; stroke-linejoin: miter; stroke-linecap: square"/>
   </g>
   <g id="legend_1">
    <g id="patch_7">
     <path d="M 252.2125 84.977188 
L 317 84.977188 
Q 319 84.977188 319 82.977188 
L 319 41.56 
Q 319 39.56 317 39.56 
L 252.2125 39.56 
Q 250.2125 39.56 250.2125 41.56 
L 250.2125 82.977188 
Q 250.2125 84.977188 252.2125 84.977188 
z
" style="fill: #ffffff; opacity: 0.8; stroke: #cccccc; stroke-linejoin: miter"/>
    </g>
    <g id="line2d_17">
     <path d="M 254.2125 47.06 
L 264.2125 47.06 
L 274.2125 47.06 
" style="fill: none; stroke: #ff0000; stroke-width: 1.5; stroke-linecap: square"/>
    </g>
    <g id="text_16">
     <!-- FPSNN -->
     <g transform="translate(282.2125 50.56)scale(0.1 -0.1)">
      <defs>
       <path id="TimesNewRomanPSMT-46" d="M 1309 4006 
L 1309 2341 
L 2081 2341 
Q 2347 2341 2470 2458 
Q 2594 2575 2634 2922 
L 2750 2922 
L 2750 1488 
L 2634 1488 
Q 2631 1734 2570 1850 
Q 2509 1966 2401 2023 
Q 2294 2081 2081 2081 
L 1309 2081 
L 1309 750 
Q 1309 428 1350 325 
Q 1381 247 1481 191 
Q 1619 116 1769 116 
L 1922 116 
L 1922 0 
L 103 0 
L 103 116 
L 253 116 
Q 516 116 634 269 
Q 709 369 709 750 
L 709 3488 
Q 709 3809 669 3913 
Q 638 3991 541 4047 
Q 406 4122 253 4122 
L 103 4122 
L 103 4238 
L 3256 4238 
L 3297 3306 
L 3188 3306 
Q 3106 3603 2998 3742 
Q 2891 3881 2733 3943 
Q 2575 4006 2244 4006 
L 1309 4006 
z
" transform="scale(0.015625)"/>
       <path id="TimesNewRomanPSMT-50" d="M 1313 1984 
L 1313 750 
Q 1313 350 1400 253 
Q 1519 116 1759 116 
L 1922 116 
L 1922 0 
L 106 0 
L 106 116 
L 266 116 
Q 534 116 650 291 
Q 713 388 713 750 
L 713 3488 
Q 713 3888 628 3984 
Q 506 4122 266 4122 
L 106 4122 
L 106 4238 
L 1659 4238 
Q 2228 4238 2556 4120 
Q 2884 4003 3109 3725 
Q 3334 3447 3334 3066 
Q 3334 2547 2992 2222 
Q 2650 1897 2025 1897 
Q 1872 1897 1694 1919 
Q 1516 1941 1313 1984 
z
M 1313 2163 
Q 1478 2131 1606 2115 
Q 1734 2100 1825 2100 
Q 2150 2100 2386 2351 
Q 2622 2603 2622 3003 
Q 2622 3278 2509 3514 
Q 2397 3750 2190 3867 
Q 1984 3984 1722 3984 
Q 1563 3984 1313 3925 
L 1313 2163 
z
" transform="scale(0.015625)"/>
       <path id="TimesNewRomanPSMT-53" d="M 2934 4334 
L 2934 2869 
L 2819 2869 
Q 2763 3291 2617 3541 
Q 2472 3791 2203 3937 
Q 1934 4084 1647 4084 
Q 1322 4084 1109 3886 
Q 897 3688 897 3434 
Q 897 3241 1031 3081 
Q 1225 2847 1953 2456 
Q 2547 2138 2764 1967 
Q 2981 1797 3098 1565 
Q 3216 1334 3216 1081 
Q 3216 600 2842 251 
Q 2469 -97 1881 -97 
Q 1697 -97 1534 -69 
Q 1438 -53 1133 45 
Q 828 144 747 144 
Q 669 144 623 97 
Q 578 50 556 -97 
L 441 -97 
L 441 1356 
L 556 1356 
Q 638 900 775 673 
Q 913 447 1195 297 
Q 1478 147 1816 147 
Q 2206 147 2432 353 
Q 2659 559 2659 841 
Q 2659 997 2573 1156 
Q 2488 1316 2306 1453 
Q 2184 1547 1640 1851 
Q 1097 2156 867 2337 
Q 638 2519 519 2737 
Q 400 2956 400 3219 
Q 400 3675 750 4004 
Q 1100 4334 1641 4334 
Q 1978 4334 2356 4169 
Q 2531 4091 2603 4091 
Q 2684 4091 2736 4139 
Q 2788 4188 2819 4334 
L 2934 4334 
z
" transform="scale(0.015625)"/>
       <path id="TimesNewRomanPSMT-4e" d="M -84 4238 
L 1066 4238 
L 3656 1059 
L 3656 3503 
Q 3656 3894 3569 3991 
Q 3453 4122 3203 4122 
L 3056 4122 
L 3056 4238 
L 4531 4238 
L 4531 4122 
L 4381 4122 
Q 4113 4122 4000 3959 
Q 3931 3859 3931 3503 
L 3931 -69 
L 3819 -69 
L 1025 3344 
L 1025 734 
Q 1025 344 1109 247 
Q 1228 116 1475 116 
L 1625 116 
L 1625 0 
L 150 0 
L 150 116 
L 297 116 
Q 569 116 681 278 
Q 750 378 750 734 
L 750 3681 
Q 566 3897 470 3965 
Q 375 4034 191 4094 
Q 100 4122 -84 4122 
L -84 4238 
z
" transform="scale(0.015625)"/>
      </defs>
      <use xlink:href="#TimesNewRomanPSMT-46"/>
      <use xlink:href="#TimesNewRomanPSMT-50" x="55.615234"/>
      <use xlink:href="#TimesNewRomanPSMT-53" x="111.230469"/>
      <use xlink:href="#TimesNewRomanPSMT-4e" x="166.845703"/>
      <use xlink:href="#TimesNewRomanPSMT-4e" x="239.0625"/>
     </g>
    </g>
    <g id="line2d_18">
     <path d="M 254.2125 61.199062 
L 264.2125 61.199062 
L 274.2125 61.199062 
" style="fill: none; stroke: #0000ff; stroke-width: 1.5; stroke-linecap: square"/>
    </g>
    <g id="text_17">
     <!-- FPANN -->
     <g transform="translate(282.2125 64.699062)scale(0.1 -0.1)">
      <defs>
       <path id="TimesNewRomanPSMT-41" d="M 2928 1419 
L 1288 1419 
L 1000 750 
Q 894 503 894 381 
Q 894 284 986 211 
Q 1078 138 1384 116 
L 1384 0 
L 50 0 
L 50 116 
Q 316 163 394 238 
Q 553 388 747 847 
L 2238 4334 
L 2347 4334 
L 3822 809 
Q 4000 384 4145 257 
Q 4291 131 4550 116 
L 4550 0 
L 2878 0 
L 2878 116 
Q 3131 128 3220 200 
Q 3309 272 3309 375 
Q 3309 513 3184 809 
L 2928 1419 
z
M 2841 1650 
L 2122 3363 
L 1384 1650 
L 2841 1650 
z
" transform="scale(0.015625)"/>
      </defs>
      <use xlink:href="#TimesNewRomanPSMT-46"/>
      <use xlink:href="#TimesNewRomanPSMT-50" x="55.615234"/>
      <use xlink:href="#TimesNewRomanPSMT-41" x="102.105469"/>
      <use xlink:href="#TimesNewRomanPSMT-4e" x="174.322266"/>
      <use xlink:href="#TimesNewRomanPSMT-4e" x="246.539062"/>
     </g>
    </g>
    <g id="line2d_19">
     <path d="M 254.2125 75.338125 
L 264.2125 75.338125 
L 274.2125 75.338125 
" style="fill: none; stroke: #008000; stroke-width: 1.5; stroke-linecap: square"/>
    </g>
    <g id="text_18">
     <!-- APSNN -->
     <g transform="translate(282.2125 78.838125)scale(0.1 -0.1)">
      <use xlink:href="#TimesNewRomanPSMT-41"/>
      <use xlink:href="#TimesNewRomanPSMT-50" x="72.216797"/>
      <use xlink:href="#TimesNewRomanPSMT-53" x="127.832031"/>
      <use xlink:href="#TimesNewRomanPSMT-4e" x="183.447266"/>
      <use xlink:href="#TimesNewRomanPSMT-4e" x="255.664062"/>
     </g>
    </g>
   </g>
  </g>
  <g id="text_19">
   <!-- Conditional loss comparison, log scale -->
   <g transform="translate(87.17625 14.0925)scale(0.12 -0.12)">
    <defs>
     <path id="TimesNewRomanPSMT-6d" d="M 1050 2338 
Q 1363 2650 1419 2697 
Q 1559 2816 1721 2881 
Q 1884 2947 2044 2947 
Q 2313 2947 2506 2790 
Q 2700 2634 2766 2338 
Q 3088 2713 3309 2830 
Q 3531 2947 3766 2947 
Q 3994 2947 4170 2830 
Q 4347 2713 4450 2447 
Q 4519 2266 4519 1878 
L 4519 647 
Q 4519 378 4559 278 
Q 4591 209 4675 161 
Q 4759 113 4950 113 
L 4950 0 
L 3538 0 
L 3538 113 
L 3597 113 
Q 3781 113 3884 184 
Q 3956 234 3988 344 
Q 4000 397 4000 647 
L 4000 1878 
Q 4000 2228 3916 2372 
Q 3794 2572 3525 2572 
Q 3359 2572 3192 2489 
Q 3025 2406 2788 2181 
L 2781 2147 
L 2788 2013 
L 2788 647 
Q 2788 353 2820 281 
Q 2853 209 2943 161 
Q 3034 113 3253 113 
L 3253 0 
L 1806 0 
L 1806 113 
Q 2044 113 2133 169 
Q 2222 225 2256 338 
Q 2272 391 2272 647 
L 2272 1878 
Q 2272 2228 2169 2381 
Q 2031 2581 1784 2581 
Q 1616 2581 1450 2491 
Q 1191 2353 1050 2181 
L 1050 647 
Q 1050 366 1089 281 
Q 1128 197 1204 155 
Q 1281 113 1516 113 
L 1516 0 
L 100 0 
L 100 113 
Q 297 113 375 155 
Q 453 197 493 289 
Q 534 381 534 647 
L 534 1741 
Q 534 2213 506 2350 
Q 484 2453 437 2492 
Q 391 2531 309 2531 
Q 222 2531 100 2484 
L 53 2597 
L 916 2947 
L 1050 2947 
L 1050 2338 
z
" transform="scale(0.015625)"/>
     <path id="TimesNewRomanPSMT-72" d="M 1038 2947 
L 1038 2303 
Q 1397 2947 1775 2947 
Q 1947 2947 2059 2842 
Q 2172 2738 2172 2600 
Q 2172 2478 2090 2393 
Q 2009 2309 1897 2309 
Q 1788 2309 1652 2417 
Q 1516 2525 1450 2525 
Q 1394 2525 1328 2463 
Q 1188 2334 1038 2041 
L 1038 669 
Q 1038 431 1097 309 
Q 1138 225 1241 169 
Q 1344 113 1538 113 
L 1538 0 
L 72 0 
L 72 113 
Q 291 113 397 181 
Q 475 231 506 341 
Q 522 394 522 644 
L 522 1753 
Q 522 2253 501 2348 
Q 481 2444 426 2487 
Q 372 2531 291 2531 
Q 194 2531 72 2484 
L 41 2597 
L 906 2947 
L 1038 2947 
z
" transform="scale(0.015625)"/>
    </defs>
    <use xlink:href="#TimesNewRomanPSMT-43"/>
    <use xlink:href="#TimesNewRomanPSMT-6f" x="66.699219"/>
    <use xlink:href="#TimesNewRomanPSMT-6e" x="116.699219"/>
    <use xlink:href="#TimesNewRomanPSMT-64" x="166.699219"/>
    <use xlink:href="#TimesNewRomanPSMT-69" x="216.699219"/>
    <use xlink:href="#TimesNewRomanPSMT-74" x="244.482422"/>
    <use xlink:href="#TimesNewRomanPSMT-69" x="272.265625"/>
    <use xlink:href="#TimesNewRomanPSMT-6f" x="300.048828"/>
    <use xlink:href="#TimesNewRomanPSMT-6e" x="350.048828"/>
    <use xlink:href="#TimesNewRomanPSMT-61" x="400.048828"/>
    <use xlink:href="#TimesNewRomanPSMT-6c" x="444.433594"/>
    <use xlink:href="#TimesNewRomanPSMT-20" x="472.216797"/>
    <use xlink:href="#TimesNewRomanPSMT-6c" x="497.216797"/>
    <use xlink:href="#TimesNewRomanPSMT-6f" x="525"/>
    <use xlink:href="#TimesNewRomanPSMT-73" x="575"/>
    <use xlink:href="#TimesNewRomanPSMT-73" x="613.916016"/>
    <use xlink:href="#TimesNewRomanPSMT-20" x="652.832031"/>
    <use xlink:href="#TimesNewRomanPSMT-63" x="677.832031"/>
    <use xlink:href="#TimesNewRomanPSMT-6f" x="722.216797"/>
    <use xlink:href="#TimesNewRomanPSMT-6d" x="772.216797"/>
    <use xlink:href="#TimesNewRomanPSMT-70" x="850"/>
    <use xlink:href="#TimesNewRomanPSMT-61" x="900"/>
    <use xlink:href="#TimesNewRomanPSMT-72" x="944.384766"/>
    <use xlink:href="#TimesNewRomanPSMT-69" x="977.685547"/>
    <use xlink:href="#TimesNewRomanPSMT-73" x="1005.46875"/>
    <use xlink:href="#TimesNewRomanPSMT-6f" x="1044.384766"/>
    <use xlink:href="#TimesNewRomanPSMT-6e" x="1094.384766"/>
    <use xlink:href="#TimesNewRomanPSMT-2c" x="1144.384766"/>
    <use xlink:href="#TimesNewRomanPSMT-20" x="1169.384766"/>
    <use xlink:href="#TimesNewRomanPSMT-6c" x="1194.384766"/>
    <use xlink:href="#TimesNewRomanPSMT-6f" x="1222.167969"/>
    <use xlink:href="#TimesNewRomanPSMT-67" x="1272.167969"/>
    <use xlink:href="#TimesNewRomanPSMT-20" x="1322.167969"/>
    <use xlink:href="#TimesNewRomanPSMT-73" x="1347.167969"/>
    <use xlink:href="#TimesNewRomanPSMT-63" x="1386.083984"/>
    <use xlink:href="#TimesNewRomanPSMT-61" x="1430.46875"/>
    <use xlink:href="#TimesNewRomanPSMT-6c" x="1474.853516"/>
    <use xlink:href="#TimesNewRomanPSMT-65" x="1502.636719"/>
   </g>
  </g>
 </g>
 <defs>
  <clipPath id="p84b0c064ae">
   <rect x="45" y="34.56" width="279" height="221.76"/>
  </clipPath>
 </defs>
</svg>
