<?xml version="1.0" encoding="utf-8" standalone="no"?>
<!DOCTYPE svg PUBLIC "-//W3C//DTD SVG 1.1//EN"
  "http://www.w3.org/Graphics/SVG/1.1/DTD/svg11.dtd">
<svg xmlns:xlink="http://www.w3.org/1999/xlink" width="360pt" height="288pt" viewBox="0 0 360 288" xmlns="http://www.w3.org/2000/svg" version="1.1">
 <metadata>
  <rdf:RDF xmlns:dc="http://purl.org/dc/elements/1.1/" xmlns:cc="http://creativecommons.org/ns#" xmlns:rdf="http://www.w3.org/1999/02/22-rdf-syntax-ns#">
   <cc:Work>
    <dc:type rdf:resource="http://purl.org/dc/dcmitype/StillImage"/>
    <dc:date>2024-11-11T15:22:01.737689</dc:date>
    <dc:format>image/svg+xml</dc:format>
    <dc:creator>
     <cc:Agent>
      <dc:title>Matplotlib v3.5.2, https://matplotlib.org/</dc:title>
     </cc:Agent>
    </dc:creator>
   </cc:Work>
  </rdf:RDF>
 </metadata>
 <defs>
  <style type="text/css">*{stroke-linejoin: round; stroke-linecap: butt}</style>
 </defs>
 <g id="figure_1">
  <g id="patch_1">
   <path d="M 0 288 
L 360 288 
L 360 0 
L 0 0 
z
" style="fill: #ffffff"/>
  </g>
  <g id="axes_1">
   <g id="patch_2">
    <path d="M 45 256.32 
L 324 256.32 
L 324 34.56 
L 45 34.56 
z
" style="fill: #ffffff"/>
   </g>
   <g id="PolyCollection_1">
    <path d="M 57.681818 60.224185 
L 57.681818 69.06103 
L 58.700438 69.817777 
L 59.719058 71.520165 
L 60.737678 74.130895 
L 61.756298 76.322533 
L 62.774918 80.175252 
L 63.793538 83.641048 
L 64.812158 86.016656 
L 65.830778 91.861636 
L 66.849398 105.161359 
L 67.868018 107.411189 
L 68.886637 112.616161 
L 69.905257 123.715563 
L 70.923877 137.034649 
L 71.942497 146.584366 
L 72.961117 153.447085 
L 73.979737 158.362534 
L 74.998357 160.079131 
L 76.016977 163.111697 
L 77.035597 165.527818 
L 78.054217 170.088185 
L 79.072837 176.823122 
L 80.091457 183.289701 
L 81.110077 188.827176 
L 82.128697 193.757285 
L 83.147317 197.558312 
L 84.165936 200.171942 
L 85.184556 201.938025 
L 86.203176 202.662273 
L 87.221796 203.5941 
L 88.240416 204.282971 
L 89.259036 205.189664 
L 90.277656 205.402528 
L 91.296276 206.328116 
L 92.314896 206.827248 
L 93.333516 206.036594 
L 94.352136 206.294341 
L 95.370756 206.884028 
L 96.389376 207.278809 
L 97.407996 207.596818 
L 98.426616 209.26403 
L 99.445235 209.674824 
L 100.463855 209.931255 
L 101.482475 210.104656 
L 102.501095 210.327946 
L 103.519715 210.497527 
L 104.538335 210.6899 
L 105.556955 210.849969 
L 106.575575 211.077885 
L 107.594195 211.226816 
L 108.612815 211.334126 
L 109.631435 211.46546 
L 110.650055 211.671872 
L 111.668675 211.799642 
L 112.687295 211.911524 
L 113.705915 212.094118 
L 114.724535 212.207352 
L 115.743154 212.271356 
L 116.761774 212.468972 
L 117.780394 212.617007 
L 118.799014 213.149261 
L 119.817634 213.852912 
L 120.836254 214.501348 
L 121.854874 213.083526 
L 122.873494 213.164622 
L 123.892114 213.372397 
L 124.910734 213.523149 
L 125.929354 213.643672 
L 126.947974 213.7677 
L 127.966594 213.874007 
L 128.985214 214.045487 
L 130.003834 214.292345 
L 131.022453 214.582118 
L 132.041073 216.047895 
L 133.059693 218.017134 
L 134.078313 219.232079 
L 135.096933 219.702542 
L 136.115553 221.116983 
L 137.134173 221.911047 
L 138.152793 222.50316 
L 139.171413 223.238272 
L 140.190033 224.559081 
L 141.208653 224.718248 
L 142.227273 224.680007 
L 143.245893 224.76134 
L 144.264513 224.85017 
L 145.283133 224.87241 
L 146.301752 225.019058 
L 147.320372 225.324778 
L 148.338992 225.368914 
L 149.357612 223.670162 
L 150.376232 224.026358 
L 151.394852 224.564596 
L 152.413472 225.428671 
L 153.432092 226.688773 
L 154.450712 227.074575 
L 155.469332 226.987329 
L 156.487952 228.008573 
L 157.506572 228.432438 
L 158.525192 229.079575 
L 159.543812 229.365861 
L 160.562432 230.888846 
L 161.581051 230.975137 
L 162.599671 230.850854 
L 163.618291 231.149291 
L 164.636911 230.269541 
L 165.655531 230.499005 
L 166.674151 230.624889 
L 167.692771 231.105736 
L 168.711391 231.432878 
L 169.730011 233.440672 
L 170.748631 233.934448 
L 171.767251 234.865569 
L 172.785871 233.966669 
L 173.804491 234.190386 
L 174.823111 234.21966 
L 175.841731 234.146944 
L 176.86035 233.36859 
L 177.87897 234.180695 
L 178.89759 234.304231 
L 179.91621 233.408557 
L 180.93483 234.115618 
L 181.95345 235.199514 
L 182.97207 236.522427 
L 183.99069 237.017864 
L 185.00931 238.438752 
L 186.02793 238.040934 
L 187.04655 236.488581 
L 188.06517 236.537355 
L 189.08379 236.613914 
L 190.10241 236.882555 
L 191.12103 236.283534 
L 192.13965 238.327374 
L 193.158269 238.300721 
L 194.176889 238.374748 
L 195.195509 238.195215 
L 196.214129 239.114967 
L 197.232749 239.279834 
L 198.251369 239.584421 
L 199.269989 239.630058 
L 200.288609 238.022917 
L 201.307229 236.634541 
L 202.325849 235.9487 
L 203.344469 235.973508 
L 204.363089 236.31585 
L 205.381709 238.000019 
L 206.400329 238.231801 
L 207.418949 239.146394 
L 208.437568 239.30581 
L 209.456188 239.288611 
L 210.474808 239.881542 
L 211.493428 241.084822 
L 212.512048 241.133869 
L 213.530668 241.319689 
L 214.549288 241.314796 
L 215.567908 241.114867 
L 216.586528 241.903291 
L 217.605148 239.904197 
L 218.623768 239.835259 
L 219.642388 240.151483 
L 220.661008 240.490581 
L 221.679628 237.802177 
L 222.698248 238.296463 
L 223.716867 238.53232 
L 224.735487 238.588318 
L 225.754107 238.579605 
L 226.772727 241.586587 
L 227.791347 242.663176 
L 228.809967 240.715069 
L 229.828587 240.696778 
L 230.847207 240.869901 
L 231.865827 240.909482 
L 232.884447 241.648307 
L 233.903067 243.645295 
L 234.921687 243.802861 
L 235.940307 243.793823 
L 236.958927 242.157888 
L 237.977547 242.107223 
L 238.996166 242.355653 
L 240.014786 241.161796 
L 241.033406 236.806649 
L 242.052026 236.298093 
L 243.070646 235.906343 
L 244.089266 235.559049 
L 245.107886 236.777244 
L 246.126506 240.974619 
L 247.145126 243.037716 
L 248.163746 243.035308 
L 249.182366 243.515075 
L 250.200986 243.611135 
L 251.219606 242.577537 
L 252.238226 242.821187 
L 253.256846 243.516926 
L 254.275465 243.376458 
L 255.294085 242.197849 
L 256.312705 243.724428 
L 257.331325 243.713658 
L 258.349945 242.326136 
L 259.368565 239.487935 
L 260.387185 240.785116 
L 261.405805 237.012295 
L 262.424425 237.140706 
L 263.443045 238.358415 
L 264.461665 240.948945 
L 265.480285 240.731609 
L 266.498905 244.065365 
L 267.517525 243.482291 
L 268.536145 242.696821 
L 269.554765 242.450294 
L 270.573384 242.635711 
L 271.592004 243.059552 
L 272.610624 243.457091 
L 273.629244 244.496863 
L 274.647864 245.276337 
L 275.666484 242.863639 
L 276.685104 242.936432 
L 277.703724 243.193906 
L 278.722344 243.121308 
L 279.740964 242.895302 
L 280.759584 244.674338 
L 281.778204 243.6098 
L 282.796824 240.816246 
L 283.815444 240.765562 
L 284.834064 241.049155 
L 285.852683 240.833077 
L 286.871303 241.819727 
L 287.889923 242.655911 
L 288.908543 242.460786 
L 289.927163 242.420617 
L 290.945783 239.414217 
L 291.964403 239.606306 
L 292.983023 237.56074 
L 294.001643 237.589284 
L 295.020263 237.710578 
L 296.038883 236.33446 
L 297.057503 235.792314 
L 298.076123 237.046076 
L 299.094743 238.876821 
L 300.113363 239.134396 
L 301.131982 241.203139 
L 302.150602 242.790347 
L 303.169222 244.425867 
L 304.187842 242.916095 
L 305.206462 243.053533 
L 306.225082 242.900005 
L 307.243702 242.874326 
L 308.262322 243.031346 
L 309.280942 244.708783 
L 310.299562 244.792596 
L 311.318182 246.24 
L 311.318182 206.503723 
L 311.318182 206.503723 
L 310.299562 206.410137 
L 309.280942 206.106754 
L 308.262322 206.24001 
L 307.243702 206.207534 
L 306.225082 206.250899 
L 305.206462 206.167781 
L 304.187842 206.033012 
L 303.169222 205.724937 
L 302.150602 205.826832 
L 301.131982 205.62739 
L 300.113363 205.583443 
L 299.094743 205.797481 
L 298.076123 205.869711 
L 297.057503 205.628113 
L 296.038883 205.607664 
L 295.020263 205.684929 
L 294.001643 205.552817 
L 292.983023 205.179974 
L 291.964403 205.167353 
L 290.945783 205.032371 
L 289.927163 204.768272 
L 288.908543 204.67245 
L 287.889923 204.734865 
L 286.871303 204.644345 
L 285.852683 203.668631 
L 284.834064 203.579552 
L 283.815444 203.434737 
L 282.796824 203.344763 
L 281.778204 203.173876 
L 280.759584 203.986444 
L 279.740964 203.885895 
L 278.722344 203.89402 
L 277.703724 203.826369 
L 276.685104 203.720655 
L 275.666484 203.647221 
L 274.647864 203.611014 
L 273.629244 203.578615 
L 272.610624 203.500472 
L 271.592004 203.480112 
L 270.573384 203.372174 
L 269.554765 203.272675 
L 268.536145 203.203257 
L 267.517525 202.93369 
L 266.498905 202.801098 
L 265.480285 202.715501 
L 264.461665 202.573319 
L 263.443045 202.414044 
L 262.424425 202.447719 
L 261.405805 202.320951 
L 260.387185 202.17524 
L 259.368565 202.056585 
L 258.349945 201.866347 
L 257.331325 201.691801 
L 256.312705 201.536299 
L 255.294085 201.315708 
L 254.275465 201.07768 
L 253.256846 200.827257 
L 252.238226 200.597361 
L 251.219606 200.264941 
L 250.200986 199.602295 
L 249.182366 199.336257 
L 248.163746 198.949085 
L 247.145126 198.226966 
L 246.126506 197.907291 
L 245.107886 197.36024 
L 244.089266 197.472964 
L 243.070646 197.097416 
L 242.052026 196.510908 
L 241.033406 195.961639 
L 240.014786 195.41785 
L 238.996166 194.919359 
L 237.977547 194.397442 
L 236.958927 194.195657 
L 235.940307 193.563904 
L 234.921687 192.529286 
L 233.903067 191.629959 
L 232.884447 190.840859 
L 231.865827 190.053954 
L 230.847207 189.243456 
L 229.828587 188.883565 
L 228.809967 188.415682 
L 227.791347 187.620563 
L 226.772727 187.248526 
L 225.754107 186.825728 
L 224.735487 186.656953 
L 223.716867 186.325678 
L 222.698248 186.443526 
L 221.679628 186.048567 
L 220.661008 185.650151 
L 219.642388 185.492786 
L 218.623768 185.407936 
L 217.605148 185.212568 
L 216.586528 185.299547 
L 215.567908 185.494073 
L 214.549288 185.164577 
L 213.530668 184.749258 
L 212.512048 184.493426 
L 211.493428 184.118863 
L 210.474808 183.974931 
L 209.456188 184.036853 
L 208.437568 184.233859 
L 207.418949 184.309427 
L 206.400329 184.407366 
L 205.381709 184.146962 
L 204.363089 184.036687 
L 203.344469 183.985387 
L 202.325849 183.9552 
L 201.307229 183.743143 
L 200.288609 184.127077 
L 199.269989 184.095093 
L 198.251369 183.816262 
L 197.232749 183.432755 
L 196.214129 183.425223 
L 195.195509 183.263316 
L 194.176889 183.128245 
L 193.158269 182.938742 
L 192.13965 182.755324 
L 191.12103 182.850363 
L 190.10241 182.872194 
L 189.08379 182.773792 
L 188.06517 182.888367 
L 187.04655 183.200759 
L 186.02793 183.061056 
L 185.00931 182.995843 
L 183.99069 183.150633 
L 182.97207 183.334187 
L 181.95345 183.251751 
L 180.93483 183.529135 
L 179.91621 183.351031 
L 178.89759 183.017442 
L 177.87897 182.812324 
L 176.86035 182.79758 
L 175.841731 182.666957 
L 174.823111 182.662895 
L 173.804491 182.78391 
L 172.785871 182.871743 
L 171.767251 182.725564 
L 170.748631 182.584005 
L 169.730011 182.446188 
L 168.711391 182.412513 
L 167.692771 182.257984 
L 166.674151 182.103063 
L 165.655531 181.96046 
L 164.636911 181.790006 
L 163.618291 181.754268 
L 162.599671 181.645766 
L 161.581051 181.641769 
L 160.562432 181.871037 
L 159.543812 181.937259 
L 158.525192 181.725261 
L 157.506572 181.493722 
L 156.487952 181.567001 
L 155.469332 181.380885 
L 154.450712 181.298775 
L 153.432092 181.446579 
L 152.413472 181.793268 
L 151.394852 181.997289 
L 150.376232 181.748764 
L 149.357612 181.638282 
L 148.338992 181.478486 
L 147.320372 181.040951 
L 146.301752 179.497683 
L 145.283133 177.851109 
L 144.264513 176.75792 
L 143.245893 175.25985 
L 142.227273 173.937784 
L 141.208653 172.520235 
L 140.190033 170.815872 
L 139.171413 169.749668 
L 138.152793 168.656141 
L 137.134173 167.505733 
L 136.115553 166.429001 
L 135.096933 165.68622 
L 134.078313 164.323962 
L 133.059693 163.027749 
L 132.041073 162.50885 
L 131.022453 161.607898 
L 130.003834 160.853226 
L 128.985214 159.988208 
L 127.966594 158.967094 
L 126.947974 157.819681 
L 125.929354 156.322234 
L 124.910734 154.828398 
L 123.892114 152.917435 
L 122.873494 151.095681 
L 121.854874 149.017371 
L 120.836254 147.913163 
L 119.817634 146.546558 
L 118.799014 145.756225 
L 117.780394 145.281445 
L 116.761774 144.641039 
L 115.743154 143.305131 
L 114.724535 142.874227 
L 113.705915 141.917117 
L 112.687295 141.297664 
L 111.668675 139.944101 
L 110.650055 140.135525 
L 109.631435 139.759271 
L 108.612815 139.513314 
L 107.594195 138.6329 
L 106.575575 138.890558 
L 105.556955 137.622515 
L 104.538335 136.594208 
L 103.519715 136.275268 
L 102.501095 135.212136 
L 101.482475 134.439666 
L 100.463855 133.399758 
L 99.445235 132.03683 
L 98.426616 130.57878 
L 97.407996 130.94201 
L 96.389376 130.556694 
L 95.370756 130.529152 
L 94.352136 130.223331 
L 93.333516 130.274709 
L 92.314896 129.191756 
L 91.296276 128.209708 
L 90.277656 124.545365 
L 89.259036 120.601983 
L 88.240416 116.135541 
L 87.221796 111.091302 
L 86.203176 105.17854 
L 85.184556 100.091197 
L 84.165936 95.676435 
L 83.147317 91.648873 
L 82.128697 88.005566 
L 81.110077 85.510094 
L 80.091457 84.113776 
L 79.072837 82.719671 
L 78.054217 81.494904 
L 77.035597 81.019964 
L 76.016977 81.854131 
L 74.998357 81.096119 
L 73.979737 77.548213 
L 72.961117 72.865141 
L 71.942497 68.992874 
L 70.923877 66.335886 
L 69.905257 64.786788 
L 68.886637 63.919664 
L 67.868018 63.595577 
L 66.849398 63.626808 
L 65.830778 63.715714 
L 64.812158 64.028984 
L 63.793538 64.636849 
L 62.774918 63.631096 
L 61.756298 63.330399 
L 60.737678 63.773106 
L 59.719058 62.521645 
L 58.700438 61.811808 
L 57.681818 60.224185 
z
" clip-path="url(#pb817fe9f60)" style="fill: #ff0000; fill-opacity: 0.3"/>
   </g>
   <g id="PolyCollection_2">
    <path d="M 57.681818 55.943989 
L 57.681818 67.727648 
L 58.700438 69.211918 
L 59.719058 71.890476 
L 60.737678 78.538582 
L 61.756298 87.015891 
L 62.774918 99.924362 
L 63.793538 112.710589 
L 64.812158 125.150625 
L 65.830778 136.753689 
L 66.849398 149.032945 
L 67.868018 158.521986 
L 68.886637 164.995854 
L 69.905257 169.445134 
L 70.923877 172.755688 
L 71.942497 175.658676 
L 72.961117 178.028305 
L 73.979737 180.757322 
L 74.998357 185.190037 
L 76.016977 188.105585 
L 77.035597 190.574512 
L 78.054217 192.940216 
L 79.072837 195.066362 
L 80.091457 196.787681 
L 81.110077 198.213515 
L 82.128697 200.307736 
L 83.147317 201.770578 
L 84.165936 202.937331 
L 85.184556 203.544804 
L 86.203176 204.663596 
L 87.221796 205.484247 
L 88.240416 206.245721 
L 89.259036 206.988586 
L 90.277656 208.051113 
L 91.296276 208.745322 
L 92.314896 209.314038 
L 93.333516 209.824177 
L 94.352136 210.237627 
L 95.370756 209.837918 
L 96.389376 210.10841 
L 97.407996 210.41034 
L 98.426616 210.719281 
L 99.445235 211.0248 
L 100.463855 212.106519 
L 101.482475 212.383007 
L 102.501095 212.644051 
L 103.519715 213.098252 
L 104.538335 213.429231 
L 105.556955 213.634082 
L 106.575575 213.812489 
L 107.594195 214.271724 
L 108.612815 214.221153 
L 109.631435 214.268753 
L 110.650055 214.4362 
L 111.668675 214.429694 
L 112.687295 214.31213 
L 113.705915 212.418015 
L 114.724535 211.864452 
L 115.743154 212.019433 
L 116.761774 212.327152 
L 117.780394 212.714751 
L 118.799014 214.905345 
L 119.817634 214.31927 
L 120.836254 214.44799 
L 121.854874 214.586323 
L 122.873494 214.490548 
L 123.892114 214.349197 
L 124.910734 214.724377 
L 125.929354 214.901105 
L 126.947974 215.025234 
L 127.966594 215.17751 
L 128.985214 210.16417 
L 130.003834 211.482642 
L 131.022453 211.566454 
L 132.041073 211.733841 
L 133.059693 211.761306 
L 134.078313 217.381217 
L 135.096933 217.382664 
L 136.115553 217.49884 
L 137.134173 217.735219 
L 138.152793 217.920784 
L 139.171413 217.941838 
L 140.190033 217.959867 
L 141.208653 218.077953 
L 142.227273 218.030039 
L 143.245893 218.129828 
L 144.264513 218.420247 
L 145.283133 218.752751 
L 146.301752 218.850785 
L 147.320372 218.955384 
L 148.338992 219.079554 
L 149.357612 219.016191 
L 150.376232 219.226196 
L 151.394852 219.343908 
L 152.413472 213.281812 
L 153.432092 213.402175 
L 154.450712 213.497718 
L 155.469332 213.478295 
L 156.487952 210.068757 
L 157.506572 216.32812 
L 158.525192 216.396269 
L 159.543812 216.490424 
L 160.562432 216.679447 
L 161.581051 220.275089 
L 162.599671 220.436955 
L 163.618291 220.528584 
L 164.636911 220.642453 
L 165.655531 220.659023 
L 166.674151 220.736608 
L 167.692771 220.774315 
L 168.711391 220.577352 
L 169.730011 220.79276 
L 170.748631 220.875534 
L 171.767251 220.630087 
L 172.785871 220.714884 
L 173.804491 219.76084 
L 174.823111 219.719035 
L 175.841731 219.807675 
L 176.86035 220.257463 
L 177.87897 220.369997 
L 178.89759 221.782251 
L 179.91621 217.235412 
L 180.93483 217.308626 
L 181.95345 217.390837 
L 182.97207 216.951588 
L 183.99069 216.698514 
L 185.00931 221.475048 
L 186.02793 221.695005 
L 187.04655 221.781486 
L 188.06517 222.379357 
L 189.08379 222.841504 
L 190.10241 215.900376 
L 191.12103 215.863647 
L 192.13965 215.959256 
L 193.158269 215.849746 
L 194.176889 214.417921 
L 195.195509 221.436925 
L 196.214129 221.529165 
L 197.232749 221.615949 
L 198.251369 221.873067 
L 199.269989 223.440929 
L 200.288609 223.612272 
L 201.307229 223.707768 
L 202.325849 223.696974 
L 203.344469 223.776558 
L 204.363089 223.869308 
L 205.381709 223.82398 
L 206.400329 223.906096 
L 207.418949 224.082753 
L 208.437568 224.190827 
L 209.456188 224.266265 
L 210.474808 222.987446 
L 211.493428 223.001306 
L 212.512048 219.283854 
L 213.530668 219.363497 
L 214.549288 215.254051 
L 215.567908 216.776295 
L 216.586528 216.916893 
L 217.605148 220.79292 
L 218.623768 220.901433 
L 219.642388 225.179678 
L 220.661008 225.266651 
L 221.679628 221.137521 
L 222.698248 221.234102 
L 223.716867 221.355782 
L 224.735487 221.4258 
L 225.754107 221.449564 
L 226.772727 225.777994 
L 227.791347 222.444986 
L 228.809967 222.45731 
L 229.828587 222.546477 
L 230.847207 222.661823 
L 231.865827 220.584118 
L 232.884447 224.052583 
L 233.903067 224.232959 
L 234.921687 224.328947 
L 235.940307 220.980708 
L 236.958927 223.183977 
L 237.977547 222.72467 
L 238.996166 216.310731 
L 240.014786 216.345479 
L 241.033406 219.894654 
L 242.052026 218.960555 
L 243.070646 219.584699 
L 244.089266 226.083412 
L 245.107886 222.874639 
L 246.126506 222.867006 
L 247.145126 223.948298 
L 248.163746 219.824192 
L 249.182366 219.862409 
L 250.200986 223.264587 
L 251.219606 223.409752 
L 252.238226 223.183947 
L 253.256846 227.544634 
L 254.275465 227.66772 
L 255.294085 227.74722 
L 256.312705 227.797999 
L 257.331325 226.168641 
L 258.349945 226.177353 
L 259.368565 221.95048 
L 260.387185 222.021963 
L 261.405805 222.200867 
L 262.424425 222.990489 
L 263.443045 223.065909 
L 264.461665 227.432189 
L 265.480285 222.639215 
L 266.498905 220.626582 
L 267.517525 221.177186 
L 268.536145 221.263056 
L 269.554765 221.354287 
L 270.573384 226.317869 
L 271.592004 228.423062 
L 272.610624 228.941592 
L 273.629244 227.927697 
L 274.647864 227.606776 
L 275.666484 224.614034 
L 276.685104 224.643011 
L 277.703724 225.118183 
L 278.722344 226.37937 
L 279.740964 226.792856 
L 280.759584 229.24755 
L 281.778204 229.368091 
L 282.796824 229.445427 
L 283.815444 229.41524 
L 284.834064 229.54113 
L 285.852683 225.026168 
L 286.871303 225.07757 
L 287.889923 224.942184 
L 288.908543 225.027515 
L 289.927163 225.075257 
L 290.945783 230.391737 
L 291.964403 230.48798 
L 292.983023 230.790693 
L 294.001643 230.826016 
L 295.020263 230.42384 
L 296.038883 230.394726 
L 297.057503 230.472228 
L 298.076123 230.535247 
L 299.094743 229.172954 
L 300.113363 225.941704 
L 301.131982 226.126628 
L 302.150602 226.212214 
L 303.169222 226.275844 
L 304.187842 227.61757 
L 305.206462 223.409432 
L 306.225082 223.511309 
L 307.243702 223.586189 
L 308.262322 223.66451 
L 309.280942 223.350054 
L 310.299562 231.322075 
L 311.318182 231.195675 
L 311.318182 192.037888 
L 311.318182 192.037888 
L 310.299562 191.993568 
L 309.280942 191.942392 
L 308.262322 189.442033 
L 307.243702 189.453218 
L 306.225082 189.94703 
L 305.206462 190.028701 
L 304.187842 189.849221 
L 303.169222 191.910331 
L 302.150602 191.426205 
L 301.131982 191.449815 
L 300.113363 191.386451 
L 299.094743 188.438403 
L 298.076123 188.430568 
L 297.057503 188.876128 
L 296.038883 188.854914 
L 295.020263 188.838403 
L 294.001643 191.411799 
L 292.983023 191.69592 
L 291.964403 191.562752 
L 290.945783 191.391735 
L 289.927163 191.230658 
L 288.908543 191.655075 
L 287.889923 191.650763 
L 286.871303 191.632746 
L 285.852683 191.332927 
L 284.834064 191.267233 
L 283.815444 191.267049 
L 282.796824 191.055686 
L 281.778204 191.073561 
L 280.759584 190.124297 
L 279.740964 190.137096 
L 278.722344 189.98313 
L 277.703724 190.140767 
L 276.685104 190.076864 
L 275.666484 190.405981 
L 274.647864 190.336147 
L 273.629244 190.278086 
L 272.610624 189.983147 
L 271.592004 190.003899 
L 270.573384 191.203662 
L 269.554765 190.6935 
L 268.536145 190.550132 
L 267.517525 190.334089 
L 266.498905 190.304857 
L 265.480285 190.372354 
L 264.461665 190.918355 
L 263.443045 190.932197 
L 262.424425 190.883856 
L 261.405805 191.023008 
L 260.387185 190.990875 
L 259.368565 190.580022 
L 258.349945 190.512151 
L 257.331325 190.622474 
L 256.312705 188.894104 
L 255.294085 188.869788 
L 254.275465 189.181688 
L 253.256846 189.133822 
L 252.238226 188.970432 
L 251.219606 190.103914 
L 250.200986 189.722732 
L 249.182366 189.739575 
L 248.163746 189.724018 
L 247.145126 189.697241 
L 246.126506 189.80993 
L 245.107886 190.713243 
L 244.089266 190.694775 
L 243.070646 189.435877 
L 242.052026 189.392067 
L 241.033406 189.402475 
L 240.014786 188.21911 
L 238.996166 188.211572 
L 237.977547 188.169844 
L 236.958927 188.241119 
L 235.940307 188.233694 
L 234.921687 190.257417 
L 233.903067 190.406307 
L 232.884447 186.481334 
L 231.865827 186.443491 
L 230.847207 186.833492 
L 229.828587 186.746151 
L 228.809967 186.715477 
L 227.791347 189.821744 
L 226.772727 189.782163 
L 225.754107 189.736829 
L 224.735487 189.595661 
L 223.716867 189.554152 
L 222.698248 189.677623 
L 221.679628 189.631109 
L 220.661008 189.624229 
L 219.642388 189.580342 
L 218.623768 189.538294 
L 217.605148 189.452767 
L 216.586528 189.180484 
L 215.567908 189.145713 
L 214.549288 189.296026 
L 213.530668 189.239198 
L 212.512048 189.308243 
L 211.493428 187.465725 
L 210.474808 187.231772 
L 209.456188 187.250531 
L 208.437568 187.19394 
L 207.418949 187.18199 
L 206.400329 189.012812 
L 205.381709 188.448491 
L 204.363089 187.990394 
L 203.344469 187.862624 
L 202.325849 187.677029 
L 201.307229 186.601585 
L 200.288609 187.119196 
L 199.269989 187.3912 
L 198.251369 187.406934 
L 197.232749 187.071098 
L 196.214129 186.881661 
L 195.195509 186.843236 
L 194.176889 186.768391 
L 193.158269 186.724029 
L 192.13965 188.098682 
L 191.12103 187.861088 
L 190.10241 187.767662 
L 189.08379 187.737095 
L 188.06517 185.833669 
L 187.04655 185.519445 
L 186.02793 186.943091 
L 185.00931 187.072895 
L 183.99069 187.263418 
L 182.97207 187.393329 
L 181.95345 186.867231 
L 180.93483 186.78556 
L 179.91621 186.737901 
L 178.89759 184.669158 
L 177.87897 186.646379 
L 176.86035 186.817675 
L 175.841731 186.444238 
L 174.823111 184.848579 
L 173.804491 186.292152 
L 172.785871 186.226481 
L 171.767251 186.301499 
L 170.748631 186.489287 
L 169.730011 186.414098 
L 168.711391 186.436232 
L 167.692771 186.366754 
L 166.674151 186.382571 
L 165.655531 186.469455 
L 164.636911 186.370994 
L 163.618291 186.276613 
L 162.599671 186.166374 
L 161.581051 185.437287 
L 160.562432 185.219756 
L 159.543812 182.425757 
L 158.525192 182.329615 
L 157.506572 178.622428 
L 156.487952 178.969301 
L 155.469332 178.878793 
L 154.450712 181.30126 
L 153.432092 181.2145 
L 152.413472 183.370388 
L 151.394852 183.207526 
L 150.376232 182.949394 
L 149.357612 183.046301 
L 148.338992 182.946363 
L 147.320372 184.213125 
L 146.301752 184.42619 
L 145.283133 184.474792 
L 144.264513 184.175554 
L 143.245893 184.075741 
L 142.227273 184.027803 
L 141.208653 183.960549 
L 140.190033 183.839427 
L 139.171413 182.797396 
L 138.152793 181.988939 
L 137.134173 179.144025 
L 136.115553 178.662223 
L 135.096933 178.605668 
L 134.078313 179.654193 
L 133.059693 180.235874 
L 132.041073 182.560792 
L 131.022453 182.144554 
L 130.003834 181.989983 
L 128.985214 181.838727 
L 127.966594 181.778916 
L 126.947974 181.41979 
L 125.929354 181.682092 
L 124.910734 182.055422 
L 123.892114 181.932924 
L 122.873494 181.742804 
L 121.854874 182.084844 
L 120.836254 181.955128 
L 119.817634 181.67045 
L 118.799014 181.527272 
L 117.780394 181.395901 
L 116.761774 180.417951 
L 115.743154 180.266434 
L 114.724535 179.77614 
L 113.705915 179.624475 
L 112.687295 179.662556 
L 111.668675 180.252171 
L 110.650055 180.009885 
L 109.631435 179.851163 
L 108.612815 179.692903 
L 107.594195 179.733937 
L 106.575575 179.723125 
L 105.556955 179.610075 
L 104.538335 179.052426 
L 103.519715 178.833216 
L 102.501095 178.023893 
L 101.482475 177.785195 
L 100.463855 177.564693 
L 99.445235 177.010614 
L 98.426616 176.788326 
L 97.407996 176.138443 
L 96.389376 174.685274 
L 95.370756 174.409403 
L 94.352136 173.621798 
L 93.333516 172.264682 
L 92.314896 170.977762 
L 91.296276 169.975626 
L 90.277656 168.932036 
L 89.259036 168.073986 
L 88.240416 166.100187 
L 87.221796 165.21679 
L 86.203176 163.93507 
L 85.184556 162.57235 
L 84.165936 160.92889 
L 83.147317 160.263937 
L 82.128697 158.661831 
L 81.110077 156.966791 
L 80.091457 155.171482 
L 79.072837 153.280629 
L 78.054217 151.199509 
L 77.035597 149.072936 
L 76.016977 146.65028 
L 74.998357 144.821082 
L 73.979737 142.297451 
L 72.961117 139.613774 
L 71.942497 135.599616 
L 70.923877 125.534387 
L 69.905257 113.887306 
L 68.886637 102.387441 
L 67.868018 91.993754 
L 66.849398 83.346952 
L 65.830778 77.736073 
L 64.812158 75.125006 
L 63.793538 73.639443 
L 62.774918 70.027771 
L 61.756298 69.034413 
L 60.737678 69.113735 
L 59.719058 67.012789 
L 58.700438 61.491392 
L 57.681818 55.943989 
z
" clip-path="url(#pb817fe9f60)" style="fill: #0000ff; fill-opacity: 0.3"/>
   </g>
   <g id="PolyCollection_3">
    <path d="M 57.681818 44.64 
L 57.681818 78.329745 
L 58.700438 75.120626 
L 59.719058 78.646443 
L 60.737678 83.841499 
L 61.756298 82.795568 
L 62.774918 81.810674 
L 63.793538 80.939247 
L 64.812158 80.497285 
L 65.830778 80.269253 
L 66.849398 79.192507 
L 67.868018 77.880444 
L 68.886637 76.334602 
L 69.905257 75.443311 
L 70.923877 74.210929 
L 71.942497 73.775603 
L 72.961117 72.787212 
L 73.979737 72.243194 
L 74.998357 71.221772 
L 76.016977 70.563432 
L 77.035597 69.377594 
L 78.054217 68.94169 
L 79.072837 68.182771 
L 80.091457 67.632589 
L 81.110077 67.128265 
L 82.128697 66.924955 
L 83.147317 66.778065 
L 84.165936 66.93515 
L 85.184556 66.673777 
L 86.203176 66.267131 
L 87.221796 65.911949 
L 88.240416 65.414796 
L 89.259036 64.870316 
L 90.277656 64.455352 
L 91.296276 64.422606 
L 92.314896 64.339126 
L 93.333516 63.878802 
L 94.352136 62.816325 
L 95.370756 62.354498 
L 96.389376 62.717321 
L 97.407996 63.40436 
L 98.426616 64.184531 
L 99.445235 64.556909 
L 100.463855 64.861686 
L 101.482475 64.948476 
L 102.501095 65.08857 
L 103.519715 64.794797 
L 104.538335 64.816646 
L 105.556955 64.676027 
L 106.575575 64.597528 
L 107.594195 64.539509 
L 108.612815 64.89889 
L 109.631435 65.474986 
L 110.650055 66.119404 
L 111.668675 66.732642 
L 112.687295 67.13999 
L 113.705915 67.454055 
L 114.724535 67.358049 
L 115.743154 67.363974 
L 116.761774 67.345932 
L 117.780394 67.357168 
L 118.799014 67.345852 
L 119.817634 67.609406 
L 120.836254 67.615828 
L 121.854874 67.611318 
L 122.873494 67.584337 
L 123.892114 67.506274 
L 124.910734 67.3586 
L 125.929354 67.205891 
L 126.947974 66.162167 
L 127.966594 66.004921 
L 128.985214 65.893383 
L 130.003834 65.81307 
L 131.022453 65.72169 
L 132.041073 66.521673 
L 133.059693 66.457079 
L 134.078313 66.366242 
L 135.096933 66.287681 
L 136.115553 66.246697 
L 137.134173 66.21823 
L 138.152793 65.316842 
L 139.171413 65.274346 
L 140.190033 64.823549 
L 141.208653 64.750976 
L 142.227273 63.437053 
L 143.245893 64.215009 
L 144.264513 63.636466 
L 145.283133 63.458528 
L 146.301752 61.616983 
L 147.320372 61.228761 
L 148.338992 59.549301 
L 149.357612 58.338332 
L 150.376232 56.796592 
L 151.394852 56.647406 
L 152.413472 56.335165 
L 153.432092 56.1547 
L 154.450712 56.116074 
L 155.469332 56.129818 
L 156.487952 56.118992 
L 157.506572 56.177163 
L 158.525192 56.216038 
L 159.543812 56.213547 
L 160.562432 56.204091 
L 161.581051 56.188879 
L 162.599671 56.166523 
L 163.618291 56.157725 
L 164.636911 56.146445 
L 165.655531 56.109704 
L 166.674151 56.03963 
L 167.692771 56.09539 
L 168.711391 56.251729 
L 169.730011 56.347539 
L 170.748631 56.561257 
L 171.767251 56.597864 
L 172.785871 56.604607 
L 173.804491 56.581273 
L 174.823111 56.580614 
L 175.841731 56.557769 
L 176.86035 56.551862 
L 177.87897 56.454851 
L 178.89759 56.394074 
L 179.91621 56.368791 
L 180.93483 56.357209 
L 181.95345 56.333456 
L 182.97207 56.369361 
L 183.99069 56.38137 
L 185.00931 56.343598 
L 186.02793 56.301858 
L 187.04655 56.288425 
L 188.06517 56.308041 
L 189.08379 56.284297 
L 190.10241 56.405078 
L 191.12103 56.495453 
L 192.13965 56.546845 
L 193.158269 56.61369 
L 194.176889 56.651142 
L 195.195509 56.602579 
L 196.214129 56.562858 
L 197.232749 56.630779 
L 198.251369 57.040787 
L 199.269989 57.405853 
L 200.288609 57.779414 
L 201.307229 58.172208 
L 202.325849 58.097508 
L 203.344469 58.051996 
L 204.363089 58.038021 
L 205.381709 58.006271 
L 206.400329 57.986833 
L 207.418949 57.969352 
L 208.437568 57.94657 
L 209.456188 57.96462 
L 210.474808 57.939711 
L 211.493428 57.947824 
L 212.512048 57.924766 
L 213.530668 57.88968 
L 214.549288 57.812907 
L 215.567908 57.802392 
L 216.586528 57.73593 
L 217.605148 57.723831 
L 218.623768 57.700595 
L 219.642388 57.690854 
L 220.661008 57.675562 
L 221.679628 57.707534 
L 222.698248 57.686851 
L 223.716867 57.673284 
L 224.735487 57.659629 
L 225.754107 57.600141 
L 226.772727 57.394208 
L 227.791347 57.833786 
L 228.809967 57.46228 
L 229.828587 56.698015 
L 230.847207 56.667769 
L 231.865827 56.656515 
L 232.884447 56.629258 
L 233.903067 56.662769 
L 234.921687 56.712542 
L 235.940307 56.735405 
L 236.958927 56.771621 
L 237.977547 56.791094 
L 238.996166 56.785267 
L 240.014786 56.806004 
L 241.033406 56.764237 
L 242.052026 56.750279 
L 243.070646 56.817604 
L 244.089266 56.948455 
L 245.107886 57.228653 
L 246.126506 56.717791 
L 247.145126 56.486041 
L 248.163746 56.689163 
L 249.182366 56.917453 
L 250.200986 56.998237 
L 251.219606 56.990872 
L 252.238226 56.950795 
L 253.256846 57.008023 
L 254.275465 56.987109 
L 255.294085 56.940627 
L 256.312705 56.763196 
L 257.331325 56.583123 
L 258.349945 56.670775 
L 259.368565 56.364637 
L 260.387185 56.018484 
L 261.405805 55.794901 
L 262.424425 55.467288 
L 263.443045 55.441231 
L 264.461665 55.364058 
L 265.480285 55.328581 
L 266.498905 55.316207 
L 267.517525 55.340635 
L 268.536145 55.368195 
L 269.554765 55.428812 
L 270.573384 55.475508 
L 271.592004 55.484768 
L 272.610624 55.591592 
L 273.629244 55.665544 
L 274.647864 55.709295 
L 275.666484 55.745315 
L 276.685104 55.715184 
L 277.703724 55.88492 
L 278.722344 56.074574 
L 279.740964 56.187686 
L 280.759584 56.302 
L 281.778204 56.186877 
L 282.796824 56.113467 
L 283.815444 56.041365 
L 284.834064 55.964423 
L 285.852683 55.873141 
L 286.871303 55.808147 
L 287.889923 55.823075 
L 288.908543 55.814348 
L 289.927163 55.855002 
L 290.945783 55.97871 
L 291.964403 56.122301 
L 292.983023 56.215656 
L 294.001643 56.341498 
L 295.020263 56.202098 
L 296.038883 55.988149 
L 297.057503 55.705745 
L 298.076123 55.730334 
L 299.094743 55.862822 
L 300.113363 55.965144 
L 301.131982 56.021731 
L 302.150602 56.01385 
L 303.169222 56.013627 
L 304.187842 56.01497 
L 305.206462 55.973302 
L 306.225082 56.081868 
L 307.243702 56.205532 
L 308.262322 56.277999 
L 309.280942 56.339426 
L 310.299562 56.423093 
L 311.318182 56.466256 
L 311.318182 55.011679 
L 311.318182 55.011679 
L 310.299562 54.990542 
L 309.280942 54.926152 
L 308.262322 54.911803 
L 307.243702 54.871824 
L 306.225082 54.872154 
L 305.206462 54.894705 
L 304.187842 54.933865 
L 303.169222 54.975258 
L 302.150602 54.97355 
L 301.131982 54.972928 
L 300.113363 54.894403 
L 299.094743 54.780978 
L 298.076123 54.635653 
L 297.057503 54.519489 
L 296.038883 54.409116 
L 295.020263 54.37927 
L 294.001643 54.435013 
L 292.983023 54.362999 
L 291.964403 54.350171 
L 290.945783 54.399633 
L 289.927163 54.464699 
L 288.908543 54.406439 
L 287.889923 54.429666 
L 286.871303 54.346239 
L 285.852683 54.388068 
L 284.834064 54.500087 
L 283.815444 54.579235 
L 282.796824 54.586645 
L 281.778204 54.58064 
L 280.759584 54.566976 
L 279.740964 54.566709 
L 278.722344 54.534221 
L 277.703724 54.871131 
L 276.685104 54.85921 
L 275.666484 54.801662 
L 274.647864 54.775125 
L 273.629244 54.754193 
L 272.610624 54.380124 
L 271.592004 54.352057 
L 270.573384 54.372403 
L 269.554765 54.355571 
L 268.536145 54.348259 
L 267.517525 54.32528 
L 266.498905 54.297721 
L 265.480285 54.277544 
L 264.461665 53.969298 
L 263.443045 53.601866 
L 262.424425 53.340599 
L 261.405805 53.060366 
L 260.387185 53.203485 
L 259.368565 53.867029 
L 258.349945 54.235609 
L 257.331325 54.266673 
L 256.312705 54.608867 
L 255.294085 54.576824 
L 254.275465 54.654237 
L 253.256846 54.622425 
L 252.238226 54.671575 
L 251.219606 54.303343 
L 250.200986 54.441836 
L 249.182366 54.956915 
L 248.163746 54.974716 
L 247.145126 54.981512 
L 246.126506 54.983799 
L 245.107886 54.98846 
L 244.089266 54.996618 
L 243.070646 55.029124 
L 242.052026 55.031099 
L 241.033406 55.028955 
L 240.014786 55.025174 
L 238.996166 55.018199 
L 237.977547 55.010077 
L 236.958927 55.006279 
L 235.940307 54.995052 
L 234.921687 54.989332 
L 233.903067 54.984484 
L 232.884447 54.970143 
L 231.865827 54.902578 
L 230.847207 54.917363 
L 229.828587 54.934888 
L 228.809967 54.919641 
L 227.791347 54.947476 
L 226.772727 54.944985 
L 225.754107 54.937103 
L 224.735487 54.896377 
L 223.716867 54.891102 
L 222.698248 54.684421 
L 221.679628 54.734185 
L 220.661008 54.566478 
L 219.642388 54.600078 
L 218.623768 54.629204 
L 217.605148 54.615975 
L 216.586528 54.645492 
L 215.567908 54.620005 
L 214.549288 54.626339 
L 213.530668 54.613262 
L 212.512048 54.588166 
L 211.493428 54.514027 
L 210.474808 54.488051 
L 209.456188 54.494367 
L 208.437568 54.49885 
L 207.418949 54.459459 
L 206.400329 54.432904 
L 205.381709 54.398868 
L 204.363089 54.338082 
L 203.344469 54.31819 
L 202.325849 54.363649 
L 201.307229 54.354708 
L 200.288609 54.359067 
L 199.269989 54.377438 
L 198.251369 54.421046 
L 197.232749 54.485417 
L 196.214129 54.585969 
L 195.195509 54.561879 
L 194.176889 54.587179 
L 193.158269 54.694331 
L 192.13965 54.819694 
L 191.12103 54.973524 
L 190.10241 54.980391 
L 189.08379 55.006234 
L 188.06517 54.977064 
L 187.04655 54.995079 
L 186.02793 54.958151 
L 185.00931 54.924427 
L 183.99069 54.898966 
L 182.97207 54.899918 
L 181.95345 54.925405 
L 180.93483 54.93818 
L 179.91621 54.913396 
L 178.89759 54.848054 
L 177.87897 54.795194 
L 176.86035 54.709019 
L 175.841731 54.738313 
L 174.823111 54.72794 
L 173.804491 54.709161 
L 172.785871 54.700683 
L 171.767251 54.761256 
L 170.748631 54.784128 
L 169.730011 54.916002 
L 168.711391 55.032905 
L 167.692771 55.062493 
L 166.674151 55.013671 
L 165.655531 55.041543 
L 164.636911 54.949086 
L 163.618291 54.841551 
L 162.599671 54.697934 
L 161.581051 54.553072 
L 160.562432 54.425111 
L 159.543812 54.332344 
L 158.525192 54.279075 
L 157.506572 54.295167 
L 156.487952 54.453659 
L 155.469332 54.5696 
L 154.450712 54.757609 
L 153.432092 54.863329 
L 152.413472 54.749149 
L 151.394852 54.645768 
L 150.376232 54.533073 
L 149.357612 54.551835 
L 148.338992 54.782393 
L 147.320372 55.006795 
L 146.301752 55.010424 
L 145.283133 55.010406 
L 144.264513 54.974031 
L 143.245893 54.899046 
L 142.227273 54.78354 
L 141.208653 54.682678 
L 140.190033 54.770214 
L 139.171413 54.761888 
L 138.152793 54.792881 
L 137.134173 54.904953 
L 136.115553 54.960206 
L 135.096933 54.730929 
L 134.078313 54.786316 
L 133.059693 54.890693 
L 132.041073 54.901075 
L 131.022453 54.898575 
L 130.003834 54.716331 
L 128.985214 54.698708 
L 127.966594 54.760144 
L 126.947974 54.8555 
L 125.929354 54.979119 
L 124.910734 54.988585 
L 123.892114 55.023421 
L 122.873494 55.042859 
L 121.854874 55.04269 
L 120.836254 55.046071 
L 119.817634 55.045234 
L 118.799014 55.017532 
L 117.780394 55.017719 
L 116.761774 55.017933 
L 115.743154 55.014668 
L 114.724535 55.014899 
L 113.705915 55.016055 
L 112.687295 55.015904 
L 111.668675 55.000754 
L 110.650055 55.000932 
L 109.631435 55.000719 
L 108.612815 55.000203 
L 107.594195 55.000648 
L 106.575575 55.019463 
L 105.556955 54.9995 
L 104.538335 54.849202 
L 103.519715 54.752111 
L 102.501095 54.525805 
L 101.482475 54.37258 
L 100.463855 54.24607 
L 99.445235 54.076673 
L 98.426616 54.10772 
L 97.407996 54.188842 
L 96.389376 54.218164 
L 95.370756 54.307382 
L 94.352136 54.448597 
L 93.333516 54.546942 
L 92.314896 54.583692 
L 91.296276 54.555705 
L 90.277656 54.623902 
L 89.259036 54.555242 
L 88.240416 54.578487 
L 87.221796 54.635031 
L 86.203176 54.752609 
L 85.184556 54.778345 
L 84.165936 54.495781 
L 83.147317 54.514445 
L 82.128697 54.540288 
L 81.110077 54.546666 
L 80.091457 54.932397 
L 79.072837 55.436561 
L 78.054217 55.860109 
L 77.035597 56.106012 
L 76.016977 56.054576 
L 74.998357 55.975276 
L 73.979737 56.013974 
L 72.961117 55.913974 
L 71.942497 56.033216 
L 70.923877 56.337851 
L 69.905257 56.434026 
L 68.886637 56.252307 
L 67.868018 56.335503 
L 66.849398 56.210015 
L 65.830778 56.337042 
L 64.812158 56.224471 
L 63.793538 57.073907 
L 62.774918 58.501921 
L 61.756298 58.506645 
L 60.737678 60.946064 
L 59.719058 63.722962 
L 58.700438 57.518867 
L 57.681818 44.64 
z
" clip-path="url(#pb817fe9f60)" style="fill: #008000; fill-opacity: 0.3"/>
   </g>
   <g id="PolyCollection_4">
    <path d="M 57.681818 56.803575 
L 57.681818 80.175311 
L 58.700438 89.388154 
L 59.719058 100.096642 
L 60.737678 111.138119 
L 61.756298 118.399883 
L 62.774918 121.956205 
L 63.793538 125.256778 
L 64.812158 128.349268 
L 65.830778 132.368064 
L 66.849398 137.075873 
L 67.868018 141.979697 
L 68.886637 143.950222 
L 69.905257 147.550965 
L 70.923877 149.70492 
L 71.942497 152.060897 
L 72.961117 154.44845 
L 73.979737 159.31889 
L 74.998357 161.665966 
L 76.016977 164.814542 
L 77.035597 167.339792 
L 78.054217 169.778758 
L 79.072837 171.920098 
L 80.091457 173.94034 
L 81.110077 175.798408 
L 82.128697 176.768304 
L 83.147317 178.431289 
L 84.165936 178.249668 
L 85.184556 173.854357 
L 86.203176 169.015 
L 87.221796 169.803548 
L 88.240416 169.361743 
L 89.259036 170.810167 
L 90.277656 176.523006 
L 91.296276 180.066043 
L 92.314896 180.987112 
L 93.333516 181.715446 
L 94.352136 182.299048 
L 95.370756 182.80255 
L 96.389376 185.478096 
L 97.407996 185.664983 
L 98.426616 185.209899 
L 99.445235 185.052333 
L 100.463855 183.699582 
L 101.482475 184.35198 
L 102.501095 184.908449 
L 103.519715 186.744265 
L 104.538335 186.893237 
L 105.556955 188.985312 
L 106.575575 189.572324 
L 107.594195 190.285938 
L 108.612815 190.779061 
L 109.631435 192.456095 
L 110.650055 193.330371 
L 111.668675 193.490328 
L 112.687295 193.906536 
L 113.705915 194.398853 
L 114.724535 195.258807 
L 115.743154 195.860473 
L 116.761774 196.619783 
L 117.780394 197.207056 
L 118.799014 197.706377 
L 119.817634 198.132894 
L 120.836254 198.651768 
L 121.854874 199.48705 
L 122.873494 200.258974 
L 123.892114 201.174771 
L 124.910734 202.213831 
L 125.929354 203.232163 
L 126.947974 204.156168 
L 127.966594 204.928982 
L 128.985214 205.581178 
L 130.003834 206.102757 
L 131.022453 206.589422 
L 132.041073 207.02153 
L 133.059693 207.46725 
L 134.078313 207.735886 
L 135.096933 208.177774 
L 136.115553 208.554651 
L 137.134173 208.977727 
L 138.152793 209.446701 
L 139.171413 210.043173 
L 140.190033 210.286182 
L 141.208653 210.276669 
L 142.227273 209.831863 
L 143.245893 209.602369 
L 144.264513 206.146104 
L 145.283133 205.428629 
L 146.301752 204.934527 
L 147.320372 204.852986 
L 148.338992 204.394136 
L 149.357612 206.78482 
L 150.376232 206.221999 
L 151.394852 206.370343 
L 152.413472 206.449286 
L 153.432092 206.598187 
L 154.450712 206.768042 
L 155.469332 207.316576 
L 156.487952 207.575989 
L 157.506572 207.966198 
L 158.525192 207.964033 
L 159.543812 208.703647 
L 160.562432 208.711351 
L 161.581051 208.988729 
L 162.599671 208.018838 
L 163.618291 208.032431 
L 164.636911 208.178344 
L 165.655531 208.269433 
L 166.674151 208.111487 
L 167.692771 209.409397 
L 168.711391 208.774465 
L 169.730011 207.6849 
L 170.748631 207.993176 
L 171.767251 208.07056 
L 172.785871 208.179743 
L 173.804491 209.789405 
L 174.823111 209.2654 
L 175.841731 209.787697 
L 176.86035 210.351224 
L 177.87897 210.586019 
L 178.89759 210.088038 
L 179.91621 212.250687 
L 180.93483 212.667543 
L 181.95345 212.619018 
L 182.97207 212.695933 
L 183.99069 213.359433 
L 185.00931 212.2392 
L 186.02793 211.589489 
L 187.04655 209.665223 
L 188.06517 209.537559 
L 189.08379 209.593236 
L 190.10241 210.519406 
L 191.12103 211.129862 
L 192.13965 213.312165 
L 193.158269 213.419107 
L 194.176889 213.564017 
L 195.195509 213.973945 
L 196.214129 214.15094 
L 197.232749 214.276427 
L 198.251369 214.496764 
L 199.269989 214.545941 
L 200.288609 214.680846 
L 201.307229 214.753099 
L 202.325849 214.847207 
L 203.344469 215.058754 
L 204.363089 215.254644 
L 205.381709 215.400972 
L 206.400329 215.620543 
L 207.418949 215.852326 
L 208.437568 215.752044 
L 209.456188 215.77904 
L 210.474808 214.386477 
L 211.493428 214.502706 
L 212.512048 214.600206 
L 213.530668 214.91815 
L 214.549288 215.156136 
L 215.567908 216.789212 
L 216.586528 216.008735 
L 217.605148 216.113317 
L 218.623768 216.191133 
L 219.642388 216.177018 
L 220.661008 216.288995 
L 221.679628 216.109307 
L 222.698248 216.129584 
L 223.716867 216.301509 
L 224.735487 216.539572 
L 225.754107 216.419286 
L 226.772727 217.541173 
L 227.791347 215.116412 
L 228.809967 214.334595 
L 229.828587 214.43458 
L 230.847207 214.753407 
L 231.865827 215.060806 
L 232.884447 217.777534 
L 233.903067 218.739994 
L 234.921687 218.814542 
L 235.940307 218.882893 
L 236.958927 218.976746 
L 237.977547 219.068962 
L 238.996166 219.175447 
L 240.014786 219.268464 
L 241.033406 219.378389 
L 242.052026 219.401572 
L 243.070646 219.488605 
L 244.089266 219.577707 
L 245.107886 219.613511 
L 246.126506 219.332794 
L 247.145126 219.489737 
L 248.163746 219.465267 
L 249.182366 219.554488 
L 250.200986 218.669229 
L 251.219606 218.948688 
L 252.238226 219.033099 
L 253.256846 219.224915 
L 254.275465 219.264366 
L 255.294085 220.303218 
L 256.312705 220.576343 
L 257.331325 220.656781 
L 258.349945 220.727439 
L 259.368565 220.851657 
L 260.387185 220.977654 
L 261.405805 221.055429 
L 262.424425 221.123134 
L 263.443045 221.195772 
L 264.461665 221.276886 
L 265.480285 221.292348 
L 266.498905 221.343179 
L 267.517525 221.286826 
L 268.536145 221.382458 
L 269.554765 221.422484 
L 270.573384 219.094369 
L 271.592004 218.711105 
L 272.610624 218.892222 
L 273.629244 218.975269 
L 274.647864 219.074869 
L 275.666484 221.660411 
L 276.685104 222.038195 
L 277.703724 221.912921 
L 278.722344 220.69638 
L 279.740964 220.78282 
L 280.759584 220.82469 
L 281.778204 220.87309 
L 282.796824 220.833195 
L 283.815444 221.855945 
L 284.834064 220.839256 
L 285.852683 218.466957 
L 286.871303 217.448115 
L 287.889923 216.427417 
L 288.908543 216.553645 
L 289.927163 216.395083 
L 290.945783 217.902618 
L 291.964403 218.003778 
L 292.983023 219.17849 
L 294.001643 217.509907 
L 295.020263 217.633971 
L 296.038883 218.247861 
L 297.057503 218.023177 
L 298.076123 217.998494 
L 299.094743 219.839558 
L 300.113363 220.893207 
L 301.131982 221.220248 
L 302.150602 222.625118 
L 303.169222 222.162294 
L 304.187842 222.21924 
L 305.206462 222.223718 
L 306.225082 221.727783 
L 307.243702 221.892674 
L 308.262322 222.783894 
L 309.280942 221.924124 
L 310.299562 220.323104 
L 311.318182 219.167097 
L 311.318182 178.672359 
L 311.318182 178.672359 
L 310.299562 178.093418 
L 309.280942 178.164954 
L 308.262322 181.079043 
L 307.243702 180.825371 
L 306.225082 181.759831 
L 305.206462 184.369291 
L 304.187842 180.598095 
L 303.169222 180.011961 
L 302.150602 182.928168 
L 301.131982 178.252372 
L 300.113363 176.125674 
L 299.094743 179.232665 
L 298.076123 177.689136 
L 297.057503 174.753536 
L 296.038883 177.288347 
L 295.020263 175.717929 
L 294.001643 173.003958 
L 292.983023 170.751003 
L 291.964403 169.297644 
L 290.945783 164.725819 
L 289.927163 161.206249 
L 288.908543 163.315618 
L 287.889923 167.972097 
L 286.871303 172.444548 
L 285.852683 179.956901 
L 284.834064 181.384206 
L 283.815444 181.377558 
L 282.796824 181.334691 
L 281.778204 181.919497 
L 280.759584 181.803149 
L 279.740964 181.230412 
L 278.722344 181.072348 
L 277.703724 180.697458 
L 276.685104 180.480893 
L 275.666484 180.969207 
L 274.647864 180.383405 
L 273.629244 180.069738 
L 272.610624 180.585493 
L 271.592004 180.315232 
L 270.573384 179.032356 
L 269.554765 179.882382 
L 268.536145 178.509336 
L 267.517525 178.653096 
L 266.498905 180.312789 
L 265.480285 180.729988 
L 264.461665 182.481659 
L 263.443045 182.425187 
L 262.424425 183.139033 
L 261.405805 183.076689 
L 260.387185 183.232803 
L 259.368565 183.164351 
L 258.349945 182.906616 
L 257.331325 176.164105 
L 256.312705 170.098445 
L 255.294085 165.109527 
L 254.275465 160.938883 
L 253.256846 156.513457 
L 252.238226 158.085233 
L 251.219606 159.702865 
L 250.200986 161.257657 
L 249.182366 161.855124 
L 248.163746 165.138961 
L 247.145126 163.151302 
L 246.126506 164.539614 
L 245.107886 162.043026 
L 244.089266 167.354139 
L 243.070646 171.06773 
L 242.052026 178.059679 
L 241.033406 179.938628 
L 240.014786 179.993742 
L 238.996166 179.616658 
L 237.977547 179.545834 
L 236.958927 178.567985 
L 235.940307 178.27664 
L 234.921687 177.545673 
L 233.903067 176.081853 
L 232.884447 175.992946 
L 231.865827 173.92208 
L 230.847207 172.491916 
L 229.828587 172.675672 
L 228.809967 173.485529 
L 227.791347 173.209865 
L 226.772727 175.35442 
L 225.754107 176.299271 
L 224.735487 175.91787 
L 223.716867 175.686828 
L 222.698248 175.410115 
L 221.679628 174.924126 
L 220.661008 174.092741 
L 219.642388 173.882724 
L 218.623768 173.478774 
L 217.605148 172.968837 
L 216.586528 172.059831 
L 215.567908 172.121041 
L 214.549288 171.303895 
L 213.530668 170.677332 
L 212.512048 170.016471 
L 211.493428 169.969168 
L 210.474808 169.170188 
L 209.456188 168.6251 
L 208.437568 167.79375 
L 207.418949 167.338808 
L 206.400329 165.62654 
L 205.381709 164.12761 
L 204.363089 160.847533 
L 203.344469 157.33594 
L 202.325849 154.931248 
L 201.307229 152.059516 
L 200.288609 151.100971 
L 199.269989 155.187311 
L 198.251369 158.322988 
L 197.232749 160.601647 
L 196.214129 165.483806 
L 195.195509 167.233616 
L 194.176889 165.968568 
L 193.158269 167.144033 
L 192.13965 163.288722 
L 191.12103 163.085324 
L 190.10241 159.129945 
L 189.08379 160.126144 
L 188.06517 160.287126 
L 187.04655 161.576887 
L 186.02793 161.564023 
L 185.00931 166.870996 
L 183.99069 166.916372 
L 182.97207 166.982724 
L 181.95345 170.468477 
L 180.93483 170.511451 
L 179.91621 170.447678 
L 178.89759 169.145481 
L 177.87897 169.204159 
L 176.86035 169.237726 
L 175.841731 169.267747 
L 174.823111 168.897964 
L 173.804491 162.341819 
L 172.785871 159.733503 
L 171.767251 152.8669 
L 170.748631 157.10465 
L 169.730011 161.201867 
L 168.711391 168.365556 
L 167.692771 165.954506 
L 166.674151 163.718939 
L 165.655531 162.001493 
L 164.636911 160.687381 
L 163.618291 158.656493 
L 162.599671 157.985444 
L 161.581051 157.410014 
L 160.562432 155.988711 
L 159.543812 153.836974 
L 158.525192 155.537487 
L 157.506572 157.450343 
L 156.487952 158.466967 
L 155.469332 161.10713 
L 154.450712 163.173264 
L 153.432092 164.647279 
L 152.413472 157.040907 
L 151.394852 159.197554 
L 150.376232 160.261594 
L 149.357612 162.404904 
L 148.338992 162.552809 
L 147.320372 169.140635 
L 146.301752 169.579398 
L 145.283133 169.907068 
L 144.264513 170.072379 
L 143.245893 169.781492 
L 142.227273 172.485315 
L 141.208653 170.77259 
L 140.190033 169.499809 
L 139.171413 167.897892 
L 138.152793 167.588554 
L 137.134173 166.824304 
L 136.115553 165.539359 
L 135.096933 165.408985 
L 134.078313 163.107979 
L 133.059693 160.659175 
L 132.041073 160.885264 
L 131.022453 161.262852 
L 130.003834 156.563867 
L 128.985214 157.248753 
L 127.966594 149.765953 
L 126.947974 145.346653 
L 125.929354 141.088863 
L 124.910734 135.669539 
L 123.892114 133.144834 
L 122.873494 134.616151 
L 121.854874 131.614187 
L 120.836254 133.202468 
L 119.817634 142.54221 
L 118.799014 150.376681 
L 117.780394 156.306114 
L 116.761774 153.090124 
L 115.743154 153.046463 
L 114.724535 151.346091 
L 113.705915 154.442098 
L 112.687295 152.778841 
L 111.668675 153.202499 
L 110.650055 149.879525 
L 109.631435 146.470841 
L 108.612815 141.634117 
L 107.594195 143.771033 
L 106.575575 138.51829 
L 105.556955 138.940554 
L 104.538335 134.28242 
L 103.519715 136.574014 
L 102.501095 136.633582 
L 101.482475 134.74245 
L 100.463855 133.178763 
L 99.445235 129.07013 
L 98.426616 127.678165 
L 97.407996 126.91675 
L 96.389376 125.305019 
L 95.370756 121.85829 
L 94.352136 121.127826 
L 93.333516 118.242021 
L 92.314896 115.580364 
L 91.296276 113.719308 
L 90.277656 113.669116 
L 89.259036 113.263363 
L 88.240416 114.295235 
L 87.221796 114.906361 
L 86.203176 114.044901 
L 85.184556 117.247382 
L 84.165936 120.892835 
L 83.147317 122.588237 
L 82.128697 124.667133 
L 81.110077 123.436673 
L 80.091457 117.999895 
L 79.072837 117.53681 
L 78.054217 117.200571 
L 77.035597 116.900153 
L 76.016977 117.452535 
L 74.998357 122.146823 
L 73.979737 121.05428 
L 72.961117 119.995881 
L 71.942497 118.977448 
L 70.923877 114.733802 
L 69.905257 113.630454 
L 68.886637 111.693947 
L 67.868018 107.207364 
L 66.849398 100.954383 
L 65.830778 99.965556 
L 64.812158 94.340373 
L 63.793538 89.697878 
L 62.774918 87.722205 
L 61.756298 87.424645 
L 60.737678 87.055502 
L 59.719058 78.62103 
L 58.700438 67.321397 
L 57.681818 56.803575 
z
" clip-path="url(#pb817fe9f60)" style="fill: #ffa500; fill-opacity: 0.3"/>
   </g>
   <g id="matplotlib.axis_1">
    <g id="xtick_1">
     <g id="line2d_1">
      <defs>
       <path id="mcedd8f11f6" d="M 0 0 
L 0 3.5 
" style="stroke: #000000; stroke-width: 0.8"/>
      </defs>
      <g>
       <use xlink:href="#mcedd8f11f6" x="57.681818" y="256.32" style="stroke: #000000; stroke-width: 0.8"/>
      </g>
     </g>
     <g id="text_1">
      <!-- 0 -->
      <g transform="translate(55.181818 270.26375)scale(0.1 -0.1)">
       <defs>
        <path id="TimesNewRomanPSMT-30" d="M 231 2094 
Q 231 2819 450 3342 
Q 669 3866 1031 4122 
Q 1313 4325 1613 4325 
Q 2100 4325 2488 3828 
Q 2972 3213 2972 2159 
Q 2972 1422 2759 906 
Q 2547 391 2217 158 
Q 1888 -75 1581 -75 
Q 975 -75 572 641 
Q 231 1244 231 2094 
z
M 844 2016 
Q 844 1141 1059 588 
Q 1238 122 1591 122 
Q 1759 122 1940 273 
Q 2122 425 2216 781 
Q 2359 1319 2359 2297 
Q 2359 3022 2209 3506 
Q 2097 3866 1919 4016 
Q 1791 4119 1609 4119 
Q 1397 4119 1231 3928 
Q 1006 3669 925 3112 
Q 844 2556 844 2016 
z
" transform="scale(0.015625)"/>
       </defs>
       <use xlink:href="#TimesNewRomanPSMT-30"/>
      </g>
     </g>
    </g>
    <g id="xtick_2">
     <g id="line2d_2">
      <g>
       <use xlink:href="#mcedd8f11f6" x="108.612815" y="256.32" style="stroke: #000000; stroke-width: 0.8"/>
      </g>
     </g>
     <g id="text_2">
      <!-- 50 -->
      <g transform="translate(103.612815 270.26375)scale(0.1 -0.1)">
       <defs>
        <path id="TimesNewRomanPSMT-35" d="M 2778 4238 
L 2534 3706 
L 1259 3706 
L 981 3138 
Q 1809 3016 2294 2522 
Q 2709 2097 2709 1522 
Q 2709 1188 2573 903 
Q 2438 619 2231 419 
Q 2025 219 1772 97 
Q 1413 -75 1034 -75 
Q 653 -75 479 54 
Q 306 184 306 341 
Q 306 428 378 495 
Q 450 563 559 563 
Q 641 563 702 538 
Q 763 513 909 409 
Q 1144 247 1384 247 
Q 1750 247 2026 523 
Q 2303 800 2303 1197 
Q 2303 1581 2056 1914 
Q 1809 2247 1375 2428 
Q 1034 2569 447 2591 
L 1259 4238 
L 2778 4238 
z
" transform="scale(0.015625)"/>
       </defs>
       <use xlink:href="#TimesNewRomanPSMT-35"/>
       <use xlink:href="#TimesNewRomanPSMT-30" x="50"/>
      </g>
     </g>
    </g>
    <g id="xtick_3">
     <g id="line2d_3">
      <g>
       <use xlink:href="#mcedd8f11f6" x="159.543812" y="256.32" style="stroke: #000000; stroke-width: 0.8"/>
      </g>
     </g>
     <g id="text_3">
      <!-- 100 -->
      <g transform="translate(152.043812 270.26375)scale(0.1 -0.1)">
       <defs>
        <path id="TimesNewRomanPSMT-31" d="M 750 3822 
L 1781 4325 
L 1884 4325 
L 1884 747 
Q 1884 391 1914 303 
Q 1944 216 2037 169 
Q 2131 122 2419 116 
L 2419 0 
L 825 0 
L 825 116 
Q 1125 122 1212 167 
Q 1300 213 1334 289 
Q 1369 366 1369 747 
L 1369 3034 
Q 1369 3497 1338 3628 
Q 1316 3728 1258 3775 
Q 1200 3822 1119 3822 
Q 1003 3822 797 3725 
L 750 3822 
z
" transform="scale(0.015625)"/>
       </defs>
       <use xlink:href="#TimesNewRomanPSMT-31"/>
       <use xlink:href="#TimesNewRomanPSMT-30" x="50"/>
       <use xlink:href="#TimesNewRomanPSMT-30" x="100"/>
      </g>
     </g>
    </g>
    <g id="xtick_4">
     <g id="line2d_4">
      <g>
       <use xlink:href="#mcedd8f11f6" x="210.474808" y="256.32" style="stroke: #000000; stroke-width: 0.8"/>
      </g>
     </g>
     <g id="text_4">
      <!-- 150 -->
      <g transform="translate(202.974808 270.26375)scale(0.1 -0.1)">
       <use xlink:href="#TimesNewRomanPSMT-31"/>
       <use xlink:href="#TimesNewRomanPSMT-35" x="50"/>
       <use xlink:href="#TimesNewRomanPSMT-30" x="100"/>
      </g>
     </g>
    </g>
    <g id="xtick_5">
     <g id="line2d_5">
      <g>
       <use xlink:href="#mcedd8f11f6" x="261.405805" y="256.32" style="stroke: #000000; stroke-width: 0.8"/>
      </g>
     </g>
     <g id="text_5">
      <!-- 200 -->
      <g transform="translate(253.905805 270.26375)scale(0.1 -0.1)">
       <defs>
        <path id="TimesNewRomanPSMT-32" d="M 2934 816 
L 2638 0 
L 138 0 
L 138 116 
Q 1241 1122 1691 1759 
Q 2141 2397 2141 2925 
Q 2141 3328 1894 3587 
Q 1647 3847 1303 3847 
Q 991 3847 742 3664 
Q 494 3481 375 3128 
L 259 3128 
Q 338 3706 661 4015 
Q 984 4325 1469 4325 
Q 1984 4325 2329 3994 
Q 2675 3663 2675 3213 
Q 2675 2891 2525 2569 
Q 2294 2063 1775 1497 
Q 997 647 803 472 
L 1909 472 
Q 2247 472 2383 497 
Q 2519 522 2628 598 
Q 2738 675 2819 816 
L 2934 816 
z
" transform="scale(0.015625)"/>
       </defs>
       <use xlink:href="#TimesNewRomanPSMT-32"/>
       <use xlink:href="#TimesNewRomanPSMT-30" x="50"/>
       <use xlink:href="#TimesNewRomanPSMT-30" x="100"/>
      </g>
     </g>
    </g>
    <g id="xtick_6">
     <g id="line2d_6">
      <g>
       <use xlink:href="#mcedd8f11f6" x="312.336802" y="256.32" style="stroke: #000000; stroke-width: 0.8"/>
      </g>
     </g>
     <g id="text_6">
      <!-- 250k -->
      <g transform="translate(302.336802 270.26375)scale(0.1 -0.1)">
       <defs>
        <path id="TimesNewRomanPSMT-6b" d="M 1047 4444 
L 1047 1597 
L 1775 2259 
Q 2006 2472 2044 2528 
Q 2069 2566 2069 2603 
Q 2069 2666 2017 2711 
Q 1966 2756 1847 2763 
L 1847 2863 
L 3091 2863 
L 3091 2763 
Q 2834 2756 2664 2684 
Q 2494 2613 2291 2428 
L 1556 1750 
L 2291 822 
Q 2597 438 2703 334 
Q 2853 188 2966 144 
Q 3044 113 3238 113 
L 3238 0 
L 1847 0 
L 1847 113 
Q 1966 116 2008 148 
Q 2050 181 2050 241 
Q 2050 313 1925 472 
L 1047 1594 
L 1047 644 
Q 1047 366 1086 278 
Q 1125 191 1197 153 
Q 1269 116 1509 113 
L 1509 0 
L 53 0 
L 53 113 
Q 272 113 381 166 
Q 447 200 481 272 
Q 528 375 528 628 
L 528 3234 
Q 528 3731 506 3842 
Q 484 3953 434 3995 
Q 384 4038 303 4038 
Q 238 4038 106 3984 
L 53 4094 
L 903 4444 
L 1047 4444 
z
" transform="scale(0.015625)"/>
       </defs>
       <use xlink:href="#TimesNewRomanPSMT-32"/>
       <use xlink:href="#TimesNewRomanPSMT-35" x="50"/>
       <use xlink:href="#TimesNewRomanPSMT-30" x="100"/>
       <use xlink:href="#TimesNewRomanPSMT-6b" x="150"/>
      </g>
     </g>
    </g>
    <g id="text_7">
     <!-- Epochs -->
     <g transform="translate(169.780469 283.346563)scale(0.1 -0.1)">
      <defs>
       <path id="TimesNewRomanPSMT-45" d="M 1338 4006 
L 1338 2331 
L 2269 2331 
Q 2631 2331 2753 2441 
Q 2916 2584 2934 2947 
L 3050 2947 
L 3050 1472 
L 2934 1472 
Q 2891 1781 2847 1869 
Q 2791 1978 2662 2040 
Q 2534 2103 2269 2103 
L 1338 2103 
L 1338 706 
Q 1338 425 1363 364 
Q 1388 303 1450 267 
Q 1513 231 1688 231 
L 2406 231 
Q 2766 231 2928 281 
Q 3091 331 3241 478 
Q 3434 672 3638 1063 
L 3763 1063 
L 3397 0 
L 131 0 
L 131 116 
L 281 116 
Q 431 116 566 188 
Q 666 238 702 338 
Q 738 438 738 747 
L 738 3500 
Q 738 3903 656 3997 
Q 544 4122 281 4122 
L 131 4122 
L 131 4238 
L 3397 4238 
L 3444 3309 
L 3322 3309 
Q 3256 3644 3176 3769 
Q 3097 3894 2941 3959 
Q 2816 4006 2500 4006 
L 1338 4006 
z
" transform="scale(0.015625)"/>
       <path id="TimesNewRomanPSMT-70" d="M -6 2578 
L 875 2934 
L 994 2934 
L 994 2266 
Q 1216 2644 1439 2795 
Q 1663 2947 1909 2947 
Q 2341 2947 2628 2609 
Q 2981 2197 2981 1534 
Q 2981 794 2556 309 
Q 2206 -88 1675 -88 
Q 1444 -88 1275 -22 
Q 1150 25 994 166 
L 994 -706 
Q 994 -1000 1030 -1079 
Q 1066 -1159 1155 -1206 
Q 1244 -1253 1478 -1253 
L 1478 -1369 
L -22 -1369 
L -22 -1253 
L 56 -1253 
Q 228 -1256 350 -1188 
Q 409 -1153 442 -1076 
Q 475 -1000 475 -688 
L 475 2019 
Q 475 2297 450 2372 
Q 425 2447 370 2484 
Q 316 2522 222 2522 
Q 147 2522 31 2478 
L -6 2578 
z
M 994 2081 
L 994 1013 
Q 994 666 1022 556 
Q 1066 375 1236 237 
Q 1406 100 1666 100 
Q 1978 100 2172 344 
Q 2425 663 2425 1241 
Q 2425 1897 2138 2250 
Q 1938 2494 1663 2494 
Q 1513 2494 1366 2419 
Q 1253 2363 994 2081 
z
" transform="scale(0.015625)"/>
       <path id="TimesNewRomanPSMT-6f" d="M 1600 2947 
Q 2250 2947 2644 2453 
Q 2978 2031 2978 1484 
Q 2978 1100 2793 706 
Q 2609 313 2286 112 
Q 1963 -88 1566 -88 
Q 919 -88 538 428 
Q 216 863 216 1403 
Q 216 1797 411 2186 
Q 606 2575 925 2761 
Q 1244 2947 1600 2947 
z
M 1503 2744 
Q 1338 2744 1170 2645 
Q 1003 2547 900 2300 
Q 797 2053 797 1666 
Q 797 1041 1045 587 
Q 1294 134 1700 134 
Q 2003 134 2200 384 
Q 2397 634 2397 1244 
Q 2397 2006 2069 2444 
Q 1847 2744 1503 2744 
z
" transform="scale(0.015625)"/>
       <path id="TimesNewRomanPSMT-63" d="M 2631 1088 
Q 2516 522 2178 217 
Q 1841 -88 1431 -88 
Q 944 -88 581 321 
Q 219 731 219 1428 
Q 219 2103 620 2525 
Q 1022 2947 1584 2947 
Q 2006 2947 2278 2723 
Q 2550 2500 2550 2259 
Q 2550 2141 2473 2067 
Q 2397 1994 2259 1994 
Q 2075 1994 1981 2113 
Q 1928 2178 1911 2362 
Q 1894 2547 1784 2644 
Q 1675 2738 1481 2738 
Q 1169 2738 978 2506 
Q 725 2200 725 1697 
Q 725 1184 976 792 
Q 1228 400 1656 400 
Q 1963 400 2206 609 
Q 2378 753 2541 1131 
L 2631 1088 
z
" transform="scale(0.015625)"/>
       <path id="TimesNewRomanPSMT-68" d="M 1041 4444 
L 1041 2350 
Q 1388 2731 1591 2839 
Q 1794 2947 1997 2947 
Q 2241 2947 2416 2812 
Q 2591 2678 2675 2391 
Q 2734 2191 2734 1659 
L 2734 647 
Q 2734 375 2778 275 
Q 2809 200 2884 156 
Q 2959 113 3159 113 
L 3159 0 
L 1753 0 
L 1753 113 
L 1819 113 
Q 2019 113 2097 173 
Q 2175 234 2206 353 
Q 2216 403 2216 647 
L 2216 1659 
Q 2216 2128 2167 2275 
Q 2119 2422 2012 2495 
Q 1906 2569 1756 2569 
Q 1603 2569 1437 2487 
Q 1272 2406 1041 2159 
L 1041 647 
Q 1041 353 1073 281 
Q 1106 209 1195 161 
Q 1284 113 1503 113 
L 1503 0 
L 84 0 
L 84 113 
Q 275 113 384 172 
Q 447 203 484 290 
Q 522 378 522 647 
L 522 3238 
Q 522 3728 498 3840 
Q 475 3953 426 3993 
Q 378 4034 297 4034 
Q 231 4034 84 3984 
L 41 4094 
L 897 4444 
L 1041 4444 
z
" transform="scale(0.015625)"/>
       <path id="TimesNewRomanPSMT-73" d="M 2050 2947 
L 2050 1972 
L 1947 1972 
Q 1828 2431 1642 2597 
Q 1456 2763 1169 2763 
Q 950 2763 815 2647 
Q 681 2531 681 2391 
Q 681 2216 781 2091 
Q 878 1963 1175 1819 
L 1631 1597 
Q 2266 1288 2266 781 
Q 2266 391 1970 151 
Q 1675 -88 1309 -88 
Q 1047 -88 709 6 
Q 606 38 541 38 
Q 469 38 428 -44 
L 325 -44 
L 325 978 
L 428 978 
Q 516 541 762 319 
Q 1009 97 1316 97 
Q 1531 97 1667 223 
Q 1803 350 1803 528 
Q 1803 744 1651 891 
Q 1500 1038 1047 1263 
Q 594 1488 453 1669 
Q 313 1847 313 2119 
Q 313 2472 555 2709 
Q 797 2947 1181 2947 
Q 1350 2947 1591 2875 
Q 1750 2828 1803 2828 
Q 1853 2828 1881 2850 
Q 1909 2872 1947 2947 
L 2050 2947 
z
" transform="scale(0.015625)"/>
      </defs>
      <use xlink:href="#TimesNewRomanPSMT-45"/>
      <use xlink:href="#TimesNewRomanPSMT-70" x="61.083984"/>
      <use xlink:href="#TimesNewRomanPSMT-6f" x="111.083984"/>
      <use xlink:href="#TimesNewRomanPSMT-63" x="161.083984"/>
      <use xlink:href="#TimesNewRomanPSMT-68" x="205.46875"/>
      <use xlink:href="#TimesNewRomanPSMT-73" x="255.46875"/>
     </g>
    </g>
   </g>
   <g id="matplotlib.axis_2">
    <g id="ytick_1">
     <g id="line2d_7">
      <defs>
       <path id="mfe5ca021b6" d="M 0 0 
L -3.5 0 
" style="stroke: #000000; stroke-width: 0.8"/>
      </defs>
      <g>
       <use xlink:href="#mfe5ca021b6" x="45" y="227.679231" style="stroke: #000000; stroke-width: 0.8"/>
      </g>
     </g>
     <g id="text_8">
      <!-- 6 -->
      <g transform="translate(27.360937 231.151106)scale(0.1 -0.1)">
       <defs>
        <path id="TimesNewRomanPSMT-2212" d="M 3484 2000 
L 116 2000 
L 116 2256 
L 3484 2256 
L 3484 2000 
z
" transform="scale(0.015625)"/>
        <path id="TimesNewRomanPSMT-36" d="M 2869 4325 
L 2869 4209 
Q 2456 4169 2195 4045 
Q 1934 3922 1679 3669 
Q 1425 3416 1258 3105 
Q 1091 2794 978 2366 
Q 1428 2675 1881 2675 
Q 2316 2675 2634 2325 
Q 2953 1975 2953 1425 
Q 2953 894 2631 456 
Q 2244 -75 1606 -75 
Q 1172 -75 869 213 
Q 275 772 275 1663 
Q 275 2231 503 2743 
Q 731 3256 1154 3653 
Q 1578 4050 1965 4187 
Q 2353 4325 2688 4325 
L 2869 4325 
z
M 925 2138 
Q 869 1716 869 1456 
Q 869 1156 980 804 
Q 1091 453 1309 247 
Q 1469 100 1697 100 
Q 1969 100 2183 356 
Q 2397 613 2397 1088 
Q 2397 1622 2184 2012 
Q 1972 2403 1581 2403 
Q 1463 2403 1327 2353 
Q 1191 2303 925 2138 
z
" transform="scale(0.015625)"/>
       </defs>
       <use xlink:href="#TimesNewRomanPSMT-2212"/>
       <use xlink:href="#TimesNewRomanPSMT-36" x="56.396484"/>
      </g>
     </g>
    </g>
    <g id="ytick_2">
     <g id="line2d_8">
      <g>
       <use xlink:href="#mfe5ca021b6" x="45" y="198.025869" style="stroke: #000000; stroke-width: 0.8"/>
      </g>
     </g>
     <g id="text_9">
      <!-- 5 -->
      <g transform="translate(27.360937 201.497744)scale(0.1 -0.1)">
       <use xlink:href="#TimesNewRomanPSMT-2212"/>
       <use xlink:href="#TimesNewRomanPSMT-35" x="56.396484"/>
      </g>
     </g>
    </g>
    <g id="ytick_3">
     <g id="line2d_9">
      <g>
       <use xlink:href="#mfe5ca021b6" x="45" y="168.372506" style="stroke: #000000; stroke-width: 0.8"/>
      </g>
     </g>
     <g id="text_10">
      <!-- 4 -->
      <g transform="translate(27.360937 171.844381)scale(0.1 -0.1)">
       <defs>
        <path id="TimesNewRomanPSMT-34" d="M 2978 1563 
L 2978 1119 
L 2409 1119 
L 2409 0 
L 1894 0 
L 1894 1119 
L 100 1119 
L 100 1519 
L 2066 4325 
L 2409 4325 
L 2409 1563 
L 2978 1563 
z
M 1894 1563 
L 1894 3666 
L 406 1563 
L 1894 1563 
z
" transform="scale(0.015625)"/>
       </defs>
       <use xlink:href="#TimesNewRomanPSMT-2212"/>
       <use xlink:href="#TimesNewRomanPSMT-34" x="56.396484"/>
      </g>
     </g>
    </g>
    <g id="ytick_4">
     <g id="line2d_10">
      <g>
       <use xlink:href="#mfe5ca021b6" x="45" y="138.719144" style="stroke: #000000; stroke-width: 0.8"/>
      </g>
     </g>
     <g id="text_11">
      <!-- 3 -->
      <g transform="translate(27.360937 142.191019)scale(0.1 -0.1)">
       <defs>
        <path id="TimesNewRomanPSMT-33" d="M 325 3431 
Q 506 3859 782 4092 
Q 1059 4325 1472 4325 
Q 1981 4325 2253 3994 
Q 2459 3747 2459 3466 
Q 2459 3003 1878 2509 
Q 2269 2356 2469 2072 
Q 2669 1788 2669 1403 
Q 2669 853 2319 450 
Q 1863 -75 997 -75 
Q 569 -75 414 31 
Q 259 138 259 259 
Q 259 350 332 419 
Q 406 488 509 488 
Q 588 488 669 463 
Q 722 447 909 348 
Q 1097 250 1169 231 
Q 1284 197 1416 197 
Q 1734 197 1970 444 
Q 2206 691 2206 1028 
Q 2206 1275 2097 1509 
Q 2016 1684 1919 1775 
Q 1784 1900 1550 2001 
Q 1316 2103 1072 2103 
L 972 2103 
L 972 2197 
Q 1219 2228 1467 2375 
Q 1716 2522 1828 2728 
Q 1941 2934 1941 3181 
Q 1941 3503 1739 3701 
Q 1538 3900 1238 3900 
Q 753 3900 428 3381 
L 325 3431 
z
" transform="scale(0.015625)"/>
       </defs>
       <use xlink:href="#TimesNewRomanPSMT-2212"/>
       <use xlink:href="#TimesNewRomanPSMT-33" x="56.396484"/>
      </g>
     </g>
    </g>
    <g id="ytick_5">
     <g id="line2d_11">
      <g>
       <use xlink:href="#mfe5ca021b6" x="45" y="109.065782" style="stroke: #000000; stroke-width: 0.8"/>
      </g>
     </g>
     <g id="text_12">
      <!-- 2 -->
      <g transform="translate(27.360937 112.537657)scale(0.1 -0.1)">
       <use xlink:href="#TimesNewRomanPSMT-2212"/>
       <use xlink:href="#TimesNewRomanPSMT-32" x="56.396484"/>
      </g>
     </g>
    </g>
    <g id="ytick_6">
     <g id="line2d_12">
      <g>
       <use xlink:href="#mfe5ca021b6" x="45" y="79.412419" style="stroke: #000000; stroke-width: 0.8"/>
      </g>
     </g>
     <g id="text_13">
      <!-- 1 -->
      <g transform="translate(27.360937 82.884294)scale(0.1 -0.1)">
       <use xlink:href="#TimesNewRomanPSMT-2212"/>
       <use xlink:href="#TimesNewRomanPSMT-31" x="56.396484"/>
      </g>
     </g>
    </g>
    <g id="ytick_7">
     <g id="line2d_13">
      <g>
       <use xlink:href="#mfe5ca021b6" x="45" y="49.759057" style="stroke: #000000; stroke-width: 0.8"/>
      </g>
     </g>
     <g id="text_14">
      <!-- 0 -->
      <g transform="translate(33 53.230932)scale(0.1 -0.1)">
       <use xlink:href="#TimesNewRomanPSMT-30"/>
      </g>
     </g>
    </g>
    <g id="text_15">
     <!-- Error ($\log_{10}$) -->
     <g transform="translate(21.160937 170.79)rotate(-90)scale(0.1 -0.1)">
      <defs>
       <path id="TimesNewRomanPSMT-72" d="M 1038 2947 
L 1038 2303 
Q 1397 2947 1775 2947 
Q 1947 2947 2059 2842 
Q 2172 2738 2172 2600 
Q 2172 2478 2090 2393 
Q 2009 2309 1897 2309 
Q 1788 2309 1652 2417 
Q 1516 2525 1450 2525 
Q 1394 2525 1328 2463 
Q 1188 2334 1038 2041 
L 1038 669 
Q 1038 431 1097 309 
Q 1138 225 1241 169 
Q 1344 113 1538 113 
L 1538 0 
L 72 0 
L 72 113 
Q 291 113 397 181 
Q 475 231 506 341 
Q 522 394 522 644 
L 522 1753 
Q 522 2253 501 2348 
Q 481 2444 426 2487 
Q 372 2531 291 2531 
Q 194 2531 72 2484 
L 41 2597 
L 906 2947 
L 1038 2947 
z
" transform="scale(0.015625)"/>
       <path id="TimesNewRomanPSMT-20" transform="scale(0.015625)"/>
       <path id="TimesNewRomanPSMT-28" d="M 1988 -1253 
L 1988 -1369 
Q 1516 -1131 1200 -813 
Q 750 -359 506 256 
Q 263 872 263 1534 
Q 263 2503 741 3301 
Q 1219 4100 1988 4444 
L 1988 4313 
Q 1603 4100 1356 3731 
Q 1109 3363 987 2797 
Q 866 2231 866 1616 
Q 866 947 969 400 
Q 1050 -31 1165 -292 
Q 1281 -553 1476 -793 
Q 1672 -1034 1988 -1253 
z
" transform="scale(0.015625)"/>
       <path id="STIXGeneral-Regular-6c" d="M 1645 0 
L 134 0 
L 134 96 
Q 435 122 531 221 
Q 627 320 627 589 
L 627 3590 
Q 627 3821 569 3910 
Q 512 4000 358 4000 
Q 224 4000 122 3987 
L 122 4090 
Q 730 4237 1133 4371 
L 1165 4346 
L 1165 557 
Q 1165 288 1254 201 
Q 1344 115 1645 96 
L 1645 0 
z
" transform="scale(0.015625)"/>
       <path id="STIXGeneral-Regular-6f" d="M 3008 1478 
Q 3008 806 2608 371 
Q 2208 -64 1568 -64 
Q 979 -64 582 368 
Q 186 800 186 1459 
Q 186 2125 582 2534 
Q 979 2944 1626 2944 
Q 2221 2944 2614 2537 
Q 3008 2131 3008 1478 
z
M 2432 1306 
Q 2432 2035 2112 2445 
Q 1856 2765 1504 2765 
Q 1171 2765 966 2493 
Q 762 2221 762 1747 
Q 762 928 1101 435 
Q 1318 115 1677 115 
Q 2029 115 2230 432 
Q 2432 749 2432 1306 
z
" transform="scale(0.015625)"/>
       <path id="STIXGeneral-Regular-67" d="M 3008 2483 
L 2477 2483 
Q 2598 2208 2598 1946 
Q 2598 1453 2265 1203 
Q 1933 954 1600 954 
Q 1530 954 1357 973 
L 1235 986 
Q 1107 947 979 812 
Q 851 678 851 582 
Q 851 435 1350 410 
L 2176 371 
Q 2528 358 2739 172 
Q 2950 -13 2950 -314 
Q 2950 -685 2566 -986 
Q 2035 -1395 1286 -1395 
Q 826 -1395 502 -1212 
Q 179 -1030 179 -774 
Q 179 -595 320 -419 
Q 461 -243 806 6 
Q 602 102 534 172 
Q 467 243 467 346 
Q 467 531 762 787 
Q 909 915 1037 1043 
Q 717 1203 579 1401 
Q 442 1600 442 1901 
Q 442 2336 752 2640 
Q 1062 2944 1510 2944 
Q 1766 2944 2022 2848 
L 2163 2797 
Q 2349 2733 2515 2733 
L 3008 2733 
L 3008 2483 
z
M 973 2163 
L 973 2144 
Q 973 1683 1155 1398 
Q 1338 1114 1632 1114 
Q 1850 1114 1978 1270 
Q 2106 1427 2106 1690 
Q 2106 2112 1914 2464 
Q 1754 2765 1446 2765 
Q 1222 2765 1097 2605 
Q 973 2445 973 2163 
z
M 2771 -410 
Q 2771 -230 2595 -163 
Q 2419 -96 1978 -96 
Q 1344 -96 941 -13 
Q 749 -243 688 -348 
Q 627 -454 627 -563 
Q 627 -774 880 -902 
Q 1133 -1030 1555 -1030 
Q 2099 -1030 2435 -860 
Q 2771 -691 2771 -410 
z
" transform="scale(0.015625)"/>
       <path id="STIXGeneral-Regular-31" d="M 2522 0 
L 755 0 
L 755 96 
Q 1107 115 1235 227 
Q 1363 339 1363 608 
L 1363 3482 
Q 1363 3795 1171 3795 
Q 1082 3795 883 3718 
L 710 3654 
L 710 3744 
L 1856 4326 
L 1914 4307 
L 1914 486 
Q 1914 275 2042 185 
Q 2170 96 2522 96 
L 2522 0 
z
" transform="scale(0.015625)"/>
       <path id="STIXGeneral-Regular-30" d="M 3046 2112 
Q 3046 1683 2963 1302 
Q 2880 922 2717 602 
Q 2554 282 2266 96 
Q 1978 -90 1600 -90 
Q 1210 -90 915 108 
Q 621 307 461 640 
Q 301 973 227 1350 
Q 154 1728 154 2150 
Q 154 2746 301 3222 
Q 448 3699 790 4012 
Q 1133 4326 1626 4326 
Q 2253 4326 2649 3712 
Q 3046 3098 3046 2112 
z
M 2432 2080 
Q 2432 3091 2217 3625 
Q 2003 4160 1587 4160 
Q 1190 4160 979 3622 
Q 768 3085 768 2106 
Q 768 1120 979 598 
Q 1190 77 1600 77 
Q 2003 77 2217 598 
Q 2432 1120 2432 2080 
z
" transform="scale(0.015625)"/>
       <path id="TimesNewRomanPSMT-29" d="M 144 4313 
L 144 4444 
Q 619 4209 934 3891 
Q 1381 3434 1625 2820 
Q 1869 2206 1869 1541 
Q 1869 572 1392 -226 
Q 916 -1025 144 -1369 
L 144 -1253 
Q 528 -1038 776 -670 
Q 1025 -303 1145 264 
Q 1266 831 1266 1447 
Q 1266 2113 1163 2663 
Q 1084 3094 967 3353 
Q 850 3613 656 3853 
Q 463 4094 144 4313 
z
" transform="scale(0.015625)"/>
      </defs>
      <use xlink:href="#TimesNewRomanPSMT-45" transform="translate(0 0.5625)"/>
      <use xlink:href="#TimesNewRomanPSMT-72" transform="translate(61.083984 0.5625)"/>
      <use xlink:href="#TimesNewRomanPSMT-72" transform="translate(94.384766 0.5625)"/>
      <use xlink:href="#TimesNewRomanPSMT-6f" transform="translate(127.685547 0.5625)"/>
      <use xlink:href="#TimesNewRomanPSMT-72" transform="translate(177.685547 0.5625)"/>
      <use xlink:href="#TimesNewRomanPSMT-20" transform="translate(210.986328 0.5625)"/>
      <use xlink:href="#TimesNewRomanPSMT-28" transform="translate(235.986328 0.5625)"/>
      <use xlink:href="#STIXGeneral-Regular-6c" transform="translate(269.287109 0.5625)"/>
      <use xlink:href="#STIXGeneral-Regular-6f" transform="translate(297.087097 0.5625)"/>
      <use xlink:href="#STIXGeneral-Regular-67" transform="translate(347.087082 0.5625)"/>
      <use xlink:href="#STIXGeneral-Regular-31" transform="translate(398.630348 -12.665625)scale(0.7)"/>
      <use xlink:href="#STIXGeneral-Regular-30" transform="translate(433.630337 -12.665625)scale(0.7)"/>
      <use xlink:href="#TimesNewRomanPSMT-29" transform="translate(473.039702 0.5625)"/>
     </g>
    </g>
   </g>
   <g id="line2d_14">
    <path d="M 57.681818 64.381258 
L 58.700438 66.151913 
L 59.719058 67.68691 
L 60.737678 69.549068 
L 61.756298 69.116584 
L 62.774918 70.249231 
L 63.793538 72.589283 
L 64.812158 76.132936 
L 65.830778 80.474089 
L 66.849398 85.945494 
L 67.868018 90.698653 
L 70.923877 106.776238 
L 73.979737 120.053102 
L 77.035597 130.666228 
L 80.091457 142.192186 
L 81.110077 145.41473 
L 82.128697 148.257901 
L 84.165936 152.78782 
L 87.221796 158.617465 
L 88.240416 160.79739 
L 91.296276 166.126275 
L 92.314896 167.745573 
L 95.370756 171.975667 
L 96.389376 172.917686 
L 98.426616 175.505645 
L 100.463855 178.773325 
L 102.501095 182.664253 
L 103.519715 184.42928 
L 106.575575 188.879106 
L 107.594195 189.929257 
L 109.631435 190.298477 
L 110.650055 190.527733 
L 112.687295 191.231264 
L 113.705915 192.470739 
L 114.724535 193.482911 
L 115.743154 194.15794 
L 116.761774 194.680324 
L 119.817634 195.612389 
L 120.836254 195.993975 
L 121.854874 195.203775 
L 122.873494 195.595117 
L 123.892114 195.856827 
L 124.910734 196.341917 
L 125.929354 196.618715 
L 126.947974 197.92981 
L 128.985214 199.158557 
L 131.022453 199.921343 
L 132.041073 200.545651 
L 133.059693 200.305635 
L 135.096933 201.057096 
L 136.115553 201.758266 
L 137.134173 202.191984 
L 138.152793 203.391603 
L 139.171413 203.759073 
L 140.190033 203.495287 
L 143.245893 204.508907 
L 144.264513 204.971973 
L 145.283133 205.911754 
L 150.376232 207.039922 
L 151.394852 206.928629 
L 154.450712 207.220646 
L 155.469332 206.559755 
L 156.487952 207.25342 
L 157.506572 207.131909 
L 158.525192 207.576762 
L 159.543812 207.876141 
L 160.562432 208.944438 
L 161.581051 209.196908 
L 162.599671 209.756093 
L 164.636911 210.266455 
L 166.674151 210.846622 
L 167.692771 211.408652 
L 170.748631 212.255559 
L 172.785871 212.321924 
L 176.86035 213.017436 
L 177.87897 213.27249 
L 179.91621 212.917723 
L 180.93483 213.322041 
L 182.97207 213.69006 
L 183.99069 214.038372 
L 185.00931 213.521085 
L 186.02793 213.332307 
L 187.04655 213.293435 
L 188.06517 213.444086 
L 189.08379 213.262792 
L 190.10241 214.105074 
L 191.12103 214.251516 
L 192.13965 214.634772 
L 193.158269 214.382977 
L 195.195509 215.058941 
L 196.214129 214.79682 
L 197.232749 214.81179 
L 198.251369 215.324594 
L 199.269989 215.459416 
L 200.288609 215.451038 
L 203.344469 215.923251 
L 204.363089 215.780392 
L 205.381709 215.380336 
L 206.400329 215.706983 
L 207.418949 215.800147 
L 208.437568 215.585822 
L 209.456188 215.825635 
L 210.474808 216.60877 
L 212.512048 216.959679 
L 213.530668 216.752114 
L 214.549288 216.983372 
L 216.586528 217.001884 
L 217.605148 216.476847 
L 218.623768 217.231086 
L 219.642388 217.509002 
L 221.679628 217.5716 
L 222.698248 217.952052 
L 223.716867 217.491077 
L 225.754107 216.831611 
L 226.772727 216.816891 
L 227.791347 217.093103 
L 228.809967 217.497713 
L 229.828587 217.374742 
L 231.865827 218.310976 
L 232.884447 218.218712 
L 234.921687 218.70408 
L 235.940307 219.041522 
L 236.958927 219.011124 
L 240.014786 220.346778 
L 241.033406 218.77718 
L 242.052026 218.148376 
L 243.070646 217.225028 
L 244.089266 216.568152 
L 245.107886 216.348537 
L 246.126506 218.044829 
L 249.182366 220.868282 
L 251.219606 221.193946 
L 256.312705 221.227382 
L 257.331325 219.766877 
L 258.349945 219.726778 
L 259.368565 219.249428 
L 260.387185 219.684521 
L 261.405805 218.844346 
L 262.424425 220.15556 
L 263.443045 220.648931 
L 264.461665 221.325707 
L 265.480285 221.383713 
L 266.498905 222.497789 
L 267.517525 222.351176 
L 268.536145 222.326699 
L 269.554765 222.126617 
L 270.573384 222.19014 
L 271.592004 222.500996 
L 272.610624 223.298966 
L 273.629244 223.188691 
L 274.647864 222.882183 
L 275.666484 222.172668 
L 278.722344 221.608537 
L 279.740964 222.024558 
L 280.759584 222.703606 
L 281.778204 222.351939 
L 282.796824 222.500966 
L 283.815444 222.870883 
L 285.852683 222.669982 
L 286.871303 223.360355 
L 287.889923 223.50565 
L 288.908543 223.427113 
L 289.927163 223.60936 
L 290.945783 223.378228 
L 291.964403 223.550174 
L 294.001643 223.243467 
L 295.020263 223.50048 
L 296.038883 223.216138 
L 298.076123 223.027612 
L 299.094743 222.255372 
L 300.113363 222.211194 
L 301.131982 222.716086 
L 302.150602 222.877141 
L 303.169222 223.468067 
L 304.187842 224.472824 
L 306.225082 224.8703 
L 307.243702 224.769089 
L 308.262322 224.842578 
L 309.280942 224.570724 
L 311.318182 224.529119 
L 311.318182 224.529119 
" clip-path="url(#pb817fe9f60)" style="fill: none; stroke: #ff0000; stroke-width: 1.5; stroke-linecap: square"/>
   </g>
   <g id="line2d_15">
    <path d="M 57.681818 63.989018 
L 59.719058 68.736826 
L 61.756298 77.006089 
L 62.774918 83.750468 
L 63.793538 91.705883 
L 65.830778 110.497773 
L 67.868018 127.425781 
L 69.905257 141.813569 
L 70.923877 147.924739 
L 71.942497 153.045406 
L 72.961117 157.25461 
L 73.979737 160.886364 
L 74.998357 163.981388 
L 77.035597 168.791249 
L 78.054217 171.071227 
L 79.072837 172.967373 
L 82.128697 177.36936 
L 84.165936 179.328662 
L 86.203176 181.08062 
L 88.240416 182.346107 
L 89.259036 182.799227 
L 91.296276 183.940711 
L 92.314896 184.147026 
L 93.333516 184.579628 
L 94.352136 185.153653 
L 96.389376 185.880769 
L 97.407996 186.545973 
L 100.463855 187.661397 
L 101.482475 187.969123 
L 102.501095 188.117159 
L 104.538335 188.725017 
L 105.556955 188.740397 
L 106.575575 188.923489 
L 107.594195 189.290724 
L 108.612815 189.219668 
L 109.631435 189.326556 
L 110.650055 189.566367 
L 112.687295 189.657077 
L 114.724535 189.906859 
L 116.761774 190.621773 
L 118.799014 190.937097 
L 119.817634 190.874469 
L 121.854874 191.19199 
L 123.892114 191.517668 
L 124.910734 191.8305 
L 127.966594 191.854262 
L 128.985214 191.528036 
L 131.022453 191.88609 
L 132.041073 191.801132 
L 136.115553 192.118882 
L 139.171413 193.372892 
L 146.301752 194.17884 
L 149.357612 194.153877 
L 150.376232 194.007397 
L 151.394852 194.081046 
L 152.413472 193.565159 
L 155.469332 192.943821 
L 156.487952 192.55519 
L 157.506572 193.189312 
L 158.525192 193.17241 
L 159.543812 193.475247 
L 161.581051 194.695981 
L 162.599671 194.897471 
L 163.618291 195.453058 
L 165.655531 195.520426 
L 166.674151 195.294124 
L 167.692771 194.934569 
L 169.730011 194.697901 
L 170.748631 194.551597 
L 171.767251 194.778848 
L 172.785871 195.254293 
L 173.804491 195.274614 
L 174.823111 194.809409 
L 175.841731 195.092327 
L 176.86035 195.022963 
L 177.87897 194.756036 
L 178.89759 194.734562 
L 179.91621 194.969835 
L 180.93483 195.037814 
L 182.97207 195.500434 
L 183.99069 195.445345 
L 185.00931 196.11085 
L 187.04655 195.982901 
L 188.06517 196.176231 
L 189.08379 196.627885 
L 190.10241 195.813153 
L 192.13965 196.181667 
L 193.158269 195.965837 
L 194.176889 195.302139 
L 195.195509 195.9708 
L 196.214129 195.759293 
L 197.232749 195.67614 
L 198.251369 196.062958 
L 199.269989 196.81569 
L 202.325849 197.586637 
L 203.344469 197.612813 
L 204.363089 197.461165 
L 206.400329 197.637646 
L 207.418949 197.269707 
L 208.437568 197.373612 
L 209.456188 197.666443 
L 210.474808 197.59816 
L 213.530668 197.697658 
L 214.549288 197.098681 
L 216.586528 197.315121 
L 217.605148 197.876295 
L 218.623768 197.89263 
L 219.642388 198.423035 
L 220.661008 198.440811 
L 221.679628 198.063623 
L 225.754107 198.129532 
L 226.772727 198.565162 
L 228.809967 197.938078 
L 230.847207 198.508576 
L 231.865827 198.303629 
L 232.884447 198.676902 
L 233.903067 199.192268 
L 234.921687 199.108601 
L 235.940307 198.339958 
L 236.958927 198.759609 
L 237.977547 198.772929 
L 238.996166 197.935978 
L 241.033406 198.249419 
L 242.052026 198.121432 
L 243.070646 198.237754 
L 244.089266 199.194912 
L 245.107886 198.906116 
L 246.126506 199.421257 
L 247.145126 199.455571 
L 248.163746 198.992448 
L 249.182366 199.025192 
L 250.200986 198.853012 
L 251.219606 199.193819 
L 252.238226 199.162801 
L 253.256846 199.775127 
L 254.275465 199.669775 
L 255.294085 200.086445 
L 256.312705 200.07426 
L 257.331325 200.194615 
L 258.349945 200.184249 
L 259.368565 199.856881 
L 260.387185 200.111203 
L 261.405805 199.774575 
L 263.443045 199.813219 
L 264.461665 200.004602 
L 265.480285 199.122792 
L 266.498905 199.476796 
L 268.536145 199.731968 
L 269.554765 200.21556 
L 270.573384 201.185551 
L 271.592004 201.128506 
L 272.610624 201.292633 
L 274.647864 201.227251 
L 275.666484 200.90725 
L 276.685104 201.170273 
L 277.703724 201.27576 
L 279.740964 200.709897 
L 281.778204 200.790137 
L 282.796824 200.370118 
L 283.815444 200.695124 
L 285.852683 200.66657 
L 286.871303 200.4048 
L 287.889923 200.927677 
L 288.908543 201.149559 
L 289.927163 201.241715 
L 291.964403 202.20661 
L 292.983023 202.277815 
L 294.001643 201.916119 
L 295.020263 201.891815 
L 297.057503 202.094678 
L 298.076123 201.610705 
L 299.094743 201.644796 
L 300.113363 201.422951 
L 301.131982 201.06186 
L 302.150602 201.060161 
L 303.169222 201.642958 
L 304.187842 201.754034 
L 305.206462 201.701796 
L 306.225082 202.095005 
L 307.243702 201.454635 
L 308.262322 201.510185 
L 309.280942 201.360488 
L 310.299562 201.934448 
L 311.318182 201.76337 
L 311.318182 201.76337 
" clip-path="url(#pb817fe9f60)" style="fill: none; stroke: #0000ff; stroke-width: 1.5; stroke-linecap: square"/>
   </g>
   <g id="line2d_16">
    <path d="M 57.681818 66.365133 
L 58.700438 69.430391 
L 59.719058 71.669402 
L 60.737678 72.975953 
L 61.756298 69.278332 
L 62.774918 66.927141 
L 63.793538 65.054987 
L 64.812158 63.843882 
L 66.849398 63.031362 
L 68.886637 61.932331 
L 70.923877 61.182988 
L 71.942497 61.023088 
L 73.979737 60.871711 
L 74.998357 60.661503 
L 76.016977 60.571839 
L 78.054217 60.05833 
L 80.091457 59.412816 
L 82.128697 58.626791 
L 84.165936 58.082648 
L 86.203176 57.825463 
L 88.240416 57.676286 
L 90.277656 57.719215 
L 99.445235 58.269523 
L 103.519715 57.711523 
L 106.575575 57.524811 
L 110.650055 57.567301 
L 113.705915 57.534988 
L 115.743154 57.470696 
L 118.799014 57.477009 
L 120.836254 57.52704 
L 125.929354 57.17218 
L 127.966594 56.903614 
L 131.022453 56.781274 
L 133.059693 56.827216 
L 141.208653 56.392675 
L 142.227273 56.271233 
L 143.245893 56.35112 
L 147.320372 56.104043 
L 150.376232 55.588358 
L 161.581051 55.308582 
L 165.655531 55.42273 
L 168.711391 55.456379 
L 194.176889 55.433775 
L 196.214129 55.405778 
L 201.307229 55.663996 
L 206.400329 55.55843 
L 210.474808 55.567556 
L 214.549288 55.465501 
L 221.679628 55.42899 
L 223.716867 55.501283 
L 225.754107 55.733302 
L 229.828587 55.562968 
L 231.865827 55.497538 
L 238.996166 55.524228 
L 241.033406 55.640623 
L 245.107886 55.919012 
L 251.219606 55.438361 
L 254.275465 55.46826 
L 259.368565 55.136739 
L 261.405805 54.970509 
L 264.461665 54.945544 
L 267.517525 55.032421 
L 277.703724 55.19558 
L 281.778204 55.100595 
L 286.871303 55.083131 
L 289.927163 55.052487 
L 311.318182 55.393107 
L 311.318182 55.393107 
" clip-path="url(#pb817fe9f60)" style="fill: none; stroke: #008000; stroke-width: 1.5; stroke-linecap: square"/>
   </g>
   <g id="line2d_17">
    <path d="M 57.681818 67.347468 
L 58.700438 75.631148 
L 60.737678 96.119258 
L 64.812158 115.879595 
L 65.830778 119.881544 
L 66.849398 122.884514 
L 68.886637 127.878608 
L 69.905257 130.232208 
L 71.942497 134.484669 
L 73.979737 139.187225 
L 74.998357 141.2525 
L 76.016977 142.947858 
L 77.035597 145.124947 
L 78.054217 146.969743 
L 81.110077 151.573064 
L 82.128697 151.872097 
L 83.147317 152.31537 
L 84.165936 152.593383 
L 85.184556 151.663948 
L 86.203176 151.482649 
L 88.240416 151.497635 
L 89.259036 151.74854 
L 90.277656 153.647672 
L 91.296276 154.497367 
L 92.314896 156.002195 
L 94.352136 158.448295 
L 95.370756 158.691435 
L 96.389376 159.809599 
L 97.407996 160.740164 
L 99.445235 161.880754 
L 100.463855 160.757379 
L 101.482475 161.193117 
L 102.501095 160.653698 
L 104.538335 160.986778 
L 105.556955 163.356906 
L 106.575575 163.719363 
L 107.594195 164.331189 
L 108.612815 164.509404 
L 109.631435 165.510636 
L 110.650055 165.819374 
L 111.668675 166.950081 
L 112.687295 167.822509 
L 113.705915 169.442164 
L 114.724535 169.436404 
L 115.743154 170.22501 
L 116.761774 170.08207 
L 117.780394 170.386383 
L 118.799014 169.623464 
L 119.817634 169.725641 
L 120.836254 169.56806 
L 121.854874 169.725993 
L 125.929354 172.654352 
L 126.947974 174.065421 
L 127.966594 175.028031 
L 128.985214 176.21331 
L 130.003834 176.363913 
L 131.022453 177.518223 
L 132.041073 177.952247 
L 133.059693 178.580627 
L 134.078313 179.405549 
L 135.096933 180.666169 
L 136.115553 180.702926 
L 137.134173 179.16835 
L 138.152793 179.297131 
L 139.171413 179.552121 
L 140.190033 179.623284 
L 141.208653 180.034978 
L 142.227273 181.414074 
L 143.245893 180.985658 
L 144.264513 180.685039 
L 146.301752 182.114108 
L 147.320372 183.156476 
L 148.338992 183.431802 
L 149.357612 184.242957 
L 150.376232 184.232215 
L 151.394852 183.19024 
L 152.413472 182.320696 
L 153.432092 182.68527 
L 154.450712 182.138706 
L 155.469332 181.432478 
L 157.506572 183.3143 
L 158.525192 183.61083 
L 159.543812 184.22129 
L 160.562432 185.069465 
L 161.581051 185.291319 
L 162.599671 185.340167 
L 164.636911 185.860038 
L 166.674151 185.557883 
L 167.692771 184.584853 
L 168.711391 184.40138 
L 169.730011 182.312465 
L 170.748631 182.323004 
L 171.767251 181.858057 
L 172.785871 182.782617 
L 173.804491 183.072162 
L 174.823111 184.956056 
L 176.86035 186.60228 
L 179.91621 187.988343 
L 183.99069 188.196133 
L 185.00931 187.98587 
L 186.02793 187.144997 
L 187.04655 186.842525 
L 189.08379 185.986526 
L 191.12103 186.491903 
L 192.13965 187.150467 
L 193.158269 188.08496 
L 194.176889 188.056729 
L 195.195509 188.670532 
L 196.214129 189.457508 
L 197.232749 188.827346 
L 198.251369 188.67531 
L 199.269989 188.882909 
L 200.288609 188.568299 
L 201.307229 188.966153 
L 202.325849 190.085744 
L 204.363089 191.360934 
L 205.381709 191.443164 
L 206.400329 191.198929 
L 207.418949 190.701124 
L 208.437568 190.399296 
L 210.474808 190.731601 
L 213.530668 192.615093 
L 214.549288 192.970327 
L 215.567908 193.598932 
L 216.586528 193.100154 
L 218.623768 193.43306 
L 220.661008 193.337464 
L 221.679628 194.213959 
L 222.698248 194.505082 
L 223.716867 194.45329 
L 224.735487 194.803626 
L 225.754107 195.016844 
L 226.772727 194.960578 
L 227.791347 194.718651 
L 228.809967 194.794597 
L 231.865827 194.399561 
L 232.884447 194.503689 
L 233.903067 194.834499 
L 234.921687 194.832801 
L 235.940307 195.24595 
L 236.958927 195.475885 
L 237.977547 196.238989 
L 238.996166 195.865341 
L 240.014786 195.790522 
L 241.033406 195.388574 
L 242.052026 195.473883 
L 243.070646 194.415486 
L 244.089266 194.628309 
L 245.107886 194.539545 
L 246.126506 193.910687 
L 247.145126 193.490807 
L 248.163746 193.907262 
L 249.182366 193.69066 
L 250.200986 193.628465 
L 251.219606 194.526592 
L 252.238226 194.837738 
L 253.256846 194.785862 
L 254.275465 195.459491 
L 255.294085 196.370885 
L 256.312705 197.003803 
L 257.331325 197.16803 
L 258.349945 198.010984 
L 259.368565 198.130694 
L 260.387185 197.770193 
L 261.405805 197.89424 
L 262.424425 198.355388 
L 263.443045 198.078887 
L 264.461665 198.00634 
L 266.498905 197.318931 
L 267.517525 197.318275 
L 268.536145 197.559777 
L 269.554765 197.606589 
L 270.573384 197.47562 
L 271.592004 197.716128 
L 272.610624 197.473147 
L 274.647864 198.441738 
L 275.666484 199.284143 
L 276.685104 199.427367 
L 277.703724 200.028369 
L 279.740964 199.816327 
L 281.778204 200.469369 
L 282.796824 199.980758 
L 283.815444 200.264656 
L 284.834064 199.857853 
L 285.852683 198.782853 
L 286.871303 197.88752 
L 287.889923 197.411365 
L 288.908543 196.471443 
L 289.927163 196.484822 
L 290.945783 197.016121 
L 291.964403 196.616662 
L 294.001643 197.901516 
L 296.038883 198.413908 
L 298.076123 199.374768 
L 299.094743 199.142184 
L 300.113363 199.042981 
L 301.131982 199.358832 
L 302.150602 200.485958 
L 303.169222 200.102138 
L 304.187842 200.763621 
L 305.206462 201.568461 
L 306.225082 201.316186 
L 307.243702 200.857341 
L 308.262322 201.140769 
L 310.299562 200.974476 
L 311.318182 201.707321 
L 311.318182 201.707321 
" clip-path="url(#pb817fe9f60)" style="fill: none; stroke: #ffa500; stroke-width: 1.5; stroke-linecap: square"/>
   </g>
   <g id="patch_3">
    <path d="M 45 256.32 
L 45 34.56 
" style="fill: none; stroke: #000000; stroke-width: 0.8; stroke-linejoin: miter; stroke-linecap: square"/>
   </g>
   <g id="patch_4">
    <path d="M 324 256.32 
L 324 34.56 
" style="fill: none; stroke: #000000; stroke-width: 0.8; stroke-linejoin: miter; stroke-linecap: square"/>
   </g>
   <g id="patch_5">
    <path d="M 45 256.32 
L 324 256.32 
" style="fill: none; stroke: #000000; stroke-width: 0.8; stroke-linejoin: miter; stroke-linecap: square"/>
   </g>
   <g id="patch_6">
    <path d="M 45 34.56 
L 324 34.56 
" style="fill: none; stroke: #000000; stroke-width: 0.8; stroke-linejoin: miter; stroke-linecap: square"/>
   </g>
   <g id="legend_1">
    <g id="patch_7">
     <path d="M 250.551562 99.11625 
L 317 99.11625 
Q 319 99.11625 319 97.11625 
L 319 41.56 
Q 319 39.56 317 39.56 
L 250.551562 39.56 
Q 248.551562 39.56 248.551562 41.56 
L 248.551562 97.11625 
Q 248.551562 99.11625 250.551562 99.11625 
z
" style="fill: #ffffff; opacity: 0.8; stroke: #cccccc; stroke-linejoin: miter"/>
    </g>
    <g id="line2d_18">
     <path d="M 252.551562 47.06 
L 262.551562 47.06 
L 272.551562 47.06 
" style="fill: none; stroke: #ff0000; stroke-width: 1.5; stroke-linecap: square"/>
    </g>
    <g id="text_16">
     <!-- FPSNN -->
     <g transform="translate(280.551562 50.56)scale(0.1 -0.1)">
      <defs>
       <path id="TimesNewRomanPSMT-46" d="M 1309 4006 
L 1309 2341 
L 2081 2341 
Q 2347 2341 2470 2458 
Q 2594 2575 2634 2922 
L 2750 2922 
L 2750 1488 
L 2634 1488 
Q 2631 1734 2570 1850 
Q 2509 1966 2401 2023 
Q 2294 2081 2081 2081 
L 1309 2081 
L 1309 750 
Q 1309 428 1350 325 
Q 1381 247 1481 191 
Q 1619 116 1769 116 
L 1922 116 
L 1922 0 
L 103 0 
L 103 116 
L 253 116 
Q 516 116 634 269 
Q 709 369 709 750 
L 709 3488 
Q 709 3809 669 3913 
Q 638 3991 541 4047 
Q 406 4122 253 4122 
L 103 4122 
L 103 4238 
L 3256 4238 
L 3297 3306 
L 3188 3306 
Q 3106 3603 2998 3742 
Q 2891 3881 2733 3943 
Q 2575 4006 2244 4006 
L 1309 4006 
z
" transform="scale(0.015625)"/>
       <path id="TimesNewRomanPSMT-50" d="M 1313 1984 
L 1313 750 
Q 1313 350 1400 253 
Q 1519 116 1759 116 
L 1922 116 
L 1922 0 
L 106 0 
L 106 116 
L 266 116 
Q 534 116 650 291 
Q 713 388 713 750 
L 713 3488 
Q 713 3888 628 3984 
Q 506 4122 266 4122 
L 106 4122 
L 106 4238 
L 1659 4238 
Q 2228 4238 2556 4120 
Q 2884 4003 3109 3725 
Q 3334 3447 3334 3066 
Q 3334 2547 2992 2222 
Q 2650 1897 2025 1897 
Q 1872 1897 1694 1919 
Q 1516 1941 1313 1984 
z
M 1313 2163 
Q 1478 2131 1606 2115 
Q 1734 2100 1825 2100 
Q 2150 2100 2386 2351 
Q 2622 2603 2622 3003 
Q 2622 3278 2509 3514 
Q 2397 3750 2190 3867 
Q 1984 3984 1722 3984 
Q 1563 3984 1313 3925 
L 1313 2163 
z
" transform="scale(0.015625)"/>
       <path id="TimesNewRomanPSMT-53" d="M 2934 4334 
L 2934 2869 
L 2819 2869 
Q 2763 3291 2617 3541 
Q 2472 3791 2203 3937 
Q 1934 4084 1647 4084 
Q 1322 4084 1109 3886 
Q 897 3688 897 3434 
Q 897 3241 1031 3081 
Q 1225 2847 1953 2456 
Q 2547 2138 2764 1967 
Q 2981 1797 3098 1565 
Q 3216 1334 3216 1081 
Q 3216 600 2842 251 
Q 2469 -97 1881 -97 
Q 1697 -97 1534 -69 
Q 1438 -53 1133 45 
Q 828 144 747 144 
Q 669 144 623 97 
Q 578 50 556 -97 
L 441 -97 
L 441 1356 
L 556 1356 
Q 638 900 775 673 
Q 913 447 1195 297 
Q 1478 147 1816 147 
Q 2206 147 2432 353 
Q 2659 559 2659 841 
Q 2659 997 2573 1156 
Q 2488 1316 2306 1453 
Q 2184 1547 1640 1851 
Q 1097 2156 867 2337 
Q 638 2519 519 2737 
Q 400 2956 400 3219 
Q 400 3675 750 4004 
Q 1100 4334 1641 4334 
Q 1978 4334 2356 4169 
Q 2531 4091 2603 4091 
Q 2684 4091 2736 4139 
Q 2788 4188 2819 4334 
L 2934 4334 
z
" transform="scale(0.015625)"/>
       <path id="TimesNewRomanPSMT-4e" d="M -84 4238 
L 1066 4238 
L 3656 1059 
L 3656 3503 
Q 3656 3894 3569 3991 
Q 3453 4122 3203 4122 
L 3056 4122 
L 3056 4238 
L 4531 4238 
L 4531 4122 
L 4381 4122 
Q 4113 4122 4000 3959 
Q 3931 3859 3931 3503 
L 3931 -69 
L 3819 -69 
L 1025 3344 
L 1025 734 
Q 1025 344 1109 247 
Q 1228 116 1475 116 
L 1625 116 
L 1625 0 
L 150 0 
L 150 116 
L 297 116 
Q 569 116 681 278 
Q 750 378 750 734 
L 750 3681 
Q 566 3897 470 3965 
Q 375 4034 191 4094 
Q 100 4122 -84 4122 
L -84 4238 
z
" transform="scale(0.015625)"/>
      </defs>
      <use xlink:href="#TimesNewRomanPSMT-46"/>
      <use xlink:href="#TimesNewRomanPSMT-50" x="55.615234"/>
      <use xlink:href="#TimesNewRomanPSMT-53" x="111.230469"/>
      <use xlink:href="#TimesNewRomanPSMT-4e" x="166.845703"/>
      <use xlink:href="#TimesNewRomanPSMT-4e" x="239.0625"/>
     </g>
    </g>
    <g id="line2d_19">
     <path d="M 252.551562 61.199063 
L 262.551562 61.199063 
L 272.551562 61.199063 
" style="fill: none; stroke: #0000ff; stroke-width: 1.5; stroke-linecap: square"/>
    </g>
    <g id="text_17">
     <!-- FPANN -->
     <g transform="translate(280.551562 64.699063)scale(0.1 -0.1)">
      <defs>
       <path id="TimesNewRomanPSMT-41" d="M 2928 1419 
L 1288 1419 
L 1000 750 
Q 894 503 894 381 
Q 894 284 986 211 
Q 1078 138 1384 116 
L 1384 0 
L 50 0 
L 50 116 
Q 316 163 394 238 
Q 553 388 747 847 
L 2238 4334 
L 2347 4334 
L 3822 809 
Q 4000 384 4145 257 
Q 4291 131 4550 116 
L 4550 0 
L 2878 0 
L 2878 116 
Q 3131 128 3220 200 
Q 3309 272 3309 375 
Q 3309 513 3184 809 
L 2928 1419 
z
M 2841 1650 
L 2122 3363 
L 1384 1650 
L 2841 1650 
z
" transform="scale(0.015625)"/>
      </defs>
      <use xlink:href="#TimesNewRomanPSMT-46"/>
      <use xlink:href="#TimesNewRomanPSMT-50" x="55.615234"/>
      <use xlink:href="#TimesNewRomanPSMT-41" x="102.105469"/>
      <use xlink:href="#TimesNewRomanPSMT-4e" x="174.322266"/>
      <use xlink:href="#TimesNewRomanPSMT-4e" x="246.539062"/>
     </g>
    </g>
    <g id="line2d_20">
     <path d="M 252.551562 75.338125 
L 262.551562 75.338125 
L 272.551562 75.338125 
" style="fill: none; stroke: #008000; stroke-width: 1.5; stroke-linecap: square"/>
    </g>
    <g id="text_18">
     <!-- APSNN -->
     <g transform="translate(280.551562 78.838125)scale(0.1 -0.1)">
      <use xlink:href="#TimesNewRomanPSMT-41"/>
      <use xlink:href="#TimesNewRomanPSMT-50" x="72.216797"/>
      <use xlink:href="#TimesNewRomanPSMT-53" x="127.832031"/>
      <use xlink:href="#TimesNewRomanPSMT-4e" x="183.447266"/>
      <use xlink:href="#TimesNewRomanPSMT-4e" x="255.664062"/>
     </g>
    </g>
    <g id="line2d_21">
     <path d="M 252.551562 89.477188 
L 262.551562 89.477188 
L 272.551562 89.477188 
" style="fill: none; stroke: #ffa500; stroke-width: 1.5; stroke-linecap: square"/>
    </g>
    <g id="text_19">
     <!-- DDSNN -->
     <g transform="translate(280.551562 92.977188)scale(0.1 -0.1)">
      <defs>
       <path id="TimesNewRomanPSMT-44" d="M 109 0 
L 109 116 
L 269 116 
Q 538 116 650 288 
Q 719 391 719 750 
L 719 3488 
Q 719 3884 631 3984 
Q 509 4122 269 4122 
L 109 4122 
L 109 4238 
L 1834 4238 
Q 2784 4238 3279 4022 
Q 3775 3806 4076 3303 
Q 4378 2800 4378 2141 
Q 4378 1256 3841 663 
Q 3238 0 2003 0 
L 109 0 
z
M 1319 306 
Q 1716 219 1984 219 
Q 2709 219 3187 728 
Q 3666 1238 3666 2109 
Q 3666 2988 3187 3494 
Q 2709 4000 1959 4000 
Q 1678 4000 1319 3909 
L 1319 306 
z
" transform="scale(0.015625)"/>
      </defs>
      <use xlink:href="#TimesNewRomanPSMT-44"/>
      <use xlink:href="#TimesNewRomanPSMT-44" x="72.216797"/>
      <use xlink:href="#TimesNewRomanPSMT-53" x="144.433594"/>
      <use xlink:href="#TimesNewRomanPSMT-4e" x="200.048828"/>
      <use xlink:href="#TimesNewRomanPSMT-4e" x="272.265625"/>
     </g>
    </g>
   </g>
  </g>
 </g>
 <defs>
  <clipPath id="pb817fe9f60">
   <rect x="45" y="34.56" width="279" height="221.76"/>
  </clipPath>
 </defs>
</svg>
